G04 EAGLE Gerber RS-274X export*
G75*
%MOMM*%
%FSLAX34Y34*%
%LPD*%
%INTop Copper*%
%IPPOS*%
%AMOC8*
5,1,8,0,0,1.08239X$1,22.5*%
G01*
%ADD10P,1.979475X8X22.500000*%
%ADD11P,1.979475X8X112.200000*%
%ADD12P,1.979475X8X291.900000*%
%ADD13C,2.032000*%
%ADD14C,2.016000*%


D10*
X196800Y485000D03*
X222200Y485000D03*
X197800Y392000D03*
X223200Y392000D03*
D11*
X196734Y560701D03*
X197266Y662299D03*
D12*
X210032Y318797D03*
X208968Y217203D03*
D13*
X311510Y613280D02*
X331830Y613280D01*
X331830Y638680D02*
X311510Y638680D01*
X311510Y664080D02*
X331830Y664080D01*
X331830Y689480D02*
X311510Y689480D01*
X311510Y587880D02*
X331830Y587880D01*
X331830Y562480D02*
X311510Y562480D01*
X311510Y537080D02*
X331830Y537080D01*
D14*
X614820Y37300D02*
X634980Y37300D01*
X634980Y62700D02*
X614820Y62700D01*
X614820Y88100D02*
X634980Y88100D01*
X634980Y113500D02*
X614820Y113500D01*
X614820Y138900D02*
X634980Y138900D01*
X634980Y164300D02*
X614820Y164300D01*
X614820Y189700D02*
X634980Y189700D01*
X634980Y215100D02*
X614820Y215100D01*
X614820Y240500D02*
X634980Y240500D01*
X634980Y265900D02*
X614820Y265900D01*
X614820Y291300D02*
X634980Y291300D01*
X634980Y316700D02*
X614820Y316700D01*
X614820Y342100D02*
X634980Y342100D01*
X634980Y367500D02*
X614820Y367500D01*
X614820Y392900D02*
X634980Y392900D01*
X387280Y37300D02*
X367120Y37300D01*
X367120Y62700D02*
X387280Y62700D01*
X387280Y88100D02*
X367120Y88100D01*
X367120Y113500D02*
X387280Y113500D01*
X387280Y138900D02*
X367120Y138900D01*
X367120Y164300D02*
X387280Y164300D01*
X387280Y189700D02*
X367120Y189700D01*
X367120Y215100D02*
X387280Y215100D01*
X387280Y240500D02*
X367120Y240500D01*
X367120Y265900D02*
X387280Y265900D01*
X387280Y291300D02*
X367120Y291300D01*
X367120Y316700D02*
X387280Y316700D01*
X387280Y342100D02*
X367120Y342100D01*
X367120Y367500D02*
X387280Y367500D01*
X387280Y392900D02*
X367120Y392900D01*
D13*
X610510Y613280D02*
X630830Y613280D01*
X630830Y638680D02*
X610510Y638680D01*
X610510Y664080D02*
X630830Y664080D01*
X630830Y689480D02*
X610510Y689480D01*
X610510Y587880D02*
X630830Y587880D01*
X630830Y562480D02*
X610510Y562480D01*
X610510Y537080D02*
X630830Y537080D01*
M02*
