G04 EAGLE Gerber RS-274X export*
G75*
%MOMM*%
%FSLAX34Y34*%
%LPD*%
%INBottom Copper*%
%IPPOS*%
%AMOC8*
5,1,8,0,0,1.08239X$1,22.5*%
G01*
%ADD10P,2.089446X8X22.500000*%
%ADD11P,2.089446X8X112.200000*%
%ADD12P,2.089446X8X291.900000*%
%ADD13C,2.133600*%
%ADD14C,2.117600*%
%ADD15C,1.700000*%

G36*
X702673Y-15977D02*
X702673Y-15977D01*
X703008Y-15967D01*
X703084Y-15957D01*
X703161Y-15953D01*
X703493Y-15905D01*
X703826Y-15862D01*
X703901Y-15845D01*
X703977Y-15834D01*
X704302Y-15754D01*
X704629Y-15679D01*
X704703Y-15655D01*
X704777Y-15636D01*
X705093Y-15525D01*
X705412Y-15419D01*
X705482Y-15387D01*
X705554Y-15362D01*
X705858Y-15220D01*
X706165Y-15084D01*
X706232Y-15046D01*
X706301Y-15013D01*
X706590Y-14843D01*
X706882Y-14678D01*
X706945Y-14633D01*
X707011Y-14594D01*
X707283Y-14396D01*
X707557Y-14204D01*
X707615Y-14154D01*
X707677Y-14108D01*
X707928Y-13885D01*
X708182Y-13667D01*
X708235Y-13611D01*
X708293Y-13560D01*
X708521Y-13314D01*
X708753Y-13072D01*
X708800Y-13011D01*
X708853Y-12955D01*
X709055Y-12688D01*
X709263Y-12424D01*
X709304Y-12360D01*
X709351Y-12298D01*
X709527Y-12013D01*
X709708Y-11730D01*
X709743Y-11662D01*
X709783Y-11597D01*
X709931Y-11295D01*
X710084Y-10997D01*
X710112Y-10925D01*
X710146Y-10856D01*
X710264Y-10542D01*
X710387Y-10230D01*
X710408Y-10156D01*
X710435Y-10084D01*
X710522Y-9760D01*
X710614Y-9438D01*
X710628Y-9362D01*
X710648Y-9288D01*
X710703Y-8957D01*
X710763Y-8627D01*
X710768Y-8565D01*
X710782Y-8475D01*
X710838Y-7652D01*
X710835Y-7558D01*
X710839Y-7494D01*
X710839Y-2029D01*
X712895Y5642D01*
X716865Y12519D01*
X722481Y18135D01*
X729358Y22105D01*
X737029Y24161D01*
X742745Y24161D01*
X743078Y24177D01*
X743411Y24187D01*
X743489Y24197D01*
X743568Y24201D01*
X743898Y24249D01*
X744228Y24291D01*
X744305Y24309D01*
X744384Y24320D01*
X744708Y24400D01*
X745032Y24474D01*
X745107Y24499D01*
X745184Y24518D01*
X745499Y24630D01*
X745814Y24734D01*
X745886Y24766D01*
X745961Y24793D01*
X746264Y24934D01*
X746568Y25069D01*
X746636Y25108D01*
X746708Y25141D01*
X746995Y25311D01*
X747285Y25475D01*
X747350Y25521D01*
X747418Y25561D01*
X747686Y25757D01*
X747960Y25949D01*
X748020Y26000D01*
X748084Y26047D01*
X748332Y26268D01*
X748585Y26486D01*
X748640Y26543D01*
X748699Y26595D01*
X748925Y26840D01*
X749156Y27080D01*
X749205Y27143D01*
X749259Y27201D01*
X749460Y27465D01*
X749666Y27728D01*
X749709Y27794D01*
X749757Y27857D01*
X749931Y28141D01*
X750112Y28422D01*
X750148Y28492D01*
X750189Y28559D01*
X750336Y28859D01*
X750488Y29155D01*
X750517Y29229D01*
X750551Y29300D01*
X750668Y29612D01*
X750791Y29922D01*
X750813Y29998D01*
X750840Y30072D01*
X750926Y30393D01*
X751018Y30714D01*
X751033Y30792D01*
X751053Y30868D01*
X751107Y31197D01*
X751168Y31525D01*
X751172Y31589D01*
X751187Y31682D01*
X751242Y32504D01*
X751240Y32595D01*
X751244Y32658D01*
X751425Y757838D01*
X751409Y758172D01*
X751398Y758508D01*
X751389Y758585D01*
X751385Y758661D01*
X751336Y758993D01*
X751294Y759326D01*
X751277Y759401D01*
X751266Y759477D01*
X751185Y759802D01*
X751111Y760129D01*
X751086Y760203D01*
X751068Y760277D01*
X750956Y760593D01*
X750850Y760912D01*
X750819Y760982D01*
X750793Y761055D01*
X750652Y761358D01*
X750515Y761665D01*
X750477Y761732D01*
X750445Y761802D01*
X750274Y762090D01*
X750109Y762382D01*
X750065Y762445D01*
X750026Y762511D01*
X749828Y762783D01*
X749635Y763057D01*
X749585Y763115D01*
X749540Y763177D01*
X749316Y763428D01*
X749098Y763682D01*
X749043Y763735D01*
X748992Y763793D01*
X748745Y764021D01*
X748503Y764253D01*
X748443Y764300D01*
X748386Y764353D01*
X748119Y764555D01*
X747856Y764763D01*
X747791Y764805D01*
X747730Y764851D01*
X747445Y765027D01*
X747162Y765208D01*
X747093Y765243D01*
X747028Y765284D01*
X746727Y765431D01*
X746428Y765584D01*
X746357Y765612D01*
X746288Y765646D01*
X745974Y765763D01*
X745662Y765887D01*
X745588Y765908D01*
X745516Y765935D01*
X745191Y766022D01*
X744869Y766114D01*
X744794Y766128D01*
X744719Y766148D01*
X744388Y766203D01*
X744059Y766263D01*
X743996Y766268D01*
X743906Y766283D01*
X743083Y766338D01*
X742989Y766335D01*
X742925Y766339D01*
X737529Y766339D01*
X729858Y768395D01*
X722981Y772365D01*
X717365Y777981D01*
X713395Y784858D01*
X711339Y792529D01*
X711339Y797840D01*
X711323Y798174D01*
X711313Y798508D01*
X711303Y798585D01*
X711299Y798663D01*
X711251Y798994D01*
X711208Y799326D01*
X711191Y799402D01*
X711180Y799479D01*
X711099Y799804D01*
X711025Y800129D01*
X711000Y800203D01*
X710982Y800279D01*
X710870Y800595D01*
X710765Y800912D01*
X710733Y800983D01*
X710707Y801056D01*
X710566Y801360D01*
X710430Y801665D01*
X710392Y801733D01*
X710359Y801803D01*
X710188Y802092D01*
X710024Y802382D01*
X709979Y802446D01*
X709939Y802513D01*
X709742Y802784D01*
X709550Y803057D01*
X709499Y803116D01*
X709453Y803179D01*
X709230Y803429D01*
X709013Y803682D01*
X708957Y803736D01*
X708905Y803795D01*
X708659Y804022D01*
X708418Y804253D01*
X708357Y804301D01*
X708299Y804354D01*
X708034Y804556D01*
X707771Y804763D01*
X707705Y804805D01*
X707643Y804852D01*
X707358Y805027D01*
X707077Y805208D01*
X707007Y805244D01*
X706941Y805285D01*
X706641Y805431D01*
X706343Y805584D01*
X706270Y805613D01*
X706200Y805647D01*
X705887Y805764D01*
X705576Y805887D01*
X705501Y805908D01*
X705428Y805936D01*
X705105Y806022D01*
X704784Y806114D01*
X704707Y806128D01*
X704632Y806148D01*
X704302Y806203D01*
X703973Y806263D01*
X703910Y806268D01*
X703818Y806283D01*
X702996Y806338D01*
X702903Y806335D01*
X702840Y806339D01*
X201160Y806339D01*
X200826Y806323D01*
X200492Y806313D01*
X200415Y806303D01*
X200337Y806299D01*
X200006Y806251D01*
X199674Y806208D01*
X199598Y806191D01*
X199521Y806180D01*
X199196Y806099D01*
X198871Y806025D01*
X198797Y806000D01*
X198721Y805982D01*
X198405Y805870D01*
X198088Y805765D01*
X198017Y805733D01*
X197944Y805707D01*
X197640Y805566D01*
X197335Y805430D01*
X197267Y805392D01*
X197197Y805359D01*
X196908Y805188D01*
X196618Y805024D01*
X196554Y804979D01*
X196487Y804939D01*
X196216Y804742D01*
X195943Y804550D01*
X195884Y804499D01*
X195821Y804453D01*
X195571Y804230D01*
X195318Y804013D01*
X195264Y803957D01*
X195205Y803905D01*
X194978Y803659D01*
X194747Y803418D01*
X194699Y803357D01*
X194646Y803299D01*
X194444Y803034D01*
X194237Y802771D01*
X194195Y802705D01*
X194148Y802643D01*
X193973Y802358D01*
X193792Y802077D01*
X193756Y802007D01*
X193715Y801941D01*
X193569Y801641D01*
X193416Y801343D01*
X193387Y801270D01*
X193353Y801200D01*
X193236Y800887D01*
X193113Y800576D01*
X193092Y800501D01*
X193064Y800428D01*
X192978Y800105D01*
X192886Y799784D01*
X192872Y799707D01*
X192852Y799632D01*
X192797Y799302D01*
X192737Y798973D01*
X192732Y798910D01*
X192717Y798818D01*
X192662Y797996D01*
X192665Y797903D01*
X192661Y797840D01*
X192661Y792529D01*
X190605Y784858D01*
X186635Y777981D01*
X181019Y772365D01*
X174142Y768395D01*
X166471Y766339D01*
X160960Y766339D01*
X160626Y766323D01*
X160292Y766313D01*
X160215Y766303D01*
X160137Y766299D01*
X159806Y766251D01*
X159474Y766208D01*
X159398Y766191D01*
X159321Y766180D01*
X158996Y766099D01*
X158671Y766025D01*
X158597Y766000D01*
X158521Y765982D01*
X158205Y765870D01*
X157888Y765765D01*
X157817Y765733D01*
X157744Y765707D01*
X157440Y765566D01*
X157135Y765430D01*
X157067Y765392D01*
X156997Y765359D01*
X156708Y765188D01*
X156418Y765024D01*
X156354Y764979D01*
X156287Y764939D01*
X156016Y764742D01*
X155743Y764550D01*
X155684Y764499D01*
X155621Y764453D01*
X155371Y764230D01*
X155118Y764013D01*
X155064Y763957D01*
X155005Y763905D01*
X154778Y763659D01*
X154547Y763418D01*
X154499Y763357D01*
X154446Y763299D01*
X154244Y763034D01*
X154037Y762771D01*
X153995Y762705D01*
X153948Y762643D01*
X153773Y762358D01*
X153592Y762077D01*
X153556Y762007D01*
X153515Y761941D01*
X153369Y761641D01*
X153216Y761343D01*
X153187Y761270D01*
X153153Y761200D01*
X153036Y760887D01*
X152913Y760576D01*
X152892Y760501D01*
X152864Y760428D01*
X152778Y760105D01*
X152686Y759784D01*
X152672Y759707D01*
X152652Y759632D01*
X152597Y759302D01*
X152537Y758973D01*
X152532Y758910D01*
X152517Y758818D01*
X152462Y757996D01*
X152465Y757903D01*
X152461Y757840D01*
X152461Y32660D01*
X152477Y32326D01*
X152487Y31992D01*
X152497Y31915D01*
X152501Y31837D01*
X152549Y31506D01*
X152592Y31174D01*
X152609Y31098D01*
X152620Y31021D01*
X152701Y30696D01*
X152775Y30371D01*
X152800Y30297D01*
X152818Y30221D01*
X152930Y29905D01*
X153035Y29588D01*
X153067Y29517D01*
X153093Y29444D01*
X153234Y29140D01*
X153370Y28835D01*
X153408Y28767D01*
X153441Y28697D01*
X153612Y28408D01*
X153776Y28118D01*
X153821Y28054D01*
X153861Y27987D01*
X154058Y27716D01*
X154250Y27443D01*
X154301Y27384D01*
X154347Y27321D01*
X154570Y27071D01*
X154787Y26818D01*
X154843Y26764D01*
X154895Y26705D01*
X155141Y26478D01*
X155382Y26247D01*
X155443Y26199D01*
X155501Y26146D01*
X155766Y25944D01*
X156029Y25737D01*
X156095Y25695D01*
X156157Y25648D01*
X156442Y25473D01*
X156723Y25292D01*
X156793Y25256D01*
X156859Y25215D01*
X157159Y25069D01*
X157457Y24916D01*
X157530Y24887D01*
X157600Y24853D01*
X157913Y24736D01*
X158224Y24613D01*
X158299Y24592D01*
X158372Y24564D01*
X158695Y24478D01*
X159016Y24386D01*
X159093Y24372D01*
X159168Y24352D01*
X159498Y24297D01*
X159827Y24237D01*
X159890Y24232D01*
X159982Y24217D01*
X160804Y24162D01*
X160897Y24165D01*
X160960Y24161D01*
X166471Y24161D01*
X174142Y22105D01*
X179286Y19135D01*
X181019Y18135D01*
X186635Y12519D01*
X190605Y5642D01*
X192661Y-2029D01*
X192661Y-7356D01*
X192677Y-7689D01*
X192687Y-8022D01*
X192697Y-8100D01*
X192701Y-8180D01*
X192749Y-8510D01*
X192791Y-8840D01*
X192809Y-8917D01*
X192820Y-8995D01*
X192900Y-9319D01*
X192974Y-9643D01*
X192999Y-9718D01*
X193018Y-9795D01*
X193129Y-10110D01*
X193234Y-10426D01*
X193266Y-10498D01*
X193293Y-10573D01*
X193434Y-10875D01*
X193569Y-11179D01*
X193608Y-11248D01*
X193641Y-11320D01*
X193811Y-11607D01*
X193975Y-11896D01*
X194020Y-11961D01*
X194061Y-12029D01*
X194257Y-12299D01*
X194449Y-12571D01*
X194500Y-12631D01*
X194547Y-12695D01*
X194768Y-12944D01*
X194985Y-13197D01*
X195043Y-13252D01*
X195095Y-13311D01*
X195339Y-13536D01*
X195580Y-13767D01*
X195643Y-13817D01*
X195701Y-13870D01*
X195965Y-14071D01*
X196228Y-14278D01*
X196294Y-14321D01*
X196357Y-14368D01*
X196641Y-14543D01*
X196921Y-14723D01*
X196992Y-14759D01*
X197059Y-14801D01*
X197359Y-14947D01*
X197655Y-15099D01*
X197729Y-15128D01*
X197800Y-15163D01*
X198111Y-15280D01*
X198422Y-15402D01*
X198498Y-15424D01*
X198572Y-15452D01*
X198894Y-15538D01*
X199214Y-15630D01*
X199292Y-15644D01*
X199368Y-15664D01*
X199697Y-15719D01*
X200025Y-15779D01*
X200089Y-15784D01*
X200182Y-15799D01*
X201004Y-15854D01*
X201095Y-15851D01*
X201158Y-15855D01*
X702338Y-15993D01*
X702673Y-15977D01*
G37*
%LPC*%
G36*
X373946Y21179D02*
X373946Y21179D01*
X373817Y21216D01*
X373688Y21262D01*
X373420Y21330D01*
X373155Y21406D01*
X373021Y21431D01*
X372889Y21464D01*
X372616Y21505D01*
X372345Y21555D01*
X372238Y21563D01*
X372074Y21587D01*
X371251Y21631D01*
X371228Y21630D01*
X371212Y21631D01*
X363495Y21631D01*
X357736Y24017D01*
X353329Y28424D01*
X350943Y34183D01*
X350943Y40417D01*
X353329Y46176D01*
X355441Y48288D01*
X355653Y48521D01*
X355870Y48750D01*
X355930Y48827D01*
X355995Y48899D01*
X356183Y49151D01*
X356377Y49400D01*
X356429Y49482D01*
X356487Y49560D01*
X356650Y49829D01*
X356819Y50095D01*
X356863Y50183D01*
X356913Y50266D01*
X357049Y50550D01*
X357191Y50831D01*
X357227Y50922D01*
X357269Y51010D01*
X357376Y51306D01*
X357491Y51599D01*
X357517Y51693D01*
X357550Y51784D01*
X357629Y52089D01*
X357714Y52392D01*
X357732Y52488D01*
X357756Y52583D01*
X357804Y52893D01*
X357860Y53204D01*
X357868Y53301D01*
X357883Y53397D01*
X357901Y53712D01*
X357926Y54025D01*
X357925Y54123D01*
X357929Y54201D01*
X377200Y54201D01*
X377533Y54217D01*
X377868Y54227D01*
X377945Y54237D01*
X378023Y54241D01*
X378354Y54289D01*
X378685Y54331D01*
X378761Y54349D01*
X378839Y54360D01*
X379163Y54440D01*
X379489Y54515D01*
X379563Y54539D01*
X379639Y54558D01*
X379954Y54670D01*
X380271Y54775D01*
X380343Y54807D01*
X380416Y54833D01*
X380719Y54974D01*
X381025Y55110D01*
X381092Y55148D01*
X381163Y55181D01*
X381451Y55352D01*
X381742Y55516D01*
X381806Y55561D01*
X381873Y55601D01*
X382143Y55798D01*
X382416Y55990D01*
X382476Y56041D01*
X382539Y56087D01*
X382789Y56310D01*
X383042Y56527D01*
X383096Y56583D01*
X383154Y56635D01*
X383381Y56881D01*
X383612Y57122D01*
X383661Y57183D01*
X383714Y57240D01*
X383915Y57506D01*
X384123Y57769D01*
X384165Y57835D01*
X384212Y57897D01*
X384387Y58181D01*
X384568Y58463D01*
X384603Y58533D01*
X384644Y58599D01*
X384791Y58899D01*
X384943Y59197D01*
X384972Y59270D01*
X385006Y59340D01*
X385123Y59652D01*
X385246Y59964D01*
X385268Y60039D01*
X385295Y60112D01*
X385382Y60435D01*
X385474Y60756D01*
X385488Y60833D01*
X385508Y60908D01*
X385563Y61238D01*
X385623Y61567D01*
X385627Y61630D01*
X385642Y61721D01*
X385697Y62544D01*
X385695Y62637D01*
X385699Y62700D01*
X385683Y63034D01*
X385673Y63368D01*
X385663Y63446D01*
X385659Y63524D01*
X385610Y63855D01*
X385568Y64186D01*
X385551Y64262D01*
X385539Y64339D01*
X385459Y64664D01*
X385385Y64990D01*
X385360Y65064D01*
X385341Y65139D01*
X385230Y65455D01*
X385124Y65772D01*
X385093Y65843D01*
X385067Y65917D01*
X384925Y66220D01*
X384790Y66525D01*
X384751Y66593D01*
X384718Y66664D01*
X384548Y66952D01*
X384383Y67242D01*
X384339Y67306D01*
X384299Y67373D01*
X384101Y67644D01*
X383910Y67917D01*
X383859Y67976D01*
X383813Y68039D01*
X383590Y68289D01*
X383373Y68542D01*
X383316Y68596D01*
X383264Y68655D01*
X383019Y68882D01*
X382778Y69113D01*
X382716Y69161D01*
X382659Y69214D01*
X382393Y69416D01*
X382130Y69623D01*
X382064Y69665D01*
X382002Y69712D01*
X381718Y69887D01*
X381436Y70068D01*
X381367Y70104D01*
X381300Y70145D01*
X381000Y70291D01*
X380703Y70444D01*
X380630Y70473D01*
X380560Y70507D01*
X380247Y70624D01*
X379936Y70747D01*
X379861Y70768D01*
X379788Y70796D01*
X379465Y70882D01*
X379144Y70974D01*
X379067Y70988D01*
X378991Y71008D01*
X378661Y71063D01*
X378333Y71124D01*
X378270Y71128D01*
X378178Y71143D01*
X377356Y71198D01*
X377263Y71195D01*
X377200Y71199D01*
X351075Y71199D01*
X351027Y71224D01*
X350954Y71253D01*
X350884Y71287D01*
X350571Y71404D01*
X350260Y71527D01*
X350185Y71548D01*
X350112Y71576D01*
X349789Y71662D01*
X349468Y71754D01*
X349391Y71768D01*
X349316Y71788D01*
X348986Y71843D01*
X348657Y71903D01*
X348594Y71908D01*
X348502Y71923D01*
X347680Y71978D01*
X347587Y71975D01*
X347524Y71979D01*
X334864Y71979D01*
X328939Y74433D01*
X195302Y208071D01*
X194473Y210071D01*
X194374Y210280D01*
X194284Y210494D01*
X194198Y210653D01*
X194121Y210816D01*
X194003Y211015D01*
X193892Y211219D01*
X193891Y211220D01*
X193866Y211338D01*
X193843Y211407D01*
X193817Y211515D01*
X193551Y212295D01*
X193520Y212364D01*
X193503Y212413D01*
X192847Y213996D01*
X192847Y220409D01*
X193676Y222409D01*
X193754Y222627D01*
X193841Y222841D01*
X193893Y223015D01*
X193954Y223185D01*
X194010Y223410D01*
X194077Y223631D01*
X194077Y223633D01*
X194142Y223734D01*
X194175Y223800D01*
X194233Y223894D01*
X194596Y224634D01*
X194623Y224705D01*
X194646Y224752D01*
X195302Y226334D01*
X199836Y230869D01*
X201836Y231698D01*
X202046Y231797D01*
X202259Y231886D01*
X202418Y231972D01*
X202582Y232050D01*
X202780Y232168D01*
X202984Y232278D01*
X202985Y232279D01*
X203103Y232304D01*
X203173Y232328D01*
X203280Y232353D01*
X204060Y232620D01*
X204129Y232651D01*
X204179Y232668D01*
X205761Y233324D01*
X212175Y233324D01*
X214174Y232495D01*
X214392Y232417D01*
X214607Y232330D01*
X214780Y232278D01*
X214950Y232217D01*
X215175Y232160D01*
X215397Y232094D01*
X215398Y232094D01*
X215499Y232029D01*
X215565Y231996D01*
X215659Y231938D01*
X216399Y231575D01*
X216470Y231548D01*
X216517Y231525D01*
X218100Y230869D01*
X336504Y112465D01*
X336765Y112228D01*
X337024Y111986D01*
X337071Y111951D01*
X337114Y111911D01*
X337398Y111700D01*
X337679Y111485D01*
X337728Y111454D01*
X337775Y111419D01*
X338078Y111236D01*
X338379Y111050D01*
X338431Y111024D01*
X338481Y110993D01*
X338801Y110841D01*
X339118Y110684D01*
X339172Y110663D01*
X339225Y110638D01*
X339558Y110517D01*
X339888Y110392D01*
X339945Y110376D01*
X340000Y110356D01*
X340343Y110268D01*
X340684Y110175D01*
X340741Y110165D01*
X340798Y110151D01*
X341149Y110096D01*
X341496Y110037D01*
X341555Y110033D01*
X341613Y110024D01*
X341968Y110003D01*
X342319Y109978D01*
X342377Y109980D01*
X342436Y109976D01*
X342790Y109990D01*
X343143Y109999D01*
X343201Y110006D01*
X343259Y110009D01*
X343609Y110057D01*
X343961Y110100D01*
X344018Y110113D01*
X344076Y110121D01*
X344421Y110203D01*
X344765Y110280D01*
X344821Y110298D01*
X344878Y110311D01*
X345212Y110426D01*
X345549Y110536D01*
X345603Y110560D01*
X345658Y110579D01*
X345979Y110725D01*
X346304Y110868D01*
X346355Y110896D01*
X346408Y110921D01*
X346714Y111097D01*
X347023Y111271D01*
X347071Y111304D01*
X347121Y111333D01*
X347408Y111539D01*
X347699Y111741D01*
X347744Y111779D01*
X347792Y111813D01*
X348057Y112046D01*
X348327Y112275D01*
X348368Y112318D01*
X348412Y112356D01*
X348654Y112613D01*
X348901Y112868D01*
X348937Y112914D01*
X348977Y112956D01*
X349194Y113236D01*
X349414Y113513D01*
X349446Y113562D01*
X349481Y113608D01*
X349670Y113908D01*
X349862Y114205D01*
X349883Y114248D01*
X349920Y114306D01*
X350289Y115043D01*
X350331Y115153D01*
X350366Y115223D01*
X353566Y122947D01*
X353665Y123225D01*
X353772Y123501D01*
X353804Y123613D01*
X353844Y123723D01*
X353916Y124010D01*
X353996Y124294D01*
X354017Y124409D01*
X354045Y124523D01*
X354090Y124815D01*
X354142Y125105D01*
X354151Y125222D01*
X354169Y125338D01*
X354184Y125633D01*
X354208Y125927D01*
X354206Y126044D01*
X354212Y126161D01*
X354199Y126456D01*
X354195Y126751D01*
X354181Y126867D01*
X354176Y126985D01*
X354135Y127277D01*
X354101Y127570D01*
X354077Y127685D01*
X354060Y127801D01*
X353991Y128088D01*
X353929Y128377D01*
X353899Y128464D01*
X353866Y128602D01*
X353595Y129380D01*
X353576Y129422D01*
X353566Y129452D01*
X350943Y135783D01*
X350943Y142017D01*
X353566Y148347D01*
X353665Y148625D01*
X353772Y148901D01*
X353804Y149013D01*
X353844Y149123D01*
X353916Y149410D01*
X353996Y149694D01*
X354017Y149809D01*
X354045Y149923D01*
X354090Y150215D01*
X354142Y150505D01*
X354151Y150622D01*
X354169Y150738D01*
X354184Y151033D01*
X354208Y151327D01*
X354206Y151444D01*
X354212Y151561D01*
X354199Y151856D01*
X354195Y152151D01*
X354181Y152267D01*
X354176Y152385D01*
X354135Y152677D01*
X354101Y152970D01*
X354077Y153085D01*
X354060Y153201D01*
X353991Y153488D01*
X353929Y153777D01*
X353899Y153864D01*
X353866Y154002D01*
X353595Y154780D01*
X353576Y154822D01*
X353566Y154852D01*
X350943Y161183D01*
X350943Y167417D01*
X353566Y173747D01*
X353665Y174025D01*
X353772Y174301D01*
X353804Y174413D01*
X353844Y174523D01*
X353916Y174810D01*
X353996Y175094D01*
X354017Y175209D01*
X354045Y175323D01*
X354090Y175615D01*
X354142Y175905D01*
X354151Y176022D01*
X354169Y176138D01*
X354184Y176433D01*
X354208Y176727D01*
X354206Y176844D01*
X354212Y176961D01*
X354199Y177256D01*
X354195Y177551D01*
X354181Y177667D01*
X354176Y177785D01*
X354135Y178077D01*
X354101Y178370D01*
X354077Y178485D01*
X354060Y178601D01*
X353991Y178888D01*
X353929Y179177D01*
X353899Y179264D01*
X353866Y179402D01*
X353595Y180180D01*
X353576Y180222D01*
X353566Y180252D01*
X350943Y186583D01*
X350943Y192817D01*
X353566Y199147D01*
X353665Y199425D01*
X353772Y199701D01*
X353804Y199813D01*
X353844Y199923D01*
X353916Y200210D01*
X353996Y200494D01*
X354017Y200609D01*
X354045Y200723D01*
X354090Y201015D01*
X354142Y201305D01*
X354151Y201422D01*
X354169Y201538D01*
X354184Y201833D01*
X354208Y202127D01*
X354206Y202244D01*
X354212Y202361D01*
X354199Y202656D01*
X354195Y202951D01*
X354181Y203067D01*
X354176Y203185D01*
X354135Y203477D01*
X354101Y203770D01*
X354077Y203885D01*
X354060Y204001D01*
X353991Y204288D01*
X353929Y204577D01*
X353899Y204664D01*
X353866Y204802D01*
X353595Y205580D01*
X353576Y205622D01*
X353566Y205652D01*
X350943Y211983D01*
X350943Y218217D01*
X353566Y224547D01*
X353665Y224825D01*
X353772Y225101D01*
X353804Y225213D01*
X353844Y225323D01*
X353916Y225610D01*
X353996Y225894D01*
X354017Y226009D01*
X354045Y226123D01*
X354090Y226415D01*
X354142Y226705D01*
X354151Y226822D01*
X354169Y226938D01*
X354184Y227233D01*
X354208Y227527D01*
X354206Y227644D01*
X354212Y227761D01*
X354199Y228056D01*
X354195Y228351D01*
X354181Y228467D01*
X354176Y228585D01*
X354135Y228877D01*
X354101Y229170D01*
X354077Y229285D01*
X354060Y229401D01*
X353991Y229688D01*
X353929Y229977D01*
X353899Y230064D01*
X353866Y230202D01*
X353595Y230980D01*
X353576Y231022D01*
X353566Y231052D01*
X350943Y237383D01*
X350943Y243617D01*
X353566Y249947D01*
X353665Y250225D01*
X353772Y250501D01*
X353804Y250613D01*
X353844Y250723D01*
X353916Y251010D01*
X353996Y251294D01*
X354017Y251409D01*
X354045Y251523D01*
X354090Y251815D01*
X354142Y252105D01*
X354151Y252222D01*
X354169Y252338D01*
X354184Y252633D01*
X354208Y252927D01*
X354206Y253044D01*
X354212Y253161D01*
X354199Y253456D01*
X354195Y253751D01*
X354181Y253867D01*
X354176Y253985D01*
X354135Y254277D01*
X354101Y254570D01*
X354077Y254685D01*
X354060Y254801D01*
X353991Y255088D01*
X353929Y255377D01*
X353899Y255464D01*
X353866Y255602D01*
X353595Y256380D01*
X353576Y256422D01*
X353566Y256452D01*
X350943Y262783D01*
X350943Y269017D01*
X353566Y275347D01*
X353665Y275625D01*
X353772Y275901D01*
X353804Y276013D01*
X353844Y276123D01*
X353916Y276410D01*
X353996Y276694D01*
X354017Y276809D01*
X354045Y276923D01*
X354090Y277215D01*
X354142Y277505D01*
X354151Y277622D01*
X354169Y277738D01*
X354184Y278033D01*
X354208Y278327D01*
X354206Y278444D01*
X354212Y278561D01*
X354199Y278856D01*
X354195Y279151D01*
X354181Y279267D01*
X354176Y279385D01*
X354135Y279677D01*
X354101Y279970D01*
X354077Y280085D01*
X354060Y280201D01*
X353991Y280488D01*
X353929Y280777D01*
X353899Y280864D01*
X353866Y281002D01*
X353595Y281780D01*
X353576Y281822D01*
X353566Y281852D01*
X350943Y288183D01*
X350943Y294417D01*
X353566Y300747D01*
X353665Y301025D01*
X353772Y301301D01*
X353804Y301413D01*
X353844Y301523D01*
X353916Y301810D01*
X353996Y302094D01*
X354017Y302209D01*
X354045Y302323D01*
X354090Y302615D01*
X354142Y302905D01*
X354151Y303022D01*
X354169Y303138D01*
X354184Y303433D01*
X354208Y303727D01*
X354206Y303844D01*
X354212Y303961D01*
X354199Y304256D01*
X354195Y304551D01*
X354181Y304667D01*
X354176Y304785D01*
X354135Y305077D01*
X354101Y305370D01*
X354077Y305485D01*
X354060Y305601D01*
X353991Y305888D01*
X353929Y306177D01*
X353899Y306264D01*
X353866Y306402D01*
X353595Y307180D01*
X353576Y307222D01*
X353566Y307252D01*
X350943Y313583D01*
X350943Y319817D01*
X353566Y326147D01*
X353665Y326425D01*
X353772Y326701D01*
X353804Y326813D01*
X353844Y326923D01*
X353916Y327210D01*
X353996Y327494D01*
X354017Y327609D01*
X354045Y327723D01*
X354090Y328015D01*
X354142Y328305D01*
X354151Y328422D01*
X354169Y328538D01*
X354184Y328833D01*
X354208Y329127D01*
X354206Y329244D01*
X354212Y329361D01*
X354199Y329656D01*
X354195Y329951D01*
X354181Y330067D01*
X354176Y330185D01*
X354135Y330477D01*
X354101Y330770D01*
X354077Y330885D01*
X354060Y331001D01*
X353991Y331288D01*
X353929Y331577D01*
X353899Y331664D01*
X353866Y331802D01*
X353595Y332580D01*
X353576Y332622D01*
X353566Y332652D01*
X350943Y338983D01*
X350943Y345217D01*
X353566Y351547D01*
X353665Y351825D01*
X353772Y352101D01*
X353804Y352213D01*
X353844Y352323D01*
X353916Y352610D01*
X353996Y352894D01*
X354017Y353009D01*
X354045Y353123D01*
X354090Y353415D01*
X354142Y353705D01*
X354151Y353822D01*
X354169Y353938D01*
X354184Y354233D01*
X354208Y354527D01*
X354206Y354644D01*
X354212Y354761D01*
X354199Y355056D01*
X354195Y355351D01*
X354181Y355467D01*
X354176Y355585D01*
X354135Y355877D01*
X354101Y356170D01*
X354077Y356285D01*
X354060Y356401D01*
X353991Y356688D01*
X353929Y356977D01*
X353899Y357064D01*
X353866Y357202D01*
X353595Y357980D01*
X353576Y358022D01*
X353566Y358052D01*
X350943Y364383D01*
X350943Y370617D01*
X353566Y376947D01*
X353665Y377225D01*
X353772Y377501D01*
X353804Y377613D01*
X353844Y377723D01*
X353916Y378010D01*
X353996Y378294D01*
X354017Y378409D01*
X354045Y378523D01*
X354090Y378815D01*
X354142Y379105D01*
X354151Y379222D01*
X354169Y379338D01*
X354184Y379633D01*
X354208Y379927D01*
X354206Y380044D01*
X354212Y380161D01*
X354199Y380456D01*
X354195Y380751D01*
X354181Y380867D01*
X354176Y380985D01*
X354135Y381277D01*
X354101Y381570D01*
X354077Y381685D01*
X354060Y381801D01*
X353991Y382088D01*
X353929Y382377D01*
X353899Y382464D01*
X353866Y382602D01*
X353595Y383380D01*
X353576Y383422D01*
X353566Y383452D01*
X350943Y389783D01*
X350943Y396017D01*
X353329Y401776D01*
X357736Y406183D01*
X363495Y408569D01*
X390905Y408569D01*
X396664Y406183D01*
X401071Y401776D01*
X403457Y396017D01*
X403457Y389783D01*
X400834Y383452D01*
X400735Y383175D01*
X400628Y382899D01*
X400596Y382787D01*
X400556Y382677D01*
X400484Y382390D01*
X400404Y382106D01*
X400383Y381991D01*
X400355Y381877D01*
X400310Y381585D01*
X400258Y381294D01*
X400249Y381178D01*
X400231Y381062D01*
X400216Y380767D01*
X400192Y380473D01*
X400194Y380356D01*
X400188Y380239D01*
X400201Y379944D01*
X400205Y379649D01*
X400219Y379532D01*
X400224Y379415D01*
X400265Y379123D01*
X400299Y378830D01*
X400323Y378715D01*
X400340Y378599D01*
X400409Y378312D01*
X400471Y378023D01*
X400501Y377936D01*
X400534Y377798D01*
X400805Y377020D01*
X400824Y376978D01*
X400834Y376947D01*
X403457Y370617D01*
X403457Y364383D01*
X400834Y358052D01*
X400735Y357775D01*
X400628Y357499D01*
X400596Y357387D01*
X400556Y357277D01*
X400484Y356990D01*
X400404Y356706D01*
X400383Y356591D01*
X400355Y356477D01*
X400310Y356185D01*
X400258Y355894D01*
X400249Y355778D01*
X400231Y355662D01*
X400216Y355367D01*
X400192Y355073D01*
X400194Y354956D01*
X400188Y354839D01*
X400201Y354544D01*
X400205Y354249D01*
X400219Y354132D01*
X400224Y354015D01*
X400265Y353723D01*
X400299Y353430D01*
X400323Y353315D01*
X400340Y353199D01*
X400409Y352912D01*
X400471Y352623D01*
X400501Y352536D01*
X400534Y352398D01*
X400805Y351620D01*
X400824Y351578D01*
X400834Y351547D01*
X403457Y345217D01*
X403457Y338983D01*
X400834Y332652D01*
X400735Y332375D01*
X400628Y332099D01*
X400596Y331987D01*
X400556Y331877D01*
X400484Y331590D01*
X400404Y331306D01*
X400383Y331191D01*
X400355Y331077D01*
X400310Y330785D01*
X400258Y330494D01*
X400249Y330378D01*
X400231Y330262D01*
X400216Y329967D01*
X400192Y329673D01*
X400194Y329556D01*
X400188Y329439D01*
X400201Y329144D01*
X400205Y328849D01*
X400219Y328732D01*
X400224Y328615D01*
X400265Y328323D01*
X400299Y328030D01*
X400323Y327915D01*
X400340Y327799D01*
X400409Y327512D01*
X400471Y327223D01*
X400501Y327136D01*
X400534Y326998D01*
X400805Y326220D01*
X400824Y326178D01*
X400834Y326147D01*
X403457Y319817D01*
X403457Y313583D01*
X400834Y307252D01*
X400735Y306975D01*
X400628Y306699D01*
X400596Y306587D01*
X400556Y306477D01*
X400484Y306190D01*
X400404Y305906D01*
X400383Y305791D01*
X400355Y305677D01*
X400310Y305385D01*
X400258Y305094D01*
X400249Y304978D01*
X400231Y304862D01*
X400216Y304567D01*
X400192Y304273D01*
X400194Y304156D01*
X400188Y304039D01*
X400201Y303744D01*
X400205Y303449D01*
X400219Y303332D01*
X400224Y303215D01*
X400265Y302923D01*
X400299Y302630D01*
X400323Y302515D01*
X400340Y302399D01*
X400409Y302112D01*
X400471Y301823D01*
X400501Y301736D01*
X400534Y301598D01*
X400805Y300820D01*
X400824Y300778D01*
X400834Y300747D01*
X403457Y294417D01*
X403457Y288183D01*
X400834Y281852D01*
X400735Y281575D01*
X400628Y281299D01*
X400596Y281187D01*
X400556Y281077D01*
X400484Y280790D01*
X400404Y280506D01*
X400383Y280391D01*
X400355Y280277D01*
X400310Y279985D01*
X400258Y279694D01*
X400249Y279578D01*
X400231Y279462D01*
X400216Y279167D01*
X400192Y278873D01*
X400194Y278756D01*
X400188Y278639D01*
X400201Y278344D01*
X400205Y278049D01*
X400219Y277932D01*
X400224Y277815D01*
X400265Y277523D01*
X400299Y277230D01*
X400323Y277115D01*
X400340Y276999D01*
X400409Y276712D01*
X400471Y276423D01*
X400501Y276336D01*
X400534Y276198D01*
X400805Y275420D01*
X400824Y275378D01*
X400834Y275347D01*
X403457Y269017D01*
X403457Y262783D01*
X400834Y256452D01*
X400735Y256175D01*
X400628Y255899D01*
X400596Y255787D01*
X400556Y255677D01*
X400484Y255390D01*
X400404Y255106D01*
X400383Y254991D01*
X400355Y254877D01*
X400310Y254585D01*
X400258Y254294D01*
X400249Y254178D01*
X400231Y254062D01*
X400216Y253767D01*
X400192Y253473D01*
X400194Y253356D01*
X400188Y253239D01*
X400201Y252944D01*
X400205Y252649D01*
X400219Y252532D01*
X400224Y252415D01*
X400265Y252123D01*
X400299Y251830D01*
X400323Y251715D01*
X400340Y251599D01*
X400409Y251312D01*
X400471Y251023D01*
X400501Y250936D01*
X400534Y250798D01*
X400805Y250020D01*
X400824Y249978D01*
X400834Y249947D01*
X403457Y243617D01*
X403457Y237383D01*
X400834Y231052D01*
X400735Y230775D01*
X400628Y230499D01*
X400596Y230387D01*
X400556Y230277D01*
X400484Y229990D01*
X400404Y229706D01*
X400383Y229591D01*
X400355Y229477D01*
X400310Y229185D01*
X400258Y228894D01*
X400249Y228778D01*
X400231Y228662D01*
X400216Y228367D01*
X400192Y228073D01*
X400194Y227956D01*
X400188Y227839D01*
X400201Y227544D01*
X400205Y227249D01*
X400219Y227132D01*
X400224Y227015D01*
X400265Y226723D01*
X400299Y226430D01*
X400323Y226315D01*
X400340Y226199D01*
X400409Y225912D01*
X400471Y225623D01*
X400501Y225536D01*
X400534Y225398D01*
X400805Y224620D01*
X400824Y224578D01*
X400834Y224547D01*
X403457Y218217D01*
X403457Y211983D01*
X400834Y205652D01*
X400735Y205375D01*
X400628Y205099D01*
X400596Y204987D01*
X400556Y204877D01*
X400484Y204590D01*
X400404Y204306D01*
X400383Y204191D01*
X400355Y204077D01*
X400310Y203785D01*
X400258Y203494D01*
X400249Y203378D01*
X400231Y203262D01*
X400216Y202967D01*
X400192Y202673D01*
X400194Y202556D01*
X400188Y202439D01*
X400201Y202144D01*
X400205Y201849D01*
X400219Y201732D01*
X400224Y201615D01*
X400265Y201323D01*
X400299Y201030D01*
X400323Y200915D01*
X400340Y200799D01*
X400409Y200512D01*
X400471Y200223D01*
X400501Y200136D01*
X400534Y199998D01*
X400805Y199220D01*
X400824Y199178D01*
X400834Y199147D01*
X403457Y192817D01*
X403457Y186583D01*
X400834Y180252D01*
X400735Y179975D01*
X400628Y179699D01*
X400596Y179587D01*
X400556Y179477D01*
X400484Y179190D01*
X400404Y178906D01*
X400383Y178791D01*
X400355Y178677D01*
X400310Y178385D01*
X400258Y178094D01*
X400249Y177978D01*
X400231Y177862D01*
X400216Y177567D01*
X400192Y177273D01*
X400194Y177156D01*
X400188Y177039D01*
X400201Y176744D01*
X400205Y176449D01*
X400219Y176332D01*
X400224Y176215D01*
X400265Y175923D01*
X400299Y175630D01*
X400323Y175515D01*
X400340Y175399D01*
X400409Y175112D01*
X400471Y174823D01*
X400501Y174736D01*
X400534Y174598D01*
X400805Y173820D01*
X400824Y173778D01*
X400834Y173747D01*
X403457Y167417D01*
X403457Y161183D01*
X400834Y154852D01*
X400735Y154575D01*
X400628Y154299D01*
X400596Y154187D01*
X400556Y154077D01*
X400484Y153790D01*
X400404Y153506D01*
X400383Y153391D01*
X400355Y153277D01*
X400310Y152985D01*
X400258Y152694D01*
X400249Y152578D01*
X400231Y152462D01*
X400216Y152167D01*
X400192Y151873D01*
X400194Y151756D01*
X400188Y151639D01*
X400201Y151344D01*
X400205Y151049D01*
X400219Y150932D01*
X400224Y150815D01*
X400265Y150523D01*
X400299Y150230D01*
X400323Y150115D01*
X400340Y149999D01*
X400409Y149712D01*
X400471Y149423D01*
X400501Y149336D01*
X400534Y149198D01*
X400805Y148420D01*
X400824Y148378D01*
X400834Y148347D01*
X403457Y142017D01*
X403457Y135783D01*
X400834Y129452D01*
X400735Y129175D01*
X400628Y128899D01*
X400596Y128787D01*
X400556Y128677D01*
X400484Y128390D01*
X400404Y128106D01*
X400383Y127991D01*
X400355Y127877D01*
X400310Y127585D01*
X400258Y127294D01*
X400249Y127178D01*
X400231Y127062D01*
X400216Y126767D01*
X400192Y126473D01*
X400194Y126356D01*
X400188Y126239D01*
X400201Y125944D01*
X400205Y125649D01*
X400219Y125532D01*
X400224Y125415D01*
X400265Y125123D01*
X400299Y124830D01*
X400323Y124715D01*
X400340Y124599D01*
X400409Y124312D01*
X400471Y124023D01*
X400501Y123936D01*
X400534Y123798D01*
X400805Y123020D01*
X400824Y122978D01*
X400834Y122947D01*
X403457Y116617D01*
X403457Y110383D01*
X400834Y104052D01*
X400735Y103775D01*
X400628Y103499D01*
X400596Y103387D01*
X400556Y103277D01*
X400484Y102990D01*
X400404Y102706D01*
X400383Y102591D01*
X400355Y102477D01*
X400310Y102185D01*
X400258Y101894D01*
X400249Y101778D01*
X400231Y101662D01*
X400216Y101367D01*
X400192Y101073D01*
X400194Y100956D01*
X400188Y100839D01*
X400201Y100544D01*
X400205Y100249D01*
X400219Y100132D01*
X400224Y100015D01*
X400265Y99723D01*
X400299Y99430D01*
X400323Y99315D01*
X400340Y99199D01*
X400409Y98912D01*
X400471Y98623D01*
X400501Y98536D01*
X400534Y98398D01*
X400805Y97620D01*
X400824Y97578D01*
X400834Y97547D01*
X403457Y91217D01*
X403457Y84983D01*
X401071Y79224D01*
X398959Y77112D01*
X398747Y76879D01*
X398530Y76650D01*
X398470Y76573D01*
X398405Y76501D01*
X398217Y76249D01*
X398023Y76000D01*
X397971Y75918D01*
X397913Y75840D01*
X397750Y75570D01*
X397581Y75305D01*
X397537Y75218D01*
X397487Y75134D01*
X397351Y74850D01*
X397209Y74569D01*
X397173Y74478D01*
X397131Y74390D01*
X397024Y74095D01*
X396909Y73801D01*
X396883Y73707D01*
X396850Y73616D01*
X396771Y73311D01*
X396686Y73008D01*
X396668Y72912D01*
X396644Y72817D01*
X396596Y72506D01*
X396540Y72196D01*
X396532Y72099D01*
X396517Y72003D01*
X396499Y71688D01*
X396474Y71375D01*
X396475Y71277D01*
X396470Y71180D01*
X396482Y70865D01*
X396487Y70550D01*
X396498Y70453D01*
X396502Y70356D01*
X396545Y70045D01*
X396580Y69731D01*
X396601Y69636D01*
X396614Y69539D01*
X396687Y69234D01*
X396753Y68925D01*
X396778Y68851D01*
X396805Y68737D01*
X397072Y67958D01*
X397101Y67895D01*
X397116Y67849D01*
X397502Y66919D01*
X397653Y66599D01*
X397799Y66277D01*
X397829Y66227D01*
X397854Y66174D01*
X398035Y65870D01*
X398212Y65564D01*
X398246Y65516D01*
X398276Y65466D01*
X398486Y65181D01*
X398692Y64894D01*
X398731Y64850D01*
X398765Y64802D01*
X399002Y64539D01*
X399235Y64273D01*
X399277Y64233D01*
X399316Y64189D01*
X399578Y63950D01*
X399835Y63708D01*
X399881Y63672D01*
X399924Y63633D01*
X400207Y63421D01*
X400487Y63204D01*
X400537Y63173D01*
X400583Y63137D01*
X400885Y62953D01*
X401185Y62765D01*
X401237Y62739D01*
X401287Y62708D01*
X401607Y62554D01*
X401922Y62396D01*
X401977Y62375D01*
X402029Y62350D01*
X402363Y62227D01*
X402691Y62100D01*
X402748Y62085D01*
X402803Y62064D01*
X403146Y61974D01*
X403486Y61880D01*
X403544Y61870D01*
X403600Y61855D01*
X403950Y61799D01*
X404298Y61738D01*
X404356Y61734D01*
X404414Y61725D01*
X404767Y61703D01*
X405120Y61676D01*
X405179Y61677D01*
X405237Y61673D01*
X405590Y61686D01*
X405944Y61693D01*
X406002Y61700D01*
X406061Y61702D01*
X406411Y61748D01*
X406763Y61790D01*
X406820Y61803D01*
X406878Y61810D01*
X407223Y61891D01*
X407568Y61966D01*
X407624Y61984D01*
X407681Y61997D01*
X408016Y62110D01*
X408353Y62219D01*
X408406Y62242D01*
X408462Y62261D01*
X408784Y62406D01*
X409109Y62547D01*
X409160Y62575D01*
X409214Y62599D01*
X409521Y62775D01*
X409830Y62947D01*
X409878Y62980D01*
X409929Y63009D01*
X410217Y63213D01*
X410509Y63414D01*
X410545Y63446D01*
X410601Y63486D01*
X411224Y64026D01*
X411305Y64110D01*
X411364Y64162D01*
X427390Y80188D01*
X427589Y80407D01*
X427793Y80620D01*
X427865Y80712D01*
X427944Y80799D01*
X428120Y81036D01*
X428303Y81267D01*
X428366Y81366D01*
X428436Y81460D01*
X428589Y81713D01*
X428748Y81961D01*
X428801Y82065D01*
X428862Y82166D01*
X428989Y82432D01*
X429124Y82695D01*
X429167Y82804D01*
X429217Y82909D01*
X429318Y83187D01*
X429427Y83462D01*
X429459Y83574D01*
X429499Y83684D01*
X429573Y83971D01*
X429654Y84254D01*
X429675Y84369D01*
X429704Y84483D01*
X429750Y84775D01*
X429803Y85065D01*
X429810Y85157D01*
X429831Y85297D01*
X429879Y86120D01*
X429877Y86166D01*
X429879Y86198D01*
X429879Y458802D01*
X429865Y459097D01*
X429859Y459392D01*
X429845Y459508D01*
X429839Y459625D01*
X429796Y459918D01*
X429762Y460211D01*
X429737Y460325D01*
X429720Y460441D01*
X429649Y460728D01*
X429586Y461016D01*
X429550Y461128D01*
X429522Y461241D01*
X429423Y461520D01*
X429333Y461801D01*
X429286Y461908D01*
X429247Y462019D01*
X429122Y462286D01*
X429005Y462557D01*
X428948Y462660D01*
X428899Y462766D01*
X428748Y463020D01*
X428605Y463278D01*
X428539Y463374D01*
X428479Y463475D01*
X428305Y463713D01*
X428138Y463957D01*
X428076Y464027D01*
X427993Y464141D01*
X427445Y464757D01*
X427411Y464788D01*
X427390Y464812D01*
X356171Y536031D01*
X355909Y536268D01*
X355650Y536510D01*
X355604Y536545D01*
X355561Y536585D01*
X355277Y536796D01*
X354996Y537011D01*
X354946Y537042D01*
X354899Y537077D01*
X354596Y537260D01*
X354296Y537447D01*
X354244Y537472D01*
X354194Y537503D01*
X353874Y537655D01*
X353557Y537812D01*
X353502Y537833D01*
X353450Y537858D01*
X353117Y537979D01*
X352786Y538104D01*
X352730Y538120D01*
X352675Y538140D01*
X352332Y538228D01*
X351991Y538321D01*
X351933Y538331D01*
X351877Y538345D01*
X351527Y538400D01*
X351178Y538459D01*
X351120Y538463D01*
X351062Y538472D01*
X350709Y538493D01*
X350356Y538518D01*
X350298Y538516D01*
X350239Y538520D01*
X349886Y538506D01*
X349532Y538497D01*
X349474Y538490D01*
X349416Y538487D01*
X349066Y538439D01*
X348714Y538396D01*
X348657Y538383D01*
X348599Y538375D01*
X348254Y538293D01*
X347909Y538216D01*
X347854Y538198D01*
X347797Y538185D01*
X347463Y538070D01*
X347126Y537960D01*
X347072Y537936D01*
X347017Y537917D01*
X346696Y537771D01*
X346371Y537628D01*
X346320Y537600D01*
X346267Y537575D01*
X345961Y537398D01*
X345652Y537225D01*
X345604Y537192D01*
X345553Y537163D01*
X345267Y536957D01*
X344975Y536755D01*
X344931Y536717D01*
X344883Y536683D01*
X344617Y536450D01*
X344347Y536220D01*
X344307Y536178D01*
X344263Y536140D01*
X344021Y535883D01*
X343774Y535628D01*
X343738Y535582D01*
X343698Y535540D01*
X343482Y535261D01*
X343261Y534983D01*
X343229Y534934D01*
X343193Y534888D01*
X343005Y534588D01*
X342813Y534291D01*
X342791Y534248D01*
X342755Y534190D01*
X342386Y533453D01*
X342344Y533343D01*
X342309Y533273D01*
X341927Y532351D01*
X341228Y531140D01*
X340376Y530030D01*
X339388Y529042D01*
X338278Y528190D01*
X337067Y527491D01*
X335775Y526956D01*
X334424Y526594D01*
X333037Y526411D01*
X330169Y526411D01*
X330169Y537080D01*
X330153Y537413D01*
X330143Y537748D01*
X330133Y537825D01*
X330129Y537903D01*
X330081Y538234D01*
X330039Y538565D01*
X330021Y538641D01*
X330010Y538719D01*
X329929Y539043D01*
X329855Y539369D01*
X329831Y539443D01*
X329812Y539519D01*
X329700Y539834D01*
X329595Y540151D01*
X329563Y540223D01*
X329537Y540296D01*
X329396Y540599D01*
X329260Y540905D01*
X329222Y540972D01*
X329189Y541043D01*
X329018Y541331D01*
X328854Y541622D01*
X328809Y541686D01*
X328769Y541753D01*
X328572Y542023D01*
X328380Y542296D01*
X328329Y542356D01*
X328283Y542419D01*
X328061Y542668D01*
X327843Y542922D01*
X327787Y542976D01*
X327735Y543034D01*
X327734Y543035D01*
X327489Y543262D01*
X327248Y543493D01*
X327186Y543541D01*
X327129Y543594D01*
X326863Y543796D01*
X326600Y544003D01*
X326534Y544045D01*
X326472Y544092D01*
X326188Y544267D01*
X325906Y544448D01*
X325837Y544484D01*
X325770Y544525D01*
X325470Y544671D01*
X325173Y544824D01*
X325100Y544853D01*
X325030Y544887D01*
X324717Y545004D01*
X324406Y545127D01*
X324331Y545148D01*
X324258Y545176D01*
X323935Y545262D01*
X323614Y545354D01*
X323537Y545368D01*
X323461Y545388D01*
X323131Y545443D01*
X322803Y545504D01*
X322740Y545508D01*
X322648Y545523D01*
X321826Y545578D01*
X321733Y545575D01*
X321670Y545579D01*
X302219Y545579D01*
X302212Y545739D01*
X302206Y546053D01*
X302194Y546150D01*
X302190Y546248D01*
X302146Y546559D01*
X302109Y546872D01*
X302088Y546967D01*
X302074Y547064D01*
X302000Y547369D01*
X301933Y547677D01*
X301903Y547770D01*
X301880Y547865D01*
X301776Y548162D01*
X301680Y548462D01*
X301641Y548551D01*
X301609Y548643D01*
X301477Y548929D01*
X301352Y549218D01*
X301305Y549303D01*
X301264Y549392D01*
X301105Y549664D01*
X300952Y549939D01*
X300897Y550019D01*
X300848Y550104D01*
X300663Y550359D01*
X300485Y550618D01*
X300433Y550677D01*
X300365Y550772D01*
X299819Y551390D01*
X299769Y551437D01*
X299737Y551473D01*
X297651Y553559D01*
X295253Y559347D01*
X295253Y563260D01*
X295237Y563594D01*
X295227Y563928D01*
X295217Y564005D01*
X295213Y564083D01*
X295165Y564414D01*
X295122Y564746D01*
X295105Y564822D01*
X295094Y564899D01*
X295013Y565224D01*
X294939Y565549D01*
X294914Y565623D01*
X294896Y565699D01*
X294784Y566015D01*
X294679Y566332D01*
X294647Y566403D01*
X294621Y566476D01*
X294480Y566780D01*
X294344Y567085D01*
X294306Y567153D01*
X294273Y567223D01*
X294102Y567512D01*
X293938Y567802D01*
X293893Y567866D01*
X293853Y567933D01*
X293656Y568204D01*
X293464Y568477D01*
X293413Y568536D01*
X293367Y568599D01*
X293144Y568849D01*
X292927Y569102D01*
X292871Y569156D01*
X292819Y569215D01*
X292573Y569442D01*
X292332Y569673D01*
X292271Y569721D01*
X292213Y569774D01*
X291948Y569976D01*
X291685Y570183D01*
X291619Y570225D01*
X291557Y570272D01*
X291272Y570447D01*
X290991Y570628D01*
X290921Y570664D01*
X290855Y570705D01*
X290555Y570851D01*
X290257Y571004D01*
X290184Y571033D01*
X290114Y571067D01*
X289801Y571184D01*
X289490Y571307D01*
X289415Y571328D01*
X289342Y571356D01*
X289019Y571442D01*
X288698Y571534D01*
X288621Y571548D01*
X288546Y571568D01*
X288216Y571623D01*
X287887Y571683D01*
X287824Y571688D01*
X287732Y571703D01*
X286910Y571758D01*
X286817Y571755D01*
X286754Y571759D01*
X247913Y571759D01*
X241988Y574213D01*
X218833Y597368D01*
X216379Y603293D01*
X216379Y637302D01*
X216365Y637597D01*
X216359Y637892D01*
X216345Y638008D01*
X216339Y638125D01*
X216296Y638418D01*
X216262Y638711D01*
X216237Y638825D01*
X216220Y638941D01*
X216149Y639228D01*
X216086Y639516D01*
X216050Y639628D01*
X216022Y639741D01*
X215923Y640020D01*
X215833Y640301D01*
X215786Y640408D01*
X215747Y640519D01*
X215622Y640786D01*
X215505Y641057D01*
X215448Y641160D01*
X215399Y641266D01*
X215248Y641520D01*
X215105Y641778D01*
X215039Y641874D01*
X214979Y641975D01*
X214805Y642213D01*
X214638Y642457D01*
X214576Y642527D01*
X214493Y642641D01*
X213945Y643257D01*
X213911Y643288D01*
X213890Y643312D01*
X213513Y643689D01*
X213294Y643888D01*
X213081Y644092D01*
X212989Y644164D01*
X212902Y644243D01*
X212665Y644420D01*
X212433Y644602D01*
X212335Y644665D01*
X212241Y644735D01*
X211988Y644888D01*
X211739Y645047D01*
X211635Y645101D01*
X211535Y645161D01*
X211269Y645288D01*
X211006Y645423D01*
X210897Y645466D01*
X210791Y645517D01*
X210514Y645618D01*
X210239Y645726D01*
X210127Y645758D01*
X210017Y645798D01*
X209730Y645872D01*
X209447Y645953D01*
X209332Y645974D01*
X209218Y646004D01*
X208926Y646049D01*
X208636Y646103D01*
X208544Y646109D01*
X208404Y646131D01*
X207581Y646178D01*
X207535Y646176D01*
X207503Y646179D01*
X194059Y646179D01*
X192165Y646963D01*
X191927Y647049D01*
X191691Y647143D01*
X191539Y647188D01*
X191389Y647241D01*
X191143Y647303D01*
X190945Y647361D01*
X190838Y647431D01*
X190756Y647471D01*
X190639Y647543D01*
X189897Y647902D01*
X189851Y647919D01*
X189820Y647935D01*
X188134Y648633D01*
X183599Y653168D01*
X182815Y655061D01*
X182707Y655291D01*
X182607Y655524D01*
X182531Y655663D01*
X182463Y655807D01*
X182333Y656025D01*
X182234Y656206D01*
X182207Y656331D01*
X182178Y656417D01*
X182145Y656551D01*
X181875Y657330D01*
X181854Y657375D01*
X181843Y657407D01*
X181145Y659093D01*
X181145Y665506D01*
X181930Y667400D01*
X182015Y667639D01*
X182110Y667874D01*
X182154Y668026D01*
X182208Y668176D01*
X182270Y668422D01*
X182328Y668620D01*
X182398Y668728D01*
X182438Y668809D01*
X182510Y668927D01*
X182869Y669669D01*
X182886Y669715D01*
X182901Y669746D01*
X183599Y671431D01*
X188134Y675966D01*
X190028Y676750D01*
X190258Y676859D01*
X190491Y676958D01*
X190630Y677034D01*
X190774Y677102D01*
X190992Y677232D01*
X191173Y677332D01*
X191298Y677358D01*
X191384Y677387D01*
X191518Y677420D01*
X192297Y677690D01*
X192341Y677711D01*
X192374Y677722D01*
X194059Y678420D01*
X220907Y678420D01*
X226832Y675966D01*
X246167Y656632D01*
X248621Y650707D01*
X248621Y616698D01*
X248635Y616403D01*
X248641Y616108D01*
X248655Y615991D01*
X248661Y615875D01*
X248704Y615582D01*
X248738Y615289D01*
X248763Y615175D01*
X248780Y615059D01*
X248851Y614772D01*
X248914Y614484D01*
X248950Y614372D01*
X248978Y614259D01*
X249077Y613980D01*
X249167Y613699D01*
X249214Y613592D01*
X249253Y613481D01*
X249378Y613214D01*
X249495Y612943D01*
X249552Y612840D01*
X249601Y612734D01*
X249752Y612480D01*
X249895Y612222D01*
X249961Y612126D01*
X250021Y612025D01*
X250195Y611787D01*
X250362Y611543D01*
X250424Y611473D01*
X250507Y611359D01*
X251055Y610743D01*
X251089Y610712D01*
X251110Y610688D01*
X255308Y606490D01*
X255527Y606291D01*
X255740Y606087D01*
X255832Y606015D01*
X255919Y605936D01*
X256156Y605760D01*
X256387Y605577D01*
X256486Y605514D01*
X256580Y605444D01*
X256833Y605291D01*
X257081Y605132D01*
X257185Y605079D01*
X257286Y605018D01*
X257552Y604891D01*
X257815Y604756D01*
X257924Y604713D01*
X258029Y604663D01*
X258307Y604562D01*
X258582Y604453D01*
X258694Y604421D01*
X258804Y604381D01*
X259091Y604307D01*
X259374Y604226D01*
X259489Y604205D01*
X259603Y604176D01*
X259895Y604130D01*
X260185Y604077D01*
X260277Y604070D01*
X260417Y604049D01*
X261240Y604001D01*
X261286Y604003D01*
X261318Y604001D01*
X286754Y604001D01*
X287088Y604017D01*
X287422Y604027D01*
X287499Y604037D01*
X287577Y604041D01*
X287908Y604089D01*
X288240Y604132D01*
X288316Y604149D01*
X288393Y604160D01*
X288718Y604241D01*
X289043Y604315D01*
X289117Y604340D01*
X289193Y604358D01*
X289509Y604470D01*
X289826Y604575D01*
X289897Y604607D01*
X289970Y604633D01*
X290274Y604774D01*
X290579Y604910D01*
X290647Y604948D01*
X290717Y604981D01*
X291006Y605152D01*
X291296Y605316D01*
X291360Y605361D01*
X291427Y605401D01*
X291698Y605598D01*
X291971Y605790D01*
X292030Y605841D01*
X292093Y605887D01*
X292343Y606110D01*
X292596Y606327D01*
X292650Y606383D01*
X292709Y606435D01*
X292936Y606681D01*
X293167Y606922D01*
X293215Y606983D01*
X293268Y607041D01*
X293470Y607306D01*
X293677Y607569D01*
X293719Y607635D01*
X293766Y607697D01*
X293941Y607982D01*
X294122Y608263D01*
X294158Y608333D01*
X294199Y608399D01*
X294345Y608699D01*
X294498Y608997D01*
X294527Y609070D01*
X294561Y609140D01*
X294678Y609453D01*
X294801Y609764D01*
X294822Y609839D01*
X294850Y609912D01*
X294936Y610235D01*
X295028Y610556D01*
X295042Y610633D01*
X295062Y610708D01*
X295117Y611038D01*
X295177Y611367D01*
X295182Y611430D01*
X295197Y611522D01*
X295252Y612344D01*
X295249Y612437D01*
X295253Y612500D01*
X295253Y616413D01*
X297869Y622727D01*
X297969Y623006D01*
X298076Y623281D01*
X298108Y623393D01*
X298147Y623503D01*
X298219Y623790D01*
X298300Y624074D01*
X298320Y624190D01*
X298349Y624303D01*
X298393Y624594D01*
X298445Y624885D01*
X298455Y625002D01*
X298472Y625118D01*
X298488Y625413D01*
X298512Y625707D01*
X298510Y625824D01*
X298516Y625941D01*
X298503Y626236D01*
X298498Y626531D01*
X298485Y626648D01*
X298480Y626765D01*
X298438Y627057D01*
X298405Y627350D01*
X298380Y627465D01*
X298364Y627581D01*
X298294Y627868D01*
X298233Y628157D01*
X298203Y628244D01*
X298170Y628382D01*
X297899Y629160D01*
X297879Y629202D01*
X297869Y629233D01*
X295253Y635547D01*
X295253Y639460D01*
X295237Y639794D01*
X295227Y640128D01*
X295217Y640205D01*
X295213Y640283D01*
X295165Y640614D01*
X295122Y640946D01*
X295105Y641022D01*
X295094Y641099D01*
X295013Y641424D01*
X294939Y641749D01*
X294914Y641823D01*
X294896Y641899D01*
X294784Y642215D01*
X294679Y642532D01*
X294647Y642603D01*
X294621Y642676D01*
X294480Y642980D01*
X294344Y643285D01*
X294306Y643353D01*
X294273Y643423D01*
X294102Y643712D01*
X293938Y644002D01*
X293893Y644066D01*
X293853Y644133D01*
X293656Y644404D01*
X293464Y644677D01*
X293413Y644736D01*
X293367Y644799D01*
X293144Y645049D01*
X292927Y645302D01*
X292871Y645356D01*
X292819Y645415D01*
X292573Y645642D01*
X292332Y645873D01*
X292271Y645921D01*
X292213Y645974D01*
X291948Y646176D01*
X291685Y646383D01*
X291619Y646425D01*
X291557Y646472D01*
X291272Y646647D01*
X290991Y646828D01*
X290921Y646864D01*
X290855Y646905D01*
X290555Y647051D01*
X290257Y647204D01*
X290184Y647233D01*
X290114Y647267D01*
X289801Y647384D01*
X289490Y647507D01*
X289415Y647528D01*
X289342Y647556D01*
X289019Y647642D01*
X288698Y647734D01*
X288621Y647748D01*
X288546Y647768D01*
X288216Y647823D01*
X287887Y647883D01*
X287824Y647888D01*
X287732Y647903D01*
X286910Y647958D01*
X286817Y647955D01*
X286754Y647959D01*
X285713Y647959D01*
X279788Y650413D01*
X262833Y667368D01*
X260379Y673293D01*
X260379Y714207D01*
X262833Y720132D01*
X283868Y741167D01*
X289793Y743621D01*
X349525Y743621D01*
X355450Y741167D01*
X361180Y735436D01*
X621886Y474730D01*
X622105Y474531D01*
X622318Y474327D01*
X622410Y474255D01*
X622497Y474176D01*
X622734Y474000D01*
X622965Y473817D01*
X623064Y473754D01*
X623158Y473684D01*
X623411Y473531D01*
X623659Y473372D01*
X623763Y473319D01*
X623864Y473258D01*
X624130Y473131D01*
X624393Y472996D01*
X624502Y472953D01*
X624607Y472903D01*
X624885Y472802D01*
X625160Y472693D01*
X625272Y472661D01*
X625382Y472621D01*
X625669Y472547D01*
X625952Y472466D01*
X626067Y472445D01*
X626181Y472416D01*
X626473Y472370D01*
X626763Y472317D01*
X626855Y472310D01*
X626995Y472289D01*
X627818Y472241D01*
X627864Y472243D01*
X627896Y472241D01*
X652971Y472241D01*
X658896Y469787D01*
X709287Y419396D01*
X711741Y413471D01*
X711741Y298629D01*
X709287Y292704D01*
X703556Y286974D01*
X703556Y286973D01*
X675327Y258744D01*
X675326Y258743D01*
X669596Y253013D01*
X663671Y250559D01*
X659656Y250559D01*
X659322Y250543D01*
X658988Y250533D01*
X658911Y250523D01*
X658833Y250519D01*
X658502Y250471D01*
X658170Y250428D01*
X658094Y250411D01*
X658017Y250400D01*
X657692Y250319D01*
X657367Y250245D01*
X657293Y250220D01*
X657217Y250202D01*
X656901Y250090D01*
X656584Y249985D01*
X656513Y249953D01*
X656440Y249927D01*
X656136Y249786D01*
X655831Y249650D01*
X655763Y249612D01*
X655693Y249579D01*
X655404Y249408D01*
X655114Y249244D01*
X655050Y249199D01*
X654983Y249159D01*
X654712Y248962D01*
X654439Y248770D01*
X654380Y248719D01*
X654317Y248673D01*
X654067Y248450D01*
X653814Y248233D01*
X653760Y248177D01*
X653701Y248125D01*
X653474Y247879D01*
X653243Y247638D01*
X653195Y247577D01*
X653142Y247519D01*
X652940Y247254D01*
X652733Y246991D01*
X652691Y246925D01*
X652644Y246863D01*
X652469Y246578D01*
X652288Y246297D01*
X652252Y246227D01*
X652211Y246161D01*
X652065Y245861D01*
X651912Y245563D01*
X651883Y245490D01*
X651849Y245420D01*
X651732Y245107D01*
X651609Y244796D01*
X651588Y244721D01*
X651560Y244648D01*
X651474Y244325D01*
X651382Y244004D01*
X651368Y243927D01*
X651348Y243852D01*
X651293Y243522D01*
X651233Y243193D01*
X651228Y243130D01*
X651213Y243038D01*
X651158Y242216D01*
X651161Y242123D01*
X651157Y242060D01*
X651157Y237383D01*
X648534Y231052D01*
X648435Y230775D01*
X648328Y230499D01*
X648296Y230387D01*
X648256Y230277D01*
X648184Y229990D01*
X648104Y229706D01*
X648083Y229591D01*
X648055Y229477D01*
X648010Y229185D01*
X647958Y228894D01*
X647949Y228778D01*
X647931Y228662D01*
X647916Y228367D01*
X647892Y228073D01*
X647894Y227956D01*
X647888Y227839D01*
X647901Y227544D01*
X647905Y227249D01*
X647919Y227132D01*
X647924Y227015D01*
X647965Y226723D01*
X647999Y226430D01*
X648023Y226315D01*
X648040Y226199D01*
X648109Y225912D01*
X648171Y225623D01*
X648201Y225536D01*
X648234Y225398D01*
X648505Y224620D01*
X648524Y224578D01*
X648534Y224547D01*
X651157Y218217D01*
X651157Y211983D01*
X648534Y205652D01*
X648435Y205375D01*
X648328Y205099D01*
X648296Y204987D01*
X648256Y204877D01*
X648184Y204590D01*
X648104Y204306D01*
X648083Y204191D01*
X648055Y204077D01*
X648010Y203785D01*
X647958Y203494D01*
X647949Y203378D01*
X647931Y203262D01*
X647916Y202967D01*
X647892Y202673D01*
X647894Y202556D01*
X647888Y202439D01*
X647901Y202144D01*
X647905Y201849D01*
X647919Y201732D01*
X647924Y201615D01*
X647965Y201323D01*
X647999Y201030D01*
X648023Y200915D01*
X648040Y200799D01*
X648109Y200512D01*
X648171Y200223D01*
X648201Y200136D01*
X648234Y199998D01*
X648505Y199220D01*
X648524Y199178D01*
X648534Y199147D01*
X651157Y192817D01*
X651157Y186583D01*
X648534Y180252D01*
X648435Y179975D01*
X648328Y179699D01*
X648296Y179587D01*
X648256Y179477D01*
X648184Y179190D01*
X648104Y178906D01*
X648083Y178791D01*
X648055Y178677D01*
X648010Y178385D01*
X647958Y178094D01*
X647949Y177978D01*
X647931Y177862D01*
X647916Y177567D01*
X647892Y177273D01*
X647894Y177156D01*
X647888Y177039D01*
X647901Y176744D01*
X647905Y176449D01*
X647919Y176332D01*
X647924Y176215D01*
X647965Y175923D01*
X647999Y175630D01*
X648023Y175515D01*
X648040Y175399D01*
X648109Y175112D01*
X648171Y174823D01*
X648201Y174736D01*
X648234Y174598D01*
X648505Y173820D01*
X648524Y173778D01*
X648534Y173747D01*
X651157Y167417D01*
X651157Y161183D01*
X648534Y154852D01*
X648435Y154575D01*
X648328Y154299D01*
X648296Y154187D01*
X648256Y154077D01*
X648184Y153790D01*
X648104Y153506D01*
X648083Y153391D01*
X648055Y153277D01*
X648010Y152985D01*
X647958Y152694D01*
X647949Y152578D01*
X647931Y152462D01*
X647916Y152167D01*
X647892Y151873D01*
X647894Y151756D01*
X647888Y151639D01*
X647901Y151344D01*
X647905Y151049D01*
X647919Y150932D01*
X647924Y150815D01*
X647965Y150523D01*
X647999Y150230D01*
X648023Y150115D01*
X648040Y149999D01*
X648109Y149712D01*
X648171Y149423D01*
X648201Y149336D01*
X648234Y149198D01*
X648505Y148420D01*
X648524Y148378D01*
X648534Y148347D01*
X651157Y142017D01*
X651157Y135783D01*
X648534Y129452D01*
X648435Y129175D01*
X648328Y128899D01*
X648296Y128787D01*
X648256Y128677D01*
X648184Y128390D01*
X648104Y128106D01*
X648083Y127991D01*
X648055Y127877D01*
X648010Y127585D01*
X647958Y127294D01*
X647949Y127178D01*
X647931Y127062D01*
X647916Y126767D01*
X647892Y126473D01*
X647894Y126356D01*
X647888Y126239D01*
X647901Y125944D01*
X647905Y125649D01*
X647919Y125532D01*
X647924Y125415D01*
X647965Y125123D01*
X647999Y124830D01*
X648023Y124715D01*
X648040Y124599D01*
X648109Y124312D01*
X648171Y124023D01*
X648201Y123936D01*
X648234Y123798D01*
X648505Y123020D01*
X648524Y122978D01*
X648534Y122947D01*
X651157Y116617D01*
X651157Y110383D01*
X648534Y104052D01*
X648435Y103775D01*
X648328Y103499D01*
X648296Y103387D01*
X648256Y103277D01*
X648184Y102990D01*
X648104Y102706D01*
X648083Y102591D01*
X648055Y102477D01*
X648010Y102185D01*
X647958Y101894D01*
X647949Y101778D01*
X647931Y101662D01*
X647916Y101367D01*
X647892Y101073D01*
X647894Y100956D01*
X647888Y100839D01*
X647901Y100544D01*
X647905Y100249D01*
X647919Y100132D01*
X647924Y100015D01*
X647965Y99723D01*
X647999Y99430D01*
X648023Y99315D01*
X648040Y99199D01*
X648109Y98912D01*
X648171Y98623D01*
X648201Y98536D01*
X648234Y98398D01*
X648505Y97620D01*
X648524Y97578D01*
X648534Y97547D01*
X651157Y91217D01*
X651157Y84983D01*
X648771Y79224D01*
X646659Y77112D01*
X646447Y76879D01*
X646230Y76650D01*
X646170Y76573D01*
X646105Y76501D01*
X645917Y76249D01*
X645723Y76000D01*
X645671Y75918D01*
X645613Y75840D01*
X645450Y75571D01*
X645281Y75305D01*
X645237Y75217D01*
X645187Y75134D01*
X645051Y74850D01*
X644909Y74569D01*
X644873Y74478D01*
X644831Y74390D01*
X644724Y74094D01*
X644609Y73801D01*
X644583Y73707D01*
X644550Y73616D01*
X644471Y73311D01*
X644386Y73008D01*
X644368Y72912D01*
X644344Y72817D01*
X644296Y72507D01*
X644240Y72196D01*
X644232Y72099D01*
X644217Y72003D01*
X644199Y71688D01*
X644174Y71375D01*
X644175Y71277D01*
X644171Y71199D01*
X624900Y71199D01*
X605625Y71199D01*
X605617Y71377D01*
X605610Y71692D01*
X605599Y71789D01*
X605594Y71886D01*
X605550Y72198D01*
X605513Y72511D01*
X605492Y72606D01*
X605479Y72703D01*
X605405Y73008D01*
X605337Y73316D01*
X605307Y73409D01*
X605284Y73504D01*
X605181Y73801D01*
X605084Y74101D01*
X605045Y74190D01*
X605013Y74282D01*
X604881Y74568D01*
X604756Y74857D01*
X604709Y74942D01*
X604668Y75031D01*
X604509Y75302D01*
X604357Y75578D01*
X604301Y75658D01*
X604252Y75742D01*
X604068Y75997D01*
X603889Y76257D01*
X603837Y76316D01*
X603769Y76410D01*
X603224Y77028D01*
X603173Y77076D01*
X603141Y77112D01*
X601029Y79224D01*
X598643Y84983D01*
X598643Y91217D01*
X601266Y97547D01*
X601365Y97825D01*
X601472Y98101D01*
X601504Y98213D01*
X601544Y98323D01*
X601616Y98610D01*
X601696Y98894D01*
X601717Y99009D01*
X601745Y99123D01*
X601790Y99415D01*
X601842Y99705D01*
X601851Y99822D01*
X601869Y99938D01*
X601884Y100233D01*
X601908Y100527D01*
X601906Y100644D01*
X601912Y100761D01*
X601899Y101056D01*
X601895Y101351D01*
X601881Y101467D01*
X601876Y101585D01*
X601835Y101877D01*
X601801Y102170D01*
X601777Y102285D01*
X601760Y102401D01*
X601691Y102688D01*
X601629Y102977D01*
X601599Y103064D01*
X601566Y103202D01*
X601295Y103980D01*
X601276Y104022D01*
X601266Y104052D01*
X598643Y110383D01*
X598643Y116617D01*
X601266Y122947D01*
X601365Y123225D01*
X601472Y123501D01*
X601504Y123613D01*
X601544Y123723D01*
X601616Y124010D01*
X601696Y124294D01*
X601717Y124409D01*
X601745Y124523D01*
X601790Y124815D01*
X601842Y125105D01*
X601851Y125222D01*
X601869Y125338D01*
X601884Y125633D01*
X601908Y125927D01*
X601906Y126044D01*
X601912Y126161D01*
X601899Y126456D01*
X601895Y126751D01*
X601881Y126867D01*
X601876Y126985D01*
X601835Y127277D01*
X601801Y127570D01*
X601777Y127685D01*
X601760Y127801D01*
X601691Y128088D01*
X601629Y128377D01*
X601599Y128464D01*
X601566Y128602D01*
X601295Y129380D01*
X601276Y129422D01*
X601266Y129452D01*
X598643Y135783D01*
X598643Y142017D01*
X601266Y148347D01*
X601365Y148625D01*
X601472Y148901D01*
X601504Y149013D01*
X601544Y149123D01*
X601616Y149410D01*
X601696Y149694D01*
X601717Y149809D01*
X601745Y149923D01*
X601790Y150215D01*
X601842Y150505D01*
X601851Y150622D01*
X601869Y150738D01*
X601884Y151033D01*
X601908Y151327D01*
X601906Y151444D01*
X601912Y151561D01*
X601899Y151856D01*
X601895Y152151D01*
X601881Y152267D01*
X601876Y152385D01*
X601835Y152677D01*
X601801Y152970D01*
X601777Y153085D01*
X601760Y153201D01*
X601691Y153488D01*
X601629Y153777D01*
X601599Y153864D01*
X601566Y154002D01*
X601295Y154780D01*
X601276Y154822D01*
X601266Y154852D01*
X598643Y161183D01*
X598643Y167417D01*
X601266Y173747D01*
X601365Y174025D01*
X601472Y174301D01*
X601504Y174413D01*
X601544Y174523D01*
X601616Y174810D01*
X601696Y175094D01*
X601717Y175209D01*
X601745Y175323D01*
X601790Y175615D01*
X601842Y175905D01*
X601851Y176022D01*
X601869Y176138D01*
X601884Y176433D01*
X601908Y176727D01*
X601906Y176844D01*
X601912Y176961D01*
X601899Y177256D01*
X601895Y177551D01*
X601881Y177667D01*
X601876Y177785D01*
X601835Y178077D01*
X601801Y178370D01*
X601777Y178485D01*
X601760Y178601D01*
X601691Y178888D01*
X601629Y179177D01*
X601599Y179264D01*
X601566Y179402D01*
X601295Y180180D01*
X601276Y180222D01*
X601266Y180252D01*
X598643Y186583D01*
X598643Y192817D01*
X601266Y199147D01*
X601365Y199425D01*
X601472Y199701D01*
X601504Y199813D01*
X601544Y199923D01*
X601616Y200210D01*
X601696Y200494D01*
X601717Y200609D01*
X601745Y200723D01*
X601790Y201015D01*
X601842Y201305D01*
X601851Y201422D01*
X601869Y201538D01*
X601884Y201833D01*
X601908Y202127D01*
X601906Y202244D01*
X601912Y202361D01*
X601899Y202656D01*
X601895Y202951D01*
X601881Y203067D01*
X601876Y203185D01*
X601835Y203477D01*
X601801Y203770D01*
X601777Y203885D01*
X601760Y204001D01*
X601691Y204288D01*
X601629Y204577D01*
X601599Y204664D01*
X601566Y204802D01*
X601295Y205580D01*
X601276Y205622D01*
X601266Y205652D01*
X598643Y211983D01*
X598643Y218217D01*
X601266Y224547D01*
X601365Y224825D01*
X601472Y225101D01*
X601504Y225213D01*
X601544Y225323D01*
X601616Y225610D01*
X601696Y225894D01*
X601717Y226009D01*
X601745Y226123D01*
X601790Y226415D01*
X601842Y226705D01*
X601851Y226822D01*
X601869Y226938D01*
X601884Y227233D01*
X601908Y227527D01*
X601906Y227644D01*
X601912Y227761D01*
X601899Y228056D01*
X601895Y228351D01*
X601881Y228467D01*
X601876Y228585D01*
X601835Y228877D01*
X601801Y229170D01*
X601777Y229285D01*
X601760Y229401D01*
X601691Y229688D01*
X601629Y229977D01*
X601599Y230064D01*
X601566Y230202D01*
X601295Y230980D01*
X601276Y231022D01*
X601266Y231052D01*
X598643Y237383D01*
X598643Y243617D01*
X601266Y249947D01*
X601365Y250225D01*
X601472Y250501D01*
X601504Y250613D01*
X601544Y250723D01*
X601616Y251010D01*
X601696Y251294D01*
X601717Y251409D01*
X601745Y251523D01*
X601790Y251815D01*
X601842Y252105D01*
X601851Y252222D01*
X601869Y252338D01*
X601884Y252633D01*
X601908Y252927D01*
X601906Y253044D01*
X601912Y253161D01*
X601899Y253456D01*
X601895Y253751D01*
X601881Y253867D01*
X601876Y253985D01*
X601835Y254277D01*
X601801Y254570D01*
X601777Y254685D01*
X601760Y254801D01*
X601691Y255088D01*
X601629Y255377D01*
X601599Y255464D01*
X601566Y255602D01*
X601295Y256380D01*
X601276Y256422D01*
X601266Y256452D01*
X598643Y262783D01*
X598643Y269017D01*
X601266Y275347D01*
X601365Y275625D01*
X601472Y275901D01*
X601504Y276013D01*
X601544Y276123D01*
X601616Y276410D01*
X601696Y276694D01*
X601717Y276809D01*
X601745Y276923D01*
X601790Y277215D01*
X601842Y277505D01*
X601851Y277622D01*
X601869Y277738D01*
X601884Y278033D01*
X601908Y278327D01*
X601906Y278444D01*
X601912Y278561D01*
X601899Y278856D01*
X601895Y279151D01*
X601881Y279267D01*
X601876Y279385D01*
X601835Y279677D01*
X601801Y279970D01*
X601777Y280085D01*
X601760Y280201D01*
X601691Y280488D01*
X601629Y280777D01*
X601599Y280864D01*
X601566Y281002D01*
X601295Y281780D01*
X601276Y281822D01*
X601266Y281852D01*
X598643Y288183D01*
X598643Y292080D01*
X598627Y292414D01*
X598617Y292748D01*
X598607Y292825D01*
X598603Y292903D01*
X598555Y293234D01*
X598512Y293566D01*
X598495Y293642D01*
X598484Y293719D01*
X598403Y294044D01*
X598329Y294369D01*
X598304Y294443D01*
X598286Y294519D01*
X598174Y294835D01*
X598069Y295152D01*
X598037Y295223D01*
X598011Y295296D01*
X597870Y295600D01*
X597734Y295905D01*
X597696Y295973D01*
X597663Y296043D01*
X597492Y296332D01*
X597328Y296622D01*
X597283Y296686D01*
X597243Y296753D01*
X597046Y297024D01*
X596854Y297297D01*
X596803Y297356D01*
X596757Y297419D01*
X596534Y297669D01*
X596317Y297922D01*
X596261Y297976D01*
X596209Y298035D01*
X595963Y298262D01*
X595722Y298493D01*
X595661Y298541D01*
X595603Y298594D01*
X595338Y298796D01*
X595075Y299003D01*
X595009Y299045D01*
X594947Y299092D01*
X594662Y299267D01*
X594381Y299448D01*
X594311Y299484D01*
X594245Y299525D01*
X593945Y299671D01*
X593647Y299824D01*
X593574Y299853D01*
X593504Y299887D01*
X593191Y300004D01*
X592880Y300127D01*
X592805Y300148D01*
X592732Y300176D01*
X592409Y300262D01*
X592088Y300354D01*
X592011Y300368D01*
X591936Y300388D01*
X591606Y300443D01*
X591277Y300503D01*
X591214Y300508D01*
X591122Y300523D01*
X590300Y300578D01*
X590207Y300575D01*
X590144Y300579D01*
X538713Y300579D01*
X532788Y303033D01*
X527058Y308764D01*
X476630Y359192D01*
X476353Y359443D01*
X476079Y359696D01*
X476048Y359720D01*
X476019Y359746D01*
X475719Y359970D01*
X475423Y360194D01*
X475390Y360215D01*
X475358Y360238D01*
X475038Y360431D01*
X474721Y360627D01*
X474686Y360644D01*
X474652Y360664D01*
X474315Y360825D01*
X473980Y360989D01*
X473944Y361003D01*
X473908Y361019D01*
X473557Y361147D01*
X473208Y361278D01*
X473171Y361288D01*
X473134Y361301D01*
X472771Y361394D01*
X472412Y361490D01*
X472373Y361497D01*
X472335Y361506D01*
X471966Y361564D01*
X471598Y361625D01*
X471560Y361627D01*
X471521Y361633D01*
X471147Y361655D01*
X470776Y361680D01*
X470737Y361679D01*
X470698Y361681D01*
X470325Y361666D01*
X469952Y361655D01*
X469913Y361650D01*
X469874Y361649D01*
X469505Y361598D01*
X469134Y361550D01*
X469096Y361542D01*
X469058Y361537D01*
X468694Y361450D01*
X468331Y361367D01*
X468293Y361355D01*
X468256Y361346D01*
X467904Y361225D01*
X467548Y361107D01*
X467513Y361091D01*
X467476Y361078D01*
X467137Y360924D01*
X466795Y360772D01*
X466761Y360753D01*
X466726Y360737D01*
X466402Y360549D01*
X466078Y360366D01*
X466046Y360343D01*
X466012Y360324D01*
X465708Y360106D01*
X465403Y359892D01*
X465374Y359867D01*
X465342Y359844D01*
X465060Y359597D01*
X464778Y359355D01*
X464751Y359327D01*
X464721Y359301D01*
X464465Y359029D01*
X464207Y358760D01*
X464183Y358729D01*
X464156Y358701D01*
X463928Y358406D01*
X463697Y358113D01*
X463676Y358080D01*
X463652Y358049D01*
X463454Y357733D01*
X463252Y357419D01*
X463234Y357384D01*
X463213Y357351D01*
X463047Y357018D01*
X462876Y356685D01*
X462862Y356649D01*
X462844Y356614D01*
X462710Y356265D01*
X462573Y355918D01*
X462562Y355881D01*
X462548Y355844D01*
X462449Y355484D01*
X462346Y355126D01*
X462339Y355088D01*
X462329Y355050D01*
X462264Y354682D01*
X462197Y354315D01*
X462194Y354283D01*
X462187Y354238D01*
X462124Y353416D01*
X462127Y353275D01*
X462121Y353182D01*
X462121Y72793D01*
X459667Y66868D01*
X416432Y23633D01*
X410507Y21179D01*
X373946Y21179D01*
G37*
%LPD*%
%LPC*%
G36*
X606869Y521331D02*
X606869Y521331D01*
X601081Y523729D01*
X596651Y528159D01*
X594253Y533947D01*
X594253Y540213D01*
X596869Y546527D01*
X596969Y546806D01*
X597076Y547081D01*
X597108Y547193D01*
X597147Y547303D01*
X597219Y547590D01*
X597300Y547874D01*
X597320Y547989D01*
X597349Y548103D01*
X597393Y548395D01*
X597445Y548686D01*
X597455Y548802D01*
X597472Y548918D01*
X597488Y549212D01*
X597512Y549507D01*
X597510Y549624D01*
X597516Y549741D01*
X597503Y550036D01*
X597498Y550331D01*
X597485Y550448D01*
X597480Y550565D01*
X597438Y550857D01*
X597405Y551150D01*
X597380Y551265D01*
X597364Y551381D01*
X597294Y551668D01*
X597233Y551957D01*
X597203Y552044D01*
X597170Y552182D01*
X596898Y552960D01*
X596879Y553002D01*
X596869Y553033D01*
X594253Y559347D01*
X594253Y565613D01*
X596869Y571927D01*
X596969Y572206D01*
X597076Y572481D01*
X597108Y572593D01*
X597147Y572703D01*
X597219Y572990D01*
X597300Y573274D01*
X597320Y573389D01*
X597349Y573503D01*
X597393Y573795D01*
X597445Y574086D01*
X597455Y574202D01*
X597472Y574318D01*
X597488Y574612D01*
X597512Y574907D01*
X597510Y575024D01*
X597516Y575141D01*
X597503Y575436D01*
X597498Y575731D01*
X597485Y575848D01*
X597480Y575965D01*
X597438Y576257D01*
X597405Y576550D01*
X597380Y576665D01*
X597364Y576781D01*
X597294Y577068D01*
X597233Y577357D01*
X597203Y577444D01*
X597170Y577582D01*
X596898Y578360D01*
X596879Y578402D01*
X596869Y578433D01*
X594253Y584747D01*
X594253Y591013D01*
X596869Y597327D01*
X596969Y597606D01*
X597076Y597881D01*
X597108Y597993D01*
X597147Y598103D01*
X597219Y598390D01*
X597300Y598674D01*
X597320Y598790D01*
X597349Y598903D01*
X597393Y599195D01*
X597445Y599485D01*
X597455Y599602D01*
X597472Y599718D01*
X597488Y600013D01*
X597512Y600307D01*
X597510Y600424D01*
X597516Y600541D01*
X597503Y600836D01*
X597498Y601131D01*
X597485Y601248D01*
X597480Y601365D01*
X597438Y601657D01*
X597405Y601950D01*
X597380Y602065D01*
X597364Y602181D01*
X597294Y602468D01*
X597233Y602757D01*
X597203Y602844D01*
X597170Y602982D01*
X596899Y603760D01*
X596879Y603802D01*
X596869Y603833D01*
X594253Y610147D01*
X594253Y616413D01*
X596869Y622727D01*
X596968Y623005D01*
X597076Y623281D01*
X597108Y623393D01*
X597147Y623503D01*
X597219Y623790D01*
X597299Y624074D01*
X597320Y624189D01*
X597349Y624303D01*
X597393Y624595D01*
X597445Y624885D01*
X597455Y625002D01*
X597472Y625118D01*
X597488Y625413D01*
X597512Y625707D01*
X597510Y625824D01*
X597516Y625941D01*
X597503Y626236D01*
X597498Y626531D01*
X597485Y626647D01*
X597480Y626765D01*
X597438Y627057D01*
X597405Y627350D01*
X597380Y627465D01*
X597364Y627581D01*
X597294Y627868D01*
X597232Y628157D01*
X597203Y628244D01*
X597169Y628382D01*
X596898Y629160D01*
X596879Y629202D01*
X596869Y629232D01*
X594253Y635547D01*
X594253Y641813D01*
X596869Y648127D01*
X596969Y648406D01*
X597076Y648681D01*
X597108Y648793D01*
X597147Y648903D01*
X597219Y649190D01*
X597300Y649474D01*
X597320Y649589D01*
X597349Y649703D01*
X597393Y649995D01*
X597445Y650286D01*
X597455Y650402D01*
X597472Y650518D01*
X597488Y650812D01*
X597512Y651107D01*
X597510Y651224D01*
X597516Y651341D01*
X597503Y651636D01*
X597498Y651931D01*
X597485Y652048D01*
X597480Y652165D01*
X597438Y652457D01*
X597405Y652750D01*
X597380Y652865D01*
X597364Y652981D01*
X597294Y653268D01*
X597233Y653557D01*
X597203Y653644D01*
X597170Y653782D01*
X596898Y654560D01*
X596879Y654602D01*
X596869Y654633D01*
X594253Y660947D01*
X594253Y667213D01*
X596869Y673527D01*
X596969Y673806D01*
X597076Y674081D01*
X597108Y674193D01*
X597147Y674303D01*
X597219Y674590D01*
X597300Y674874D01*
X597320Y674990D01*
X597349Y675103D01*
X597393Y675395D01*
X597445Y675685D01*
X597455Y675802D01*
X597472Y675918D01*
X597488Y676213D01*
X597512Y676507D01*
X597510Y676624D01*
X597516Y676741D01*
X597503Y677036D01*
X597498Y677331D01*
X597485Y677448D01*
X597480Y677565D01*
X597438Y677857D01*
X597405Y678150D01*
X597380Y678265D01*
X597364Y678381D01*
X597294Y678668D01*
X597233Y678957D01*
X597203Y679044D01*
X597170Y679182D01*
X596899Y679960D01*
X596879Y680002D01*
X596869Y680033D01*
X594253Y686347D01*
X594253Y692613D01*
X596651Y698401D01*
X601081Y702831D01*
X606869Y705229D01*
X634471Y705229D01*
X640259Y702831D01*
X644689Y698401D01*
X647087Y692613D01*
X647087Y686347D01*
X644471Y680033D01*
X644371Y679754D01*
X644264Y679479D01*
X644232Y679367D01*
X644193Y679257D01*
X644121Y678970D01*
X644040Y678686D01*
X644020Y678571D01*
X643991Y678457D01*
X643947Y678165D01*
X643895Y677874D01*
X643885Y677758D01*
X643868Y677642D01*
X643852Y677348D01*
X643828Y677053D01*
X643830Y676936D01*
X643824Y676819D01*
X643837Y676524D01*
X643842Y676229D01*
X643855Y676112D01*
X643860Y675995D01*
X643902Y675703D01*
X643935Y675410D01*
X643960Y675295D01*
X643976Y675179D01*
X644046Y674892D01*
X644107Y674603D01*
X644137Y674516D01*
X644170Y674378D01*
X644442Y673600D01*
X644461Y673558D01*
X644471Y673527D01*
X647087Y667213D01*
X647087Y660947D01*
X644471Y654633D01*
X644371Y654354D01*
X644264Y654079D01*
X644232Y653967D01*
X644193Y653857D01*
X644121Y653570D01*
X644040Y653286D01*
X644020Y653170D01*
X643991Y653057D01*
X643947Y652765D01*
X643895Y652475D01*
X643885Y652358D01*
X643868Y652242D01*
X643852Y651947D01*
X643828Y651653D01*
X643830Y651536D01*
X643824Y651419D01*
X643837Y651124D01*
X643842Y650829D01*
X643855Y650712D01*
X643860Y650595D01*
X643902Y650303D01*
X643935Y650010D01*
X643960Y649895D01*
X643976Y649779D01*
X644046Y649492D01*
X644107Y649203D01*
X644137Y649116D01*
X644170Y648978D01*
X644441Y648200D01*
X644461Y648158D01*
X644471Y648127D01*
X647087Y641813D01*
X647087Y635547D01*
X644471Y629232D01*
X644372Y628955D01*
X644264Y628679D01*
X644232Y628566D01*
X644193Y628456D01*
X644121Y628170D01*
X644041Y627886D01*
X644020Y627771D01*
X643991Y627657D01*
X643947Y627365D01*
X643895Y627074D01*
X643885Y626958D01*
X643868Y626842D01*
X643852Y626547D01*
X643828Y626253D01*
X643830Y626136D01*
X643824Y626019D01*
X643837Y625724D01*
X643842Y625429D01*
X643855Y625312D01*
X643860Y625195D01*
X643902Y624903D01*
X643935Y624610D01*
X643960Y624495D01*
X643976Y624379D01*
X644046Y624092D01*
X644108Y623803D01*
X644137Y623716D01*
X644171Y623578D01*
X644442Y622800D01*
X644461Y622758D01*
X644471Y622727D01*
X647087Y616413D01*
X647087Y610147D01*
X644471Y603833D01*
X644371Y603554D01*
X644264Y603279D01*
X644232Y603167D01*
X644193Y603057D01*
X644121Y602770D01*
X644040Y602486D01*
X644020Y602371D01*
X643991Y602257D01*
X643947Y601965D01*
X643895Y601674D01*
X643885Y601558D01*
X643868Y601442D01*
X643852Y601148D01*
X643828Y600853D01*
X643830Y600736D01*
X643824Y600619D01*
X643837Y600324D01*
X643842Y600029D01*
X643855Y599912D01*
X643860Y599795D01*
X643902Y599503D01*
X643935Y599210D01*
X643960Y599095D01*
X643976Y598979D01*
X644046Y598692D01*
X644107Y598403D01*
X644137Y598316D01*
X644170Y598178D01*
X644442Y597400D01*
X644461Y597358D01*
X644471Y597327D01*
X647087Y591013D01*
X647087Y584747D01*
X644471Y578433D01*
X644371Y578154D01*
X644264Y577879D01*
X644232Y577767D01*
X644193Y577657D01*
X644121Y577370D01*
X644040Y577086D01*
X644020Y576970D01*
X643991Y576857D01*
X643947Y576565D01*
X643895Y576275D01*
X643885Y576158D01*
X643868Y576042D01*
X643852Y575747D01*
X643828Y575453D01*
X643830Y575336D01*
X643824Y575219D01*
X643837Y574924D01*
X643842Y574629D01*
X643855Y574512D01*
X643860Y574395D01*
X643902Y574103D01*
X643935Y573810D01*
X643960Y573695D01*
X643976Y573579D01*
X644046Y573292D01*
X644107Y573003D01*
X644137Y572916D01*
X644170Y572778D01*
X644441Y572000D01*
X644461Y571958D01*
X644471Y571927D01*
X647087Y565613D01*
X647087Y559347D01*
X644471Y553033D01*
X644371Y552754D01*
X644264Y552479D01*
X644232Y552367D01*
X644193Y552257D01*
X644121Y551970D01*
X644040Y551686D01*
X644020Y551570D01*
X643991Y551457D01*
X643947Y551165D01*
X643895Y550875D01*
X643885Y550758D01*
X643868Y550642D01*
X643852Y550347D01*
X643828Y550053D01*
X643830Y549936D01*
X643824Y549819D01*
X643837Y549524D01*
X643842Y549229D01*
X643855Y549112D01*
X643860Y548995D01*
X643902Y548703D01*
X643935Y548410D01*
X643960Y548295D01*
X643976Y548179D01*
X644046Y547892D01*
X644107Y547603D01*
X644137Y547516D01*
X644170Y547378D01*
X644441Y546600D01*
X644461Y546558D01*
X644471Y546527D01*
X647087Y540213D01*
X647087Y533947D01*
X644689Y528159D01*
X640259Y523729D01*
X634471Y521331D01*
X606869Y521331D01*
G37*
%LPD*%
%LPC*%
G36*
X206825Y302676D02*
X206825Y302676D01*
X204826Y303505D01*
X204608Y303583D01*
X204393Y303670D01*
X204220Y303722D01*
X204050Y303783D01*
X203825Y303840D01*
X203603Y303906D01*
X203602Y303906D01*
X203501Y303971D01*
X203435Y304004D01*
X203341Y304062D01*
X202601Y304425D01*
X202530Y304452D01*
X202483Y304475D01*
X200900Y305131D01*
X196365Y309665D01*
X195537Y311665D01*
X195438Y311875D01*
X195348Y312088D01*
X195262Y312247D01*
X195185Y312411D01*
X195066Y312609D01*
X194956Y312813D01*
X194955Y312815D01*
X194930Y312932D01*
X194907Y313002D01*
X194881Y313109D01*
X194615Y313889D01*
X194584Y313958D01*
X194567Y314008D01*
X193911Y315591D01*
X193911Y361770D01*
X193897Y362065D01*
X193891Y362360D01*
X193877Y362476D01*
X193871Y362593D01*
X193828Y362886D01*
X193794Y363179D01*
X193769Y363293D01*
X193752Y363409D01*
X193681Y363696D01*
X193618Y363984D01*
X193582Y364096D01*
X193554Y364209D01*
X193455Y364488D01*
X193365Y364769D01*
X193318Y364876D01*
X193279Y364987D01*
X193154Y365254D01*
X193037Y365525D01*
X192980Y365628D01*
X192930Y365734D01*
X192780Y365988D01*
X192637Y366246D01*
X192571Y366343D01*
X192511Y366443D01*
X192337Y366681D01*
X192169Y366925D01*
X192108Y366995D01*
X192025Y367109D01*
X191477Y367725D01*
X191443Y367756D01*
X191422Y367780D01*
X183833Y375368D01*
X181379Y381293D01*
X181379Y385437D01*
X181366Y385713D01*
X181361Y385989D01*
X181346Y386124D01*
X181339Y386260D01*
X181299Y386533D01*
X181268Y386808D01*
X181240Y386941D01*
X181220Y387076D01*
X181154Y387344D01*
X181096Y387614D01*
X181062Y387715D01*
X181022Y387876D01*
X180979Y387997D01*
X180979Y394507D01*
X182420Y397986D01*
X182513Y398245D01*
X182554Y398349D01*
X182677Y398606D01*
X182685Y398628D01*
X182692Y398643D01*
X183434Y400432D01*
X188668Y405666D01*
X190457Y406408D01*
X190707Y406525D01*
X190960Y406635D01*
X191080Y406701D01*
X191203Y406760D01*
X191439Y406901D01*
X191597Y406988D01*
X191728Y407016D01*
X191829Y407050D01*
X191991Y407090D01*
X192768Y407365D01*
X192789Y407374D01*
X192804Y407380D01*
X194593Y408121D01*
X201007Y408121D01*
X202796Y407380D01*
X203055Y407287D01*
X203312Y407185D01*
X203443Y407148D01*
X203572Y407102D01*
X203839Y407034D01*
X204012Y406985D01*
X204125Y406911D01*
X204220Y406864D01*
X204363Y406778D01*
X205106Y406423D01*
X205128Y406415D01*
X205143Y406408D01*
X206932Y405666D01*
X209064Y403534D01*
X209311Y403310D01*
X209555Y403081D01*
X209617Y403033D01*
X209674Y402981D01*
X209942Y402781D01*
X210207Y402576D01*
X210273Y402535D01*
X210335Y402488D01*
X210621Y402316D01*
X210905Y402138D01*
X210975Y402103D01*
X211041Y402063D01*
X211343Y401918D01*
X211642Y401769D01*
X211715Y401741D01*
X211785Y401707D01*
X212100Y401593D01*
X212411Y401473D01*
X212486Y401452D01*
X212560Y401425D01*
X212883Y401342D01*
X213206Y401253D01*
X213283Y401239D01*
X213358Y401220D01*
X213689Y401168D01*
X214018Y401111D01*
X214095Y401105D01*
X214173Y401093D01*
X214507Y401074D01*
X214701Y401059D01*
X214701Y393618D01*
X214705Y393525D01*
X214703Y393432D01*
X214725Y393113D01*
X214741Y392795D01*
X214754Y392702D01*
X214761Y392609D01*
X214814Y392295D01*
X214860Y391979D01*
X214883Y391889D01*
X214898Y391797D01*
X214981Y391489D01*
X215058Y391179D01*
X215089Y391091D01*
X215114Y391001D01*
X215226Y390703D01*
X215333Y390402D01*
X215372Y390317D01*
X215405Y390230D01*
X215546Y389944D01*
X215681Y389655D01*
X215729Y389574D01*
X215770Y389491D01*
X215938Y389220D01*
X216101Y388945D01*
X216156Y388870D01*
X216205Y388790D01*
X216313Y388654D01*
X216587Y388279D01*
X216806Y388033D01*
X216911Y387901D01*
X217027Y387785D01*
X217135Y387664D01*
X217135Y387663D01*
X217318Y387494D01*
X217495Y387318D01*
X217621Y387214D01*
X217741Y387104D01*
X217939Y386953D01*
X218056Y386857D01*
X218108Y386783D01*
X218214Y386660D01*
X218313Y386530D01*
X218430Y386408D01*
X218645Y386158D01*
X218980Y385837D01*
X219101Y385711D01*
X219173Y385652D01*
X219240Y385587D01*
X219491Y385390D01*
X219737Y385187D01*
X219814Y385135D01*
X219888Y385077D01*
X220156Y384905D01*
X220421Y384726D01*
X220503Y384682D01*
X220581Y384632D01*
X220866Y384486D01*
X221146Y384335D01*
X221232Y384299D01*
X221315Y384256D01*
X221612Y384139D01*
X221906Y384015D01*
X221995Y383987D01*
X222082Y383953D01*
X222388Y383865D01*
X222693Y383770D01*
X222785Y383752D01*
X222874Y383726D01*
X223188Y383668D01*
X223501Y383603D01*
X223593Y383593D01*
X223685Y383576D01*
X223858Y383565D01*
X224320Y383515D01*
X224650Y383512D01*
X224818Y383501D01*
X228354Y383501D01*
X228162Y383290D01*
X227945Y383061D01*
X227885Y382984D01*
X227820Y382912D01*
X227632Y382660D01*
X227438Y382412D01*
X227386Y382329D01*
X227328Y382251D01*
X227165Y381981D01*
X226996Y381716D01*
X226952Y381629D01*
X226902Y381545D01*
X226766Y381261D01*
X226624Y380980D01*
X226588Y380889D01*
X226546Y380801D01*
X226439Y380506D01*
X226324Y380212D01*
X226298Y380118D01*
X226265Y380027D01*
X226186Y379721D01*
X226101Y379419D01*
X226084Y379323D01*
X226059Y379228D01*
X226011Y378917D01*
X225955Y378607D01*
X225947Y378510D01*
X225932Y378414D01*
X225914Y378099D01*
X225889Y377786D01*
X225890Y377688D01*
X225885Y377591D01*
X225897Y377276D01*
X225902Y376961D01*
X225913Y376865D01*
X225917Y376767D01*
X225960Y376455D01*
X225996Y376142D01*
X226016Y376047D01*
X226029Y375950D01*
X226102Y375644D01*
X226153Y375407D01*
X226153Y315591D01*
X225324Y313591D01*
X225246Y313373D01*
X225159Y313159D01*
X225107Y312985D01*
X225046Y312815D01*
X224990Y312590D01*
X224923Y312369D01*
X224923Y312367D01*
X224858Y312266D01*
X224825Y312200D01*
X224767Y312106D01*
X224404Y311366D01*
X224377Y311295D01*
X224354Y311248D01*
X223698Y309665D01*
X219164Y305131D01*
X217164Y304302D01*
X216954Y304203D01*
X216741Y304114D01*
X216582Y304028D01*
X216418Y303950D01*
X216220Y303832D01*
X216016Y303722D01*
X216015Y303721D01*
X215897Y303696D01*
X215827Y303672D01*
X215720Y303647D01*
X214940Y303380D01*
X214871Y303349D01*
X214821Y303332D01*
X213239Y302676D01*
X206825Y302676D01*
G37*
%LPD*%
%LPC*%
G36*
X193593Y468879D02*
X193593Y468879D01*
X191804Y469620D01*
X191545Y469713D01*
X191288Y469815D01*
X191157Y469852D01*
X191028Y469898D01*
X190761Y469966D01*
X190588Y470015D01*
X190475Y470089D01*
X190380Y470136D01*
X190237Y470222D01*
X189494Y470577D01*
X189472Y470585D01*
X189457Y470592D01*
X187668Y471334D01*
X183134Y475868D01*
X182392Y477657D01*
X182275Y477907D01*
X182165Y478160D01*
X182099Y478280D01*
X182040Y478403D01*
X181899Y478639D01*
X181812Y478797D01*
X181784Y478928D01*
X181750Y479029D01*
X181710Y479191D01*
X181435Y479968D01*
X181425Y479989D01*
X181420Y480004D01*
X180679Y481793D01*
X180679Y555644D01*
X180666Y555920D01*
X180661Y556196D01*
X180646Y556331D01*
X180639Y556468D01*
X180613Y556645D01*
X180613Y563907D01*
X181398Y565801D01*
X181483Y566040D01*
X181578Y566275D01*
X181622Y566428D01*
X181676Y566577D01*
X181738Y566823D01*
X181796Y567022D01*
X181866Y567129D01*
X181906Y567210D01*
X181978Y567328D01*
X182337Y568070D01*
X182354Y568116D01*
X182369Y568147D01*
X183068Y569832D01*
X187602Y574367D01*
X189496Y575152D01*
X189726Y575260D01*
X189959Y575360D01*
X190098Y575436D01*
X190242Y575504D01*
X190460Y575634D01*
X190641Y575733D01*
X190766Y575760D01*
X190852Y575789D01*
X190986Y575821D01*
X191765Y576092D01*
X191809Y576112D01*
X191842Y576123D01*
X193527Y576821D01*
X199941Y576821D01*
X201834Y576037D01*
X202073Y575951D01*
X202309Y575857D01*
X202461Y575812D01*
X202610Y575759D01*
X202857Y575697D01*
X203055Y575639D01*
X203162Y575569D01*
X203244Y575529D01*
X203361Y575457D01*
X204103Y575098D01*
X204149Y575081D01*
X204180Y575065D01*
X205866Y574367D01*
X210467Y569766D01*
X211251Y567871D01*
X211360Y567642D01*
X211459Y567409D01*
X211536Y567269D01*
X211603Y567126D01*
X211734Y566908D01*
X211780Y566822D01*
X211794Y566761D01*
X211823Y566675D01*
X211855Y566541D01*
X212126Y565762D01*
X212146Y565717D01*
X212157Y565685D01*
X212921Y563841D01*
X212921Y503152D01*
X212937Y502818D01*
X212947Y502484D01*
X212957Y502407D01*
X212961Y502329D01*
X213009Y501998D01*
X213052Y501666D01*
X213069Y501590D01*
X213080Y501513D01*
X213161Y501188D01*
X213235Y500863D01*
X213260Y500789D01*
X213278Y500713D01*
X213390Y500397D01*
X213495Y500080D01*
X213527Y500009D01*
X213553Y499936D01*
X213694Y499632D01*
X213701Y499618D01*
X213701Y485000D01*
X213701Y475939D01*
X213483Y475934D01*
X213406Y475925D01*
X213328Y475922D01*
X212996Y475877D01*
X212665Y475837D01*
X212588Y475821D01*
X212511Y475810D01*
X212186Y475733D01*
X211859Y475661D01*
X211785Y475637D01*
X211709Y475619D01*
X211393Y475511D01*
X211075Y475408D01*
X211003Y475377D01*
X210930Y475352D01*
X210625Y475213D01*
X210318Y475080D01*
X210250Y475043D01*
X210179Y475010D01*
X209890Y474843D01*
X209597Y474681D01*
X209533Y474637D01*
X209466Y474598D01*
X209194Y474403D01*
X208919Y474213D01*
X208871Y474171D01*
X208796Y474118D01*
X208175Y473575D01*
X208111Y473507D01*
X208064Y473466D01*
X205932Y471334D01*
X204143Y470592D01*
X203893Y470475D01*
X203640Y470365D01*
X203520Y470299D01*
X203397Y470240D01*
X203161Y470099D01*
X203003Y470012D01*
X202872Y469984D01*
X202771Y469950D01*
X202609Y469910D01*
X201832Y469635D01*
X201811Y469625D01*
X201796Y469620D01*
X200007Y468879D01*
X193593Y468879D01*
G37*
%LPD*%
%LPC*%
G36*
X611195Y21631D02*
X611195Y21631D01*
X605436Y24017D01*
X601029Y28424D01*
X598643Y34183D01*
X598643Y40417D01*
X601029Y46176D01*
X603141Y48288D01*
X603353Y48521D01*
X603570Y48750D01*
X603630Y48827D01*
X603695Y48899D01*
X603883Y49151D01*
X604077Y49399D01*
X604129Y49482D01*
X604187Y49560D01*
X604350Y49830D01*
X604519Y50095D01*
X604563Y50182D01*
X604613Y50266D01*
X604749Y50550D01*
X604891Y50831D01*
X604927Y50922D01*
X604969Y51010D01*
X605076Y51306D01*
X605191Y51599D01*
X605217Y51693D01*
X605250Y51784D01*
X605329Y52090D01*
X605414Y52392D01*
X605431Y52488D01*
X605456Y52583D01*
X605504Y52895D01*
X605560Y53204D01*
X605568Y53301D01*
X605583Y53397D01*
X605601Y53712D01*
X605626Y54025D01*
X605625Y54123D01*
X605629Y54201D01*
X624900Y54201D01*
X644175Y54201D01*
X644183Y54022D01*
X644190Y53708D01*
X644201Y53611D01*
X644206Y53514D01*
X644250Y53201D01*
X644287Y52889D01*
X644308Y52794D01*
X644321Y52697D01*
X644396Y52392D01*
X644463Y52084D01*
X644493Y51991D01*
X644516Y51896D01*
X644619Y51599D01*
X644716Y51299D01*
X644755Y51210D01*
X644787Y51118D01*
X644919Y50832D01*
X645044Y50543D01*
X645091Y50458D01*
X645132Y50369D01*
X645291Y50097D01*
X645443Y49822D01*
X645499Y49742D01*
X645548Y49658D01*
X645733Y49402D01*
X645911Y49143D01*
X645963Y49084D01*
X646031Y48990D01*
X646577Y48372D01*
X646627Y48324D01*
X646659Y48288D01*
X648771Y46176D01*
X651157Y40417D01*
X651157Y34183D01*
X648771Y28424D01*
X644364Y24017D01*
X638605Y21631D01*
X611195Y21631D01*
G37*
%LPD*%
%LPC*%
G36*
X310303Y526411D02*
X310303Y526411D01*
X308916Y526594D01*
X307565Y526956D01*
X306273Y527491D01*
X305062Y528190D01*
X304553Y528581D01*
X313171Y528581D01*
X313171Y526411D01*
X310303Y526411D01*
G37*
%LPD*%
D10*
X196800Y485000D03*
X222200Y485000D03*
X197800Y392000D03*
X223200Y392000D03*
D11*
X196734Y560701D03*
X197266Y662299D03*
D12*
X210032Y318797D03*
X208968Y217203D03*
D13*
X311002Y613280D02*
X332338Y613280D01*
X332338Y638680D02*
X311002Y638680D01*
X311002Y664080D02*
X332338Y664080D01*
X332338Y689480D02*
X311002Y689480D01*
X311002Y587880D02*
X332338Y587880D01*
X332338Y562480D02*
X311002Y562480D01*
X311002Y537080D02*
X332338Y537080D01*
D14*
X614312Y37300D02*
X635488Y37300D01*
X635488Y62700D02*
X614312Y62700D01*
X614312Y88100D02*
X635488Y88100D01*
X635488Y113500D02*
X614312Y113500D01*
X614312Y138900D02*
X635488Y138900D01*
X635488Y164300D02*
X614312Y164300D01*
X614312Y189700D02*
X635488Y189700D01*
X635488Y215100D02*
X614312Y215100D01*
X614312Y240500D02*
X635488Y240500D01*
X635488Y265900D02*
X614312Y265900D01*
X614312Y291300D02*
X635488Y291300D01*
X635488Y316700D02*
X614312Y316700D01*
X614312Y342100D02*
X635488Y342100D01*
X635488Y367500D02*
X614312Y367500D01*
X614312Y392900D02*
X635488Y392900D01*
X387788Y37300D02*
X366612Y37300D01*
X366612Y62700D02*
X387788Y62700D01*
X387788Y88100D02*
X366612Y88100D01*
X366612Y113500D02*
X387788Y113500D01*
X387788Y138900D02*
X366612Y138900D01*
X366612Y164300D02*
X387788Y164300D01*
X387788Y189700D02*
X366612Y189700D01*
X366612Y215100D02*
X387788Y215100D01*
X387788Y240500D02*
X366612Y240500D01*
X366612Y265900D02*
X387788Y265900D01*
X387788Y291300D02*
X366612Y291300D01*
X366612Y316700D02*
X387788Y316700D01*
X387788Y342100D02*
X366612Y342100D01*
X366612Y367500D02*
X387788Y367500D01*
X387788Y392900D02*
X366612Y392900D01*
D13*
X610002Y613280D02*
X631338Y613280D01*
X631338Y638680D02*
X610002Y638680D01*
X610002Y664080D02*
X631338Y664080D01*
X631338Y689480D02*
X610002Y689480D01*
X610002Y587880D02*
X631338Y587880D01*
X631338Y562480D02*
X610002Y562480D01*
X610002Y537080D02*
X631338Y537080D01*
D15*
X196800Y560635D02*
X196800Y485000D01*
X196800Y560635D02*
X196734Y560701D01*
X197800Y392000D02*
X197100Y391300D01*
X210032Y371968D02*
X210032Y318797D01*
X210032Y371968D02*
X197500Y384500D01*
X197266Y662299D02*
X217701Y662299D01*
X232500Y647500D01*
X232500Y606500D01*
X251120Y587880D01*
X321670Y587880D01*
X208968Y217203D02*
X338071Y88100D01*
X377200Y88100D01*
X322450Y637900D02*
X321670Y638680D01*
X322450Y637900D02*
X355418Y637900D01*
X499240Y494078D01*
X499240Y394198D02*
X552118Y341320D01*
X499240Y394198D02*
X499240Y494078D01*
X552118Y341320D02*
X624120Y341320D01*
X541920Y316700D02*
X474620Y384000D01*
X541920Y316700D02*
X624900Y316700D01*
X474620Y384000D02*
X474620Y479880D01*
X341220Y613280D01*
X321670Y613280D01*
X625680Y292080D02*
X645047Y292080D01*
X666000Y313033D01*
X666000Y396567D01*
X349520Y689480D02*
X321670Y689480D01*
X365500Y673500D02*
X365500Y662636D01*
X365500Y673500D02*
X349520Y689480D01*
X365500Y662636D02*
X603136Y425000D01*
X637567Y425000D02*
X666000Y396567D01*
X637567Y425000D02*
X603136Y425000D01*
X695620Y301835D02*
X660465Y266680D01*
X625680Y266680D01*
X321670Y664080D02*
X288920Y664080D01*
X276500Y676500D01*
X276500Y711000D01*
X695620Y410265D02*
X695620Y301835D01*
X617698Y456120D02*
X346318Y727500D01*
X617698Y456120D02*
X649765Y456120D01*
X695620Y410265D01*
X346318Y727500D02*
X293000Y727500D01*
X276500Y711000D01*
X321670Y562480D02*
X352520Y562480D01*
X446000Y469000D01*
X446000Y76000D01*
X407300Y37300D02*
X377200Y37300D01*
X407300Y37300D02*
X446000Y76000D01*
M02*
