G04 EAGLE Gerber RS-274X export*
G75*
%MOMM*%
%FSLAX34Y34*%
%LPD*%
%IN*%
%IPPOS*%
%AMOC8*
5,1,8,0,0,1.08239X$1,22.5*%
G01*
%ADD10C,0.254000*%


D10*
X142300Y-26000D02*
X761390Y-26170D01*
X761600Y816500D01*
X142300Y816500D01*
X142300Y-26000D01*
X182500Y795896D02*
X182427Y794689D01*
X182281Y793489D01*
X182063Y792300D01*
X181774Y791127D01*
X181415Y789973D01*
X180986Y788843D01*
X180490Y787741D01*
X179928Y786670D01*
X179303Y785636D01*
X178616Y784641D01*
X177871Y783690D01*
X177069Y782785D01*
X176215Y781931D01*
X175310Y781129D01*
X174359Y780384D01*
X173364Y779697D01*
X172330Y779072D01*
X171259Y778510D01*
X170157Y778014D01*
X169027Y777585D01*
X167873Y777226D01*
X166700Y776937D01*
X165511Y776719D01*
X164311Y776573D01*
X163104Y776500D01*
X161896Y776500D01*
X160689Y776573D01*
X159489Y776719D01*
X158300Y776937D01*
X157127Y777226D01*
X155973Y777585D01*
X154843Y778014D01*
X153741Y778510D01*
X152670Y779072D01*
X151636Y779697D01*
X150641Y780384D01*
X149690Y781129D01*
X148785Y781931D01*
X147931Y782785D01*
X147129Y783690D01*
X146384Y784641D01*
X145697Y785636D01*
X145072Y786670D01*
X144510Y787741D01*
X144014Y788843D01*
X143585Y789973D01*
X143226Y791127D01*
X142937Y792300D01*
X142719Y793489D01*
X142573Y794689D01*
X142500Y795896D01*
X142500Y797104D01*
X142573Y798311D01*
X142719Y799511D01*
X142937Y800700D01*
X143226Y801873D01*
X143585Y803027D01*
X144014Y804157D01*
X144510Y805259D01*
X145072Y806330D01*
X145697Y807364D01*
X146384Y808359D01*
X147129Y809310D01*
X147931Y810215D01*
X148785Y811069D01*
X149690Y811871D01*
X150641Y812616D01*
X151636Y813303D01*
X152670Y813928D01*
X153741Y814490D01*
X154843Y814986D01*
X155973Y815415D01*
X157127Y815774D01*
X158300Y816063D01*
X159489Y816281D01*
X160689Y816427D01*
X161896Y816500D01*
X163104Y816500D01*
X164311Y816427D01*
X165511Y816281D01*
X166700Y816063D01*
X167873Y815774D01*
X169027Y815415D01*
X170157Y814986D01*
X171259Y814490D01*
X172330Y813928D01*
X173364Y813303D01*
X174359Y812616D01*
X175310Y811871D01*
X176215Y811069D01*
X177069Y810215D01*
X177871Y809310D01*
X178616Y808359D01*
X179303Y807364D01*
X179928Y806330D01*
X180490Y805259D01*
X180986Y804157D01*
X181415Y803027D01*
X181774Y801873D01*
X182063Y800700D01*
X182281Y799511D01*
X182427Y798311D01*
X182500Y797104D01*
X182500Y795896D01*
X182500Y-6604D02*
X182427Y-7811D01*
X182281Y-9011D01*
X182063Y-10200D01*
X181774Y-11373D01*
X181415Y-12527D01*
X180986Y-13657D01*
X180490Y-14759D01*
X179928Y-15830D01*
X179303Y-16864D01*
X178616Y-17859D01*
X177871Y-18810D01*
X177069Y-19715D01*
X176215Y-20569D01*
X175310Y-21371D01*
X174359Y-22116D01*
X173364Y-22803D01*
X172330Y-23428D01*
X171259Y-23990D01*
X170157Y-24486D01*
X169027Y-24915D01*
X167873Y-25274D01*
X166700Y-25563D01*
X165511Y-25781D01*
X164311Y-25927D01*
X163104Y-26000D01*
X161896Y-26000D01*
X160689Y-25927D01*
X159489Y-25781D01*
X158300Y-25563D01*
X157127Y-25274D01*
X155973Y-24915D01*
X154843Y-24486D01*
X153741Y-23990D01*
X152670Y-23428D01*
X151636Y-22803D01*
X150641Y-22116D01*
X149690Y-21371D01*
X148785Y-20569D01*
X147931Y-19715D01*
X147129Y-18810D01*
X146384Y-17859D01*
X145697Y-16864D01*
X145072Y-15830D01*
X144510Y-14759D01*
X144014Y-13657D01*
X143585Y-12527D01*
X143226Y-11373D01*
X142937Y-10200D01*
X142719Y-9011D01*
X142573Y-7811D01*
X142500Y-6604D01*
X142500Y-5396D01*
X142573Y-4189D01*
X142719Y-2989D01*
X142937Y-1800D01*
X143226Y-627D01*
X143585Y527D01*
X144014Y1657D01*
X144510Y2759D01*
X145072Y3830D01*
X145697Y4864D01*
X146384Y5859D01*
X147129Y6810D01*
X147931Y7715D01*
X148785Y8569D01*
X149690Y9371D01*
X150641Y10116D01*
X151636Y10803D01*
X152670Y11428D01*
X153741Y11990D01*
X154843Y12486D01*
X155973Y12915D01*
X157127Y13274D01*
X158300Y13563D01*
X159489Y13781D01*
X160689Y13927D01*
X161896Y14000D01*
X163104Y14000D01*
X164311Y13927D01*
X165511Y13781D01*
X166700Y13563D01*
X167873Y13274D01*
X169027Y12915D01*
X170157Y12486D01*
X171259Y11990D01*
X172330Y11428D01*
X173364Y10803D01*
X174359Y10116D01*
X175310Y9371D01*
X176215Y8569D01*
X177069Y7715D01*
X177871Y6810D01*
X178616Y5859D01*
X179303Y4864D01*
X179928Y3830D01*
X180490Y2759D01*
X180986Y1657D01*
X181415Y527D01*
X181774Y-627D01*
X182063Y-1800D01*
X182281Y-2989D01*
X182427Y-4189D01*
X182500Y-5396D01*
X182500Y-6604D01*
X761500Y795896D02*
X761427Y794689D01*
X761281Y793489D01*
X761063Y792300D01*
X760774Y791127D01*
X760415Y789973D01*
X759986Y788843D01*
X759490Y787741D01*
X758928Y786670D01*
X758303Y785636D01*
X757616Y784641D01*
X756871Y783690D01*
X756069Y782785D01*
X755215Y781931D01*
X754310Y781129D01*
X753359Y780384D01*
X752364Y779697D01*
X751330Y779072D01*
X750259Y778510D01*
X749157Y778014D01*
X748027Y777585D01*
X746873Y777226D01*
X745700Y776937D01*
X744511Y776719D01*
X743311Y776573D01*
X742104Y776500D01*
X740896Y776500D01*
X739689Y776573D01*
X738489Y776719D01*
X737300Y776937D01*
X736127Y777226D01*
X734973Y777585D01*
X733843Y778014D01*
X732741Y778510D01*
X731670Y779072D01*
X730636Y779697D01*
X729641Y780384D01*
X728690Y781129D01*
X727785Y781931D01*
X726931Y782785D01*
X726129Y783690D01*
X725384Y784641D01*
X724697Y785636D01*
X724072Y786670D01*
X723510Y787741D01*
X723014Y788843D01*
X722585Y789973D01*
X722226Y791127D01*
X721937Y792300D01*
X721719Y793489D01*
X721573Y794689D01*
X721500Y795896D01*
X721500Y797104D01*
X721573Y798311D01*
X721719Y799511D01*
X721937Y800700D01*
X722226Y801873D01*
X722585Y803027D01*
X723014Y804157D01*
X723510Y805259D01*
X724072Y806330D01*
X724697Y807364D01*
X725384Y808359D01*
X726129Y809310D01*
X726931Y810215D01*
X727785Y811069D01*
X728690Y811871D01*
X729641Y812616D01*
X730636Y813303D01*
X731670Y813928D01*
X732741Y814490D01*
X733843Y814986D01*
X734973Y815415D01*
X736127Y815774D01*
X737300Y816063D01*
X738489Y816281D01*
X739689Y816427D01*
X740896Y816500D01*
X742104Y816500D01*
X743311Y816427D01*
X744511Y816281D01*
X745700Y816063D01*
X746873Y815774D01*
X748027Y815415D01*
X749157Y814986D01*
X750259Y814490D01*
X751330Y813928D01*
X752364Y813303D01*
X753359Y812616D01*
X754310Y811871D01*
X755215Y811069D01*
X756069Y810215D01*
X756871Y809310D01*
X757616Y808359D01*
X758303Y807364D01*
X758928Y806330D01*
X759490Y805259D01*
X759986Y804157D01*
X760415Y803027D01*
X760774Y801873D01*
X761063Y800700D01*
X761281Y799511D01*
X761427Y798311D01*
X761500Y797104D01*
X761500Y795896D01*
X761000Y-6604D02*
X760927Y-7811D01*
X760781Y-9011D01*
X760563Y-10200D01*
X760274Y-11373D01*
X759915Y-12527D01*
X759486Y-13657D01*
X758990Y-14759D01*
X758428Y-15830D01*
X757803Y-16864D01*
X757116Y-17859D01*
X756371Y-18810D01*
X755569Y-19715D01*
X754715Y-20569D01*
X753810Y-21371D01*
X752859Y-22116D01*
X751864Y-22803D01*
X750830Y-23428D01*
X749759Y-23990D01*
X748657Y-24486D01*
X747527Y-24915D01*
X746373Y-25274D01*
X745200Y-25563D01*
X744011Y-25781D01*
X742811Y-25927D01*
X741604Y-26000D01*
X740396Y-26000D01*
X739189Y-25927D01*
X737989Y-25781D01*
X736800Y-25563D01*
X735627Y-25274D01*
X734473Y-24915D01*
X733343Y-24486D01*
X732241Y-23990D01*
X731170Y-23428D01*
X730136Y-22803D01*
X729141Y-22116D01*
X728190Y-21371D01*
X727285Y-20569D01*
X726431Y-19715D01*
X725629Y-18810D01*
X724884Y-17859D01*
X724197Y-16864D01*
X723572Y-15830D01*
X723010Y-14759D01*
X722514Y-13657D01*
X722085Y-12527D01*
X721726Y-11373D01*
X721437Y-10200D01*
X721219Y-9011D01*
X721073Y-7811D01*
X721000Y-6604D01*
X721000Y-5396D01*
X721073Y-4189D01*
X721219Y-2989D01*
X721437Y-1800D01*
X721726Y-627D01*
X722085Y527D01*
X722514Y1657D01*
X723010Y2759D01*
X723572Y3830D01*
X724197Y4864D01*
X724884Y5859D01*
X725629Y6810D01*
X726431Y7715D01*
X727285Y8569D01*
X728190Y9371D01*
X729141Y10116D01*
X730136Y10803D01*
X731170Y11428D01*
X732241Y11990D01*
X733343Y12486D01*
X734473Y12915D01*
X735627Y13274D01*
X736800Y13563D01*
X737989Y13781D01*
X739189Y13927D01*
X740396Y14000D01*
X741604Y14000D01*
X742811Y13927D01*
X744011Y13781D01*
X745200Y13563D01*
X746373Y13274D01*
X747527Y12915D01*
X748657Y12486D01*
X749759Y11990D01*
X750830Y11428D01*
X751864Y10803D01*
X752859Y10116D01*
X753810Y9371D01*
X754715Y8569D01*
X755569Y7715D01*
X756371Y6810D01*
X757116Y5859D01*
X757803Y4864D01*
X758428Y3830D01*
X758990Y2759D01*
X759486Y1657D01*
X759915Y527D01*
X760274Y-627D01*
X760563Y-1800D01*
X760781Y-2989D01*
X760927Y-4189D01*
X761000Y-5396D01*
X761000Y-6604D01*
M02*
