G04 EAGLE Gerber RS-274X export*
G75*
%MOMM*%
%FSLAX34Y34*%
%LPD*%
%INSilkscreen Top*%
%IPPOS*%
%AMOC8*
5,1,8,0,0,1.08239X$1,22.5*%
G01*
%ADD10C,0.203200*%
%ADD11C,0.254000*%
%ADD12C,0.152400*%
%ADD13C,0.127000*%
%ADD14R,0.863600X0.609600*%
%ADD15C,0.101600*%

G36*
X470165Y-13123D02*
X470165Y-13123D01*
X470231Y-13121D01*
X470274Y-13103D01*
X470321Y-13095D01*
X470378Y-13061D01*
X470438Y-13036D01*
X470473Y-13005D01*
X470514Y-12980D01*
X470556Y-12929D01*
X470604Y-12885D01*
X470626Y-12843D01*
X470655Y-12806D01*
X470676Y-12744D01*
X470707Y-12685D01*
X470715Y-12631D01*
X470727Y-12594D01*
X470726Y-12554D01*
X470734Y-12500D01*
X470734Y12900D01*
X470723Y12965D01*
X470721Y13031D01*
X470703Y13074D01*
X470695Y13121D01*
X470661Y13178D01*
X470636Y13238D01*
X470605Y13273D01*
X470580Y13314D01*
X470529Y13356D01*
X470485Y13404D01*
X470443Y13426D01*
X470406Y13455D01*
X470344Y13476D01*
X470285Y13507D01*
X470231Y13515D01*
X470194Y13527D01*
X470154Y13526D01*
X470100Y13534D01*
X393900Y13534D01*
X393835Y13523D01*
X393769Y13521D01*
X393726Y13503D01*
X393679Y13495D01*
X393622Y13461D01*
X393562Y13436D01*
X393527Y13405D01*
X393486Y13380D01*
X393445Y13329D01*
X393396Y13285D01*
X393374Y13243D01*
X393345Y13206D01*
X393324Y13144D01*
X393293Y13085D01*
X393285Y13031D01*
X393273Y12994D01*
X393274Y12966D01*
X393273Y12964D01*
X393273Y12949D01*
X393266Y12900D01*
X393266Y-12500D01*
X393277Y-12565D01*
X393279Y-12631D01*
X393297Y-12674D01*
X393305Y-12721D01*
X393339Y-12778D01*
X393364Y-12838D01*
X393395Y-12873D01*
X393420Y-12914D01*
X393471Y-12956D01*
X393515Y-13004D01*
X393557Y-13026D01*
X393594Y-13055D01*
X393656Y-13076D01*
X393715Y-13107D01*
X393769Y-13115D01*
X393806Y-13127D01*
X393846Y-13126D01*
X393900Y-13134D01*
X470100Y-13134D01*
X470165Y-13123D01*
G37*
D10*
X234900Y465950D02*
X234900Y504050D01*
D11*
X234426Y504666D01*
X233937Y505271D01*
X233433Y505863D01*
X232915Y506443D01*
X232383Y507010D01*
X231837Y507564D01*
X231278Y508104D01*
X230705Y508630D01*
X230120Y509143D01*
X229523Y509640D01*
X228914Y510123D01*
X228293Y510591D01*
X227660Y511044D01*
X227017Y511481D01*
X226363Y511902D01*
X225699Y512306D01*
X225026Y512695D01*
X224343Y513067D01*
X223651Y513422D01*
X222951Y513760D01*
X222243Y514081D01*
X221527Y514384D01*
X220803Y514670D01*
X220074Y514938D01*
X219337Y515188D01*
X218595Y515419D01*
X217847Y515633D01*
X217095Y515828D01*
X216337Y516005D01*
X215576Y516163D01*
X214811Y516303D01*
X214043Y516423D01*
X213272Y516525D01*
X212499Y516608D01*
X211724Y516672D01*
X210948Y516717D01*
X210171Y516743D01*
X209393Y516750D01*
X208616Y516738D01*
X207839Y516707D01*
X207063Y516656D01*
X206288Y516587D01*
X205516Y516499D01*
X204746Y516392D01*
X203978Y516266D01*
X203214Y516122D01*
X202454Y515958D01*
X201698Y515776D01*
X200947Y515576D01*
X200200Y515358D01*
X199460Y515121D01*
X198725Y514866D01*
X197997Y514593D01*
X197276Y514302D01*
X196562Y513994D01*
X195856Y513669D01*
X195158Y513326D01*
X194468Y512966D01*
X193788Y512590D01*
X193117Y512197D01*
X192456Y511787D01*
X191805Y511362D01*
X191165Y510921D01*
X190536Y510464D01*
X189918Y509992D01*
X189312Y509505D01*
X188718Y509003D01*
X188136Y508487D01*
X187567Y507957D01*
X187012Y507413D01*
X186469Y506855D01*
X185941Y506285D01*
X185427Y505702D01*
X184927Y505106D01*
X184442Y504498D01*
X183972Y503879D01*
X183518Y503248D01*
X183079Y502606D01*
X182655Y501954D01*
X182248Y501291D01*
X181857Y500619D01*
X181483Y499937D01*
X181126Y499247D01*
X180786Y498548D01*
X180462Y497840D01*
X180157Y497126D01*
X179868Y496403D01*
X179598Y495674D01*
X179346Y494939D01*
X179111Y494197D01*
X178895Y493450D01*
X178697Y492698D01*
X178518Y491942D01*
X178357Y491181D01*
X178215Y490417D01*
X178092Y489649D01*
X177988Y488878D01*
X177902Y488105D01*
X177836Y487331D01*
X177788Y486555D01*
X177760Y485778D01*
X177750Y485000D01*
X177760Y484222D01*
X177788Y483445D01*
X177836Y482669D01*
X177902Y481895D01*
X177988Y481122D01*
X178092Y480351D01*
X178215Y479583D01*
X178357Y478819D01*
X178518Y478058D01*
X178697Y477302D01*
X178895Y476550D01*
X179111Y475803D01*
X179346Y475061D01*
X179598Y474326D01*
X179868Y473597D01*
X180157Y472874D01*
X180462Y472160D01*
X180786Y471452D01*
X181126Y470753D01*
X181483Y470063D01*
X181857Y469381D01*
X182248Y468709D01*
X182655Y468046D01*
X183079Y467394D01*
X183518Y466752D01*
X183972Y466121D01*
X184442Y465502D01*
X184927Y464894D01*
X185427Y464298D01*
X185941Y463715D01*
X186469Y463145D01*
X187012Y462587D01*
X187567Y462043D01*
X188136Y461513D01*
X188718Y460997D01*
X189312Y460495D01*
X189918Y460008D01*
X190536Y459536D01*
X191165Y459079D01*
X191805Y458638D01*
X192456Y458213D01*
X193117Y457803D01*
X193788Y457410D01*
X194468Y457034D01*
X195158Y456674D01*
X195856Y456331D01*
X196562Y456006D01*
X197276Y455698D01*
X197997Y455407D01*
X198725Y455134D01*
X199460Y454879D01*
X200200Y454642D01*
X200947Y454424D01*
X201698Y454224D01*
X202454Y454042D01*
X203214Y453878D01*
X203978Y453734D01*
X204746Y453608D01*
X205516Y453501D01*
X206288Y453413D01*
X207063Y453344D01*
X207839Y453293D01*
X208616Y453262D01*
X209393Y453250D01*
X210171Y453257D01*
X210948Y453283D01*
X211724Y453328D01*
X212499Y453392D01*
X213272Y453475D01*
X214043Y453577D01*
X214811Y453697D01*
X215576Y453837D01*
X216337Y453995D01*
X217095Y454172D01*
X217847Y454367D01*
X218595Y454581D01*
X219337Y454812D01*
X220074Y455062D01*
X220803Y455330D01*
X221527Y455616D01*
X222243Y455919D01*
X222951Y456240D01*
X223651Y456578D01*
X224343Y456933D01*
X225026Y457305D01*
X225699Y457694D01*
X226363Y458098D01*
X227017Y458519D01*
X227660Y458956D01*
X228293Y459409D01*
X228914Y459877D01*
X229523Y460360D01*
X230120Y460857D01*
X230705Y461370D01*
X231278Y461896D01*
X231837Y462436D01*
X232383Y462990D01*
X232915Y463557D01*
X233433Y464137D01*
X233937Y464729D01*
X234426Y465334D01*
X234900Y465950D01*
D12*
X184100Y485000D02*
X184108Y485623D01*
X184131Y486246D01*
X184169Y486869D01*
X184222Y487490D01*
X184291Y488109D01*
X184375Y488727D01*
X184474Y489342D01*
X184588Y489955D01*
X184717Y490565D01*
X184861Y491172D01*
X185020Y491775D01*
X185194Y492373D01*
X185382Y492968D01*
X185585Y493557D01*
X185802Y494141D01*
X186033Y494720D01*
X186279Y495293D01*
X186539Y495860D01*
X186812Y496420D01*
X187099Y496973D01*
X187400Y497520D01*
X187714Y498058D01*
X188041Y498589D01*
X188381Y499111D01*
X188733Y499626D01*
X189099Y500131D01*
X189476Y500627D01*
X189866Y501114D01*
X190267Y501591D01*
X190680Y502058D01*
X191104Y502514D01*
X191539Y502961D01*
X191986Y503396D01*
X192442Y503820D01*
X192909Y504233D01*
X193386Y504634D01*
X193873Y505024D01*
X194369Y505401D01*
X194874Y505767D01*
X195389Y506119D01*
X195911Y506459D01*
X196442Y506786D01*
X196980Y507100D01*
X197527Y507401D01*
X198080Y507688D01*
X198640Y507961D01*
X199207Y508221D01*
X199780Y508467D01*
X200359Y508698D01*
X200943Y508915D01*
X201532Y509118D01*
X202127Y509306D01*
X202725Y509480D01*
X203328Y509639D01*
X203935Y509783D01*
X204545Y509912D01*
X205158Y510026D01*
X205773Y510125D01*
X206391Y510209D01*
X207010Y510278D01*
X207631Y510331D01*
X208254Y510369D01*
X208877Y510392D01*
X209500Y510400D01*
X210123Y510392D01*
X210746Y510369D01*
X211369Y510331D01*
X211990Y510278D01*
X212609Y510209D01*
X213227Y510125D01*
X213842Y510026D01*
X214455Y509912D01*
X215065Y509783D01*
X215672Y509639D01*
X216275Y509480D01*
X216873Y509306D01*
X217468Y509118D01*
X218057Y508915D01*
X218641Y508698D01*
X219220Y508467D01*
X219793Y508221D01*
X220360Y507961D01*
X220920Y507688D01*
X221473Y507401D01*
X222020Y507100D01*
X222558Y506786D01*
X223089Y506459D01*
X223611Y506119D01*
X224126Y505767D01*
X224631Y505401D01*
X225127Y505024D01*
X225614Y504634D01*
X226091Y504233D01*
X226558Y503820D01*
X227014Y503396D01*
X227461Y502961D01*
X227896Y502514D01*
X228320Y502058D01*
X228733Y501591D01*
X229134Y501114D01*
X229524Y500627D01*
X229901Y500131D01*
X230267Y499626D01*
X230619Y499111D01*
X230959Y498589D01*
X231286Y498058D01*
X231600Y497520D01*
X231901Y496973D01*
X232188Y496420D01*
X232461Y495860D01*
X232721Y495293D01*
X232967Y494720D01*
X233198Y494141D01*
X233415Y493557D01*
X233618Y492968D01*
X233806Y492373D01*
X233980Y491775D01*
X234139Y491172D01*
X234283Y490565D01*
X234412Y489955D01*
X234526Y489342D01*
X234625Y488727D01*
X234709Y488109D01*
X234778Y487490D01*
X234831Y486869D01*
X234869Y486246D01*
X234892Y485623D01*
X234900Y485000D01*
X234892Y484377D01*
X234869Y483754D01*
X234831Y483131D01*
X234778Y482510D01*
X234709Y481891D01*
X234625Y481273D01*
X234526Y480658D01*
X234412Y480045D01*
X234283Y479435D01*
X234139Y478828D01*
X233980Y478225D01*
X233806Y477627D01*
X233618Y477032D01*
X233415Y476443D01*
X233198Y475859D01*
X232967Y475280D01*
X232721Y474707D01*
X232461Y474140D01*
X232188Y473580D01*
X231901Y473027D01*
X231600Y472480D01*
X231286Y471942D01*
X230959Y471411D01*
X230619Y470889D01*
X230267Y470374D01*
X229901Y469869D01*
X229524Y469373D01*
X229134Y468886D01*
X228733Y468409D01*
X228320Y467942D01*
X227896Y467486D01*
X227461Y467039D01*
X227014Y466604D01*
X226558Y466180D01*
X226091Y465767D01*
X225614Y465366D01*
X225127Y464976D01*
X224631Y464599D01*
X224126Y464233D01*
X223611Y463881D01*
X223089Y463541D01*
X222558Y463214D01*
X222020Y462900D01*
X221473Y462599D01*
X220920Y462312D01*
X220360Y462039D01*
X219793Y461779D01*
X219220Y461533D01*
X218641Y461302D01*
X218057Y461085D01*
X217468Y460882D01*
X216873Y460694D01*
X216275Y460520D01*
X215672Y460361D01*
X215065Y460217D01*
X214455Y460088D01*
X213842Y459974D01*
X213227Y459875D01*
X212609Y459791D01*
X211990Y459722D01*
X211369Y459669D01*
X210746Y459631D01*
X210123Y459608D01*
X209500Y459600D01*
X208877Y459608D01*
X208254Y459631D01*
X207631Y459669D01*
X207010Y459722D01*
X206391Y459791D01*
X205773Y459875D01*
X205158Y459974D01*
X204545Y460088D01*
X203935Y460217D01*
X203328Y460361D01*
X202725Y460520D01*
X202127Y460694D01*
X201532Y460882D01*
X200943Y461085D01*
X200359Y461302D01*
X199780Y461533D01*
X199207Y461779D01*
X198640Y462039D01*
X198080Y462312D01*
X197527Y462599D01*
X196980Y462900D01*
X196442Y463214D01*
X195911Y463541D01*
X195389Y463881D01*
X194874Y464233D01*
X194369Y464599D01*
X193873Y464976D01*
X193386Y465366D01*
X192909Y465767D01*
X192442Y466180D01*
X191986Y466604D01*
X191539Y467039D01*
X191104Y467486D01*
X190680Y467942D01*
X190267Y468409D01*
X189866Y468886D01*
X189476Y469373D01*
X189099Y469869D01*
X188733Y470374D01*
X188381Y470889D01*
X188041Y471411D01*
X187714Y471942D01*
X187400Y472480D01*
X187099Y473027D01*
X186812Y473580D01*
X186539Y474140D01*
X186279Y474707D01*
X186033Y475280D01*
X185802Y475859D01*
X185585Y476443D01*
X185382Y477032D01*
X185194Y477627D01*
X185020Y478225D01*
X184861Y478828D01*
X184717Y479435D01*
X184588Y480045D01*
X184474Y480658D01*
X184375Y481273D01*
X184291Y481891D01*
X184222Y482510D01*
X184169Y483131D01*
X184131Y483754D01*
X184108Y484377D01*
X184100Y485000D01*
D13*
X206885Y457399D02*
X206885Y445969D01*
X211965Y445969D01*
X216791Y445969D02*
X221871Y445969D01*
X216791Y445969D02*
X216791Y457399D01*
X221871Y457399D01*
X220601Y452319D02*
X216791Y452319D01*
X226672Y457399D02*
X226672Y445969D01*
X226672Y457399D02*
X229847Y457399D01*
X229958Y457397D01*
X230068Y457391D01*
X230179Y457382D01*
X230289Y457368D01*
X230398Y457351D01*
X230507Y457330D01*
X230615Y457305D01*
X230722Y457276D01*
X230828Y457244D01*
X230933Y457208D01*
X231036Y457168D01*
X231138Y457125D01*
X231239Y457078D01*
X231338Y457027D01*
X231435Y456974D01*
X231529Y456917D01*
X231622Y456856D01*
X231713Y456793D01*
X231802Y456726D01*
X231888Y456656D01*
X231971Y456583D01*
X232053Y456508D01*
X232131Y456430D01*
X232206Y456348D01*
X232279Y456265D01*
X232349Y456179D01*
X232416Y456090D01*
X232479Y455999D01*
X232540Y455906D01*
X232597Y455812D01*
X232650Y455715D01*
X232701Y455616D01*
X232748Y455515D01*
X232791Y455413D01*
X232831Y455310D01*
X232867Y455205D01*
X232899Y455099D01*
X232928Y454992D01*
X232953Y454884D01*
X232974Y454775D01*
X232991Y454666D01*
X233005Y454556D01*
X233014Y454445D01*
X233020Y454335D01*
X233022Y454224D01*
X233022Y449144D01*
X233020Y449033D01*
X233014Y448923D01*
X233005Y448812D01*
X232991Y448702D01*
X232974Y448593D01*
X232953Y448484D01*
X232928Y448376D01*
X232899Y448269D01*
X232867Y448163D01*
X232831Y448058D01*
X232791Y447955D01*
X232748Y447853D01*
X232701Y447752D01*
X232650Y447653D01*
X232597Y447556D01*
X232540Y447462D01*
X232479Y447369D01*
X232416Y447278D01*
X232349Y447189D01*
X232279Y447103D01*
X232206Y447020D01*
X232131Y446938D01*
X232053Y446860D01*
X231971Y446785D01*
X231888Y446712D01*
X231802Y446642D01*
X231713Y446575D01*
X231622Y446512D01*
X231529Y446451D01*
X231434Y446394D01*
X231338Y446341D01*
X231239Y446290D01*
X231138Y446243D01*
X231036Y446200D01*
X230933Y446160D01*
X230828Y446124D01*
X230722Y446092D01*
X230615Y446063D01*
X230507Y446038D01*
X230398Y446017D01*
X230289Y446000D01*
X230179Y445986D01*
X230068Y445977D01*
X229958Y445971D01*
X229847Y445969D01*
X226672Y445969D01*
X238483Y454859D02*
X241658Y457399D01*
X241658Y445969D01*
X238483Y445969D02*
X244833Y445969D01*
D10*
X235900Y411050D02*
X235900Y372950D01*
D11*
X235426Y372334D01*
X234937Y371729D01*
X234433Y371137D01*
X233915Y370557D01*
X233383Y369990D01*
X232837Y369436D01*
X232278Y368896D01*
X231705Y368370D01*
X231120Y367857D01*
X230523Y367360D01*
X229914Y366877D01*
X229293Y366409D01*
X228660Y365956D01*
X228017Y365519D01*
X227363Y365098D01*
X226699Y364694D01*
X226026Y364305D01*
X225343Y363933D01*
X224651Y363578D01*
X223951Y363240D01*
X223243Y362919D01*
X222527Y362616D01*
X221803Y362330D01*
X221074Y362062D01*
X220337Y361812D01*
X219595Y361581D01*
X218847Y361367D01*
X218095Y361172D01*
X217337Y360995D01*
X216576Y360837D01*
X215811Y360697D01*
X215043Y360577D01*
X214272Y360475D01*
X213499Y360392D01*
X212724Y360328D01*
X211948Y360283D01*
X211171Y360257D01*
X210393Y360250D01*
X209616Y360262D01*
X208839Y360293D01*
X208063Y360344D01*
X207288Y360413D01*
X206516Y360501D01*
X205746Y360608D01*
X204978Y360734D01*
X204214Y360878D01*
X203454Y361042D01*
X202698Y361224D01*
X201947Y361424D01*
X201200Y361642D01*
X200460Y361879D01*
X199725Y362134D01*
X198997Y362407D01*
X198276Y362698D01*
X197562Y363006D01*
X196856Y363331D01*
X196158Y363674D01*
X195468Y364034D01*
X194788Y364410D01*
X194117Y364803D01*
X193456Y365213D01*
X192805Y365638D01*
X192165Y366079D01*
X191536Y366536D01*
X190918Y367008D01*
X190312Y367495D01*
X189718Y367997D01*
X189136Y368513D01*
X188567Y369043D01*
X188012Y369587D01*
X187469Y370145D01*
X186941Y370715D01*
X186427Y371298D01*
X185927Y371894D01*
X185442Y372502D01*
X184972Y373121D01*
X184518Y373752D01*
X184079Y374394D01*
X183655Y375046D01*
X183248Y375709D01*
X182857Y376381D01*
X182483Y377063D01*
X182126Y377753D01*
X181786Y378452D01*
X181462Y379160D01*
X181157Y379874D01*
X180868Y380597D01*
X180598Y381326D01*
X180346Y382061D01*
X180111Y382803D01*
X179895Y383550D01*
X179697Y384302D01*
X179518Y385058D01*
X179357Y385819D01*
X179215Y386583D01*
X179092Y387351D01*
X178988Y388122D01*
X178902Y388895D01*
X178836Y389669D01*
X178788Y390445D01*
X178760Y391222D01*
X178750Y392000D01*
X178760Y392778D01*
X178788Y393555D01*
X178836Y394331D01*
X178902Y395105D01*
X178988Y395878D01*
X179092Y396649D01*
X179215Y397417D01*
X179357Y398181D01*
X179518Y398942D01*
X179697Y399698D01*
X179895Y400450D01*
X180111Y401197D01*
X180346Y401939D01*
X180598Y402674D01*
X180868Y403403D01*
X181157Y404126D01*
X181462Y404840D01*
X181786Y405548D01*
X182126Y406247D01*
X182483Y406937D01*
X182857Y407619D01*
X183248Y408291D01*
X183655Y408954D01*
X184079Y409606D01*
X184518Y410248D01*
X184972Y410879D01*
X185442Y411498D01*
X185927Y412106D01*
X186427Y412702D01*
X186941Y413285D01*
X187469Y413855D01*
X188012Y414413D01*
X188567Y414957D01*
X189136Y415487D01*
X189718Y416003D01*
X190312Y416505D01*
X190918Y416992D01*
X191536Y417464D01*
X192165Y417921D01*
X192805Y418362D01*
X193456Y418787D01*
X194117Y419197D01*
X194788Y419590D01*
X195468Y419966D01*
X196158Y420326D01*
X196856Y420669D01*
X197562Y420994D01*
X198276Y421302D01*
X198997Y421593D01*
X199725Y421866D01*
X200460Y422121D01*
X201200Y422358D01*
X201947Y422576D01*
X202698Y422776D01*
X203454Y422958D01*
X204214Y423122D01*
X204978Y423266D01*
X205746Y423392D01*
X206516Y423499D01*
X207288Y423587D01*
X208063Y423656D01*
X208839Y423707D01*
X209616Y423738D01*
X210393Y423750D01*
X211171Y423743D01*
X211948Y423717D01*
X212724Y423672D01*
X213499Y423608D01*
X214272Y423525D01*
X215043Y423423D01*
X215811Y423303D01*
X216576Y423163D01*
X217337Y423005D01*
X218095Y422828D01*
X218847Y422633D01*
X219595Y422419D01*
X220337Y422188D01*
X221074Y421938D01*
X221803Y421670D01*
X222527Y421384D01*
X223243Y421081D01*
X223951Y420760D01*
X224651Y420422D01*
X225343Y420067D01*
X226026Y419695D01*
X226699Y419306D01*
X227363Y418902D01*
X228017Y418481D01*
X228660Y418044D01*
X229293Y417591D01*
X229914Y417123D01*
X230523Y416640D01*
X231120Y416143D01*
X231705Y415630D01*
X232278Y415104D01*
X232837Y414564D01*
X233383Y414010D01*
X233915Y413443D01*
X234433Y412863D01*
X234937Y412271D01*
X235426Y411666D01*
X235900Y411050D01*
D12*
X185100Y392000D02*
X185108Y392623D01*
X185131Y393246D01*
X185169Y393869D01*
X185222Y394490D01*
X185291Y395109D01*
X185375Y395727D01*
X185474Y396342D01*
X185588Y396955D01*
X185717Y397565D01*
X185861Y398172D01*
X186020Y398775D01*
X186194Y399373D01*
X186382Y399968D01*
X186585Y400557D01*
X186802Y401141D01*
X187033Y401720D01*
X187279Y402293D01*
X187539Y402860D01*
X187812Y403420D01*
X188099Y403973D01*
X188400Y404520D01*
X188714Y405058D01*
X189041Y405589D01*
X189381Y406111D01*
X189733Y406626D01*
X190099Y407131D01*
X190476Y407627D01*
X190866Y408114D01*
X191267Y408591D01*
X191680Y409058D01*
X192104Y409514D01*
X192539Y409961D01*
X192986Y410396D01*
X193442Y410820D01*
X193909Y411233D01*
X194386Y411634D01*
X194873Y412024D01*
X195369Y412401D01*
X195874Y412767D01*
X196389Y413119D01*
X196911Y413459D01*
X197442Y413786D01*
X197980Y414100D01*
X198527Y414401D01*
X199080Y414688D01*
X199640Y414961D01*
X200207Y415221D01*
X200780Y415467D01*
X201359Y415698D01*
X201943Y415915D01*
X202532Y416118D01*
X203127Y416306D01*
X203725Y416480D01*
X204328Y416639D01*
X204935Y416783D01*
X205545Y416912D01*
X206158Y417026D01*
X206773Y417125D01*
X207391Y417209D01*
X208010Y417278D01*
X208631Y417331D01*
X209254Y417369D01*
X209877Y417392D01*
X210500Y417400D01*
X211123Y417392D01*
X211746Y417369D01*
X212369Y417331D01*
X212990Y417278D01*
X213609Y417209D01*
X214227Y417125D01*
X214842Y417026D01*
X215455Y416912D01*
X216065Y416783D01*
X216672Y416639D01*
X217275Y416480D01*
X217873Y416306D01*
X218468Y416118D01*
X219057Y415915D01*
X219641Y415698D01*
X220220Y415467D01*
X220793Y415221D01*
X221360Y414961D01*
X221920Y414688D01*
X222473Y414401D01*
X223020Y414100D01*
X223558Y413786D01*
X224089Y413459D01*
X224611Y413119D01*
X225126Y412767D01*
X225631Y412401D01*
X226127Y412024D01*
X226614Y411634D01*
X227091Y411233D01*
X227558Y410820D01*
X228014Y410396D01*
X228461Y409961D01*
X228896Y409514D01*
X229320Y409058D01*
X229733Y408591D01*
X230134Y408114D01*
X230524Y407627D01*
X230901Y407131D01*
X231267Y406626D01*
X231619Y406111D01*
X231959Y405589D01*
X232286Y405058D01*
X232600Y404520D01*
X232901Y403973D01*
X233188Y403420D01*
X233461Y402860D01*
X233721Y402293D01*
X233967Y401720D01*
X234198Y401141D01*
X234415Y400557D01*
X234618Y399968D01*
X234806Y399373D01*
X234980Y398775D01*
X235139Y398172D01*
X235283Y397565D01*
X235412Y396955D01*
X235526Y396342D01*
X235625Y395727D01*
X235709Y395109D01*
X235778Y394490D01*
X235831Y393869D01*
X235869Y393246D01*
X235892Y392623D01*
X235900Y392000D01*
X235892Y391377D01*
X235869Y390754D01*
X235831Y390131D01*
X235778Y389510D01*
X235709Y388891D01*
X235625Y388273D01*
X235526Y387658D01*
X235412Y387045D01*
X235283Y386435D01*
X235139Y385828D01*
X234980Y385225D01*
X234806Y384627D01*
X234618Y384032D01*
X234415Y383443D01*
X234198Y382859D01*
X233967Y382280D01*
X233721Y381707D01*
X233461Y381140D01*
X233188Y380580D01*
X232901Y380027D01*
X232600Y379480D01*
X232286Y378942D01*
X231959Y378411D01*
X231619Y377889D01*
X231267Y377374D01*
X230901Y376869D01*
X230524Y376373D01*
X230134Y375886D01*
X229733Y375409D01*
X229320Y374942D01*
X228896Y374486D01*
X228461Y374039D01*
X228014Y373604D01*
X227558Y373180D01*
X227091Y372767D01*
X226614Y372366D01*
X226127Y371976D01*
X225631Y371599D01*
X225126Y371233D01*
X224611Y370881D01*
X224089Y370541D01*
X223558Y370214D01*
X223020Y369900D01*
X222473Y369599D01*
X221920Y369312D01*
X221360Y369039D01*
X220793Y368779D01*
X220220Y368533D01*
X219641Y368302D01*
X219057Y368085D01*
X218468Y367882D01*
X217873Y367694D01*
X217275Y367520D01*
X216672Y367361D01*
X216065Y367217D01*
X215455Y367088D01*
X214842Y366974D01*
X214227Y366875D01*
X213609Y366791D01*
X212990Y366722D01*
X212369Y366669D01*
X211746Y366631D01*
X211123Y366608D01*
X210500Y366600D01*
X209877Y366608D01*
X209254Y366631D01*
X208631Y366669D01*
X208010Y366722D01*
X207391Y366791D01*
X206773Y366875D01*
X206158Y366974D01*
X205545Y367088D01*
X204935Y367217D01*
X204328Y367361D01*
X203725Y367520D01*
X203127Y367694D01*
X202532Y367882D01*
X201943Y368085D01*
X201359Y368302D01*
X200780Y368533D01*
X200207Y368779D01*
X199640Y369039D01*
X199080Y369312D01*
X198527Y369599D01*
X197980Y369900D01*
X197442Y370214D01*
X196911Y370541D01*
X196389Y370881D01*
X195874Y371233D01*
X195369Y371599D01*
X194873Y371976D01*
X194386Y372366D01*
X193909Y372767D01*
X193442Y373180D01*
X192986Y373604D01*
X192539Y374039D01*
X192104Y374486D01*
X191680Y374942D01*
X191267Y375409D01*
X190866Y375886D01*
X190476Y376373D01*
X190099Y376869D01*
X189733Y377374D01*
X189381Y377889D01*
X189041Y378411D01*
X188714Y378942D01*
X188400Y379480D01*
X188099Y380027D01*
X187812Y380580D01*
X187539Y381140D01*
X187279Y381707D01*
X187033Y382280D01*
X186802Y382859D01*
X186585Y383443D01*
X186382Y384032D01*
X186194Y384627D01*
X186020Y385225D01*
X185861Y385828D01*
X185717Y386435D01*
X185588Y387045D01*
X185474Y387658D01*
X185375Y388273D01*
X185291Y388891D01*
X185222Y389510D01*
X185169Y390131D01*
X185131Y390754D01*
X185108Y391377D01*
X185100Y392000D01*
D13*
X228385Y363399D02*
X228385Y351969D01*
X233465Y351969D01*
X238291Y351969D02*
X243371Y351969D01*
X238291Y351969D02*
X238291Y363399D01*
X243371Y363399D01*
X242101Y358319D02*
X238291Y358319D01*
X248172Y363399D02*
X248172Y351969D01*
X248172Y363399D02*
X251347Y363399D01*
X251458Y363397D01*
X251568Y363391D01*
X251679Y363382D01*
X251789Y363368D01*
X251898Y363351D01*
X252007Y363330D01*
X252115Y363305D01*
X252222Y363276D01*
X252328Y363244D01*
X252433Y363208D01*
X252536Y363168D01*
X252638Y363125D01*
X252739Y363078D01*
X252838Y363027D01*
X252935Y362974D01*
X253029Y362917D01*
X253122Y362856D01*
X253213Y362793D01*
X253302Y362726D01*
X253388Y362656D01*
X253471Y362583D01*
X253553Y362508D01*
X253631Y362430D01*
X253706Y362348D01*
X253779Y362265D01*
X253849Y362179D01*
X253916Y362090D01*
X253979Y361999D01*
X254040Y361906D01*
X254097Y361812D01*
X254150Y361715D01*
X254201Y361616D01*
X254248Y361515D01*
X254291Y361413D01*
X254331Y361310D01*
X254367Y361205D01*
X254399Y361099D01*
X254428Y360992D01*
X254453Y360884D01*
X254474Y360775D01*
X254491Y360666D01*
X254505Y360556D01*
X254514Y360445D01*
X254520Y360335D01*
X254522Y360224D01*
X254522Y355144D01*
X254520Y355033D01*
X254514Y354923D01*
X254505Y354812D01*
X254491Y354702D01*
X254474Y354593D01*
X254453Y354484D01*
X254428Y354376D01*
X254399Y354269D01*
X254367Y354163D01*
X254331Y354058D01*
X254291Y353955D01*
X254248Y353853D01*
X254201Y353752D01*
X254150Y353653D01*
X254097Y353556D01*
X254040Y353462D01*
X253979Y353369D01*
X253916Y353278D01*
X253849Y353189D01*
X253779Y353103D01*
X253706Y353020D01*
X253631Y352938D01*
X253553Y352860D01*
X253471Y352785D01*
X253388Y352712D01*
X253302Y352642D01*
X253213Y352575D01*
X253122Y352512D01*
X253029Y352451D01*
X252934Y352394D01*
X252838Y352341D01*
X252739Y352290D01*
X252638Y352243D01*
X252536Y352200D01*
X252433Y352160D01*
X252328Y352124D01*
X252222Y352092D01*
X252115Y352063D01*
X252007Y352038D01*
X251898Y352017D01*
X251789Y352000D01*
X251679Y351986D01*
X251568Y351977D01*
X251458Y351971D01*
X251347Y351969D01*
X248172Y351969D01*
X263475Y363400D02*
X263579Y363398D01*
X263684Y363392D01*
X263788Y363383D01*
X263891Y363370D01*
X263994Y363352D01*
X264096Y363332D01*
X264198Y363307D01*
X264298Y363279D01*
X264398Y363247D01*
X264496Y363211D01*
X264593Y363172D01*
X264688Y363130D01*
X264782Y363084D01*
X264874Y363034D01*
X264964Y362982D01*
X265052Y362926D01*
X265138Y362866D01*
X265222Y362804D01*
X265303Y362739D01*
X265382Y362671D01*
X265459Y362599D01*
X265532Y362526D01*
X265604Y362449D01*
X265672Y362370D01*
X265737Y362289D01*
X265799Y362205D01*
X265859Y362119D01*
X265915Y362031D01*
X265967Y361941D01*
X266017Y361849D01*
X266063Y361755D01*
X266105Y361660D01*
X266144Y361563D01*
X266180Y361465D01*
X266212Y361365D01*
X266240Y361265D01*
X266265Y361163D01*
X266285Y361061D01*
X266303Y360958D01*
X266316Y360855D01*
X266325Y360751D01*
X266331Y360646D01*
X266333Y360542D01*
X263475Y363399D02*
X263357Y363397D01*
X263238Y363391D01*
X263120Y363382D01*
X263003Y363369D01*
X262886Y363351D01*
X262769Y363331D01*
X262653Y363306D01*
X262538Y363278D01*
X262425Y363245D01*
X262312Y363210D01*
X262200Y363170D01*
X262090Y363128D01*
X261981Y363081D01*
X261873Y363031D01*
X261768Y362978D01*
X261664Y362921D01*
X261562Y362861D01*
X261462Y362798D01*
X261364Y362731D01*
X261268Y362662D01*
X261175Y362589D01*
X261084Y362513D01*
X260995Y362435D01*
X260909Y362353D01*
X260826Y362269D01*
X260745Y362183D01*
X260668Y362093D01*
X260593Y362002D01*
X260521Y361908D01*
X260452Y361811D01*
X260387Y361713D01*
X260324Y361612D01*
X260265Y361509D01*
X260209Y361405D01*
X260157Y361299D01*
X260108Y361191D01*
X260063Y361082D01*
X260021Y360971D01*
X259983Y360859D01*
X265380Y358320D02*
X265456Y358395D01*
X265531Y358474D01*
X265602Y358555D01*
X265671Y358639D01*
X265736Y358725D01*
X265798Y358813D01*
X265858Y358903D01*
X265914Y358995D01*
X265967Y359090D01*
X266016Y359186D01*
X266062Y359284D01*
X266105Y359383D01*
X266144Y359484D01*
X266179Y359586D01*
X266211Y359689D01*
X266239Y359793D01*
X266264Y359898D01*
X266285Y360005D01*
X266302Y360111D01*
X266315Y360218D01*
X266324Y360326D01*
X266330Y360434D01*
X266332Y360542D01*
X265380Y358319D02*
X259983Y351969D01*
X266333Y351969D01*
D12*
X196444Y577297D02*
X196344Y577300D01*
X196244Y577306D01*
X196145Y577316D01*
X196047Y577330D01*
X195948Y577348D01*
X195851Y577370D01*
X195755Y577396D01*
X195659Y577425D01*
X195565Y577459D01*
X195473Y577495D01*
X195382Y577536D01*
X195292Y577580D01*
X195204Y577627D01*
X195119Y577678D01*
X195035Y577732D01*
X194953Y577790D01*
X194874Y577851D01*
X194797Y577914D01*
X194723Y577981D01*
X194652Y578050D01*
X194583Y578123D01*
X194517Y578198D01*
X194454Y578275D01*
X194394Y578355D01*
X194338Y578437D01*
X194284Y578521D01*
X194234Y578608D01*
X194188Y578696D01*
X194145Y578786D01*
X194105Y578877D01*
X194069Y578970D01*
X194037Y579065D01*
X194009Y579160D01*
X193984Y579257D01*
X193963Y579355D01*
X193946Y579453D01*
X193933Y579552D01*
X193924Y579651D01*
X193918Y579751D01*
X193917Y579850D01*
X214224Y577204D02*
X214323Y577205D01*
X214423Y577211D01*
X214522Y577220D01*
X214621Y577233D01*
X214719Y577250D01*
X214817Y577271D01*
X214914Y577296D01*
X215009Y577324D01*
X215104Y577356D01*
X215197Y577392D01*
X215288Y577432D01*
X215378Y577475D01*
X215466Y577521D01*
X215553Y577571D01*
X215637Y577625D01*
X215719Y577681D01*
X215799Y577741D01*
X215876Y577804D01*
X215951Y577870D01*
X216024Y577939D01*
X216093Y578010D01*
X216160Y578084D01*
X216223Y578161D01*
X216284Y578240D01*
X216342Y578322D01*
X216396Y578406D01*
X216447Y578491D01*
X216494Y578579D01*
X216538Y578669D01*
X216579Y578760D01*
X216615Y578852D01*
X216649Y578946D01*
X216678Y579042D01*
X216704Y579138D01*
X216726Y579235D01*
X216744Y579334D01*
X216758Y579432D01*
X216768Y579531D01*
X216774Y579631D01*
X216777Y579731D01*
X217083Y638150D02*
X217082Y638249D01*
X217076Y638349D01*
X217067Y638448D01*
X217054Y638547D01*
X217037Y638645D01*
X217016Y638743D01*
X216991Y638840D01*
X216963Y638935D01*
X216931Y639030D01*
X216895Y639123D01*
X216855Y639214D01*
X216812Y639304D01*
X216766Y639392D01*
X216716Y639479D01*
X216662Y639563D01*
X216606Y639645D01*
X216546Y639725D01*
X216483Y639802D01*
X216417Y639877D01*
X216348Y639950D01*
X216277Y640019D01*
X216203Y640086D01*
X216126Y640149D01*
X216047Y640210D01*
X215965Y640268D01*
X215881Y640322D01*
X215796Y640373D01*
X215708Y640420D01*
X215618Y640464D01*
X215527Y640505D01*
X215435Y640541D01*
X215341Y640575D01*
X215245Y640604D01*
X215149Y640630D01*
X215052Y640652D01*
X214953Y640670D01*
X214855Y640684D01*
X214756Y640694D01*
X214656Y640700D01*
X214556Y640703D01*
X196776Y640796D02*
X196677Y640795D01*
X196577Y640789D01*
X196478Y640780D01*
X196379Y640767D01*
X196281Y640750D01*
X196183Y640729D01*
X196086Y640704D01*
X195991Y640676D01*
X195896Y640644D01*
X195803Y640608D01*
X195712Y640568D01*
X195622Y640525D01*
X195534Y640479D01*
X195447Y640429D01*
X195363Y640375D01*
X195281Y640319D01*
X195201Y640259D01*
X195124Y640196D01*
X195049Y640130D01*
X194976Y640061D01*
X194907Y639990D01*
X194840Y639916D01*
X194777Y639839D01*
X194716Y639760D01*
X194658Y639678D01*
X194604Y639594D01*
X194553Y639509D01*
X194506Y639421D01*
X194462Y639331D01*
X194421Y639240D01*
X194385Y639148D01*
X194351Y639054D01*
X194322Y638958D01*
X194296Y638862D01*
X194274Y638765D01*
X194256Y638666D01*
X194242Y638568D01*
X194232Y638469D01*
X194226Y638369D01*
X194223Y638269D01*
X196444Y577297D02*
X214224Y577204D01*
X193917Y579850D02*
X193937Y583660D01*
X195214Y584924D01*
X216797Y583541D02*
X216777Y579731D01*
X216797Y583541D02*
X215534Y584817D01*
X195466Y633183D02*
X194203Y634459D01*
X195466Y633183D02*
X195214Y584924D01*
X215786Y633076D02*
X217063Y634340D01*
X215786Y633076D02*
X215534Y584817D01*
X194203Y634459D02*
X194223Y638269D01*
X217083Y638150D02*
X217063Y634340D01*
X214556Y640703D02*
X196776Y640796D01*
D14*
G36*
X208759Y649369D02*
X208714Y640735D01*
X202619Y640767D01*
X202664Y649401D01*
X208759Y649369D01*
G37*
G36*
X208381Y577233D02*
X208336Y568599D01*
X202241Y568631D01*
X202286Y577265D01*
X208381Y577233D01*
G37*
D13*
X189469Y579238D02*
X178039Y579298D01*
X178056Y582473D01*
X178056Y582474D02*
X178059Y582584D01*
X178065Y582695D01*
X178075Y582805D01*
X178089Y582915D01*
X178107Y583025D01*
X178129Y583133D01*
X178154Y583241D01*
X178184Y583348D01*
X178217Y583454D01*
X178253Y583558D01*
X178293Y583662D01*
X178337Y583764D01*
X178385Y583864D01*
X178435Y583962D01*
X178490Y584059D01*
X178547Y584154D01*
X178608Y584246D01*
X178672Y584337D01*
X178739Y584425D01*
X178810Y584511D01*
X178883Y584594D01*
X178959Y584674D01*
X179037Y584752D01*
X179119Y584828D01*
X179203Y584900D01*
X179289Y584969D01*
X179378Y585035D01*
X179469Y585098D01*
X179563Y585158D01*
X179658Y585215D01*
X179755Y585268D01*
X179854Y585318D01*
X179955Y585364D01*
X180057Y585407D01*
X180161Y585446D01*
X180266Y585482D01*
X180372Y585514D01*
X180479Y585542D01*
X180587Y585566D01*
X180696Y585587D01*
X180806Y585603D01*
X180916Y585616D01*
X181026Y585625D01*
X181137Y585631D01*
X181248Y585632D01*
X181358Y585629D01*
X181469Y585623D01*
X181579Y585613D01*
X181689Y585599D01*
X181799Y585581D01*
X181907Y585559D01*
X182015Y585534D01*
X182122Y585504D01*
X182228Y585471D01*
X182333Y585435D01*
X182436Y585395D01*
X182538Y585351D01*
X182638Y585303D01*
X182736Y585253D01*
X182833Y585198D01*
X182928Y585141D01*
X183020Y585080D01*
X183111Y585016D01*
X183199Y584949D01*
X183285Y584878D01*
X183368Y584805D01*
X183448Y584729D01*
X183526Y584651D01*
X183602Y584569D01*
X183674Y584485D01*
X183743Y584399D01*
X183809Y584310D01*
X183872Y584219D01*
X183932Y584125D01*
X183989Y584030D01*
X184042Y583933D01*
X184092Y583834D01*
X184138Y583733D01*
X184181Y583631D01*
X184220Y583527D01*
X184256Y583422D01*
X184288Y583316D01*
X184316Y583209D01*
X184340Y583101D01*
X184361Y582992D01*
X184377Y582882D01*
X184390Y582772D01*
X184399Y582662D01*
X184405Y582551D01*
X184406Y582440D01*
X184389Y579265D01*
X184409Y583075D02*
X189502Y585588D01*
X180638Y590632D02*
X178115Y593820D01*
X189545Y593760D01*
X189528Y590585D02*
X189562Y596935D01*
D12*
X218722Y299655D02*
X218821Y299652D01*
X218921Y299645D01*
X219020Y299634D01*
X219119Y299619D01*
X219217Y299601D01*
X219314Y299578D01*
X219410Y299552D01*
X219505Y299522D01*
X219599Y299489D01*
X219692Y299451D01*
X219782Y299410D01*
X219872Y299366D01*
X219959Y299318D01*
X220045Y299267D01*
X220128Y299212D01*
X220209Y299154D01*
X220288Y299093D01*
X220365Y299029D01*
X220439Y298962D01*
X220510Y298892D01*
X220578Y298820D01*
X220644Y298744D01*
X220706Y298667D01*
X220765Y298586D01*
X220822Y298504D01*
X220874Y298419D01*
X220924Y298333D01*
X220970Y298244D01*
X221013Y298154D01*
X221052Y298062D01*
X221087Y297969D01*
X221119Y297875D01*
X221147Y297779D01*
X221171Y297682D01*
X221191Y297584D01*
X221208Y297486D01*
X221220Y297387D01*
X221229Y297288D01*
X221234Y297188D01*
X221235Y297088D01*
X200943Y299841D02*
X200843Y299840D01*
X200743Y299835D01*
X200644Y299826D01*
X200545Y299814D01*
X200447Y299797D01*
X200349Y299777D01*
X200252Y299753D01*
X200156Y299725D01*
X200062Y299693D01*
X199969Y299658D01*
X199877Y299619D01*
X199787Y299576D01*
X199698Y299530D01*
X199612Y299480D01*
X199527Y299428D01*
X199445Y299371D01*
X199364Y299312D01*
X199287Y299250D01*
X199211Y299184D01*
X199139Y299116D01*
X199069Y299045D01*
X199002Y298971D01*
X198938Y298894D01*
X198877Y298815D01*
X198819Y298734D01*
X198764Y298651D01*
X198713Y298565D01*
X198665Y298478D01*
X198621Y298388D01*
X198580Y298298D01*
X198542Y298205D01*
X198509Y298111D01*
X198479Y298016D01*
X198453Y297920D01*
X198430Y297823D01*
X198412Y297725D01*
X198397Y297626D01*
X198386Y297527D01*
X198379Y297427D01*
X198376Y297328D01*
X197765Y238912D02*
X197766Y238812D01*
X197771Y238712D01*
X197780Y238613D01*
X197792Y238514D01*
X197809Y238416D01*
X197829Y238318D01*
X197853Y238221D01*
X197881Y238125D01*
X197913Y238031D01*
X197948Y237938D01*
X197987Y237846D01*
X198030Y237756D01*
X198076Y237667D01*
X198126Y237581D01*
X198178Y237496D01*
X198235Y237414D01*
X198294Y237333D01*
X198356Y237256D01*
X198422Y237180D01*
X198490Y237108D01*
X198561Y237038D01*
X198635Y236971D01*
X198712Y236907D01*
X198791Y236846D01*
X198872Y236788D01*
X198955Y236733D01*
X199041Y236682D01*
X199128Y236634D01*
X199218Y236590D01*
X199308Y236549D01*
X199401Y236511D01*
X199495Y236478D01*
X199590Y236448D01*
X199686Y236422D01*
X199783Y236399D01*
X199881Y236381D01*
X199980Y236366D01*
X200079Y236355D01*
X200179Y236348D01*
X200278Y236345D01*
X218057Y236158D02*
X218157Y236159D01*
X218257Y236164D01*
X218356Y236173D01*
X218455Y236185D01*
X218553Y236202D01*
X218651Y236222D01*
X218748Y236246D01*
X218844Y236274D01*
X218938Y236306D01*
X219031Y236341D01*
X219123Y236380D01*
X219213Y236423D01*
X219302Y236469D01*
X219388Y236519D01*
X219473Y236571D01*
X219555Y236628D01*
X219636Y236687D01*
X219713Y236749D01*
X219789Y236815D01*
X219861Y236883D01*
X219931Y236954D01*
X219998Y237028D01*
X220062Y237105D01*
X220123Y237184D01*
X220181Y237265D01*
X220236Y237348D01*
X220287Y237434D01*
X220335Y237521D01*
X220379Y237611D01*
X220420Y237701D01*
X220458Y237794D01*
X220491Y237888D01*
X220521Y237983D01*
X220547Y238079D01*
X220570Y238176D01*
X220588Y238274D01*
X220603Y238373D01*
X220614Y238472D01*
X220621Y238572D01*
X220624Y238671D01*
X218722Y299655D02*
X200943Y299841D01*
X221235Y297089D02*
X221195Y293279D01*
X219912Y292022D01*
X198337Y293518D02*
X198377Y297328D01*
X198337Y293518D02*
X199593Y292235D01*
X219407Y243765D02*
X220663Y242482D01*
X219407Y243765D02*
X219912Y292022D01*
X199088Y243978D02*
X197805Y242721D01*
X199088Y243978D02*
X199593Y292235D01*
X220663Y242482D02*
X220623Y238672D01*
X197765Y238911D02*
X197805Y242721D01*
X200278Y236345D02*
X218057Y236159D01*
D14*
G36*
X206029Y227649D02*
X206120Y236283D01*
X212215Y236219D01*
X212124Y227585D01*
X206029Y227649D01*
G37*
G36*
X206785Y299781D02*
X206876Y308415D01*
X212971Y308351D01*
X212880Y299717D01*
X206785Y299781D01*
G37*
D13*
X225501Y279981D02*
X236931Y279861D01*
X225501Y279981D02*
X225534Y283156D01*
X225534Y283155D02*
X225537Y283266D01*
X225544Y283377D01*
X225555Y283487D01*
X225570Y283597D01*
X225588Y283706D01*
X225610Y283815D01*
X225637Y283922D01*
X225666Y284029D01*
X225700Y284135D01*
X225737Y284239D01*
X225778Y284342D01*
X225822Y284444D01*
X225870Y284544D01*
X225921Y284642D01*
X225976Y284738D01*
X226034Y284833D01*
X226096Y284925D01*
X226160Y285015D01*
X226228Y285103D01*
X226298Y285188D01*
X226372Y285271D01*
X226448Y285351D01*
X226527Y285429D01*
X226609Y285504D01*
X226694Y285575D01*
X226781Y285644D01*
X226870Y285710D01*
X226961Y285773D01*
X227055Y285832D01*
X227150Y285888D01*
X227248Y285941D01*
X227347Y285990D01*
X227448Y286036D01*
X227551Y286078D01*
X227654Y286117D01*
X227760Y286152D01*
X227866Y286183D01*
X227973Y286211D01*
X228081Y286234D01*
X228190Y286254D01*
X228300Y286271D01*
X228410Y286283D01*
X228521Y286291D01*
X228631Y286296D01*
X228742Y286297D01*
X228853Y286294D01*
X228964Y286287D01*
X229074Y286276D01*
X229184Y286261D01*
X229293Y286243D01*
X229402Y286221D01*
X229509Y286194D01*
X229616Y286165D01*
X229722Y286131D01*
X229826Y286094D01*
X229929Y286053D01*
X230031Y286009D01*
X230131Y285961D01*
X230229Y285910D01*
X230325Y285855D01*
X230420Y285797D01*
X230512Y285735D01*
X230602Y285671D01*
X230690Y285603D01*
X230775Y285533D01*
X230858Y285459D01*
X230938Y285383D01*
X231016Y285303D01*
X231091Y285222D01*
X231162Y285137D01*
X231231Y285050D01*
X231297Y284961D01*
X231360Y284870D01*
X231419Y284776D01*
X231475Y284681D01*
X231528Y284583D01*
X231577Y284484D01*
X231623Y284383D01*
X231665Y284280D01*
X231704Y284177D01*
X231739Y284071D01*
X231770Y283965D01*
X231798Y283858D01*
X231821Y283750D01*
X231841Y283641D01*
X231858Y283531D01*
X231870Y283421D01*
X231878Y283310D01*
X231883Y283200D01*
X231884Y283089D01*
X231851Y279914D01*
X231891Y283724D02*
X236997Y286211D01*
X228544Y297648D02*
X228437Y297647D01*
X228330Y297642D01*
X228224Y297633D01*
X228118Y297620D01*
X228012Y297604D01*
X227907Y297583D01*
X227803Y297558D01*
X227700Y297530D01*
X227598Y297497D01*
X227498Y297461D01*
X227399Y297421D01*
X227301Y297378D01*
X227205Y297331D01*
X227111Y297280D01*
X227019Y297226D01*
X226929Y297168D01*
X226841Y297107D01*
X226756Y297043D01*
X226673Y296976D01*
X226592Y296905D01*
X226514Y296832D01*
X226439Y296756D01*
X226367Y296677D01*
X226298Y296595D01*
X226232Y296511D01*
X226170Y296425D01*
X226110Y296336D01*
X226054Y296245D01*
X226001Y296152D01*
X225952Y296057D01*
X225907Y295960D01*
X225865Y295862D01*
X225826Y295762D01*
X225792Y295661D01*
X225761Y295559D01*
X225734Y295455D01*
X225712Y295351D01*
X225693Y295246D01*
X225677Y295140D01*
X225666Y295033D01*
X225659Y294927D01*
X225656Y294820D01*
X225656Y294819D02*
X225657Y294701D01*
X225661Y294583D01*
X225670Y294465D01*
X225682Y294347D01*
X225698Y294230D01*
X225717Y294113D01*
X225741Y293997D01*
X225768Y293882D01*
X225799Y293767D01*
X225833Y293654D01*
X225871Y293542D01*
X225913Y293431D01*
X225958Y293322D01*
X226007Y293214D01*
X226059Y293108D01*
X226115Y293003D01*
X226174Y292901D01*
X226236Y292800D01*
X226302Y292702D01*
X226370Y292605D01*
X226442Y292511D01*
X226517Y292419D01*
X226594Y292330D01*
X226675Y292243D01*
X226758Y292159D01*
X226844Y292077D01*
X226932Y291999D01*
X227023Y291923D01*
X227117Y291850D01*
X227212Y291780D01*
X227310Y291714D01*
X227410Y291650D01*
X227512Y291590D01*
X227616Y291533D01*
X227721Y291480D01*
X227829Y291430D01*
X227938Y291383D01*
X228048Y291340D01*
X228159Y291301D01*
X230756Y296671D02*
X230681Y296749D01*
X230604Y296824D01*
X230523Y296896D01*
X230440Y296965D01*
X230355Y297032D01*
X230268Y297095D01*
X230178Y297155D01*
X230086Y297213D01*
X229992Y297266D01*
X229897Y297317D01*
X229800Y297364D01*
X229701Y297407D01*
X229600Y297447D01*
X229499Y297484D01*
X229396Y297517D01*
X229292Y297546D01*
X229187Y297572D01*
X229081Y297594D01*
X228975Y297612D01*
X228868Y297626D01*
X228760Y297637D01*
X228652Y297644D01*
X228544Y297647D01*
X230756Y296671D02*
X237049Y291208D01*
X237116Y297557D01*
X305000Y470100D02*
X305000Y-12500D01*
X305000Y470100D02*
X559000Y470100D01*
X559000Y-12500D01*
X305000Y-12500D01*
D15*
X417240Y19194D02*
X417240Y27632D01*
X417239Y19194D02*
X417241Y19081D01*
X417247Y18968D01*
X417257Y18855D01*
X417271Y18742D01*
X417288Y18630D01*
X417310Y18519D01*
X417335Y18409D01*
X417365Y18299D01*
X417398Y18191D01*
X417435Y18084D01*
X417475Y17978D01*
X417520Y17874D01*
X417568Y17771D01*
X417619Y17670D01*
X417674Y17571D01*
X417732Y17474D01*
X417794Y17379D01*
X417859Y17286D01*
X417927Y17196D01*
X417998Y17108D01*
X418073Y17022D01*
X418150Y16939D01*
X418230Y16859D01*
X418313Y16782D01*
X418399Y16707D01*
X418487Y16636D01*
X418577Y16568D01*
X418670Y16503D01*
X418765Y16441D01*
X418862Y16383D01*
X418961Y16328D01*
X419062Y16277D01*
X419165Y16229D01*
X419269Y16184D01*
X419375Y16144D01*
X419482Y16107D01*
X419590Y16074D01*
X419700Y16044D01*
X419810Y16019D01*
X419921Y15997D01*
X420033Y15980D01*
X420146Y15966D01*
X420259Y15956D01*
X420372Y15950D01*
X420485Y15948D01*
X420598Y15950D01*
X420711Y15956D01*
X420824Y15966D01*
X420937Y15980D01*
X421049Y15997D01*
X421160Y16019D01*
X421270Y16044D01*
X421380Y16074D01*
X421488Y16107D01*
X421595Y16144D01*
X421701Y16184D01*
X421805Y16229D01*
X421908Y16277D01*
X422009Y16328D01*
X422108Y16383D01*
X422205Y16441D01*
X422300Y16503D01*
X422393Y16568D01*
X422483Y16636D01*
X422571Y16707D01*
X422657Y16782D01*
X422740Y16859D01*
X422820Y16939D01*
X422897Y17022D01*
X422972Y17108D01*
X423043Y17196D01*
X423111Y17286D01*
X423176Y17379D01*
X423238Y17474D01*
X423296Y17571D01*
X423351Y17670D01*
X423402Y17771D01*
X423450Y17874D01*
X423495Y17978D01*
X423535Y18084D01*
X423572Y18191D01*
X423605Y18299D01*
X423635Y18409D01*
X423660Y18519D01*
X423682Y18630D01*
X423699Y18742D01*
X423713Y18855D01*
X423723Y18968D01*
X423729Y19081D01*
X423731Y19194D01*
X423731Y27632D01*
X435160Y18544D02*
X435158Y18445D01*
X435152Y18345D01*
X435143Y18246D01*
X435130Y18148D01*
X435113Y18050D01*
X435092Y17952D01*
X435067Y17856D01*
X435039Y17761D01*
X435007Y17667D01*
X434972Y17574D01*
X434933Y17482D01*
X434890Y17392D01*
X434845Y17304D01*
X434795Y17217D01*
X434743Y17133D01*
X434687Y17050D01*
X434629Y16970D01*
X434567Y16892D01*
X434502Y16817D01*
X434434Y16744D01*
X434364Y16674D01*
X434291Y16606D01*
X434216Y16541D01*
X434138Y16479D01*
X434058Y16421D01*
X433975Y16365D01*
X433891Y16313D01*
X433804Y16263D01*
X433716Y16218D01*
X433626Y16175D01*
X433534Y16136D01*
X433441Y16101D01*
X433347Y16069D01*
X433252Y16041D01*
X433156Y16016D01*
X433058Y15995D01*
X432960Y15978D01*
X432862Y15965D01*
X432763Y15956D01*
X432663Y15950D01*
X432564Y15948D01*
X432420Y15950D01*
X432275Y15956D01*
X432131Y15965D01*
X431988Y15978D01*
X431844Y15995D01*
X431701Y16016D01*
X431559Y16041D01*
X431418Y16069D01*
X431277Y16101D01*
X431137Y16137D01*
X430998Y16176D01*
X430860Y16219D01*
X430724Y16266D01*
X430588Y16316D01*
X430454Y16370D01*
X430322Y16427D01*
X430191Y16488D01*
X430062Y16552D01*
X429934Y16620D01*
X429808Y16690D01*
X429684Y16765D01*
X429563Y16842D01*
X429443Y16923D01*
X429325Y17006D01*
X429210Y17093D01*
X429097Y17183D01*
X428986Y17276D01*
X428878Y17371D01*
X428772Y17470D01*
X428669Y17571D01*
X428995Y25036D02*
X428997Y25135D01*
X429003Y25235D01*
X429012Y25334D01*
X429025Y25432D01*
X429042Y25530D01*
X429063Y25628D01*
X429088Y25724D01*
X429116Y25819D01*
X429148Y25913D01*
X429183Y26006D01*
X429222Y26098D01*
X429265Y26188D01*
X429310Y26276D01*
X429360Y26363D01*
X429412Y26447D01*
X429468Y26530D01*
X429526Y26610D01*
X429588Y26688D01*
X429653Y26763D01*
X429721Y26836D01*
X429791Y26906D01*
X429864Y26974D01*
X429939Y27039D01*
X430017Y27101D01*
X430097Y27159D01*
X430180Y27215D01*
X430264Y27267D01*
X430351Y27317D01*
X430439Y27362D01*
X430529Y27405D01*
X430621Y27444D01*
X430714Y27479D01*
X430808Y27511D01*
X430903Y27539D01*
X431000Y27564D01*
X431097Y27585D01*
X431195Y27602D01*
X431293Y27615D01*
X431392Y27624D01*
X431492Y27630D01*
X431591Y27632D01*
X431727Y27630D01*
X431863Y27624D01*
X431999Y27615D01*
X432135Y27602D01*
X432270Y27584D01*
X432404Y27564D01*
X432538Y27539D01*
X432672Y27511D01*
X432804Y27478D01*
X432935Y27443D01*
X433066Y27403D01*
X433195Y27360D01*
X433323Y27314D01*
X433449Y27263D01*
X433575Y27210D01*
X433698Y27152D01*
X433820Y27092D01*
X433940Y27028D01*
X434059Y26960D01*
X434175Y26890D01*
X434289Y26816D01*
X434402Y26739D01*
X434512Y26658D01*
X430292Y22764D02*
X430206Y22817D01*
X430122Y22874D01*
X430040Y22933D01*
X429960Y22996D01*
X429883Y23062D01*
X429808Y23130D01*
X429736Y23202D01*
X429667Y23276D01*
X429601Y23353D01*
X429538Y23432D01*
X429478Y23514D01*
X429421Y23598D01*
X429367Y23684D01*
X429317Y23772D01*
X429270Y23862D01*
X429226Y23953D01*
X429187Y24047D01*
X429150Y24141D01*
X429118Y24237D01*
X429089Y24335D01*
X429064Y24433D01*
X429043Y24532D01*
X429025Y24632D01*
X429012Y24732D01*
X429002Y24833D01*
X428996Y24935D01*
X428994Y25036D01*
X433863Y20816D02*
X433949Y20763D01*
X434033Y20706D01*
X434115Y20647D01*
X434195Y20584D01*
X434272Y20518D01*
X434347Y20450D01*
X434419Y20378D01*
X434488Y20304D01*
X434554Y20227D01*
X434617Y20148D01*
X434677Y20066D01*
X434734Y19982D01*
X434788Y19896D01*
X434838Y19808D01*
X434885Y19718D01*
X434929Y19627D01*
X434968Y19533D01*
X435005Y19439D01*
X435037Y19343D01*
X435066Y19245D01*
X435091Y19147D01*
X435112Y19048D01*
X435130Y18948D01*
X435143Y18848D01*
X435153Y18747D01*
X435159Y18645D01*
X435161Y18544D01*
X433863Y20816D02*
X430293Y22764D01*
X440269Y22439D02*
X443515Y22439D01*
X443515Y22440D02*
X443628Y22438D01*
X443741Y22432D01*
X443854Y22422D01*
X443967Y22408D01*
X444079Y22391D01*
X444190Y22369D01*
X444300Y22344D01*
X444410Y22314D01*
X444518Y22281D01*
X444625Y22244D01*
X444731Y22204D01*
X444835Y22159D01*
X444938Y22111D01*
X445039Y22060D01*
X445138Y22005D01*
X445235Y21947D01*
X445330Y21885D01*
X445423Y21820D01*
X445513Y21752D01*
X445601Y21681D01*
X445687Y21606D01*
X445770Y21529D01*
X445850Y21449D01*
X445927Y21366D01*
X446002Y21280D01*
X446073Y21192D01*
X446141Y21102D01*
X446206Y21009D01*
X446268Y20914D01*
X446326Y20817D01*
X446381Y20718D01*
X446432Y20617D01*
X446480Y20514D01*
X446525Y20410D01*
X446565Y20304D01*
X446602Y20197D01*
X446635Y20089D01*
X446665Y19979D01*
X446690Y19869D01*
X446712Y19758D01*
X446729Y19646D01*
X446743Y19533D01*
X446753Y19420D01*
X446759Y19307D01*
X446761Y19194D01*
X446759Y19081D01*
X446753Y18968D01*
X446743Y18855D01*
X446729Y18742D01*
X446712Y18630D01*
X446690Y18519D01*
X446665Y18409D01*
X446635Y18299D01*
X446602Y18191D01*
X446565Y18084D01*
X446525Y17978D01*
X446480Y17874D01*
X446432Y17771D01*
X446381Y17670D01*
X446326Y17571D01*
X446268Y17474D01*
X446206Y17379D01*
X446141Y17286D01*
X446073Y17196D01*
X446002Y17108D01*
X445927Y17022D01*
X445850Y16939D01*
X445770Y16859D01*
X445687Y16782D01*
X445601Y16707D01*
X445513Y16636D01*
X445423Y16568D01*
X445330Y16503D01*
X445235Y16441D01*
X445138Y16383D01*
X445039Y16328D01*
X444938Y16277D01*
X444835Y16229D01*
X444731Y16184D01*
X444625Y16144D01*
X444518Y16107D01*
X444410Y16074D01*
X444300Y16044D01*
X444190Y16019D01*
X444079Y15997D01*
X443967Y15980D01*
X443854Y15966D01*
X443741Y15956D01*
X443628Y15950D01*
X443515Y15948D01*
X440269Y15948D01*
X440269Y27632D01*
X443515Y27632D01*
X443616Y27630D01*
X443716Y27624D01*
X443816Y27614D01*
X443916Y27601D01*
X444015Y27583D01*
X444114Y27562D01*
X444211Y27537D01*
X444308Y27508D01*
X444403Y27475D01*
X444497Y27439D01*
X444589Y27399D01*
X444680Y27356D01*
X444769Y27309D01*
X444856Y27259D01*
X444942Y27205D01*
X445025Y27148D01*
X445105Y27088D01*
X445184Y27025D01*
X445260Y26958D01*
X445333Y26889D01*
X445403Y26817D01*
X445471Y26743D01*
X445536Y26666D01*
X445597Y26586D01*
X445656Y26504D01*
X445711Y26420D01*
X445763Y26334D01*
X445812Y26246D01*
X445857Y26156D01*
X445899Y26064D01*
X445937Y25971D01*
X445971Y25876D01*
X446002Y25781D01*
X446029Y25684D01*
X446052Y25586D01*
X446072Y25487D01*
X446087Y25387D01*
X446099Y25287D01*
X446107Y25187D01*
X446111Y25086D01*
X446111Y24986D01*
X446107Y24885D01*
X446099Y24785D01*
X446087Y24685D01*
X446072Y24585D01*
X446052Y24486D01*
X446029Y24388D01*
X446002Y24291D01*
X445971Y24196D01*
X445937Y24101D01*
X445899Y24008D01*
X445857Y23916D01*
X445812Y23826D01*
X445763Y23738D01*
X445711Y23652D01*
X445656Y23568D01*
X445597Y23486D01*
X445536Y23406D01*
X445471Y23329D01*
X445403Y23255D01*
X445333Y23183D01*
X445260Y23114D01*
X445184Y23047D01*
X445105Y22984D01*
X445025Y22924D01*
X444942Y22867D01*
X444856Y22813D01*
X444769Y22763D01*
X444680Y22716D01*
X444589Y22673D01*
X444497Y22633D01*
X444403Y22597D01*
X444308Y22564D01*
X444211Y22535D01*
X444114Y22510D01*
X444015Y22489D01*
X443916Y22471D01*
X443816Y22458D01*
X443716Y22448D01*
X443616Y22442D01*
X443515Y22440D01*
D13*
X307700Y493900D02*
X307700Y730120D01*
X712830Y573910D02*
X827130Y573910D01*
X712830Y573910D02*
X712830Y510410D01*
X725530Y561210D02*
X687430Y561210D01*
X687430Y542160D02*
X725530Y542160D01*
X725530Y523110D02*
X687430Y523110D01*
X712830Y510410D02*
X827130Y510410D01*
X827130Y573910D01*
X739500Y493900D02*
X307700Y493900D01*
X307700Y730120D02*
X739500Y730120D01*
X739500Y493900D01*
D15*
X440401Y621408D02*
X435208Y621408D01*
X435208Y633092D01*
X440401Y633092D01*
X439103Y627899D02*
X435208Y627899D01*
X448281Y633092D02*
X448388Y633090D01*
X448494Y633084D01*
X448600Y633074D01*
X448706Y633061D01*
X448812Y633043D01*
X448916Y633022D01*
X449020Y632997D01*
X449123Y632968D01*
X449224Y632936D01*
X449324Y632899D01*
X449423Y632859D01*
X449521Y632816D01*
X449617Y632769D01*
X449711Y632718D01*
X449803Y632664D01*
X449893Y632607D01*
X449981Y632547D01*
X450066Y632483D01*
X450149Y632416D01*
X450230Y632346D01*
X450308Y632274D01*
X450384Y632198D01*
X450456Y632120D01*
X450526Y632039D01*
X450593Y631956D01*
X450657Y631871D01*
X450717Y631783D01*
X450774Y631693D01*
X450828Y631601D01*
X450879Y631507D01*
X450926Y631411D01*
X450969Y631313D01*
X451009Y631214D01*
X451046Y631114D01*
X451078Y631013D01*
X451107Y630910D01*
X451132Y630806D01*
X451153Y630702D01*
X451171Y630596D01*
X451184Y630490D01*
X451194Y630384D01*
X451200Y630278D01*
X451202Y630171D01*
X448281Y633092D02*
X448160Y633090D01*
X448039Y633084D01*
X447919Y633074D01*
X447798Y633061D01*
X447679Y633043D01*
X447559Y633022D01*
X447441Y632997D01*
X447324Y632968D01*
X447207Y632935D01*
X447092Y632899D01*
X446978Y632858D01*
X446865Y632815D01*
X446753Y632767D01*
X446644Y632716D01*
X446536Y632661D01*
X446429Y632603D01*
X446325Y632542D01*
X446223Y632477D01*
X446123Y632409D01*
X446025Y632338D01*
X445929Y632264D01*
X445836Y632187D01*
X445746Y632106D01*
X445658Y632023D01*
X445573Y631937D01*
X445490Y631848D01*
X445411Y631757D01*
X445334Y631663D01*
X445261Y631567D01*
X445191Y631469D01*
X445124Y631368D01*
X445060Y631265D01*
X445000Y631160D01*
X444943Y631053D01*
X444889Y630945D01*
X444839Y630835D01*
X444793Y630723D01*
X444750Y630610D01*
X444711Y630495D01*
X450228Y627899D02*
X450307Y627976D01*
X450383Y628057D01*
X450456Y628140D01*
X450526Y628225D01*
X450593Y628313D01*
X450657Y628403D01*
X450717Y628495D01*
X450774Y628590D01*
X450828Y628686D01*
X450879Y628784D01*
X450926Y628884D01*
X450970Y628986D01*
X451010Y629089D01*
X451046Y629193D01*
X451078Y629299D01*
X451107Y629405D01*
X451132Y629513D01*
X451154Y629621D01*
X451171Y629731D01*
X451185Y629840D01*
X451194Y629950D01*
X451200Y630061D01*
X451202Y630171D01*
X450228Y627899D02*
X444710Y621408D01*
X451202Y621408D01*
X462631Y630171D02*
X462629Y630278D01*
X462623Y630384D01*
X462613Y630490D01*
X462600Y630596D01*
X462582Y630702D01*
X462561Y630806D01*
X462536Y630910D01*
X462507Y631013D01*
X462475Y631114D01*
X462438Y631214D01*
X462398Y631313D01*
X462355Y631411D01*
X462308Y631507D01*
X462257Y631601D01*
X462203Y631693D01*
X462146Y631783D01*
X462086Y631871D01*
X462022Y631956D01*
X461955Y632039D01*
X461885Y632120D01*
X461813Y632198D01*
X461737Y632274D01*
X461659Y632346D01*
X461578Y632416D01*
X461495Y632483D01*
X461410Y632547D01*
X461322Y632607D01*
X461232Y632664D01*
X461140Y632718D01*
X461046Y632769D01*
X460950Y632816D01*
X460852Y632859D01*
X460753Y632899D01*
X460653Y632936D01*
X460552Y632968D01*
X460449Y632997D01*
X460345Y633022D01*
X460241Y633043D01*
X460135Y633061D01*
X460029Y633074D01*
X459923Y633084D01*
X459817Y633090D01*
X459710Y633092D01*
X459589Y633090D01*
X459468Y633084D01*
X459348Y633074D01*
X459227Y633061D01*
X459108Y633043D01*
X458988Y633022D01*
X458870Y632997D01*
X458753Y632968D01*
X458636Y632935D01*
X458521Y632899D01*
X458407Y632858D01*
X458294Y632815D01*
X458182Y632767D01*
X458073Y632716D01*
X457965Y632661D01*
X457858Y632603D01*
X457754Y632542D01*
X457652Y632477D01*
X457552Y632409D01*
X457454Y632338D01*
X457358Y632264D01*
X457265Y632187D01*
X457175Y632106D01*
X457087Y632023D01*
X457002Y631937D01*
X456919Y631848D01*
X456840Y631757D01*
X456763Y631663D01*
X456690Y631567D01*
X456620Y631469D01*
X456553Y631368D01*
X456489Y631265D01*
X456429Y631160D01*
X456372Y631053D01*
X456318Y630945D01*
X456268Y630835D01*
X456222Y630723D01*
X456179Y630610D01*
X456140Y630495D01*
X461658Y627899D02*
X461737Y627976D01*
X461813Y628057D01*
X461886Y628140D01*
X461956Y628225D01*
X462023Y628313D01*
X462087Y628403D01*
X462147Y628495D01*
X462204Y628590D01*
X462258Y628686D01*
X462309Y628784D01*
X462356Y628884D01*
X462400Y628986D01*
X462440Y629089D01*
X462476Y629193D01*
X462508Y629299D01*
X462537Y629405D01*
X462562Y629513D01*
X462584Y629621D01*
X462601Y629731D01*
X462615Y629840D01*
X462624Y629950D01*
X462630Y630061D01*
X462632Y630171D01*
X461658Y627899D02*
X456140Y621408D01*
X462631Y621408D01*
X467683Y625952D02*
X475473Y625952D01*
X480524Y624004D02*
X483121Y633092D01*
X480524Y624004D02*
X487015Y624004D01*
X485068Y626601D02*
X485068Y621408D01*
X491955Y627250D02*
X491958Y627480D01*
X491966Y627710D01*
X491980Y627939D01*
X491999Y628168D01*
X492024Y628397D01*
X492054Y628624D01*
X492089Y628852D01*
X492130Y629078D01*
X492176Y629303D01*
X492228Y629527D01*
X492285Y629749D01*
X492347Y629971D01*
X492415Y630190D01*
X492488Y630408D01*
X492566Y630625D01*
X492649Y630839D01*
X492737Y631051D01*
X492830Y631261D01*
X492929Y631469D01*
X492928Y631469D02*
X492961Y631559D01*
X492997Y631648D01*
X493037Y631736D01*
X493081Y631821D01*
X493128Y631905D01*
X493178Y631987D01*
X493232Y632067D01*
X493288Y632144D01*
X493348Y632220D01*
X493411Y632293D01*
X493476Y632363D01*
X493545Y632431D01*
X493616Y632495D01*
X493689Y632557D01*
X493765Y632616D01*
X493843Y632672D01*
X493924Y632725D01*
X494006Y632774D01*
X494090Y632820D01*
X494177Y632863D01*
X494264Y632902D01*
X494354Y632938D01*
X494444Y632970D01*
X494536Y632998D01*
X494629Y633023D01*
X494723Y633044D01*
X494817Y633061D01*
X494912Y633075D01*
X495008Y633084D01*
X495104Y633090D01*
X495200Y633092D01*
X495296Y633090D01*
X495392Y633084D01*
X495488Y633075D01*
X495583Y633061D01*
X495677Y633044D01*
X495771Y633023D01*
X495864Y632998D01*
X495956Y632970D01*
X496046Y632938D01*
X496136Y632902D01*
X496223Y632863D01*
X496310Y632820D01*
X496394Y632774D01*
X496476Y632725D01*
X496557Y632672D01*
X496635Y632616D01*
X496711Y632557D01*
X496784Y632495D01*
X496855Y632431D01*
X496924Y632363D01*
X496989Y632293D01*
X497052Y632220D01*
X497112Y632144D01*
X497168Y632067D01*
X497222Y631987D01*
X497272Y631905D01*
X497319Y631821D01*
X497363Y631736D01*
X497403Y631648D01*
X497439Y631559D01*
X497472Y631469D01*
X497571Y631262D01*
X497664Y631052D01*
X497752Y630839D01*
X497835Y630625D01*
X497913Y630409D01*
X497986Y630191D01*
X498054Y629971D01*
X498116Y629750D01*
X498173Y629527D01*
X498225Y629303D01*
X498271Y629078D01*
X498312Y628852D01*
X498347Y628625D01*
X498377Y628397D01*
X498402Y628168D01*
X498421Y627939D01*
X498435Y627710D01*
X498443Y627480D01*
X498446Y627250D01*
X491954Y627250D02*
X491957Y627020D01*
X491965Y626790D01*
X491979Y626561D01*
X491998Y626332D01*
X492023Y626103D01*
X492053Y625875D01*
X492088Y625648D01*
X492129Y625422D01*
X492175Y625197D01*
X492227Y624973D01*
X492284Y624750D01*
X492346Y624529D01*
X492414Y624309D01*
X492487Y624091D01*
X492565Y623875D01*
X492648Y623661D01*
X492736Y623449D01*
X492829Y623238D01*
X492928Y623031D01*
X492961Y622941D01*
X492997Y622852D01*
X493038Y622764D01*
X493081Y622679D01*
X493128Y622595D01*
X493178Y622513D01*
X493232Y622433D01*
X493288Y622356D01*
X493348Y622280D01*
X493411Y622207D01*
X493476Y622137D01*
X493545Y622069D01*
X493616Y622005D01*
X493689Y621943D01*
X493765Y621884D01*
X493843Y621828D01*
X493924Y621775D01*
X494006Y621726D01*
X494090Y621680D01*
X494177Y621637D01*
X494264Y621598D01*
X494354Y621562D01*
X494444Y621530D01*
X494536Y621502D01*
X494629Y621477D01*
X494723Y621456D01*
X494817Y621439D01*
X494912Y621425D01*
X495008Y621416D01*
X495104Y621410D01*
X495200Y621408D01*
X497472Y623031D02*
X497571Y623238D01*
X497664Y623449D01*
X497752Y623661D01*
X497835Y623875D01*
X497913Y624091D01*
X497986Y624309D01*
X498054Y624529D01*
X498116Y624750D01*
X498173Y624973D01*
X498225Y625197D01*
X498271Y625422D01*
X498312Y625648D01*
X498347Y625875D01*
X498377Y626103D01*
X498402Y626332D01*
X498421Y626561D01*
X498435Y626790D01*
X498443Y627020D01*
X498446Y627250D01*
X497472Y623031D02*
X497439Y622941D01*
X497403Y622852D01*
X497363Y622764D01*
X497319Y622679D01*
X497272Y622595D01*
X497222Y622513D01*
X497168Y622433D01*
X497112Y622356D01*
X497052Y622280D01*
X496989Y622207D01*
X496924Y622137D01*
X496855Y622069D01*
X496784Y622005D01*
X496711Y621943D01*
X496635Y621884D01*
X496557Y621828D01*
X496476Y621775D01*
X496394Y621726D01*
X496310Y621680D01*
X496223Y621637D01*
X496136Y621598D01*
X496046Y621562D01*
X495956Y621530D01*
X495864Y621502D01*
X495771Y621477D01*
X495677Y621456D01*
X495583Y621439D01*
X495488Y621425D01*
X495392Y621416D01*
X495296Y621410D01*
X495200Y621408D01*
X492603Y624004D02*
X497796Y630496D01*
X503385Y627250D02*
X503388Y627480D01*
X503396Y627710D01*
X503410Y627939D01*
X503429Y628168D01*
X503454Y628397D01*
X503484Y628624D01*
X503519Y628852D01*
X503560Y629078D01*
X503606Y629303D01*
X503658Y629527D01*
X503715Y629749D01*
X503777Y629971D01*
X503845Y630190D01*
X503918Y630408D01*
X503996Y630625D01*
X504079Y630839D01*
X504167Y631051D01*
X504260Y631261D01*
X504359Y631469D01*
X504358Y631469D02*
X504391Y631559D01*
X504427Y631648D01*
X504467Y631736D01*
X504511Y631821D01*
X504558Y631905D01*
X504608Y631987D01*
X504662Y632067D01*
X504718Y632144D01*
X504778Y632220D01*
X504841Y632293D01*
X504906Y632363D01*
X504975Y632431D01*
X505046Y632495D01*
X505119Y632557D01*
X505195Y632616D01*
X505273Y632672D01*
X505354Y632725D01*
X505436Y632774D01*
X505520Y632820D01*
X505607Y632863D01*
X505694Y632902D01*
X505784Y632938D01*
X505874Y632970D01*
X505966Y632998D01*
X506059Y633023D01*
X506153Y633044D01*
X506247Y633061D01*
X506342Y633075D01*
X506438Y633084D01*
X506534Y633090D01*
X506630Y633092D01*
X506726Y633090D01*
X506822Y633084D01*
X506918Y633075D01*
X507013Y633061D01*
X507107Y633044D01*
X507201Y633023D01*
X507294Y632998D01*
X507386Y632970D01*
X507476Y632938D01*
X507566Y632902D01*
X507653Y632863D01*
X507740Y632820D01*
X507824Y632774D01*
X507906Y632725D01*
X507987Y632672D01*
X508065Y632616D01*
X508141Y632557D01*
X508214Y632495D01*
X508285Y632431D01*
X508354Y632363D01*
X508419Y632293D01*
X508482Y632220D01*
X508542Y632144D01*
X508598Y632067D01*
X508652Y631987D01*
X508702Y631905D01*
X508749Y631821D01*
X508793Y631736D01*
X508833Y631648D01*
X508869Y631559D01*
X508902Y631469D01*
X509001Y631262D01*
X509094Y631052D01*
X509182Y630839D01*
X509265Y630625D01*
X509343Y630409D01*
X509416Y630191D01*
X509484Y629971D01*
X509546Y629750D01*
X509603Y629527D01*
X509655Y629303D01*
X509701Y629078D01*
X509742Y628852D01*
X509777Y628625D01*
X509807Y628397D01*
X509832Y628168D01*
X509851Y627939D01*
X509865Y627710D01*
X509873Y627480D01*
X509876Y627250D01*
X503384Y627250D02*
X503387Y627020D01*
X503395Y626790D01*
X503409Y626561D01*
X503428Y626332D01*
X503453Y626103D01*
X503483Y625875D01*
X503518Y625648D01*
X503559Y625422D01*
X503605Y625197D01*
X503657Y624973D01*
X503714Y624750D01*
X503776Y624529D01*
X503844Y624309D01*
X503917Y624091D01*
X503995Y623875D01*
X504078Y623661D01*
X504166Y623449D01*
X504259Y623238D01*
X504358Y623031D01*
X504391Y622941D01*
X504427Y622852D01*
X504468Y622764D01*
X504511Y622679D01*
X504558Y622595D01*
X504608Y622513D01*
X504662Y622433D01*
X504718Y622356D01*
X504778Y622280D01*
X504841Y622207D01*
X504906Y622137D01*
X504975Y622069D01*
X505046Y622005D01*
X505119Y621943D01*
X505195Y621884D01*
X505273Y621828D01*
X505354Y621775D01*
X505436Y621726D01*
X505520Y621680D01*
X505607Y621637D01*
X505694Y621598D01*
X505784Y621562D01*
X505874Y621530D01*
X505966Y621502D01*
X506059Y621477D01*
X506153Y621456D01*
X506247Y621439D01*
X506342Y621425D01*
X506438Y621416D01*
X506534Y621410D01*
X506630Y621408D01*
X508902Y623031D02*
X509001Y623238D01*
X509094Y623449D01*
X509182Y623661D01*
X509265Y623875D01*
X509343Y624091D01*
X509416Y624309D01*
X509484Y624529D01*
X509546Y624750D01*
X509603Y624973D01*
X509655Y625197D01*
X509701Y625422D01*
X509742Y625648D01*
X509777Y625875D01*
X509807Y626103D01*
X509832Y626332D01*
X509851Y626561D01*
X509865Y626790D01*
X509873Y627020D01*
X509876Y627250D01*
X508902Y623031D02*
X508869Y622941D01*
X508833Y622852D01*
X508793Y622764D01*
X508749Y622679D01*
X508702Y622595D01*
X508652Y622513D01*
X508598Y622433D01*
X508542Y622356D01*
X508482Y622280D01*
X508419Y622207D01*
X508354Y622137D01*
X508285Y622069D01*
X508214Y622005D01*
X508141Y621943D01*
X508065Y621884D01*
X507987Y621828D01*
X507906Y621775D01*
X507824Y621726D01*
X507740Y621680D01*
X507653Y621637D01*
X507566Y621598D01*
X507476Y621562D01*
X507386Y621530D01*
X507294Y621502D01*
X507201Y621477D01*
X507107Y621456D01*
X507013Y621439D01*
X506918Y621425D01*
X506822Y621416D01*
X506726Y621410D01*
X506630Y621408D01*
X504033Y624004D02*
X509226Y630496D01*
X517298Y633092D02*
X517298Y621408D01*
X514052Y633092D02*
X520543Y633092D01*
X524720Y621408D02*
X527966Y621408D01*
X528079Y621410D01*
X528192Y621416D01*
X528305Y621426D01*
X528418Y621440D01*
X528530Y621457D01*
X528641Y621479D01*
X528751Y621504D01*
X528861Y621534D01*
X528969Y621567D01*
X529076Y621604D01*
X529182Y621644D01*
X529286Y621689D01*
X529389Y621737D01*
X529490Y621788D01*
X529589Y621843D01*
X529686Y621901D01*
X529781Y621963D01*
X529874Y622028D01*
X529964Y622096D01*
X530052Y622167D01*
X530138Y622242D01*
X530221Y622319D01*
X530301Y622399D01*
X530378Y622482D01*
X530453Y622568D01*
X530524Y622656D01*
X530592Y622746D01*
X530657Y622839D01*
X530719Y622934D01*
X530777Y623031D01*
X530832Y623130D01*
X530883Y623231D01*
X530931Y623334D01*
X530976Y623438D01*
X531016Y623544D01*
X531053Y623651D01*
X531086Y623759D01*
X531116Y623869D01*
X531141Y623979D01*
X531163Y624090D01*
X531180Y624202D01*
X531194Y624315D01*
X531204Y624428D01*
X531210Y624541D01*
X531212Y624654D01*
X531210Y624767D01*
X531204Y624880D01*
X531194Y624993D01*
X531180Y625106D01*
X531163Y625218D01*
X531141Y625329D01*
X531116Y625439D01*
X531086Y625549D01*
X531053Y625657D01*
X531016Y625764D01*
X530976Y625870D01*
X530931Y625974D01*
X530883Y626077D01*
X530832Y626178D01*
X530777Y626277D01*
X530719Y626374D01*
X530657Y626469D01*
X530592Y626562D01*
X530524Y626652D01*
X530453Y626740D01*
X530378Y626826D01*
X530301Y626909D01*
X530221Y626989D01*
X530138Y627066D01*
X530052Y627141D01*
X529964Y627212D01*
X529874Y627280D01*
X529781Y627345D01*
X529686Y627407D01*
X529589Y627465D01*
X529490Y627520D01*
X529389Y627571D01*
X529286Y627619D01*
X529182Y627664D01*
X529076Y627704D01*
X528969Y627741D01*
X528861Y627774D01*
X528751Y627804D01*
X528641Y627829D01*
X528530Y627851D01*
X528418Y627868D01*
X528305Y627882D01*
X528192Y627892D01*
X528079Y627898D01*
X527966Y627900D01*
X528615Y633092D02*
X524720Y633092D01*
X528615Y633092D02*
X528716Y633090D01*
X528816Y633084D01*
X528916Y633074D01*
X529016Y633061D01*
X529115Y633043D01*
X529214Y633022D01*
X529311Y632997D01*
X529408Y632968D01*
X529503Y632935D01*
X529597Y632899D01*
X529689Y632859D01*
X529780Y632816D01*
X529869Y632769D01*
X529956Y632719D01*
X530042Y632665D01*
X530125Y632608D01*
X530205Y632548D01*
X530284Y632485D01*
X530360Y632418D01*
X530433Y632349D01*
X530503Y632277D01*
X530571Y632203D01*
X530636Y632126D01*
X530697Y632046D01*
X530756Y631964D01*
X530811Y631880D01*
X530863Y631794D01*
X530912Y631706D01*
X530957Y631616D01*
X530999Y631524D01*
X531037Y631431D01*
X531071Y631336D01*
X531102Y631241D01*
X531129Y631144D01*
X531152Y631046D01*
X531172Y630947D01*
X531187Y630847D01*
X531199Y630747D01*
X531207Y630647D01*
X531211Y630546D01*
X531211Y630446D01*
X531207Y630345D01*
X531199Y630245D01*
X531187Y630145D01*
X531172Y630045D01*
X531152Y629946D01*
X531129Y629848D01*
X531102Y629751D01*
X531071Y629656D01*
X531037Y629561D01*
X530999Y629468D01*
X530957Y629376D01*
X530912Y629286D01*
X530863Y629198D01*
X530811Y629112D01*
X530756Y629028D01*
X530697Y628946D01*
X530636Y628866D01*
X530571Y628789D01*
X530503Y628715D01*
X530433Y628643D01*
X530360Y628574D01*
X530284Y628507D01*
X530205Y628444D01*
X530125Y628384D01*
X530042Y628327D01*
X529956Y628273D01*
X529869Y628223D01*
X529780Y628176D01*
X529689Y628133D01*
X529597Y628093D01*
X529503Y628057D01*
X529408Y628024D01*
X529311Y627995D01*
X529214Y627970D01*
X529115Y627949D01*
X529016Y627931D01*
X528916Y627918D01*
X528816Y627908D01*
X528716Y627902D01*
X528615Y627900D01*
X528615Y627899D02*
X526018Y627899D01*
X536151Y627250D02*
X536154Y627480D01*
X536162Y627710D01*
X536176Y627939D01*
X536195Y628168D01*
X536220Y628397D01*
X536250Y628624D01*
X536285Y628852D01*
X536326Y629078D01*
X536372Y629303D01*
X536424Y629527D01*
X536481Y629749D01*
X536543Y629971D01*
X536611Y630190D01*
X536684Y630408D01*
X536762Y630625D01*
X536845Y630839D01*
X536933Y631051D01*
X537026Y631261D01*
X537125Y631469D01*
X537124Y631469D02*
X537157Y631559D01*
X537193Y631648D01*
X537233Y631736D01*
X537277Y631821D01*
X537324Y631905D01*
X537374Y631987D01*
X537428Y632067D01*
X537484Y632144D01*
X537544Y632220D01*
X537607Y632293D01*
X537672Y632363D01*
X537741Y632431D01*
X537812Y632495D01*
X537885Y632557D01*
X537961Y632616D01*
X538039Y632672D01*
X538120Y632725D01*
X538202Y632774D01*
X538286Y632820D01*
X538373Y632863D01*
X538460Y632902D01*
X538550Y632938D01*
X538640Y632970D01*
X538732Y632998D01*
X538825Y633023D01*
X538919Y633044D01*
X539013Y633061D01*
X539108Y633075D01*
X539204Y633084D01*
X539300Y633090D01*
X539396Y633092D01*
X539492Y633090D01*
X539588Y633084D01*
X539684Y633075D01*
X539779Y633061D01*
X539873Y633044D01*
X539967Y633023D01*
X540060Y632998D01*
X540152Y632970D01*
X540242Y632938D01*
X540332Y632902D01*
X540419Y632863D01*
X540506Y632820D01*
X540590Y632774D01*
X540672Y632725D01*
X540753Y632672D01*
X540831Y632616D01*
X540907Y632557D01*
X540980Y632495D01*
X541051Y632431D01*
X541120Y632363D01*
X541185Y632293D01*
X541248Y632220D01*
X541308Y632144D01*
X541364Y632067D01*
X541418Y631987D01*
X541468Y631905D01*
X541515Y631821D01*
X541559Y631736D01*
X541599Y631648D01*
X541635Y631559D01*
X541668Y631469D01*
X541767Y631262D01*
X541860Y631052D01*
X541948Y630839D01*
X542031Y630625D01*
X542109Y630409D01*
X542182Y630191D01*
X542250Y629971D01*
X542312Y629750D01*
X542369Y629527D01*
X542421Y629303D01*
X542467Y629078D01*
X542508Y628852D01*
X542543Y628625D01*
X542573Y628397D01*
X542598Y628168D01*
X542617Y627939D01*
X542631Y627710D01*
X542639Y627480D01*
X542642Y627250D01*
X536150Y627250D02*
X536153Y627020D01*
X536161Y626790D01*
X536175Y626561D01*
X536194Y626332D01*
X536219Y626103D01*
X536249Y625875D01*
X536284Y625648D01*
X536325Y625422D01*
X536371Y625197D01*
X536423Y624973D01*
X536480Y624750D01*
X536542Y624529D01*
X536610Y624309D01*
X536683Y624091D01*
X536761Y623875D01*
X536844Y623661D01*
X536932Y623449D01*
X537025Y623238D01*
X537124Y623031D01*
X537157Y622941D01*
X537193Y622852D01*
X537234Y622764D01*
X537277Y622679D01*
X537324Y622595D01*
X537374Y622513D01*
X537428Y622433D01*
X537484Y622356D01*
X537544Y622280D01*
X537607Y622207D01*
X537672Y622137D01*
X537741Y622069D01*
X537812Y622005D01*
X537885Y621943D01*
X537961Y621884D01*
X538039Y621828D01*
X538120Y621775D01*
X538202Y621726D01*
X538286Y621680D01*
X538373Y621637D01*
X538460Y621598D01*
X538550Y621562D01*
X538640Y621530D01*
X538732Y621502D01*
X538825Y621477D01*
X538919Y621456D01*
X539013Y621439D01*
X539108Y621425D01*
X539204Y621416D01*
X539300Y621410D01*
X539396Y621408D01*
X541668Y623031D02*
X541767Y623238D01*
X541860Y623449D01*
X541948Y623661D01*
X542031Y623875D01*
X542109Y624091D01*
X542182Y624309D01*
X542250Y624529D01*
X542312Y624750D01*
X542369Y624973D01*
X542421Y625197D01*
X542467Y625422D01*
X542508Y625648D01*
X542543Y625875D01*
X542573Y626103D01*
X542598Y626332D01*
X542617Y626561D01*
X542631Y626790D01*
X542639Y627020D01*
X542642Y627250D01*
X541668Y623031D02*
X541635Y622941D01*
X541599Y622852D01*
X541559Y622764D01*
X541515Y622679D01*
X541468Y622595D01*
X541418Y622513D01*
X541364Y622433D01*
X541308Y622356D01*
X541248Y622280D01*
X541185Y622207D01*
X541120Y622137D01*
X541051Y622069D01*
X540980Y622005D01*
X540907Y621943D01*
X540831Y621884D01*
X540753Y621828D01*
X540672Y621775D01*
X540590Y621726D01*
X540506Y621680D01*
X540419Y621637D01*
X540332Y621598D01*
X540242Y621562D01*
X540152Y621530D01*
X540060Y621502D01*
X539967Y621477D01*
X539873Y621456D01*
X539779Y621439D01*
X539684Y621425D01*
X539588Y621416D01*
X539492Y621410D01*
X539396Y621408D01*
X536799Y624004D02*
X541992Y630496D01*
X547961Y633092D02*
X547961Y621408D01*
X547961Y633092D02*
X551207Y633092D01*
X551320Y633090D01*
X551433Y633084D01*
X551546Y633074D01*
X551659Y633060D01*
X551771Y633043D01*
X551882Y633021D01*
X551992Y632996D01*
X552102Y632966D01*
X552210Y632933D01*
X552317Y632896D01*
X552423Y632856D01*
X552527Y632811D01*
X552630Y632763D01*
X552731Y632712D01*
X552830Y632657D01*
X552927Y632599D01*
X553022Y632537D01*
X553115Y632472D01*
X553205Y632404D01*
X553293Y632333D01*
X553379Y632258D01*
X553462Y632181D01*
X553542Y632101D01*
X553619Y632018D01*
X553694Y631932D01*
X553765Y631844D01*
X553833Y631754D01*
X553898Y631661D01*
X553960Y631566D01*
X554018Y631469D01*
X554073Y631370D01*
X554124Y631269D01*
X554172Y631166D01*
X554217Y631062D01*
X554257Y630956D01*
X554294Y630849D01*
X554327Y630741D01*
X554357Y630631D01*
X554382Y630521D01*
X554404Y630410D01*
X554421Y630298D01*
X554435Y630185D01*
X554445Y630072D01*
X554451Y629959D01*
X554453Y629846D01*
X554452Y629846D02*
X554452Y624654D01*
X554453Y624654D02*
X554451Y624541D01*
X554445Y624428D01*
X554435Y624315D01*
X554421Y624202D01*
X554404Y624090D01*
X554382Y623979D01*
X554357Y623869D01*
X554327Y623759D01*
X554294Y623651D01*
X554257Y623544D01*
X554217Y623438D01*
X554172Y623334D01*
X554124Y623231D01*
X554073Y623130D01*
X554018Y623031D01*
X553960Y622934D01*
X553898Y622839D01*
X553833Y622746D01*
X553765Y622656D01*
X553694Y622568D01*
X553619Y622482D01*
X553542Y622399D01*
X553462Y622319D01*
X553379Y622242D01*
X553293Y622167D01*
X553205Y622096D01*
X553115Y622028D01*
X553022Y621963D01*
X552927Y621901D01*
X552830Y621843D01*
X552731Y621788D01*
X552630Y621737D01*
X552527Y621689D01*
X552423Y621644D01*
X552317Y621604D01*
X552210Y621567D01*
X552102Y621534D01*
X551992Y621504D01*
X551882Y621479D01*
X551771Y621457D01*
X551659Y621440D01*
X551546Y621426D01*
X551433Y621416D01*
X551320Y621410D01*
X551207Y621408D01*
X547961Y621408D01*
X565940Y627250D02*
X565943Y627517D01*
X565953Y627785D01*
X565969Y628051D01*
X565991Y628318D01*
X566020Y628584D01*
X566056Y628849D01*
X566097Y629113D01*
X566145Y629376D01*
X566199Y629638D01*
X566260Y629898D01*
X566327Y630157D01*
X566400Y630414D01*
X566479Y630670D01*
X566564Y630923D01*
X566656Y631174D01*
X566753Y631423D01*
X566856Y631670D01*
X566966Y631914D01*
X567081Y632155D01*
X567202Y632394D01*
X567328Y632629D01*
X567460Y632862D01*
X567598Y633091D01*
X567741Y633316D01*
X567890Y633539D01*
X568044Y633757D01*
X568203Y633972D01*
X568367Y634183D01*
X568536Y634390D01*
X565940Y627250D02*
X565943Y626983D01*
X565953Y626715D01*
X565969Y626449D01*
X565991Y626182D01*
X566020Y625916D01*
X566056Y625651D01*
X566097Y625387D01*
X566145Y625124D01*
X566199Y624862D01*
X566260Y624602D01*
X566327Y624343D01*
X566400Y624086D01*
X566479Y623831D01*
X566564Y623577D01*
X566656Y623326D01*
X566753Y623077D01*
X566856Y622830D01*
X566966Y622586D01*
X567081Y622345D01*
X567202Y622106D01*
X567328Y621871D01*
X567460Y621638D01*
X567598Y621409D01*
X567741Y621184D01*
X567890Y620961D01*
X568044Y620743D01*
X568203Y620528D01*
X568367Y620317D01*
X568536Y620110D01*
X573511Y621408D02*
X573511Y633092D01*
X573511Y621408D02*
X578704Y621408D01*
X582900Y624004D02*
X582900Y626601D01*
X582901Y626601D02*
X582903Y626702D01*
X582909Y626802D01*
X582919Y626902D01*
X582932Y627002D01*
X582950Y627101D01*
X582971Y627200D01*
X582996Y627297D01*
X583025Y627394D01*
X583058Y627489D01*
X583094Y627583D01*
X583134Y627675D01*
X583177Y627766D01*
X583224Y627855D01*
X583274Y627942D01*
X583328Y628028D01*
X583385Y628111D01*
X583445Y628191D01*
X583508Y628270D01*
X583575Y628346D01*
X583644Y628419D01*
X583716Y628489D01*
X583790Y628557D01*
X583867Y628622D01*
X583947Y628683D01*
X584029Y628742D01*
X584113Y628797D01*
X584199Y628849D01*
X584287Y628898D01*
X584377Y628943D01*
X584469Y628985D01*
X584562Y629023D01*
X584657Y629057D01*
X584752Y629088D01*
X584849Y629115D01*
X584947Y629138D01*
X585046Y629158D01*
X585146Y629173D01*
X585246Y629185D01*
X585346Y629193D01*
X585447Y629197D01*
X585547Y629197D01*
X585648Y629193D01*
X585748Y629185D01*
X585848Y629173D01*
X585948Y629158D01*
X586047Y629138D01*
X586145Y629115D01*
X586242Y629088D01*
X586337Y629057D01*
X586432Y629023D01*
X586525Y628985D01*
X586617Y628943D01*
X586707Y628898D01*
X586795Y628849D01*
X586881Y628797D01*
X586965Y628742D01*
X587047Y628683D01*
X587127Y628622D01*
X587204Y628557D01*
X587278Y628489D01*
X587350Y628419D01*
X587419Y628346D01*
X587486Y628270D01*
X587549Y628191D01*
X587609Y628111D01*
X587666Y628028D01*
X587720Y627942D01*
X587770Y627855D01*
X587817Y627766D01*
X587860Y627675D01*
X587900Y627583D01*
X587936Y627489D01*
X587969Y627394D01*
X587998Y627297D01*
X588023Y627200D01*
X588044Y627101D01*
X588062Y627002D01*
X588075Y626902D01*
X588085Y626802D01*
X588091Y626702D01*
X588093Y626601D01*
X588093Y624004D01*
X588091Y623903D01*
X588085Y623803D01*
X588075Y623703D01*
X588062Y623603D01*
X588044Y623504D01*
X588023Y623405D01*
X587998Y623308D01*
X587969Y623211D01*
X587936Y623116D01*
X587900Y623022D01*
X587860Y622930D01*
X587817Y622839D01*
X587770Y622750D01*
X587720Y622663D01*
X587666Y622577D01*
X587609Y622494D01*
X587549Y622414D01*
X587486Y622335D01*
X587419Y622259D01*
X587350Y622186D01*
X587278Y622116D01*
X587204Y622048D01*
X587127Y621983D01*
X587047Y621922D01*
X586965Y621863D01*
X586881Y621808D01*
X586795Y621756D01*
X586707Y621707D01*
X586617Y621662D01*
X586525Y621620D01*
X586432Y621582D01*
X586337Y621548D01*
X586242Y621517D01*
X586145Y621490D01*
X586047Y621467D01*
X585948Y621447D01*
X585848Y621432D01*
X585748Y621420D01*
X585648Y621412D01*
X585547Y621408D01*
X585447Y621408D01*
X585346Y621412D01*
X585246Y621420D01*
X585146Y621432D01*
X585046Y621447D01*
X584947Y621467D01*
X584849Y621490D01*
X584752Y621517D01*
X584657Y621548D01*
X584562Y621582D01*
X584469Y621620D01*
X584377Y621662D01*
X584287Y621707D01*
X584199Y621756D01*
X584113Y621808D01*
X584029Y621863D01*
X583947Y621922D01*
X583867Y621983D01*
X583790Y622048D01*
X583716Y622116D01*
X583644Y622186D01*
X583575Y622259D01*
X583508Y622335D01*
X583445Y622414D01*
X583385Y622494D01*
X583328Y622577D01*
X583274Y622663D01*
X583224Y622750D01*
X583177Y622839D01*
X583134Y622930D01*
X583094Y623022D01*
X583058Y623116D01*
X583025Y623211D01*
X582996Y623308D01*
X582971Y623405D01*
X582950Y623504D01*
X582932Y623603D01*
X582919Y623703D01*
X582909Y623803D01*
X582903Y623903D01*
X582901Y624004D01*
X593374Y621408D02*
X593374Y633092D01*
X596619Y633092D01*
X596732Y633090D01*
X596845Y633084D01*
X596958Y633074D01*
X597071Y633060D01*
X597183Y633043D01*
X597294Y633021D01*
X597404Y632996D01*
X597514Y632966D01*
X597622Y632933D01*
X597729Y632896D01*
X597835Y632856D01*
X597939Y632811D01*
X598042Y632763D01*
X598143Y632712D01*
X598242Y632657D01*
X598339Y632599D01*
X598434Y632537D01*
X598527Y632472D01*
X598617Y632404D01*
X598705Y632333D01*
X598791Y632258D01*
X598874Y632181D01*
X598954Y632101D01*
X599031Y632018D01*
X599106Y631932D01*
X599177Y631844D01*
X599245Y631754D01*
X599310Y631661D01*
X599372Y631566D01*
X599430Y631469D01*
X599485Y631370D01*
X599536Y631269D01*
X599584Y631166D01*
X599629Y631062D01*
X599669Y630956D01*
X599706Y630849D01*
X599739Y630741D01*
X599769Y630631D01*
X599794Y630521D01*
X599816Y630410D01*
X599833Y630298D01*
X599847Y630185D01*
X599857Y630072D01*
X599863Y629959D01*
X599865Y629846D01*
X599863Y629733D01*
X599857Y629620D01*
X599847Y629507D01*
X599833Y629394D01*
X599816Y629282D01*
X599794Y629171D01*
X599769Y629061D01*
X599739Y628951D01*
X599706Y628843D01*
X599669Y628736D01*
X599629Y628630D01*
X599584Y628526D01*
X599536Y628423D01*
X599485Y628322D01*
X599430Y628223D01*
X599372Y628126D01*
X599310Y628031D01*
X599245Y627938D01*
X599177Y627848D01*
X599106Y627760D01*
X599031Y627674D01*
X598954Y627591D01*
X598874Y627511D01*
X598791Y627434D01*
X598705Y627359D01*
X598617Y627288D01*
X598527Y627220D01*
X598434Y627155D01*
X598339Y627093D01*
X598242Y627035D01*
X598143Y626980D01*
X598042Y626929D01*
X597939Y626881D01*
X597835Y626836D01*
X597729Y626796D01*
X597622Y626759D01*
X597514Y626726D01*
X597404Y626696D01*
X597294Y626671D01*
X597183Y626649D01*
X597071Y626632D01*
X596958Y626618D01*
X596845Y626608D01*
X596732Y626602D01*
X596619Y626600D01*
X596619Y626601D02*
X593374Y626601D01*
X597268Y626601D02*
X599865Y621408D01*
X606830Y625952D02*
X609751Y625952D01*
X606830Y625952D02*
X606736Y625950D01*
X606642Y625944D01*
X606549Y625935D01*
X606456Y625921D01*
X606364Y625904D01*
X606272Y625882D01*
X606182Y625858D01*
X606092Y625829D01*
X606004Y625797D01*
X605917Y625761D01*
X605832Y625721D01*
X605749Y625678D01*
X605667Y625632D01*
X605587Y625582D01*
X605510Y625529D01*
X605435Y625473D01*
X605362Y625414D01*
X605291Y625352D01*
X605223Y625287D01*
X605158Y625219D01*
X605096Y625148D01*
X605037Y625075D01*
X604981Y625000D01*
X604928Y624923D01*
X604878Y624843D01*
X604832Y624761D01*
X604789Y624678D01*
X604749Y624593D01*
X604713Y624506D01*
X604681Y624418D01*
X604652Y624328D01*
X604628Y624238D01*
X604606Y624146D01*
X604589Y624054D01*
X604575Y623961D01*
X604566Y623868D01*
X604560Y623774D01*
X604558Y623680D01*
X604560Y623586D01*
X604566Y623492D01*
X604575Y623399D01*
X604589Y623306D01*
X604606Y623214D01*
X604628Y623122D01*
X604652Y623032D01*
X604681Y622942D01*
X604713Y622854D01*
X604749Y622767D01*
X604789Y622682D01*
X604832Y622599D01*
X604878Y622517D01*
X604928Y622437D01*
X604981Y622360D01*
X605037Y622285D01*
X605096Y622212D01*
X605158Y622141D01*
X605223Y622073D01*
X605291Y622008D01*
X605362Y621946D01*
X605435Y621887D01*
X605510Y621831D01*
X605587Y621778D01*
X605667Y621728D01*
X605749Y621682D01*
X605832Y621639D01*
X605917Y621599D01*
X606004Y621563D01*
X606092Y621531D01*
X606182Y621502D01*
X606272Y621478D01*
X606364Y621456D01*
X606456Y621439D01*
X606549Y621425D01*
X606642Y621416D01*
X606736Y621410D01*
X606830Y621408D01*
X609751Y621408D01*
X609751Y627250D01*
X609749Y627337D01*
X609743Y627425D01*
X609733Y627511D01*
X609720Y627598D01*
X609702Y627683D01*
X609681Y627768D01*
X609656Y627852D01*
X609627Y627934D01*
X609594Y628015D01*
X609558Y628095D01*
X609519Y628173D01*
X609475Y628249D01*
X609429Y628323D01*
X609379Y628394D01*
X609326Y628464D01*
X609270Y628531D01*
X609211Y628595D01*
X609149Y628657D01*
X609085Y628716D01*
X609018Y628772D01*
X608948Y628825D01*
X608877Y628875D01*
X608803Y628921D01*
X608727Y628965D01*
X608649Y629004D01*
X608569Y629040D01*
X608488Y629073D01*
X608406Y629102D01*
X608322Y629127D01*
X608237Y629148D01*
X608152Y629166D01*
X608065Y629179D01*
X607979Y629189D01*
X607891Y629195D01*
X607804Y629197D01*
X605207Y629197D01*
X617245Y627250D02*
X617242Y626983D01*
X617232Y626715D01*
X617216Y626449D01*
X617194Y626182D01*
X617165Y625916D01*
X617129Y625651D01*
X617088Y625387D01*
X617040Y625124D01*
X616986Y624862D01*
X616925Y624602D01*
X616858Y624343D01*
X616785Y624086D01*
X616706Y623831D01*
X616621Y623577D01*
X616529Y623326D01*
X616432Y623077D01*
X616329Y622830D01*
X616219Y622586D01*
X616104Y622345D01*
X615983Y622106D01*
X615857Y621871D01*
X615725Y621638D01*
X615587Y621409D01*
X615444Y621184D01*
X615295Y620961D01*
X615141Y620743D01*
X614982Y620528D01*
X614818Y620317D01*
X614649Y620110D01*
X617245Y627250D02*
X617242Y627517D01*
X617232Y627785D01*
X617216Y628051D01*
X617194Y628318D01*
X617165Y628584D01*
X617129Y628849D01*
X617088Y629113D01*
X617040Y629376D01*
X616986Y629638D01*
X616925Y629898D01*
X616858Y630157D01*
X616785Y630414D01*
X616706Y630670D01*
X616621Y630923D01*
X616529Y631174D01*
X616432Y631423D01*
X616329Y631670D01*
X616219Y631914D01*
X616104Y632155D01*
X615983Y632394D01*
X615857Y632629D01*
X615725Y632862D01*
X615587Y633091D01*
X615444Y633316D01*
X615295Y633539D01*
X615141Y633757D01*
X614982Y633972D01*
X614818Y634183D01*
X614649Y634390D01*
M02*
