G04 EAGLE Gerber RS-274X export*
G75*
%MOMM*%
%FSLAX34Y34*%
%LPD*%
%INSoldermask Bottom*%
%IPPOS*%
%AMOC8*
5,1,8,0,0,1.08239X$1,22.5*%
G01*
%ADD10C,4.203200*%
%ADD11P,2.309387X8X22.500000*%
%ADD12P,2.309387X8X112.200000*%
%ADD13P,2.309387X8X291.900000*%
%ADD14R,2.170800X2.170800*%
%ADD15R,1.920800X1.920800*%
%ADD16C,2.336800*%
%ADD17C,2.320800*%


D10*
X162500Y796500D03*
X162500Y-6000D03*
X741500Y796500D03*
X741000Y-6000D03*
D11*
X196800Y485000D03*
X222200Y485000D03*
X197800Y392000D03*
X223200Y392000D03*
D12*
X205234Y558201D03*
X205766Y659799D03*
D13*
X210032Y318797D03*
X208968Y217203D03*
D14*
X317700Y200D03*
X317700Y25600D03*
X317700Y51000D03*
X317700Y76400D03*
X317700Y101800D03*
X317700Y127200D03*
X317700Y152600D03*
X317700Y178000D03*
X317700Y203400D03*
X317700Y228800D03*
X317700Y254200D03*
X317700Y279600D03*
X317700Y305000D03*
X317700Y330400D03*
X317700Y355800D03*
X317700Y381200D03*
X317700Y406600D03*
X317700Y432000D03*
X317700Y457400D03*
X546300Y200D03*
X546300Y25600D03*
X546300Y51000D03*
X546300Y76400D03*
X546300Y101800D03*
X546300Y127200D03*
X546300Y152600D03*
X546300Y178000D03*
X546300Y203400D03*
X546300Y228800D03*
D15*
X546300Y254200D03*
D14*
X546300Y279600D03*
X546300Y305000D03*
X546300Y330400D03*
X546300Y355800D03*
X546300Y381200D03*
X546300Y406600D03*
X546300Y432000D03*
X546300Y457400D03*
D16*
X332338Y613280D02*
X311002Y613280D01*
X311002Y638680D02*
X332338Y638680D01*
X332338Y664080D02*
X311002Y664080D01*
X311002Y689480D02*
X332338Y689480D01*
X332338Y587880D02*
X311002Y587880D01*
X311002Y562480D02*
X332338Y562480D01*
X332338Y537080D02*
X311002Y537080D01*
D17*
X523000Y249000D03*
X522500Y305768D03*
M02*
