M48
;GenerationSoftware,Autodesk,EAGLE,9.6.2*%
;CreationDate,2026-08-14T14:21:03Z*%
FMAT,2
ICI,OFF
METRIC,TZ,000.000
T4C0.813
T3C1.000
T2C1.016
T1C4.000
%
G90
M71
T1
X16250Y79650
X16250Y-600
X74150Y79650
X74100Y-600
T2
X32167Y53708
X62067Y56248
X62067Y58788
X32167Y66408
X62067Y68948
X62067Y66408
X62067Y63868
X62067Y61328
X32167Y61328
X32167Y63868
X62067Y53708
X32167Y68948
X32167Y58788
X32167Y56248
T3
X37720Y39290
X62490Y3730
X62490Y6270
X62490Y8810
X62490Y11350
X62490Y13890
X62490Y16430
X62490Y18970
X62490Y21510
X62490Y24050
X62490Y26590
X62490Y29130
X62490Y31670
X62490Y34210
X62490Y36750
X62490Y39290
X37720Y3730
X37720Y6270
X37720Y8810
X37720Y11350
X37720Y13890
X37720Y16430
X37720Y18970
X37720Y24050
X37720Y26590
X37720Y29130
X37720Y31670
X37720Y34210
X37720Y36750
X37720Y21510
T4
X19680Y48500
X20897Y21720
X21003Y31880
X19727Y66230
X19673Y56070
X19780Y39200
X22220Y48500
X22320Y39200
M30