M48
;GenerationSoftware,Autodesk,EAGLE,9.6.2*%
;CreationDate,2026-07-21T15:22:49Z*%
FMAT,2
ICI,OFF
METRIC,TZ,000.000
T6C0.600
T5C0.813
T4C0.850
T3C1.000
T2C1.016
T1C4.000
%
G90
M71
T1
X16250Y79650
X16250Y-600
X74150Y79650
X74100Y-600
T2
X32167Y61328
X32167Y53708
X32167Y56248
X32167Y58788
X32167Y68948
X32167Y66408
X32167Y63868
T3
X52300Y24900
X52250Y30577
T4
X54630Y45740
X31770Y20
X31770Y2560
X31770Y5100
X31770Y7640
X31770Y10180
X31770Y12720
X31770Y15260
X31770Y17800
X31770Y20340
X31770Y22880
X31770Y25420
X31770Y27960
X31770Y30500
X31770Y33040
X31770Y35580
X31770Y38120
X31770Y40660
X31770Y43200
X31770Y45740
X54630Y20
X54630Y2560
X54630Y5100
X54630Y7640
X54630Y10180
X54630Y12720
X54630Y15260
X54630Y17800
X54630Y20340
X54630Y22880
X54630Y30500
X54630Y33040
X54630Y35580
X54630Y38120
X54630Y40660
X54630Y43200
X54630Y27960
T5
X19680Y48500
X20897Y21720
X21003Y31880
X20577Y65980
X20523Y55820
X22320Y39200
X19780Y39200
X22220Y48500
T6
X54630Y25420
M30