%TF.GenerationSoftware,KiCad,Pcbnew,10.0.3*%
%TF.CreationDate,2026-08-04T10:32:13-03:00*%
%TF.ProjectId,Esquema,45737175-656d-4612-9e6b-696361645f70,rev?*%
%TF.SameCoordinates,Original*%
%TF.FileFunction,Legend,Top*%
%TF.FilePolarity,Positive*%
%FSLAX46Y46*%
G04 Gerber Fmt 4.6, Leading zero omitted, Abs format (unit mm)*
G04 Created by KiCad (PCBNEW 10.0.3) date 2026-08-04 10:32:13*
%MOMM*%
%LPD*%
G01*
G04 APERTURE LIST*
%ADD10C,0.142240*%
%ADD11C,0.100000*%
%ADD12C,0.101600*%
%ADD13C,0.114300*%
%ADD14C,0.065024*%
%ADD15C,0.048768*%
%ADD16C,0.160020*%
%ADD17C,0.099060*%
%ADD18C,0.093472*%
%ADD19C,0.081280*%
%ADD20C,0.154432*%
%ADD21C,0.127000*%
%ADD22C,0.152400*%
%ADD23C,0.203200*%
%ADD24C,0.254000*%
%ADD25C,0.000000*%
%ADD26C,0.050800*%
G04 APERTURE END LIST*
D10*
X68335577Y-111155680D02*
X68335577Y-110065173D01*
X68335577Y-110065173D02*
X69971337Y-110766213D01*
X69971337Y-109364133D02*
X69971337Y-109052559D01*
X69971337Y-109052559D02*
X69893444Y-108896773D01*
X69893444Y-108896773D02*
X69815550Y-108818879D01*
X69815550Y-108818879D02*
X69581870Y-108663093D01*
X69581870Y-108663093D02*
X69270297Y-108585199D01*
X69270297Y-108585199D02*
X68647150Y-108585199D01*
X68647150Y-108585199D02*
X68491364Y-108663093D01*
X68491364Y-108663093D02*
X68413470Y-108740986D01*
X68413470Y-108740986D02*
X68335577Y-108896773D01*
X68335577Y-108896773D02*
X68335577Y-109208346D01*
X68335577Y-109208346D02*
X68413470Y-109364133D01*
X68413470Y-109364133D02*
X68491364Y-109442026D01*
X68491364Y-109442026D02*
X68647150Y-109519919D01*
X68647150Y-109519919D02*
X69036617Y-109519919D01*
X69036617Y-109519919D02*
X69192404Y-109442026D01*
X69192404Y-109442026D02*
X69270297Y-109364133D01*
X69270297Y-109364133D02*
X69348190Y-109208346D01*
X69348190Y-109208346D02*
X69348190Y-108896773D01*
X69348190Y-108896773D02*
X69270297Y-108740986D01*
X69270297Y-108740986D02*
X69192404Y-108663093D01*
X69192404Y-108663093D02*
X69036617Y-108585199D01*
X69893444Y-107806266D02*
X69971337Y-107806266D01*
X69971337Y-107806266D02*
X70127124Y-107884159D01*
X70127124Y-107884159D02*
X70205017Y-107962052D01*
X69036617Y-106871546D02*
X68958724Y-107027333D01*
X68958724Y-107027333D02*
X68880830Y-107105226D01*
X68880830Y-107105226D02*
X68725044Y-107183119D01*
X68725044Y-107183119D02*
X68647150Y-107183119D01*
X68647150Y-107183119D02*
X68491364Y-107105226D01*
X68491364Y-107105226D02*
X68413470Y-107027333D01*
X68413470Y-107027333D02*
X68335577Y-106871546D01*
X68335577Y-106871546D02*
X68335577Y-106559973D01*
X68335577Y-106559973D02*
X68413470Y-106404186D01*
X68413470Y-106404186D02*
X68491364Y-106326293D01*
X68491364Y-106326293D02*
X68647150Y-106248399D01*
X68647150Y-106248399D02*
X68725044Y-106248399D01*
X68725044Y-106248399D02*
X68880830Y-106326293D01*
X68880830Y-106326293D02*
X68958724Y-106404186D01*
X68958724Y-106404186D02*
X69036617Y-106559973D01*
X69036617Y-106559973D02*
X69036617Y-106871546D01*
X69036617Y-106871546D02*
X69114510Y-107027333D01*
X69114510Y-107027333D02*
X69192404Y-107105226D01*
X69192404Y-107105226D02*
X69348190Y-107183119D01*
X69348190Y-107183119D02*
X69659764Y-107183119D01*
X69659764Y-107183119D02*
X69815550Y-107105226D01*
X69815550Y-107105226D02*
X69893444Y-107027333D01*
X69893444Y-107027333D02*
X69971337Y-106871546D01*
X69971337Y-106871546D02*
X69971337Y-106559973D01*
X69971337Y-106559973D02*
X69893444Y-106404186D01*
X69893444Y-106404186D02*
X69815550Y-106326293D01*
X69815550Y-106326293D02*
X69659764Y-106248399D01*
X69659764Y-106248399D02*
X69348190Y-106248399D01*
X69348190Y-106248399D02*
X69192404Y-106326293D01*
X69192404Y-106326293D02*
X69114510Y-106404186D01*
X69114510Y-106404186D02*
X69036617Y-106559973D01*
X68880830Y-104846319D02*
X69971337Y-104846319D01*
X68257684Y-105235786D02*
X69426084Y-105625252D01*
X69426084Y-105625252D02*
X69426084Y-104612639D01*
X69971337Y-102743199D02*
X68880830Y-102743199D01*
X69036617Y-102743199D02*
X68958724Y-102665306D01*
X68958724Y-102665306D02*
X68880830Y-102509519D01*
X68880830Y-102509519D02*
X68880830Y-102275839D01*
X68880830Y-102275839D02*
X68958724Y-102120052D01*
X68958724Y-102120052D02*
X69114510Y-102042159D01*
X69114510Y-102042159D02*
X69971337Y-102042159D01*
X69114510Y-102042159D02*
X68958724Y-101964266D01*
X68958724Y-101964266D02*
X68880830Y-101808479D01*
X68880830Y-101808479D02*
X68880830Y-101574799D01*
X68880830Y-101574799D02*
X68958724Y-101419012D01*
X68958724Y-101419012D02*
X69114510Y-101341119D01*
X69114510Y-101341119D02*
X69971337Y-101341119D01*
X69971337Y-100562186D02*
X68880830Y-100562186D01*
X69036617Y-100562186D02*
X68958724Y-100484293D01*
X68958724Y-100484293D02*
X68880830Y-100328506D01*
X68880830Y-100328506D02*
X68880830Y-100094826D01*
X68880830Y-100094826D02*
X68958724Y-99939039D01*
X68958724Y-99939039D02*
X69114510Y-99861146D01*
X69114510Y-99861146D02*
X69971337Y-99861146D01*
X69114510Y-99861146D02*
X68958724Y-99783253D01*
X68958724Y-99783253D02*
X68880830Y-99627466D01*
X68880830Y-99627466D02*
X68880830Y-99393786D01*
X68880830Y-99393786D02*
X68958724Y-99237999D01*
X68958724Y-99237999D02*
X69114510Y-99160106D01*
X69114510Y-99160106D02*
X69971337Y-99160106D01*
D11*
X85430600Y-65160000D02*
X70413580Y-65160000D01*
X85430600Y-145000000D02*
X70413580Y-145000000D01*
X71000000Y-65160000D02*
X71000000Y-145000000D01*
X71000000Y-65160000D02*
X71586421Y-66286504D01*
X71000000Y-65160000D02*
X70413579Y-66286504D01*
X71000000Y-145000000D02*
X70413579Y-143873496D01*
X71000000Y-145000000D02*
X71586421Y-143873496D01*
D10*
X143671714Y-144037177D02*
X143827500Y-144037177D01*
X143827500Y-144037177D02*
X143983287Y-144115070D01*
X143983287Y-144115070D02*
X144061180Y-144192964D01*
X144061180Y-144192964D02*
X144139074Y-144348750D01*
X144139074Y-144348750D02*
X144216967Y-144660324D01*
X144216967Y-144660324D02*
X144216967Y-145049790D01*
X144216967Y-145049790D02*
X144139074Y-145361364D01*
X144139074Y-145361364D02*
X144061180Y-145517150D01*
X144061180Y-145517150D02*
X143983287Y-145595044D01*
X143983287Y-145595044D02*
X143827500Y-145672937D01*
X143827500Y-145672937D02*
X143671714Y-145672937D01*
X143671714Y-145672937D02*
X143515927Y-145595044D01*
X143515927Y-145595044D02*
X143438034Y-145517150D01*
X143438034Y-145517150D02*
X143360140Y-145361364D01*
X143360140Y-145361364D02*
X143282247Y-145049790D01*
X143282247Y-145049790D02*
X143282247Y-144660324D01*
X143282247Y-144660324D02*
X143360140Y-144348750D01*
X143360140Y-144348750D02*
X143438034Y-144192964D01*
X143438034Y-144192964D02*
X143515927Y-144115070D01*
X143515927Y-144115070D02*
X143671714Y-144037177D01*
X144995901Y-145595044D02*
X144995901Y-145672937D01*
X144995901Y-145672937D02*
X144918007Y-145828724D01*
X144918007Y-145828724D02*
X144840114Y-145906617D01*
X146008514Y-144037177D02*
X146164300Y-144037177D01*
X146164300Y-144037177D02*
X146320087Y-144115070D01*
X146320087Y-144115070D02*
X146397980Y-144192964D01*
X146397980Y-144192964D02*
X146475874Y-144348750D01*
X146475874Y-144348750D02*
X146553767Y-144660324D01*
X146553767Y-144660324D02*
X146553767Y-145049790D01*
X146553767Y-145049790D02*
X146475874Y-145361364D01*
X146475874Y-145361364D02*
X146397980Y-145517150D01*
X146397980Y-145517150D02*
X146320087Y-145595044D01*
X146320087Y-145595044D02*
X146164300Y-145672937D01*
X146164300Y-145672937D02*
X146008514Y-145672937D01*
X146008514Y-145672937D02*
X145852727Y-145595044D01*
X145852727Y-145595044D02*
X145774834Y-145517150D01*
X145774834Y-145517150D02*
X145696940Y-145361364D01*
X145696940Y-145361364D02*
X145619047Y-145049790D01*
X145619047Y-145049790D02*
X145619047Y-144660324D01*
X145619047Y-144660324D02*
X145696940Y-144348750D01*
X145696940Y-144348750D02*
X145774834Y-144192964D01*
X145774834Y-144192964D02*
X145852727Y-144115070D01*
X145852727Y-144115070D02*
X146008514Y-144037177D01*
X147566381Y-144037177D02*
X147722167Y-144037177D01*
X147722167Y-144037177D02*
X147877954Y-144115070D01*
X147877954Y-144115070D02*
X147955847Y-144192964D01*
X147955847Y-144192964D02*
X148033741Y-144348750D01*
X148033741Y-144348750D02*
X148111634Y-144660324D01*
X148111634Y-144660324D02*
X148111634Y-145049790D01*
X148111634Y-145049790D02*
X148033741Y-145361364D01*
X148033741Y-145361364D02*
X147955847Y-145517150D01*
X147955847Y-145517150D02*
X147877954Y-145595044D01*
X147877954Y-145595044D02*
X147722167Y-145672937D01*
X147722167Y-145672937D02*
X147566381Y-145672937D01*
X147566381Y-145672937D02*
X147410594Y-145595044D01*
X147410594Y-145595044D02*
X147332701Y-145517150D01*
X147332701Y-145517150D02*
X147254807Y-145361364D01*
X147254807Y-145361364D02*
X147176914Y-145049790D01*
X147176914Y-145049790D02*
X147176914Y-144660324D01*
X147176914Y-144660324D02*
X147254807Y-144348750D01*
X147254807Y-144348750D02*
X147332701Y-144192964D01*
X147332701Y-144192964D02*
X147410594Y-144115070D01*
X147410594Y-144115070D02*
X147566381Y-144037177D01*
X150058967Y-145672937D02*
X150058967Y-144582430D01*
X150058967Y-144738217D02*
X150136861Y-144660324D01*
X150136861Y-144660324D02*
X150292647Y-144582430D01*
X150292647Y-144582430D02*
X150526327Y-144582430D01*
X150526327Y-144582430D02*
X150682114Y-144660324D01*
X150682114Y-144660324D02*
X150760007Y-144816110D01*
X150760007Y-144816110D02*
X150760007Y-145672937D01*
X150760007Y-144816110D02*
X150837901Y-144660324D01*
X150837901Y-144660324D02*
X150993687Y-144582430D01*
X150993687Y-144582430D02*
X151227367Y-144582430D01*
X151227367Y-144582430D02*
X151383154Y-144660324D01*
X151383154Y-144660324D02*
X151461047Y-144816110D01*
X151461047Y-144816110D02*
X151461047Y-145672937D01*
X152239980Y-145672937D02*
X152239980Y-144582430D01*
X152239980Y-144738217D02*
X152317874Y-144660324D01*
X152317874Y-144660324D02*
X152473660Y-144582430D01*
X152473660Y-144582430D02*
X152707340Y-144582430D01*
X152707340Y-144582430D02*
X152863127Y-144660324D01*
X152863127Y-144660324D02*
X152941020Y-144816110D01*
X152941020Y-144816110D02*
X152941020Y-145672937D01*
X152941020Y-144816110D02*
X153018914Y-144660324D01*
X153018914Y-144660324D02*
X153174700Y-144582430D01*
X153174700Y-144582430D02*
X153408380Y-144582430D01*
X153408380Y-144582430D02*
X153564167Y-144660324D01*
X153564167Y-144660324D02*
X153642060Y-144816110D01*
X153642060Y-144816110D02*
X153642060Y-145672937D01*
D11*
X148501100Y-144923600D02*
X148501100Y-144923600D01*
X148501100Y-144923600D02*
X148501100Y-144923600D01*
X148501100Y-144923600D02*
X149627604Y-144337179D01*
X148501100Y-144923600D02*
X149627604Y-145510021D01*
X148501100Y-144923600D02*
X147374596Y-145510021D01*
X148501100Y-144923600D02*
X147374596Y-144337179D01*
D12*
X202585567Y-84563892D02*
X202196100Y-84563892D01*
X202029186Y-83951873D02*
X202585567Y-83951873D01*
X202585567Y-83951873D02*
X202585567Y-85120273D01*
X202585567Y-85120273D02*
X202029186Y-85120273D01*
X201584081Y-85008997D02*
X201528443Y-85064635D01*
X201528443Y-85064635D02*
X201417167Y-85120273D01*
X201417167Y-85120273D02*
X201138976Y-85120273D01*
X201138976Y-85120273D02*
X201027700Y-85064635D01*
X201027700Y-85064635D02*
X200972062Y-85008997D01*
X200972062Y-85008997D02*
X200916424Y-84897721D01*
X200916424Y-84897721D02*
X200916424Y-84786445D01*
X200916424Y-84786445D02*
X200972062Y-84619531D01*
X200972062Y-84619531D02*
X201639719Y-83951873D01*
X201639719Y-83951873D02*
X200916424Y-83951873D01*
X200471319Y-85008997D02*
X200415681Y-85064635D01*
X200415681Y-85064635D02*
X200304405Y-85120273D01*
X200304405Y-85120273D02*
X200026214Y-85120273D01*
X200026214Y-85120273D02*
X199914938Y-85064635D01*
X199914938Y-85064635D02*
X199859300Y-85008997D01*
X199859300Y-85008997D02*
X199803662Y-84897721D01*
X199803662Y-84897721D02*
X199803662Y-84786445D01*
X199803662Y-84786445D02*
X199859300Y-84619531D01*
X199859300Y-84619531D02*
X200526957Y-83951873D01*
X200526957Y-83951873D02*
X199803662Y-83951873D01*
X199302919Y-84396978D02*
X198412710Y-84396978D01*
X197355586Y-84730807D02*
X197355586Y-83951873D01*
X197633777Y-85175912D02*
X197911967Y-84341340D01*
X197911967Y-84341340D02*
X197188672Y-84341340D01*
X196521015Y-85120273D02*
X196409738Y-85120273D01*
X196409738Y-85120273D02*
X196298462Y-85064635D01*
X196298462Y-85064635D02*
X196242824Y-85008997D01*
X196242824Y-85008997D02*
X196187186Y-84897721D01*
X196187186Y-84897721D02*
X196131548Y-84675169D01*
X196131548Y-84675169D02*
X196131548Y-84396978D01*
X196131548Y-84396978D02*
X196187186Y-84174426D01*
X196187186Y-84174426D02*
X196242824Y-84063150D01*
X196242824Y-84063150D02*
X196298462Y-84007512D01*
X196298462Y-84007512D02*
X196409738Y-83951873D01*
X196409738Y-83951873D02*
X196521015Y-83951873D01*
X196521015Y-83951873D02*
X196632291Y-84007512D01*
X196632291Y-84007512D02*
X196687929Y-84063150D01*
X196687929Y-84063150D02*
X196743567Y-84174426D01*
X196743567Y-84174426D02*
X196799205Y-84396978D01*
X196799205Y-84396978D02*
X196799205Y-84675169D01*
X196799205Y-84675169D02*
X196743567Y-84897721D01*
X196743567Y-84897721D02*
X196687929Y-85008997D01*
X196687929Y-85008997D02*
X196632291Y-85064635D01*
X196632291Y-85064635D02*
X196521015Y-85120273D01*
X195408253Y-85120273D02*
X195296976Y-85120273D01*
X195296976Y-85120273D02*
X195185700Y-85064635D01*
X195185700Y-85064635D02*
X195130062Y-85008997D01*
X195130062Y-85008997D02*
X195074424Y-84897721D01*
X195074424Y-84897721D02*
X195018786Y-84675169D01*
X195018786Y-84675169D02*
X195018786Y-84396978D01*
X195018786Y-84396978D02*
X195074424Y-84174426D01*
X195074424Y-84174426D02*
X195130062Y-84063150D01*
X195130062Y-84063150D02*
X195185700Y-84007512D01*
X195185700Y-84007512D02*
X195296976Y-83951873D01*
X195296976Y-83951873D02*
X195408253Y-83951873D01*
X195408253Y-83951873D02*
X195519529Y-84007512D01*
X195519529Y-84007512D02*
X195575167Y-84063150D01*
X195575167Y-84063150D02*
X195630805Y-84174426D01*
X195630805Y-84174426D02*
X195686443Y-84396978D01*
X195686443Y-84396978D02*
X195686443Y-84675169D01*
X195686443Y-84675169D02*
X195630805Y-84897721D01*
X195630805Y-84897721D02*
X195575167Y-85008997D01*
X195575167Y-85008997D02*
X195519529Y-85064635D01*
X195519529Y-85064635D02*
X195408253Y-85120273D01*
X194684957Y-85120273D02*
X194017300Y-85120273D01*
X194351129Y-83951873D02*
X194351129Y-85120273D01*
X193739109Y-85120273D02*
X193015814Y-85120273D01*
X193015814Y-85120273D02*
X193405281Y-84675169D01*
X193405281Y-84675169D02*
X193238366Y-84675169D01*
X193238366Y-84675169D02*
X193127090Y-84619531D01*
X193127090Y-84619531D02*
X193071452Y-84563892D01*
X193071452Y-84563892D02*
X193015814Y-84452616D01*
X193015814Y-84452616D02*
X193015814Y-84174426D01*
X193015814Y-84174426D02*
X193071452Y-84063150D01*
X193071452Y-84063150D02*
X193127090Y-84007512D01*
X193127090Y-84007512D02*
X193238366Y-83951873D01*
X193238366Y-83951873D02*
X193572195Y-83951873D01*
X193572195Y-83951873D02*
X193683471Y-84007512D01*
X193683471Y-84007512D02*
X193739109Y-84063150D01*
X192292519Y-85120273D02*
X192181242Y-85120273D01*
X192181242Y-85120273D02*
X192069966Y-85064635D01*
X192069966Y-85064635D02*
X192014328Y-85008997D01*
X192014328Y-85008997D02*
X191958690Y-84897721D01*
X191958690Y-84897721D02*
X191903052Y-84675169D01*
X191903052Y-84675169D02*
X191903052Y-84396978D01*
X191903052Y-84396978D02*
X191958690Y-84174426D01*
X191958690Y-84174426D02*
X192014328Y-84063150D01*
X192014328Y-84063150D02*
X192069966Y-84007512D01*
X192069966Y-84007512D02*
X192181242Y-83951873D01*
X192181242Y-83951873D02*
X192292519Y-83951873D01*
X192292519Y-83951873D02*
X192403795Y-84007512D01*
X192403795Y-84007512D02*
X192459433Y-84063150D01*
X192459433Y-84063150D02*
X192515071Y-84174426D01*
X192515071Y-84174426D02*
X192570709Y-84396978D01*
X192570709Y-84396978D02*
X192570709Y-84675169D01*
X192570709Y-84675169D02*
X192515071Y-84897721D01*
X192515071Y-84897721D02*
X192459433Y-85008997D01*
X192459433Y-85008997D02*
X192403795Y-85064635D01*
X192403795Y-85064635D02*
X192292519Y-85120273D01*
X191402309Y-83951873D02*
X191402309Y-85120273D01*
X191402309Y-85120273D02*
X191124119Y-85120273D01*
X191124119Y-85120273D02*
X190957204Y-85064635D01*
X190957204Y-85064635D02*
X190845928Y-84953359D01*
X190845928Y-84953359D02*
X190790290Y-84842083D01*
X190790290Y-84842083D02*
X190734652Y-84619531D01*
X190734652Y-84619531D02*
X190734652Y-84452616D01*
X190734652Y-84452616D02*
X190790290Y-84230064D01*
X190790290Y-84230064D02*
X190845928Y-84118788D01*
X190845928Y-84118788D02*
X190957204Y-84007512D01*
X190957204Y-84007512D02*
X191124119Y-83951873D01*
X191124119Y-83951873D02*
X191402309Y-83951873D01*
X189009870Y-83506769D02*
X189065509Y-83562407D01*
X189065509Y-83562407D02*
X189176785Y-83729321D01*
X189176785Y-83729321D02*
X189232423Y-83840597D01*
X189232423Y-83840597D02*
X189288061Y-84007512D01*
X189288061Y-84007512D02*
X189343699Y-84285702D01*
X189343699Y-84285702D02*
X189343699Y-84508254D01*
X189343699Y-84508254D02*
X189288061Y-84786445D01*
X189288061Y-84786445D02*
X189232423Y-84953359D01*
X189232423Y-84953359D02*
X189176785Y-85064635D01*
X189176785Y-85064635D02*
X189065509Y-85231550D01*
X189065509Y-85231550D02*
X189009870Y-85287188D01*
X188008385Y-83951873D02*
X188564766Y-83951873D01*
X188564766Y-83951873D02*
X188564766Y-85120273D01*
X187452004Y-83951873D02*
X187563280Y-84007512D01*
X187563280Y-84007512D02*
X187618918Y-84063150D01*
X187618918Y-84063150D02*
X187674556Y-84174426D01*
X187674556Y-84174426D02*
X187674556Y-84508254D01*
X187674556Y-84508254D02*
X187618918Y-84619531D01*
X187618918Y-84619531D02*
X187563280Y-84675169D01*
X187563280Y-84675169D02*
X187452004Y-84730807D01*
X187452004Y-84730807D02*
X187285089Y-84730807D01*
X187285089Y-84730807D02*
X187173813Y-84675169D01*
X187173813Y-84675169D02*
X187118175Y-84619531D01*
X187118175Y-84619531D02*
X187062537Y-84508254D01*
X187062537Y-84508254D02*
X187062537Y-84174426D01*
X187062537Y-84174426D02*
X187118175Y-84063150D01*
X187118175Y-84063150D02*
X187173813Y-84007512D01*
X187173813Y-84007512D02*
X187285089Y-83951873D01*
X187285089Y-83951873D02*
X187452004Y-83951873D01*
X185894137Y-83951873D02*
X186283604Y-84508254D01*
X186561794Y-83951873D02*
X186561794Y-85120273D01*
X186561794Y-85120273D02*
X186116689Y-85120273D01*
X186116689Y-85120273D02*
X186005413Y-85064635D01*
X186005413Y-85064635D02*
X185949775Y-85008997D01*
X185949775Y-85008997D02*
X185894137Y-84897721D01*
X185894137Y-84897721D02*
X185894137Y-84730807D01*
X185894137Y-84730807D02*
X185949775Y-84619531D01*
X185949775Y-84619531D02*
X186005413Y-84563892D01*
X186005413Y-84563892D02*
X186116689Y-84508254D01*
X186116689Y-84508254D02*
X186561794Y-84508254D01*
X184892651Y-83951873D02*
X184892651Y-84563892D01*
X184892651Y-84563892D02*
X184948289Y-84675169D01*
X184948289Y-84675169D02*
X185059565Y-84730807D01*
X185059565Y-84730807D02*
X185282118Y-84730807D01*
X185282118Y-84730807D02*
X185393394Y-84675169D01*
X184892651Y-84007512D02*
X185003927Y-83951873D01*
X185003927Y-83951873D02*
X185282118Y-83951873D01*
X185282118Y-83951873D02*
X185393394Y-84007512D01*
X185393394Y-84007512D02*
X185449032Y-84118788D01*
X185449032Y-84118788D02*
X185449032Y-84230064D01*
X185449032Y-84230064D02*
X185393394Y-84341340D01*
X185393394Y-84341340D02*
X185282118Y-84396978D01*
X185282118Y-84396978D02*
X185003927Y-84396978D01*
X185003927Y-84396978D02*
X184892651Y-84452616D01*
X184447546Y-83506769D02*
X184391908Y-83562407D01*
X184391908Y-83562407D02*
X184280632Y-83729321D01*
X184280632Y-83729321D02*
X184224994Y-83840597D01*
X184224994Y-83840597D02*
X184169356Y-84007512D01*
X184169356Y-84007512D02*
X184113718Y-84285702D01*
X184113718Y-84285702D02*
X184113718Y-84508254D01*
X184113718Y-84508254D02*
X184169356Y-84786445D01*
X184169356Y-84786445D02*
X184224994Y-84953359D01*
X184224994Y-84953359D02*
X184280632Y-85064635D01*
X184280632Y-85064635D02*
X184391908Y-85231550D01*
X184391908Y-85231550D02*
X184447546Y-85287188D01*
D13*
X171285930Y-129371187D02*
X171451030Y-129426220D01*
X171451030Y-129426220D02*
X171726197Y-129426220D01*
X171726197Y-129426220D02*
X171836263Y-129371187D01*
X171836263Y-129371187D02*
X171891297Y-129316153D01*
X171891297Y-129316153D02*
X171946330Y-129206087D01*
X171946330Y-129206087D02*
X171946330Y-129096020D01*
X171946330Y-129096020D02*
X171891297Y-128985953D01*
X171891297Y-128985953D02*
X171836263Y-128930920D01*
X171836263Y-128930920D02*
X171726197Y-128875887D01*
X171726197Y-128875887D02*
X171506063Y-128820853D01*
X171506063Y-128820853D02*
X171395997Y-128765820D01*
X171395997Y-128765820D02*
X171340963Y-128710787D01*
X171340963Y-128710787D02*
X171285930Y-128600720D01*
X171285930Y-128600720D02*
X171285930Y-128490653D01*
X171285930Y-128490653D02*
X171340963Y-128380587D01*
X171340963Y-128380587D02*
X171395997Y-128325553D01*
X171395997Y-128325553D02*
X171506063Y-128270520D01*
X171506063Y-128270520D02*
X171781230Y-128270520D01*
X171781230Y-128270520D02*
X171946330Y-128325553D01*
X172441630Y-129426220D02*
X172441630Y-128270520D01*
X172441630Y-128270520D02*
X172881897Y-128270520D01*
X172881897Y-128270520D02*
X172991964Y-128325553D01*
X172991964Y-128325553D02*
X173046997Y-128380587D01*
X173046997Y-128380587D02*
X173102030Y-128490653D01*
X173102030Y-128490653D02*
X173102030Y-128655753D01*
X173102030Y-128655753D02*
X173046997Y-128765820D01*
X173046997Y-128765820D02*
X172991964Y-128820853D01*
X172991964Y-128820853D02*
X172881897Y-128875887D01*
X172881897Y-128875887D02*
X172441630Y-128875887D01*
X174202697Y-129426220D02*
X173542297Y-129426220D01*
X173872497Y-129426220D02*
X173872497Y-128270520D01*
X173872497Y-128270520D02*
X173762430Y-128435620D01*
X173762430Y-128435620D02*
X173652364Y-128545687D01*
X173652364Y-128545687D02*
X173542297Y-128600720D01*
D12*
X116608432Y-105398326D02*
X116608432Y-104229926D01*
X116608432Y-104229926D02*
X116997899Y-105064497D01*
X116997899Y-105064497D02*
X117387365Y-104229926D01*
X117387365Y-104229926D02*
X117387365Y-105398326D01*
X117943746Y-105398326D02*
X117943746Y-104229926D01*
X117943746Y-104229926D02*
X118388851Y-104229926D01*
X118388851Y-104229926D02*
X118500127Y-104285564D01*
X118500127Y-104285564D02*
X118555765Y-104341202D01*
X118555765Y-104341202D02*
X118611403Y-104452478D01*
X118611403Y-104452478D02*
X118611403Y-104619392D01*
X118611403Y-104619392D02*
X118555765Y-104730668D01*
X118555765Y-104730668D02*
X118500127Y-104786307D01*
X118500127Y-104786307D02*
X118388851Y-104841945D01*
X118388851Y-104841945D02*
X117943746Y-104841945D01*
X119112146Y-104229926D02*
X119112146Y-105175773D01*
X119112146Y-105175773D02*
X119167784Y-105287049D01*
X119167784Y-105287049D02*
X119223422Y-105342688D01*
X119223422Y-105342688D02*
X119334698Y-105398326D01*
X119334698Y-105398326D02*
X119557251Y-105398326D01*
X119557251Y-105398326D02*
X119668527Y-105342688D01*
X119668527Y-105342688D02*
X119724165Y-105287049D01*
X119724165Y-105287049D02*
X119779803Y-105175773D01*
X119779803Y-105175773D02*
X119779803Y-104229926D01*
X120836927Y-104229926D02*
X120614374Y-104229926D01*
X120614374Y-104229926D02*
X120503098Y-104285564D01*
X120503098Y-104285564D02*
X120447460Y-104341202D01*
X120447460Y-104341202D02*
X120336184Y-104508116D01*
X120336184Y-104508116D02*
X120280546Y-104730668D01*
X120280546Y-104730668D02*
X120280546Y-105175773D01*
X120280546Y-105175773D02*
X120336184Y-105287049D01*
X120336184Y-105287049D02*
X120391822Y-105342688D01*
X120391822Y-105342688D02*
X120503098Y-105398326D01*
X120503098Y-105398326D02*
X120725651Y-105398326D01*
X120725651Y-105398326D02*
X120836927Y-105342688D01*
X120836927Y-105342688D02*
X120892565Y-105287049D01*
X120892565Y-105287049D02*
X120948203Y-105175773D01*
X120948203Y-105175773D02*
X120948203Y-104897583D01*
X120948203Y-104897583D02*
X120892565Y-104786307D01*
X120892565Y-104786307D02*
X120836927Y-104730668D01*
X120836927Y-104730668D02*
X120725651Y-104675030D01*
X120725651Y-104675030D02*
X120503098Y-104675030D01*
X120503098Y-104675030D02*
X120391822Y-104730668D01*
X120391822Y-104730668D02*
X120336184Y-104786307D01*
X120336184Y-104786307D02*
X120280546Y-104897583D01*
X121671498Y-104229926D02*
X121782775Y-104229926D01*
X121782775Y-104229926D02*
X121894051Y-104285564D01*
X121894051Y-104285564D02*
X121949689Y-104341202D01*
X121949689Y-104341202D02*
X122005327Y-104452478D01*
X122005327Y-104452478D02*
X122060965Y-104675030D01*
X122060965Y-104675030D02*
X122060965Y-104953221D01*
X122060965Y-104953221D02*
X122005327Y-105175773D01*
X122005327Y-105175773D02*
X121949689Y-105287049D01*
X121949689Y-105287049D02*
X121894051Y-105342688D01*
X121894051Y-105342688D02*
X121782775Y-105398326D01*
X121782775Y-105398326D02*
X121671498Y-105398326D01*
X121671498Y-105398326D02*
X121560222Y-105342688D01*
X121560222Y-105342688D02*
X121504584Y-105287049D01*
X121504584Y-105287049D02*
X121448946Y-105175773D01*
X121448946Y-105175773D02*
X121393308Y-104953221D01*
X121393308Y-104953221D02*
X121393308Y-104675030D01*
X121393308Y-104675030D02*
X121448946Y-104452478D01*
X121448946Y-104452478D02*
X121504584Y-104341202D01*
X121504584Y-104341202D02*
X121560222Y-104285564D01*
X121560222Y-104285564D02*
X121671498Y-104229926D01*
X123118089Y-104229926D02*
X122561708Y-104229926D01*
X122561708Y-104229926D02*
X122506070Y-104786307D01*
X122506070Y-104786307D02*
X122561708Y-104730668D01*
X122561708Y-104730668D02*
X122672984Y-104675030D01*
X122672984Y-104675030D02*
X122951175Y-104675030D01*
X122951175Y-104675030D02*
X123062451Y-104730668D01*
X123062451Y-104730668D02*
X123118089Y-104786307D01*
X123118089Y-104786307D02*
X123173727Y-104897583D01*
X123173727Y-104897583D02*
X123173727Y-105175773D01*
X123173727Y-105175773D02*
X123118089Y-105287049D01*
X123118089Y-105287049D02*
X123062451Y-105342688D01*
X123062451Y-105342688D02*
X122951175Y-105398326D01*
X122951175Y-105398326D02*
X122672984Y-105398326D01*
X122672984Y-105398326D02*
X122561708Y-105342688D01*
X122561708Y-105342688D02*
X122506070Y-105287049D01*
X123897022Y-104229926D02*
X124008299Y-104229926D01*
X124008299Y-104229926D02*
X124119575Y-104285564D01*
X124119575Y-104285564D02*
X124175213Y-104341202D01*
X124175213Y-104341202D02*
X124230851Y-104452478D01*
X124230851Y-104452478D02*
X124286489Y-104675030D01*
X124286489Y-104675030D02*
X124286489Y-104953221D01*
X124286489Y-104953221D02*
X124230851Y-105175773D01*
X124230851Y-105175773D02*
X124175213Y-105287049D01*
X124175213Y-105287049D02*
X124119575Y-105342688D01*
X124119575Y-105342688D02*
X124008299Y-105398326D01*
X124008299Y-105398326D02*
X123897022Y-105398326D01*
X123897022Y-105398326D02*
X123785746Y-105342688D01*
X123785746Y-105342688D02*
X123730108Y-105287049D01*
X123730108Y-105287049D02*
X123674470Y-105175773D01*
X123674470Y-105175773D02*
X123618832Y-104953221D01*
X123618832Y-104953221D02*
X123618832Y-104675030D01*
X123618832Y-104675030D02*
X123674470Y-104452478D01*
X123674470Y-104452478D02*
X123730108Y-104341202D01*
X123730108Y-104341202D02*
X123785746Y-104285564D01*
X123785746Y-104285564D02*
X123897022Y-104229926D01*
D14*
X82168705Y-119066780D02*
X81420929Y-119066780D01*
X81420929Y-119066780D02*
X82168705Y-118639479D01*
X82168705Y-118639479D02*
X81420929Y-118639479D01*
X82097488Y-117856095D02*
X82133097Y-117891703D01*
X82133097Y-117891703D02*
X82168705Y-117998529D01*
X82168705Y-117998529D02*
X82168705Y-118069745D01*
X82168705Y-118069745D02*
X82133097Y-118176570D01*
X82133097Y-118176570D02*
X82061880Y-118247787D01*
X82061880Y-118247787D02*
X81990663Y-118283396D01*
X81990663Y-118283396D02*
X81848229Y-118319004D01*
X81848229Y-118319004D02*
X81741404Y-118319004D01*
X81741404Y-118319004D02*
X81598971Y-118283396D01*
X81598971Y-118283396D02*
X81527754Y-118247787D01*
X81527754Y-118247787D02*
X81456537Y-118176570D01*
X81456537Y-118176570D02*
X81420929Y-118069745D01*
X81420929Y-118069745D02*
X81420929Y-117998529D01*
X81420929Y-117998529D02*
X81456537Y-117891703D01*
X81456537Y-117891703D02*
X81492146Y-117856095D01*
X82422705Y-126940780D02*
X81674929Y-126940780D01*
X81674929Y-126940780D02*
X82422705Y-126513479D01*
X82422705Y-126513479D02*
X81674929Y-126513479D01*
X81674929Y-126014962D02*
X81674929Y-125872529D01*
X81674929Y-125872529D02*
X81710537Y-125801312D01*
X81710537Y-125801312D02*
X81781754Y-125730095D01*
X81781754Y-125730095D02*
X81924188Y-125694487D01*
X81924188Y-125694487D02*
X82173446Y-125694487D01*
X82173446Y-125694487D02*
X82315880Y-125730095D01*
X82315880Y-125730095D02*
X82387097Y-125801312D01*
X82387097Y-125801312D02*
X82422705Y-125872529D01*
X82422705Y-125872529D02*
X82422705Y-126014962D01*
X82422705Y-126014962D02*
X82387097Y-126086179D01*
X82387097Y-126086179D02*
X82315880Y-126157396D01*
X82315880Y-126157396D02*
X82173446Y-126193004D01*
X82173446Y-126193004D02*
X81924188Y-126193004D01*
X81924188Y-126193004D02*
X81781754Y-126157396D01*
X81781754Y-126157396D02*
X81710537Y-126086179D01*
X81710537Y-126086179D02*
X81674929Y-126014962D01*
X82351488Y-134768479D02*
X82387097Y-134804087D01*
X82387097Y-134804087D02*
X82422705Y-134910913D01*
X82422705Y-134910913D02*
X82422705Y-134982129D01*
X82422705Y-134982129D02*
X82387097Y-135088954D01*
X82387097Y-135088954D02*
X82315880Y-135160171D01*
X82315880Y-135160171D02*
X82244663Y-135195780D01*
X82244663Y-135195780D02*
X82102229Y-135231388D01*
X82102229Y-135231388D02*
X81995404Y-135231388D01*
X81995404Y-135231388D02*
X81852971Y-135195780D01*
X81852971Y-135195780D02*
X81781754Y-135160171D01*
X81781754Y-135160171D02*
X81710537Y-135088954D01*
X81710537Y-135088954D02*
X81674929Y-134982129D01*
X81674929Y-134982129D02*
X81674929Y-134910913D01*
X81674929Y-134910913D02*
X81710537Y-134804087D01*
X81710537Y-134804087D02*
X81746146Y-134768479D01*
X81674929Y-134305570D02*
X81674929Y-134163137D01*
X81674929Y-134163137D02*
X81710537Y-134091920D01*
X81710537Y-134091920D02*
X81781754Y-134020703D01*
X81781754Y-134020703D02*
X81924188Y-133985095D01*
X81924188Y-133985095D02*
X82173446Y-133985095D01*
X82173446Y-133985095D02*
X82315880Y-134020703D01*
X82315880Y-134020703D02*
X82387097Y-134091920D01*
X82387097Y-134091920D02*
X82422705Y-134163137D01*
X82422705Y-134163137D02*
X82422705Y-134305570D01*
X82422705Y-134305570D02*
X82387097Y-134376787D01*
X82387097Y-134376787D02*
X82315880Y-134448004D01*
X82315880Y-134448004D02*
X82173446Y-134483612D01*
X82173446Y-134483612D02*
X81924188Y-134483612D01*
X81924188Y-134483612D02*
X81781754Y-134448004D01*
X81781754Y-134448004D02*
X81710537Y-134376787D01*
X81710537Y-134376787D02*
X81674929Y-134305570D01*
X82422705Y-133664620D02*
X81674929Y-133664620D01*
X81674929Y-133664620D02*
X82209055Y-133415361D01*
X82209055Y-133415361D02*
X81674929Y-133166102D01*
X81674929Y-133166102D02*
X82422705Y-133166102D01*
D15*
X209744746Y-140569602D02*
X209744746Y-140169008D01*
X209744746Y-140169008D02*
X209771453Y-140088889D01*
X209771453Y-140088889D02*
X209824865Y-140035477D01*
X209824865Y-140035477D02*
X209904984Y-140008770D01*
X209904984Y-140008770D02*
X209958397Y-140008770D01*
X209504389Y-140035477D02*
X209424271Y-140008770D01*
X209424271Y-140008770D02*
X209290739Y-140008770D01*
X209290739Y-140008770D02*
X209237327Y-140035477D01*
X209237327Y-140035477D02*
X209210620Y-140062183D01*
X209210620Y-140062183D02*
X209183914Y-140115595D01*
X209183914Y-140115595D02*
X209183914Y-140169008D01*
X209183914Y-140169008D02*
X209210620Y-140222421D01*
X209210620Y-140222421D02*
X209237327Y-140249127D01*
X209237327Y-140249127D02*
X209290739Y-140275833D01*
X209290739Y-140275833D02*
X209397564Y-140302539D01*
X209397564Y-140302539D02*
X209450977Y-140329246D01*
X209450977Y-140329246D02*
X209477683Y-140355952D01*
X209477683Y-140355952D02*
X209504389Y-140409365D01*
X209504389Y-140409365D02*
X209504389Y-140462777D01*
X209504389Y-140462777D02*
X209477683Y-140516190D01*
X209477683Y-140516190D02*
X209450977Y-140542896D01*
X209450977Y-140542896D02*
X209397564Y-140569602D01*
X209397564Y-140569602D02*
X209264033Y-140569602D01*
X209264033Y-140569602D02*
X209183914Y-140542896D01*
X209023676Y-140569602D02*
X208703201Y-140569602D01*
X208863438Y-140008770D02*
X208863438Y-140569602D01*
X208115661Y-140516190D02*
X208088955Y-140542896D01*
X208088955Y-140542896D02*
X208035543Y-140569602D01*
X208035543Y-140569602D02*
X207902011Y-140569602D01*
X207902011Y-140569602D02*
X207848599Y-140542896D01*
X207848599Y-140542896D02*
X207821892Y-140516190D01*
X207821892Y-140516190D02*
X207795186Y-140462777D01*
X207795186Y-140462777D02*
X207795186Y-140409365D01*
X207795186Y-140409365D02*
X207821892Y-140329246D01*
X207821892Y-140329246D02*
X208142368Y-140008770D01*
X208142368Y-140008770D02*
X207795186Y-140008770D01*
X207554829Y-140062183D02*
X207528123Y-140035477D01*
X207528123Y-140035477D02*
X207554829Y-140008770D01*
X207554829Y-140008770D02*
X207581535Y-140035477D01*
X207581535Y-140035477D02*
X207554829Y-140062183D01*
X207554829Y-140062183D02*
X207554829Y-140008770D01*
X207020703Y-140569602D02*
X207287766Y-140569602D01*
X207287766Y-140569602D02*
X207314472Y-140302539D01*
X207314472Y-140302539D02*
X207287766Y-140329246D01*
X207287766Y-140329246D02*
X207234354Y-140355952D01*
X207234354Y-140355952D02*
X207100822Y-140355952D01*
X207100822Y-140355952D02*
X207047410Y-140329246D01*
X207047410Y-140329246D02*
X207020703Y-140302539D01*
X207020703Y-140302539D02*
X206993997Y-140249127D01*
X206993997Y-140249127D02*
X206993997Y-140115595D01*
X206993997Y-140115595D02*
X207020703Y-140062183D01*
X207020703Y-140062183D02*
X207047410Y-140035477D01*
X207047410Y-140035477D02*
X207100822Y-140008770D01*
X207100822Y-140008770D02*
X207234354Y-140008770D01*
X207234354Y-140008770D02*
X207287766Y-140035477D01*
X207287766Y-140035477D02*
X207314472Y-140062183D01*
X206513284Y-140382658D02*
X206513284Y-140008770D01*
X206646815Y-140596309D02*
X206780346Y-140195714D01*
X206780346Y-140195714D02*
X206433165Y-140195714D01*
X206272927Y-140569602D02*
X205899039Y-140008770D01*
X205899039Y-140569602D02*
X206272927Y-140008770D01*
X205712094Y-140516190D02*
X205685388Y-140542896D01*
X205685388Y-140542896D02*
X205631976Y-140569602D01*
X205631976Y-140569602D02*
X205498444Y-140569602D01*
X205498444Y-140569602D02*
X205445032Y-140542896D01*
X205445032Y-140542896D02*
X205418325Y-140516190D01*
X205418325Y-140516190D02*
X205391619Y-140462777D01*
X205391619Y-140462777D02*
X205391619Y-140409365D01*
X205391619Y-140409365D02*
X205418325Y-140329246D01*
X205418325Y-140329246D02*
X205738801Y-140008770D01*
X205738801Y-140008770D02*
X205391619Y-140008770D01*
X205151262Y-140008770D02*
X205151262Y-140569602D01*
X205151262Y-140569602D02*
X204937612Y-140569602D01*
X204937612Y-140569602D02*
X204884199Y-140542896D01*
X204884199Y-140542896D02*
X204857493Y-140516190D01*
X204857493Y-140516190D02*
X204830787Y-140462777D01*
X204830787Y-140462777D02*
X204830787Y-140382658D01*
X204830787Y-140382658D02*
X204857493Y-140329246D01*
X204857493Y-140329246D02*
X204884199Y-140302539D01*
X204884199Y-140302539D02*
X204937612Y-140275833D01*
X204937612Y-140275833D02*
X205151262Y-140275833D01*
D13*
X81449820Y-98847903D02*
X81449820Y-99398236D01*
X81449820Y-99398236D02*
X80294120Y-99398236D01*
X80844453Y-98462669D02*
X80844453Y-98077436D01*
X81449820Y-97912336D02*
X81449820Y-98462669D01*
X81449820Y-98462669D02*
X80294120Y-98462669D01*
X80294120Y-98462669D02*
X80294120Y-97912336D01*
X81449820Y-97417036D02*
X80294120Y-97417036D01*
X80294120Y-97417036D02*
X80294120Y-97141869D01*
X80294120Y-97141869D02*
X80349153Y-96976769D01*
X80349153Y-96976769D02*
X80459220Y-96866703D01*
X80459220Y-96866703D02*
X80569287Y-96811669D01*
X80569287Y-96811669D02*
X80789420Y-96756636D01*
X80789420Y-96756636D02*
X80954520Y-96756636D01*
X80954520Y-96756636D02*
X81174653Y-96811669D01*
X81174653Y-96811669D02*
X81284720Y-96866703D01*
X81284720Y-96866703D02*
X81394787Y-96976769D01*
X81394787Y-96976769D02*
X81449820Y-97141869D01*
X81449820Y-97141869D02*
X81449820Y-97417036D01*
X81449820Y-95655969D02*
X81449820Y-96316369D01*
X81449820Y-95986169D02*
X80294120Y-95986169D01*
X80294120Y-95986169D02*
X80459220Y-96096236D01*
X80459220Y-96096236D02*
X80569287Y-96206303D01*
X80569287Y-96206303D02*
X80624320Y-96316369D01*
D15*
X200344746Y-140529602D02*
X200344746Y-140129008D01*
X200344746Y-140129008D02*
X200371453Y-140048889D01*
X200371453Y-140048889D02*
X200424865Y-139995477D01*
X200424865Y-139995477D02*
X200504984Y-139968770D01*
X200504984Y-139968770D02*
X200558397Y-139968770D01*
X200104389Y-139995477D02*
X200024271Y-139968770D01*
X200024271Y-139968770D02*
X199890739Y-139968770D01*
X199890739Y-139968770D02*
X199837327Y-139995477D01*
X199837327Y-139995477D02*
X199810620Y-140022183D01*
X199810620Y-140022183D02*
X199783914Y-140075595D01*
X199783914Y-140075595D02*
X199783914Y-140129008D01*
X199783914Y-140129008D02*
X199810620Y-140182421D01*
X199810620Y-140182421D02*
X199837327Y-140209127D01*
X199837327Y-140209127D02*
X199890739Y-140235833D01*
X199890739Y-140235833D02*
X199997564Y-140262539D01*
X199997564Y-140262539D02*
X200050977Y-140289246D01*
X200050977Y-140289246D02*
X200077683Y-140315952D01*
X200077683Y-140315952D02*
X200104389Y-140369365D01*
X200104389Y-140369365D02*
X200104389Y-140422777D01*
X200104389Y-140422777D02*
X200077683Y-140476190D01*
X200077683Y-140476190D02*
X200050977Y-140502896D01*
X200050977Y-140502896D02*
X199997564Y-140529602D01*
X199997564Y-140529602D02*
X199864033Y-140529602D01*
X199864033Y-140529602D02*
X199783914Y-140502896D01*
X199623676Y-140529602D02*
X199303201Y-140529602D01*
X199463438Y-139968770D02*
X199463438Y-140529602D01*
X198715661Y-140476190D02*
X198688955Y-140502896D01*
X198688955Y-140502896D02*
X198635543Y-140529602D01*
X198635543Y-140529602D02*
X198502011Y-140529602D01*
X198502011Y-140529602D02*
X198448599Y-140502896D01*
X198448599Y-140502896D02*
X198421892Y-140476190D01*
X198421892Y-140476190D02*
X198395186Y-140422777D01*
X198395186Y-140422777D02*
X198395186Y-140369365D01*
X198395186Y-140369365D02*
X198421892Y-140289246D01*
X198421892Y-140289246D02*
X198742368Y-139968770D01*
X198742368Y-139968770D02*
X198395186Y-139968770D01*
X198154829Y-140022183D02*
X198128123Y-139995477D01*
X198128123Y-139995477D02*
X198154829Y-139968770D01*
X198154829Y-139968770D02*
X198181535Y-139995477D01*
X198181535Y-139995477D02*
X198154829Y-140022183D01*
X198154829Y-140022183D02*
X198154829Y-139968770D01*
X197620703Y-140529602D02*
X197887766Y-140529602D01*
X197887766Y-140529602D02*
X197914472Y-140262539D01*
X197914472Y-140262539D02*
X197887766Y-140289246D01*
X197887766Y-140289246D02*
X197834354Y-140315952D01*
X197834354Y-140315952D02*
X197700822Y-140315952D01*
X197700822Y-140315952D02*
X197647410Y-140289246D01*
X197647410Y-140289246D02*
X197620703Y-140262539D01*
X197620703Y-140262539D02*
X197593997Y-140209127D01*
X197593997Y-140209127D02*
X197593997Y-140075595D01*
X197593997Y-140075595D02*
X197620703Y-140022183D01*
X197620703Y-140022183D02*
X197647410Y-139995477D01*
X197647410Y-139995477D02*
X197700822Y-139968770D01*
X197700822Y-139968770D02*
X197834354Y-139968770D01*
X197834354Y-139968770D02*
X197887766Y-139995477D01*
X197887766Y-139995477D02*
X197914472Y-140022183D01*
X197113284Y-140342658D02*
X197113284Y-139968770D01*
X197246815Y-140556309D02*
X197380346Y-140155714D01*
X197380346Y-140155714D02*
X197033165Y-140155714D01*
X196872927Y-140529602D02*
X196499039Y-139968770D01*
X196499039Y-140529602D02*
X196872927Y-139968770D01*
X196312094Y-140476190D02*
X196285388Y-140502896D01*
X196285388Y-140502896D02*
X196231976Y-140529602D01*
X196231976Y-140529602D02*
X196098444Y-140529602D01*
X196098444Y-140529602D02*
X196045032Y-140502896D01*
X196045032Y-140502896D02*
X196018325Y-140476190D01*
X196018325Y-140476190D02*
X195991619Y-140422777D01*
X195991619Y-140422777D02*
X195991619Y-140369365D01*
X195991619Y-140369365D02*
X196018325Y-140289246D01*
X196018325Y-140289246D02*
X196338801Y-139968770D01*
X196338801Y-139968770D02*
X195991619Y-139968770D01*
X195751262Y-139968770D02*
X195751262Y-140529602D01*
X195751262Y-140529602D02*
X195537612Y-140529602D01*
X195537612Y-140529602D02*
X195484199Y-140502896D01*
X195484199Y-140502896D02*
X195457493Y-140476190D01*
X195457493Y-140476190D02*
X195430787Y-140422777D01*
X195430787Y-140422777D02*
X195430787Y-140342658D01*
X195430787Y-140342658D02*
X195457493Y-140289246D01*
X195457493Y-140289246D02*
X195484199Y-140262539D01*
X195484199Y-140262539D02*
X195537612Y-140235833D01*
X195537612Y-140235833D02*
X195751262Y-140235833D01*
D12*
X119482899Y-129416307D02*
X119649813Y-129471945D01*
X119649813Y-129471945D02*
X119705451Y-129527583D01*
X119705451Y-129527583D02*
X119761089Y-129638859D01*
X119761089Y-129638859D02*
X119761089Y-129805773D01*
X119761089Y-129805773D02*
X119705451Y-129917049D01*
X119705451Y-129917049D02*
X119649813Y-129972688D01*
X119649813Y-129972688D02*
X119538537Y-130028326D01*
X119538537Y-130028326D02*
X119093432Y-130028326D01*
X119093432Y-130028326D02*
X119093432Y-128859926D01*
X119093432Y-128859926D02*
X119482899Y-128859926D01*
X119482899Y-128859926D02*
X119594175Y-128915564D01*
X119594175Y-128915564D02*
X119649813Y-128971202D01*
X119649813Y-128971202D02*
X119705451Y-129082478D01*
X119705451Y-129082478D02*
X119705451Y-129193754D01*
X119705451Y-129193754D02*
X119649813Y-129305030D01*
X119649813Y-129305030D02*
X119594175Y-129360668D01*
X119594175Y-129360668D02*
X119482899Y-129416307D01*
X119482899Y-129416307D02*
X119093432Y-129416307D01*
X120261832Y-130028326D02*
X120261832Y-128859926D01*
X120261832Y-128859926D02*
X120651299Y-129694497D01*
X120651299Y-129694497D02*
X121040765Y-128859926D01*
X121040765Y-128859926D02*
X121040765Y-130028326D01*
X121597146Y-130028326D02*
X121597146Y-128859926D01*
X121597146Y-128859926D02*
X122042251Y-128859926D01*
X122042251Y-128859926D02*
X122153527Y-128915564D01*
X122153527Y-128915564D02*
X122209165Y-128971202D01*
X122209165Y-128971202D02*
X122264803Y-129082478D01*
X122264803Y-129082478D02*
X122264803Y-129249392D01*
X122264803Y-129249392D02*
X122209165Y-129360668D01*
X122209165Y-129360668D02*
X122153527Y-129416307D01*
X122153527Y-129416307D02*
X122042251Y-129471945D01*
X122042251Y-129471945D02*
X121597146Y-129471945D01*
X122654270Y-128859926D02*
X123377565Y-128859926D01*
X123377565Y-128859926D02*
X122988098Y-129305030D01*
X122988098Y-129305030D02*
X123155013Y-129305030D01*
X123155013Y-129305030D02*
X123266289Y-129360668D01*
X123266289Y-129360668D02*
X123321927Y-129416307D01*
X123321927Y-129416307D02*
X123377565Y-129527583D01*
X123377565Y-129527583D02*
X123377565Y-129805773D01*
X123377565Y-129805773D02*
X123321927Y-129917049D01*
X123321927Y-129917049D02*
X123266289Y-129972688D01*
X123266289Y-129972688D02*
X123155013Y-130028326D01*
X123155013Y-130028326D02*
X122821184Y-130028326D01*
X122821184Y-130028326D02*
X122709908Y-129972688D01*
X122709908Y-129972688D02*
X122654270Y-129917049D01*
X123933946Y-130028326D02*
X124156498Y-130028326D01*
X124156498Y-130028326D02*
X124267775Y-129972688D01*
X124267775Y-129972688D02*
X124323413Y-129917049D01*
X124323413Y-129917049D02*
X124434689Y-129750135D01*
X124434689Y-129750135D02*
X124490327Y-129527583D01*
X124490327Y-129527583D02*
X124490327Y-129082478D01*
X124490327Y-129082478D02*
X124434689Y-128971202D01*
X124434689Y-128971202D02*
X124379051Y-128915564D01*
X124379051Y-128915564D02*
X124267775Y-128859926D01*
X124267775Y-128859926D02*
X124045222Y-128859926D01*
X124045222Y-128859926D02*
X123933946Y-128915564D01*
X123933946Y-128915564D02*
X123878308Y-128971202D01*
X123878308Y-128971202D02*
X123822670Y-129082478D01*
X123822670Y-129082478D02*
X123822670Y-129360668D01*
X123822670Y-129360668D02*
X123878308Y-129471945D01*
X123878308Y-129471945D02*
X123933946Y-129527583D01*
X123933946Y-129527583D02*
X124045222Y-129583221D01*
X124045222Y-129583221D02*
X124267775Y-129583221D01*
X124267775Y-129583221D02*
X124379051Y-129527583D01*
X124379051Y-129527583D02*
X124434689Y-129471945D01*
X124434689Y-129471945D02*
X124490327Y-129360668D01*
X125213622Y-128859926D02*
X125324899Y-128859926D01*
X125324899Y-128859926D02*
X125436175Y-128915564D01*
X125436175Y-128915564D02*
X125491813Y-128971202D01*
X125491813Y-128971202D02*
X125547451Y-129082478D01*
X125547451Y-129082478D02*
X125603089Y-129305030D01*
X125603089Y-129305030D02*
X125603089Y-129583221D01*
X125603089Y-129583221D02*
X125547451Y-129805773D01*
X125547451Y-129805773D02*
X125491813Y-129917049D01*
X125491813Y-129917049D02*
X125436175Y-129972688D01*
X125436175Y-129972688D02*
X125324899Y-130028326D01*
X125324899Y-130028326D02*
X125213622Y-130028326D01*
X125213622Y-130028326D02*
X125102346Y-129972688D01*
X125102346Y-129972688D02*
X125046708Y-129917049D01*
X125046708Y-129917049D02*
X124991070Y-129805773D01*
X124991070Y-129805773D02*
X124935432Y-129583221D01*
X124935432Y-129583221D02*
X124935432Y-129305030D01*
X124935432Y-129305030D02*
X124991070Y-129082478D01*
X124991070Y-129082478D02*
X125046708Y-128971202D01*
X125046708Y-128971202D02*
X125102346Y-128915564D01*
X125102346Y-128915564D02*
X125213622Y-128859926D01*
D14*
X102125780Y-84500694D02*
X102125780Y-85248470D01*
X102125780Y-85248470D02*
X101876521Y-84714344D01*
X101876521Y-84714344D02*
X101627262Y-85248470D01*
X101627262Y-85248470D02*
X101627262Y-84500694D01*
X101271179Y-84500694D02*
X101271179Y-84999211D01*
X101271179Y-85248470D02*
X101306787Y-85212862D01*
X101306787Y-85212862D02*
X101271179Y-85177253D01*
X101271179Y-85177253D02*
X101235570Y-85212862D01*
X101235570Y-85212862D02*
X101271179Y-85248470D01*
X101271179Y-85248470D02*
X101271179Y-85177253D01*
X100594619Y-84536303D02*
X100665836Y-84500694D01*
X100665836Y-84500694D02*
X100808269Y-84500694D01*
X100808269Y-84500694D02*
X100879486Y-84536303D01*
X100879486Y-84536303D02*
X100915095Y-84571911D01*
X100915095Y-84571911D02*
X100950703Y-84643128D01*
X100950703Y-84643128D02*
X100950703Y-84856778D01*
X100950703Y-84856778D02*
X100915095Y-84927995D01*
X100915095Y-84927995D02*
X100879486Y-84963603D01*
X100879486Y-84963603D02*
X100808269Y-84999211D01*
X100808269Y-84999211D02*
X100665836Y-84999211D01*
X100665836Y-84999211D02*
X100594619Y-84963603D01*
X100274144Y-84500694D02*
X100274144Y-84999211D01*
X100274144Y-84856778D02*
X100238535Y-84927995D01*
X100238535Y-84927995D02*
X100202927Y-84963603D01*
X100202927Y-84963603D02*
X100131710Y-84999211D01*
X100131710Y-84999211D02*
X100060493Y-84999211D01*
X99704409Y-84500694D02*
X99775626Y-84536303D01*
X99775626Y-84536303D02*
X99811235Y-84571911D01*
X99811235Y-84571911D02*
X99846843Y-84643128D01*
X99846843Y-84643128D02*
X99846843Y-84856778D01*
X99846843Y-84856778D02*
X99811235Y-84927995D01*
X99811235Y-84927995D02*
X99775626Y-84963603D01*
X99775626Y-84963603D02*
X99704409Y-84999211D01*
X99704409Y-84999211D02*
X99597584Y-84999211D01*
X99597584Y-84999211D02*
X99526368Y-84963603D01*
X99526368Y-84963603D02*
X99490759Y-84927995D01*
X99490759Y-84927995D02*
X99455151Y-84856778D01*
X99455151Y-84856778D02*
X99455151Y-84643128D01*
X99455151Y-84643128D02*
X99490759Y-84571911D01*
X99490759Y-84571911D02*
X99526368Y-84536303D01*
X99526368Y-84536303D02*
X99597584Y-84500694D01*
X99597584Y-84500694D02*
X99704409Y-84500694D01*
X99170284Y-84536303D02*
X99063459Y-84500694D01*
X99063459Y-84500694D02*
X98885417Y-84500694D01*
X98885417Y-84500694D02*
X98814200Y-84536303D01*
X98814200Y-84536303D02*
X98778592Y-84571911D01*
X98778592Y-84571911D02*
X98742983Y-84643128D01*
X98742983Y-84643128D02*
X98742983Y-84714344D01*
X98742983Y-84714344D02*
X98778592Y-84785561D01*
X98778592Y-84785561D02*
X98814200Y-84821170D01*
X98814200Y-84821170D02*
X98885417Y-84856778D01*
X98885417Y-84856778D02*
X99027850Y-84892386D01*
X99027850Y-84892386D02*
X99099067Y-84927995D01*
X99099067Y-84927995D02*
X99134676Y-84963603D01*
X99134676Y-84963603D02*
X99170284Y-85034820D01*
X99170284Y-85034820D02*
X99170284Y-85106037D01*
X99170284Y-85106037D02*
X99134676Y-85177253D01*
X99134676Y-85177253D02*
X99099067Y-85212862D01*
X99099067Y-85212862D02*
X99027850Y-85248470D01*
X99027850Y-85248470D02*
X98849809Y-85248470D01*
X98849809Y-85248470D02*
X98742983Y-85212862D01*
X98422508Y-84500694D02*
X98422508Y-85248470D01*
X98422508Y-85248470D02*
X98244466Y-85248470D01*
X98244466Y-85248470D02*
X98137641Y-85212862D01*
X98137641Y-85212862D02*
X98066424Y-85141645D01*
X98066424Y-85141645D02*
X98030815Y-85070428D01*
X98030815Y-85070428D02*
X97995207Y-84927995D01*
X97995207Y-84927995D02*
X97995207Y-84821170D01*
X97995207Y-84821170D02*
X98030815Y-84678736D01*
X98030815Y-84678736D02*
X98066424Y-84607519D01*
X98066424Y-84607519D02*
X98137641Y-84536303D01*
X98137641Y-84536303D02*
X98244466Y-84500694D01*
X98244466Y-84500694D02*
X98422508Y-84500694D01*
X97140606Y-84536303D02*
X97069389Y-84500694D01*
X97069389Y-84500694D02*
X96926956Y-84500694D01*
X96926956Y-84500694D02*
X96855739Y-84536303D01*
X96855739Y-84536303D02*
X96820131Y-84607519D01*
X96820131Y-84607519D02*
X96820131Y-84643128D01*
X96820131Y-84643128D02*
X96855739Y-84714344D01*
X96855739Y-84714344D02*
X96926956Y-84749953D01*
X96926956Y-84749953D02*
X97033781Y-84749953D01*
X97033781Y-84749953D02*
X97104998Y-84785561D01*
X97104998Y-84785561D02*
X97140606Y-84856778D01*
X97140606Y-84856778D02*
X97140606Y-84892386D01*
X97140606Y-84892386D02*
X97104998Y-84963603D01*
X97104998Y-84963603D02*
X97033781Y-84999211D01*
X97033781Y-84999211D02*
X96926956Y-84999211D01*
X96926956Y-84999211D02*
X96855739Y-84963603D01*
X96499656Y-84500694D02*
X96499656Y-84999211D01*
X96499656Y-84927995D02*
X96464047Y-84963603D01*
X96464047Y-84963603D02*
X96392830Y-84999211D01*
X96392830Y-84999211D02*
X96286005Y-84999211D01*
X96286005Y-84999211D02*
X96214789Y-84963603D01*
X96214789Y-84963603D02*
X96179180Y-84892386D01*
X96179180Y-84892386D02*
X96179180Y-84500694D01*
X96179180Y-84892386D02*
X96143572Y-84963603D01*
X96143572Y-84963603D02*
X96072355Y-84999211D01*
X96072355Y-84999211D02*
X95965530Y-84999211D01*
X95965530Y-84999211D02*
X95894313Y-84963603D01*
X95894313Y-84963603D02*
X95858705Y-84892386D01*
X95858705Y-84892386D02*
X95858705Y-84500694D01*
X95182145Y-84500694D02*
X95182145Y-84892386D01*
X95182145Y-84892386D02*
X95217754Y-84963603D01*
X95217754Y-84963603D02*
X95288970Y-84999211D01*
X95288970Y-84999211D02*
X95431404Y-84999211D01*
X95431404Y-84999211D02*
X95502621Y-84963603D01*
X95182145Y-84536303D02*
X95253362Y-84500694D01*
X95253362Y-84500694D02*
X95431404Y-84500694D01*
X95431404Y-84500694D02*
X95502621Y-84536303D01*
X95502621Y-84536303D02*
X95538229Y-84607519D01*
X95538229Y-84607519D02*
X95538229Y-84678736D01*
X95538229Y-84678736D02*
X95502621Y-84749953D01*
X95502621Y-84749953D02*
X95431404Y-84785561D01*
X95431404Y-84785561D02*
X95253362Y-84785561D01*
X95253362Y-84785561D02*
X95182145Y-84821170D01*
X94719236Y-84500694D02*
X94790453Y-84536303D01*
X94790453Y-84536303D02*
X94826062Y-84607519D01*
X94826062Y-84607519D02*
X94826062Y-85248470D01*
X94327544Y-84500694D02*
X94398761Y-84536303D01*
X94398761Y-84536303D02*
X94434370Y-84607519D01*
X94434370Y-84607519D02*
X94434370Y-85248470D01*
X93472944Y-84500694D02*
X93472944Y-84999211D01*
X93472944Y-84856778D02*
X93437335Y-84927995D01*
X93437335Y-84927995D02*
X93401727Y-84963603D01*
X93401727Y-84963603D02*
X93330510Y-84999211D01*
X93330510Y-84999211D02*
X93259293Y-84999211D01*
X92725168Y-84536303D02*
X92796384Y-84500694D01*
X92796384Y-84500694D02*
X92938818Y-84500694D01*
X92938818Y-84500694D02*
X93010035Y-84536303D01*
X93010035Y-84536303D02*
X93045643Y-84607519D01*
X93045643Y-84607519D02*
X93045643Y-84892386D01*
X93045643Y-84892386D02*
X93010035Y-84963603D01*
X93010035Y-84963603D02*
X92938818Y-84999211D01*
X92938818Y-84999211D02*
X92796384Y-84999211D01*
X92796384Y-84999211D02*
X92725168Y-84963603D01*
X92725168Y-84963603D02*
X92689559Y-84892386D01*
X92689559Y-84892386D02*
X92689559Y-84821170D01*
X92689559Y-84821170D02*
X93045643Y-84749953D01*
X92048608Y-84500694D02*
X92048608Y-84892386D01*
X92048608Y-84892386D02*
X92084217Y-84963603D01*
X92084217Y-84963603D02*
X92155433Y-84999211D01*
X92155433Y-84999211D02*
X92297867Y-84999211D01*
X92297867Y-84999211D02*
X92369084Y-84963603D01*
X92048608Y-84536303D02*
X92119825Y-84500694D01*
X92119825Y-84500694D02*
X92297867Y-84500694D01*
X92297867Y-84500694D02*
X92369084Y-84536303D01*
X92369084Y-84536303D02*
X92404692Y-84607519D01*
X92404692Y-84607519D02*
X92404692Y-84678736D01*
X92404692Y-84678736D02*
X92369084Y-84749953D01*
X92369084Y-84749953D02*
X92297867Y-84785561D01*
X92297867Y-84785561D02*
X92119825Y-84785561D01*
X92119825Y-84785561D02*
X92048608Y-84821170D01*
X91372049Y-84500694D02*
X91372049Y-85248470D01*
X91372049Y-84536303D02*
X91443266Y-84500694D01*
X91443266Y-84500694D02*
X91585699Y-84500694D01*
X91585699Y-84500694D02*
X91656916Y-84536303D01*
X91656916Y-84536303D02*
X91692525Y-84571911D01*
X91692525Y-84571911D02*
X91728133Y-84643128D01*
X91728133Y-84643128D02*
X91728133Y-84856778D01*
X91728133Y-84856778D02*
X91692525Y-84927995D01*
X91692525Y-84927995D02*
X91656916Y-84963603D01*
X91656916Y-84963603D02*
X91585699Y-84999211D01*
X91585699Y-84999211D02*
X91443266Y-84999211D01*
X91443266Y-84999211D02*
X91372049Y-84963603D01*
X90731099Y-84536303D02*
X90802315Y-84500694D01*
X90802315Y-84500694D02*
X90944749Y-84500694D01*
X90944749Y-84500694D02*
X91015966Y-84536303D01*
X91015966Y-84536303D02*
X91051574Y-84607519D01*
X91051574Y-84607519D02*
X91051574Y-84892386D01*
X91051574Y-84892386D02*
X91015966Y-84963603D01*
X91015966Y-84963603D02*
X90944749Y-84999211D01*
X90944749Y-84999211D02*
X90802315Y-84999211D01*
X90802315Y-84999211D02*
X90731099Y-84963603D01*
X90731099Y-84963603D02*
X90695490Y-84892386D01*
X90695490Y-84892386D02*
X90695490Y-84821170D01*
X90695490Y-84821170D02*
X91051574Y-84749953D01*
X90375015Y-84500694D02*
X90375015Y-84999211D01*
X90375015Y-84856778D02*
X90339406Y-84927995D01*
X90339406Y-84927995D02*
X90303798Y-84963603D01*
X90303798Y-84963603D02*
X90232581Y-84999211D01*
X90232581Y-84999211D02*
X90161364Y-84999211D01*
D15*
X102514197Y-125985146D02*
X102914791Y-125985146D01*
X102914791Y-125985146D02*
X102994910Y-126011853D01*
X102994910Y-126011853D02*
X103048323Y-126065265D01*
X103048323Y-126065265D02*
X103075029Y-126145384D01*
X103075029Y-126145384D02*
X103075029Y-126198797D01*
X103048323Y-125744789D02*
X103075029Y-125664671D01*
X103075029Y-125664671D02*
X103075029Y-125531139D01*
X103075029Y-125531139D02*
X103048323Y-125477727D01*
X103048323Y-125477727D02*
X103021616Y-125451020D01*
X103021616Y-125451020D02*
X102968204Y-125424314D01*
X102968204Y-125424314D02*
X102914791Y-125424314D01*
X102914791Y-125424314D02*
X102861379Y-125451020D01*
X102861379Y-125451020D02*
X102834672Y-125477727D01*
X102834672Y-125477727D02*
X102807966Y-125531139D01*
X102807966Y-125531139D02*
X102781260Y-125637964D01*
X102781260Y-125637964D02*
X102754553Y-125691377D01*
X102754553Y-125691377D02*
X102727847Y-125718083D01*
X102727847Y-125718083D02*
X102674435Y-125744789D01*
X102674435Y-125744789D02*
X102621022Y-125744789D01*
X102621022Y-125744789D02*
X102567609Y-125718083D01*
X102567609Y-125718083D02*
X102540903Y-125691377D01*
X102540903Y-125691377D02*
X102514197Y-125637964D01*
X102514197Y-125637964D02*
X102514197Y-125504433D01*
X102514197Y-125504433D02*
X102540903Y-125424314D01*
X102514197Y-125264076D02*
X102514197Y-124943601D01*
X103075029Y-125103838D02*
X102514197Y-125103838D01*
X102567609Y-124356061D02*
X102540903Y-124329355D01*
X102540903Y-124329355D02*
X102514197Y-124275943D01*
X102514197Y-124275943D02*
X102514197Y-124142411D01*
X102514197Y-124142411D02*
X102540903Y-124088999D01*
X102540903Y-124088999D02*
X102567609Y-124062292D01*
X102567609Y-124062292D02*
X102621022Y-124035586D01*
X102621022Y-124035586D02*
X102674435Y-124035586D01*
X102674435Y-124035586D02*
X102754553Y-124062292D01*
X102754553Y-124062292D02*
X103075029Y-124382768D01*
X103075029Y-124382768D02*
X103075029Y-124035586D01*
X103021616Y-123795229D02*
X103048323Y-123768523D01*
X103048323Y-123768523D02*
X103075029Y-123795229D01*
X103075029Y-123795229D02*
X103048323Y-123821935D01*
X103048323Y-123821935D02*
X103021616Y-123795229D01*
X103021616Y-123795229D02*
X103075029Y-123795229D01*
X102514197Y-123261103D02*
X102514197Y-123528166D01*
X102514197Y-123528166D02*
X102781260Y-123554872D01*
X102781260Y-123554872D02*
X102754553Y-123528166D01*
X102754553Y-123528166D02*
X102727847Y-123474754D01*
X102727847Y-123474754D02*
X102727847Y-123341222D01*
X102727847Y-123341222D02*
X102754553Y-123287810D01*
X102754553Y-123287810D02*
X102781260Y-123261103D01*
X102781260Y-123261103D02*
X102834672Y-123234397D01*
X102834672Y-123234397D02*
X102968204Y-123234397D01*
X102968204Y-123234397D02*
X103021616Y-123261103D01*
X103021616Y-123261103D02*
X103048323Y-123287810D01*
X103048323Y-123287810D02*
X103075029Y-123341222D01*
X103075029Y-123341222D02*
X103075029Y-123474754D01*
X103075029Y-123474754D02*
X103048323Y-123528166D01*
X103048323Y-123528166D02*
X103021616Y-123554872D01*
X102701141Y-122753684D02*
X103075029Y-122753684D01*
X102487491Y-122887215D02*
X102888085Y-123020746D01*
X102888085Y-123020746D02*
X102888085Y-122673565D01*
X102514197Y-122513327D02*
X103075029Y-122139439D01*
X102514197Y-122139439D02*
X103075029Y-122513327D01*
X102567609Y-121952494D02*
X102540903Y-121925788D01*
X102540903Y-121925788D02*
X102514197Y-121872376D01*
X102514197Y-121872376D02*
X102514197Y-121738844D01*
X102514197Y-121738844D02*
X102540903Y-121685432D01*
X102540903Y-121685432D02*
X102567609Y-121658725D01*
X102567609Y-121658725D02*
X102621022Y-121632019D01*
X102621022Y-121632019D02*
X102674435Y-121632019D01*
X102674435Y-121632019D02*
X102754553Y-121658725D01*
X102754553Y-121658725D02*
X103075029Y-121979201D01*
X103075029Y-121979201D02*
X103075029Y-121632019D01*
X103075029Y-121391662D02*
X102514197Y-121391662D01*
X102514197Y-121391662D02*
X102514197Y-121178012D01*
X102514197Y-121178012D02*
X102540903Y-121124599D01*
X102540903Y-121124599D02*
X102567609Y-121097893D01*
X102567609Y-121097893D02*
X102621022Y-121071187D01*
X102621022Y-121071187D02*
X102701141Y-121071187D01*
X102701141Y-121071187D02*
X102754553Y-121097893D01*
X102754553Y-121097893D02*
X102781260Y-121124599D01*
X102781260Y-121124599D02*
X102807966Y-121178012D01*
X102807966Y-121178012D02*
X102807966Y-121391662D01*
X102514197Y-136237746D02*
X102914791Y-136237746D01*
X102914791Y-136237746D02*
X102994910Y-136264453D01*
X102994910Y-136264453D02*
X103048323Y-136317865D01*
X103048323Y-136317865D02*
X103075029Y-136397984D01*
X103075029Y-136397984D02*
X103075029Y-136451397D01*
X103048323Y-135997389D02*
X103075029Y-135917271D01*
X103075029Y-135917271D02*
X103075029Y-135783739D01*
X103075029Y-135783739D02*
X103048323Y-135730327D01*
X103048323Y-135730327D02*
X103021616Y-135703620D01*
X103021616Y-135703620D02*
X102968204Y-135676914D01*
X102968204Y-135676914D02*
X102914791Y-135676914D01*
X102914791Y-135676914D02*
X102861379Y-135703620D01*
X102861379Y-135703620D02*
X102834672Y-135730327D01*
X102834672Y-135730327D02*
X102807966Y-135783739D01*
X102807966Y-135783739D02*
X102781260Y-135890564D01*
X102781260Y-135890564D02*
X102754553Y-135943977D01*
X102754553Y-135943977D02*
X102727847Y-135970683D01*
X102727847Y-135970683D02*
X102674435Y-135997389D01*
X102674435Y-135997389D02*
X102621022Y-135997389D01*
X102621022Y-135997389D02*
X102567609Y-135970683D01*
X102567609Y-135970683D02*
X102540903Y-135943977D01*
X102540903Y-135943977D02*
X102514197Y-135890564D01*
X102514197Y-135890564D02*
X102514197Y-135757033D01*
X102514197Y-135757033D02*
X102540903Y-135676914D01*
X102514197Y-135516676D02*
X102514197Y-135196201D01*
X103075029Y-135356438D02*
X102514197Y-135356438D01*
X102567609Y-134608661D02*
X102540903Y-134581955D01*
X102540903Y-134581955D02*
X102514197Y-134528543D01*
X102514197Y-134528543D02*
X102514197Y-134395011D01*
X102514197Y-134395011D02*
X102540903Y-134341599D01*
X102540903Y-134341599D02*
X102567609Y-134314892D01*
X102567609Y-134314892D02*
X102621022Y-134288186D01*
X102621022Y-134288186D02*
X102674435Y-134288186D01*
X102674435Y-134288186D02*
X102754553Y-134314892D01*
X102754553Y-134314892D02*
X103075029Y-134635368D01*
X103075029Y-134635368D02*
X103075029Y-134288186D01*
X103021616Y-134047829D02*
X103048323Y-134021123D01*
X103048323Y-134021123D02*
X103075029Y-134047829D01*
X103075029Y-134047829D02*
X103048323Y-134074535D01*
X103048323Y-134074535D02*
X103021616Y-134047829D01*
X103021616Y-134047829D02*
X103075029Y-134047829D01*
X102514197Y-133513703D02*
X102514197Y-133780766D01*
X102514197Y-133780766D02*
X102781260Y-133807472D01*
X102781260Y-133807472D02*
X102754553Y-133780766D01*
X102754553Y-133780766D02*
X102727847Y-133727354D01*
X102727847Y-133727354D02*
X102727847Y-133593822D01*
X102727847Y-133593822D02*
X102754553Y-133540410D01*
X102754553Y-133540410D02*
X102781260Y-133513703D01*
X102781260Y-133513703D02*
X102834672Y-133486997D01*
X102834672Y-133486997D02*
X102968204Y-133486997D01*
X102968204Y-133486997D02*
X103021616Y-133513703D01*
X103021616Y-133513703D02*
X103048323Y-133540410D01*
X103048323Y-133540410D02*
X103075029Y-133593822D01*
X103075029Y-133593822D02*
X103075029Y-133727354D01*
X103075029Y-133727354D02*
X103048323Y-133780766D01*
X103048323Y-133780766D02*
X103021616Y-133807472D01*
X102701141Y-133006284D02*
X103075029Y-133006284D01*
X102487491Y-133139815D02*
X102888085Y-133273346D01*
X102888085Y-133273346D02*
X102888085Y-132926165D01*
X102514197Y-132765927D02*
X103075029Y-132392039D01*
X102514197Y-132392039D02*
X103075029Y-132765927D01*
X102567609Y-132205094D02*
X102540903Y-132178388D01*
X102540903Y-132178388D02*
X102514197Y-132124976D01*
X102514197Y-132124976D02*
X102514197Y-131991444D01*
X102514197Y-131991444D02*
X102540903Y-131938032D01*
X102540903Y-131938032D02*
X102567609Y-131911325D01*
X102567609Y-131911325D02*
X102621022Y-131884619D01*
X102621022Y-131884619D02*
X102674435Y-131884619D01*
X102674435Y-131884619D02*
X102754553Y-131911325D01*
X102754553Y-131911325D02*
X103075029Y-132231801D01*
X103075029Y-132231801D02*
X103075029Y-131884619D01*
X103075029Y-131644262D02*
X102514197Y-131644262D01*
X102514197Y-131644262D02*
X102514197Y-131430612D01*
X102514197Y-131430612D02*
X102540903Y-131377199D01*
X102540903Y-131377199D02*
X102567609Y-131350493D01*
X102567609Y-131350493D02*
X102621022Y-131323787D01*
X102621022Y-131323787D02*
X102701141Y-131323787D01*
X102701141Y-131323787D02*
X102754553Y-131350493D01*
X102754553Y-131350493D02*
X102781260Y-131377199D01*
X102781260Y-131377199D02*
X102807966Y-131430612D01*
X102807966Y-131430612D02*
X102807966Y-131644262D01*
D13*
X198750363Y-67271220D02*
X198365130Y-66720887D01*
X198089963Y-67271220D02*
X198089963Y-66115520D01*
X198089963Y-66115520D02*
X198530230Y-66115520D01*
X198530230Y-66115520D02*
X198640297Y-66170553D01*
X198640297Y-66170553D02*
X198695330Y-66225587D01*
X198695330Y-66225587D02*
X198750363Y-66335653D01*
X198750363Y-66335653D02*
X198750363Y-66500753D01*
X198750363Y-66500753D02*
X198695330Y-66610820D01*
X198695330Y-66610820D02*
X198640297Y-66665853D01*
X198640297Y-66665853D02*
X198530230Y-66720887D01*
X198530230Y-66720887D02*
X198089963Y-66720887D01*
X199190630Y-66225587D02*
X199245663Y-66170553D01*
X199245663Y-66170553D02*
X199355730Y-66115520D01*
X199355730Y-66115520D02*
X199630897Y-66115520D01*
X199630897Y-66115520D02*
X199740963Y-66170553D01*
X199740963Y-66170553D02*
X199795997Y-66225587D01*
X199795997Y-66225587D02*
X199851030Y-66335653D01*
X199851030Y-66335653D02*
X199851030Y-66445720D01*
X199851030Y-66445720D02*
X199795997Y-66610820D01*
X199795997Y-66610820D02*
X199135597Y-67271220D01*
X199135597Y-67271220D02*
X199851030Y-67271220D01*
D15*
X102573997Y-115714146D02*
X102974591Y-115714146D01*
X102974591Y-115714146D02*
X103054710Y-115740853D01*
X103054710Y-115740853D02*
X103108123Y-115794265D01*
X103108123Y-115794265D02*
X103134829Y-115874384D01*
X103134829Y-115874384D02*
X103134829Y-115927797D01*
X103108123Y-115473789D02*
X103134829Y-115393671D01*
X103134829Y-115393671D02*
X103134829Y-115260139D01*
X103134829Y-115260139D02*
X103108123Y-115206727D01*
X103108123Y-115206727D02*
X103081416Y-115180020D01*
X103081416Y-115180020D02*
X103028004Y-115153314D01*
X103028004Y-115153314D02*
X102974591Y-115153314D01*
X102974591Y-115153314D02*
X102921179Y-115180020D01*
X102921179Y-115180020D02*
X102894472Y-115206727D01*
X102894472Y-115206727D02*
X102867766Y-115260139D01*
X102867766Y-115260139D02*
X102841060Y-115366964D01*
X102841060Y-115366964D02*
X102814353Y-115420377D01*
X102814353Y-115420377D02*
X102787647Y-115447083D01*
X102787647Y-115447083D02*
X102734235Y-115473789D01*
X102734235Y-115473789D02*
X102680822Y-115473789D01*
X102680822Y-115473789D02*
X102627409Y-115447083D01*
X102627409Y-115447083D02*
X102600703Y-115420377D01*
X102600703Y-115420377D02*
X102573997Y-115366964D01*
X102573997Y-115366964D02*
X102573997Y-115233433D01*
X102573997Y-115233433D02*
X102600703Y-115153314D01*
X102573997Y-114993076D02*
X102573997Y-114672601D01*
X103134829Y-114832838D02*
X102573997Y-114832838D01*
X102627409Y-114085061D02*
X102600703Y-114058355D01*
X102600703Y-114058355D02*
X102573997Y-114004943D01*
X102573997Y-114004943D02*
X102573997Y-113871411D01*
X102573997Y-113871411D02*
X102600703Y-113817999D01*
X102600703Y-113817999D02*
X102627409Y-113791292D01*
X102627409Y-113791292D02*
X102680822Y-113764586D01*
X102680822Y-113764586D02*
X102734235Y-113764586D01*
X102734235Y-113764586D02*
X102814353Y-113791292D01*
X102814353Y-113791292D02*
X103134829Y-114111768D01*
X103134829Y-114111768D02*
X103134829Y-113764586D01*
X103081416Y-113524229D02*
X103108123Y-113497523D01*
X103108123Y-113497523D02*
X103134829Y-113524229D01*
X103134829Y-113524229D02*
X103108123Y-113550935D01*
X103108123Y-113550935D02*
X103081416Y-113524229D01*
X103081416Y-113524229D02*
X103134829Y-113524229D01*
X102573997Y-112990103D02*
X102573997Y-113257166D01*
X102573997Y-113257166D02*
X102841060Y-113283872D01*
X102841060Y-113283872D02*
X102814353Y-113257166D01*
X102814353Y-113257166D02*
X102787647Y-113203754D01*
X102787647Y-113203754D02*
X102787647Y-113070222D01*
X102787647Y-113070222D02*
X102814353Y-113016810D01*
X102814353Y-113016810D02*
X102841060Y-112990103D01*
X102841060Y-112990103D02*
X102894472Y-112963397D01*
X102894472Y-112963397D02*
X103028004Y-112963397D01*
X103028004Y-112963397D02*
X103081416Y-112990103D01*
X103081416Y-112990103D02*
X103108123Y-113016810D01*
X103108123Y-113016810D02*
X103134829Y-113070222D01*
X103134829Y-113070222D02*
X103134829Y-113203754D01*
X103134829Y-113203754D02*
X103108123Y-113257166D01*
X103108123Y-113257166D02*
X103081416Y-113283872D01*
X102760941Y-112482684D02*
X103134829Y-112482684D01*
X102547291Y-112616215D02*
X102947885Y-112749746D01*
X102947885Y-112749746D02*
X102947885Y-112402565D01*
X102573997Y-112242327D02*
X103134829Y-111868439D01*
X102573997Y-111868439D02*
X103134829Y-112242327D01*
X102627409Y-111681494D02*
X102600703Y-111654788D01*
X102600703Y-111654788D02*
X102573997Y-111601376D01*
X102573997Y-111601376D02*
X102573997Y-111467844D01*
X102573997Y-111467844D02*
X102600703Y-111414432D01*
X102600703Y-111414432D02*
X102627409Y-111387725D01*
X102627409Y-111387725D02*
X102680822Y-111361019D01*
X102680822Y-111361019D02*
X102734235Y-111361019D01*
X102734235Y-111361019D02*
X102814353Y-111387725D01*
X102814353Y-111387725D02*
X103134829Y-111708201D01*
X103134829Y-111708201D02*
X103134829Y-111361019D01*
X103134829Y-111120662D02*
X102573997Y-111120662D01*
X102573997Y-111120662D02*
X102573997Y-110907012D01*
X102573997Y-110907012D02*
X102600703Y-110853599D01*
X102600703Y-110853599D02*
X102627409Y-110826893D01*
X102627409Y-110826893D02*
X102680822Y-110800187D01*
X102680822Y-110800187D02*
X102760941Y-110800187D01*
X102760941Y-110800187D02*
X102814353Y-110826893D01*
X102814353Y-110826893D02*
X102841060Y-110853599D01*
X102841060Y-110853599D02*
X102867766Y-110907012D01*
X102867766Y-110907012D02*
X102867766Y-111120662D01*
D16*
X86733295Y-111660577D02*
X88351275Y-111660577D01*
X86887388Y-113355604D02*
X86810342Y-113278557D01*
X86810342Y-113278557D02*
X86733295Y-113047417D01*
X86733295Y-113047417D02*
X86733295Y-112893324D01*
X86733295Y-112893324D02*
X86810342Y-112662184D01*
X86810342Y-112662184D02*
X86964435Y-112508091D01*
X86964435Y-112508091D02*
X87118528Y-112431044D01*
X87118528Y-112431044D02*
X87426715Y-112353997D01*
X87426715Y-112353997D02*
X87657855Y-112353997D01*
X87657855Y-112353997D02*
X87966042Y-112431044D01*
X87966042Y-112431044D02*
X88120135Y-112508091D01*
X88120135Y-112508091D02*
X88274228Y-112662184D01*
X88274228Y-112662184D02*
X88351275Y-112893324D01*
X88351275Y-112893324D02*
X88351275Y-113047417D01*
X88351275Y-113047417D02*
X88274228Y-113278557D01*
X88274228Y-113278557D02*
X88197182Y-113355604D01*
X86733295Y-114896537D02*
X86733295Y-113971977D01*
X86733295Y-114434257D02*
X88351275Y-114434257D01*
X88351275Y-114434257D02*
X88120135Y-114280164D01*
X88120135Y-114280164D02*
X87966042Y-114126071D01*
X87966042Y-114126071D02*
X87888995Y-113971977D01*
D17*
X85257015Y-115710011D02*
X85257015Y-115285469D01*
X85511741Y-115794920D02*
X84620201Y-115497740D01*
X84620201Y-115497740D02*
X85511741Y-115200560D01*
X85511741Y-114436383D02*
X85511741Y-114945834D01*
X85511741Y-114691109D02*
X84620201Y-114691109D01*
X84620201Y-114691109D02*
X84747564Y-114776017D01*
X84747564Y-114776017D02*
X84832472Y-114860926D01*
X84832472Y-114860926D02*
X84874927Y-114945834D01*
X84620201Y-113629751D02*
X84620201Y-114054294D01*
X84620201Y-114054294D02*
X85044744Y-114096748D01*
X85044744Y-114096748D02*
X85002289Y-114054294D01*
X85002289Y-114054294D02*
X84959835Y-113969386D01*
X84959835Y-113969386D02*
X84959835Y-113757114D01*
X84959835Y-113757114D02*
X85002289Y-113672206D01*
X85002289Y-113672206D02*
X85044744Y-113629751D01*
X85044744Y-113629751D02*
X85129652Y-113587297D01*
X85129652Y-113587297D02*
X85341924Y-113587297D01*
X85341924Y-113587297D02*
X85426832Y-113629751D01*
X85426832Y-113629751D02*
X85469287Y-113672206D01*
X85469287Y-113672206D02*
X85511741Y-113757114D01*
X85511741Y-113757114D02*
X85511741Y-113969386D01*
X85511741Y-113969386D02*
X85469287Y-114054294D01*
X85469287Y-114054294D02*
X85426832Y-114096748D01*
X85469287Y-113162754D02*
X85511741Y-113162754D01*
X85511741Y-113162754D02*
X85596649Y-113205208D01*
X85596649Y-113205208D02*
X85639104Y-113247662D01*
X84705109Y-112823119D02*
X84662655Y-112780665D01*
X84662655Y-112780665D02*
X84620201Y-112695757D01*
X84620201Y-112695757D02*
X84620201Y-112483485D01*
X84620201Y-112483485D02*
X84662655Y-112398577D01*
X84662655Y-112398577D02*
X84705109Y-112356122D01*
X84705109Y-112356122D02*
X84790018Y-112313668D01*
X84790018Y-112313668D02*
X84874927Y-112313668D01*
X84874927Y-112313668D02*
X85002289Y-112356122D01*
X85002289Y-112356122D02*
X85511741Y-112865574D01*
X85511741Y-112865574D02*
X85511741Y-112313668D01*
X85511741Y-111931579D02*
X84917381Y-111931579D01*
X85002289Y-111931579D02*
X84959835Y-111889125D01*
X84959835Y-111889125D02*
X84917381Y-111804216D01*
X84917381Y-111804216D02*
X84917381Y-111676853D01*
X84917381Y-111676853D02*
X84959835Y-111591945D01*
X84959835Y-111591945D02*
X85044744Y-111549491D01*
X85044744Y-111549491D02*
X85511741Y-111549491D01*
X85044744Y-111549491D02*
X84959835Y-111507036D01*
X84959835Y-111507036D02*
X84917381Y-111422128D01*
X84917381Y-111422128D02*
X84917381Y-111294765D01*
X84917381Y-111294765D02*
X84959835Y-111209856D01*
X84959835Y-111209856D02*
X85044744Y-111167402D01*
X85044744Y-111167402D02*
X85511741Y-111167402D01*
X85511741Y-110742859D02*
X84917381Y-110742859D01*
X85002289Y-110742859D02*
X84959835Y-110700405D01*
X84959835Y-110700405D02*
X84917381Y-110615496D01*
X84917381Y-110615496D02*
X84917381Y-110488133D01*
X84917381Y-110488133D02*
X84959835Y-110403225D01*
X84959835Y-110403225D02*
X85044744Y-110360771D01*
X85044744Y-110360771D02*
X85511741Y-110360771D01*
X85044744Y-110360771D02*
X84959835Y-110318316D01*
X84959835Y-110318316D02*
X84917381Y-110233408D01*
X84917381Y-110233408D02*
X84917381Y-110106045D01*
X84917381Y-110106045D02*
X84959835Y-110021136D01*
X84959835Y-110021136D02*
X85044744Y-109978682D01*
X85044744Y-109978682D02*
X85511741Y-109978682D01*
D18*
X201095169Y-130354764D02*
X201095169Y-131307191D01*
X201095169Y-131307191D02*
X201151194Y-131419241D01*
X201151194Y-131419241D02*
X201207220Y-131475267D01*
X201207220Y-131475267D02*
X201319270Y-131531292D01*
X201319270Y-131531292D02*
X201543370Y-131531292D01*
X201543370Y-131531292D02*
X201655421Y-131475267D01*
X201655421Y-131475267D02*
X201711446Y-131419241D01*
X201711446Y-131419241D02*
X201767471Y-131307191D01*
X201767471Y-131307191D02*
X201767471Y-130354764D01*
X202271697Y-131475267D02*
X202439773Y-131531292D01*
X202439773Y-131531292D02*
X202719898Y-131531292D01*
X202719898Y-131531292D02*
X202831949Y-131475267D01*
X202831949Y-131475267D02*
X202887974Y-131419241D01*
X202887974Y-131419241D02*
X202943999Y-131307191D01*
X202943999Y-131307191D02*
X202943999Y-131195141D01*
X202943999Y-131195141D02*
X202887974Y-131083091D01*
X202887974Y-131083091D02*
X202831949Y-131027065D01*
X202831949Y-131027065D02*
X202719898Y-130971040D01*
X202719898Y-130971040D02*
X202495798Y-130915015D01*
X202495798Y-130915015D02*
X202383747Y-130858990D01*
X202383747Y-130858990D02*
X202327722Y-130802965D01*
X202327722Y-130802965D02*
X202271697Y-130690915D01*
X202271697Y-130690915D02*
X202271697Y-130578864D01*
X202271697Y-130578864D02*
X202327722Y-130466814D01*
X202327722Y-130466814D02*
X202383747Y-130410789D01*
X202383747Y-130410789D02*
X202495798Y-130354764D01*
X202495798Y-130354764D02*
X202775923Y-130354764D01*
X202775923Y-130354764D02*
X202943999Y-130410789D01*
X202607848Y-130186688D02*
X202607848Y-131699367D01*
X204064502Y-131531292D02*
X203392200Y-131531292D01*
X203728351Y-131531292D02*
X203728351Y-130354764D01*
X203728351Y-130354764D02*
X203616301Y-130522839D01*
X203616301Y-130522839D02*
X203504250Y-130634889D01*
X203504250Y-130634889D02*
X203392200Y-130690915D01*
X205185005Y-131531292D02*
X204512703Y-131531292D01*
X204848854Y-131531292D02*
X204848854Y-130354764D01*
X204848854Y-130354764D02*
X204736804Y-130522839D01*
X204736804Y-130522839D02*
X204624753Y-130634889D01*
X204624753Y-130634889D02*
X204512703Y-130690915D01*
D19*
X168578833Y-123129625D02*
X168578833Y-123441198D01*
X168089218Y-123574730D02*
X168089218Y-123129625D01*
X168089218Y-123129625D02*
X169023938Y-123129625D01*
X169023938Y-123129625D02*
X169023938Y-123574730D01*
X168089218Y-123975324D02*
X169023938Y-123975324D01*
X169023938Y-123975324D02*
X168089218Y-124509450D01*
X168089218Y-124509450D02*
X169023938Y-124509450D01*
X168109218Y-105409625D02*
X169043938Y-105409625D01*
X169043938Y-106032772D02*
X169043938Y-106210814D01*
X169043938Y-106210814D02*
X168999428Y-106299835D01*
X168999428Y-106299835D02*
X168910407Y-106388856D01*
X168910407Y-106388856D02*
X168732365Y-106433366D01*
X168732365Y-106433366D02*
X168420791Y-106433366D01*
X168420791Y-106433366D02*
X168242749Y-106388856D01*
X168242749Y-106388856D02*
X168153729Y-106299835D01*
X168153729Y-106299835D02*
X168109218Y-106210814D01*
X168109218Y-106210814D02*
X168109218Y-106032772D01*
X168109218Y-106032772D02*
X168153729Y-105943751D01*
X168153729Y-105943751D02*
X168242749Y-105854730D01*
X168242749Y-105854730D02*
X168420791Y-105810219D01*
X168420791Y-105810219D02*
X168732365Y-105810219D01*
X168732365Y-105810219D02*
X168910407Y-105854730D01*
X168910407Y-105854730D02*
X168999428Y-105943751D01*
X168999428Y-105943751D02*
X169043938Y-106032772D01*
X168954917Y-106789449D02*
X168999428Y-106833960D01*
X168999428Y-106833960D02*
X169043938Y-106922981D01*
X169043938Y-106922981D02*
X169043938Y-107145533D01*
X169043938Y-107145533D02*
X168999428Y-107234554D01*
X168999428Y-107234554D02*
X168954917Y-107279065D01*
X168954917Y-107279065D02*
X168865896Y-107323575D01*
X168865896Y-107323575D02*
X168776875Y-107323575D01*
X168776875Y-107323575D02*
X168643344Y-107279065D01*
X168643344Y-107279065D02*
X168109218Y-106744939D01*
X168109218Y-106744939D02*
X168109218Y-107323575D01*
X169043938Y-107635149D02*
X169043938Y-108213785D01*
X169043938Y-108213785D02*
X168687854Y-107902212D01*
X168687854Y-107902212D02*
X168687854Y-108035743D01*
X168687854Y-108035743D02*
X168643344Y-108124764D01*
X168643344Y-108124764D02*
X168598833Y-108169275D01*
X168598833Y-108169275D02*
X168509812Y-108213785D01*
X168509812Y-108213785D02*
X168287260Y-108213785D01*
X168287260Y-108213785D02*
X168198239Y-108169275D01*
X168198239Y-108169275D02*
X168153729Y-108124764D01*
X168153729Y-108124764D02*
X168109218Y-108035743D01*
X168109218Y-108035743D02*
X168109218Y-107768680D01*
X168109218Y-107768680D02*
X168153729Y-107679659D01*
X168153729Y-107679659D02*
X168198239Y-107635149D01*
X171563938Y-122996093D02*
X170629218Y-123307667D01*
X170629218Y-123307667D02*
X171563938Y-123619240D01*
X170629218Y-123930814D02*
X171563938Y-123930814D01*
X171563938Y-123930814D02*
X171563938Y-124286898D01*
X171563938Y-124286898D02*
X171519428Y-124375919D01*
X171519428Y-124375919D02*
X171474917Y-124420429D01*
X171474917Y-124420429D02*
X171385896Y-124464940D01*
X171385896Y-124464940D02*
X171252365Y-124464940D01*
X171252365Y-124464940D02*
X171163344Y-124420429D01*
X171163344Y-124420429D02*
X171118833Y-124375919D01*
X171118833Y-124375919D02*
X171074323Y-124286898D01*
X171074323Y-124286898D02*
X171074323Y-123930814D01*
X170649218Y-105409625D02*
X171583938Y-105409625D01*
X171583938Y-106032772D02*
X171583938Y-106210814D01*
X171583938Y-106210814D02*
X171539428Y-106299835D01*
X171539428Y-106299835D02*
X171450407Y-106388856D01*
X171450407Y-106388856D02*
X171272365Y-106433366D01*
X171272365Y-106433366D02*
X170960791Y-106433366D01*
X170960791Y-106433366D02*
X170782749Y-106388856D01*
X170782749Y-106388856D02*
X170693729Y-106299835D01*
X170693729Y-106299835D02*
X170649218Y-106210814D01*
X170649218Y-106210814D02*
X170649218Y-106032772D01*
X170649218Y-106032772D02*
X170693729Y-105943751D01*
X170693729Y-105943751D02*
X170782749Y-105854730D01*
X170782749Y-105854730D02*
X170960791Y-105810219D01*
X170960791Y-105810219D02*
X171272365Y-105810219D01*
X171272365Y-105810219D02*
X171450407Y-105854730D01*
X171450407Y-105854730D02*
X171539428Y-105943751D01*
X171539428Y-105943751D02*
X171583938Y-106032772D01*
X171494917Y-106789449D02*
X171539428Y-106833960D01*
X171539428Y-106833960D02*
X171583938Y-106922981D01*
X171583938Y-106922981D02*
X171583938Y-107145533D01*
X171583938Y-107145533D02*
X171539428Y-107234554D01*
X171539428Y-107234554D02*
X171494917Y-107279065D01*
X171494917Y-107279065D02*
X171405896Y-107323575D01*
X171405896Y-107323575D02*
X171316875Y-107323575D01*
X171316875Y-107323575D02*
X171183344Y-107279065D01*
X171183344Y-107279065D02*
X170649218Y-106744939D01*
X170649218Y-106744939D02*
X170649218Y-107323575D01*
X171494917Y-107679659D02*
X171539428Y-107724170D01*
X171539428Y-107724170D02*
X171583938Y-107813191D01*
X171583938Y-107813191D02*
X171583938Y-108035743D01*
X171583938Y-108035743D02*
X171539428Y-108124764D01*
X171539428Y-108124764D02*
X171494917Y-108169275D01*
X171494917Y-108169275D02*
X171405896Y-108213785D01*
X171405896Y-108213785D02*
X171316875Y-108213785D01*
X171316875Y-108213785D02*
X171183344Y-108169275D01*
X171183344Y-108169275D02*
X170649218Y-107635149D01*
X170649218Y-107635149D02*
X170649218Y-108213785D01*
X174103938Y-122996093D02*
X173169218Y-123307667D01*
X173169218Y-123307667D02*
X174103938Y-123619240D01*
X173169218Y-123930814D02*
X174103938Y-123930814D01*
X174103938Y-123930814D02*
X173169218Y-124464940D01*
X173169218Y-124464940D02*
X174103938Y-124464940D01*
X173189218Y-105409625D02*
X174123938Y-105409625D01*
X174123938Y-106032772D02*
X174123938Y-106210814D01*
X174123938Y-106210814D02*
X174079428Y-106299835D01*
X174079428Y-106299835D02*
X173990407Y-106388856D01*
X173990407Y-106388856D02*
X173812365Y-106433366D01*
X173812365Y-106433366D02*
X173500791Y-106433366D01*
X173500791Y-106433366D02*
X173322749Y-106388856D01*
X173322749Y-106388856D02*
X173233729Y-106299835D01*
X173233729Y-106299835D02*
X173189218Y-106210814D01*
X173189218Y-106210814D02*
X173189218Y-106032772D01*
X173189218Y-106032772D02*
X173233729Y-105943751D01*
X173233729Y-105943751D02*
X173322749Y-105854730D01*
X173322749Y-105854730D02*
X173500791Y-105810219D01*
X173500791Y-105810219D02*
X173812365Y-105810219D01*
X173812365Y-105810219D02*
X173990407Y-105854730D01*
X173990407Y-105854730D02*
X174079428Y-105943751D01*
X174079428Y-105943751D02*
X174123938Y-106032772D01*
X173189218Y-107323575D02*
X173189218Y-106789449D01*
X173189218Y-107056512D02*
X174123938Y-107056512D01*
X174123938Y-107056512D02*
X173990407Y-106967491D01*
X173990407Y-106967491D02*
X173901386Y-106878470D01*
X173901386Y-106878470D02*
X173856875Y-106789449D01*
X175709218Y-123129625D02*
X176643938Y-123129625D01*
X176643938Y-123752772D02*
X176643938Y-123930814D01*
X176643938Y-123930814D02*
X176599428Y-124019835D01*
X176599428Y-124019835D02*
X176510407Y-124108856D01*
X176510407Y-124108856D02*
X176332365Y-124153366D01*
X176332365Y-124153366D02*
X176020791Y-124153366D01*
X176020791Y-124153366D02*
X175842749Y-124108856D01*
X175842749Y-124108856D02*
X175753729Y-124019835D01*
X175753729Y-124019835D02*
X175709218Y-123930814D01*
X175709218Y-123930814D02*
X175709218Y-123752772D01*
X175709218Y-123752772D02*
X175753729Y-123663751D01*
X175753729Y-123663751D02*
X175842749Y-123574730D01*
X175842749Y-123574730D02*
X176020791Y-123530219D01*
X176020791Y-123530219D02*
X176332365Y-123530219D01*
X176332365Y-123530219D02*
X176510407Y-123574730D01*
X176510407Y-123574730D02*
X176599428Y-123663751D01*
X176599428Y-123663751D02*
X176643938Y-123752772D01*
X176643938Y-124464939D02*
X176643938Y-125043575D01*
X176643938Y-125043575D02*
X176287854Y-124732002D01*
X176287854Y-124732002D02*
X176287854Y-124865533D01*
X176287854Y-124865533D02*
X176243344Y-124954554D01*
X176243344Y-124954554D02*
X176198833Y-124999065D01*
X176198833Y-124999065D02*
X176109812Y-125043575D01*
X176109812Y-125043575D02*
X175887260Y-125043575D01*
X175887260Y-125043575D02*
X175798239Y-124999065D01*
X175798239Y-124999065D02*
X175753729Y-124954554D01*
X175753729Y-124954554D02*
X175709218Y-124865533D01*
X175709218Y-124865533D02*
X175709218Y-124598470D01*
X175709218Y-124598470D02*
X175753729Y-124509449D01*
X175753729Y-124509449D02*
X175798239Y-124464939D01*
X176332365Y-125844764D02*
X175709218Y-125844764D01*
X176688449Y-125622212D02*
X176020791Y-125399659D01*
X176020791Y-125399659D02*
X176020791Y-125978296D01*
X175729218Y-105409625D02*
X176663938Y-105409625D01*
X176663938Y-106032772D02*
X176663938Y-106210814D01*
X176663938Y-106210814D02*
X176619428Y-106299835D01*
X176619428Y-106299835D02*
X176530407Y-106388856D01*
X176530407Y-106388856D02*
X176352365Y-106433366D01*
X176352365Y-106433366D02*
X176040791Y-106433366D01*
X176040791Y-106433366D02*
X175862749Y-106388856D01*
X175862749Y-106388856D02*
X175773729Y-106299835D01*
X175773729Y-106299835D02*
X175729218Y-106210814D01*
X175729218Y-106210814D02*
X175729218Y-106032772D01*
X175729218Y-106032772D02*
X175773729Y-105943751D01*
X175773729Y-105943751D02*
X175862749Y-105854730D01*
X175862749Y-105854730D02*
X176040791Y-105810219D01*
X176040791Y-105810219D02*
X176352365Y-105810219D01*
X176352365Y-105810219D02*
X176530407Y-105854730D01*
X176530407Y-105854730D02*
X176619428Y-105943751D01*
X176619428Y-105943751D02*
X176663938Y-106032772D01*
X176663938Y-106744939D02*
X176663938Y-107323575D01*
X176663938Y-107323575D02*
X176307854Y-107012002D01*
X176307854Y-107012002D02*
X176307854Y-107145533D01*
X176307854Y-107145533D02*
X176263344Y-107234554D01*
X176263344Y-107234554D02*
X176218833Y-107279065D01*
X176218833Y-107279065D02*
X176129812Y-107323575D01*
X176129812Y-107323575D02*
X175907260Y-107323575D01*
X175907260Y-107323575D02*
X175818239Y-107279065D01*
X175818239Y-107279065D02*
X175773729Y-107234554D01*
X175773729Y-107234554D02*
X175729218Y-107145533D01*
X175729218Y-107145533D02*
X175729218Y-106878470D01*
X175729218Y-106878470D02*
X175773729Y-106789449D01*
X175773729Y-106789449D02*
X175818239Y-106744939D01*
X178249218Y-123129625D02*
X179183938Y-123129625D01*
X179183938Y-123752772D02*
X179183938Y-123930814D01*
X179183938Y-123930814D02*
X179139428Y-124019835D01*
X179139428Y-124019835D02*
X179050407Y-124108856D01*
X179050407Y-124108856D02*
X178872365Y-124153366D01*
X178872365Y-124153366D02*
X178560791Y-124153366D01*
X178560791Y-124153366D02*
X178382749Y-124108856D01*
X178382749Y-124108856D02*
X178293729Y-124019835D01*
X178293729Y-124019835D02*
X178249218Y-123930814D01*
X178249218Y-123930814D02*
X178249218Y-123752772D01*
X178249218Y-123752772D02*
X178293729Y-123663751D01*
X178293729Y-123663751D02*
X178382749Y-123574730D01*
X178382749Y-123574730D02*
X178560791Y-123530219D01*
X178560791Y-123530219D02*
X178872365Y-123530219D01*
X178872365Y-123530219D02*
X179050407Y-123574730D01*
X179050407Y-123574730D02*
X179139428Y-123663751D01*
X179139428Y-123663751D02*
X179183938Y-123752772D01*
X179183938Y-124464939D02*
X179183938Y-125043575D01*
X179183938Y-125043575D02*
X178827854Y-124732002D01*
X178827854Y-124732002D02*
X178827854Y-124865533D01*
X178827854Y-124865533D02*
X178783344Y-124954554D01*
X178783344Y-124954554D02*
X178738833Y-124999065D01*
X178738833Y-124999065D02*
X178649812Y-125043575D01*
X178649812Y-125043575D02*
X178427260Y-125043575D01*
X178427260Y-125043575D02*
X178338239Y-124999065D01*
X178338239Y-124999065D02*
X178293729Y-124954554D01*
X178293729Y-124954554D02*
X178249218Y-124865533D01*
X178249218Y-124865533D02*
X178249218Y-124598470D01*
X178249218Y-124598470D02*
X178293729Y-124509449D01*
X178293729Y-124509449D02*
X178338239Y-124464939D01*
X179183938Y-125889275D02*
X179183938Y-125444170D01*
X179183938Y-125444170D02*
X178738833Y-125399659D01*
X178738833Y-125399659D02*
X178783344Y-125444170D01*
X178783344Y-125444170D02*
X178827854Y-125533191D01*
X178827854Y-125533191D02*
X178827854Y-125755743D01*
X178827854Y-125755743D02*
X178783344Y-125844764D01*
X178783344Y-125844764D02*
X178738833Y-125889275D01*
X178738833Y-125889275D02*
X178649812Y-125933785D01*
X178649812Y-125933785D02*
X178427260Y-125933785D01*
X178427260Y-125933785D02*
X178338239Y-125889275D01*
X178338239Y-125889275D02*
X178293729Y-125844764D01*
X178293729Y-125844764D02*
X178249218Y-125755743D01*
X178249218Y-125755743D02*
X178249218Y-125533191D01*
X178249218Y-125533191D02*
X178293729Y-125444170D01*
X178293729Y-125444170D02*
X178338239Y-125399659D01*
X178269218Y-105409625D02*
X179203938Y-105409625D01*
X179203938Y-106032772D02*
X179203938Y-106210814D01*
X179203938Y-106210814D02*
X179159428Y-106299835D01*
X179159428Y-106299835D02*
X179070407Y-106388856D01*
X179070407Y-106388856D02*
X178892365Y-106433366D01*
X178892365Y-106433366D02*
X178580791Y-106433366D01*
X178580791Y-106433366D02*
X178402749Y-106388856D01*
X178402749Y-106388856D02*
X178313729Y-106299835D01*
X178313729Y-106299835D02*
X178269218Y-106210814D01*
X178269218Y-106210814D02*
X178269218Y-106032772D01*
X178269218Y-106032772D02*
X178313729Y-105943751D01*
X178313729Y-105943751D02*
X178402749Y-105854730D01*
X178402749Y-105854730D02*
X178580791Y-105810219D01*
X178580791Y-105810219D02*
X178892365Y-105810219D01*
X178892365Y-105810219D02*
X179070407Y-105854730D01*
X179070407Y-105854730D02*
X179159428Y-105943751D01*
X179159428Y-105943751D02*
X179203938Y-106032772D01*
X179114917Y-106789449D02*
X179159428Y-106833960D01*
X179159428Y-106833960D02*
X179203938Y-106922981D01*
X179203938Y-106922981D02*
X179203938Y-107145533D01*
X179203938Y-107145533D02*
X179159428Y-107234554D01*
X179159428Y-107234554D02*
X179114917Y-107279065D01*
X179114917Y-107279065D02*
X179025896Y-107323575D01*
X179025896Y-107323575D02*
X178936875Y-107323575D01*
X178936875Y-107323575D02*
X178803344Y-107279065D01*
X178803344Y-107279065D02*
X178269218Y-106744939D01*
X178269218Y-106744939D02*
X178269218Y-107323575D01*
X178269218Y-108213785D02*
X178269218Y-107679659D01*
X178269218Y-107946722D02*
X179203938Y-107946722D01*
X179203938Y-107946722D02*
X179070407Y-107857701D01*
X179070407Y-107857701D02*
X178981386Y-107768680D01*
X178981386Y-107768680D02*
X178936875Y-107679659D01*
X180789218Y-123129625D02*
X181723938Y-123129625D01*
X181723938Y-123752772D02*
X181723938Y-123930814D01*
X181723938Y-123930814D02*
X181679428Y-124019835D01*
X181679428Y-124019835D02*
X181590407Y-124108856D01*
X181590407Y-124108856D02*
X181412365Y-124153366D01*
X181412365Y-124153366D02*
X181100791Y-124153366D01*
X181100791Y-124153366D02*
X180922749Y-124108856D01*
X180922749Y-124108856D02*
X180833729Y-124019835D01*
X180833729Y-124019835D02*
X180789218Y-123930814D01*
X180789218Y-123930814D02*
X180789218Y-123752772D01*
X180789218Y-123752772D02*
X180833729Y-123663751D01*
X180833729Y-123663751D02*
X180922749Y-123574730D01*
X180922749Y-123574730D02*
X181100791Y-123530219D01*
X181100791Y-123530219D02*
X181412365Y-123530219D01*
X181412365Y-123530219D02*
X181590407Y-123574730D01*
X181590407Y-123574730D02*
X181679428Y-123663751D01*
X181679428Y-123663751D02*
X181723938Y-123752772D01*
X181723938Y-124464939D02*
X181723938Y-125043575D01*
X181723938Y-125043575D02*
X181367854Y-124732002D01*
X181367854Y-124732002D02*
X181367854Y-124865533D01*
X181367854Y-124865533D02*
X181323344Y-124954554D01*
X181323344Y-124954554D02*
X181278833Y-124999065D01*
X181278833Y-124999065D02*
X181189812Y-125043575D01*
X181189812Y-125043575D02*
X180967260Y-125043575D01*
X180967260Y-125043575D02*
X180878239Y-124999065D01*
X180878239Y-124999065D02*
X180833729Y-124954554D01*
X180833729Y-124954554D02*
X180789218Y-124865533D01*
X180789218Y-124865533D02*
X180789218Y-124598470D01*
X180789218Y-124598470D02*
X180833729Y-124509449D01*
X180833729Y-124509449D02*
X180878239Y-124464939D01*
X181634917Y-125399659D02*
X181679428Y-125444170D01*
X181679428Y-125444170D02*
X181723938Y-125533191D01*
X181723938Y-125533191D02*
X181723938Y-125755743D01*
X181723938Y-125755743D02*
X181679428Y-125844764D01*
X181679428Y-125844764D02*
X181634917Y-125889275D01*
X181634917Y-125889275D02*
X181545896Y-125933785D01*
X181545896Y-125933785D02*
X181456875Y-125933785D01*
X181456875Y-125933785D02*
X181323344Y-125889275D01*
X181323344Y-125889275D02*
X180789218Y-125355149D01*
X180789218Y-125355149D02*
X180789218Y-125933785D01*
X180809218Y-105409625D02*
X181743938Y-105409625D01*
X181743938Y-106032772D02*
X181743938Y-106210814D01*
X181743938Y-106210814D02*
X181699428Y-106299835D01*
X181699428Y-106299835D02*
X181610407Y-106388856D01*
X181610407Y-106388856D02*
X181432365Y-106433366D01*
X181432365Y-106433366D02*
X181120791Y-106433366D01*
X181120791Y-106433366D02*
X180942749Y-106388856D01*
X180942749Y-106388856D02*
X180853729Y-106299835D01*
X180853729Y-106299835D02*
X180809218Y-106210814D01*
X180809218Y-106210814D02*
X180809218Y-106032772D01*
X180809218Y-106032772D02*
X180853729Y-105943751D01*
X180853729Y-105943751D02*
X180942749Y-105854730D01*
X180942749Y-105854730D02*
X181120791Y-105810219D01*
X181120791Y-105810219D02*
X181432365Y-105810219D01*
X181432365Y-105810219D02*
X181610407Y-105854730D01*
X181610407Y-105854730D02*
X181699428Y-105943751D01*
X181699428Y-105943751D02*
X181743938Y-106032772D01*
X180809218Y-107323575D02*
X180809218Y-106789449D01*
X180809218Y-107056512D02*
X181743938Y-107056512D01*
X181743938Y-107056512D02*
X181610407Y-106967491D01*
X181610407Y-106967491D02*
X181521386Y-106878470D01*
X181521386Y-106878470D02*
X181476875Y-106789449D01*
X180809218Y-107768680D02*
X180809218Y-107946722D01*
X180809218Y-107946722D02*
X180853729Y-108035743D01*
X180853729Y-108035743D02*
X180898239Y-108080254D01*
X180898239Y-108080254D02*
X181031770Y-108169275D01*
X181031770Y-108169275D02*
X181209812Y-108213785D01*
X181209812Y-108213785D02*
X181565896Y-108213785D01*
X181565896Y-108213785D02*
X181654917Y-108169275D01*
X181654917Y-108169275D02*
X181699428Y-108124764D01*
X181699428Y-108124764D02*
X181743938Y-108035743D01*
X181743938Y-108035743D02*
X181743938Y-107857701D01*
X181743938Y-107857701D02*
X181699428Y-107768680D01*
X181699428Y-107768680D02*
X181654917Y-107724170D01*
X181654917Y-107724170D02*
X181565896Y-107679659D01*
X181565896Y-107679659D02*
X181343344Y-107679659D01*
X181343344Y-107679659D02*
X181254323Y-107724170D01*
X181254323Y-107724170D02*
X181209812Y-107768680D01*
X181209812Y-107768680D02*
X181165302Y-107857701D01*
X181165302Y-107857701D02*
X181165302Y-108035743D01*
X181165302Y-108035743D02*
X181209812Y-108124764D01*
X181209812Y-108124764D02*
X181254323Y-108169275D01*
X181254323Y-108169275D02*
X181343344Y-108213785D01*
X183329218Y-123129625D02*
X184263938Y-123129625D01*
X184263938Y-123752772D02*
X184263938Y-123930814D01*
X184263938Y-123930814D02*
X184219428Y-124019835D01*
X184219428Y-124019835D02*
X184130407Y-124108856D01*
X184130407Y-124108856D02*
X183952365Y-124153366D01*
X183952365Y-124153366D02*
X183640791Y-124153366D01*
X183640791Y-124153366D02*
X183462749Y-124108856D01*
X183462749Y-124108856D02*
X183373729Y-124019835D01*
X183373729Y-124019835D02*
X183329218Y-123930814D01*
X183329218Y-123930814D02*
X183329218Y-123752772D01*
X183329218Y-123752772D02*
X183373729Y-123663751D01*
X183373729Y-123663751D02*
X183462749Y-123574730D01*
X183462749Y-123574730D02*
X183640791Y-123530219D01*
X183640791Y-123530219D02*
X183952365Y-123530219D01*
X183952365Y-123530219D02*
X184130407Y-123574730D01*
X184130407Y-123574730D02*
X184219428Y-123663751D01*
X184219428Y-123663751D02*
X184263938Y-123752772D01*
X184263938Y-124464939D02*
X184263938Y-125043575D01*
X184263938Y-125043575D02*
X183907854Y-124732002D01*
X183907854Y-124732002D02*
X183907854Y-124865533D01*
X183907854Y-124865533D02*
X183863344Y-124954554D01*
X183863344Y-124954554D02*
X183818833Y-124999065D01*
X183818833Y-124999065D02*
X183729812Y-125043575D01*
X183729812Y-125043575D02*
X183507260Y-125043575D01*
X183507260Y-125043575D02*
X183418239Y-124999065D01*
X183418239Y-124999065D02*
X183373729Y-124954554D01*
X183373729Y-124954554D02*
X183329218Y-124865533D01*
X183329218Y-124865533D02*
X183329218Y-124598470D01*
X183329218Y-124598470D02*
X183373729Y-124509449D01*
X183373729Y-124509449D02*
X183418239Y-124464939D01*
X184263938Y-125355149D02*
X184263938Y-125933785D01*
X184263938Y-125933785D02*
X183907854Y-125622212D01*
X183907854Y-125622212D02*
X183907854Y-125755743D01*
X183907854Y-125755743D02*
X183863344Y-125844764D01*
X183863344Y-125844764D02*
X183818833Y-125889275D01*
X183818833Y-125889275D02*
X183729812Y-125933785D01*
X183729812Y-125933785D02*
X183507260Y-125933785D01*
X183507260Y-125933785D02*
X183418239Y-125889275D01*
X183418239Y-125889275D02*
X183373729Y-125844764D01*
X183373729Y-125844764D02*
X183329218Y-125755743D01*
X183329218Y-125755743D02*
X183329218Y-125488680D01*
X183329218Y-125488680D02*
X183373729Y-125399659D01*
X183373729Y-125399659D02*
X183418239Y-125355149D01*
X183349218Y-105409625D02*
X184283938Y-105409625D01*
X184283938Y-106032772D02*
X184283938Y-106210814D01*
X184283938Y-106210814D02*
X184239428Y-106299835D01*
X184239428Y-106299835D02*
X184150407Y-106388856D01*
X184150407Y-106388856D02*
X183972365Y-106433366D01*
X183972365Y-106433366D02*
X183660791Y-106433366D01*
X183660791Y-106433366D02*
X183482749Y-106388856D01*
X183482749Y-106388856D02*
X183393729Y-106299835D01*
X183393729Y-106299835D02*
X183349218Y-106210814D01*
X183349218Y-106210814D02*
X183349218Y-106032772D01*
X183349218Y-106032772D02*
X183393729Y-105943751D01*
X183393729Y-105943751D02*
X183482749Y-105854730D01*
X183482749Y-105854730D02*
X183660791Y-105810219D01*
X183660791Y-105810219D02*
X183972365Y-105810219D01*
X183972365Y-105810219D02*
X184150407Y-105854730D01*
X184150407Y-105854730D02*
X184239428Y-105943751D01*
X184239428Y-105943751D02*
X184283938Y-106032772D01*
X183349218Y-107323575D02*
X183349218Y-106789449D01*
X183349218Y-107056512D02*
X184283938Y-107056512D01*
X184283938Y-107056512D02*
X184150407Y-106967491D01*
X184150407Y-106967491D02*
X184061386Y-106878470D01*
X184061386Y-106878470D02*
X184016875Y-106789449D01*
X183883344Y-107857701D02*
X183927854Y-107768680D01*
X183927854Y-107768680D02*
X183972365Y-107724170D01*
X183972365Y-107724170D02*
X184061386Y-107679659D01*
X184061386Y-107679659D02*
X184105896Y-107679659D01*
X184105896Y-107679659D02*
X184194917Y-107724170D01*
X184194917Y-107724170D02*
X184239428Y-107768680D01*
X184239428Y-107768680D02*
X184283938Y-107857701D01*
X184283938Y-107857701D02*
X184283938Y-108035743D01*
X184283938Y-108035743D02*
X184239428Y-108124764D01*
X184239428Y-108124764D02*
X184194917Y-108169275D01*
X184194917Y-108169275D02*
X184105896Y-108213785D01*
X184105896Y-108213785D02*
X184061386Y-108213785D01*
X184061386Y-108213785D02*
X183972365Y-108169275D01*
X183972365Y-108169275D02*
X183927854Y-108124764D01*
X183927854Y-108124764D02*
X183883344Y-108035743D01*
X183883344Y-108035743D02*
X183883344Y-107857701D01*
X183883344Y-107857701D02*
X183838833Y-107768680D01*
X183838833Y-107768680D02*
X183794323Y-107724170D01*
X183794323Y-107724170D02*
X183705302Y-107679659D01*
X183705302Y-107679659D02*
X183527260Y-107679659D01*
X183527260Y-107679659D02*
X183438239Y-107724170D01*
X183438239Y-107724170D02*
X183393729Y-107768680D01*
X183393729Y-107768680D02*
X183349218Y-107857701D01*
X183349218Y-107857701D02*
X183349218Y-108035743D01*
X183349218Y-108035743D02*
X183393729Y-108124764D01*
X183393729Y-108124764D02*
X183438239Y-108169275D01*
X183438239Y-108169275D02*
X183527260Y-108213785D01*
X183527260Y-108213785D02*
X183705302Y-108213785D01*
X183705302Y-108213785D02*
X183794323Y-108169275D01*
X183794323Y-108169275D02*
X183838833Y-108124764D01*
X183838833Y-108124764D02*
X183883344Y-108035743D01*
X185869218Y-123129625D02*
X186803938Y-123129625D01*
X186803938Y-123752772D02*
X186803938Y-123930814D01*
X186803938Y-123930814D02*
X186759428Y-124019835D01*
X186759428Y-124019835D02*
X186670407Y-124108856D01*
X186670407Y-124108856D02*
X186492365Y-124153366D01*
X186492365Y-124153366D02*
X186180791Y-124153366D01*
X186180791Y-124153366D02*
X186002749Y-124108856D01*
X186002749Y-124108856D02*
X185913729Y-124019835D01*
X185913729Y-124019835D02*
X185869218Y-123930814D01*
X185869218Y-123930814D02*
X185869218Y-123752772D01*
X185869218Y-123752772D02*
X185913729Y-123663751D01*
X185913729Y-123663751D02*
X186002749Y-123574730D01*
X186002749Y-123574730D02*
X186180791Y-123530219D01*
X186180791Y-123530219D02*
X186492365Y-123530219D01*
X186492365Y-123530219D02*
X186670407Y-123574730D01*
X186670407Y-123574730D02*
X186759428Y-123663751D01*
X186759428Y-123663751D02*
X186803938Y-123752772D01*
X186714917Y-124509449D02*
X186759428Y-124553960D01*
X186759428Y-124553960D02*
X186803938Y-124642981D01*
X186803938Y-124642981D02*
X186803938Y-124865533D01*
X186803938Y-124865533D02*
X186759428Y-124954554D01*
X186759428Y-124954554D02*
X186714917Y-124999065D01*
X186714917Y-124999065D02*
X186625896Y-125043575D01*
X186625896Y-125043575D02*
X186536875Y-125043575D01*
X186536875Y-125043575D02*
X186403344Y-124999065D01*
X186403344Y-124999065D02*
X185869218Y-124464939D01*
X185869218Y-124464939D02*
X185869218Y-125043575D01*
X186803938Y-125889275D02*
X186803938Y-125444170D01*
X186803938Y-125444170D02*
X186358833Y-125399659D01*
X186358833Y-125399659D02*
X186403344Y-125444170D01*
X186403344Y-125444170D02*
X186447854Y-125533191D01*
X186447854Y-125533191D02*
X186447854Y-125755743D01*
X186447854Y-125755743D02*
X186403344Y-125844764D01*
X186403344Y-125844764D02*
X186358833Y-125889275D01*
X186358833Y-125889275D02*
X186269812Y-125933785D01*
X186269812Y-125933785D02*
X186047260Y-125933785D01*
X186047260Y-125933785D02*
X185958239Y-125889275D01*
X185958239Y-125889275D02*
X185913729Y-125844764D01*
X185913729Y-125844764D02*
X185869218Y-125755743D01*
X185869218Y-125755743D02*
X185869218Y-125533191D01*
X185869218Y-125533191D02*
X185913729Y-125444170D01*
X185913729Y-125444170D02*
X185958239Y-125399659D01*
X185889218Y-105409625D02*
X186823938Y-105409625D01*
X186823938Y-106032772D02*
X186823938Y-106210814D01*
X186823938Y-106210814D02*
X186779428Y-106299835D01*
X186779428Y-106299835D02*
X186690407Y-106388856D01*
X186690407Y-106388856D02*
X186512365Y-106433366D01*
X186512365Y-106433366D02*
X186200791Y-106433366D01*
X186200791Y-106433366D02*
X186022749Y-106388856D01*
X186022749Y-106388856D02*
X185933729Y-106299835D01*
X185933729Y-106299835D02*
X185889218Y-106210814D01*
X185889218Y-106210814D02*
X185889218Y-106032772D01*
X185889218Y-106032772D02*
X185933729Y-105943751D01*
X185933729Y-105943751D02*
X186022749Y-105854730D01*
X186022749Y-105854730D02*
X186200791Y-105810219D01*
X186200791Y-105810219D02*
X186512365Y-105810219D01*
X186512365Y-105810219D02*
X186690407Y-105854730D01*
X186690407Y-105854730D02*
X186779428Y-105943751D01*
X186779428Y-105943751D02*
X186823938Y-106032772D01*
X186823938Y-107279065D02*
X186823938Y-106833960D01*
X186823938Y-106833960D02*
X186378833Y-106789449D01*
X186378833Y-106789449D02*
X186423344Y-106833960D01*
X186423344Y-106833960D02*
X186467854Y-106922981D01*
X186467854Y-106922981D02*
X186467854Y-107145533D01*
X186467854Y-107145533D02*
X186423344Y-107234554D01*
X186423344Y-107234554D02*
X186378833Y-107279065D01*
X186378833Y-107279065D02*
X186289812Y-107323575D01*
X186289812Y-107323575D02*
X186067260Y-107323575D01*
X186067260Y-107323575D02*
X185978239Y-107279065D01*
X185978239Y-107279065D02*
X185933729Y-107234554D01*
X185933729Y-107234554D02*
X185889218Y-107145533D01*
X185889218Y-107145533D02*
X185889218Y-106922981D01*
X185889218Y-106922981D02*
X185933729Y-106833960D01*
X185933729Y-106833960D02*
X185978239Y-106789449D01*
D20*
X185746150Y-114309244D02*
X185154161Y-114309244D01*
X184900451Y-113378975D02*
X185746150Y-113378975D01*
X185746150Y-113378975D02*
X185746150Y-115154943D01*
X185746150Y-115154943D02*
X184900451Y-115154943D01*
X184223892Y-113463545D02*
X183970182Y-113378975D01*
X183970182Y-113378975D02*
X183547333Y-113378975D01*
X183547333Y-113378975D02*
X183378193Y-113463545D01*
X183378193Y-113463545D02*
X183293623Y-113548114D01*
X183293623Y-113548114D02*
X183209053Y-113717254D01*
X183209053Y-113717254D02*
X183209053Y-113886394D01*
X183209053Y-113886394D02*
X183293623Y-114055534D01*
X183293623Y-114055534D02*
X183378193Y-114140104D01*
X183378193Y-114140104D02*
X183547333Y-114224674D01*
X183547333Y-114224674D02*
X183885612Y-114309244D01*
X183885612Y-114309244D02*
X184054752Y-114393813D01*
X184054752Y-114393813D02*
X184139322Y-114478383D01*
X184139322Y-114478383D02*
X184223892Y-114647523D01*
X184223892Y-114647523D02*
X184223892Y-114816663D01*
X184223892Y-114816663D02*
X184139322Y-114985803D01*
X184139322Y-114985803D02*
X184054752Y-115070373D01*
X184054752Y-115070373D02*
X183885612Y-115154943D01*
X183885612Y-115154943D02*
X183462763Y-115154943D01*
X183462763Y-115154943D02*
X183209053Y-115070373D01*
X182447924Y-113378975D02*
X182447924Y-115154943D01*
X182447924Y-115154943D02*
X181771365Y-115154943D01*
X181771365Y-115154943D02*
X181602225Y-115070373D01*
X181602225Y-115070373D02*
X181517655Y-114985803D01*
X181517655Y-114985803D02*
X181433085Y-114816663D01*
X181433085Y-114816663D02*
X181433085Y-114562953D01*
X181433085Y-114562953D02*
X181517655Y-114393813D01*
X181517655Y-114393813D02*
X181602225Y-114309244D01*
X181602225Y-114309244D02*
X181771365Y-114224674D01*
X181771365Y-114224674D02*
X182447924Y-114224674D01*
X180841096Y-115154943D02*
X179741687Y-115154943D01*
X179741687Y-115154943D02*
X180333676Y-114478383D01*
X180333676Y-114478383D02*
X180079967Y-114478383D01*
X180079967Y-114478383D02*
X179910827Y-114393813D01*
X179910827Y-114393813D02*
X179826257Y-114309244D01*
X179826257Y-114309244D02*
X179741687Y-114140104D01*
X179741687Y-114140104D02*
X179741687Y-113717254D01*
X179741687Y-113717254D02*
X179826257Y-113548114D01*
X179826257Y-113548114D02*
X179910827Y-113463545D01*
X179910827Y-113463545D02*
X180079967Y-113378975D01*
X180079967Y-113378975D02*
X180587386Y-113378975D01*
X180587386Y-113378975D02*
X180756526Y-113463545D01*
X180756526Y-113463545D02*
X180841096Y-113548114D01*
X179065128Y-114985803D02*
X178980558Y-115070373D01*
X178980558Y-115070373D02*
X178811418Y-115154943D01*
X178811418Y-115154943D02*
X178388569Y-115154943D01*
X178388569Y-115154943D02*
X178219429Y-115070373D01*
X178219429Y-115070373D02*
X178134859Y-114985803D01*
X178134859Y-114985803D02*
X178050289Y-114816663D01*
X178050289Y-114816663D02*
X178050289Y-114647523D01*
X178050289Y-114647523D02*
X178134859Y-114393813D01*
X178134859Y-114393813D02*
X179149698Y-113378975D01*
X179149698Y-113378975D02*
X178050289Y-113378975D01*
X177289160Y-114055534D02*
X175936042Y-114055534D01*
X175090342Y-113378975D02*
X175090342Y-115154943D01*
X175090342Y-115154943D02*
X174667492Y-115154943D01*
X174667492Y-115154943D02*
X174413783Y-115070373D01*
X174413783Y-115070373D02*
X174244643Y-114901233D01*
X174244643Y-114901233D02*
X174160073Y-114732093D01*
X174160073Y-114732093D02*
X174075503Y-114393813D01*
X174075503Y-114393813D02*
X174075503Y-114140104D01*
X174075503Y-114140104D02*
X174160073Y-113801824D01*
X174160073Y-113801824D02*
X174244643Y-113632684D01*
X174244643Y-113632684D02*
X174413783Y-113463545D01*
X174413783Y-113463545D02*
X174667492Y-113378975D01*
X174667492Y-113378975D02*
X175090342Y-113378975D01*
X172637815Y-113463545D02*
X172806955Y-113378975D01*
X172806955Y-113378975D02*
X173145234Y-113378975D01*
X173145234Y-113378975D02*
X173314374Y-113463545D01*
X173314374Y-113463545D02*
X173398944Y-113632684D01*
X173398944Y-113632684D02*
X173398944Y-114309244D01*
X173398944Y-114309244D02*
X173314374Y-114478383D01*
X173314374Y-114478383D02*
X173145234Y-114562953D01*
X173145234Y-114562953D02*
X172806955Y-114562953D01*
X172806955Y-114562953D02*
X172637815Y-114478383D01*
X172637815Y-114478383D02*
X172553245Y-114309244D01*
X172553245Y-114309244D02*
X172553245Y-114140104D01*
X172553245Y-114140104D02*
X173398944Y-113970964D01*
X171961256Y-114562953D02*
X171538406Y-113378975D01*
X171538406Y-113378975D02*
X171115557Y-114562953D01*
X170438998Y-113378975D02*
X170438998Y-115154943D01*
X170269858Y-114055534D02*
X169762439Y-113378975D01*
X169762439Y-114562953D02*
X170438998Y-113886394D01*
X169001310Y-113378975D02*
X169001310Y-114562953D01*
X169001310Y-115154943D02*
X169085880Y-115070373D01*
X169085880Y-115070373D02*
X169001310Y-114985803D01*
X169001310Y-114985803D02*
X168916740Y-115070373D01*
X168916740Y-115070373D02*
X169001310Y-115154943D01*
X169001310Y-115154943D02*
X169001310Y-114985803D01*
X168409321Y-114562953D02*
X167732761Y-114562953D01*
X168155611Y-115154943D02*
X168155611Y-113632684D01*
X168155611Y-113632684D02*
X168071041Y-113463545D01*
X168071041Y-113463545D02*
X167901901Y-113378975D01*
X167901901Y-113378975D02*
X167732761Y-113378975D01*
X166041364Y-115154943D02*
X165449374Y-113378975D01*
X165449374Y-113378975D02*
X164857385Y-115154943D01*
X163335127Y-113378975D02*
X164349966Y-113378975D01*
X163842546Y-113378975D02*
X163842546Y-115154943D01*
X163842546Y-115154943D02*
X164011686Y-114901233D01*
X164011686Y-114901233D02*
X164180826Y-114732093D01*
X164180826Y-114732093D02*
X164349966Y-114647523D01*
D19*
X188409218Y-123129625D02*
X189343938Y-123129625D01*
X189343938Y-123752772D02*
X189343938Y-123930814D01*
X189343938Y-123930814D02*
X189299428Y-124019835D01*
X189299428Y-124019835D02*
X189210407Y-124108856D01*
X189210407Y-124108856D02*
X189032365Y-124153366D01*
X189032365Y-124153366D02*
X188720791Y-124153366D01*
X188720791Y-124153366D02*
X188542749Y-124108856D01*
X188542749Y-124108856D02*
X188453729Y-124019835D01*
X188453729Y-124019835D02*
X188409218Y-123930814D01*
X188409218Y-123930814D02*
X188409218Y-123752772D01*
X188409218Y-123752772D02*
X188453729Y-123663751D01*
X188453729Y-123663751D02*
X188542749Y-123574730D01*
X188542749Y-123574730D02*
X188720791Y-123530219D01*
X188720791Y-123530219D02*
X189032365Y-123530219D01*
X189032365Y-123530219D02*
X189210407Y-123574730D01*
X189210407Y-123574730D02*
X189299428Y-123663751D01*
X189299428Y-123663751D02*
X189343938Y-123752772D01*
X189254917Y-124509449D02*
X189299428Y-124553960D01*
X189299428Y-124553960D02*
X189343938Y-124642981D01*
X189343938Y-124642981D02*
X189343938Y-124865533D01*
X189343938Y-124865533D02*
X189299428Y-124954554D01*
X189299428Y-124954554D02*
X189254917Y-124999065D01*
X189254917Y-124999065D02*
X189165896Y-125043575D01*
X189165896Y-125043575D02*
X189076875Y-125043575D01*
X189076875Y-125043575D02*
X188943344Y-124999065D01*
X188943344Y-124999065D02*
X188409218Y-124464939D01*
X188409218Y-124464939D02*
X188409218Y-125043575D01*
X189343938Y-125844764D02*
X189343938Y-125666722D01*
X189343938Y-125666722D02*
X189299428Y-125577701D01*
X189299428Y-125577701D02*
X189254917Y-125533191D01*
X189254917Y-125533191D02*
X189121386Y-125444170D01*
X189121386Y-125444170D02*
X188943344Y-125399659D01*
X188943344Y-125399659D02*
X188587260Y-125399659D01*
X188587260Y-125399659D02*
X188498239Y-125444170D01*
X188498239Y-125444170D02*
X188453729Y-125488680D01*
X188453729Y-125488680D02*
X188409218Y-125577701D01*
X188409218Y-125577701D02*
X188409218Y-125755743D01*
X188409218Y-125755743D02*
X188453729Y-125844764D01*
X188453729Y-125844764D02*
X188498239Y-125889275D01*
X188498239Y-125889275D02*
X188587260Y-125933785D01*
X188587260Y-125933785D02*
X188809812Y-125933785D01*
X188809812Y-125933785D02*
X188898833Y-125889275D01*
X188898833Y-125889275D02*
X188943344Y-125844764D01*
X188943344Y-125844764D02*
X188987854Y-125755743D01*
X188987854Y-125755743D02*
X188987854Y-125577701D01*
X188987854Y-125577701D02*
X188943344Y-125488680D01*
X188943344Y-125488680D02*
X188898833Y-125444170D01*
X188898833Y-125444170D02*
X188809812Y-125399659D01*
X188429218Y-105409625D02*
X189363938Y-105409625D01*
X189363938Y-106032772D02*
X189363938Y-106210814D01*
X189363938Y-106210814D02*
X189319428Y-106299835D01*
X189319428Y-106299835D02*
X189230407Y-106388856D01*
X189230407Y-106388856D02*
X189052365Y-106433366D01*
X189052365Y-106433366D02*
X188740791Y-106433366D01*
X188740791Y-106433366D02*
X188562749Y-106388856D01*
X188562749Y-106388856D02*
X188473729Y-106299835D01*
X188473729Y-106299835D02*
X188429218Y-106210814D01*
X188429218Y-106210814D02*
X188429218Y-106032772D01*
X188429218Y-106032772D02*
X188473729Y-105943751D01*
X188473729Y-105943751D02*
X188562749Y-105854730D01*
X188562749Y-105854730D02*
X188740791Y-105810219D01*
X188740791Y-105810219D02*
X189052365Y-105810219D01*
X189052365Y-105810219D02*
X189230407Y-105854730D01*
X189230407Y-105854730D02*
X189319428Y-105943751D01*
X189319428Y-105943751D02*
X189363938Y-106032772D01*
X188429218Y-107323575D02*
X188429218Y-106789449D01*
X188429218Y-107056512D02*
X189363938Y-107056512D01*
X189363938Y-107056512D02*
X189230407Y-106967491D01*
X189230407Y-106967491D02*
X189141386Y-106878470D01*
X189141386Y-106878470D02*
X189096875Y-106789449D01*
X189363938Y-107635149D02*
X189363938Y-108258296D01*
X189363938Y-108258296D02*
X188429218Y-107857701D01*
X190949218Y-123129625D02*
X191883938Y-123129625D01*
X191883938Y-123752772D02*
X191883938Y-123930814D01*
X191883938Y-123930814D02*
X191839428Y-124019835D01*
X191839428Y-124019835D02*
X191750407Y-124108856D01*
X191750407Y-124108856D02*
X191572365Y-124153366D01*
X191572365Y-124153366D02*
X191260791Y-124153366D01*
X191260791Y-124153366D02*
X191082749Y-124108856D01*
X191082749Y-124108856D02*
X190993729Y-124019835D01*
X190993729Y-124019835D02*
X190949218Y-123930814D01*
X190949218Y-123930814D02*
X190949218Y-123752772D01*
X190949218Y-123752772D02*
X190993729Y-123663751D01*
X190993729Y-123663751D02*
X191082749Y-123574730D01*
X191082749Y-123574730D02*
X191260791Y-123530219D01*
X191260791Y-123530219D02*
X191572365Y-123530219D01*
X191572365Y-123530219D02*
X191750407Y-123574730D01*
X191750407Y-123574730D02*
X191839428Y-123663751D01*
X191839428Y-123663751D02*
X191883938Y-123752772D01*
X191794917Y-124509449D02*
X191839428Y-124553960D01*
X191839428Y-124553960D02*
X191883938Y-124642981D01*
X191883938Y-124642981D02*
X191883938Y-124865533D01*
X191883938Y-124865533D02*
X191839428Y-124954554D01*
X191839428Y-124954554D02*
X191794917Y-124999065D01*
X191794917Y-124999065D02*
X191705896Y-125043575D01*
X191705896Y-125043575D02*
X191616875Y-125043575D01*
X191616875Y-125043575D02*
X191483344Y-124999065D01*
X191483344Y-124999065D02*
X190949218Y-124464939D01*
X190949218Y-124464939D02*
X190949218Y-125043575D01*
X191883938Y-125355149D02*
X191883938Y-125978296D01*
X191883938Y-125978296D02*
X190949218Y-125577701D01*
X190969218Y-105409625D02*
X191903938Y-105409625D01*
X191903938Y-106032772D02*
X191903938Y-106210814D01*
X191903938Y-106210814D02*
X191859428Y-106299835D01*
X191859428Y-106299835D02*
X191770407Y-106388856D01*
X191770407Y-106388856D02*
X191592365Y-106433366D01*
X191592365Y-106433366D02*
X191280791Y-106433366D01*
X191280791Y-106433366D02*
X191102749Y-106388856D01*
X191102749Y-106388856D02*
X191013729Y-106299835D01*
X191013729Y-106299835D02*
X190969218Y-106210814D01*
X190969218Y-106210814D02*
X190969218Y-106032772D01*
X190969218Y-106032772D02*
X191013729Y-105943751D01*
X191013729Y-105943751D02*
X191102749Y-105854730D01*
X191102749Y-105854730D02*
X191280791Y-105810219D01*
X191280791Y-105810219D02*
X191592365Y-105810219D01*
X191592365Y-105810219D02*
X191770407Y-105854730D01*
X191770407Y-105854730D02*
X191859428Y-105943751D01*
X191859428Y-105943751D02*
X191903938Y-106032772D01*
X190969218Y-107323575D02*
X190969218Y-106789449D01*
X190969218Y-107056512D02*
X191903938Y-107056512D01*
X191903938Y-107056512D02*
X191770407Y-106967491D01*
X191770407Y-106967491D02*
X191681386Y-106878470D01*
X191681386Y-106878470D02*
X191636875Y-106789449D01*
X191903938Y-108124764D02*
X191903938Y-107946722D01*
X191903938Y-107946722D02*
X191859428Y-107857701D01*
X191859428Y-107857701D02*
X191814917Y-107813191D01*
X191814917Y-107813191D02*
X191681386Y-107724170D01*
X191681386Y-107724170D02*
X191503344Y-107679659D01*
X191503344Y-107679659D02*
X191147260Y-107679659D01*
X191147260Y-107679659D02*
X191058239Y-107724170D01*
X191058239Y-107724170D02*
X191013729Y-107768680D01*
X191013729Y-107768680D02*
X190969218Y-107857701D01*
X190969218Y-107857701D02*
X190969218Y-108035743D01*
X190969218Y-108035743D02*
X191013729Y-108124764D01*
X191013729Y-108124764D02*
X191058239Y-108169275D01*
X191058239Y-108169275D02*
X191147260Y-108213785D01*
X191147260Y-108213785D02*
X191369812Y-108213785D01*
X191369812Y-108213785D02*
X191458833Y-108169275D01*
X191458833Y-108169275D02*
X191503344Y-108124764D01*
X191503344Y-108124764D02*
X191547854Y-108035743D01*
X191547854Y-108035743D02*
X191547854Y-107857701D01*
X191547854Y-107857701D02*
X191503344Y-107768680D01*
X191503344Y-107768680D02*
X191458833Y-107724170D01*
X191458833Y-107724170D02*
X191369812Y-107679659D01*
X193489218Y-123129625D02*
X194423938Y-123129625D01*
X194423938Y-123752772D02*
X194423938Y-123930814D01*
X194423938Y-123930814D02*
X194379428Y-124019835D01*
X194379428Y-124019835D02*
X194290407Y-124108856D01*
X194290407Y-124108856D02*
X194112365Y-124153366D01*
X194112365Y-124153366D02*
X193800791Y-124153366D01*
X193800791Y-124153366D02*
X193622749Y-124108856D01*
X193622749Y-124108856D02*
X193533729Y-124019835D01*
X193533729Y-124019835D02*
X193489218Y-123930814D01*
X193489218Y-123930814D02*
X193489218Y-123752772D01*
X193489218Y-123752772D02*
X193533729Y-123663751D01*
X193533729Y-123663751D02*
X193622749Y-123574730D01*
X193622749Y-123574730D02*
X193800791Y-123530219D01*
X193800791Y-123530219D02*
X194112365Y-123530219D01*
X194112365Y-123530219D02*
X194290407Y-123574730D01*
X194290407Y-123574730D02*
X194379428Y-123663751D01*
X194379428Y-123663751D02*
X194423938Y-123752772D01*
X193489218Y-125043575D02*
X193489218Y-124509449D01*
X193489218Y-124776512D02*
X194423938Y-124776512D01*
X194423938Y-124776512D02*
X194290407Y-124687491D01*
X194290407Y-124687491D02*
X194201386Y-124598470D01*
X194201386Y-124598470D02*
X194156875Y-124509449D01*
X194112365Y-125844764D02*
X193489218Y-125844764D01*
X194468449Y-125622212D02*
X193800791Y-125399659D01*
X193800791Y-125399659D02*
X193800791Y-125978296D01*
X193509218Y-105409625D02*
X194443938Y-105409625D01*
X194443938Y-106032772D02*
X194443938Y-106210814D01*
X194443938Y-106210814D02*
X194399428Y-106299835D01*
X194399428Y-106299835D02*
X194310407Y-106388856D01*
X194310407Y-106388856D02*
X194132365Y-106433366D01*
X194132365Y-106433366D02*
X193820791Y-106433366D01*
X193820791Y-106433366D02*
X193642749Y-106388856D01*
X193642749Y-106388856D02*
X193553729Y-106299835D01*
X193553729Y-106299835D02*
X193509218Y-106210814D01*
X193509218Y-106210814D02*
X193509218Y-106032772D01*
X193509218Y-106032772D02*
X193553729Y-105943751D01*
X193553729Y-105943751D02*
X193642749Y-105854730D01*
X193642749Y-105854730D02*
X193820791Y-105810219D01*
X193820791Y-105810219D02*
X194132365Y-105810219D01*
X194132365Y-105810219D02*
X194310407Y-105854730D01*
X194310407Y-105854730D02*
X194399428Y-105943751D01*
X194399428Y-105943751D02*
X194443938Y-106032772D01*
X194132365Y-107234554D02*
X193509218Y-107234554D01*
X194488449Y-107012002D02*
X193820791Y-106789449D01*
X193820791Y-106789449D02*
X193820791Y-107368086D01*
X196029218Y-123129625D02*
X196963938Y-123129625D01*
X196963938Y-123752772D02*
X196963938Y-123930814D01*
X196963938Y-123930814D02*
X196919428Y-124019835D01*
X196919428Y-124019835D02*
X196830407Y-124108856D01*
X196830407Y-124108856D02*
X196652365Y-124153366D01*
X196652365Y-124153366D02*
X196340791Y-124153366D01*
X196340791Y-124153366D02*
X196162749Y-124108856D01*
X196162749Y-124108856D02*
X196073729Y-124019835D01*
X196073729Y-124019835D02*
X196029218Y-123930814D01*
X196029218Y-123930814D02*
X196029218Y-123752772D01*
X196029218Y-123752772D02*
X196073729Y-123663751D01*
X196073729Y-123663751D02*
X196162749Y-123574730D01*
X196162749Y-123574730D02*
X196340791Y-123530219D01*
X196340791Y-123530219D02*
X196652365Y-123530219D01*
X196652365Y-123530219D02*
X196830407Y-123574730D01*
X196830407Y-123574730D02*
X196919428Y-123663751D01*
X196919428Y-123663751D02*
X196963938Y-123752772D01*
X196029218Y-125043575D02*
X196029218Y-124509449D01*
X196029218Y-124776512D02*
X196963938Y-124776512D01*
X196963938Y-124776512D02*
X196830407Y-124687491D01*
X196830407Y-124687491D02*
X196741386Y-124598470D01*
X196741386Y-124598470D02*
X196696875Y-124509449D01*
X196874917Y-125399659D02*
X196919428Y-125444170D01*
X196919428Y-125444170D02*
X196963938Y-125533191D01*
X196963938Y-125533191D02*
X196963938Y-125755743D01*
X196963938Y-125755743D02*
X196919428Y-125844764D01*
X196919428Y-125844764D02*
X196874917Y-125889275D01*
X196874917Y-125889275D02*
X196785896Y-125933785D01*
X196785896Y-125933785D02*
X196696875Y-125933785D01*
X196696875Y-125933785D02*
X196563344Y-125889275D01*
X196563344Y-125889275D02*
X196029218Y-125355149D01*
X196029218Y-125355149D02*
X196029218Y-125933785D01*
X196049218Y-105409625D02*
X196983938Y-105409625D01*
X196983938Y-106032772D02*
X196983938Y-106210814D01*
X196983938Y-106210814D02*
X196939428Y-106299835D01*
X196939428Y-106299835D02*
X196850407Y-106388856D01*
X196850407Y-106388856D02*
X196672365Y-106433366D01*
X196672365Y-106433366D02*
X196360791Y-106433366D01*
X196360791Y-106433366D02*
X196182749Y-106388856D01*
X196182749Y-106388856D02*
X196093729Y-106299835D01*
X196093729Y-106299835D02*
X196049218Y-106210814D01*
X196049218Y-106210814D02*
X196049218Y-106032772D01*
X196049218Y-106032772D02*
X196093729Y-105943751D01*
X196093729Y-105943751D02*
X196182749Y-105854730D01*
X196182749Y-105854730D02*
X196360791Y-105810219D01*
X196360791Y-105810219D02*
X196672365Y-105810219D01*
X196672365Y-105810219D02*
X196850407Y-105854730D01*
X196850407Y-105854730D02*
X196939428Y-105943751D01*
X196939428Y-105943751D02*
X196983938Y-106032772D01*
X196894917Y-106789449D02*
X196939428Y-106833960D01*
X196939428Y-106833960D02*
X196983938Y-106922981D01*
X196983938Y-106922981D02*
X196983938Y-107145533D01*
X196983938Y-107145533D02*
X196939428Y-107234554D01*
X196939428Y-107234554D02*
X196894917Y-107279065D01*
X196894917Y-107279065D02*
X196805896Y-107323575D01*
X196805896Y-107323575D02*
X196716875Y-107323575D01*
X196716875Y-107323575D02*
X196583344Y-107279065D01*
X196583344Y-107279065D02*
X196049218Y-106744939D01*
X196049218Y-106744939D02*
X196049218Y-107323575D01*
X198569218Y-123129625D02*
X199503938Y-123129625D01*
X199503938Y-123752772D02*
X199503938Y-123930814D01*
X199503938Y-123930814D02*
X199459428Y-124019835D01*
X199459428Y-124019835D02*
X199370407Y-124108856D01*
X199370407Y-124108856D02*
X199192365Y-124153366D01*
X199192365Y-124153366D02*
X198880791Y-124153366D01*
X198880791Y-124153366D02*
X198702749Y-124108856D01*
X198702749Y-124108856D02*
X198613729Y-124019835D01*
X198613729Y-124019835D02*
X198569218Y-123930814D01*
X198569218Y-123930814D02*
X198569218Y-123752772D01*
X198569218Y-123752772D02*
X198613729Y-123663751D01*
X198613729Y-123663751D02*
X198702749Y-123574730D01*
X198702749Y-123574730D02*
X198880791Y-123530219D01*
X198880791Y-123530219D02*
X199192365Y-123530219D01*
X199192365Y-123530219D02*
X199370407Y-123574730D01*
X199370407Y-123574730D02*
X199459428Y-123663751D01*
X199459428Y-123663751D02*
X199503938Y-123752772D01*
X198569218Y-125043575D02*
X198569218Y-124509449D01*
X198569218Y-124776512D02*
X199503938Y-124776512D01*
X199503938Y-124776512D02*
X199370407Y-124687491D01*
X199370407Y-124687491D02*
X199281386Y-124598470D01*
X199281386Y-124598470D02*
X199236875Y-124509449D01*
X199503938Y-125355149D02*
X199503938Y-125933785D01*
X199503938Y-125933785D02*
X199147854Y-125622212D01*
X199147854Y-125622212D02*
X199147854Y-125755743D01*
X199147854Y-125755743D02*
X199103344Y-125844764D01*
X199103344Y-125844764D02*
X199058833Y-125889275D01*
X199058833Y-125889275D02*
X198969812Y-125933785D01*
X198969812Y-125933785D02*
X198747260Y-125933785D01*
X198747260Y-125933785D02*
X198658239Y-125889275D01*
X198658239Y-125889275D02*
X198613729Y-125844764D01*
X198613729Y-125844764D02*
X198569218Y-125755743D01*
X198569218Y-125755743D02*
X198569218Y-125488680D01*
X198569218Y-125488680D02*
X198613729Y-125399659D01*
X198613729Y-125399659D02*
X198658239Y-125355149D01*
X198589218Y-105409625D02*
X199523938Y-105409625D01*
X199523938Y-106032772D02*
X199523938Y-106210814D01*
X199523938Y-106210814D02*
X199479428Y-106299835D01*
X199479428Y-106299835D02*
X199390407Y-106388856D01*
X199390407Y-106388856D02*
X199212365Y-106433366D01*
X199212365Y-106433366D02*
X198900791Y-106433366D01*
X198900791Y-106433366D02*
X198722749Y-106388856D01*
X198722749Y-106388856D02*
X198633729Y-106299835D01*
X198633729Y-106299835D02*
X198589218Y-106210814D01*
X198589218Y-106210814D02*
X198589218Y-106032772D01*
X198589218Y-106032772D02*
X198633729Y-105943751D01*
X198633729Y-105943751D02*
X198722749Y-105854730D01*
X198722749Y-105854730D02*
X198900791Y-105810219D01*
X198900791Y-105810219D02*
X199212365Y-105810219D01*
X199212365Y-105810219D02*
X199390407Y-105854730D01*
X199390407Y-105854730D02*
X199479428Y-105943751D01*
X199479428Y-105943751D02*
X199523938Y-106032772D01*
X198589218Y-107323575D02*
X198589218Y-106789449D01*
X198589218Y-107056512D02*
X199523938Y-107056512D01*
X199523938Y-107056512D02*
X199390407Y-106967491D01*
X199390407Y-106967491D02*
X199301386Y-106878470D01*
X199301386Y-106878470D02*
X199256875Y-106789449D01*
X199523938Y-108169275D02*
X199523938Y-107724170D01*
X199523938Y-107724170D02*
X199078833Y-107679659D01*
X199078833Y-107679659D02*
X199123344Y-107724170D01*
X199123344Y-107724170D02*
X199167854Y-107813191D01*
X199167854Y-107813191D02*
X199167854Y-108035743D01*
X199167854Y-108035743D02*
X199123344Y-108124764D01*
X199123344Y-108124764D02*
X199078833Y-108169275D01*
X199078833Y-108169275D02*
X198989812Y-108213785D01*
X198989812Y-108213785D02*
X198767260Y-108213785D01*
X198767260Y-108213785D02*
X198678239Y-108169275D01*
X198678239Y-108169275D02*
X198633729Y-108124764D01*
X198633729Y-108124764D02*
X198589218Y-108035743D01*
X198589218Y-108035743D02*
X198589218Y-107813191D01*
X198589218Y-107813191D02*
X198633729Y-107724170D01*
X198633729Y-107724170D02*
X198678239Y-107679659D01*
X201999428Y-123619240D02*
X202043938Y-123530219D01*
X202043938Y-123530219D02*
X202043938Y-123396688D01*
X202043938Y-123396688D02*
X201999428Y-123263156D01*
X201999428Y-123263156D02*
X201910407Y-123174135D01*
X201910407Y-123174135D02*
X201821386Y-123129625D01*
X201821386Y-123129625D02*
X201643344Y-123085114D01*
X201643344Y-123085114D02*
X201509812Y-123085114D01*
X201509812Y-123085114D02*
X201331770Y-123129625D01*
X201331770Y-123129625D02*
X201242749Y-123174135D01*
X201242749Y-123174135D02*
X201153729Y-123263156D01*
X201153729Y-123263156D02*
X201109218Y-123396688D01*
X201109218Y-123396688D02*
X201109218Y-123485709D01*
X201109218Y-123485709D02*
X201153729Y-123619240D01*
X201153729Y-123619240D02*
X201198239Y-123663751D01*
X201198239Y-123663751D02*
X201509812Y-123663751D01*
X201509812Y-123663751D02*
X201509812Y-123485709D01*
X201109218Y-124064345D02*
X202043938Y-124064345D01*
X202043938Y-124064345D02*
X201109218Y-124598471D01*
X201109218Y-124598471D02*
X202043938Y-124598471D01*
X201109218Y-125043575D02*
X202043938Y-125043575D01*
X202043938Y-125043575D02*
X202043938Y-125266127D01*
X202043938Y-125266127D02*
X201999428Y-125399659D01*
X201999428Y-125399659D02*
X201910407Y-125488680D01*
X201910407Y-125488680D02*
X201821386Y-125533190D01*
X201821386Y-125533190D02*
X201643344Y-125577701D01*
X201643344Y-125577701D02*
X201509812Y-125577701D01*
X201509812Y-125577701D02*
X201331770Y-125533190D01*
X201331770Y-125533190D02*
X201242749Y-125488680D01*
X201242749Y-125488680D02*
X201153729Y-125399659D01*
X201153729Y-125399659D02*
X201109218Y-125266127D01*
X201109218Y-125266127D02*
X201109218Y-125043575D01*
X202019428Y-105899240D02*
X202063938Y-105810219D01*
X202063938Y-105810219D02*
X202063938Y-105676688D01*
X202063938Y-105676688D02*
X202019428Y-105543156D01*
X202019428Y-105543156D02*
X201930407Y-105454135D01*
X201930407Y-105454135D02*
X201841386Y-105409625D01*
X201841386Y-105409625D02*
X201663344Y-105365114D01*
X201663344Y-105365114D02*
X201529812Y-105365114D01*
X201529812Y-105365114D02*
X201351770Y-105409625D01*
X201351770Y-105409625D02*
X201262749Y-105454135D01*
X201262749Y-105454135D02*
X201173729Y-105543156D01*
X201173729Y-105543156D02*
X201129218Y-105676688D01*
X201129218Y-105676688D02*
X201129218Y-105765709D01*
X201129218Y-105765709D02*
X201173729Y-105899240D01*
X201173729Y-105899240D02*
X201218239Y-105943751D01*
X201218239Y-105943751D02*
X201529812Y-105943751D01*
X201529812Y-105943751D02*
X201529812Y-105765709D01*
X201129218Y-106344345D02*
X202063938Y-106344345D01*
X202063938Y-106344345D02*
X201129218Y-106878471D01*
X201129218Y-106878471D02*
X202063938Y-106878471D01*
X201129218Y-107323575D02*
X202063938Y-107323575D01*
X202063938Y-107323575D02*
X202063938Y-107546127D01*
X202063938Y-107546127D02*
X202019428Y-107679659D01*
X202019428Y-107679659D02*
X201930407Y-107768680D01*
X201930407Y-107768680D02*
X201841386Y-107813190D01*
X201841386Y-107813190D02*
X201663344Y-107857701D01*
X201663344Y-107857701D02*
X201529812Y-107857701D01*
X201529812Y-107857701D02*
X201351770Y-107813190D01*
X201351770Y-107813190D02*
X201262749Y-107768680D01*
X201262749Y-107768680D02*
X201173729Y-107679659D01*
X201173729Y-107679659D02*
X201129218Y-107546127D01*
X201129218Y-107546127D02*
X201129218Y-107323575D01*
X204583938Y-122996093D02*
X203649218Y-123307667D01*
X203649218Y-123307667D02*
X204583938Y-123619240D01*
X203649218Y-123930814D02*
X204583938Y-123930814D01*
X203649218Y-124375919D02*
X204583938Y-124375919D01*
X204583938Y-124375919D02*
X203649218Y-124910045D01*
X203649218Y-124910045D02*
X204583938Y-124910045D01*
X204603938Y-105320604D02*
X204603938Y-105899240D01*
X204603938Y-105899240D02*
X204247854Y-105587667D01*
X204247854Y-105587667D02*
X204247854Y-105721198D01*
X204247854Y-105721198D02*
X204203344Y-105810219D01*
X204203344Y-105810219D02*
X204158833Y-105854730D01*
X204158833Y-105854730D02*
X204069812Y-105899240D01*
X204069812Y-105899240D02*
X203847260Y-105899240D01*
X203847260Y-105899240D02*
X203758239Y-105854730D01*
X203758239Y-105854730D02*
X203713729Y-105810219D01*
X203713729Y-105810219D02*
X203669218Y-105721198D01*
X203669218Y-105721198D02*
X203669218Y-105454135D01*
X203669218Y-105454135D02*
X203713729Y-105365114D01*
X203713729Y-105365114D02*
X203758239Y-105320604D01*
X204603938Y-106166303D02*
X203669218Y-106477877D01*
X203669218Y-106477877D02*
X204603938Y-106789450D01*
X204603938Y-107012003D02*
X204603938Y-107590639D01*
X204603938Y-107590639D02*
X204247854Y-107279066D01*
X204247854Y-107279066D02*
X204247854Y-107412597D01*
X204247854Y-107412597D02*
X204203344Y-107501618D01*
X204203344Y-107501618D02*
X204158833Y-107546129D01*
X204158833Y-107546129D02*
X204069812Y-107590639D01*
X204069812Y-107590639D02*
X203847260Y-107590639D01*
X203847260Y-107590639D02*
X203758239Y-107546129D01*
X203758239Y-107546129D02*
X203713729Y-107501618D01*
X203713729Y-107501618D02*
X203669218Y-107412597D01*
X203669218Y-107412597D02*
X203669218Y-107145534D01*
X203669218Y-107145534D02*
X203713729Y-107056513D01*
X203713729Y-107056513D02*
X203758239Y-107012003D01*
D13*
X96725602Y-106737989D02*
X96340369Y-106187656D01*
X96065202Y-106737989D02*
X96065202Y-105582289D01*
X96065202Y-105582289D02*
X96505469Y-105582289D01*
X96505469Y-105582289D02*
X96615536Y-105637322D01*
X96615536Y-105637322D02*
X96670569Y-105692356D01*
X96670569Y-105692356D02*
X96725602Y-105802422D01*
X96725602Y-105802422D02*
X96725602Y-105967522D01*
X96725602Y-105967522D02*
X96670569Y-106077589D01*
X96670569Y-106077589D02*
X96615536Y-106132622D01*
X96615536Y-106132622D02*
X96505469Y-106187656D01*
X96505469Y-106187656D02*
X96065202Y-106187656D01*
X97826269Y-106737989D02*
X97165869Y-106737989D01*
X97496069Y-106737989D02*
X97496069Y-105582289D01*
X97496069Y-105582289D02*
X97386002Y-105747389D01*
X97386002Y-105747389D02*
X97275936Y-105857456D01*
X97275936Y-105857456D02*
X97165869Y-105912489D01*
D16*
X93749309Y-128461068D02*
X93749309Y-126843088D01*
X95444336Y-128306975D02*
X95367289Y-128384022D01*
X95367289Y-128384022D02*
X95136149Y-128461068D01*
X95136149Y-128461068D02*
X94982056Y-128461068D01*
X94982056Y-128461068D02*
X94750916Y-128384022D01*
X94750916Y-128384022D02*
X94596823Y-128229928D01*
X94596823Y-128229928D02*
X94519776Y-128075835D01*
X94519776Y-128075835D02*
X94442729Y-127767648D01*
X94442729Y-127767648D02*
X94442729Y-127536508D01*
X94442729Y-127536508D02*
X94519776Y-127228322D01*
X94519776Y-127228322D02*
X94596823Y-127074228D01*
X94596823Y-127074228D02*
X94750916Y-126920135D01*
X94750916Y-126920135D02*
X94982056Y-126843088D01*
X94982056Y-126843088D02*
X95136149Y-126843088D01*
X95136149Y-126843088D02*
X95367289Y-126920135D01*
X95367289Y-126920135D02*
X95444336Y-126997182D01*
X96060709Y-126997182D02*
X96137756Y-126920135D01*
X96137756Y-126920135D02*
X96291849Y-126843088D01*
X96291849Y-126843088D02*
X96677083Y-126843088D01*
X96677083Y-126843088D02*
X96831176Y-126920135D01*
X96831176Y-126920135D02*
X96908223Y-126997182D01*
X96908223Y-126997182D02*
X96985269Y-127151275D01*
X96985269Y-127151275D02*
X96985269Y-127305368D01*
X96985269Y-127305368D02*
X96908223Y-127536508D01*
X96908223Y-127536508D02*
X95983663Y-128461068D01*
X95983663Y-128461068D02*
X96985269Y-128461068D01*
D17*
X92858788Y-125504415D02*
X93283331Y-125504415D01*
X92773879Y-125759141D02*
X93071059Y-124867601D01*
X93071059Y-124867601D02*
X93368239Y-125759141D01*
X94132416Y-125759141D02*
X93622965Y-125759141D01*
X93877690Y-125759141D02*
X93877690Y-124867601D01*
X93877690Y-124867601D02*
X93792782Y-124994964D01*
X93792782Y-124994964D02*
X93707873Y-125079872D01*
X93707873Y-125079872D02*
X93622965Y-125122327D01*
X94939048Y-124867601D02*
X94514505Y-124867601D01*
X94514505Y-124867601D02*
X94472051Y-125292144D01*
X94472051Y-125292144D02*
X94514505Y-125249689D01*
X94514505Y-125249689D02*
X94599414Y-125207235D01*
X94599414Y-125207235D02*
X94811685Y-125207235D01*
X94811685Y-125207235D02*
X94896594Y-125249689D01*
X94896594Y-125249689D02*
X94939048Y-125292144D01*
X94939048Y-125292144D02*
X94981502Y-125377052D01*
X94981502Y-125377052D02*
X94981502Y-125589324D01*
X94981502Y-125589324D02*
X94939048Y-125674232D01*
X94939048Y-125674232D02*
X94896594Y-125716687D01*
X94896594Y-125716687D02*
X94811685Y-125759141D01*
X94811685Y-125759141D02*
X94599414Y-125759141D01*
X94599414Y-125759141D02*
X94514505Y-125716687D01*
X94514505Y-125716687D02*
X94472051Y-125674232D01*
X95406045Y-125716687D02*
X95406045Y-125759141D01*
X95406045Y-125759141D02*
X95363591Y-125844049D01*
X95363591Y-125844049D02*
X95321137Y-125886504D01*
X95745680Y-124952509D02*
X95788134Y-124910055D01*
X95788134Y-124910055D02*
X95873043Y-124867601D01*
X95873043Y-124867601D02*
X96085314Y-124867601D01*
X96085314Y-124867601D02*
X96170223Y-124910055D01*
X96170223Y-124910055D02*
X96212677Y-124952509D01*
X96212677Y-124952509D02*
X96255131Y-125037418D01*
X96255131Y-125037418D02*
X96255131Y-125122327D01*
X96255131Y-125122327D02*
X96212677Y-125249689D01*
X96212677Y-125249689D02*
X95703225Y-125759141D01*
X95703225Y-125759141D02*
X96255131Y-125759141D01*
X96637220Y-125759141D02*
X96637220Y-125164781D01*
X96637220Y-125249689D02*
X96679674Y-125207235D01*
X96679674Y-125207235D02*
X96764583Y-125164781D01*
X96764583Y-125164781D02*
X96891946Y-125164781D01*
X96891946Y-125164781D02*
X96976854Y-125207235D01*
X96976854Y-125207235D02*
X97019309Y-125292144D01*
X97019309Y-125292144D02*
X97019309Y-125759141D01*
X97019309Y-125292144D02*
X97061763Y-125207235D01*
X97061763Y-125207235D02*
X97146671Y-125164781D01*
X97146671Y-125164781D02*
X97274034Y-125164781D01*
X97274034Y-125164781D02*
X97358943Y-125207235D01*
X97358943Y-125207235D02*
X97401397Y-125292144D01*
X97401397Y-125292144D02*
X97401397Y-125759141D01*
X97825940Y-125759141D02*
X97825940Y-125164781D01*
X97825940Y-125249689D02*
X97868394Y-125207235D01*
X97868394Y-125207235D02*
X97953303Y-125164781D01*
X97953303Y-125164781D02*
X98080666Y-125164781D01*
X98080666Y-125164781D02*
X98165574Y-125207235D01*
X98165574Y-125207235D02*
X98208029Y-125292144D01*
X98208029Y-125292144D02*
X98208029Y-125759141D01*
X98208029Y-125292144D02*
X98250483Y-125207235D01*
X98250483Y-125207235D02*
X98335391Y-125164781D01*
X98335391Y-125164781D02*
X98462754Y-125164781D01*
X98462754Y-125164781D02*
X98547663Y-125207235D01*
X98547663Y-125207235D02*
X98590117Y-125292144D01*
X98590117Y-125292144D02*
X98590117Y-125759141D01*
%TO.C,U$2*%
D21*
X163687600Y-72754600D02*
X163687600Y-79104600D01*
X172450600Y-71103600D02*
X172450600Y-94725600D01*
X173847600Y-74024600D02*
X177657600Y-74024600D01*
X173847600Y-75929600D02*
X177657600Y-75929600D01*
X175117600Y-72754600D02*
X163687600Y-72754600D01*
X175117600Y-72754600D02*
X175117600Y-79104600D01*
X175117600Y-79104600D02*
X163687600Y-79104600D01*
X177657600Y-77834600D02*
X173847600Y-77834600D01*
X215630600Y-71103600D02*
X172450600Y-71103600D01*
X215630600Y-94725600D02*
X172450600Y-94725600D01*
X215630600Y-94725600D02*
X215630600Y-71103600D01*
%TO.C,SP1*%
D22*
X174800600Y-135923600D02*
G75*
G02*
X172260600Y-135923600I-1270000J0D01*
G01*
X172260600Y-135923600D02*
G75*
G02*
X174800600Y-135923600I1270000J0D01*
G01*
X179626600Y-135923600D02*
G75*
G02*
X167434600Y-135923600I-6096000J0D01*
G01*
X167434600Y-135923600D02*
G75*
G02*
X179626600Y-135923600I6096000J0D01*
G01*
%TO.C,U$9*%
D21*
X109763400Y-97446600D02*
X109763400Y-113046600D01*
X109763400Y-113046600D02*
X130563400Y-113046600D01*
X130563400Y-97446600D02*
X109763400Y-97446600D01*
X130563400Y-113046600D02*
X130563400Y-97446600D01*
X112763400Y-99046600D02*
G75*
G02*
X110763400Y-99046600I-1000000J0D01*
G01*
X110763400Y-99046600D02*
G75*
G02*
X112763400Y-99046600I1000000J0D01*
G01*
X129763400Y-99046600D02*
G75*
G02*
X127763400Y-99046600I-1000000J0D01*
G01*
X127763400Y-99046600D02*
G75*
G02*
X129763400Y-99046600I1000000J0D01*
G01*
%TO.C,U$12*%
D23*
X81120600Y-117763600D02*
X81120600Y-138845600D01*
X81120600Y-138845600D02*
X87470600Y-138845600D01*
X82390600Y-131733600D02*
X86200600Y-131733600D01*
X87470600Y-117763600D02*
X81120600Y-117763600D01*
X87470600Y-138845600D02*
X87470600Y-117763600D01*
%TO.C,U$6*%
D21*
X203720600Y-134603600D02*
X203720600Y-139683600D01*
X203720600Y-139683600D02*
X211340600Y-139683600D01*
X205498600Y-134603600D02*
X203720600Y-134603600D01*
X205498600Y-135111600D02*
X205498600Y-134603600D01*
X207022600Y-134603600D02*
X205498600Y-134603600D01*
X207022600Y-134603600D02*
X207022600Y-135111600D01*
X207022600Y-135111600D02*
X205498600Y-135111600D01*
X208038600Y-134603600D02*
X207022600Y-134603600D01*
X208038600Y-135111600D02*
X208038600Y-134603600D01*
X209562600Y-134603600D02*
X208038600Y-134603600D01*
X209562600Y-134603600D02*
X209562600Y-135111600D01*
X209562600Y-135111600D02*
X208038600Y-135111600D01*
X211340600Y-134603600D02*
X209562600Y-134603600D01*
X211340600Y-139683600D02*
X211340600Y-134603600D01*
%TO.C,LED1*%
D23*
X84035600Y-100383600D02*
X80225600Y-100383600D01*
D24*
X84035600Y-100383600D02*
G75*
G02*
X80225600Y-100383600I-1905000J-2540000D01*
G01*
D22*
X84670600Y-102923600D02*
G75*
G02*
X79590600Y-102923600I-2540000J0D01*
G01*
X79590600Y-102923600D02*
G75*
G02*
X84670600Y-102923600I2540000J0D01*
G01*
%TO.C,U$5*%
D21*
X194320600Y-134563600D02*
X194320600Y-139643600D01*
X194320600Y-139643600D02*
X201940600Y-139643600D01*
X196098600Y-134563600D02*
X194320600Y-134563600D01*
X196098600Y-135071600D02*
X196098600Y-134563600D01*
X197622600Y-134563600D02*
X196098600Y-134563600D01*
X197622600Y-134563600D02*
X197622600Y-135071600D01*
X197622600Y-135071600D02*
X196098600Y-135071600D01*
X198638600Y-134563600D02*
X197622600Y-134563600D01*
X198638600Y-135071600D02*
X198638600Y-134563600D01*
X200162600Y-134563600D02*
X198638600Y-134563600D01*
X200162600Y-134563600D02*
X200162600Y-135071600D01*
X200162600Y-135071600D02*
X198638600Y-135071600D01*
X201940600Y-134563600D02*
X200162600Y-134563600D01*
X201940600Y-139643600D02*
X201940600Y-134563600D01*
%TO.C,U$1*%
X110112400Y-136018600D02*
X134242400Y-136018600D01*
X114448450Y-120143600D02*
G75*
G02*
X110856350Y-120143600I-1796050J0D01*
G01*
X110856350Y-120143600D02*
G75*
G02*
X114448450Y-120143600I1796050J0D01*
G01*
X133371450Y-120143600D02*
G75*
G02*
X129779350Y-120143600I-1796050J0D01*
G01*
X129779350Y-120143600D02*
G75*
G02*
X133371450Y-120143600I1796050J0D01*
G01*
%TO.C,U$8*%
X77327600Y-87199800D02*
X77327600Y-97486800D01*
X77327600Y-97486800D02*
X94726600Y-97486800D01*
X87448600Y-83262800D02*
X105648600Y-83262800D01*
X87448600Y-101462800D02*
X87448600Y-83262800D01*
X94726600Y-87199800D02*
X77327600Y-87199800D01*
X94726600Y-97486800D02*
X94726600Y-87199800D01*
X105648600Y-83262800D02*
X105648600Y-101462800D01*
X105648600Y-101462800D02*
X87448600Y-101462800D01*
%TO.C,U$4*%
X103400200Y-119961000D02*
X103400200Y-127581000D01*
X103400200Y-127581000D02*
X108480200Y-127581000D01*
X107972200Y-121739000D02*
X108480200Y-121739000D01*
X107972200Y-123263000D02*
X107972200Y-121739000D01*
X107972200Y-124279000D02*
X108480200Y-124279000D01*
X107972200Y-125803000D02*
X107972200Y-124279000D01*
X108480200Y-119961000D02*
X103400200Y-119961000D01*
X108480200Y-121739000D02*
X108480200Y-119961000D01*
X108480200Y-123263000D02*
X107972200Y-123263000D01*
X108480200Y-123263000D02*
X108480200Y-121739000D01*
X108480200Y-124279000D02*
X108480200Y-123263000D01*
X108480200Y-125803000D02*
X107972200Y-125803000D01*
X108480200Y-125803000D02*
X108480200Y-124279000D01*
X108480200Y-127581000D02*
X108480200Y-125803000D01*
%TO.C,U$7*%
X103400200Y-130213600D02*
X103400200Y-137833600D01*
X103400200Y-137833600D02*
X108480200Y-137833600D01*
X107972200Y-131991600D02*
X108480200Y-131991600D01*
X107972200Y-133515600D02*
X107972200Y-131991600D01*
X107972200Y-134531600D02*
X108480200Y-134531600D01*
X107972200Y-136055600D02*
X107972200Y-134531600D01*
X108480200Y-130213600D02*
X103400200Y-130213600D01*
X108480200Y-131991600D02*
X108480200Y-130213600D01*
X108480200Y-133515600D02*
X107972200Y-133515600D01*
X108480200Y-133515600D02*
X108480200Y-131991600D01*
X108480200Y-134531600D02*
X108480200Y-133515600D01*
X108480200Y-136055600D02*
X107972200Y-136055600D01*
X108480200Y-136055600D02*
X108480200Y-134531600D01*
X108480200Y-137833600D02*
X108480200Y-136055600D01*
%TO.C,R2*%
D22*
X197612600Y-70593600D02*
X197612600Y-68053600D01*
X197866600Y-67799600D02*
X198501600Y-67799600D01*
X197866600Y-70847600D02*
X198501600Y-70847600D01*
X198628600Y-67926600D02*
X198501600Y-67799600D01*
X198628600Y-70720600D02*
X198501600Y-70847600D01*
X205232600Y-67926600D02*
X198628600Y-67926600D01*
X205232600Y-67926600D02*
X205359600Y-67799600D01*
X205232600Y-70720600D02*
X198628600Y-70720600D01*
X205232600Y-70720600D02*
X205359600Y-70847600D01*
X205994600Y-67799600D02*
X205359600Y-67799600D01*
X205994600Y-70847600D02*
X205359600Y-70847600D01*
X206248600Y-70593600D02*
X206248600Y-68053600D01*
X197612600Y-68053600D02*
G75*
G02*
X197866600Y-67799600I254000J0D01*
G01*
X197866600Y-70847600D02*
G75*
G02*
X197612600Y-70593600I0J254000D01*
G01*
X205994600Y-67799600D02*
G75*
G02*
X206248600Y-68053600I0J-254000D01*
G01*
X206248600Y-70593600D02*
G75*
G02*
X205994600Y-70847600I-254000J0D01*
G01*
D25*
G36*
X197612600Y-69628400D02*
G01*
X196749000Y-69628400D01*
X196749000Y-69018800D01*
X197612600Y-69018800D01*
X197612600Y-69628400D01*
G37*
G36*
X207112200Y-69628400D02*
G01*
X206248600Y-69628400D01*
X206248600Y-69018800D01*
X207112200Y-69018800D01*
X207112200Y-69628400D01*
G37*
%TO.C,U$10*%
D21*
X103460000Y-109690000D02*
X103460000Y-117310000D01*
X103460000Y-117310000D02*
X108540000Y-117310000D01*
X108032000Y-111468000D02*
X108540000Y-111468000D01*
X108032000Y-112992000D02*
X108032000Y-111468000D01*
X108032000Y-114008000D02*
X108540000Y-114008000D01*
X108032000Y-115532000D02*
X108032000Y-114008000D01*
X108540000Y-109690000D02*
X103460000Y-109690000D01*
X108540000Y-111468000D02*
X108540000Y-109690000D01*
X108540000Y-112992000D02*
X108032000Y-112992000D01*
X108540000Y-112992000D02*
X108540000Y-111468000D01*
X108540000Y-114008000D02*
X108540000Y-112992000D01*
X108540000Y-115532000D02*
X108032000Y-115532000D01*
X108540000Y-115532000D02*
X108540000Y-114008000D01*
X108540000Y-117310000D02*
X108540000Y-115532000D01*
%TO.C,IC1*%
D22*
X78895000Y-106293000D02*
X78895000Y-116707000D01*
X80800000Y-106293000D02*
X78895000Y-106293000D01*
X80800000Y-107182000D02*
X80800000Y-106293000D01*
X80800000Y-115818000D02*
X80800000Y-116707000D01*
X80800000Y-116707000D02*
X78895000Y-116707000D01*
X82324000Y-106293000D02*
X82324000Y-107182000D01*
X82324000Y-107182000D02*
X80800000Y-107182000D01*
X82324000Y-115818000D02*
X80800000Y-115818000D01*
X82324000Y-116707000D02*
X82324000Y-115818000D01*
D26*
X85880000Y-106928000D02*
X85880000Y-116072000D01*
X85880000Y-106928000D02*
X94135000Y-106928000D01*
X94135000Y-116072000D02*
X85880000Y-116072000D01*
X94135000Y-116072000D02*
X94135000Y-106928000D01*
D22*
X94770000Y-106293000D02*
X82324000Y-106293000D01*
X94770000Y-116707000D02*
X82324000Y-116707000D01*
X94770000Y-116707000D02*
X94770000Y-106293000D01*
X84127400Y-111500000D02*
G75*
G02*
X80520600Y-111500000I-1803400J0D01*
G01*
X80520600Y-111500000D02*
G75*
G02*
X84127400Y-111500000I1803400J0D01*
G01*
D25*
G36*
X95659000Y-109595000D02*
G01*
X94770000Y-109595000D01*
X94770000Y-108325000D01*
X95659000Y-108325000D01*
X95659000Y-109595000D01*
G37*
G36*
X95659000Y-112135000D02*
G01*
X94770000Y-112135000D01*
X94770000Y-110865000D01*
X95659000Y-110865000D01*
X95659000Y-112135000D01*
G37*
G36*
X95659000Y-114675000D02*
G01*
X94770000Y-114675000D01*
X94770000Y-113405000D01*
X95659000Y-113405000D01*
X95659000Y-114675000D01*
G37*
%TO.C,U$11*%
D24*
X162340600Y-101133600D02*
X214340600Y-101133600D01*
X162340600Y-129033600D02*
X162340600Y-101133600D01*
X214340600Y-101133600D02*
X214340600Y-129033600D01*
X214340600Y-129033600D02*
X162340600Y-129033600D01*
%TO.C,R1*%
D22*
X89612600Y-102358200D02*
X89612600Y-104898200D01*
X89866600Y-102104200D02*
X90501600Y-102104200D01*
X89866600Y-105152200D02*
X90501600Y-105152200D01*
X90628600Y-102231200D02*
X90501600Y-102104200D01*
X90628600Y-102231200D02*
X97232600Y-102231200D01*
X90628600Y-105025200D02*
X90501600Y-105152200D01*
X90628600Y-105025200D02*
X97232600Y-105025200D01*
X97232600Y-102231200D02*
X97359600Y-102104200D01*
X97232600Y-105025200D02*
X97359600Y-105152200D01*
X97994600Y-102104200D02*
X97359600Y-102104200D01*
X97994600Y-105152200D02*
X97359600Y-105152200D01*
X98248600Y-102358200D02*
X98248600Y-104898200D01*
X89612600Y-102358200D02*
G75*
G02*
X89866600Y-102104200I254000J0D01*
G01*
X89866600Y-105152200D02*
G75*
G02*
X89612600Y-104898200I0J254000D01*
G01*
X97994600Y-102104200D02*
G75*
G02*
X98248600Y-102358200I0J-254000D01*
G01*
X98248600Y-104898200D02*
G75*
G02*
X97994600Y-105152200I-254000J0D01*
G01*
D25*
G36*
X89612600Y-103933000D02*
G01*
X88749000Y-103933000D01*
X88749000Y-103323400D01*
X89612600Y-103323400D01*
X89612600Y-103933000D01*
G37*
G36*
X99112200Y-103933000D02*
G01*
X98248600Y-103933000D01*
X98248600Y-103323400D01*
X99112200Y-103323400D01*
X99112200Y-103933000D01*
G37*
%TO.C,IC2*%
D22*
X91861800Y-121047400D02*
X91861800Y-119142400D01*
X91861800Y-122571400D02*
X92750800Y-122571400D01*
X91861800Y-135017400D02*
X91861800Y-122571400D01*
X91861800Y-135017400D02*
X102275800Y-135017400D01*
D26*
X92496800Y-134382400D02*
X92496800Y-126127400D01*
X92496800Y-134382400D02*
X101640800Y-134382400D01*
D22*
X92750800Y-121047400D02*
X91861800Y-121047400D01*
X92750800Y-122571400D02*
X92750800Y-121047400D01*
X101386800Y-121047400D02*
X102275800Y-121047400D01*
X101386800Y-122571400D02*
X101386800Y-121047400D01*
D26*
X101640800Y-126127400D02*
X92496800Y-126127400D01*
X101640800Y-126127400D02*
X101640800Y-134382400D01*
D22*
X102275800Y-119142400D02*
X91861800Y-119142400D01*
X102275800Y-121047400D02*
X102275800Y-119142400D01*
X102275800Y-122571400D02*
X101386800Y-122571400D01*
X102275800Y-135017400D02*
X102275800Y-122571400D01*
X98872200Y-122571400D02*
G75*
G02*
X95265400Y-122571400I-1803400J0D01*
G01*
X95265400Y-122571400D02*
G75*
G02*
X98872200Y-122571400I1803400J0D01*
G01*
D25*
G36*
X95163800Y-135906400D02*
G01*
X93893800Y-135906400D01*
X93893800Y-135017400D01*
X95163800Y-135017400D01*
X95163800Y-135906400D01*
G37*
G36*
X97703800Y-135906400D02*
G01*
X96433800Y-135906400D01*
X96433800Y-135017400D01*
X97703800Y-135017400D01*
X97703800Y-135906400D01*
G37*
G36*
X100243800Y-135906400D02*
G01*
X98973800Y-135906400D01*
X98973800Y-135017400D01*
X100243800Y-135017400D01*
X100243800Y-135906400D01*
G37*
%TD*%
M02*
