%TF.GenerationSoftware,KiCad,Pcbnew,10.0.3*%
%TF.CreationDate,2026-08-17T09:12:17-03:00*%
%TF.ProjectId,Esquema,45737175-656d-4612-9e6b-696361645f70,rev?*%
%TF.SameCoordinates,Original*%
%TF.FileFunction,Copper,L1,Top*%
%TF.FilePolarity,Positive*%
%FSLAX46Y46*%
G04 Gerber Fmt 4.6, Leading zero omitted, Abs format (unit mm)*
G04 Created by KiCad (PCBNEW 10.0.3) date 2026-08-17 09:12:17*
%MOMM*%
%LPD*%
G01*
G04 APERTURE LIST*
G04 Aperture macros list*
%AMOutline5P*
0 Free polygon, 5 corners , with rotation*
0 The origin of the aperture is its center*
0 number of corners: always 5*
0 $1 to $10 corner X, Y*
0 $11 Rotation angle, in degrees counterclockwise*
0 create outline with 5 corners*
4,1,5,$1,$2,$3,$4,$5,$6,$7,$8,$9,$10,$1,$2,$11*%
%AMOutline6P*
0 Free polygon, 6 corners , with rotation*
0 The origin of the aperture is its center*
0 number of corners: always 6*
0 $1 to $12 corner X, Y*
0 $13 Rotation angle, in degrees counterclockwise*
0 create outline with 6 corners*
4,1,6,$1,$2,$3,$4,$5,$6,$7,$8,$9,$10,$11,$12,$1,$2,$13*%
%AMOutline7P*
0 Free polygon, 7 corners , with rotation*
0 The origin of the aperture is its center*
0 number of corners: always 7*
0 $1 to $14 corner X, Y*
0 $15 Rotation angle, in degrees counterclockwise*
0 create outline with 7 corners*
4,1,7,$1,$2,$3,$4,$5,$6,$7,$8,$9,$10,$11,$12,$13,$14,$1,$2,$15*%
%AMOutline8P*
0 Free polygon, 8 corners , with rotation*
0 The origin of the aperture is its center*
0 number of corners: always 8*
0 $1 to $16 corner X, Y*
0 $17 Rotation angle, in degrees counterclockwise*
0 create outline with 8 corners*
4,1,8,$1,$2,$3,$4,$5,$6,$7,$8,$9,$10,$11,$12,$13,$14,$15,$16,$1,$2,$17*%
G04 Aperture macros list end*
%TA.AperFunction,ComponentPad*%
%ADD10C,2.316000*%
%TD*%
%TA.AperFunction,ComponentPad*%
%ADD11Outline8P,-1.270000X0.526051X-0.526051X1.270000X0.526051X1.270000X1.270000X0.526051X1.270000X-0.526051X0.526051X-1.270000X-0.526051X-1.270000X-1.270000X-0.526051X0.000000*%
%TD*%
%TA.AperFunction,ComponentPad*%
%ADD12O,6.096000X3.048000*%
%TD*%
%TA.AperFunction,ComponentPad*%
%ADD13C,1.916000*%
%TD*%
%TA.AperFunction,ComponentPad*%
%ADD14Outline8P,-0.914400X0.378757X-0.378757X0.914400X0.378757X0.914400X0.914400X0.378757X0.914400X-0.378757X0.378757X-0.914400X-0.378757X-0.914400X-0.914400X-0.378757X90.000000*%
%TD*%
%TA.AperFunction,ComponentPad*%
%ADD15C,2.216000*%
%TD*%
%TA.AperFunction,ComponentPad*%
%ADD16Outline8P,-0.914400X0.378757X-0.378757X0.914400X0.378757X0.914400X0.914400X0.378757X0.914400X-0.378757X0.378757X-0.914400X-0.378757X-0.914400X-0.914400X-0.378757X0.000000*%
%TD*%
%TA.AperFunction,ComponentPad*%
%ADD17O,4.064000X2.032000*%
%TD*%
%TA.AperFunction,ComponentPad*%
%ADD18C,1.930400*%
%TD*%
%TA.AperFunction,ComponentPad*%
%ADD19Outline8P,-0.914400X0.378757X-0.378757X0.914400X0.378757X0.914400X0.914400X0.378757X0.914400X-0.378757X0.378757X-0.914400X-0.378757X-0.914400X-0.914400X-0.378757X180.000000*%
%TD*%
%TA.AperFunction,ComponentPad*%
%ADD20O,2.032000X4.064000*%
%TD*%
%TA.AperFunction,ViaPad*%
%ADD21C,2.117600*%
%TD*%
%TA.AperFunction,Conductor*%
%ADD22C,1.500000*%
%TD*%
G04 APERTURE END LIST*
D10*
%TO.P,U$2,AUX,AUX_AUX*%
%TO.N,unconnected-(U$2-PadAUX)*%
X214233600Y-80501600D03*
%TO.P,U$2,GND,GND_GND*%
%TO.N,Net-(R2-Pad2)*%
X214233600Y-75421600D03*
%TO.P,U$2,M0,M0_M0*%
%TO.N,/M0*%
X214233600Y-90661600D03*
%TO.P,U$2,M1,M1_M1*%
%TO.N,/M1*%
X214233600Y-88121600D03*
%TO.P,U$2,RXD,RXD_RXD*%
%TO.N,/TX2*%
X214233600Y-85581600D03*
%TO.P,U$2,TXD,TXD_TXD*%
%TO.N,/RX2*%
X214233600Y-83041600D03*
%TO.P,U$2,VCC,VCC_VCC*%
%TO.N,/VOUT_LORA*%
X214233600Y-77961600D03*
%TD*%
D11*
%TO.P,SP1,1,1_1*%
%TO.N,GND*%
X170279400Y-135923600D03*
%TO.P,SP1,2,2_2*%
%TO.N,/BUZZER*%
X176781800Y-135923600D03*
%TD*%
D10*
%TO.P,U$9,ADO,ADO_ADO*%
%TO.N,unconnected-(U$9-PadADO)*%
X126608900Y-111801100D03*
%TO.P,U$9,GND,GND_GND*%
%TO.N,GND*%
X113608900Y-111801100D03*
%TO.P,U$9,INT,INT_INT*%
%TO.N,unconnected-(U$9-PadINT)*%
X129208900Y-111801100D03*
%TO.P,U$9,SCL,SCL_SCL*%
%TO.N,/SCL*%
X116208900Y-111801100D03*
%TO.P,U$9,SDA,SDA_SDA*%
%TO.N,/SDA*%
X118808900Y-111801100D03*
%TO.P,U$9,VCC,VCC_VCC*%
%TO.N,/3V3*%
X111008900Y-111801100D03*
%TO.P,U$9,XCL,XCL_XCL*%
%TO.N,unconnected-(U$9-PadXCL)*%
X124008900Y-111801100D03*
%TO.P,U$9,XDA,XDA_XDA*%
%TO.N,unconnected-(U$9-PadXDA)*%
X121408900Y-111801100D03*
%TD*%
D12*
%TO.P,U$12,P$1,P$1_P$1*%
%TO.N,/VIN*%
X84168600Y-137067600D03*
%TO.P,U$12,P$2,P$2_P$2*%
%TO.N,unconnected-(U$12-PadP$2)*%
X84168600Y-128558600D03*
%TO.P,U$12,P$3,P$3_P$3*%
%TO.N,/V_BATTERY*%
X84168600Y-120684600D03*
%TD*%
D13*
%TO.P,U$6,1,1_1*%
%TO.N,/SKIB1*%
X208800600Y-137143600D03*
%TO.P,U$6,2,2_2*%
%TO.N,/SKIB2*%
X206260600Y-137143600D03*
%TD*%
D14*
%TO.P,LED1,A,A_A*%
%TO.N,Net-(LED1-PadA)*%
X82130600Y-104193600D03*
%TO.P,LED1,K,C_K*%
%TO.N,GND*%
X82130600Y-101653600D03*
%TD*%
D13*
%TO.P,U$5,1,1_1*%
%TO.N,/OPTOACOPLADOR1*%
X199400600Y-137103600D03*
%TO.P,U$5,2,2_2*%
%TO.N,/OPTOACOPLADOR2*%
X196860600Y-137103600D03*
%TD*%
D10*
%TO.P,U$1,3V0,3V0_3V0*%
%TO.N,/3V3*%
X115827400Y-134113600D03*
%TO.P,U$1,CS,CS_CS*%
%TO.N,unconnected-(U$1-PadCS)*%
X128527400Y-134113600D03*
%TO.P,U$1,GND,GND_GND*%
%TO.N,GND*%
X118367400Y-134113600D03*
%TO.P,U$1,INT,INT_INT*%
%TO.N,unconnected-(U$1-PadINT)*%
X131067400Y-134113600D03*
%TO.P,U$1,SCL,SCL_SCL*%
%TO.N,/SCL*%
X120907400Y-134113600D03*
%TO.P,U$1,SDA,SDA_SDA*%
%TO.N,/SDA*%
X125987400Y-134113600D03*
%TO.P,U$1,SDO,SDO_SDO*%
%TO.N,unconnected-(U$1-PadSDO)*%
X123447400Y-134113600D03*
%TO.P,U$1,VIN,VIN_VIN*%
%TO.N,unconnected-(U$1-PadVIN)*%
X113287400Y-134113600D03*
%TD*%
D15*
%TO.P,U$8,3V3,3V3_3V3*%
%TO.N,/3V3*%
X104378600Y-98756800D03*
%TO.P,U$8,CLK,CLK_CLK*%
%TO.N,/CLK*%
X104378600Y-91136800D03*
%TO.P,U$8,CS,CS_CS*%
%TO.N,/CS*%
X104378600Y-96216800D03*
%TO.P,U$8,GND,GND_GND*%
%TO.N,GND*%
X104378600Y-86056800D03*
%TO.P,U$8,MISO,MISO_MISO*%
%TO.N,/MISO*%
X104378600Y-88596800D03*
%TO.P,U$8,MOSI,MOSI_MOSI*%
%TO.N,/MOSI*%
X104378600Y-93676800D03*
%TD*%
D13*
%TO.P,U$4,1,1_1*%
%TO.N,/BUZZER*%
X105940200Y-125041000D03*
%TO.P,U$4,2,2_2*%
%TO.N,/3V3*%
X105940200Y-122501000D03*
%TD*%
%TO.P,U$7,1,1_1*%
%TO.N,/V_BATTERY*%
X105940200Y-135293600D03*
%TO.P,U$7,2,2_2*%
%TO.N,GND*%
X105940200Y-132753600D03*
%TD*%
D16*
%TO.P,R2,1,1_1*%
%TO.N,GND*%
X195580600Y-69323600D03*
%TO.P,R2,2,2_2*%
%TO.N,Net-(R2-Pad2)*%
X208280600Y-69323600D03*
%TD*%
D13*
%TO.P,U$10,1,1_1*%
%TO.N,GND*%
X106000000Y-114770000D03*
%TO.P,U$10,2,2_2*%
%TO.N,/3V3*%
X106000000Y-112230000D03*
%TD*%
D17*
%TO.P,IC1,GND,GND_GND*%
%TO.N,GND*%
X97310000Y-111500000D03*
%TO.P,IC1,IN,IN_IN*%
%TO.N,/VIN*%
X97310000Y-114040000D03*
%TO.P,IC1,OUT,OUT_OUT*%
%TO.N,/VOUT_LORA*%
X97310000Y-108960000D03*
%TD*%
D18*
%TO.P,U$11,1,3V3_1*%
%TO.N,/3V3*%
X204210600Y-102793600D03*
%TO.P,U$11,2,GND_2*%
%TO.N,GND*%
X201670600Y-102793600D03*
%TO.P,U$11,3,IO15_3*%
%TO.N,/RX1*%
X199130600Y-102793600D03*
%TO.P,U$11,4,IO2_4*%
%TO.N,/LED1*%
X196590600Y-102793600D03*
%TO.P,U$11,5,IO4_5*%
%TO.N,/TX1*%
X194050600Y-102793600D03*
%TO.P,U$11,6,IO16_6*%
%TO.N,/RX2*%
X191510600Y-102793600D03*
%TO.P,U$11,7,IO17_7*%
%TO.N,/TX2*%
X188970600Y-102793600D03*
%TO.P,U$11,8,IO5_8*%
%TO.N,/CS*%
X186430600Y-102793600D03*
%TO.P,U$11,9,IO18_9*%
%TO.N,/CLK*%
X183890600Y-102793600D03*
%TO.P,U$11,10,IO19_10*%
%TO.N,/MISO*%
X181350600Y-102793600D03*
%TO.P,U$11,11,IO21_11*%
%TO.N,/SDA*%
X178810600Y-102793600D03*
%TO.P,U$11,12,IO3_12*%
%TO.N,unconnected-(U$11-IO3-Pad12)*%
X176270600Y-102793600D03*
%TO.P,U$11,13,IO1_13*%
%TO.N,unconnected-(U$11-IO1-Pad13)*%
X173730600Y-102793600D03*
%TO.P,U$11,14,IO22_14*%
%TO.N,/SCL*%
X171190600Y-102793600D03*
%TO.P,U$11,15,IO23_15*%
%TO.N,/MOSI*%
X168650600Y-102793600D03*
%TO.P,U$11,16,EN_16*%
%TO.N,unconnected-(U$11-EN-Pad16)*%
X168650600Y-127563600D03*
%TO.P,U$11,17,VP_17*%
%TO.N,unconnected-(U$11-VP-Pad17)*%
X171190600Y-127563600D03*
%TO.P,U$11,18,VN_18*%
%TO.N,unconnected-(U$11-VN-Pad18)*%
X173730600Y-127563600D03*
%TO.P,U$11,19,IO34_19*%
%TO.N,/OPTOACOPLADOR2*%
X176270600Y-127563600D03*
%TO.P,U$11,20,IO35_20*%
%TO.N,/OPTOACOPLADOR1*%
X178810600Y-127563600D03*
%TO.P,U$11,21,IO32_21*%
%TO.N,/M1*%
X181350600Y-127563600D03*
%TO.P,U$11,22,IO33_22*%
%TO.N,/M0*%
X183890600Y-127563600D03*
%TO.P,U$11,23,IO25_23*%
%TO.N,unconnected-(U$11-IO25-Pad23)*%
X186430600Y-127563600D03*
%TO.P,U$11,24,IO27_24*%
%TO.N,unconnected-(U$11-IO27-Pad24)*%
X188970600Y-127563600D03*
%TO.P,U$11,25,IO26_25*%
%TO.N,unconnected-(U$11-IO26-Pad25)*%
X191510600Y-127563600D03*
%TO.P,U$11,26,IO14_26*%
%TO.N,/BUZZER*%
X194050600Y-127563600D03*
%TO.P,U$11,27,IO12_27*%
%TO.N,/SKIB2*%
X196590600Y-127563600D03*
%TO.P,U$11,28,IO13_28*%
%TO.N,/SKIB1*%
X199130600Y-127563600D03*
%TO.P,U$11,29,GND1_29*%
%TO.N,GND*%
X201670600Y-127563600D03*
%TO.P,U$11,30,VIN_30*%
%TO.N,/VOUT*%
X204210600Y-127563600D03*
%TD*%
D19*
%TO.P,R1,1,1_1*%
%TO.N,/LED1*%
X100280600Y-103628200D03*
%TO.P,R1,2,2_2*%
%TO.N,Net-(LED1-PadA)*%
X87580600Y-103628200D03*
%TD*%
D20*
%TO.P,IC2,GND,GND_GND*%
%TO.N,GND*%
X97068800Y-137557400D03*
%TO.P,IC2,IN,IN_IN*%
%TO.N,/VIN*%
X94528800Y-137557400D03*
%TO.P,IC2,OUT,OUT_OUT*%
%TO.N,/VOUT*%
X99608800Y-137557400D03*
%TD*%
D10*
%TO.P,U$3,GND,GND_GND*%
%TO.N,GND*%
X152160600Y-134763600D03*
%TO.P,U$3,RX,RX_RX*%
%TO.N,/TX1*%
X147080600Y-134763600D03*
%TO.P,U$3,TX,TX_TX*%
%TO.N,/RX1*%
X149620600Y-134763600D03*
%TO.P,U$3,VCC,VCC_VCC*%
%TO.N,/3V3*%
X144540600Y-134763600D03*
%TD*%
D21*
%TO.N,/TX2*%
X188930600Y-96123600D03*
X193930600Y-96123600D03*
%TO.N,GND*%
X132830600Y-101657000D03*
X132930600Y-84371400D03*
X218930600Y-99623600D03*
X160930600Y-130923600D03*
X212930600Y-99623600D03*
X204030600Y-99623600D03*
X166930600Y-130923600D03*
X132854400Y-91380800D03*
%TO.N,/BUZZER*%
X186530600Y-138523600D03*
X186530600Y-130647400D03*
%TO.N,/CLK*%
X178930600Y-96123600D03*
X183730600Y-96123600D03*
%TO.N,/LED1*%
X196493400Y-94304000D03*
X188721000Y-92399000D03*
%TD*%
%TO.N,/TX2*%
D22*
X193930600Y-96123600D02*
X188930600Y-96123600D01*
%TO.N,GND*%
X132930600Y-84371400D02*
X132930600Y-91304600D01*
X166930600Y-130923600D02*
X160930600Y-130923600D01*
X132854400Y-91380800D02*
X132854400Y-91428400D01*
X212930600Y-99623600D02*
X218930600Y-99623600D01*
X132830600Y-101657000D02*
X132906800Y-101580800D01*
X212930600Y-99623600D02*
X204030600Y-99623600D01*
X132906800Y-91480800D02*
X132906800Y-101580800D01*
X132906800Y-91480800D02*
X132854400Y-91428400D01*
X132854400Y-91380800D02*
X132930600Y-91304600D01*
%TO.N,/BUZZER*%
X186530600Y-138523600D02*
X186530600Y-130647400D01*
%TO.N,/CLK*%
X178930600Y-96123600D02*
X183730600Y-96123600D01*
%TO.N,/LED1*%
X188721000Y-92399000D02*
X194588400Y-92399000D01*
X194588400Y-92399000D02*
X196493400Y-94304000D01*
%TD*%
%TA.AperFunction,Conductor*%
%TO.N,GND*%
G36*
X216565580Y-66051826D02*
G01*
X216673858Y-66110423D01*
X216757242Y-66201003D01*
X216806698Y-66313750D01*
X216816865Y-66436447D01*
X216786641Y-66555796D01*
X216719303Y-66658865D01*
X216708600Y-66670020D01*
X216611680Y-66766939D01*
X216471991Y-66948984D01*
X216471986Y-66948991D01*
X216357258Y-67147707D01*
X216269440Y-67359718D01*
X216210051Y-67581366D01*
X216180100Y-67808859D01*
X216180100Y-68038340D01*
X216210051Y-68265833D01*
X216259790Y-68451467D01*
X216269442Y-68487487D01*
X216357256Y-68699488D01*
X216357258Y-68699492D01*
X216471986Y-68898208D01*
X216471991Y-68898215D01*
X216606926Y-69074064D01*
X216611681Y-69080261D01*
X216773939Y-69242519D01*
X216955988Y-69382211D01*
X217154712Y-69496944D01*
X217366713Y-69584758D01*
X217588362Y-69644148D01*
X217815866Y-69674100D01*
X217815872Y-69674100D01*
X218045328Y-69674100D01*
X218045334Y-69674100D01*
X218272838Y-69644148D01*
X218494487Y-69584758D01*
X218706488Y-69496944D01*
X218905212Y-69382211D01*
X219087261Y-69242519D01*
X219249519Y-69080261D01*
X219389211Y-68898212D01*
X219503944Y-68699488D01*
X219591758Y-68487487D01*
X219651148Y-68265838D01*
X219681100Y-68038334D01*
X219681100Y-67808866D01*
X219651148Y-67581362D01*
X219591758Y-67359713D01*
X219503944Y-67147712D01*
X219469855Y-67088668D01*
X219389213Y-66948991D01*
X219389208Y-66948984D01*
X219249519Y-66766939D01*
X219152600Y-66670020D01*
X219081060Y-66569822D01*
X219045930Y-66451823D01*
X219051018Y-66328811D01*
X219095772Y-66214117D01*
X219175342Y-66120169D01*
X219281106Y-66057147D01*
X219401602Y-66031881D01*
X219417058Y-66031562D01*
X220670923Y-66031562D01*
X220792361Y-66051826D01*
X220900639Y-66110423D01*
X220984023Y-66201003D01*
X221033479Y-66313750D01*
X221044922Y-66405890D01*
X220996483Y-120809936D01*
X220974856Y-145100182D01*
X220954483Y-145221602D01*
X220895790Y-145329827D01*
X220805136Y-145413131D01*
X220692345Y-145462486D01*
X220600248Y-145473849D01*
X201088200Y-145442107D01*
X201087134Y-145442103D01*
X74221221Y-144874104D01*
X74099875Y-144853296D01*
X73991860Y-144794215D01*
X73908882Y-144703263D01*
X73859932Y-144590295D01*
X73850314Y-144467555D01*
X73881072Y-144348342D01*
X73948871Y-144245575D01*
X74046365Y-144170391D01*
X74079751Y-144154586D01*
X74275888Y-144073344D01*
X74474612Y-143958611D01*
X74656661Y-143818919D01*
X74818919Y-143656661D01*
X74958611Y-143474612D01*
X75073344Y-143275888D01*
X75161158Y-143063887D01*
X75220548Y-142842238D01*
X75250500Y-142614734D01*
X75250500Y-142385266D01*
X75220548Y-142157762D01*
X75161158Y-141936113D01*
X75108447Y-141808859D01*
X216180100Y-141808859D01*
X216180100Y-142038340D01*
X216210051Y-142265833D01*
X216210052Y-142265838D01*
X216269442Y-142487487D01*
X216357256Y-142699488D01*
X216357258Y-142699492D01*
X216471986Y-142898208D01*
X216471991Y-142898215D01*
X216611680Y-143080260D01*
X216611681Y-143080261D01*
X216773939Y-143242519D01*
X216955988Y-143382211D01*
X217154712Y-143496944D01*
X217366713Y-143584758D01*
X217588362Y-143644148D01*
X217815866Y-143674100D01*
X217815872Y-143674100D01*
X218045328Y-143674100D01*
X218045334Y-143674100D01*
X218272838Y-143644148D01*
X218494487Y-143584758D01*
X218706488Y-143496944D01*
X218905212Y-143382211D01*
X219087261Y-143242519D01*
X219249519Y-143080261D01*
X219389211Y-142898212D01*
X219503944Y-142699488D01*
X219591758Y-142487487D01*
X219651148Y-142265838D01*
X219681100Y-142038334D01*
X219681100Y-141808866D01*
X219651148Y-141581362D01*
X219591758Y-141359713D01*
X219503944Y-141147712D01*
X219389211Y-140948988D01*
X219372076Y-140926658D01*
X219249519Y-140766939D01*
X219087260Y-140604680D01*
X218905215Y-140464991D01*
X218905208Y-140464986D01*
X218706492Y-140350258D01*
X218706490Y-140350257D01*
X218706488Y-140350256D01*
X218494487Y-140262442D01*
X218494483Y-140262441D01*
X218494481Y-140262440D01*
X218375695Y-140230612D01*
X218272838Y-140203052D01*
X218272835Y-140203051D01*
X218272833Y-140203051D01*
X218045340Y-140173100D01*
X218045334Y-140173100D01*
X217815866Y-140173100D01*
X217815859Y-140173100D01*
X217588366Y-140203051D01*
X217366718Y-140262440D01*
X217154707Y-140350258D01*
X216955991Y-140464986D01*
X216955984Y-140464991D01*
X216773939Y-140604680D01*
X216611680Y-140766939D01*
X216471991Y-140948984D01*
X216471986Y-140948991D01*
X216357258Y-141147707D01*
X216269440Y-141359718D01*
X216210051Y-141581366D01*
X216180100Y-141808859D01*
X75108447Y-141808859D01*
X75073344Y-141724112D01*
X74958611Y-141525388D01*
X74818919Y-141343339D01*
X74656661Y-141181081D01*
X74613174Y-141147712D01*
X74474615Y-141041391D01*
X74474608Y-141041386D01*
X74275892Y-140926658D01*
X74275890Y-140926657D01*
X74275888Y-140926656D01*
X74063887Y-140838842D01*
X74063883Y-140838841D01*
X74063881Y-140838840D01*
X73925669Y-140801807D01*
X73842238Y-140779452D01*
X73842235Y-140779451D01*
X73842233Y-140779451D01*
X73614740Y-140749500D01*
X73614734Y-140749500D01*
X73385266Y-140749500D01*
X73385259Y-140749500D01*
X73157766Y-140779451D01*
X72936118Y-140838840D01*
X72724109Y-140926657D01*
X72655810Y-140966090D01*
X72540509Y-141009258D01*
X72417439Y-141012650D01*
X72299936Y-140975897D01*
X72200734Y-140902982D01*
X72130581Y-140801807D01*
X72097082Y-140683336D01*
X72094816Y-140640521D01*
X72094977Y-140604680D01*
X72111484Y-136917729D01*
X80358100Y-136917729D01*
X80358100Y-137217470D01*
X80397222Y-137514624D01*
X80397223Y-137514631D01*
X80425618Y-137620604D01*
X80474800Y-137804153D01*
X80474801Y-137804155D01*
X80589496Y-138081056D01*
X80589498Y-138081059D01*
X80589500Y-138081063D01*
X80739366Y-138340637D01*
X80921830Y-138578429D01*
X81133771Y-138790370D01*
X81371563Y-138972834D01*
X81631137Y-139122700D01*
X81631140Y-139122701D01*
X81631143Y-139122703D01*
X81908044Y-139237398D01*
X81908046Y-139237399D01*
X81908049Y-139237399D01*
X81908052Y-139237401D01*
X82197569Y-139314977D01*
X82494735Y-139354100D01*
X82696334Y-139354100D01*
X82817772Y-139374364D01*
X82869134Y-139397166D01*
X82869214Y-139397001D01*
X82874552Y-139399571D01*
X82877249Y-139400769D01*
X82878664Y-139401551D01*
X82878669Y-139401554D01*
X83148100Y-139531305D01*
X83430364Y-139630073D01*
X83721912Y-139696617D01*
X84019077Y-139730100D01*
X84318123Y-139730100D01*
X84615288Y-139696617D01*
X84906836Y-139630073D01*
X85189100Y-139531305D01*
X85458531Y-139401554D01*
X85458542Y-139401546D01*
X85459951Y-139400769D01*
X85460741Y-139400489D01*
X85467986Y-139397001D01*
X85468368Y-139397795D01*
X85576038Y-139359761D01*
X85640866Y-139354100D01*
X85842457Y-139354100D01*
X85842465Y-139354100D01*
X86139631Y-139314977D01*
X86429148Y-139237401D01*
X86706063Y-139122700D01*
X86965637Y-138972834D01*
X87203429Y-138790370D01*
X87415370Y-138578429D01*
X87597834Y-138340637D01*
X87747700Y-138081063D01*
X87862401Y-137804148D01*
X87939977Y-137514631D01*
X87979100Y-137217465D01*
X87979100Y-136917735D01*
X87939977Y-136620569D01*
X87887527Y-136424825D01*
X92750300Y-136424825D01*
X92750300Y-138689974D01*
X92780730Y-138921106D01*
X92780730Y-138921110D01*
X92841070Y-139146306D01*
X92930285Y-139361691D01*
X92930288Y-139361696D01*
X93046855Y-139563598D01*
X93046864Y-139563611D01*
X93188770Y-139748547D01*
X93188785Y-139748564D01*
X93353635Y-139913414D01*
X93353652Y-139913429D01*
X93538588Y-140055335D01*
X93538596Y-140055341D01*
X93538598Y-140055342D01*
X93740502Y-140171911D01*
X93740505Y-140171912D01*
X93740508Y-140171914D01*
X93933709Y-140251940D01*
X93955893Y-140261129D01*
X94181087Y-140321469D01*
X94412231Y-140351900D01*
X94412239Y-140351900D01*
X94645361Y-140351900D01*
X94645369Y-140351900D01*
X94876513Y-140321469D01*
X94913603Y-140311530D01*
X95036144Y-140299674D01*
X95155899Y-140328250D01*
X95259887Y-140394161D01*
X95274858Y-140408329D01*
X95356262Y-140489733D01*
X95356265Y-140489735D01*
X95581586Y-140669424D01*
X95825622Y-140822762D01*
X95825628Y-140822766D01*
X96085288Y-140947810D01*
X96293800Y-141020770D01*
X96293800Y-138817021D01*
X96297000Y-138768204D01*
X96307298Y-138689981D01*
X96307300Y-138689969D01*
X96307300Y-137490520D01*
X96560800Y-137490520D01*
X96560800Y-137624280D01*
X96595419Y-137753481D01*
X96662298Y-137869320D01*
X96756880Y-137963902D01*
X96872719Y-138030781D01*
X97001920Y-138065400D01*
X97135680Y-138065400D01*
X97264881Y-138030781D01*
X97380720Y-137963902D01*
X97475302Y-137869320D01*
X97542181Y-137753481D01*
X97576800Y-137624280D01*
X97576800Y-137490520D01*
X97542181Y-137361319D01*
X97475302Y-137245480D01*
X97380720Y-137150898D01*
X97264881Y-137084019D01*
X97135680Y-137049400D01*
X97001920Y-137049400D01*
X96872719Y-137084019D01*
X96756880Y-137150898D01*
X96662298Y-137245480D01*
X96595419Y-137361319D01*
X96560800Y-137490520D01*
X96307300Y-137490520D01*
X96307300Y-136424839D01*
X97830300Y-136424839D01*
X97830300Y-138689975D01*
X97840600Y-138768204D01*
X97843800Y-138817021D01*
X97843800Y-141020769D01*
X98052311Y-140947810D01*
X98311971Y-140822766D01*
X98311977Y-140822762D01*
X98556013Y-140669424D01*
X98781334Y-140489735D01*
X98781346Y-140489725D01*
X98862740Y-140408331D01*
X98962938Y-140336790D01*
X99080936Y-140301659D01*
X99203947Y-140306746D01*
X99223997Y-140311531D01*
X99261079Y-140321467D01*
X99261080Y-140321467D01*
X99261087Y-140321469D01*
X99492231Y-140351900D01*
X99492239Y-140351900D01*
X99725361Y-140351900D01*
X99725369Y-140351900D01*
X99956513Y-140321469D01*
X100181707Y-140261129D01*
X100397098Y-140171911D01*
X100599002Y-140055342D01*
X100620303Y-140038997D01*
X100783947Y-139913429D01*
X100783953Y-139913423D01*
X100783963Y-139913416D01*
X100948816Y-139748563D01*
X100948823Y-139748553D01*
X100948829Y-139748547D01*
X101090735Y-139563611D01*
X101090742Y-139563602D01*
X101207311Y-139361698D01*
X101296529Y-139146307D01*
X101356869Y-138921113D01*
X101387300Y-138689969D01*
X101387300Y-136424831D01*
X101356869Y-136193687D01*
X101296529Y-135968493D01*
X101283104Y-135936082D01*
X101207314Y-135753108D01*
X101207311Y-135753103D01*
X101207311Y-135753102D01*
X101117312Y-135597219D01*
X101090744Y-135551201D01*
X101090735Y-135551188D01*
X100948829Y-135366252D01*
X100948814Y-135366235D01*
X100783964Y-135201385D01*
X100783947Y-135201370D01*
X100599011Y-135059464D01*
X100598998Y-135059455D01*
X100397096Y-134942888D01*
X100397091Y-134942885D01*
X100181706Y-134853670D01*
X99993606Y-134803270D01*
X99956513Y-134793331D01*
X99956510Y-134793330D01*
X99956508Y-134793330D01*
X99725374Y-134762900D01*
X99725369Y-134762900D01*
X99492231Y-134762900D01*
X99492225Y-134762900D01*
X99261093Y-134793330D01*
X99261089Y-134793330D01*
X99261087Y-134793331D01*
X99261085Y-134793331D01*
X99261077Y-134793333D01*
X99223990Y-134803270D01*
X99101446Y-134815124D01*
X98981692Y-134786546D01*
X98877706Y-134720632D01*
X98862741Y-134706470D01*
X98781338Y-134625067D01*
X98781334Y-134625064D01*
X98556013Y-134445375D01*
X98311977Y-134292037D01*
X98311971Y-134292033D01*
X98052311Y-134166989D01*
X98052301Y-134166985D01*
X97843800Y-134094027D01*
X97843800Y-136297778D01*
X97840600Y-136346594D01*
X97830301Y-136424822D01*
X97830300Y-136424839D01*
X96307300Y-136424839D01*
X96307300Y-136424831D01*
X96296659Y-136344006D01*
X96296359Y-136341454D01*
X96296488Y-136338784D01*
X96293800Y-136297778D01*
X96293800Y-134094028D01*
X96293799Y-134094027D01*
X96085298Y-134166985D01*
X96085288Y-134166989D01*
X95825628Y-134292033D01*
X95825622Y-134292037D01*
X95581586Y-134445375D01*
X95356265Y-134625064D01*
X95356251Y-134625076D01*
X95274856Y-134706471D01*
X95174658Y-134778011D01*
X95056659Y-134813140D01*
X94933647Y-134808052D01*
X94913607Y-134803270D01*
X94876513Y-134793331D01*
X94876506Y-134793330D01*
X94645374Y-134762900D01*
X94645369Y-134762900D01*
X94412231Y-134762900D01*
X94412225Y-134762900D01*
X94181093Y-134793330D01*
X94181089Y-134793330D01*
X93955893Y-134853670D01*
X93740508Y-134942885D01*
X93740503Y-134942888D01*
X93538601Y-135059455D01*
X93538588Y-135059464D01*
X93353652Y-135201370D01*
X93353635Y-135201385D01*
X93188785Y-135366235D01*
X93188770Y-135366252D01*
X93046864Y-135551188D01*
X93046855Y-135551201D01*
X92930288Y-135753103D01*
X92930285Y-135753108D01*
X92841070Y-135968493D01*
X92780730Y-136193689D01*
X92780730Y-136193693D01*
X92750300Y-136424825D01*
X87887527Y-136424825D01*
X87862401Y-136331052D01*
X87829454Y-136251510D01*
X87747703Y-136054143D01*
X87747701Y-136054140D01*
X87747700Y-136054137D01*
X87597834Y-135794563D01*
X87415370Y-135556771D01*
X87203429Y-135344830D01*
X86965637Y-135162366D01*
X86706063Y-135012500D01*
X86706061Y-135012499D01*
X86706059Y-135012498D01*
X86706056Y-135012496D01*
X86429155Y-134897801D01*
X86429153Y-134897800D01*
X86167233Y-134827619D01*
X86139631Y-134820223D01*
X86139625Y-134820222D01*
X86139624Y-134820222D01*
X85842470Y-134781100D01*
X85842465Y-134781100D01*
X85640866Y-134781100D01*
X85519428Y-134760836D01*
X85468065Y-134738033D01*
X85467986Y-134738199D01*
X85462647Y-134735628D01*
X85459951Y-134734431D01*
X85458524Y-134733642D01*
X85189105Y-134603897D01*
X85189093Y-134603892D01*
X85064805Y-134560402D01*
X84906836Y-134505127D01*
X84906831Y-134505125D01*
X84906829Y-134505125D01*
X84615294Y-134438584D01*
X84615284Y-134438582D01*
X84318123Y-134405100D01*
X84019077Y-134405100D01*
X83721915Y-134438582D01*
X83721905Y-134438584D01*
X83430370Y-134505125D01*
X83430366Y-134505126D01*
X83430364Y-134505127D01*
X83363050Y-134528681D01*
X83148106Y-134603892D01*
X83148094Y-134603897D01*
X82878675Y-134733642D01*
X82877249Y-134734431D01*
X82876458Y-134734710D01*
X82869214Y-134738199D01*
X82868831Y-134737404D01*
X82761162Y-134775439D01*
X82696334Y-134781100D01*
X82494729Y-134781100D01*
X82197575Y-134820222D01*
X82197571Y-134820222D01*
X82197569Y-134820223D01*
X82197566Y-134820223D01*
X82197565Y-134820224D01*
X81908046Y-134897800D01*
X81908044Y-134897801D01*
X81631143Y-135012496D01*
X81631140Y-135012498D01*
X81411887Y-135139085D01*
X81371563Y-135162366D01*
X81294412Y-135221565D01*
X81133778Y-135344824D01*
X81133770Y-135344831D01*
X80921831Y-135556770D01*
X80921824Y-135556778D01*
X80739364Y-135794566D01*
X80589498Y-136054140D01*
X80589496Y-136054143D01*
X80474801Y-136331044D01*
X80474800Y-136331046D01*
X80397224Y-136620565D01*
X80397222Y-136620575D01*
X80358100Y-136917729D01*
X72111484Y-136917729D01*
X72126657Y-133528600D01*
X103554275Y-133528600D01*
X103619454Y-133714870D01*
X103619455Y-133714873D01*
X103741682Y-133968681D01*
X103891548Y-134207191D01*
X103891550Y-134207194D01*
X104067181Y-134427429D01*
X104169960Y-134530208D01*
X104241500Y-134630406D01*
X104276630Y-134748405D01*
X104271542Y-134871417D01*
X104266759Y-134891460D01*
X104249142Y-134957208D01*
X104249136Y-134957240D01*
X104219700Y-135180824D01*
X104219700Y-135406375D01*
X104249136Y-135629959D01*
X104249140Y-135629983D01*
X104307510Y-135847821D01*
X104307514Y-135847832D01*
X104393816Y-136056186D01*
X104393818Y-136056188D01*
X104393819Y-136056191D01*
X104506587Y-136251510D01*
X104643884Y-136430439D01*
X104803361Y-136589916D01*
X104982290Y-136727213D01*
X105177609Y-136839981D01*
X105177611Y-136839982D01*
X105177613Y-136839983D01*
X105365345Y-136917743D01*
X105385977Y-136926289D01*
X105603827Y-136984662D01*
X105827432Y-137014100D01*
X105827439Y-137014100D01*
X106052961Y-137014100D01*
X106052968Y-137014100D01*
X106276573Y-136984662D01*
X106494423Y-136926289D01*
X106702791Y-136839981D01*
X106898110Y-136727213D01*
X107077039Y-136589916D01*
X107236516Y-136430439D01*
X107373813Y-136251510D01*
X107486581Y-136056191D01*
X107572889Y-135847823D01*
X107631262Y-135629973D01*
X107660700Y-135406368D01*
X107660700Y-135180832D01*
X107631262Y-134957227D01*
X107613640Y-134891464D01*
X107601784Y-134768920D01*
X107630360Y-134649166D01*
X107696272Y-134545178D01*
X107710440Y-134530207D01*
X107813218Y-134427429D01*
X107988849Y-134207194D01*
X107988851Y-134207191D01*
X108126758Y-133987714D01*
X111366900Y-133987714D01*
X111366900Y-134239485D01*
X111399758Y-134489064D01*
X111399763Y-134489090D01*
X111461805Y-134720632D01*
X111464918Y-134732249D01*
X111558107Y-134957227D01*
X111561261Y-134964840D01*
X111687135Y-135182861D01*
X111840130Y-135382249D01*
X111840393Y-135382591D01*
X112018409Y-135560607D01*
X112018417Y-135560613D01*
X112018418Y-135560614D01*
X112108809Y-135629973D01*
X112218138Y-135713864D01*
X112436162Y-135839740D01*
X112668751Y-135936082D01*
X112789711Y-135968493D01*
X112911909Y-136001236D01*
X112911912Y-136001236D01*
X112911925Y-136001240D01*
X113036724Y-136017670D01*
X113161514Y-136034099D01*
X113161523Y-136034100D01*
X113161524Y-136034100D01*
X113413277Y-136034100D01*
X113413285Y-136034099D01*
X113486169Y-136024503D01*
X113662875Y-136001240D01*
X113906049Y-135936082D01*
X114138638Y-135839740D01*
X114356662Y-135713864D01*
X114356661Y-135713864D01*
X114367266Y-135707742D01*
X114368581Y-135710020D01*
X114461826Y-135667959D01*
X114584410Y-135656518D01*
X114704067Y-135685499D01*
X114746970Y-135708717D01*
X114747534Y-135707742D01*
X114758138Y-135713864D01*
X114976162Y-135839740D01*
X115208751Y-135936082D01*
X115329711Y-135968493D01*
X115451909Y-136001236D01*
X115451912Y-136001236D01*
X115451925Y-136001240D01*
X115576724Y-136017670D01*
X115701514Y-136034099D01*
X115701523Y-136034100D01*
X115701524Y-136034100D01*
X115953277Y-136034100D01*
X115953288Y-136034099D01*
X116215014Y-135999642D01*
X116215407Y-136002634D01*
X116315231Y-135999485D01*
X116432879Y-136035770D01*
X116529793Y-136105684D01*
X116560092Y-136135983D01*
X116797877Y-136325610D01*
X116797897Y-136325624D01*
X117055416Y-136487435D01*
X117329465Y-136619409D01*
X117592400Y-136711413D01*
X117592400Y-134945415D01*
X117612664Y-134823977D01*
X117620870Y-134802290D01*
X117646929Y-134739377D01*
X117649882Y-134732249D01*
X117715040Y-134489075D01*
X117740653Y-134294521D01*
X117742379Y-134303198D01*
X117791378Y-134421490D01*
X117862512Y-134527951D01*
X117953049Y-134618488D01*
X118059510Y-134689622D01*
X118177802Y-134738621D01*
X118303381Y-134763600D01*
X118431419Y-134763600D01*
X118556998Y-134738621D01*
X118675290Y-134689622D01*
X118781751Y-134618488D01*
X118872288Y-134527951D01*
X118943422Y-134421490D01*
X118992421Y-134303198D01*
X118994146Y-134294524D01*
X119019758Y-134489064D01*
X119019763Y-134489090D01*
X119084917Y-134732246D01*
X119084920Y-134732255D01*
X119113930Y-134802290D01*
X119141681Y-134922238D01*
X119142400Y-134945415D01*
X119142400Y-136711412D01*
X119405334Y-136619409D01*
X119679383Y-136487435D01*
X119936902Y-136325624D01*
X119936912Y-136325617D01*
X120174715Y-136135975D01*
X120205002Y-136105688D01*
X120305199Y-136034146D01*
X120423197Y-135999015D01*
X120519411Y-136002502D01*
X120519788Y-135999642D01*
X120531924Y-136001239D01*
X120531925Y-136001240D01*
X120542514Y-136002634D01*
X120781514Y-136034099D01*
X120781523Y-136034100D01*
X120781524Y-136034100D01*
X121033277Y-136034100D01*
X121033285Y-136034099D01*
X121106169Y-136024503D01*
X121282875Y-136001240D01*
X121526049Y-135936082D01*
X121758638Y-135839740D01*
X121976662Y-135713864D01*
X121976661Y-135713864D01*
X121987266Y-135707742D01*
X121988581Y-135710020D01*
X122081826Y-135667959D01*
X122204410Y-135656518D01*
X122324067Y-135685499D01*
X122366970Y-135708717D01*
X122367534Y-135707742D01*
X122378138Y-135713864D01*
X122596162Y-135839740D01*
X122828751Y-135936082D01*
X122949711Y-135968493D01*
X123071909Y-136001236D01*
X123071912Y-136001236D01*
X123071925Y-136001240D01*
X123196724Y-136017670D01*
X123321514Y-136034099D01*
X123321523Y-136034100D01*
X123321524Y-136034100D01*
X123573277Y-136034100D01*
X123573285Y-136034099D01*
X123646169Y-136024503D01*
X123822875Y-136001240D01*
X124066049Y-135936082D01*
X124298638Y-135839740D01*
X124516662Y-135713864D01*
X124516661Y-135713864D01*
X124527266Y-135707742D01*
X124528581Y-135710020D01*
X124621826Y-135667959D01*
X124744410Y-135656518D01*
X124864067Y-135685499D01*
X124906970Y-135708717D01*
X124907534Y-135707742D01*
X124918138Y-135713864D01*
X125136162Y-135839740D01*
X125368751Y-135936082D01*
X125489711Y-135968493D01*
X125611909Y-136001236D01*
X125611912Y-136001236D01*
X125611925Y-136001240D01*
X125736724Y-136017670D01*
X125861514Y-136034099D01*
X125861523Y-136034100D01*
X125861524Y-136034100D01*
X126113277Y-136034100D01*
X126113285Y-136034099D01*
X126186169Y-136024503D01*
X126362875Y-136001240D01*
X126606049Y-135936082D01*
X126838638Y-135839740D01*
X127056662Y-135713864D01*
X127056661Y-135713864D01*
X127067266Y-135707742D01*
X127068581Y-135710020D01*
X127161826Y-135667959D01*
X127284410Y-135656518D01*
X127404067Y-135685499D01*
X127446970Y-135708717D01*
X127447534Y-135707742D01*
X127458138Y-135713864D01*
X127676162Y-135839740D01*
X127908751Y-135936082D01*
X128029711Y-135968493D01*
X128151909Y-136001236D01*
X128151912Y-136001236D01*
X128151925Y-136001240D01*
X128276724Y-136017670D01*
X128401514Y-136034099D01*
X128401523Y-136034100D01*
X128401524Y-136034100D01*
X128653277Y-136034100D01*
X128653285Y-136034099D01*
X128726169Y-136024503D01*
X128902875Y-136001240D01*
X129146049Y-135936082D01*
X129378638Y-135839740D01*
X129596662Y-135713864D01*
X129596661Y-135713864D01*
X129607266Y-135707742D01*
X129608581Y-135710020D01*
X129701826Y-135667959D01*
X129824410Y-135656518D01*
X129944067Y-135685499D01*
X129986970Y-135708717D01*
X129987534Y-135707742D01*
X129998138Y-135713864D01*
X130216162Y-135839740D01*
X130448751Y-135936082D01*
X130569711Y-135968493D01*
X130691909Y-136001236D01*
X130691912Y-136001236D01*
X130691925Y-136001240D01*
X130816724Y-136017670D01*
X130941514Y-136034099D01*
X130941523Y-136034100D01*
X130941524Y-136034100D01*
X131193277Y-136034100D01*
X131193285Y-136034099D01*
X131266169Y-136024503D01*
X131442875Y-136001240D01*
X131686049Y-135936082D01*
X131918638Y-135839740D01*
X132136662Y-135713864D01*
X132336391Y-135560607D01*
X132514407Y-135382591D01*
X132667664Y-135182862D01*
X132793540Y-134964838D01*
X132889882Y-134732249D01*
X132915212Y-134637714D01*
X142620100Y-134637714D01*
X142620100Y-134889485D01*
X142652958Y-135139064D01*
X142652963Y-135139090D01*
X142718115Y-135382239D01*
X142718118Y-135382249D01*
X142814461Y-135614840D01*
X142940335Y-135832861D01*
X143069536Y-136001240D01*
X143093593Y-136032591D01*
X143271609Y-136210607D01*
X143271617Y-136210613D01*
X143271618Y-136210614D01*
X143434372Y-136335499D01*
X143471338Y-136363864D01*
X143689362Y-136489740D01*
X143921951Y-136586082D01*
X144046330Y-136619409D01*
X144165109Y-136651236D01*
X144165112Y-136651236D01*
X144165125Y-136651240D01*
X144289924Y-136667670D01*
X144414714Y-136684099D01*
X144414723Y-136684100D01*
X144414724Y-136684100D01*
X144666477Y-136684100D01*
X144666485Y-136684099D01*
X144739369Y-136674503D01*
X144916075Y-136651240D01*
X145159249Y-136586082D01*
X145391838Y-136489740D01*
X145609862Y-136363864D01*
X145609861Y-136363864D01*
X145620466Y-136357742D01*
X145621781Y-136360020D01*
X145715026Y-136317959D01*
X145837610Y-136306518D01*
X145957267Y-136335499D01*
X146000170Y-136358717D01*
X146000734Y-136357742D01*
X146041034Y-136381009D01*
X146229362Y-136489740D01*
X146461951Y-136586082D01*
X146586330Y-136619409D01*
X146705109Y-136651236D01*
X146705112Y-136651236D01*
X146705125Y-136651240D01*
X146829924Y-136667670D01*
X146954714Y-136684099D01*
X146954723Y-136684100D01*
X146954724Y-136684100D01*
X147206477Y-136684100D01*
X147206485Y-136684099D01*
X147279369Y-136674503D01*
X147456075Y-136651240D01*
X147699249Y-136586082D01*
X147931838Y-136489740D01*
X148149862Y-136363864D01*
X148149861Y-136363864D01*
X148160466Y-136357742D01*
X148161781Y-136360020D01*
X148255026Y-136317959D01*
X148377610Y-136306518D01*
X148497267Y-136335499D01*
X148540170Y-136358717D01*
X148540734Y-136357742D01*
X148581034Y-136381009D01*
X148769362Y-136489740D01*
X149001951Y-136586082D01*
X149126330Y-136619409D01*
X149245109Y-136651236D01*
X149245112Y-136651236D01*
X149245125Y-136651240D01*
X149369924Y-136667670D01*
X149494714Y-136684099D01*
X149494723Y-136684100D01*
X149494724Y-136684100D01*
X149746477Y-136684100D01*
X149746488Y-136684099D01*
X150008214Y-136649642D01*
X150008607Y-136652634D01*
X150108431Y-136649485D01*
X150226079Y-136685770D01*
X150322993Y-136755684D01*
X150353292Y-136785983D01*
X150591077Y-136975610D01*
X150591097Y-136975624D01*
X150848616Y-137137435D01*
X151122665Y-137269409D01*
X151385600Y-137361413D01*
X151385600Y-137361412D01*
X152935600Y-137361412D01*
X153198534Y-137269409D01*
X153472583Y-137137435D01*
X153730102Y-136975624D01*
X153730122Y-136975610D01*
X153967907Y-136785983D01*
X154055290Y-136698600D01*
X167475590Y-136698600D01*
X167529499Y-136927200D01*
X167625271Y-137158418D01*
X167756883Y-137371260D01*
X167756895Y-137371277D01*
X167866246Y-137498528D01*
X167866252Y-137498535D01*
X168704452Y-138336734D01*
X168831739Y-138446114D01*
X168831740Y-138446115D01*
X169044583Y-138577728D01*
X169044586Y-138577729D01*
X169275788Y-138673496D01*
X169275799Y-138673499D01*
X169504400Y-138727408D01*
X171054400Y-138727408D01*
X171282995Y-138673502D01*
X171283006Y-138673498D01*
X171514218Y-138577728D01*
X171727060Y-138446116D01*
X171727077Y-138446104D01*
X171854328Y-138336753D01*
X171854335Y-138336747D01*
X172692534Y-137498547D01*
X172801914Y-137371260D01*
X172801915Y-137371259D01*
X172933527Y-137158416D01*
X173029297Y-136927209D01*
X173029300Y-136927199D01*
X173083208Y-136698600D01*
X171054400Y-136698600D01*
X171054400Y-138727408D01*
X169504400Y-138727408D01*
X169504400Y-136698600D01*
X167475590Y-136698600D01*
X154055290Y-136698600D01*
X154182983Y-136570907D01*
X154339094Y-136375151D01*
X154372611Y-136333120D01*
X154372624Y-136333102D01*
X154534435Y-136075583D01*
X154639833Y-135856720D01*
X169771400Y-135856720D01*
X169771400Y-135990480D01*
X169806019Y-136119681D01*
X169872898Y-136235520D01*
X169967480Y-136330102D01*
X170083319Y-136396981D01*
X170212520Y-136431600D01*
X170346280Y-136431600D01*
X170475481Y-136396981D01*
X170591320Y-136330102D01*
X170685902Y-136235520D01*
X170752781Y-136119681D01*
X170787400Y-135990480D01*
X170787400Y-135856720D01*
X170752781Y-135727519D01*
X170685902Y-135611680D01*
X170591320Y-135517098D01*
X170475481Y-135450219D01*
X170346280Y-135415600D01*
X170212520Y-135415600D01*
X170083319Y-135450219D01*
X169967480Y-135517098D01*
X169872898Y-135611680D01*
X169806019Y-135727519D01*
X169771400Y-135856720D01*
X154639833Y-135856720D01*
X154666409Y-135801534D01*
X154758414Y-135538600D01*
X152935600Y-135538600D01*
X152935600Y-137361412D01*
X151385600Y-137361412D01*
X151385600Y-135595415D01*
X151390381Y-135565837D01*
X151390094Y-135537609D01*
X151401512Y-135496976D01*
X151404648Y-135477579D01*
X151408899Y-135464772D01*
X151443082Y-135382249D01*
X151508240Y-135139075D01*
X151533853Y-134944521D01*
X151535579Y-134953198D01*
X151584578Y-135071490D01*
X151655712Y-135177951D01*
X151746249Y-135268488D01*
X151852710Y-135339622D01*
X151971002Y-135388621D01*
X152096581Y-135413600D01*
X152224619Y-135413600D01*
X152350198Y-135388621D01*
X152468490Y-135339622D01*
X152478713Y-135332791D01*
X174749300Y-135332791D01*
X174749300Y-136514417D01*
X174753911Y-136571944D01*
X174753911Y-136571946D01*
X174753912Y-136571949D01*
X174789830Y-136698600D01*
X174802546Y-136743436D01*
X174889413Y-136899079D01*
X174889416Y-136899082D01*
X174926832Y-136943020D01*
X174926836Y-136943025D01*
X175762369Y-137778557D01*
X175762371Y-137778559D01*
X175806318Y-137815984D01*
X175961966Y-137902854D01*
X175961965Y-137902854D01*
X176004283Y-137914855D01*
X176133450Y-137951487D01*
X176169415Y-137954370D01*
X176190991Y-137956100D01*
X176190994Y-137956100D01*
X177372618Y-137956100D01*
X177394190Y-137954370D01*
X177430149Y-137951488D01*
X177601634Y-137902855D01*
X177757280Y-137815986D01*
X177801227Y-137778562D01*
X178636758Y-136943030D01*
X178674185Y-136899080D01*
X178761054Y-136743434D01*
X178809687Y-136571950D01*
X178814300Y-136514406D01*
X178814300Y-135332785D01*
X178809688Y-135275251D01*
X178761055Y-135103766D01*
X178674186Y-134948120D01*
X178636762Y-134904173D01*
X177801230Y-134068642D01*
X177801228Y-134068640D01*
X177757281Y-134031215D01*
X177601633Y-133944345D01*
X177601634Y-133944345D01*
X177452415Y-133902027D01*
X177430150Y-133895713D01*
X177430147Y-133895712D01*
X177430144Y-133895712D01*
X177372609Y-133891100D01*
X177372606Y-133891100D01*
X176190985Y-133891100D01*
X176190982Y-133891100D01*
X176133455Y-133895711D01*
X176133451Y-133895711D01*
X176133451Y-133895712D01*
X175961966Y-133944345D01*
X175961965Y-133944345D01*
X175961963Y-133944346D01*
X175806320Y-134031213D01*
X175806317Y-134031216D01*
X175762379Y-134068632D01*
X175762374Y-134068636D01*
X174926842Y-134904169D01*
X174926840Y-134904171D01*
X174889415Y-134948118D01*
X174802545Y-135103765D01*
X174753914Y-135275246D01*
X174753912Y-135275255D01*
X174749300Y-135332791D01*
X152478713Y-135332791D01*
X152574951Y-135268488D01*
X152665488Y-135177951D01*
X152685100Y-135148599D01*
X167475591Y-135148599D01*
X167475591Y-135148600D01*
X169504400Y-135148600D01*
X171054400Y-135148600D01*
X173083210Y-135148600D01*
X173083209Y-135148599D01*
X173029300Y-134919999D01*
X172933528Y-134688781D01*
X172801916Y-134475939D01*
X172801904Y-134475922D01*
X172692553Y-134348671D01*
X172692547Y-134348664D01*
X171854347Y-133510465D01*
X171727060Y-133401085D01*
X171727059Y-133401084D01*
X171514216Y-133269472D01*
X171283009Y-133173702D01*
X171282999Y-133173699D01*
X171054400Y-133119791D01*
X171054400Y-135148600D01*
X169504400Y-135148600D01*
X169504400Y-133119790D01*
X169504399Y-133119790D01*
X169275799Y-133173699D01*
X169044581Y-133269471D01*
X168831739Y-133401083D01*
X168831722Y-133401095D01*
X168704471Y-133510446D01*
X168704464Y-133510452D01*
X167866265Y-134348652D01*
X167756885Y-134475939D01*
X167756884Y-134475940D01*
X167625272Y-134688783D01*
X167529502Y-134919990D01*
X167529499Y-134920000D01*
X167475591Y-135148599D01*
X152685100Y-135148599D01*
X152736622Y-135071490D01*
X152785621Y-134953198D01*
X152810600Y-134827619D01*
X152810600Y-134699581D01*
X152785621Y-134574002D01*
X152736622Y-134455710D01*
X152665488Y-134349249D01*
X152574951Y-134258712D01*
X152468490Y-134187578D01*
X152350198Y-134138579D01*
X152224619Y-134113600D01*
X152096581Y-134113600D01*
X151971002Y-134138579D01*
X151852710Y-134187578D01*
X151746249Y-134258712D01*
X151655712Y-134349249D01*
X151584578Y-134455710D01*
X151535579Y-134574002D01*
X151533853Y-134582677D01*
X151519801Y-134475939D01*
X151508240Y-134388125D01*
X151443082Y-134144951D01*
X151421989Y-134094028D01*
X151414069Y-134074906D01*
X151394102Y-133988600D01*
X152935600Y-133988600D01*
X154758413Y-133988600D01*
X154666409Y-133725665D01*
X154534435Y-133451616D01*
X154372624Y-133194097D01*
X154372610Y-133194077D01*
X154182983Y-132956292D01*
X153967907Y-132741216D01*
X153730122Y-132551589D01*
X153730102Y-132551575D01*
X153472583Y-132389764D01*
X153198530Y-132257788D01*
X153198528Y-132257787D01*
X152935600Y-132165784D01*
X152935600Y-133988600D01*
X151394102Y-133988600D01*
X151386319Y-133954958D01*
X151385600Y-133931784D01*
X151385600Y-132165785D01*
X151385599Y-132165784D01*
X151122671Y-132257787D01*
X151122669Y-132257788D01*
X150848616Y-132389764D01*
X150591097Y-132551575D01*
X150591077Y-132551589D01*
X150353291Y-132741217D01*
X150322990Y-132771518D01*
X150222791Y-132843057D01*
X150104792Y-132878186D01*
X150008585Y-132874721D01*
X150008212Y-132877558D01*
X149996075Y-132875960D01*
X149978841Y-132873691D01*
X149746485Y-132843100D01*
X149746476Y-132843100D01*
X149494724Y-132843100D01*
X149494714Y-132843100D01*
X149245135Y-132875958D01*
X149245109Y-132875963D01*
X149001960Y-132941115D01*
X149001950Y-132941118D01*
X148769359Y-133037461D01*
X148540734Y-133169458D01*
X148539422Y-133167186D01*
X148446094Y-133209261D01*
X148323508Y-133220675D01*
X148203857Y-133191668D01*
X148161025Y-133168488D01*
X148160466Y-133169458D01*
X147931840Y-133037461D01*
X147699249Y-132941118D01*
X147699239Y-132941115D01*
X147456090Y-132875963D01*
X147456076Y-132875960D01*
X147456075Y-132875960D01*
X147456073Y-132875959D01*
X147456064Y-132875958D01*
X147206485Y-132843100D01*
X147206476Y-132843100D01*
X146954724Y-132843100D01*
X146954714Y-132843100D01*
X146705135Y-132875958D01*
X146705109Y-132875963D01*
X146461960Y-132941115D01*
X146461950Y-132941118D01*
X146229359Y-133037461D01*
X146000734Y-133169458D01*
X145999422Y-133167186D01*
X145906094Y-133209261D01*
X145783508Y-133220675D01*
X145663857Y-133191668D01*
X145621025Y-133168488D01*
X145620466Y-133169458D01*
X145391840Y-133037461D01*
X145159249Y-132941118D01*
X145159239Y-132941115D01*
X144916090Y-132875963D01*
X144916076Y-132875960D01*
X144916075Y-132875960D01*
X144916073Y-132875959D01*
X144916064Y-132875958D01*
X144666485Y-132843100D01*
X144666476Y-132843100D01*
X144414724Y-132843100D01*
X144414714Y-132843100D01*
X144165135Y-132875958D01*
X144165109Y-132875963D01*
X143921960Y-132941115D01*
X143921950Y-132941118D01*
X143689359Y-133037461D01*
X143471338Y-133163335D01*
X143271618Y-133316585D01*
X143271608Y-133316594D01*
X143093594Y-133494608D01*
X143093585Y-133494618D01*
X142940335Y-133694338D01*
X142814461Y-133912359D01*
X142718118Y-134144950D01*
X142718115Y-134144960D01*
X142652963Y-134388109D01*
X142652958Y-134388135D01*
X142620100Y-134637714D01*
X132915212Y-134637714D01*
X132955040Y-134489075D01*
X132987900Y-134239476D01*
X132987900Y-133987724D01*
X132983586Y-133954958D01*
X132964925Y-133813209D01*
X132955040Y-133738125D01*
X132951701Y-133725665D01*
X132894035Y-133510452D01*
X132889882Y-133494951D01*
X132793540Y-133262362D01*
X132667664Y-133044338D01*
X132577853Y-132927294D01*
X132514414Y-132844618D01*
X132514413Y-132844617D01*
X132514407Y-132844609D01*
X132336391Y-132666593D01*
X132186514Y-132551589D01*
X132136661Y-132513335D01*
X131918640Y-132387461D01*
X131686049Y-132291118D01*
X131686039Y-132291115D01*
X131442890Y-132225963D01*
X131442876Y-132225960D01*
X131442875Y-132225960D01*
X131442873Y-132225959D01*
X131442864Y-132225958D01*
X131193285Y-132193100D01*
X131193276Y-132193100D01*
X130941524Y-132193100D01*
X130941514Y-132193100D01*
X130691935Y-132225958D01*
X130691909Y-132225963D01*
X130448760Y-132291115D01*
X130448750Y-132291118D01*
X130216159Y-132387461D01*
X129987534Y-132519458D01*
X129986222Y-132517186D01*
X129892894Y-132559261D01*
X129770308Y-132570675D01*
X129650657Y-132541668D01*
X129607825Y-132518488D01*
X129607266Y-132519458D01*
X129378640Y-132387461D01*
X129146049Y-132291118D01*
X129146039Y-132291115D01*
X128902890Y-132225963D01*
X128902876Y-132225960D01*
X128902875Y-132225960D01*
X128902873Y-132225959D01*
X128902864Y-132225958D01*
X128653285Y-132193100D01*
X128653276Y-132193100D01*
X128401524Y-132193100D01*
X128401514Y-132193100D01*
X128151935Y-132225958D01*
X128151909Y-132225963D01*
X127908760Y-132291115D01*
X127908750Y-132291118D01*
X127676159Y-132387461D01*
X127447534Y-132519458D01*
X127446222Y-132517186D01*
X127352894Y-132559261D01*
X127230308Y-132570675D01*
X127110657Y-132541668D01*
X127067825Y-132518488D01*
X127067266Y-132519458D01*
X126838640Y-132387461D01*
X126606049Y-132291118D01*
X126606039Y-132291115D01*
X126362890Y-132225963D01*
X126362876Y-132225960D01*
X126362875Y-132225960D01*
X126362873Y-132225959D01*
X126362864Y-132225958D01*
X126113285Y-132193100D01*
X126113276Y-132193100D01*
X125861524Y-132193100D01*
X125861514Y-132193100D01*
X125611935Y-132225958D01*
X125611909Y-132225963D01*
X125368760Y-132291115D01*
X125368750Y-132291118D01*
X125136159Y-132387461D01*
X124907534Y-132519458D01*
X124906222Y-132517186D01*
X124812894Y-132559261D01*
X124690308Y-132570675D01*
X124570657Y-132541668D01*
X124527825Y-132518488D01*
X124527266Y-132519458D01*
X124298640Y-132387461D01*
X124066049Y-132291118D01*
X124066039Y-132291115D01*
X123822890Y-132225963D01*
X123822876Y-132225960D01*
X123822875Y-132225960D01*
X123822873Y-132225959D01*
X123822864Y-132225958D01*
X123573285Y-132193100D01*
X123573276Y-132193100D01*
X123321524Y-132193100D01*
X123321514Y-132193100D01*
X123071935Y-132225958D01*
X123071909Y-132225963D01*
X122828760Y-132291115D01*
X122828750Y-132291118D01*
X122596159Y-132387461D01*
X122367534Y-132519458D01*
X122366222Y-132517186D01*
X122272894Y-132559261D01*
X122150308Y-132570675D01*
X122030657Y-132541668D01*
X121987825Y-132518488D01*
X121987266Y-132519458D01*
X121758640Y-132387461D01*
X121526049Y-132291118D01*
X121526039Y-132291115D01*
X121282890Y-132225963D01*
X121282876Y-132225960D01*
X121282875Y-132225960D01*
X121282873Y-132225959D01*
X121282864Y-132225958D01*
X121033285Y-132193100D01*
X121033276Y-132193100D01*
X120781524Y-132193100D01*
X120781514Y-132193100D01*
X120546521Y-132224038D01*
X120531925Y-132225960D01*
X120531924Y-132225960D01*
X120519788Y-132227558D01*
X120519398Y-132224598D01*
X120419237Y-132227669D01*
X120301621Y-132191280D01*
X120205006Y-132121515D01*
X120174707Y-132091216D01*
X119936922Y-131901589D01*
X119936902Y-131901575D01*
X119679383Y-131739764D01*
X119405330Y-131607788D01*
X119405328Y-131607787D01*
X119142400Y-131515784D01*
X119142400Y-133281784D01*
X119122136Y-133403222D01*
X119113931Y-133424906D01*
X119084918Y-133494948D01*
X119019761Y-133738120D01*
X119019758Y-133738135D01*
X118994146Y-133932674D01*
X118992421Y-133924002D01*
X118943422Y-133805710D01*
X118872288Y-133699249D01*
X118781751Y-133608712D01*
X118675290Y-133537578D01*
X118556998Y-133488579D01*
X118431419Y-133463600D01*
X118303381Y-133463600D01*
X118177802Y-133488579D01*
X118059510Y-133537578D01*
X117953049Y-133608712D01*
X117862512Y-133699249D01*
X117791378Y-133805710D01*
X117742379Y-133924002D01*
X117740653Y-133932677D01*
X117724925Y-133813209D01*
X117715040Y-133738125D01*
X117649882Y-133494951D01*
X117649744Y-133494618D01*
X117620869Y-133424906D01*
X117593119Y-133304958D01*
X117592400Y-133281784D01*
X117592400Y-131515785D01*
X117592399Y-131515784D01*
X117329471Y-131607787D01*
X117329469Y-131607788D01*
X117055416Y-131739764D01*
X116797897Y-131901575D01*
X116797877Y-131901589D01*
X116560091Y-132091217D01*
X116529790Y-132121518D01*
X116429591Y-132193057D01*
X116311592Y-132228186D01*
X116215385Y-132224721D01*
X116215012Y-132227558D01*
X116202875Y-132225960D01*
X116185641Y-132223691D01*
X115953285Y-132193100D01*
X115953276Y-132193100D01*
X115701524Y-132193100D01*
X115701514Y-132193100D01*
X115451935Y-132225958D01*
X115451909Y-132225963D01*
X115208760Y-132291115D01*
X115208750Y-132291118D01*
X114976159Y-132387461D01*
X114747534Y-132519458D01*
X114746222Y-132517186D01*
X114652894Y-132559261D01*
X114530308Y-132570675D01*
X114410657Y-132541668D01*
X114367825Y-132518488D01*
X114367266Y-132519458D01*
X114138640Y-132387461D01*
X113906049Y-132291118D01*
X113906039Y-132291115D01*
X113662890Y-132225963D01*
X113662876Y-132225960D01*
X113662875Y-132225960D01*
X113662873Y-132225959D01*
X113662864Y-132225958D01*
X113413285Y-132193100D01*
X113413276Y-132193100D01*
X113161524Y-132193100D01*
X113161514Y-132193100D01*
X112911935Y-132225958D01*
X112911909Y-132225963D01*
X112668760Y-132291115D01*
X112668750Y-132291118D01*
X112436159Y-132387461D01*
X112218138Y-132513335D01*
X112018418Y-132666585D01*
X112018408Y-132666594D01*
X111840394Y-132844608D01*
X111840385Y-132844618D01*
X111687135Y-133044338D01*
X111561261Y-133262359D01*
X111464918Y-133494950D01*
X111464915Y-133494960D01*
X111399763Y-133738109D01*
X111399758Y-133738135D01*
X111366900Y-133987714D01*
X108126758Y-133987714D01*
X108138717Y-133968681D01*
X108213589Y-133813209D01*
X108213590Y-133813206D01*
X108260941Y-133714880D01*
X108260945Y-133714870D01*
X108326124Y-133528600D01*
X103554275Y-133528600D01*
X72126657Y-133528600D01*
X72130392Y-132694356D01*
X105490200Y-132694356D01*
X105490200Y-132812844D01*
X105520867Y-132927294D01*
X105580110Y-133029906D01*
X105663894Y-133113690D01*
X105766506Y-133172933D01*
X105880956Y-133203600D01*
X105999444Y-133203600D01*
X106113894Y-133172933D01*
X106216506Y-133113690D01*
X106300290Y-133029906D01*
X106359533Y-132927294D01*
X106390200Y-132812844D01*
X106390200Y-132694356D01*
X106359533Y-132579906D01*
X106300290Y-132477294D01*
X106216506Y-132393510D01*
X106113894Y-132334267D01*
X105999444Y-132303600D01*
X105880956Y-132303600D01*
X105766506Y-132334267D01*
X105663894Y-132393510D01*
X105580110Y-132477294D01*
X105520867Y-132579906D01*
X105490200Y-132694356D01*
X72130392Y-132694356D01*
X72133597Y-131978599D01*
X103554275Y-131978599D01*
X103554276Y-131978600D01*
X105165200Y-131978600D01*
X106715200Y-131978600D01*
X108326124Y-131978600D01*
X108326124Y-131978599D01*
X108260945Y-131792329D01*
X108260944Y-131792326D01*
X108138717Y-131538518D01*
X107988851Y-131300008D01*
X107988849Y-131300005D01*
X107813218Y-131079770D01*
X107614029Y-130880581D01*
X107393794Y-130704950D01*
X107393791Y-130704948D01*
X107155281Y-130555082D01*
X106901482Y-130432859D01*
X106715200Y-130367675D01*
X106715200Y-131978600D01*
X105165200Y-131978600D01*
X105165200Y-130367675D01*
X104978917Y-130432859D01*
X104725118Y-130555082D01*
X104486608Y-130704948D01*
X104486605Y-130704950D01*
X104266370Y-130880581D01*
X104266370Y-130880582D01*
X104067182Y-131079770D01*
X104067181Y-131079770D01*
X103891550Y-131300005D01*
X103891548Y-131300008D01*
X103741682Y-131538518D01*
X103619455Y-131792326D01*
X103619454Y-131792329D01*
X103554275Y-131978599D01*
X72133597Y-131978599D01*
X72149580Y-128408729D01*
X80358100Y-128408729D01*
X80358100Y-128708470D01*
X80397222Y-129005624D01*
X80397224Y-129005634D01*
X80474800Y-129295153D01*
X80474801Y-129295155D01*
X80589496Y-129572056D01*
X80589498Y-129572059D01*
X80589500Y-129572063D01*
X80739366Y-129831637D01*
X80921830Y-130069429D01*
X81133771Y-130281370D01*
X81371563Y-130463834D01*
X81631137Y-130613700D01*
X81631140Y-130613701D01*
X81631143Y-130613703D01*
X81908044Y-130728398D01*
X81908046Y-130728399D01*
X81908049Y-130728399D01*
X81908052Y-130728401D01*
X82197569Y-130805977D01*
X82494735Y-130845100D01*
X82696334Y-130845100D01*
X82817772Y-130865364D01*
X82869134Y-130888166D01*
X82869214Y-130888001D01*
X82874552Y-130890571D01*
X82877249Y-130891769D01*
X82878664Y-130892551D01*
X82878669Y-130892554D01*
X83148100Y-131022305D01*
X83430364Y-131121073D01*
X83721912Y-131187617D01*
X84019077Y-131221100D01*
X84318123Y-131221100D01*
X84615288Y-131187617D01*
X84906836Y-131121073D01*
X85189100Y-131022305D01*
X85458531Y-130892554D01*
X85458542Y-130892546D01*
X85459951Y-130891769D01*
X85460741Y-130891489D01*
X85467986Y-130888001D01*
X85468368Y-130888795D01*
X85576038Y-130850761D01*
X85640866Y-130845100D01*
X85842457Y-130845100D01*
X85842465Y-130845100D01*
X86139631Y-130805977D01*
X86429148Y-130728401D01*
X86706063Y-130613700D01*
X86965637Y-130463834D01*
X87203429Y-130281370D01*
X87415370Y-130069429D01*
X87597834Y-129831637D01*
X87747700Y-129572063D01*
X87862401Y-129295148D01*
X87939977Y-129005631D01*
X87979100Y-128708465D01*
X87979100Y-128408735D01*
X87939977Y-128111569D01*
X87862401Y-127822052D01*
X87752188Y-127555972D01*
X87747701Y-127545139D01*
X87692984Y-127450367D01*
X87692976Y-127450354D01*
X166922900Y-127450354D01*
X166922900Y-127676845D01*
X166952460Y-127901374D01*
X166952464Y-127901393D01*
X167011074Y-128120128D01*
X167011081Y-128120149D01*
X167097744Y-128329375D01*
X167097746Y-128329378D01*
X167097748Y-128329382D01*
X167210988Y-128525518D01*
X167348859Y-128705196D01*
X167509004Y-128865341D01*
X167688682Y-129003212D01*
X167884818Y-129116452D01*
X167884821Y-129116453D01*
X167884824Y-129116455D01*
X168041772Y-129181464D01*
X168094057Y-129203121D01*
X168094067Y-129203123D01*
X168094071Y-129203125D01*
X168312806Y-129261735D01*
X168312814Y-129261736D01*
X168312819Y-129261738D01*
X168312822Y-129261738D01*
X168312825Y-129261739D01*
X168414585Y-129275136D01*
X168537361Y-129291300D01*
X168537367Y-129291300D01*
X168763833Y-129291300D01*
X168763839Y-129291300D01*
X168962632Y-129265128D01*
X168988374Y-129261739D01*
X168988374Y-129261738D01*
X168988381Y-129261738D01*
X168988389Y-129261735D01*
X168988393Y-129261735D01*
X169207128Y-129203125D01*
X169207127Y-129203125D01*
X169207143Y-129203121D01*
X169416382Y-129116452D01*
X169612518Y-129003212D01*
X169692924Y-128941514D01*
X169801602Y-128883665D01*
X169923176Y-128864238D01*
X170044471Y-128885338D01*
X170148275Y-128941513D01*
X170228682Y-129003212D01*
X170424818Y-129116452D01*
X170424821Y-129116453D01*
X170424824Y-129116455D01*
X170581772Y-129181464D01*
X170634057Y-129203121D01*
X170634067Y-129203123D01*
X170634071Y-129203125D01*
X170852806Y-129261735D01*
X170852814Y-129261736D01*
X170852819Y-129261738D01*
X170852822Y-129261738D01*
X170852825Y-129261739D01*
X170954585Y-129275136D01*
X171077361Y-129291300D01*
X171077367Y-129291300D01*
X171303833Y-129291300D01*
X171303839Y-129291300D01*
X171502632Y-129265128D01*
X171528374Y-129261739D01*
X171528374Y-129261738D01*
X171528381Y-129261738D01*
X171528389Y-129261735D01*
X171528393Y-129261735D01*
X171747128Y-129203125D01*
X171747127Y-129203125D01*
X171747143Y-129203121D01*
X171956382Y-129116452D01*
X172152518Y-129003212D01*
X172232924Y-128941514D01*
X172341602Y-128883665D01*
X172463176Y-128864238D01*
X172584471Y-128885338D01*
X172688275Y-128941513D01*
X172768682Y-129003212D01*
X172964818Y-129116452D01*
X172964821Y-129116453D01*
X172964824Y-129116455D01*
X173121772Y-129181464D01*
X173174057Y-129203121D01*
X173174067Y-129203123D01*
X173174071Y-129203125D01*
X173392806Y-129261735D01*
X173392814Y-129261736D01*
X173392819Y-129261738D01*
X173392822Y-129261738D01*
X173392825Y-129261739D01*
X173494585Y-129275136D01*
X173617361Y-129291300D01*
X173617367Y-129291300D01*
X173843833Y-129291300D01*
X173843839Y-129291300D01*
X174042632Y-129265128D01*
X174068374Y-129261739D01*
X174068374Y-129261738D01*
X174068381Y-129261738D01*
X174068389Y-129261735D01*
X174068393Y-129261735D01*
X174287128Y-129203125D01*
X174287127Y-129203125D01*
X174287143Y-129203121D01*
X174496382Y-129116452D01*
X174692518Y-129003212D01*
X174772924Y-128941514D01*
X174881602Y-128883665D01*
X175003176Y-128864238D01*
X175124471Y-128885338D01*
X175228275Y-128941513D01*
X175308682Y-129003212D01*
X175504818Y-129116452D01*
X175504821Y-129116453D01*
X175504824Y-129116455D01*
X175661772Y-129181464D01*
X175714057Y-129203121D01*
X175714067Y-129203123D01*
X175714071Y-129203125D01*
X175932806Y-129261735D01*
X175932814Y-129261736D01*
X175932819Y-129261738D01*
X175932822Y-129261738D01*
X175932825Y-129261739D01*
X176034585Y-129275136D01*
X176157361Y-129291300D01*
X176157367Y-129291300D01*
X176383833Y-129291300D01*
X176383839Y-129291300D01*
X176582632Y-129265128D01*
X176608374Y-129261739D01*
X176608374Y-129261738D01*
X176608381Y-129261738D01*
X176608389Y-129261735D01*
X176608393Y-129261735D01*
X176827128Y-129203125D01*
X176827127Y-129203125D01*
X176827143Y-129203121D01*
X177036382Y-129116452D01*
X177232518Y-129003212D01*
X177312924Y-128941514D01*
X177421602Y-128883665D01*
X177543176Y-128864238D01*
X177664471Y-128885338D01*
X177768275Y-128941513D01*
X177848682Y-129003212D01*
X178044818Y-129116452D01*
X178044821Y-129116453D01*
X178044824Y-129116455D01*
X178201772Y-129181464D01*
X178254057Y-129203121D01*
X178254067Y-129203123D01*
X178254071Y-129203125D01*
X178472806Y-129261735D01*
X178472814Y-129261736D01*
X178472819Y-129261738D01*
X178472822Y-129261738D01*
X178472825Y-129261739D01*
X178574585Y-129275136D01*
X178697361Y-129291300D01*
X178697367Y-129291300D01*
X178923833Y-129291300D01*
X178923839Y-129291300D01*
X179122632Y-129265128D01*
X179148374Y-129261739D01*
X179148374Y-129261738D01*
X179148381Y-129261738D01*
X179148389Y-129261735D01*
X179148393Y-129261735D01*
X179367128Y-129203125D01*
X179367127Y-129203125D01*
X179367143Y-129203121D01*
X179576382Y-129116452D01*
X179772518Y-129003212D01*
X179852924Y-128941514D01*
X179961602Y-128883665D01*
X180083176Y-128864238D01*
X180204471Y-128885338D01*
X180308275Y-128941513D01*
X180388682Y-129003212D01*
X180584818Y-129116452D01*
X180584821Y-129116453D01*
X180584824Y-129116455D01*
X180741772Y-129181464D01*
X180794057Y-129203121D01*
X180794067Y-129203123D01*
X180794071Y-129203125D01*
X181012806Y-129261735D01*
X181012814Y-129261736D01*
X181012819Y-129261738D01*
X181012822Y-129261738D01*
X181012825Y-129261739D01*
X181114585Y-129275136D01*
X181237361Y-129291300D01*
X181237367Y-129291300D01*
X181463833Y-129291300D01*
X181463839Y-129291300D01*
X181662632Y-129265128D01*
X181688374Y-129261739D01*
X181688374Y-129261738D01*
X181688381Y-129261738D01*
X181688389Y-129261735D01*
X181688393Y-129261735D01*
X181907128Y-129203125D01*
X181907127Y-129203125D01*
X181907143Y-129203121D01*
X182116382Y-129116452D01*
X182312518Y-129003212D01*
X182392924Y-128941514D01*
X182501602Y-128883665D01*
X182623176Y-128864238D01*
X182744471Y-128885338D01*
X182848275Y-128941513D01*
X182928682Y-129003212D01*
X183124818Y-129116452D01*
X183124821Y-129116453D01*
X183124824Y-129116455D01*
X183281772Y-129181464D01*
X183334057Y-129203121D01*
X183334067Y-129203123D01*
X183334071Y-129203125D01*
X183552806Y-129261735D01*
X183552814Y-129261736D01*
X183552819Y-129261738D01*
X183552822Y-129261738D01*
X183552825Y-129261739D01*
X183654585Y-129275136D01*
X183777361Y-129291300D01*
X183777367Y-129291300D01*
X184003833Y-129291300D01*
X184003839Y-129291300D01*
X184202632Y-129265128D01*
X184228374Y-129261739D01*
X184228374Y-129261738D01*
X184228381Y-129261738D01*
X184228389Y-129261735D01*
X184228393Y-129261735D01*
X184447128Y-129203125D01*
X184447127Y-129203125D01*
X184447143Y-129203121D01*
X184476171Y-129191097D01*
X184499429Y-129181464D01*
X184619378Y-129153714D01*
X184741838Y-129166414D01*
X184853538Y-129218190D01*
X184942375Y-129303429D01*
X184998722Y-129412895D01*
X185016472Y-129534725D01*
X184993702Y-129655718D01*
X184966446Y-129713994D01*
X184893620Y-129840132D01*
X184893617Y-129840137D01*
X184802259Y-130060698D01*
X184802254Y-130060712D01*
X184740464Y-130291316D01*
X184740462Y-130291326D01*
X184709300Y-130528019D01*
X184709300Y-130766780D01*
X184740462Y-131003473D01*
X184740463Y-131003480D01*
X184802256Y-131234094D01*
X184802259Y-131234101D01*
X184893617Y-131454661D01*
X184893619Y-131454665D01*
X184893621Y-131454669D01*
X184967994Y-131583488D01*
X185011163Y-131698787D01*
X185018100Y-131770486D01*
X185018100Y-137400513D01*
X184997836Y-137521951D01*
X184967994Y-137587512D01*
X184893620Y-137716331D01*
X184893617Y-137716337D01*
X184802259Y-137936898D01*
X184802254Y-137936912D01*
X184740464Y-138167516D01*
X184740462Y-138167526D01*
X184709300Y-138404219D01*
X184709300Y-138642980D01*
X184734536Y-138834659D01*
X184740463Y-138879680D01*
X184802256Y-139110294D01*
X184802259Y-139110301D01*
X184893617Y-139330861D01*
X184893619Y-139330865D01*
X184893621Y-139330869D01*
X185012995Y-139537631D01*
X185158336Y-139727043D01*
X185327157Y-139895864D01*
X185516569Y-140041205D01*
X185723331Y-140160579D01*
X185943906Y-140251944D01*
X186174520Y-140313737D01*
X186411226Y-140344900D01*
X186411234Y-140344900D01*
X186649966Y-140344900D01*
X186649974Y-140344900D01*
X186886680Y-140313737D01*
X187117294Y-140251944D01*
X187337869Y-140160579D01*
X187544631Y-140041205D01*
X187734043Y-139895864D01*
X187902864Y-139727043D01*
X188048205Y-139537631D01*
X188167579Y-139330869D01*
X188258944Y-139110294D01*
X188320737Y-138879680D01*
X188351900Y-138642974D01*
X188351900Y-138404226D01*
X188320737Y-138167520D01*
X188258944Y-137936906D01*
X188182967Y-137753481D01*
X188167582Y-137716337D01*
X188167579Y-137716331D01*
X188093206Y-137587512D01*
X188091378Y-137582629D01*
X188088177Y-137578517D01*
X188069840Y-137525103D01*
X188050037Y-137472211D01*
X188049391Y-137465538D01*
X188048201Y-137462071D01*
X188043100Y-137400513D01*
X188043100Y-136990824D01*
X195140100Y-136990824D01*
X195140100Y-137216375D01*
X195169536Y-137439959D01*
X195169540Y-137439983D01*
X195227910Y-137657821D01*
X195227914Y-137657832D01*
X195314216Y-137866186D01*
X195314218Y-137866188D01*
X195314219Y-137866191D01*
X195426987Y-138061510D01*
X195564284Y-138240439D01*
X195723761Y-138399916D01*
X195902690Y-138537213D01*
X196098009Y-138649981D01*
X196098011Y-138649982D01*
X196098013Y-138649983D01*
X196194578Y-138689981D01*
X196306377Y-138736289D01*
X196524227Y-138794662D01*
X196747832Y-138824100D01*
X196747839Y-138824100D01*
X196973361Y-138824100D01*
X196973368Y-138824100D01*
X197196973Y-138794662D01*
X197414823Y-138736289D01*
X197623191Y-138649981D01*
X197818510Y-138537213D01*
X197902924Y-138472440D01*
X198011603Y-138414590D01*
X198133177Y-138395163D01*
X198254472Y-138416264D01*
X198358276Y-138472440D01*
X198442690Y-138537213D01*
X198638009Y-138649981D01*
X198638011Y-138649982D01*
X198638013Y-138649983D01*
X198734578Y-138689981D01*
X198846377Y-138736289D01*
X199064227Y-138794662D01*
X199287832Y-138824100D01*
X199287839Y-138824100D01*
X199513361Y-138824100D01*
X199513368Y-138824100D01*
X199736973Y-138794662D01*
X199954823Y-138736289D01*
X200163191Y-138649981D01*
X200358510Y-138537213D01*
X200537439Y-138399916D01*
X200696916Y-138240439D01*
X200834213Y-138061510D01*
X200946981Y-137866191D01*
X201033289Y-137657823D01*
X201091662Y-137439973D01*
X201121100Y-137216368D01*
X201121100Y-137030824D01*
X204540100Y-137030824D01*
X204540100Y-137256375D01*
X204569536Y-137479959D01*
X204569540Y-137479983D01*
X204627910Y-137697821D01*
X204627914Y-137697832D01*
X204714216Y-137906186D01*
X204714218Y-137906188D01*
X204714219Y-137906191D01*
X204826987Y-138101510D01*
X204964284Y-138280439D01*
X205123761Y-138439916D01*
X205302690Y-138577213D01*
X205498009Y-138689981D01*
X205498011Y-138689982D01*
X205498013Y-138689983D01*
X205686858Y-138768204D01*
X205706377Y-138776289D01*
X205924227Y-138834662D01*
X206147832Y-138864100D01*
X206147839Y-138864100D01*
X206373361Y-138864100D01*
X206373368Y-138864100D01*
X206596973Y-138834662D01*
X206814823Y-138776289D01*
X207023191Y-138689981D01*
X207218510Y-138577213D01*
X207302924Y-138512440D01*
X207411603Y-138454590D01*
X207533177Y-138435163D01*
X207654472Y-138456264D01*
X207758276Y-138512440D01*
X207842690Y-138577213D01*
X208038009Y-138689981D01*
X208038011Y-138689982D01*
X208038013Y-138689983D01*
X208226858Y-138768204D01*
X208246377Y-138776289D01*
X208464227Y-138834662D01*
X208687832Y-138864100D01*
X208687839Y-138864100D01*
X208913361Y-138864100D01*
X208913368Y-138864100D01*
X209136973Y-138834662D01*
X209354823Y-138776289D01*
X209563191Y-138689981D01*
X209758510Y-138577213D01*
X209937439Y-138439916D01*
X210096916Y-138280439D01*
X210234213Y-138101510D01*
X210346981Y-137906191D01*
X210433289Y-137697823D01*
X210491662Y-137479973D01*
X210521100Y-137256368D01*
X210521100Y-137030832D01*
X210491662Y-136807227D01*
X210433289Y-136589377D01*
X210416721Y-136549377D01*
X210346983Y-136381013D01*
X210346982Y-136381011D01*
X210346981Y-136381009D01*
X210234213Y-136185690D01*
X210096916Y-136006761D01*
X209937439Y-135847284D01*
X209758510Y-135709987D01*
X209563191Y-135597219D01*
X209563188Y-135597218D01*
X209563186Y-135597216D01*
X209354832Y-135510914D01*
X209354821Y-135510910D01*
X209136983Y-135452540D01*
X209136976Y-135452538D01*
X209136973Y-135452538D01*
X209136963Y-135452536D01*
X209136959Y-135452536D01*
X208913375Y-135423100D01*
X208913368Y-135423100D01*
X208687832Y-135423100D01*
X208687824Y-135423100D01*
X208464240Y-135452536D01*
X208464231Y-135452537D01*
X208464227Y-135452538D01*
X208464225Y-135452538D01*
X208464216Y-135452540D01*
X208246378Y-135510910D01*
X208246367Y-135510914D01*
X208038013Y-135597216D01*
X208038009Y-135597219D01*
X207842693Y-135709985D01*
X207842687Y-135709989D01*
X207758274Y-135774761D01*
X207649595Y-135832610D01*
X207528020Y-135852036D01*
X207406725Y-135830935D01*
X207302926Y-135774761D01*
X207241358Y-135727519D01*
X207218510Y-135709987D01*
X207023191Y-135597219D01*
X207023188Y-135597218D01*
X207023186Y-135597216D01*
X206814832Y-135510914D01*
X206814821Y-135510910D01*
X206596983Y-135452540D01*
X206596976Y-135452538D01*
X206596973Y-135452538D01*
X206596963Y-135452536D01*
X206596959Y-135452536D01*
X206373375Y-135423100D01*
X206373368Y-135423100D01*
X206147832Y-135423100D01*
X206147824Y-135423100D01*
X205924240Y-135452536D01*
X205924231Y-135452537D01*
X205924227Y-135452538D01*
X205924225Y-135452538D01*
X205924216Y-135452540D01*
X205706378Y-135510910D01*
X205706367Y-135510914D01*
X205498013Y-135597216D01*
X205498009Y-135597219D01*
X205304890Y-135708717D01*
X205302690Y-135709987D01*
X205279842Y-135727519D01*
X205123768Y-135847278D01*
X205123760Y-135847285D01*
X204964285Y-136006760D01*
X204964278Y-136006768D01*
X204826985Y-136185693D01*
X204714219Y-136381009D01*
X204714216Y-136381013D01*
X204627914Y-136589367D01*
X204627910Y-136589378D01*
X204569540Y-136807216D01*
X204569536Y-136807240D01*
X204540100Y-137030824D01*
X201121100Y-137030824D01*
X201121100Y-136990832D01*
X201091662Y-136767227D01*
X201033289Y-136549377D01*
X201018808Y-136514417D01*
X200946983Y-136341013D01*
X200946982Y-136341011D01*
X200946981Y-136341009D01*
X200834213Y-136145690D01*
X200696916Y-135966761D01*
X200537439Y-135807284D01*
X200358510Y-135669987D01*
X200163191Y-135557219D01*
X200163188Y-135557218D01*
X200163186Y-135557216D01*
X199954832Y-135470914D01*
X199954821Y-135470910D01*
X199736983Y-135412540D01*
X199736976Y-135412538D01*
X199736973Y-135412538D01*
X199736963Y-135412536D01*
X199736959Y-135412536D01*
X199513375Y-135383100D01*
X199513368Y-135383100D01*
X199287832Y-135383100D01*
X199287824Y-135383100D01*
X199064240Y-135412536D01*
X199064231Y-135412537D01*
X199064227Y-135412538D01*
X199064225Y-135412538D01*
X199064216Y-135412540D01*
X198846378Y-135470910D01*
X198846367Y-135470914D01*
X198638013Y-135557216D01*
X198638009Y-135557219D01*
X198442693Y-135669985D01*
X198442687Y-135669989D01*
X198358274Y-135734761D01*
X198249595Y-135792610D01*
X198128020Y-135812036D01*
X198006725Y-135790935D01*
X197902926Y-135734761D01*
X197853695Y-135696985D01*
X197818510Y-135669987D01*
X197623191Y-135557219D01*
X197623188Y-135557218D01*
X197623186Y-135557216D01*
X197414832Y-135470914D01*
X197414821Y-135470910D01*
X197196983Y-135412540D01*
X197196976Y-135412538D01*
X197196973Y-135412538D01*
X197196963Y-135412536D01*
X197196959Y-135412536D01*
X196973375Y-135383100D01*
X196973368Y-135383100D01*
X196747832Y-135383100D01*
X196747824Y-135383100D01*
X196524240Y-135412536D01*
X196524231Y-135412537D01*
X196524227Y-135412538D01*
X196524225Y-135412538D01*
X196524216Y-135412540D01*
X196306378Y-135470910D01*
X196306367Y-135470914D01*
X196098013Y-135557216D01*
X196098009Y-135557219D01*
X195906203Y-135667959D01*
X195902690Y-135669987D01*
X195853487Y-135707742D01*
X195723768Y-135807278D01*
X195723760Y-135807285D01*
X195564285Y-135966760D01*
X195564278Y-135966768D01*
X195497238Y-136054137D01*
X195434436Y-136135983D01*
X195426985Y-136145693D01*
X195314219Y-136341009D01*
X195314216Y-136341013D01*
X195227914Y-136549367D01*
X195227910Y-136549378D01*
X195169540Y-136767216D01*
X195169536Y-136767240D01*
X195140100Y-136990824D01*
X188043100Y-136990824D01*
X188043100Y-131770486D01*
X188063364Y-131649048D01*
X188093204Y-131583490D01*
X188167579Y-131454669D01*
X188258944Y-131234094D01*
X188320737Y-131003480D01*
X188351900Y-130766774D01*
X188351900Y-130528026D01*
X188320737Y-130291320D01*
X188258944Y-130060706D01*
X188188651Y-129891003D01*
X188167582Y-129840137D01*
X188167580Y-129840134D01*
X188167579Y-129840132D01*
X188167579Y-129840131D01*
X188138840Y-129790355D01*
X188095672Y-129675058D01*
X188092280Y-129551988D01*
X188129031Y-129434485D01*
X188201945Y-129335281D01*
X188303119Y-129265128D01*
X188421590Y-129231627D01*
X188544520Y-129238409D01*
X188559505Y-129242093D01*
X188632819Y-129261738D01*
X188632823Y-129261738D01*
X188632825Y-129261739D01*
X188734585Y-129275136D01*
X188857361Y-129291300D01*
X188857367Y-129291300D01*
X189083833Y-129291300D01*
X189083839Y-129291300D01*
X189282632Y-129265128D01*
X189308374Y-129261739D01*
X189308374Y-129261738D01*
X189308381Y-129261738D01*
X189308389Y-129261735D01*
X189308393Y-129261735D01*
X189527128Y-129203125D01*
X189527127Y-129203125D01*
X189527143Y-129203121D01*
X189736382Y-129116452D01*
X189932518Y-129003212D01*
X190012924Y-128941514D01*
X190121602Y-128883665D01*
X190243176Y-128864238D01*
X190364471Y-128885338D01*
X190468275Y-128941513D01*
X190548682Y-129003212D01*
X190744818Y-129116452D01*
X190744821Y-129116453D01*
X190744824Y-129116455D01*
X190901772Y-129181464D01*
X190954057Y-129203121D01*
X190954067Y-129203123D01*
X190954071Y-129203125D01*
X191172806Y-129261735D01*
X191172814Y-129261736D01*
X191172819Y-129261738D01*
X191172822Y-129261738D01*
X191172825Y-129261739D01*
X191274585Y-129275136D01*
X191397361Y-129291300D01*
X191397367Y-129291300D01*
X191623833Y-129291300D01*
X191623839Y-129291300D01*
X191822632Y-129265128D01*
X191848374Y-129261739D01*
X191848374Y-129261738D01*
X191848381Y-129261738D01*
X191848389Y-129261735D01*
X191848393Y-129261735D01*
X192067128Y-129203125D01*
X192067127Y-129203125D01*
X192067143Y-129203121D01*
X192276382Y-129116452D01*
X192472518Y-129003212D01*
X192552924Y-128941514D01*
X192661602Y-128883665D01*
X192783176Y-128864238D01*
X192904471Y-128885338D01*
X193008275Y-128941513D01*
X193088682Y-129003212D01*
X193284818Y-129116452D01*
X193284821Y-129116453D01*
X193284824Y-129116455D01*
X193441772Y-129181464D01*
X193494057Y-129203121D01*
X193494067Y-129203123D01*
X193494071Y-129203125D01*
X193712806Y-129261735D01*
X193712814Y-129261736D01*
X193712819Y-129261738D01*
X193712822Y-129261738D01*
X193712825Y-129261739D01*
X193814585Y-129275136D01*
X193937361Y-129291300D01*
X193937367Y-129291300D01*
X194163833Y-129291300D01*
X194163839Y-129291300D01*
X194362632Y-129265128D01*
X194388374Y-129261739D01*
X194388374Y-129261738D01*
X194388381Y-129261738D01*
X194388389Y-129261735D01*
X194388393Y-129261735D01*
X194607128Y-129203125D01*
X194607127Y-129203125D01*
X194607143Y-129203121D01*
X194816382Y-129116452D01*
X195012518Y-129003212D01*
X195092924Y-128941514D01*
X195201602Y-128883665D01*
X195323176Y-128864238D01*
X195444471Y-128885338D01*
X195548275Y-128941513D01*
X195628682Y-129003212D01*
X195824818Y-129116452D01*
X195824821Y-129116453D01*
X195824824Y-129116455D01*
X195981772Y-129181464D01*
X196034057Y-129203121D01*
X196034067Y-129203123D01*
X196034071Y-129203125D01*
X196252806Y-129261735D01*
X196252814Y-129261736D01*
X196252819Y-129261738D01*
X196252822Y-129261738D01*
X196252825Y-129261739D01*
X196354585Y-129275136D01*
X196477361Y-129291300D01*
X196477367Y-129291300D01*
X196703833Y-129291300D01*
X196703839Y-129291300D01*
X196902632Y-129265128D01*
X196928374Y-129261739D01*
X196928374Y-129261738D01*
X196928381Y-129261738D01*
X196928389Y-129261735D01*
X196928393Y-129261735D01*
X197147128Y-129203125D01*
X197147127Y-129203125D01*
X197147143Y-129203121D01*
X197356382Y-129116452D01*
X197552518Y-129003212D01*
X197632924Y-128941514D01*
X197741602Y-128883665D01*
X197863176Y-128864238D01*
X197984471Y-128885338D01*
X198088275Y-128941513D01*
X198168682Y-129003212D01*
X198364818Y-129116452D01*
X198364821Y-129116453D01*
X198364824Y-129116455D01*
X198521772Y-129181464D01*
X198574057Y-129203121D01*
X198574067Y-129203123D01*
X198574071Y-129203125D01*
X198792806Y-129261735D01*
X198792814Y-129261736D01*
X198792819Y-129261738D01*
X198792822Y-129261738D01*
X198792825Y-129261739D01*
X198894585Y-129275136D01*
X199017361Y-129291300D01*
X199017367Y-129291300D01*
X199243833Y-129291300D01*
X199243839Y-129291300D01*
X199442632Y-129265128D01*
X199468374Y-129261739D01*
X199468375Y-129261738D01*
X199468381Y-129261738D01*
X199530583Y-129245070D01*
X199653126Y-129233214D01*
X199772881Y-129261790D01*
X199876868Y-129327701D01*
X199891839Y-129341869D01*
X199991966Y-129441996D01*
X200212821Y-129618122D01*
X200212836Y-129618132D01*
X200452030Y-129768428D01*
X200706559Y-129891003D01*
X200895600Y-129957150D01*
X200895600Y-129957149D01*
X202445600Y-129957149D01*
X202634640Y-129891003D01*
X202889169Y-129768428D01*
X203128363Y-129618132D01*
X203128378Y-129618122D01*
X203349233Y-129441996D01*
X203449359Y-129341870D01*
X203549557Y-129270330D01*
X203667555Y-129235199D01*
X203790567Y-129240287D01*
X203810616Y-129245071D01*
X203872811Y-129261736D01*
X203872813Y-129261736D01*
X203872819Y-129261738D01*
X203872822Y-129261738D01*
X203872825Y-129261739D01*
X203974585Y-129275136D01*
X204097361Y-129291300D01*
X204097367Y-129291300D01*
X204323833Y-129291300D01*
X204323839Y-129291300D01*
X204522632Y-129265128D01*
X204548374Y-129261739D01*
X204548374Y-129261738D01*
X204548381Y-129261738D01*
X204548389Y-129261735D01*
X204548393Y-129261735D01*
X204767128Y-129203125D01*
X204767127Y-129203125D01*
X204767143Y-129203121D01*
X204976382Y-129116452D01*
X205172518Y-129003212D01*
X205352196Y-128865341D01*
X205512341Y-128705196D01*
X205650212Y-128525518D01*
X205763452Y-128329382D01*
X205850121Y-128120143D01*
X205908738Y-127901381D01*
X205938300Y-127676839D01*
X205938300Y-127450361D01*
X205908738Y-127225819D01*
X205861030Y-127047771D01*
X205850125Y-127007071D01*
X205850123Y-127007067D01*
X205850121Y-127007057D01*
X205835958Y-126972865D01*
X205763455Y-126797824D01*
X205763453Y-126797821D01*
X205763452Y-126797818D01*
X205650212Y-126601682D01*
X205512341Y-126422004D01*
X205352196Y-126261859D01*
X205172518Y-126123988D01*
X204976382Y-126010748D01*
X204976380Y-126010747D01*
X204976378Y-126010746D01*
X204976375Y-126010744D01*
X204767149Y-125924081D01*
X204767128Y-125924074D01*
X204548393Y-125865464D01*
X204548374Y-125865460D01*
X204323845Y-125835900D01*
X204323839Y-125835900D01*
X204097361Y-125835900D01*
X204097354Y-125835900D01*
X203872825Y-125865460D01*
X203872807Y-125865464D01*
X203810612Y-125882129D01*
X203688067Y-125893984D01*
X203568313Y-125865407D01*
X203464326Y-125799494D01*
X203449360Y-125785330D01*
X203349233Y-125685203D01*
X203128378Y-125509077D01*
X203128363Y-125509067D01*
X202889169Y-125358771D01*
X202634649Y-125236200D01*
X202634648Y-125236199D01*
X202445600Y-125170048D01*
X202445600Y-129957149D01*
X200895600Y-129957149D01*
X200895600Y-127497774D01*
X201170600Y-127497774D01*
X201170600Y-127629426D01*
X201204675Y-127756593D01*
X201270501Y-127870607D01*
X201363593Y-127963699D01*
X201477607Y-128029525D01*
X201604774Y-128063600D01*
X201736426Y-128063600D01*
X201863593Y-128029525D01*
X201977607Y-127963699D01*
X202070699Y-127870607D01*
X202136525Y-127756593D01*
X202170600Y-127629426D01*
X202170600Y-127497774D01*
X202136525Y-127370607D01*
X202070699Y-127256593D01*
X201977607Y-127163501D01*
X201863593Y-127097675D01*
X201736426Y-127063600D01*
X201604774Y-127063600D01*
X201477607Y-127097675D01*
X201363593Y-127163501D01*
X201270501Y-127256593D01*
X201204675Y-127370607D01*
X201170600Y-127497774D01*
X200895600Y-127497774D01*
X200895600Y-125170048D01*
X200706551Y-125236199D01*
X200706550Y-125236200D01*
X200452030Y-125358771D01*
X200212836Y-125509067D01*
X200212821Y-125509077D01*
X199991966Y-125685203D01*
X199891838Y-125785331D01*
X199791639Y-125856871D01*
X199673640Y-125892000D01*
X199550629Y-125886912D01*
X199530586Y-125882129D01*
X199468387Y-125865463D01*
X199468374Y-125865460D01*
X199243845Y-125835900D01*
X199243839Y-125835900D01*
X199017361Y-125835900D01*
X199017354Y-125835900D01*
X198792825Y-125865460D01*
X198792806Y-125865464D01*
X198574071Y-125924074D01*
X198574050Y-125924081D01*
X198364824Y-126010744D01*
X198364821Y-126010746D01*
X198168684Y-126123987D01*
X198168668Y-126123997D01*
X198088275Y-126185685D01*
X197979596Y-126243535D01*
X197858021Y-126262961D01*
X197736726Y-126241860D01*
X197632925Y-126185685D01*
X197552531Y-126123997D01*
X197552524Y-126123992D01*
X197552518Y-126123988D01*
X197356382Y-126010748D01*
X197356380Y-126010747D01*
X197356378Y-126010746D01*
X197356375Y-126010744D01*
X197147149Y-125924081D01*
X197147128Y-125924074D01*
X196928393Y-125865464D01*
X196928374Y-125865460D01*
X196703845Y-125835900D01*
X196703839Y-125835900D01*
X196477361Y-125835900D01*
X196477354Y-125835900D01*
X196252825Y-125865460D01*
X196252806Y-125865464D01*
X196034071Y-125924074D01*
X196034050Y-125924081D01*
X195824824Y-126010744D01*
X195824821Y-126010746D01*
X195628684Y-126123987D01*
X195628668Y-126123997D01*
X195548275Y-126185685D01*
X195439596Y-126243535D01*
X195318021Y-126262961D01*
X195196726Y-126241860D01*
X195092925Y-126185685D01*
X195012531Y-126123997D01*
X195012524Y-126123992D01*
X195012518Y-126123988D01*
X194816382Y-126010748D01*
X194816380Y-126010747D01*
X194816378Y-126010746D01*
X194816375Y-126010744D01*
X194607149Y-125924081D01*
X194607128Y-125924074D01*
X194388393Y-125865464D01*
X194388374Y-125865460D01*
X194163845Y-125835900D01*
X194163839Y-125835900D01*
X193937361Y-125835900D01*
X193937354Y-125835900D01*
X193712825Y-125865460D01*
X193712806Y-125865464D01*
X193494071Y-125924074D01*
X193494050Y-125924081D01*
X193284824Y-126010744D01*
X193284821Y-126010746D01*
X193088684Y-126123987D01*
X193088668Y-126123997D01*
X193008275Y-126185685D01*
X192899596Y-126243535D01*
X192778021Y-126262961D01*
X192656726Y-126241860D01*
X192552925Y-126185685D01*
X192472531Y-126123997D01*
X192472524Y-126123992D01*
X192472518Y-126123988D01*
X192276382Y-126010748D01*
X192276380Y-126010747D01*
X192276378Y-126010746D01*
X192276375Y-126010744D01*
X192067149Y-125924081D01*
X192067128Y-125924074D01*
X191848393Y-125865464D01*
X191848374Y-125865460D01*
X191623845Y-125835900D01*
X191623839Y-125835900D01*
X191397361Y-125835900D01*
X191397354Y-125835900D01*
X191172825Y-125865460D01*
X191172806Y-125865464D01*
X190954071Y-125924074D01*
X190954050Y-125924081D01*
X190744824Y-126010744D01*
X190744821Y-126010746D01*
X190548684Y-126123987D01*
X190548668Y-126123997D01*
X190468275Y-126185685D01*
X190359596Y-126243535D01*
X190238021Y-126262961D01*
X190116726Y-126241860D01*
X190012925Y-126185685D01*
X189932531Y-126123997D01*
X189932524Y-126123992D01*
X189932518Y-126123988D01*
X189736382Y-126010748D01*
X189736380Y-126010747D01*
X189736378Y-126010746D01*
X189736375Y-126010744D01*
X189527149Y-125924081D01*
X189527128Y-125924074D01*
X189308393Y-125865464D01*
X189308374Y-125865460D01*
X189083845Y-125835900D01*
X189083839Y-125835900D01*
X188857361Y-125835900D01*
X188857354Y-125835900D01*
X188632825Y-125865460D01*
X188632806Y-125865464D01*
X188414071Y-125924074D01*
X188414050Y-125924081D01*
X188204824Y-126010744D01*
X188204821Y-126010746D01*
X188008684Y-126123987D01*
X188008668Y-126123997D01*
X187928275Y-126185685D01*
X187819596Y-126243535D01*
X187698021Y-126262961D01*
X187576726Y-126241860D01*
X187472925Y-126185685D01*
X187392531Y-126123997D01*
X187392524Y-126123992D01*
X187392518Y-126123988D01*
X187196382Y-126010748D01*
X187196380Y-126010747D01*
X187196378Y-126010746D01*
X187196375Y-126010744D01*
X186987149Y-125924081D01*
X186987128Y-125924074D01*
X186768393Y-125865464D01*
X186768374Y-125865460D01*
X186543845Y-125835900D01*
X186543839Y-125835900D01*
X186317361Y-125835900D01*
X186317354Y-125835900D01*
X186092825Y-125865460D01*
X186092806Y-125865464D01*
X185874071Y-125924074D01*
X185874050Y-125924081D01*
X185664824Y-126010744D01*
X185664821Y-126010746D01*
X185468684Y-126123987D01*
X185468668Y-126123997D01*
X185388275Y-126185685D01*
X185279596Y-126243535D01*
X185158021Y-126262961D01*
X185036726Y-126241860D01*
X184932925Y-126185685D01*
X184852531Y-126123997D01*
X184852524Y-126123992D01*
X184852518Y-126123988D01*
X184656382Y-126010748D01*
X184656380Y-126010747D01*
X184656378Y-126010746D01*
X184656375Y-126010744D01*
X184447149Y-125924081D01*
X184447128Y-125924074D01*
X184228393Y-125865464D01*
X184228374Y-125865460D01*
X184003845Y-125835900D01*
X184003839Y-125835900D01*
X183777361Y-125835900D01*
X183777354Y-125835900D01*
X183552825Y-125865460D01*
X183552806Y-125865464D01*
X183334071Y-125924074D01*
X183334050Y-125924081D01*
X183124824Y-126010744D01*
X183124821Y-126010746D01*
X182928684Y-126123987D01*
X182928668Y-126123997D01*
X182848275Y-126185685D01*
X182739596Y-126243535D01*
X182618021Y-126262961D01*
X182496726Y-126241860D01*
X182392925Y-126185685D01*
X182312531Y-126123997D01*
X182312524Y-126123992D01*
X182312518Y-126123988D01*
X182116382Y-126010748D01*
X182116380Y-126010747D01*
X182116378Y-126010746D01*
X182116375Y-126010744D01*
X181907149Y-125924081D01*
X181907128Y-125924074D01*
X181688393Y-125865464D01*
X181688374Y-125865460D01*
X181463845Y-125835900D01*
X181463839Y-125835900D01*
X181237361Y-125835900D01*
X181237354Y-125835900D01*
X181012825Y-125865460D01*
X181012806Y-125865464D01*
X180794071Y-125924074D01*
X180794050Y-125924081D01*
X180584824Y-126010744D01*
X180584821Y-126010746D01*
X180388684Y-126123987D01*
X180388668Y-126123997D01*
X180308275Y-126185685D01*
X180199596Y-126243535D01*
X180078021Y-126262961D01*
X179956726Y-126241860D01*
X179852925Y-126185685D01*
X179772531Y-126123997D01*
X179772524Y-126123992D01*
X179772518Y-126123988D01*
X179576382Y-126010748D01*
X179576380Y-126010747D01*
X179576378Y-126010746D01*
X179576375Y-126010744D01*
X179367149Y-125924081D01*
X179367128Y-125924074D01*
X179148393Y-125865464D01*
X179148374Y-125865460D01*
X178923845Y-125835900D01*
X178923839Y-125835900D01*
X178697361Y-125835900D01*
X178697354Y-125835900D01*
X178472825Y-125865460D01*
X178472806Y-125865464D01*
X178254071Y-125924074D01*
X178254050Y-125924081D01*
X178044824Y-126010744D01*
X178044821Y-126010746D01*
X177848684Y-126123987D01*
X177848668Y-126123997D01*
X177768275Y-126185685D01*
X177659596Y-126243535D01*
X177538021Y-126262961D01*
X177416726Y-126241860D01*
X177312925Y-126185685D01*
X177232531Y-126123997D01*
X177232524Y-126123992D01*
X177232518Y-126123988D01*
X177036382Y-126010748D01*
X177036380Y-126010747D01*
X177036378Y-126010746D01*
X177036375Y-126010744D01*
X176827149Y-125924081D01*
X176827128Y-125924074D01*
X176608393Y-125865464D01*
X176608374Y-125865460D01*
X176383845Y-125835900D01*
X176383839Y-125835900D01*
X176157361Y-125835900D01*
X176157354Y-125835900D01*
X175932825Y-125865460D01*
X175932806Y-125865464D01*
X175714071Y-125924074D01*
X175714050Y-125924081D01*
X175504824Y-126010744D01*
X175504821Y-126010746D01*
X175308684Y-126123987D01*
X175308668Y-126123997D01*
X175228275Y-126185685D01*
X175119596Y-126243535D01*
X174998021Y-126262961D01*
X174876726Y-126241860D01*
X174772925Y-126185685D01*
X174692531Y-126123997D01*
X174692524Y-126123992D01*
X174692518Y-126123988D01*
X174496382Y-126010748D01*
X174496380Y-126010747D01*
X174496378Y-126010746D01*
X174496375Y-126010744D01*
X174287149Y-125924081D01*
X174287128Y-125924074D01*
X174068393Y-125865464D01*
X174068374Y-125865460D01*
X173843845Y-125835900D01*
X173843839Y-125835900D01*
X173617361Y-125835900D01*
X173617354Y-125835900D01*
X173392825Y-125865460D01*
X173392806Y-125865464D01*
X173174071Y-125924074D01*
X173174050Y-125924081D01*
X172964824Y-126010744D01*
X172964821Y-126010746D01*
X172768684Y-126123987D01*
X172768668Y-126123997D01*
X172688275Y-126185685D01*
X172579596Y-126243535D01*
X172458021Y-126262961D01*
X172336726Y-126241860D01*
X172232925Y-126185685D01*
X172152531Y-126123997D01*
X172152524Y-126123992D01*
X172152518Y-126123988D01*
X171956382Y-126010748D01*
X171956380Y-126010747D01*
X171956378Y-126010746D01*
X171956375Y-126010744D01*
X171747149Y-125924081D01*
X171747128Y-125924074D01*
X171528393Y-125865464D01*
X171528374Y-125865460D01*
X171303845Y-125835900D01*
X171303839Y-125835900D01*
X171077361Y-125835900D01*
X171077354Y-125835900D01*
X170852825Y-125865460D01*
X170852806Y-125865464D01*
X170634071Y-125924074D01*
X170634050Y-125924081D01*
X170424824Y-126010744D01*
X170424821Y-126010746D01*
X170228684Y-126123987D01*
X170228668Y-126123997D01*
X170148275Y-126185685D01*
X170039596Y-126243535D01*
X169918021Y-126262961D01*
X169796726Y-126241860D01*
X169692925Y-126185685D01*
X169612531Y-126123997D01*
X169612524Y-126123992D01*
X169612518Y-126123988D01*
X169416382Y-126010748D01*
X169416380Y-126010747D01*
X169416378Y-126010746D01*
X169416375Y-126010744D01*
X169207149Y-125924081D01*
X169207128Y-125924074D01*
X168988393Y-125865464D01*
X168988374Y-125865460D01*
X168763845Y-125835900D01*
X168763839Y-125835900D01*
X168537361Y-125835900D01*
X168537354Y-125835900D01*
X168312825Y-125865460D01*
X168312806Y-125865464D01*
X168094071Y-125924074D01*
X168094050Y-125924081D01*
X167884824Y-126010744D01*
X167884821Y-126010746D01*
X167688684Y-126123987D01*
X167688677Y-126123991D01*
X167509003Y-126261859D01*
X167348859Y-126422003D01*
X167210991Y-126601677D01*
X167210987Y-126601684D01*
X167097746Y-126797821D01*
X167097744Y-126797824D01*
X167011081Y-127007050D01*
X167011074Y-127007071D01*
X166952464Y-127225806D01*
X166952460Y-127225825D01*
X166922900Y-127450354D01*
X87692976Y-127450354D01*
X87597834Y-127285563D01*
X87415370Y-127047771D01*
X87203429Y-126835830D01*
X86965637Y-126653366D01*
X86706063Y-126503500D01*
X86706061Y-126503499D01*
X86706059Y-126503498D01*
X86706056Y-126503496D01*
X86429155Y-126388801D01*
X86429153Y-126388800D01*
X86237004Y-126337314D01*
X86139631Y-126311223D01*
X86139625Y-126311222D01*
X86139624Y-126311222D01*
X85842470Y-126272100D01*
X85842465Y-126272100D01*
X85640866Y-126272100D01*
X85519428Y-126251836D01*
X85468065Y-126229033D01*
X85467986Y-126229199D01*
X85462647Y-126226628D01*
X85459951Y-126225431D01*
X85458524Y-126224642D01*
X85189105Y-126094897D01*
X85189093Y-126094892D01*
X85064805Y-126051402D01*
X84906836Y-125996127D01*
X84906831Y-125996125D01*
X84906829Y-125996125D01*
X84615294Y-125929584D01*
X84615284Y-125929582D01*
X84318123Y-125896100D01*
X84019077Y-125896100D01*
X83721915Y-125929582D01*
X83721905Y-125929584D01*
X83430370Y-125996125D01*
X83430366Y-125996126D01*
X83430364Y-125996127D01*
X83351379Y-126023764D01*
X83148106Y-126094892D01*
X83148094Y-126094897D01*
X82878675Y-126224642D01*
X82877249Y-126225431D01*
X82876458Y-126225710D01*
X82869214Y-126229199D01*
X82868831Y-126228404D01*
X82761162Y-126266439D01*
X82696334Y-126272100D01*
X82494729Y-126272100D01*
X82197575Y-126311222D01*
X82197571Y-126311222D01*
X82197569Y-126311223D01*
X82197566Y-126311223D01*
X82197565Y-126311224D01*
X81908046Y-126388800D01*
X81908044Y-126388801D01*
X81631143Y-126503496D01*
X81631140Y-126503498D01*
X81371566Y-126653364D01*
X81133778Y-126835824D01*
X81133770Y-126835831D01*
X80921831Y-127047770D01*
X80921824Y-127047778D01*
X80883537Y-127097675D01*
X80761596Y-127256593D01*
X80739364Y-127285566D01*
X80589498Y-127545140D01*
X80589496Y-127545143D01*
X80474801Y-127822044D01*
X80474800Y-127822046D01*
X80397224Y-128111565D01*
X80397222Y-128111575D01*
X80358100Y-128408729D01*
X72149580Y-128408729D01*
X72184833Y-120534729D01*
X80358100Y-120534729D01*
X80358100Y-120834470D01*
X80397222Y-121131624D01*
X80397224Y-121131634D01*
X80474800Y-121421153D01*
X80474801Y-121421155D01*
X80589496Y-121698056D01*
X80589498Y-121698059D01*
X80589500Y-121698063D01*
X80739366Y-121957637D01*
X80921830Y-122195429D01*
X81133771Y-122407370D01*
X81371563Y-122589834D01*
X81631137Y-122739700D01*
X81631140Y-122739701D01*
X81631143Y-122739703D01*
X81908044Y-122854398D01*
X81908046Y-122854399D01*
X81908049Y-122854399D01*
X81908052Y-122854401D01*
X82197569Y-122931977D01*
X82494735Y-122971100D01*
X82696334Y-122971100D01*
X82817772Y-122991364D01*
X82869134Y-123014166D01*
X82869214Y-123014001D01*
X82874552Y-123016571D01*
X82877249Y-123017769D01*
X82878664Y-123018551D01*
X82878669Y-123018554D01*
X83148100Y-123148305D01*
X83430364Y-123247073D01*
X83721912Y-123313617D01*
X84019077Y-123347100D01*
X84318123Y-123347100D01*
X84615288Y-123313617D01*
X84906836Y-123247073D01*
X85189100Y-123148305D01*
X85458531Y-123018554D01*
X85458542Y-123018546D01*
X85459951Y-123017769D01*
X85460741Y-123017489D01*
X85467986Y-123014001D01*
X85468368Y-123014795D01*
X85576038Y-122976761D01*
X85640866Y-122971100D01*
X85842457Y-122971100D01*
X85842465Y-122971100D01*
X86139631Y-122931977D01*
X86429148Y-122854401D01*
X86706063Y-122739700D01*
X86965637Y-122589834D01*
X87152094Y-122446761D01*
X95167300Y-122446761D01*
X95167300Y-122696038D01*
X95199833Y-122943146D01*
X95199837Y-122943170D01*
X95254804Y-123148307D01*
X95264349Y-123183929D01*
X95264352Y-123183936D01*
X95359732Y-123414207D01*
X95359734Y-123414210D01*
X95359735Y-123414213D01*
X95359737Y-123414216D01*
X95409825Y-123500971D01*
X95484365Y-123630080D01*
X95484368Y-123630084D01*
X95636109Y-123827836D01*
X95812364Y-124004091D01*
X96010116Y-124155832D01*
X96225984Y-124280463D01*
X96225989Y-124280465D01*
X96225992Y-124280467D01*
X96341127Y-124328157D01*
X96456271Y-124375851D01*
X96697040Y-124440365D01*
X96944169Y-124472900D01*
X96944176Y-124472900D01*
X97193424Y-124472900D01*
X97193431Y-124472900D01*
X97440560Y-124440365D01*
X97681329Y-124375851D01*
X97865961Y-124299373D01*
X97911607Y-124280467D01*
X97911608Y-124280466D01*
X97911616Y-124280463D01*
X98127484Y-124155832D01*
X98325236Y-124004091D01*
X98501491Y-123827836D01*
X98653232Y-123630084D01*
X98777863Y-123414216D01*
X98873251Y-123183929D01*
X98937765Y-122943160D01*
X98970300Y-122696031D01*
X98970300Y-122446769D01*
X98962592Y-122388224D01*
X104219700Y-122388224D01*
X104219700Y-122613775D01*
X104249136Y-122837359D01*
X104249140Y-122837383D01*
X104307510Y-123055221D01*
X104307514Y-123055232D01*
X104393816Y-123263586D01*
X104393818Y-123263588D01*
X104393819Y-123263591D01*
X104506587Y-123458910D01*
X104506589Y-123458912D01*
X104571361Y-123543326D01*
X104629210Y-123652005D01*
X104648636Y-123773580D01*
X104627535Y-123894875D01*
X104571361Y-123998674D01*
X104506589Y-124083087D01*
X104506585Y-124083093D01*
X104393819Y-124278409D01*
X104393816Y-124278413D01*
X104307514Y-124486767D01*
X104307510Y-124486778D01*
X104249140Y-124704616D01*
X104249136Y-124704640D01*
X104219700Y-124928224D01*
X104219700Y-125153775D01*
X104249136Y-125377359D01*
X104249140Y-125377383D01*
X104307510Y-125595221D01*
X104307514Y-125595232D01*
X104393816Y-125803586D01*
X104393818Y-125803588D01*
X104393819Y-125803591D01*
X104506587Y-125998910D01*
X104643884Y-126177839D01*
X104803361Y-126337316D01*
X104982290Y-126474613D01*
X105177609Y-126587381D01*
X105177611Y-126587382D01*
X105177613Y-126587383D01*
X105336912Y-126653366D01*
X105385977Y-126673689D01*
X105603827Y-126732062D01*
X105827432Y-126761500D01*
X105827439Y-126761500D01*
X106052961Y-126761500D01*
X106052968Y-126761500D01*
X106276573Y-126732062D01*
X106494423Y-126673689D01*
X106702791Y-126587381D01*
X106898110Y-126474613D01*
X107077039Y-126337316D01*
X107236516Y-126177839D01*
X107373813Y-125998910D01*
X107486581Y-125803591D01*
X107572889Y-125595223D01*
X107631262Y-125377373D01*
X107660700Y-125153768D01*
X107660700Y-124928232D01*
X107631262Y-124704627D01*
X107572889Y-124486777D01*
X107553665Y-124440365D01*
X107486583Y-124278413D01*
X107486582Y-124278411D01*
X107486581Y-124278409D01*
X107373813Y-124083090D01*
X107309040Y-123998676D01*
X107251190Y-123889997D01*
X107231763Y-123768423D01*
X107252864Y-123647128D01*
X107309040Y-123543324D01*
X107314027Y-123536823D01*
X107373813Y-123458910D01*
X107486581Y-123263591D01*
X107572889Y-123055223D01*
X107631262Y-122837373D01*
X107660700Y-122613768D01*
X107660700Y-122388232D01*
X107631262Y-122164627D01*
X107572889Y-121946777D01*
X107486581Y-121738409D01*
X107373813Y-121543090D01*
X107236516Y-121364161D01*
X107077039Y-121204684D01*
X106898110Y-121067387D01*
X106702791Y-120954619D01*
X106702788Y-120954618D01*
X106702786Y-120954616D01*
X106494432Y-120868314D01*
X106494421Y-120868310D01*
X106276583Y-120809940D01*
X106276576Y-120809938D01*
X106276573Y-120809938D01*
X106276563Y-120809936D01*
X106276559Y-120809936D01*
X106052975Y-120780500D01*
X106052968Y-120780500D01*
X105827432Y-120780500D01*
X105827424Y-120780500D01*
X105603840Y-120809936D01*
X105603831Y-120809937D01*
X105603827Y-120809938D01*
X105603825Y-120809938D01*
X105603816Y-120809940D01*
X105385978Y-120868310D01*
X105385967Y-120868314D01*
X105177613Y-120954616D01*
X105177609Y-120954619D01*
X104982293Y-121067385D01*
X104803368Y-121204678D01*
X104803360Y-121204685D01*
X104643885Y-121364160D01*
X104643878Y-121364168D01*
X104600151Y-121421155D01*
X104529892Y-121512719D01*
X104506585Y-121543093D01*
X104393819Y-121738409D01*
X104393816Y-121738413D01*
X104307514Y-121946767D01*
X104307510Y-121946778D01*
X104249140Y-122164616D01*
X104249136Y-122164640D01*
X104219700Y-122388224D01*
X98962592Y-122388224D01*
X98937765Y-122199640D01*
X98873251Y-121958871D01*
X98825557Y-121843727D01*
X98777867Y-121728592D01*
X98777865Y-121728589D01*
X98777863Y-121728584D01*
X98653232Y-121512716D01*
X98501491Y-121314964D01*
X98325236Y-121138709D01*
X98127484Y-120986968D01*
X98127480Y-120986965D01*
X97998371Y-120912425D01*
X97911616Y-120862337D01*
X97911613Y-120862335D01*
X97911610Y-120862334D01*
X97911607Y-120862332D01*
X97681336Y-120766952D01*
X97681337Y-120766952D01*
X97681329Y-120766949D01*
X97681322Y-120766947D01*
X97440570Y-120702437D01*
X97440563Y-120702435D01*
X97440560Y-120702435D01*
X97440550Y-120702433D01*
X97440546Y-120702433D01*
X97193438Y-120669900D01*
X97193431Y-120669900D01*
X96944169Y-120669900D01*
X96944161Y-120669900D01*
X96697053Y-120702433D01*
X96697044Y-120702434D01*
X96697040Y-120702435D01*
X96697038Y-120702435D01*
X96697029Y-120702437D01*
X96456277Y-120766947D01*
X96456263Y-120766952D01*
X96225992Y-120862332D01*
X96225989Y-120862334D01*
X96010119Y-120986965D01*
X96010115Y-120986968D01*
X95812363Y-121138709D01*
X95636109Y-121314963D01*
X95484368Y-121512715D01*
X95484365Y-121512719D01*
X95359734Y-121728589D01*
X95359732Y-121728592D01*
X95264352Y-121958863D01*
X95264347Y-121958877D01*
X95199837Y-122199629D01*
X95199833Y-122199653D01*
X95167300Y-122446761D01*
X87152094Y-122446761D01*
X87203429Y-122407370D01*
X87415370Y-122195429D01*
X87597834Y-121957637D01*
X87747700Y-121698063D01*
X87862401Y-121421148D01*
X87939977Y-121131631D01*
X87979100Y-120834465D01*
X87979100Y-120534735D01*
X87939977Y-120237569D01*
X87862401Y-119948052D01*
X87862398Y-119948044D01*
X87747703Y-119671143D01*
X87747701Y-119671140D01*
X87747700Y-119671137D01*
X87597834Y-119411563D01*
X87415370Y-119173771D01*
X87203429Y-118961830D01*
X86965637Y-118779366D01*
X86706063Y-118629500D01*
X86706061Y-118629499D01*
X86706059Y-118629498D01*
X86706056Y-118629496D01*
X86429155Y-118514801D01*
X86429153Y-118514800D01*
X86245604Y-118465618D01*
X86139631Y-118437223D01*
X86139625Y-118437222D01*
X86139624Y-118437222D01*
X85842470Y-118398100D01*
X85842465Y-118398100D01*
X85640866Y-118398100D01*
X85519428Y-118377836D01*
X85468065Y-118355033D01*
X85467986Y-118355199D01*
X85462647Y-118352628D01*
X85459951Y-118351431D01*
X85458524Y-118350642D01*
X85189105Y-118220897D01*
X85189093Y-118220892D01*
X85064805Y-118177402D01*
X84906836Y-118122127D01*
X84906831Y-118122125D01*
X84906829Y-118122125D01*
X84615294Y-118055584D01*
X84615284Y-118055582D01*
X84318123Y-118022100D01*
X84019077Y-118022100D01*
X83721915Y-118055582D01*
X83721905Y-118055584D01*
X83430370Y-118122125D01*
X83430366Y-118122126D01*
X83430364Y-118122127D01*
X83351379Y-118149764D01*
X83148106Y-118220892D01*
X83148094Y-118220897D01*
X82878675Y-118350642D01*
X82877249Y-118351431D01*
X82876458Y-118351710D01*
X82869214Y-118355199D01*
X82868831Y-118354404D01*
X82761162Y-118392439D01*
X82696334Y-118398100D01*
X82494729Y-118398100D01*
X82197575Y-118437222D01*
X82197571Y-118437222D01*
X82197569Y-118437223D01*
X82197566Y-118437223D01*
X82197565Y-118437224D01*
X81908046Y-118514800D01*
X81908044Y-118514801D01*
X81631143Y-118629496D01*
X81631140Y-118629498D01*
X81371566Y-118779364D01*
X81133778Y-118961824D01*
X81133770Y-118961831D01*
X80921831Y-119173770D01*
X80921824Y-119173778D01*
X80739364Y-119411566D01*
X80589498Y-119671140D01*
X80589496Y-119671143D01*
X80474801Y-119948044D01*
X80474800Y-119948046D01*
X80397224Y-120237565D01*
X80397222Y-120237575D01*
X80358100Y-120534729D01*
X72184833Y-120534729D01*
X72225840Y-111375361D01*
X80422500Y-111375361D01*
X80422500Y-111624638D01*
X80455033Y-111871746D01*
X80455037Y-111871770D01*
X80482264Y-111973381D01*
X80519549Y-112112529D01*
X80519552Y-112112536D01*
X80614932Y-112342807D01*
X80614934Y-112342810D01*
X80739565Y-112558680D01*
X80739568Y-112558684D01*
X80891309Y-112756436D01*
X81067564Y-112932691D01*
X81265316Y-113084432D01*
X81481184Y-113209063D01*
X81481189Y-113209065D01*
X81481192Y-113209067D01*
X81596327Y-113256757D01*
X81711471Y-113304451D01*
X81952240Y-113368965D01*
X82199369Y-113401500D01*
X82199376Y-113401500D01*
X82448624Y-113401500D01*
X82448631Y-113401500D01*
X82695760Y-113368965D01*
X82936529Y-113304451D01*
X83147418Y-113217098D01*
X83166807Y-113209067D01*
X83166808Y-113209066D01*
X83166816Y-113209063D01*
X83382684Y-113084432D01*
X83580436Y-112932691D01*
X83756691Y-112756436D01*
X83908432Y-112558684D01*
X84033063Y-112342816D01*
X84061153Y-112275000D01*
X93846627Y-112275000D01*
X93919585Y-112483501D01*
X93919589Y-112483511D01*
X94044633Y-112743171D01*
X94044637Y-112743177D01*
X94197975Y-112987213D01*
X94377664Y-113212534D01*
X94377667Y-113212538D01*
X94459070Y-113293941D01*
X94530610Y-113394139D01*
X94565740Y-113512138D01*
X94560652Y-113635150D01*
X94555870Y-113655190D01*
X94545933Y-113692277D01*
X94545930Y-113692293D01*
X94515500Y-113923425D01*
X94515500Y-114156574D01*
X94545930Y-114387706D01*
X94545930Y-114387710D01*
X94606270Y-114612906D01*
X94695485Y-114828291D01*
X94695488Y-114828296D01*
X94812055Y-115030198D01*
X94812064Y-115030211D01*
X94953970Y-115215147D01*
X94953985Y-115215164D01*
X95118835Y-115380014D01*
X95118852Y-115380029D01*
X95303788Y-115521935D01*
X95303796Y-115521941D01*
X95303798Y-115521942D01*
X95505702Y-115638511D01*
X95505705Y-115638512D01*
X95505708Y-115638514D01*
X95721093Y-115727729D01*
X95946287Y-115788069D01*
X96177431Y-115818500D01*
X96177439Y-115818500D01*
X98442561Y-115818500D01*
X98442569Y-115818500D01*
X98673713Y-115788069D01*
X98898907Y-115727729D01*
X99114298Y-115638511D01*
X99276264Y-115545000D01*
X103614075Y-115545000D01*
X103679254Y-115731270D01*
X103679255Y-115731273D01*
X103801482Y-115985081D01*
X103951348Y-116223591D01*
X103951350Y-116223594D01*
X104126981Y-116443829D01*
X104326170Y-116643018D01*
X104546405Y-116818649D01*
X104546408Y-116818651D01*
X104784918Y-116968517D01*
X105038726Y-117090744D01*
X105038729Y-117090745D01*
X105224999Y-117155924D01*
X105225000Y-117155924D01*
X106775000Y-117155924D01*
X106961270Y-117090745D01*
X106961273Y-117090744D01*
X107215081Y-116968517D01*
X107453591Y-116818651D01*
X107453594Y-116818649D01*
X107673829Y-116643018D01*
X107673830Y-116643018D01*
X107873018Y-116443830D01*
X107873018Y-116443829D01*
X108048649Y-116223594D01*
X108048651Y-116223591D01*
X108198517Y-115985081D01*
X108320744Y-115731273D01*
X108320745Y-115731270D01*
X108385924Y-115545000D01*
X106775000Y-115545000D01*
X106775000Y-117155924D01*
X105225000Y-117155924D01*
X105225000Y-115545000D01*
X103614075Y-115545000D01*
X99276264Y-115545000D01*
X99316202Y-115521942D01*
X99337503Y-115505597D01*
X99501147Y-115380029D01*
X99501153Y-115380023D01*
X99501163Y-115380016D01*
X99666016Y-115215163D01*
X99666023Y-115215153D01*
X99666029Y-115215147D01*
X99807935Y-115030211D01*
X99807942Y-115030202D01*
X99924511Y-114828298D01*
X99973199Y-114710756D01*
X105550000Y-114710756D01*
X105550000Y-114829244D01*
X105580667Y-114943694D01*
X105639910Y-115046306D01*
X105723694Y-115130090D01*
X105826306Y-115189333D01*
X105940756Y-115220000D01*
X106059244Y-115220000D01*
X106173694Y-115189333D01*
X106276306Y-115130090D01*
X106360090Y-115046306D01*
X106419333Y-114943694D01*
X106450000Y-114829244D01*
X106450000Y-114710756D01*
X106419333Y-114596306D01*
X106360090Y-114493694D01*
X106276306Y-114409910D01*
X106173694Y-114350667D01*
X106059244Y-114320000D01*
X105940756Y-114320000D01*
X105826306Y-114350667D01*
X105723694Y-114409910D01*
X105639910Y-114493694D01*
X105580667Y-114596306D01*
X105550000Y-114710756D01*
X99973199Y-114710756D01*
X100013729Y-114612907D01*
X100074069Y-114387713D01*
X100104500Y-114156569D01*
X100104500Y-113994999D01*
X103614075Y-113994999D01*
X103614076Y-113995000D01*
X108385924Y-113995000D01*
X108385924Y-113994999D01*
X108320745Y-113808729D01*
X108320744Y-113808726D01*
X108198517Y-113554918D01*
X108048651Y-113316408D01*
X108048649Y-113316405D01*
X107873018Y-113096170D01*
X107770239Y-112993391D01*
X107698699Y-112893193D01*
X107663569Y-112775194D01*
X107668657Y-112652182D01*
X107673436Y-112632152D01*
X107691062Y-112566373D01*
X107720500Y-112342768D01*
X107720500Y-112117232D01*
X107691062Y-111893627D01*
X107632689Y-111675777D01*
X107632456Y-111675214D01*
X109088400Y-111675214D01*
X109088400Y-111926985D01*
X109121258Y-112176564D01*
X109121263Y-112176590D01*
X109168337Y-112352271D01*
X109186418Y-112419749D01*
X109282695Y-112652182D01*
X109282761Y-112652340D01*
X109408635Y-112870361D01*
X109546321Y-113049798D01*
X109561893Y-113070091D01*
X109739909Y-113248107D01*
X109739917Y-113248113D01*
X109739918Y-113248114D01*
X109863363Y-113342836D01*
X109939638Y-113401364D01*
X110157662Y-113527240D01*
X110390251Y-113623582D01*
X110508214Y-113655190D01*
X110633409Y-113688736D01*
X110633412Y-113688736D01*
X110633425Y-113688740D01*
X110758224Y-113705170D01*
X110883014Y-113721599D01*
X110883023Y-113721600D01*
X110883024Y-113721600D01*
X111134777Y-113721600D01*
X111134785Y-113721599D01*
X111221437Y-113710191D01*
X111384375Y-113688740D01*
X111398574Y-113684935D01*
X111521111Y-113673074D01*
X111640867Y-113701645D01*
X111744857Y-113767552D01*
X111759839Y-113781730D01*
X111801592Y-113823483D01*
X112039377Y-114013110D01*
X112039397Y-114013124D01*
X112296916Y-114174935D01*
X112570965Y-114306909D01*
X112833900Y-114398913D01*
X112833900Y-112459587D01*
X112846643Y-112362792D01*
X112896540Y-112176575D01*
X112929400Y-111926976D01*
X112929400Y-111737081D01*
X112958900Y-111737081D01*
X112958900Y-111865119D01*
X112983879Y-111990698D01*
X113032878Y-112108990D01*
X113104012Y-112215451D01*
X113194549Y-112305988D01*
X113301010Y-112377122D01*
X113419302Y-112426121D01*
X113544881Y-112451100D01*
X113672919Y-112451100D01*
X113798498Y-112426121D01*
X113916790Y-112377122D01*
X114023251Y-112305988D01*
X114113788Y-112215451D01*
X114184922Y-112108990D01*
X114233921Y-111990698D01*
X114258900Y-111865119D01*
X114258900Y-111737081D01*
X114246594Y-111675214D01*
X114288400Y-111675214D01*
X114288400Y-111926985D01*
X114321258Y-112176564D01*
X114321262Y-112176585D01*
X114344015Y-112261500D01*
X114371156Y-112362792D01*
X114383900Y-112459587D01*
X114383900Y-114398912D01*
X114646834Y-114306909D01*
X114920883Y-114174935D01*
X115178402Y-114013124D01*
X115178412Y-114013117D01*
X115416210Y-113823479D01*
X115457956Y-113781733D01*
X115558154Y-113710191D01*
X115676152Y-113675061D01*
X115799164Y-113680147D01*
X115819194Y-113684926D01*
X115833425Y-113688740D01*
X115958224Y-113705170D01*
X116083014Y-113721599D01*
X116083023Y-113721600D01*
X116083024Y-113721600D01*
X116334777Y-113721600D01*
X116334785Y-113721599D01*
X116421437Y-113710191D01*
X116584375Y-113688740D01*
X116827549Y-113623582D01*
X117060138Y-113527240D01*
X117278162Y-113401364D01*
X117281220Y-113399017D01*
X117283457Y-113397826D01*
X117288343Y-113394562D01*
X117288670Y-113395051D01*
X117389895Y-113341167D01*
X117511469Y-113321738D01*
X117632765Y-113342836D01*
X117729162Y-113395003D01*
X117729457Y-113394562D01*
X117734186Y-113397721D01*
X117736579Y-113399017D01*
X117739638Y-113401364D01*
X117957662Y-113527240D01*
X118190251Y-113623582D01*
X118308214Y-113655190D01*
X118433409Y-113688736D01*
X118433412Y-113688736D01*
X118433425Y-113688740D01*
X118558224Y-113705170D01*
X118683014Y-113721599D01*
X118683023Y-113721600D01*
X118683024Y-113721600D01*
X118934777Y-113721600D01*
X118934785Y-113721599D01*
X119021437Y-113710191D01*
X119184375Y-113688740D01*
X119427549Y-113623582D01*
X119660138Y-113527240D01*
X119878162Y-113401364D01*
X119881220Y-113399017D01*
X119883457Y-113397826D01*
X119888343Y-113394562D01*
X119888670Y-113395051D01*
X119989895Y-113341167D01*
X120111469Y-113321738D01*
X120232765Y-113342836D01*
X120329162Y-113395003D01*
X120329457Y-113394562D01*
X120334186Y-113397721D01*
X120336579Y-113399017D01*
X120339638Y-113401364D01*
X120557662Y-113527240D01*
X120790251Y-113623582D01*
X120908214Y-113655190D01*
X121033409Y-113688736D01*
X121033412Y-113688736D01*
X121033425Y-113688740D01*
X121158224Y-113705170D01*
X121283014Y-113721599D01*
X121283023Y-113721600D01*
X121283024Y-113721600D01*
X121534777Y-113721600D01*
X121534785Y-113721599D01*
X121621437Y-113710191D01*
X121784375Y-113688740D01*
X122027549Y-113623582D01*
X122260138Y-113527240D01*
X122478162Y-113401364D01*
X122481220Y-113399017D01*
X122483457Y-113397826D01*
X122488343Y-113394562D01*
X122488670Y-113395051D01*
X122589895Y-113341167D01*
X122711469Y-113321738D01*
X122832765Y-113342836D01*
X122929162Y-113395003D01*
X122929457Y-113394562D01*
X122934186Y-113397721D01*
X122936579Y-113399017D01*
X122939638Y-113401364D01*
X123157662Y-113527240D01*
X123390251Y-113623582D01*
X123508214Y-113655190D01*
X123633409Y-113688736D01*
X123633412Y-113688736D01*
X123633425Y-113688740D01*
X123758224Y-113705170D01*
X123883014Y-113721599D01*
X123883023Y-113721600D01*
X123883024Y-113721600D01*
X124134777Y-113721600D01*
X124134785Y-113721599D01*
X124221437Y-113710191D01*
X124384375Y-113688740D01*
X124627549Y-113623582D01*
X124860138Y-113527240D01*
X125078162Y-113401364D01*
X125081220Y-113399017D01*
X125083457Y-113397826D01*
X125088343Y-113394562D01*
X125088670Y-113395051D01*
X125189895Y-113341167D01*
X125311469Y-113321738D01*
X125432765Y-113342836D01*
X125529162Y-113395003D01*
X125529457Y-113394562D01*
X125534186Y-113397721D01*
X125536579Y-113399017D01*
X125539638Y-113401364D01*
X125757662Y-113527240D01*
X125990251Y-113623582D01*
X126108214Y-113655190D01*
X126233409Y-113688736D01*
X126233412Y-113688736D01*
X126233425Y-113688740D01*
X126358224Y-113705170D01*
X126483014Y-113721599D01*
X126483023Y-113721600D01*
X126483024Y-113721600D01*
X126734777Y-113721600D01*
X126734785Y-113721599D01*
X126821437Y-113710191D01*
X126984375Y-113688740D01*
X127227549Y-113623582D01*
X127460138Y-113527240D01*
X127678162Y-113401364D01*
X127681220Y-113399017D01*
X127683457Y-113397826D01*
X127688343Y-113394562D01*
X127688670Y-113395051D01*
X127789895Y-113341167D01*
X127911469Y-113321738D01*
X128032765Y-113342836D01*
X128129162Y-113395003D01*
X128129457Y-113394562D01*
X128134186Y-113397721D01*
X128136579Y-113399017D01*
X128139638Y-113401364D01*
X128357662Y-113527240D01*
X128590251Y-113623582D01*
X128708214Y-113655190D01*
X128833409Y-113688736D01*
X128833412Y-113688736D01*
X128833425Y-113688740D01*
X128958224Y-113705170D01*
X129083014Y-113721599D01*
X129083023Y-113721600D01*
X129083024Y-113721600D01*
X129334777Y-113721600D01*
X129334785Y-113721599D01*
X129421437Y-113710191D01*
X129584375Y-113688740D01*
X129827549Y-113623582D01*
X130060138Y-113527240D01*
X130278162Y-113401364D01*
X130477891Y-113248107D01*
X130655907Y-113070091D01*
X130809164Y-112870362D01*
X130935040Y-112652338D01*
X131031382Y-112419749D01*
X131096540Y-112176575D01*
X131129400Y-111926976D01*
X131129400Y-111675224D01*
X131122739Y-111624631D01*
X131112970Y-111550424D01*
X131096540Y-111425625D01*
X131031382Y-111182451D01*
X130935040Y-110949862D01*
X130809164Y-110731838D01*
X130655907Y-110532109D01*
X130477891Y-110354093D01*
X130407416Y-110300016D01*
X130278161Y-110200835D01*
X130060140Y-110074961D01*
X129827549Y-109978618D01*
X129827539Y-109978615D01*
X129584390Y-109913463D01*
X129584376Y-109913460D01*
X129584375Y-109913460D01*
X129584373Y-109913459D01*
X129584364Y-109913458D01*
X129334785Y-109880600D01*
X129334776Y-109880600D01*
X129083024Y-109880600D01*
X129083014Y-109880600D01*
X128833435Y-109913458D01*
X128833409Y-109913463D01*
X128590260Y-109978615D01*
X128590250Y-109978618D01*
X128357659Y-110074961D01*
X128139636Y-110200836D01*
X128136568Y-110203191D01*
X128134328Y-110204382D01*
X128129457Y-110207638D01*
X128129130Y-110207149D01*
X128027887Y-110261037D01*
X127906312Y-110280461D01*
X127785018Y-110259357D01*
X127688636Y-110207198D01*
X127688343Y-110207638D01*
X127683628Y-110204487D01*
X127681232Y-110203191D01*
X127678163Y-110200836D01*
X127460140Y-110074961D01*
X127227549Y-109978618D01*
X127227539Y-109978615D01*
X126984390Y-109913463D01*
X126984376Y-109913460D01*
X126984375Y-109913460D01*
X126984373Y-109913459D01*
X126984364Y-109913458D01*
X126734785Y-109880600D01*
X126734776Y-109880600D01*
X126483024Y-109880600D01*
X126483014Y-109880600D01*
X126233435Y-109913458D01*
X126233409Y-109913463D01*
X125990260Y-109978615D01*
X125990250Y-109978618D01*
X125757659Y-110074961D01*
X125539636Y-110200836D01*
X125536568Y-110203191D01*
X125534328Y-110204382D01*
X125529457Y-110207638D01*
X125529130Y-110207149D01*
X125427887Y-110261037D01*
X125306312Y-110280461D01*
X125185018Y-110259357D01*
X125088636Y-110207198D01*
X125088343Y-110207638D01*
X125083628Y-110204487D01*
X125081232Y-110203191D01*
X125078163Y-110200836D01*
X124860140Y-110074961D01*
X124627549Y-109978618D01*
X124627539Y-109978615D01*
X124384390Y-109913463D01*
X124384376Y-109913460D01*
X124384375Y-109913460D01*
X124384373Y-109913459D01*
X124384364Y-109913458D01*
X124134785Y-109880600D01*
X124134776Y-109880600D01*
X123883024Y-109880600D01*
X123883014Y-109880600D01*
X123633435Y-109913458D01*
X123633409Y-109913463D01*
X123390260Y-109978615D01*
X123390250Y-109978618D01*
X123157659Y-110074961D01*
X122939636Y-110200836D01*
X122936568Y-110203191D01*
X122934328Y-110204382D01*
X122929457Y-110207638D01*
X122929130Y-110207149D01*
X122827887Y-110261037D01*
X122706312Y-110280461D01*
X122585018Y-110259357D01*
X122488636Y-110207198D01*
X122488343Y-110207638D01*
X122483628Y-110204487D01*
X122481232Y-110203191D01*
X122478163Y-110200836D01*
X122260140Y-110074961D01*
X122027549Y-109978618D01*
X122027539Y-109978615D01*
X121784390Y-109913463D01*
X121784376Y-109913460D01*
X121784375Y-109913460D01*
X121784373Y-109913459D01*
X121784364Y-109913458D01*
X121534785Y-109880600D01*
X121534776Y-109880600D01*
X121283024Y-109880600D01*
X121283014Y-109880600D01*
X121033435Y-109913458D01*
X121033409Y-109913463D01*
X120790260Y-109978615D01*
X120790250Y-109978618D01*
X120557659Y-110074961D01*
X120339636Y-110200836D01*
X120336568Y-110203191D01*
X120334328Y-110204382D01*
X120329457Y-110207638D01*
X120329130Y-110207149D01*
X120227887Y-110261037D01*
X120106312Y-110280461D01*
X119985018Y-110259357D01*
X119888636Y-110207198D01*
X119888343Y-110207638D01*
X119883628Y-110204487D01*
X119881232Y-110203191D01*
X119878163Y-110200836D01*
X119660140Y-110074961D01*
X119427549Y-109978618D01*
X119427539Y-109978615D01*
X119184390Y-109913463D01*
X119184376Y-109913460D01*
X119184375Y-109913460D01*
X119184373Y-109913459D01*
X119184364Y-109913458D01*
X118934785Y-109880600D01*
X118934776Y-109880600D01*
X118683024Y-109880600D01*
X118683014Y-109880600D01*
X118433435Y-109913458D01*
X118433409Y-109913463D01*
X118190260Y-109978615D01*
X118190250Y-109978618D01*
X117957659Y-110074961D01*
X117739636Y-110200836D01*
X117736568Y-110203191D01*
X117734328Y-110204382D01*
X117729457Y-110207638D01*
X117729130Y-110207149D01*
X117627887Y-110261037D01*
X117506312Y-110280461D01*
X117385018Y-110259357D01*
X117288636Y-110207198D01*
X117288343Y-110207638D01*
X117283628Y-110204487D01*
X117281232Y-110203191D01*
X117278163Y-110200836D01*
X117060140Y-110074961D01*
X116827549Y-109978618D01*
X116827539Y-109978615D01*
X116584390Y-109913463D01*
X116584376Y-109913460D01*
X116584375Y-109913460D01*
X116584373Y-109913459D01*
X116584364Y-109913458D01*
X116334785Y-109880600D01*
X116334776Y-109880600D01*
X116083024Y-109880600D01*
X116083014Y-109880600D01*
X115833430Y-109913459D01*
X115833415Y-109913462D01*
X115819212Y-109917268D01*
X115696667Y-109929123D01*
X115576913Y-109900546D01*
X115472927Y-109834633D01*
X115457960Y-109820469D01*
X115416207Y-109778716D01*
X115178422Y-109589089D01*
X115178402Y-109589075D01*
X114920883Y-109427264D01*
X114646830Y-109295288D01*
X114646828Y-109295287D01*
X114383900Y-109203284D01*
X114383900Y-111142611D01*
X114371156Y-111239409D01*
X114321263Y-111425609D01*
X114321258Y-111425635D01*
X114288400Y-111675214D01*
X114246594Y-111675214D01*
X114233921Y-111611502D01*
X114184922Y-111493210D01*
X114113788Y-111386749D01*
X114023251Y-111296212D01*
X113916790Y-111225078D01*
X113798498Y-111176079D01*
X113672919Y-111151100D01*
X113544881Y-111151100D01*
X113419302Y-111176079D01*
X113301010Y-111225078D01*
X113194549Y-111296212D01*
X113104012Y-111386749D01*
X113032878Y-111493210D01*
X112983879Y-111611502D01*
X112958900Y-111737081D01*
X112929400Y-111737081D01*
X112929400Y-111675224D01*
X112896540Y-111425625D01*
X112842756Y-111224901D01*
X112840044Y-111210121D01*
X112839659Y-111186360D01*
X112833900Y-111142611D01*
X112833900Y-109203285D01*
X112833899Y-109203284D01*
X112570971Y-109295287D01*
X112570969Y-109295288D01*
X112296916Y-109427264D01*
X112039397Y-109589075D01*
X112039377Y-109589089D01*
X111801596Y-109778713D01*
X111759837Y-109820472D01*
X111659638Y-109892011D01*
X111541639Y-109927139D01*
X111418628Y-109922050D01*
X111398588Y-109917268D01*
X111384384Y-109913462D01*
X111384377Y-109913460D01*
X111384375Y-109913460D01*
X111384372Y-109913459D01*
X111384369Y-109913459D01*
X111134785Y-109880600D01*
X111134776Y-109880600D01*
X110883024Y-109880600D01*
X110883014Y-109880600D01*
X110633435Y-109913458D01*
X110633409Y-109913463D01*
X110390260Y-109978615D01*
X110390250Y-109978618D01*
X110157659Y-110074961D01*
X109939638Y-110200835D01*
X109739918Y-110354085D01*
X109739908Y-110354094D01*
X109561894Y-110532108D01*
X109561885Y-110532118D01*
X109408635Y-110731838D01*
X109282761Y-110949859D01*
X109186418Y-111182450D01*
X109186415Y-111182460D01*
X109121263Y-111425609D01*
X109121258Y-111425635D01*
X109088400Y-111675214D01*
X107632456Y-111675214D01*
X107546381Y-111467409D01*
X107433613Y-111272090D01*
X107296316Y-111093161D01*
X107136839Y-110933684D01*
X106957910Y-110796387D01*
X106762591Y-110683619D01*
X106762588Y-110683618D01*
X106762586Y-110683616D01*
X106554232Y-110597314D01*
X106554221Y-110597310D01*
X106336383Y-110538940D01*
X106336376Y-110538938D01*
X106336373Y-110538938D01*
X106336363Y-110538936D01*
X106336359Y-110538936D01*
X106112775Y-110509500D01*
X106112768Y-110509500D01*
X105887232Y-110509500D01*
X105887224Y-110509500D01*
X105663640Y-110538936D01*
X105663631Y-110538937D01*
X105663627Y-110538938D01*
X105663625Y-110538938D01*
X105663616Y-110538940D01*
X105445778Y-110597310D01*
X105445767Y-110597314D01*
X105237413Y-110683616D01*
X105237409Y-110683619D01*
X105042093Y-110796385D01*
X104863168Y-110933678D01*
X104863160Y-110933685D01*
X104703685Y-111093160D01*
X104703678Y-111093168D01*
X104566385Y-111272093D01*
X104453619Y-111467409D01*
X104453616Y-111467413D01*
X104367314Y-111675767D01*
X104367310Y-111675778D01*
X104308940Y-111893616D01*
X104308936Y-111893640D01*
X104279500Y-112117224D01*
X104279500Y-112342775D01*
X104298029Y-112483511D01*
X104308938Y-112566373D01*
X104326559Y-112632136D01*
X104338416Y-112754678D01*
X104309840Y-112874432D01*
X104243929Y-112978420D01*
X104229761Y-112993391D01*
X104126982Y-113096170D01*
X104126981Y-113096170D01*
X103951350Y-113316405D01*
X103951348Y-113316408D01*
X103801482Y-113554918D01*
X103679255Y-113808726D01*
X103679254Y-113808729D01*
X103614075Y-113994999D01*
X100104500Y-113994999D01*
X100104500Y-113923431D01*
X100074069Y-113692287D01*
X100056613Y-113627143D01*
X100053518Y-113598264D01*
X100055443Y-113565411D01*
X100052274Y-113532653D01*
X100059021Y-113504377D01*
X100060722Y-113475358D01*
X100073211Y-113444908D01*
X100080850Y-113412898D01*
X100096412Y-113388345D01*
X100107444Y-113361451D01*
X100129142Y-113336707D01*
X100146762Y-113308911D01*
X100160931Y-113293940D01*
X100242325Y-113212546D01*
X100242335Y-113212534D01*
X100422024Y-112987213D01*
X100575362Y-112743177D01*
X100575366Y-112743171D01*
X100700410Y-112483511D01*
X100700414Y-112483501D01*
X100773372Y-112275000D01*
X98569622Y-112275000D01*
X98520806Y-112271800D01*
X98442577Y-112261501D01*
X98442576Y-112261500D01*
X98442569Y-112261500D01*
X96177431Y-112261500D01*
X96177424Y-112261500D01*
X96177422Y-112261501D01*
X96099194Y-112271800D01*
X96050378Y-112275000D01*
X93846627Y-112275000D01*
X84061153Y-112275000D01*
X84128451Y-112112529D01*
X84192965Y-111871760D01*
X84225500Y-111624631D01*
X84225500Y-111433120D01*
X96802000Y-111433120D01*
X96802000Y-111566880D01*
X96836619Y-111696081D01*
X96903498Y-111811920D01*
X96998080Y-111906502D01*
X97113919Y-111973381D01*
X97243120Y-112008000D01*
X97376880Y-112008000D01*
X97506081Y-111973381D01*
X97621920Y-111906502D01*
X97716502Y-111811920D01*
X97783381Y-111696081D01*
X97818000Y-111566880D01*
X97818000Y-111433120D01*
X97783381Y-111303919D01*
X97716502Y-111188080D01*
X97621920Y-111093498D01*
X97506081Y-111026619D01*
X97376880Y-110992000D01*
X97243120Y-110992000D01*
X97113919Y-111026619D01*
X96998080Y-111093498D01*
X96903498Y-111188080D01*
X96836619Y-111303919D01*
X96802000Y-111433120D01*
X84225500Y-111433120D01*
X84225500Y-111375369D01*
X84192965Y-111128240D01*
X84128451Y-110887471D01*
X84066745Y-110738500D01*
X84061153Y-110724999D01*
X93846627Y-110724999D01*
X93846628Y-110725000D01*
X96050378Y-110725000D01*
X96099194Y-110728200D01*
X96114798Y-110730254D01*
X96177431Y-110738500D01*
X96177439Y-110738500D01*
X98442561Y-110738500D01*
X98442569Y-110738500D01*
X98506988Y-110730018D01*
X98520806Y-110728200D01*
X98569622Y-110725000D01*
X100773372Y-110725000D01*
X100773372Y-110724999D01*
X100700414Y-110516498D01*
X100700410Y-110516488D01*
X100575366Y-110256828D01*
X100575362Y-110256822D01*
X100422024Y-110012786D01*
X100242335Y-109787465D01*
X100242333Y-109787462D01*
X100160929Y-109706058D01*
X100089389Y-109605860D01*
X100054259Y-109487861D01*
X100059347Y-109364849D01*
X100064125Y-109344822D01*
X100074069Y-109307713D01*
X100104500Y-109076569D01*
X100104500Y-108843431D01*
X100074069Y-108612287D01*
X100013729Y-108387093D01*
X99924514Y-108171708D01*
X99924511Y-108171703D01*
X99924511Y-108171702D01*
X99807942Y-107969798D01*
X99807941Y-107969796D01*
X99807935Y-107969788D01*
X99666029Y-107784852D01*
X99666014Y-107784835D01*
X99501164Y-107619985D01*
X99501147Y-107619970D01*
X99316211Y-107478064D01*
X99316198Y-107478055D01*
X99114296Y-107361488D01*
X99114291Y-107361485D01*
X98898906Y-107272270D01*
X98745090Y-107231056D01*
X98673713Y-107211931D01*
X98673710Y-107211930D01*
X98673708Y-107211930D01*
X98442574Y-107181500D01*
X98442569Y-107181500D01*
X96177431Y-107181500D01*
X96177425Y-107181500D01*
X95946293Y-107211930D01*
X95946289Y-107211930D01*
X95721093Y-107272270D01*
X95505708Y-107361485D01*
X95505703Y-107361488D01*
X95303801Y-107478055D01*
X95303788Y-107478064D01*
X95118852Y-107619970D01*
X95118835Y-107619985D01*
X94953985Y-107784835D01*
X94953970Y-107784852D01*
X94812064Y-107969788D01*
X94812055Y-107969801D01*
X94695488Y-108171703D01*
X94695485Y-108171708D01*
X94606270Y-108387093D01*
X94545930Y-108612289D01*
X94545930Y-108612293D01*
X94515500Y-108843425D01*
X94515500Y-109076574D01*
X94545930Y-109307706D01*
X94545931Y-109307713D01*
X94555870Y-109344807D01*
X94567724Y-109467351D01*
X94539147Y-109587106D01*
X94473233Y-109691092D01*
X94459071Y-109706056D01*
X94377676Y-109787451D01*
X94377664Y-109787465D01*
X94197975Y-110012786D01*
X94044637Y-110256822D01*
X94044633Y-110256828D01*
X93919589Y-110516488D01*
X93919585Y-110516498D01*
X93846627Y-110724999D01*
X84061153Y-110724999D01*
X84033067Y-110657192D01*
X84033065Y-110657189D01*
X84033063Y-110657184D01*
X83937355Y-110491413D01*
X83908434Y-110441319D01*
X83908431Y-110441315D01*
X83770099Y-110261037D01*
X83756691Y-110243564D01*
X83580436Y-110067309D01*
X83382684Y-109915568D01*
X83382680Y-109915565D01*
X83217967Y-109820469D01*
X83166816Y-109790937D01*
X83166813Y-109790935D01*
X83166810Y-109790934D01*
X83166807Y-109790932D01*
X82936536Y-109695552D01*
X82936537Y-109695552D01*
X82936529Y-109695549D01*
X82936522Y-109695547D01*
X82695770Y-109631037D01*
X82695763Y-109631035D01*
X82695760Y-109631035D01*
X82695750Y-109631033D01*
X82695746Y-109631033D01*
X82448638Y-109598500D01*
X82448631Y-109598500D01*
X82199369Y-109598500D01*
X82199361Y-109598500D01*
X81952253Y-109631033D01*
X81952244Y-109631034D01*
X81952240Y-109631035D01*
X81952238Y-109631035D01*
X81952229Y-109631037D01*
X81711477Y-109695547D01*
X81711463Y-109695552D01*
X81481192Y-109790932D01*
X81481189Y-109790934D01*
X81265319Y-109915565D01*
X81265315Y-109915568D01*
X81067563Y-110067309D01*
X80891309Y-110243563D01*
X80739568Y-110441315D01*
X80739565Y-110441319D01*
X80614934Y-110657189D01*
X80614932Y-110657192D01*
X80519552Y-110887463D01*
X80519547Y-110887477D01*
X80455037Y-111128229D01*
X80455033Y-111128253D01*
X80422500Y-111375361D01*
X72225840Y-111375361D01*
X72265896Y-102428600D01*
X79717126Y-102428600D01*
X79736299Y-102509905D01*
X79736300Y-102509910D01*
X79832070Y-102741121D01*
X79963683Y-102953965D01*
X79963684Y-102953966D01*
X80073067Y-103081257D01*
X80073073Y-103081263D01*
X80354526Y-103362715D01*
X80426067Y-103462913D01*
X80461197Y-103580911D01*
X80458671Y-103674140D01*
X80459781Y-103674229D01*
X80453700Y-103750085D01*
X80453700Y-104637122D01*
X80458311Y-104694650D01*
X80458311Y-104694652D01*
X80458312Y-104694655D01*
X80501835Y-104848122D01*
X80506946Y-104866142D01*
X80593813Y-105021785D01*
X80593816Y-105021788D01*
X80631225Y-105065719D01*
X80631232Y-105065726D01*
X80631238Y-105065733D01*
X80817358Y-105251853D01*
X81258464Y-105692960D01*
X81302411Y-105730383D01*
X81302412Y-105730384D01*
X81302414Y-105730385D01*
X81458060Y-105817254D01*
X81458059Y-105817254D01*
X81500377Y-105829255D01*
X81629544Y-105865887D01*
X81665509Y-105868770D01*
X81687085Y-105870500D01*
X81687088Y-105870500D01*
X82574122Y-105870500D01*
X82595695Y-105868770D01*
X82631655Y-105865888D01*
X82803140Y-105817255D01*
X82958786Y-105730386D01*
X83002733Y-105692962D01*
X83629958Y-105065738D01*
X83667385Y-105021786D01*
X83754254Y-104866140D01*
X83802887Y-104694656D01*
X83807499Y-104637122D01*
X83807500Y-104637114D01*
X83807500Y-103750077D01*
X83801420Y-103674230D01*
X83802804Y-103674119D01*
X83802787Y-103672771D01*
X83797999Y-103652638D01*
X83802001Y-103611591D01*
X83801472Y-103570355D01*
X83807939Y-103550696D01*
X83809948Y-103530102D01*
X83827059Y-103492583D01*
X83839949Y-103453406D01*
X83853687Y-103434199D01*
X83861036Y-103418086D01*
X83892635Y-103379747D01*
X83899680Y-103369898D01*
X84075220Y-103184685D01*
X85903700Y-103184685D01*
X85903700Y-104071722D01*
X85908311Y-104129250D01*
X85908311Y-104129252D01*
X85908312Y-104129255D01*
X85937794Y-104233212D01*
X85956946Y-104300742D01*
X86043813Y-104456385D01*
X86043816Y-104456388D01*
X86081225Y-104500319D01*
X86081232Y-104500326D01*
X86081238Y-104500333D01*
X86579332Y-104998428D01*
X86708464Y-105127560D01*
X86752411Y-105164983D01*
X86752412Y-105164984D01*
X86752414Y-105164985D01*
X86908060Y-105251854D01*
X86908059Y-105251854D01*
X86950377Y-105263855D01*
X87079544Y-105300487D01*
X87115509Y-105303370D01*
X87137085Y-105305100D01*
X87137088Y-105305100D01*
X88024122Y-105305100D01*
X88045695Y-105303370D01*
X88081655Y-105300488D01*
X88253140Y-105251855D01*
X88408786Y-105164986D01*
X88452733Y-105127562D01*
X89079958Y-104500338D01*
X89117385Y-104456386D01*
X89204254Y-104300740D01*
X89252887Y-104129256D01*
X89257499Y-104071722D01*
X89257500Y-104071714D01*
X89257500Y-103184685D01*
X98603700Y-103184685D01*
X98603700Y-104071722D01*
X98608311Y-104129250D01*
X98608311Y-104129252D01*
X98608312Y-104129255D01*
X98637794Y-104233212D01*
X98656946Y-104300742D01*
X98743813Y-104456385D01*
X98743816Y-104456388D01*
X98781225Y-104500319D01*
X98781232Y-104500326D01*
X98781238Y-104500333D01*
X99279332Y-104998428D01*
X99408464Y-105127560D01*
X99452411Y-105164983D01*
X99452412Y-105164984D01*
X99452414Y-105164985D01*
X99608060Y-105251854D01*
X99608059Y-105251854D01*
X99650377Y-105263855D01*
X99779544Y-105300487D01*
X99815509Y-105303370D01*
X99837085Y-105305100D01*
X99837088Y-105305100D01*
X100724122Y-105305100D01*
X100745695Y-105303370D01*
X100781655Y-105300488D01*
X100953140Y-105251855D01*
X101108786Y-105164986D01*
X101152733Y-105127562D01*
X101779958Y-104500338D01*
X101817385Y-104456386D01*
X101904254Y-104300740D01*
X101952887Y-104129256D01*
X101957499Y-104071722D01*
X101957500Y-104071714D01*
X101957500Y-103184677D01*
X101955194Y-103155913D01*
X101952888Y-103127145D01*
X101904255Y-102955660D01*
X101845499Y-102850386D01*
X101845499Y-102850384D01*
X101831639Y-102825552D01*
X101817386Y-102800014D01*
X101805267Y-102785782D01*
X101779974Y-102756080D01*
X101779967Y-102756073D01*
X101779962Y-102756067D01*
X101704249Y-102680354D01*
X166922900Y-102680354D01*
X166922900Y-102906845D01*
X166952460Y-103131374D01*
X166952464Y-103131393D01*
X167011074Y-103350128D01*
X167011081Y-103350149D01*
X167097744Y-103559375D01*
X167097746Y-103559378D01*
X167097748Y-103559382D01*
X167210988Y-103755518D01*
X167348859Y-103935196D01*
X167509004Y-104095341D01*
X167688682Y-104233212D01*
X167884818Y-104346452D01*
X167884821Y-104346453D01*
X167884824Y-104346455D01*
X168059865Y-104418958D01*
X168094057Y-104433121D01*
X168094067Y-104433123D01*
X168094071Y-104433125D01*
X168312806Y-104491735D01*
X168312814Y-104491736D01*
X168312819Y-104491738D01*
X168312822Y-104491738D01*
X168312825Y-104491739D01*
X168476322Y-104513263D01*
X168537361Y-104521300D01*
X168537367Y-104521300D01*
X168763833Y-104521300D01*
X168763839Y-104521300D01*
X168927342Y-104499774D01*
X168988374Y-104491739D01*
X168988374Y-104491738D01*
X168988381Y-104491738D01*
X168988389Y-104491735D01*
X168988393Y-104491735D01*
X169207128Y-104433125D01*
X169207127Y-104433125D01*
X169207143Y-104433121D01*
X169416382Y-104346452D01*
X169612518Y-104233212D01*
X169692924Y-104171514D01*
X169801602Y-104113665D01*
X169923176Y-104094238D01*
X170044471Y-104115338D01*
X170148275Y-104171513D01*
X170228682Y-104233212D01*
X170424818Y-104346452D01*
X170424821Y-104346453D01*
X170424824Y-104346455D01*
X170599865Y-104418958D01*
X170634057Y-104433121D01*
X170634067Y-104433123D01*
X170634071Y-104433125D01*
X170852806Y-104491735D01*
X170852814Y-104491736D01*
X170852819Y-104491738D01*
X170852822Y-104491738D01*
X170852825Y-104491739D01*
X171016322Y-104513263D01*
X171077361Y-104521300D01*
X171077367Y-104521300D01*
X171303833Y-104521300D01*
X171303839Y-104521300D01*
X171467342Y-104499774D01*
X171528374Y-104491739D01*
X171528374Y-104491738D01*
X171528381Y-104491738D01*
X171528389Y-104491735D01*
X171528393Y-104491735D01*
X171747128Y-104433125D01*
X171747127Y-104433125D01*
X171747143Y-104433121D01*
X171956382Y-104346452D01*
X172152518Y-104233212D01*
X172232924Y-104171514D01*
X172341602Y-104113665D01*
X172463176Y-104094238D01*
X172584471Y-104115338D01*
X172688275Y-104171513D01*
X172768682Y-104233212D01*
X172964818Y-104346452D01*
X172964821Y-104346453D01*
X172964824Y-104346455D01*
X173139865Y-104418958D01*
X173174057Y-104433121D01*
X173174067Y-104433123D01*
X173174071Y-104433125D01*
X173392806Y-104491735D01*
X173392814Y-104491736D01*
X173392819Y-104491738D01*
X173392822Y-104491738D01*
X173392825Y-104491739D01*
X173556322Y-104513263D01*
X173617361Y-104521300D01*
X173617367Y-104521300D01*
X173843833Y-104521300D01*
X173843839Y-104521300D01*
X174007342Y-104499774D01*
X174068374Y-104491739D01*
X174068374Y-104491738D01*
X174068381Y-104491738D01*
X174068389Y-104491735D01*
X174068393Y-104491735D01*
X174287128Y-104433125D01*
X174287127Y-104433125D01*
X174287143Y-104433121D01*
X174496382Y-104346452D01*
X174692518Y-104233212D01*
X174772924Y-104171514D01*
X174881602Y-104113665D01*
X175003176Y-104094238D01*
X175124471Y-104115338D01*
X175228275Y-104171513D01*
X175308682Y-104233212D01*
X175504818Y-104346452D01*
X175504821Y-104346453D01*
X175504824Y-104346455D01*
X175679865Y-104418958D01*
X175714057Y-104433121D01*
X175714067Y-104433123D01*
X175714071Y-104433125D01*
X175932806Y-104491735D01*
X175932814Y-104491736D01*
X175932819Y-104491738D01*
X175932822Y-104491738D01*
X175932825Y-104491739D01*
X176096322Y-104513263D01*
X176157361Y-104521300D01*
X176157367Y-104521300D01*
X176383833Y-104521300D01*
X176383839Y-104521300D01*
X176547342Y-104499774D01*
X176608374Y-104491739D01*
X176608374Y-104491738D01*
X176608381Y-104491738D01*
X176608389Y-104491735D01*
X176608393Y-104491735D01*
X176827128Y-104433125D01*
X176827127Y-104433125D01*
X176827143Y-104433121D01*
X177036382Y-104346452D01*
X177232518Y-104233212D01*
X177312924Y-104171514D01*
X177421602Y-104113665D01*
X177543176Y-104094238D01*
X177664471Y-104115338D01*
X177768275Y-104171513D01*
X177848682Y-104233212D01*
X178044818Y-104346452D01*
X178044821Y-104346453D01*
X178044824Y-104346455D01*
X178219865Y-104418958D01*
X178254057Y-104433121D01*
X178254067Y-104433123D01*
X178254071Y-104433125D01*
X178472806Y-104491735D01*
X178472814Y-104491736D01*
X178472819Y-104491738D01*
X178472822Y-104491738D01*
X178472825Y-104491739D01*
X178636322Y-104513263D01*
X178697361Y-104521300D01*
X178697367Y-104521300D01*
X178923833Y-104521300D01*
X178923839Y-104521300D01*
X179087342Y-104499774D01*
X179148374Y-104491739D01*
X179148374Y-104491738D01*
X179148381Y-104491738D01*
X179148389Y-104491735D01*
X179148393Y-104491735D01*
X179367128Y-104433125D01*
X179367127Y-104433125D01*
X179367143Y-104433121D01*
X179576382Y-104346452D01*
X179772518Y-104233212D01*
X179852924Y-104171514D01*
X179961602Y-104113665D01*
X180083176Y-104094238D01*
X180204471Y-104115338D01*
X180308275Y-104171513D01*
X180388682Y-104233212D01*
X180584818Y-104346452D01*
X180584821Y-104346453D01*
X180584824Y-104346455D01*
X180759865Y-104418958D01*
X180794057Y-104433121D01*
X180794067Y-104433123D01*
X180794071Y-104433125D01*
X181012806Y-104491735D01*
X181012814Y-104491736D01*
X181012819Y-104491738D01*
X181012822Y-104491738D01*
X181012825Y-104491739D01*
X181176322Y-104513263D01*
X181237361Y-104521300D01*
X181237367Y-104521300D01*
X181463833Y-104521300D01*
X181463839Y-104521300D01*
X181627342Y-104499774D01*
X181688374Y-104491739D01*
X181688374Y-104491738D01*
X181688381Y-104491738D01*
X181688389Y-104491735D01*
X181688393Y-104491735D01*
X181907128Y-104433125D01*
X181907127Y-104433125D01*
X181907143Y-104433121D01*
X182116382Y-104346452D01*
X182312518Y-104233212D01*
X182392924Y-104171514D01*
X182501602Y-104113665D01*
X182623176Y-104094238D01*
X182744471Y-104115338D01*
X182848275Y-104171513D01*
X182928682Y-104233212D01*
X183124818Y-104346452D01*
X183124821Y-104346453D01*
X183124824Y-104346455D01*
X183299865Y-104418958D01*
X183334057Y-104433121D01*
X183334067Y-104433123D01*
X183334071Y-104433125D01*
X183552806Y-104491735D01*
X183552814Y-104491736D01*
X183552819Y-104491738D01*
X183552822Y-104491738D01*
X183552825Y-104491739D01*
X183716322Y-104513263D01*
X183777361Y-104521300D01*
X183777367Y-104521300D01*
X184003833Y-104521300D01*
X184003839Y-104521300D01*
X184167342Y-104499774D01*
X184228374Y-104491739D01*
X184228374Y-104491738D01*
X184228381Y-104491738D01*
X184228389Y-104491735D01*
X184228393Y-104491735D01*
X184447128Y-104433125D01*
X184447127Y-104433125D01*
X184447143Y-104433121D01*
X184656382Y-104346452D01*
X184852518Y-104233212D01*
X184932924Y-104171514D01*
X185041602Y-104113665D01*
X185163176Y-104094238D01*
X185284471Y-104115338D01*
X185388275Y-104171513D01*
X185468682Y-104233212D01*
X185664818Y-104346452D01*
X185664821Y-104346453D01*
X185664824Y-104346455D01*
X185839865Y-104418958D01*
X185874057Y-104433121D01*
X185874067Y-104433123D01*
X185874071Y-104433125D01*
X186092806Y-104491735D01*
X186092814Y-104491736D01*
X186092819Y-104491738D01*
X186092822Y-104491738D01*
X186092825Y-104491739D01*
X186256322Y-104513263D01*
X186317361Y-104521300D01*
X186317367Y-104521300D01*
X186543833Y-104521300D01*
X186543839Y-104521300D01*
X186707342Y-104499774D01*
X186768374Y-104491739D01*
X186768374Y-104491738D01*
X186768381Y-104491738D01*
X186768389Y-104491735D01*
X186768393Y-104491735D01*
X186987128Y-104433125D01*
X186987127Y-104433125D01*
X186987143Y-104433121D01*
X187196382Y-104346452D01*
X187392518Y-104233212D01*
X187472924Y-104171514D01*
X187581602Y-104113665D01*
X187703176Y-104094238D01*
X187824471Y-104115338D01*
X187928275Y-104171513D01*
X188008682Y-104233212D01*
X188204818Y-104346452D01*
X188204821Y-104346453D01*
X188204824Y-104346455D01*
X188379865Y-104418958D01*
X188414057Y-104433121D01*
X188414067Y-104433123D01*
X188414071Y-104433125D01*
X188632806Y-104491735D01*
X188632814Y-104491736D01*
X188632819Y-104491738D01*
X188632822Y-104491738D01*
X188632825Y-104491739D01*
X188796322Y-104513263D01*
X188857361Y-104521300D01*
X188857367Y-104521300D01*
X189083833Y-104521300D01*
X189083839Y-104521300D01*
X189247342Y-104499774D01*
X189308374Y-104491739D01*
X189308374Y-104491738D01*
X189308381Y-104491738D01*
X189308389Y-104491735D01*
X189308393Y-104491735D01*
X189527128Y-104433125D01*
X189527127Y-104433125D01*
X189527143Y-104433121D01*
X189736382Y-104346452D01*
X189932518Y-104233212D01*
X190012924Y-104171514D01*
X190121602Y-104113665D01*
X190243176Y-104094238D01*
X190364471Y-104115338D01*
X190468275Y-104171513D01*
X190548682Y-104233212D01*
X190744818Y-104346452D01*
X190744821Y-104346453D01*
X190744824Y-104346455D01*
X190919865Y-104418958D01*
X190954057Y-104433121D01*
X190954067Y-104433123D01*
X190954071Y-104433125D01*
X191172806Y-104491735D01*
X191172814Y-104491736D01*
X191172819Y-104491738D01*
X191172822Y-104491738D01*
X191172825Y-104491739D01*
X191336322Y-104513263D01*
X191397361Y-104521300D01*
X191397367Y-104521300D01*
X191623833Y-104521300D01*
X191623839Y-104521300D01*
X191787342Y-104499774D01*
X191848374Y-104491739D01*
X191848374Y-104491738D01*
X191848381Y-104491738D01*
X191848389Y-104491735D01*
X191848393Y-104491735D01*
X192067128Y-104433125D01*
X192067127Y-104433125D01*
X192067143Y-104433121D01*
X192276382Y-104346452D01*
X192472518Y-104233212D01*
X192552924Y-104171514D01*
X192661602Y-104113665D01*
X192783176Y-104094238D01*
X192904471Y-104115338D01*
X193008275Y-104171513D01*
X193088682Y-104233212D01*
X193284818Y-104346452D01*
X193284821Y-104346453D01*
X193284824Y-104346455D01*
X193459865Y-104418958D01*
X193494057Y-104433121D01*
X193494067Y-104433123D01*
X193494071Y-104433125D01*
X193712806Y-104491735D01*
X193712814Y-104491736D01*
X193712819Y-104491738D01*
X193712822Y-104491738D01*
X193712825Y-104491739D01*
X193876322Y-104513263D01*
X193937361Y-104521300D01*
X193937367Y-104521300D01*
X194163833Y-104521300D01*
X194163839Y-104521300D01*
X194327342Y-104499774D01*
X194388374Y-104491739D01*
X194388374Y-104491738D01*
X194388381Y-104491738D01*
X194388389Y-104491735D01*
X194388393Y-104491735D01*
X194607128Y-104433125D01*
X194607127Y-104433125D01*
X194607143Y-104433121D01*
X194816382Y-104346452D01*
X195012518Y-104233212D01*
X195092924Y-104171514D01*
X195201602Y-104113665D01*
X195323176Y-104094238D01*
X195444471Y-104115338D01*
X195548275Y-104171513D01*
X195628682Y-104233212D01*
X195824818Y-104346452D01*
X195824821Y-104346453D01*
X195824824Y-104346455D01*
X195999865Y-104418958D01*
X196034057Y-104433121D01*
X196034067Y-104433123D01*
X196034071Y-104433125D01*
X196252806Y-104491735D01*
X196252814Y-104491736D01*
X196252819Y-104491738D01*
X196252822Y-104491738D01*
X196252825Y-104491739D01*
X196416322Y-104513263D01*
X196477361Y-104521300D01*
X196477367Y-104521300D01*
X196703833Y-104521300D01*
X196703839Y-104521300D01*
X196867342Y-104499774D01*
X196928374Y-104491739D01*
X196928374Y-104491738D01*
X196928381Y-104491738D01*
X196928389Y-104491735D01*
X196928393Y-104491735D01*
X197147128Y-104433125D01*
X197147127Y-104433125D01*
X197147143Y-104433121D01*
X197356382Y-104346452D01*
X197552518Y-104233212D01*
X197632924Y-104171514D01*
X197741602Y-104113665D01*
X197863176Y-104094238D01*
X197984471Y-104115338D01*
X198088275Y-104171513D01*
X198168682Y-104233212D01*
X198364818Y-104346452D01*
X198364821Y-104346453D01*
X198364824Y-104346455D01*
X198539865Y-104418958D01*
X198574057Y-104433121D01*
X198574067Y-104433123D01*
X198574071Y-104433125D01*
X198792806Y-104491735D01*
X198792814Y-104491736D01*
X198792819Y-104491738D01*
X198792822Y-104491738D01*
X198792825Y-104491739D01*
X198956322Y-104513263D01*
X199017361Y-104521300D01*
X199017367Y-104521300D01*
X199243833Y-104521300D01*
X199243839Y-104521300D01*
X199407342Y-104499774D01*
X199468374Y-104491739D01*
X199468375Y-104491738D01*
X199468381Y-104491738D01*
X199530583Y-104475070D01*
X199653126Y-104463214D01*
X199772881Y-104491790D01*
X199876868Y-104557701D01*
X199891839Y-104571869D01*
X199991966Y-104671996D01*
X200212821Y-104848122D01*
X200212836Y-104848132D01*
X200452030Y-104998428D01*
X200706559Y-105121003D01*
X200895600Y-105187150D01*
X200895600Y-105187149D01*
X202445600Y-105187149D01*
X202634640Y-105121003D01*
X202889169Y-104998428D01*
X203128363Y-104848132D01*
X203128378Y-104848122D01*
X203349233Y-104671996D01*
X203449359Y-104571870D01*
X203549557Y-104500330D01*
X203667555Y-104465199D01*
X203790567Y-104470287D01*
X203810616Y-104475071D01*
X203872811Y-104491736D01*
X203872813Y-104491736D01*
X203872819Y-104491738D01*
X203872822Y-104491738D01*
X203872825Y-104491739D01*
X204036322Y-104513263D01*
X204097361Y-104521300D01*
X204097367Y-104521300D01*
X204323833Y-104521300D01*
X204323839Y-104521300D01*
X204487342Y-104499774D01*
X204548374Y-104491739D01*
X204548374Y-104491738D01*
X204548381Y-104491738D01*
X204548389Y-104491735D01*
X204548393Y-104491735D01*
X204767128Y-104433125D01*
X204767127Y-104433125D01*
X204767143Y-104433121D01*
X204976382Y-104346452D01*
X205172518Y-104233212D01*
X205352196Y-104095341D01*
X205512341Y-103935196D01*
X205650212Y-103755518D01*
X205763452Y-103559382D01*
X205850121Y-103350143D01*
X205892040Y-103193699D01*
X205908735Y-103131393D01*
X205908739Y-103131374D01*
X205931872Y-102955660D01*
X205938300Y-102906839D01*
X205938300Y-102680361D01*
X205917361Y-102521313D01*
X205908739Y-102455825D01*
X205908735Y-102455806D01*
X205850125Y-102237071D01*
X205850123Y-102237067D01*
X205850121Y-102237057D01*
X205789794Y-102091413D01*
X205763455Y-102027824D01*
X205763453Y-102027821D01*
X205763452Y-102027818D01*
X205650212Y-101831682D01*
X205512341Y-101652004D01*
X205352196Y-101491859D01*
X205172518Y-101353988D01*
X204976382Y-101240748D01*
X204976380Y-101240747D01*
X204976378Y-101240746D01*
X204976375Y-101240744D01*
X204767149Y-101154081D01*
X204767128Y-101154074D01*
X204548393Y-101095464D01*
X204548374Y-101095460D01*
X204323845Y-101065900D01*
X204323839Y-101065900D01*
X204097361Y-101065900D01*
X204097354Y-101065900D01*
X203872825Y-101095460D01*
X203872807Y-101095464D01*
X203810612Y-101112129D01*
X203688067Y-101123984D01*
X203568313Y-101095407D01*
X203464326Y-101029494D01*
X203449360Y-101015330D01*
X203349233Y-100915203D01*
X203128378Y-100739077D01*
X203128363Y-100739067D01*
X202889169Y-100588771D01*
X202634649Y-100466200D01*
X202634648Y-100466199D01*
X202445600Y-100400048D01*
X202445600Y-105187149D01*
X200895600Y-105187149D01*
X200895600Y-102727774D01*
X201170600Y-102727774D01*
X201170600Y-102859426D01*
X201204675Y-102986593D01*
X201270501Y-103100607D01*
X201363593Y-103193699D01*
X201477607Y-103259525D01*
X201604774Y-103293600D01*
X201736426Y-103293600D01*
X201863593Y-103259525D01*
X201977607Y-103193699D01*
X202070699Y-103100607D01*
X202136525Y-102986593D01*
X202170600Y-102859426D01*
X202170600Y-102727774D01*
X202136525Y-102600607D01*
X202070699Y-102486593D01*
X201977607Y-102393501D01*
X201863593Y-102327675D01*
X201736426Y-102293600D01*
X201604774Y-102293600D01*
X201477607Y-102327675D01*
X201363593Y-102393501D01*
X201270501Y-102486593D01*
X201204675Y-102600607D01*
X201170600Y-102727774D01*
X200895600Y-102727774D01*
X200895600Y-100400048D01*
X200706551Y-100466199D01*
X200706550Y-100466200D01*
X200452030Y-100588771D01*
X200212836Y-100739067D01*
X200212821Y-100739077D01*
X199991966Y-100915203D01*
X199891838Y-101015331D01*
X199791639Y-101086871D01*
X199673640Y-101122000D01*
X199550629Y-101116912D01*
X199530586Y-101112129D01*
X199468387Y-101095463D01*
X199468374Y-101095460D01*
X199243845Y-101065900D01*
X199243839Y-101065900D01*
X199017361Y-101065900D01*
X199017354Y-101065900D01*
X198792825Y-101095460D01*
X198792806Y-101095464D01*
X198574071Y-101154074D01*
X198574050Y-101154081D01*
X198364824Y-101240744D01*
X198364821Y-101240746D01*
X198168684Y-101353987D01*
X198168668Y-101353997D01*
X198088275Y-101415685D01*
X197979596Y-101473535D01*
X197858021Y-101492961D01*
X197736726Y-101471860D01*
X197632925Y-101415685D01*
X197552531Y-101353997D01*
X197552524Y-101353992D01*
X197552518Y-101353988D01*
X197356382Y-101240748D01*
X197356380Y-101240747D01*
X197356378Y-101240746D01*
X197356375Y-101240744D01*
X197147149Y-101154081D01*
X197147128Y-101154074D01*
X196928393Y-101095464D01*
X196928374Y-101095460D01*
X196703845Y-101065900D01*
X196703839Y-101065900D01*
X196477361Y-101065900D01*
X196477354Y-101065900D01*
X196252825Y-101095460D01*
X196252806Y-101095464D01*
X196034071Y-101154074D01*
X196034050Y-101154081D01*
X195824824Y-101240744D01*
X195824821Y-101240746D01*
X195628684Y-101353987D01*
X195628668Y-101353997D01*
X195548275Y-101415685D01*
X195439596Y-101473535D01*
X195318021Y-101492961D01*
X195196726Y-101471860D01*
X195092925Y-101415685D01*
X195012531Y-101353997D01*
X195012524Y-101353992D01*
X195012518Y-101353988D01*
X194816382Y-101240748D01*
X194816380Y-101240747D01*
X194816378Y-101240746D01*
X194816375Y-101240744D01*
X194607149Y-101154081D01*
X194607128Y-101154074D01*
X194388393Y-101095464D01*
X194388374Y-101095460D01*
X194163845Y-101065900D01*
X194163839Y-101065900D01*
X193937361Y-101065900D01*
X193937354Y-101065900D01*
X193712825Y-101095460D01*
X193712806Y-101095464D01*
X193494071Y-101154074D01*
X193494050Y-101154081D01*
X193284824Y-101240744D01*
X193284821Y-101240746D01*
X193088684Y-101353987D01*
X193088668Y-101353997D01*
X193008275Y-101415685D01*
X192899596Y-101473535D01*
X192778021Y-101492961D01*
X192656726Y-101471860D01*
X192552925Y-101415685D01*
X192472531Y-101353997D01*
X192472524Y-101353992D01*
X192472518Y-101353988D01*
X192276382Y-101240748D01*
X192276380Y-101240747D01*
X192276378Y-101240746D01*
X192276375Y-101240744D01*
X192067149Y-101154081D01*
X192067128Y-101154074D01*
X191848393Y-101095464D01*
X191848374Y-101095460D01*
X191623845Y-101065900D01*
X191623839Y-101065900D01*
X191397361Y-101065900D01*
X191397354Y-101065900D01*
X191172825Y-101095460D01*
X191172806Y-101095464D01*
X190954071Y-101154074D01*
X190954050Y-101154081D01*
X190744824Y-101240744D01*
X190744821Y-101240746D01*
X190548684Y-101353987D01*
X190548668Y-101353997D01*
X190468275Y-101415685D01*
X190359596Y-101473535D01*
X190238021Y-101492961D01*
X190116726Y-101471860D01*
X190012925Y-101415685D01*
X189932531Y-101353997D01*
X189932524Y-101353992D01*
X189932518Y-101353988D01*
X189736382Y-101240748D01*
X189736380Y-101240747D01*
X189736378Y-101240746D01*
X189736375Y-101240744D01*
X189527149Y-101154081D01*
X189527128Y-101154074D01*
X189308393Y-101095464D01*
X189308374Y-101095460D01*
X189083845Y-101065900D01*
X189083839Y-101065900D01*
X188857361Y-101065900D01*
X188857354Y-101065900D01*
X188632825Y-101095460D01*
X188632806Y-101095464D01*
X188414071Y-101154074D01*
X188414050Y-101154081D01*
X188204824Y-101240744D01*
X188204821Y-101240746D01*
X188008684Y-101353987D01*
X188008668Y-101353997D01*
X187928275Y-101415685D01*
X187819596Y-101473535D01*
X187698021Y-101492961D01*
X187576726Y-101471860D01*
X187472925Y-101415685D01*
X187392531Y-101353997D01*
X187392524Y-101353992D01*
X187392518Y-101353988D01*
X187196382Y-101240748D01*
X187196380Y-101240747D01*
X187196378Y-101240746D01*
X187196375Y-101240744D01*
X186987149Y-101154081D01*
X186987128Y-101154074D01*
X186768393Y-101095464D01*
X186768374Y-101095460D01*
X186543845Y-101065900D01*
X186543839Y-101065900D01*
X186317361Y-101065900D01*
X186317354Y-101065900D01*
X186092825Y-101095460D01*
X186092806Y-101095464D01*
X185874071Y-101154074D01*
X185874050Y-101154081D01*
X185664824Y-101240744D01*
X185664821Y-101240746D01*
X185468684Y-101353987D01*
X185468668Y-101353997D01*
X185388275Y-101415685D01*
X185279596Y-101473535D01*
X185158021Y-101492961D01*
X185036726Y-101471860D01*
X184932925Y-101415685D01*
X184852531Y-101353997D01*
X184852524Y-101353992D01*
X184852518Y-101353988D01*
X184656382Y-101240748D01*
X184656380Y-101240747D01*
X184656378Y-101240746D01*
X184656375Y-101240744D01*
X184447149Y-101154081D01*
X184447128Y-101154074D01*
X184228393Y-101095464D01*
X184228374Y-101095460D01*
X184003845Y-101065900D01*
X184003839Y-101065900D01*
X183777361Y-101065900D01*
X183777354Y-101065900D01*
X183552825Y-101095460D01*
X183552806Y-101095464D01*
X183334071Y-101154074D01*
X183334050Y-101154081D01*
X183124824Y-101240744D01*
X183124821Y-101240746D01*
X182928684Y-101353987D01*
X182928668Y-101353997D01*
X182848275Y-101415685D01*
X182739596Y-101473535D01*
X182618021Y-101492961D01*
X182496726Y-101471860D01*
X182392925Y-101415685D01*
X182312531Y-101353997D01*
X182312524Y-101353992D01*
X182312518Y-101353988D01*
X182116382Y-101240748D01*
X182116380Y-101240747D01*
X182116378Y-101240746D01*
X182116375Y-101240744D01*
X181907149Y-101154081D01*
X181907128Y-101154074D01*
X181688393Y-101095464D01*
X181688374Y-101095460D01*
X181463845Y-101065900D01*
X181463839Y-101065900D01*
X181237361Y-101065900D01*
X181237354Y-101065900D01*
X181012825Y-101095460D01*
X181012806Y-101095464D01*
X180794071Y-101154074D01*
X180794050Y-101154081D01*
X180584824Y-101240744D01*
X180584821Y-101240746D01*
X180388684Y-101353987D01*
X180388668Y-101353997D01*
X180308275Y-101415685D01*
X180199596Y-101473535D01*
X180078021Y-101492961D01*
X179956726Y-101471860D01*
X179852925Y-101415685D01*
X179772531Y-101353997D01*
X179772524Y-101353992D01*
X179772518Y-101353988D01*
X179576382Y-101240748D01*
X179576380Y-101240747D01*
X179576378Y-101240746D01*
X179576375Y-101240744D01*
X179367149Y-101154081D01*
X179367128Y-101154074D01*
X179148393Y-101095464D01*
X179148374Y-101095460D01*
X178923845Y-101065900D01*
X178923839Y-101065900D01*
X178697361Y-101065900D01*
X178697354Y-101065900D01*
X178472825Y-101095460D01*
X178472806Y-101095464D01*
X178254071Y-101154074D01*
X178254050Y-101154081D01*
X178044824Y-101240744D01*
X178044821Y-101240746D01*
X177848684Y-101353987D01*
X177848668Y-101353997D01*
X177768275Y-101415685D01*
X177659596Y-101473535D01*
X177538021Y-101492961D01*
X177416726Y-101471860D01*
X177312925Y-101415685D01*
X177232531Y-101353997D01*
X177232524Y-101353992D01*
X177232518Y-101353988D01*
X177036382Y-101240748D01*
X177036380Y-101240747D01*
X177036378Y-101240746D01*
X177036375Y-101240744D01*
X176827149Y-101154081D01*
X176827128Y-101154074D01*
X176608393Y-101095464D01*
X176608374Y-101095460D01*
X176383845Y-101065900D01*
X176383839Y-101065900D01*
X176157361Y-101065900D01*
X176157354Y-101065900D01*
X175932825Y-101095460D01*
X175932806Y-101095464D01*
X175714071Y-101154074D01*
X175714050Y-101154081D01*
X175504824Y-101240744D01*
X175504821Y-101240746D01*
X175308684Y-101353987D01*
X175308668Y-101353997D01*
X175228275Y-101415685D01*
X175119596Y-101473535D01*
X174998021Y-101492961D01*
X174876726Y-101471860D01*
X174772925Y-101415685D01*
X174692531Y-101353997D01*
X174692524Y-101353992D01*
X174692518Y-101353988D01*
X174496382Y-101240748D01*
X174496380Y-101240747D01*
X174496378Y-101240746D01*
X174496375Y-101240744D01*
X174287149Y-101154081D01*
X174287128Y-101154074D01*
X174068393Y-101095464D01*
X174068374Y-101095460D01*
X173843845Y-101065900D01*
X173843839Y-101065900D01*
X173617361Y-101065900D01*
X173617354Y-101065900D01*
X173392825Y-101095460D01*
X173392806Y-101095464D01*
X173174071Y-101154074D01*
X173174050Y-101154081D01*
X172964824Y-101240744D01*
X172964821Y-101240746D01*
X172768684Y-101353987D01*
X172768668Y-101353997D01*
X172688275Y-101415685D01*
X172579596Y-101473535D01*
X172458021Y-101492961D01*
X172336726Y-101471860D01*
X172232925Y-101415685D01*
X172152531Y-101353997D01*
X172152524Y-101353992D01*
X172152518Y-101353988D01*
X171956382Y-101240748D01*
X171956380Y-101240747D01*
X171956378Y-101240746D01*
X171956375Y-101240744D01*
X171747149Y-101154081D01*
X171747128Y-101154074D01*
X171528393Y-101095464D01*
X171528374Y-101095460D01*
X171303845Y-101065900D01*
X171303839Y-101065900D01*
X171077361Y-101065900D01*
X171077354Y-101065900D01*
X170852825Y-101095460D01*
X170852806Y-101095464D01*
X170634071Y-101154074D01*
X170634050Y-101154081D01*
X170424824Y-101240744D01*
X170424821Y-101240746D01*
X170228684Y-101353987D01*
X170228668Y-101353997D01*
X170148275Y-101415685D01*
X170039596Y-101473535D01*
X169918021Y-101492961D01*
X169796726Y-101471860D01*
X169692925Y-101415685D01*
X169612531Y-101353997D01*
X169612524Y-101353992D01*
X169612518Y-101353988D01*
X169416382Y-101240748D01*
X169416380Y-101240747D01*
X169416378Y-101240746D01*
X169416375Y-101240744D01*
X169207149Y-101154081D01*
X169207128Y-101154074D01*
X168988393Y-101095464D01*
X168988374Y-101095460D01*
X168763845Y-101065900D01*
X168763839Y-101065900D01*
X168537361Y-101065900D01*
X168537354Y-101065900D01*
X168312825Y-101095460D01*
X168312806Y-101095464D01*
X168094071Y-101154074D01*
X168094050Y-101154081D01*
X167884824Y-101240744D01*
X167884821Y-101240746D01*
X167688684Y-101353987D01*
X167688677Y-101353991D01*
X167509003Y-101491859D01*
X167348859Y-101652003D01*
X167210991Y-101831677D01*
X167210987Y-101831684D01*
X167097746Y-102027821D01*
X167097744Y-102027824D01*
X167011081Y-102237050D01*
X167011074Y-102237071D01*
X166952464Y-102455806D01*
X166952460Y-102455825D01*
X166922900Y-102680354D01*
X101704249Y-102680354D01*
X101152738Y-102128842D01*
X101152737Y-102128841D01*
X101152735Y-102128839D01*
X101108788Y-102091416D01*
X100953139Y-102004545D01*
X100953140Y-102004545D01*
X100803921Y-101962227D01*
X100781656Y-101955913D01*
X100781653Y-101955912D01*
X100781650Y-101955912D01*
X100724115Y-101951300D01*
X100724112Y-101951300D01*
X99837081Y-101951300D01*
X99837077Y-101951300D01*
X99779549Y-101955911D01*
X99779545Y-101955911D01*
X99779545Y-101955912D01*
X99608060Y-102004545D01*
X99608059Y-102004545D01*
X99608057Y-102004546D01*
X99452414Y-102091413D01*
X99452411Y-102091416D01*
X99408480Y-102128825D01*
X99408473Y-102128832D01*
X98781239Y-102756064D01*
X98743816Y-102800011D01*
X98656945Y-102955659D01*
X98608314Y-103127140D01*
X98608312Y-103127149D01*
X98603700Y-103184685D01*
X89257500Y-103184685D01*
X89257500Y-103184677D01*
X89255194Y-103155913D01*
X89252888Y-103127145D01*
X89204255Y-102955660D01*
X89117386Y-102800014D01*
X89105267Y-102785782D01*
X89079974Y-102756080D01*
X89079967Y-102756073D01*
X89079962Y-102756067D01*
X88452738Y-102128842D01*
X88452737Y-102128841D01*
X88452735Y-102128839D01*
X88408788Y-102091416D01*
X88253139Y-102004545D01*
X88253140Y-102004545D01*
X88103921Y-101962227D01*
X88081656Y-101955913D01*
X88081653Y-101955912D01*
X88081650Y-101955912D01*
X88024115Y-101951300D01*
X88024112Y-101951300D01*
X87137081Y-101951300D01*
X87137077Y-101951300D01*
X87079549Y-101955911D01*
X87079545Y-101955911D01*
X87079545Y-101955912D01*
X86908060Y-102004545D01*
X86908059Y-102004545D01*
X86908057Y-102004546D01*
X86752414Y-102091413D01*
X86752411Y-102091416D01*
X86708480Y-102128825D01*
X86708473Y-102128832D01*
X86081239Y-102756064D01*
X86043816Y-102800011D01*
X85956945Y-102955659D01*
X85908314Y-103127140D01*
X85908312Y-103127149D01*
X85903700Y-103184685D01*
X84075220Y-103184685D01*
X84304322Y-102942958D01*
X84429127Y-102741124D01*
X84524896Y-102509917D01*
X84524899Y-102509906D01*
X84544073Y-102428601D01*
X84544072Y-102428600D01*
X79717126Y-102428600D01*
X72265896Y-102428600D01*
X72269606Y-101600096D01*
X81724200Y-101600096D01*
X81724200Y-101707104D01*
X81751895Y-101810465D01*
X81805399Y-101903136D01*
X81881064Y-101978801D01*
X81973735Y-102032305D01*
X82077096Y-102060000D01*
X82184104Y-102060000D01*
X82287465Y-102032305D01*
X82380136Y-101978801D01*
X82455801Y-101903136D01*
X82509305Y-101810465D01*
X82537000Y-101707104D01*
X82537000Y-101600096D01*
X82509305Y-101496735D01*
X82455801Y-101404064D01*
X82380136Y-101328399D01*
X82287465Y-101274895D01*
X82184104Y-101247200D01*
X82077096Y-101247200D01*
X81973735Y-101274895D01*
X81881064Y-101328399D01*
X81805399Y-101404064D01*
X81751895Y-101496735D01*
X81724200Y-101600096D01*
X72269606Y-101600096D01*
X72272836Y-100878598D01*
X79717126Y-100878598D01*
X79717128Y-100878600D01*
X81355600Y-100878600D01*
X82905600Y-100878600D01*
X84544074Y-100878600D01*
X84524900Y-100797294D01*
X84524899Y-100797289D01*
X84429129Y-100566078D01*
X84297516Y-100353234D01*
X84297515Y-100353233D01*
X84188135Y-100225946D01*
X83558239Y-99596052D01*
X83430976Y-99486691D01*
X83430966Y-99486684D01*
X83218126Y-99355073D01*
X82986912Y-99259301D01*
X82905600Y-99240125D01*
X82905600Y-100878600D01*
X81355600Y-100878600D01*
X81355600Y-99240125D01*
X81355599Y-99240124D01*
X81274293Y-99259299D01*
X81274281Y-99259303D01*
X81043081Y-99355068D01*
X80830234Y-99486683D01*
X80830233Y-99486684D01*
X80702946Y-99596064D01*
X80073052Y-100225960D01*
X79963691Y-100353223D01*
X79963684Y-100353233D01*
X79832072Y-100566075D01*
X79736303Y-100797282D01*
X79736300Y-100797293D01*
X79717126Y-100878598D01*
X72272836Y-100878598D01*
X72335726Y-86831800D01*
X101833758Y-86831800D01*
X101919059Y-87075574D01*
X101919063Y-87075584D01*
X102048590Y-87344550D01*
X102207421Y-87597328D01*
X102207432Y-87597343D01*
X102393557Y-87830737D01*
X102441058Y-87878238D01*
X102512598Y-87978436D01*
X102547728Y-88096435D01*
X102542640Y-88219447D01*
X102541336Y-88224911D01*
X102540104Y-88231102D01*
X102508100Y-88474195D01*
X102508100Y-88719404D01*
X102540104Y-88962492D01*
X102540105Y-88962499D01*
X102603567Y-89199342D01*
X102643648Y-89296106D01*
X102682784Y-89390591D01*
X102697400Y-89425876D01*
X102762333Y-89538343D01*
X102820000Y-89638226D01*
X102820007Y-89638236D01*
X102820700Y-89639139D01*
X102821050Y-89639796D01*
X102826800Y-89648402D01*
X102825936Y-89648978D01*
X102878544Y-89747821D01*
X102897965Y-89869396D01*
X102876858Y-89990690D01*
X102826001Y-90084664D01*
X102826800Y-90085198D01*
X102821081Y-90093756D01*
X102820700Y-90094461D01*
X102820007Y-90095363D01*
X102820000Y-90095373D01*
X102697398Y-90307727D01*
X102603567Y-90534258D01*
X102603565Y-90534264D01*
X102540106Y-90771097D01*
X102540104Y-90771107D01*
X102508100Y-91014195D01*
X102508100Y-91259404D01*
X102540104Y-91502492D01*
X102540105Y-91502499D01*
X102542876Y-91512840D01*
X102603565Y-91739335D01*
X102603567Y-91739341D01*
X102697398Y-91965872D01*
X102820000Y-92178226D01*
X102820007Y-92178236D01*
X102820700Y-92179139D01*
X102821050Y-92179796D01*
X102826800Y-92188402D01*
X102825936Y-92188978D01*
X102878544Y-92287821D01*
X102897965Y-92409396D01*
X102876858Y-92530690D01*
X102826001Y-92624664D01*
X102826800Y-92625198D01*
X102821081Y-92633756D01*
X102820700Y-92634461D01*
X102820007Y-92635363D01*
X102820000Y-92635373D01*
X102697398Y-92847727D01*
X102603567Y-93074258D01*
X102603565Y-93074264D01*
X102540106Y-93311097D01*
X102540104Y-93311107D01*
X102508100Y-93554195D01*
X102508100Y-93799404D01*
X102539247Y-94035979D01*
X102540105Y-94042499D01*
X102603567Y-94279342D01*
X102614229Y-94305082D01*
X102689422Y-94486617D01*
X102697400Y-94505876D01*
X102746452Y-94590836D01*
X102820000Y-94718226D01*
X102820007Y-94718236D01*
X102820700Y-94719139D01*
X102821050Y-94719796D01*
X102826800Y-94728402D01*
X102825936Y-94728978D01*
X102878544Y-94827821D01*
X102897965Y-94949396D01*
X102876858Y-95070690D01*
X102826001Y-95164664D01*
X102826800Y-95165198D01*
X102821081Y-95173756D01*
X102820700Y-95174461D01*
X102820007Y-95175363D01*
X102820000Y-95175373D01*
X102697398Y-95387727D01*
X102603567Y-95614258D01*
X102603565Y-95614264D01*
X102540106Y-95851097D01*
X102540104Y-95851107D01*
X102508100Y-96094195D01*
X102508100Y-96339404D01*
X102540104Y-96582492D01*
X102540106Y-96582502D01*
X102603565Y-96819335D01*
X102603567Y-96819341D01*
X102697398Y-97045872D01*
X102820000Y-97258226D01*
X102820007Y-97258236D01*
X102820700Y-97259139D01*
X102821050Y-97259796D01*
X102826800Y-97268402D01*
X102825936Y-97268978D01*
X102878544Y-97367821D01*
X102897965Y-97489396D01*
X102876858Y-97610690D01*
X102826001Y-97704664D01*
X102826800Y-97705198D01*
X102821081Y-97713756D01*
X102820700Y-97714461D01*
X102820007Y-97715363D01*
X102820000Y-97715373D01*
X102697398Y-97927727D01*
X102603567Y-98154258D01*
X102603565Y-98154264D01*
X102540106Y-98391097D01*
X102540104Y-98391107D01*
X102508100Y-98634195D01*
X102508100Y-98879404D01*
X102540104Y-99122492D01*
X102540106Y-99122502D01*
X102603565Y-99359335D01*
X102603567Y-99359341D01*
X102697398Y-99585872D01*
X102820000Y-99798226D01*
X102969266Y-99992751D01*
X102969267Y-99992752D01*
X103142648Y-100166133D01*
X103337176Y-100315401D01*
X103549524Y-100438000D01*
X103776058Y-100531833D01*
X104012901Y-100595295D01*
X104256001Y-100627300D01*
X104256009Y-100627300D01*
X104501191Y-100627300D01*
X104501199Y-100627300D01*
X104744299Y-100595295D01*
X104981142Y-100531833D01*
X105207676Y-100438000D01*
X105420024Y-100315401D01*
X105614552Y-100166133D01*
X105787933Y-99992752D01*
X105937201Y-99798224D01*
X106059800Y-99585876D01*
X106153633Y-99359342D01*
X106217095Y-99122499D01*
X106249100Y-98879399D01*
X106249100Y-98634201D01*
X106217095Y-98391101D01*
X106153633Y-98154258D01*
X106059800Y-97927724D01*
X105937201Y-97715376D01*
X105936513Y-97714479D01*
X105936166Y-97713827D01*
X105930400Y-97705198D01*
X105931264Y-97704620D01*
X105878662Y-97605800D01*
X105859234Y-97484226D01*
X105880333Y-97362931D01*
X105931200Y-97268937D01*
X105930400Y-97268402D01*
X105936136Y-97259817D01*
X105936513Y-97259121D01*
X105936679Y-97258903D01*
X105937201Y-97258224D01*
X106059800Y-97045876D01*
X106153633Y-96819342D01*
X106217095Y-96582499D01*
X106249100Y-96339399D01*
X106249100Y-96094201D01*
X106237254Y-96004219D01*
X177109300Y-96004219D01*
X177109300Y-96242980D01*
X177121995Y-96339404D01*
X177140463Y-96479680D01*
X177202256Y-96710294D01*
X177202259Y-96710301D01*
X177293617Y-96930861D01*
X177293619Y-96930865D01*
X177293621Y-96930869D01*
X177412995Y-97137631D01*
X177412997Y-97137633D01*
X177506735Y-97259796D01*
X177558336Y-97327043D01*
X177727157Y-97495864D01*
X177916569Y-97641205D01*
X178123331Y-97760579D01*
X178343906Y-97851944D01*
X178574520Y-97913737D01*
X178811226Y-97944900D01*
X178811234Y-97944900D01*
X179049966Y-97944900D01*
X179049974Y-97944900D01*
X179286680Y-97913737D01*
X179517294Y-97851944D01*
X179737869Y-97760579D01*
X179866688Y-97686205D01*
X179981987Y-97643037D01*
X180053686Y-97636100D01*
X182607514Y-97636100D01*
X182728952Y-97656364D01*
X182794509Y-97686204D01*
X182923331Y-97760579D01*
X183143906Y-97851944D01*
X183374520Y-97913737D01*
X183611226Y-97944900D01*
X183611234Y-97944900D01*
X183849966Y-97944900D01*
X183849974Y-97944900D01*
X184086680Y-97913737D01*
X184317294Y-97851944D01*
X184537869Y-97760579D01*
X184744631Y-97641205D01*
X184934043Y-97495864D01*
X185102864Y-97327043D01*
X185248205Y-97137631D01*
X185367579Y-96930869D01*
X185458944Y-96710294D01*
X185520737Y-96479680D01*
X185551900Y-96242974D01*
X185551900Y-96004226D01*
X185520737Y-95767520D01*
X185458944Y-95536906D01*
X185367579Y-95316331D01*
X185248205Y-95109569D01*
X185102864Y-94920157D01*
X184934043Y-94751336D01*
X184904905Y-94728978D01*
X184766006Y-94622397D01*
X184744631Y-94605995D01*
X184537869Y-94486621D01*
X184537865Y-94486619D01*
X184537861Y-94486617D01*
X184317301Y-94395259D01*
X184317302Y-94395259D01*
X184317294Y-94395256D01*
X184086680Y-94333463D01*
X184086674Y-94333462D01*
X184086673Y-94333462D01*
X183849980Y-94302300D01*
X183849974Y-94302300D01*
X183611226Y-94302300D01*
X183611219Y-94302300D01*
X183374526Y-94333462D01*
X183374522Y-94333462D01*
X183374520Y-94333463D01*
X183374517Y-94333463D01*
X183374516Y-94333464D01*
X183143912Y-94395254D01*
X183143898Y-94395259D01*
X182923338Y-94486617D01*
X182923331Y-94486620D01*
X182923331Y-94486621D01*
X182794511Y-94560994D01*
X182679213Y-94604163D01*
X182607514Y-94611100D01*
X180053686Y-94611100D01*
X179932248Y-94590836D01*
X179866690Y-94560995D01*
X179737869Y-94486621D01*
X179737865Y-94486619D01*
X179737861Y-94486617D01*
X179517301Y-94395259D01*
X179517302Y-94395259D01*
X179517294Y-94395256D01*
X179286680Y-94333463D01*
X179286674Y-94333462D01*
X179286673Y-94333462D01*
X179049980Y-94302300D01*
X179049974Y-94302300D01*
X178811226Y-94302300D01*
X178811219Y-94302300D01*
X178574526Y-94333462D01*
X178574522Y-94333462D01*
X178574520Y-94333463D01*
X178574517Y-94333463D01*
X178574516Y-94333464D01*
X178343912Y-94395254D01*
X178343898Y-94395259D01*
X178123338Y-94486617D01*
X178123331Y-94486620D01*
X178123331Y-94486621D01*
X177919743Y-94604163D01*
X177916566Y-94605997D01*
X177727166Y-94751328D01*
X177727156Y-94751337D01*
X177558337Y-94920156D01*
X177558328Y-94920166D01*
X177412997Y-95109566D01*
X177412995Y-95109569D01*
X177293621Y-95316331D01*
X177293617Y-95316338D01*
X177202259Y-95536898D01*
X177202254Y-95536912D01*
X177140464Y-95767516D01*
X177140462Y-95767526D01*
X177109300Y-96004219D01*
X106237254Y-96004219D01*
X106217095Y-95851101D01*
X106153633Y-95614258D01*
X106059800Y-95387724D01*
X105937201Y-95175376D01*
X105936513Y-95174479D01*
X105936166Y-95173827D01*
X105930400Y-95165198D01*
X105931264Y-95164620D01*
X105878662Y-95065800D01*
X105859234Y-94944226D01*
X105880333Y-94822931D01*
X105931200Y-94728937D01*
X105930400Y-94728402D01*
X105936136Y-94719817D01*
X105936513Y-94719121D01*
X105936679Y-94718903D01*
X105937201Y-94718224D01*
X106059800Y-94505876D01*
X106153633Y-94279342D01*
X106217095Y-94042499D01*
X106249100Y-93799399D01*
X106249100Y-93554201D01*
X106217095Y-93311101D01*
X106153633Y-93074258D01*
X106059800Y-92847724D01*
X105937201Y-92635376D01*
X105936513Y-92634479D01*
X105936166Y-92633827D01*
X105930400Y-92625198D01*
X105930448Y-92625165D01*
X105927382Y-92622058D01*
X105904012Y-92573423D01*
X105878662Y-92525800D01*
X105877432Y-92518108D01*
X105874059Y-92511087D01*
X105867748Y-92457503D01*
X105859234Y-92404226D01*
X105860569Y-92396551D01*
X105859658Y-92388816D01*
X105871085Y-92336095D01*
X105880333Y-92282931D01*
X105881896Y-92279619D01*
X186899700Y-92279619D01*
X186899700Y-92518380D01*
X186930862Y-92755073D01*
X186930863Y-92755080D01*
X186992656Y-92985694D01*
X186992659Y-92985701D01*
X187084017Y-93206261D01*
X187084019Y-93206265D01*
X187084021Y-93206269D01*
X187203395Y-93413031D01*
X187203397Y-93413033D01*
X187311718Y-93554201D01*
X187348736Y-93602443D01*
X187517557Y-93771264D01*
X187517565Y-93771270D01*
X187517566Y-93771271D01*
X187706971Y-93916607D01*
X187854514Y-94001791D01*
X187949550Y-94080059D01*
X188014023Y-94184945D01*
X188040946Y-94305082D01*
X188027402Y-94427451D01*
X187974859Y-94538793D01*
X187895192Y-94622397D01*
X187727169Y-94751326D01*
X187727156Y-94751337D01*
X187558337Y-94920156D01*
X187558328Y-94920166D01*
X187412997Y-95109566D01*
X187412995Y-95109569D01*
X187293621Y-95316331D01*
X187293617Y-95316338D01*
X187202259Y-95536898D01*
X187202254Y-95536912D01*
X187140464Y-95767516D01*
X187140462Y-95767526D01*
X187109300Y-96004219D01*
X187109300Y-96242980D01*
X187121995Y-96339404D01*
X187140463Y-96479680D01*
X187202256Y-96710294D01*
X187202259Y-96710301D01*
X187293617Y-96930861D01*
X187293619Y-96930865D01*
X187293621Y-96930869D01*
X187412995Y-97137631D01*
X187412997Y-97137633D01*
X187506735Y-97259796D01*
X187558336Y-97327043D01*
X187727157Y-97495864D01*
X187916569Y-97641205D01*
X188123331Y-97760579D01*
X188343906Y-97851944D01*
X188574520Y-97913737D01*
X188811226Y-97944900D01*
X188811234Y-97944900D01*
X189049966Y-97944900D01*
X189049974Y-97944900D01*
X189286680Y-97913737D01*
X189517294Y-97851944D01*
X189737869Y-97760579D01*
X189866688Y-97686205D01*
X189981987Y-97643037D01*
X190053686Y-97636100D01*
X192807514Y-97636100D01*
X192928952Y-97656364D01*
X192994509Y-97686204D01*
X193123331Y-97760579D01*
X193343906Y-97851944D01*
X193574520Y-97913737D01*
X193811226Y-97944900D01*
X193811234Y-97944900D01*
X194049966Y-97944900D01*
X194049974Y-97944900D01*
X194286680Y-97913737D01*
X194517294Y-97851944D01*
X194737869Y-97760579D01*
X194944631Y-97641205D01*
X195134043Y-97495864D01*
X195302864Y-97327043D01*
X195448205Y-97137631D01*
X195567579Y-96930869D01*
X195658944Y-96710294D01*
X195720737Y-96479680D01*
X195728910Y-96417592D01*
X195764850Y-96299845D01*
X195837078Y-96200141D01*
X195937766Y-96129292D01*
X196056003Y-96094975D01*
X196148523Y-96095611D01*
X196374026Y-96125300D01*
X196374034Y-96125300D01*
X196612766Y-96125300D01*
X196612774Y-96125300D01*
X196849480Y-96094137D01*
X197080094Y-96032344D01*
X197300669Y-95940979D01*
X197507431Y-95821605D01*
X197696843Y-95676264D01*
X197865664Y-95507443D01*
X198011005Y-95318031D01*
X198130379Y-95111269D01*
X198221744Y-94890694D01*
X198283537Y-94660080D01*
X198314700Y-94423374D01*
X198314700Y-94184626D01*
X198283537Y-93947920D01*
X198221744Y-93717306D01*
X198130379Y-93496731D01*
X198011005Y-93289969D01*
X197865664Y-93100557D01*
X197696843Y-92931736D01*
X197507431Y-92786395D01*
X197300669Y-92667021D01*
X197300665Y-92667019D01*
X197300661Y-92667017D01*
X197080101Y-92575659D01*
X197080102Y-92575659D01*
X197080094Y-92575656D01*
X197045358Y-92566348D01*
X196936415Y-92537157D01*
X196824360Y-92486152D01*
X196768757Y-92440359D01*
X196258979Y-91930581D01*
X195573728Y-91245330D01*
X195573724Y-91245327D01*
X195573723Y-91245326D01*
X195496346Y-91189108D01*
X195381123Y-91105394D01*
X195168999Y-90997311D01*
X195051555Y-90959151D01*
X194942579Y-90923743D01*
X194942566Y-90923740D01*
X194707442Y-90886500D01*
X194707436Y-90886500D01*
X189844086Y-90886500D01*
X189722648Y-90866236D01*
X189657090Y-90836395D01*
X189528269Y-90762021D01*
X189528265Y-90762019D01*
X189528261Y-90762017D01*
X189307701Y-90670659D01*
X189307702Y-90670659D01*
X189307694Y-90670656D01*
X189077080Y-90608863D01*
X189077074Y-90608862D01*
X189077073Y-90608862D01*
X188840380Y-90577700D01*
X188840374Y-90577700D01*
X188601626Y-90577700D01*
X188601619Y-90577700D01*
X188364926Y-90608862D01*
X188364922Y-90608862D01*
X188364920Y-90608863D01*
X188364917Y-90608863D01*
X188364916Y-90608864D01*
X188134312Y-90670654D01*
X188134298Y-90670659D01*
X187913738Y-90762017D01*
X187913731Y-90762020D01*
X187913731Y-90762021D01*
X187733226Y-90866236D01*
X187706966Y-90881397D01*
X187517566Y-91026728D01*
X187517556Y-91026737D01*
X187348737Y-91195556D01*
X187348728Y-91195566D01*
X187203397Y-91384966D01*
X187084017Y-91591738D01*
X186992659Y-91812298D01*
X186992654Y-91812312D01*
X186930864Y-92042916D01*
X186930862Y-92042926D01*
X186899700Y-92279619D01*
X105881896Y-92279619D01*
X105884542Y-92274010D01*
X105885738Y-92268493D01*
X105894042Y-92253876D01*
X105913242Y-92213185D01*
X105923936Y-92195511D01*
X105937201Y-92178224D01*
X106059800Y-91965876D01*
X106153633Y-91739342D01*
X106217095Y-91502499D01*
X106249100Y-91259399D01*
X106249100Y-91014201D01*
X106217095Y-90771101D01*
X106153633Y-90534258D01*
X106059800Y-90307724D01*
X105937201Y-90095376D01*
X105936513Y-90094479D01*
X105936166Y-90093827D01*
X105930400Y-90085198D01*
X105931264Y-90084620D01*
X105878662Y-89985800D01*
X105859234Y-89864226D01*
X105880333Y-89742931D01*
X105931200Y-89648937D01*
X105930400Y-89648402D01*
X105936136Y-89639817D01*
X105936513Y-89639121D01*
X105936679Y-89638903D01*
X105937201Y-89638224D01*
X106059800Y-89425876D01*
X106153633Y-89199342D01*
X106217095Y-88962499D01*
X106249100Y-88719399D01*
X106249100Y-88474201D01*
X106217095Y-88231101D01*
X106217090Y-88231083D01*
X106214706Y-88219092D01*
X106217317Y-88218572D01*
X106207488Y-88116935D01*
X106236069Y-87997181D01*
X106301985Y-87893197D01*
X106316144Y-87878235D01*
X106363642Y-87830737D01*
X106549767Y-87597343D01*
X106549778Y-87597328D01*
X106708609Y-87344550D01*
X106838136Y-87075584D01*
X106838140Y-87075574D01*
X106923442Y-86831800D01*
X105067822Y-86831800D01*
X104971025Y-86819056D01*
X104744299Y-86758305D01*
X104744293Y-86758304D01*
X104744292Y-86758304D01*
X104501204Y-86726300D01*
X104501199Y-86726300D01*
X104256001Y-86726300D01*
X104255995Y-86726300D01*
X104012907Y-86758304D01*
X104012903Y-86758304D01*
X104012901Y-86758305D01*
X103786174Y-86819056D01*
X103689378Y-86831800D01*
X101833758Y-86831800D01*
X72335726Y-86831800D01*
X72339549Y-85977809D01*
X103778600Y-85977809D01*
X103778600Y-86135791D01*
X103819489Y-86288391D01*
X103898481Y-86425208D01*
X104010192Y-86536919D01*
X104147009Y-86615911D01*
X104299609Y-86656800D01*
X104457591Y-86656800D01*
X104610191Y-86615911D01*
X104747008Y-86536919D01*
X104858719Y-86425208D01*
X104937711Y-86288391D01*
X104978600Y-86135791D01*
X104978600Y-85977809D01*
X104937711Y-85825209D01*
X104858719Y-85688392D01*
X104747008Y-85576681D01*
X104610191Y-85497689D01*
X104457591Y-85456800D01*
X104299609Y-85456800D01*
X104147009Y-85497689D01*
X104010192Y-85576681D01*
X103898481Y-85688392D01*
X103819489Y-85825209D01*
X103778600Y-85977809D01*
X72339549Y-85977809D01*
X72350532Y-83524714D01*
X72371340Y-83403373D01*
X72430421Y-83295358D01*
X72521373Y-83212380D01*
X72634341Y-83163430D01*
X72721198Y-83152408D01*
X103204723Y-82881328D01*
X103326332Y-82900511D01*
X103435127Y-82958143D01*
X103519314Y-83047978D01*
X103569770Y-83160281D01*
X103581028Y-83282882D01*
X103551867Y-83402496D01*
X103485447Y-83506159D01*
X103388967Y-83582640D01*
X103369054Y-83592240D01*
X103369279Y-83592706D01*
X103090849Y-83726790D01*
X102838071Y-83885621D01*
X102838056Y-83885632D01*
X102604662Y-84071757D01*
X102393557Y-84282862D01*
X102207432Y-84516256D01*
X102207421Y-84516271D01*
X102048590Y-84769049D01*
X101919063Y-85038015D01*
X101919059Y-85038025D01*
X101833758Y-85281800D01*
X106923441Y-85281800D01*
X106838140Y-85038025D01*
X106838136Y-85038015D01*
X106708609Y-84769049D01*
X106549778Y-84516271D01*
X106549767Y-84516256D01*
X106363642Y-84282862D01*
X106152537Y-84071757D01*
X105919143Y-83885632D01*
X105919128Y-83885621D01*
X105666350Y-83726790D01*
X105397384Y-83597263D01*
X105397367Y-83597256D01*
X105370890Y-83587991D01*
X105262961Y-83528754D01*
X105180114Y-83437682D01*
X105131327Y-83324644D01*
X105121887Y-83201890D01*
X105152816Y-83082721D01*
X105220764Y-82980053D01*
X105318367Y-82905009D01*
X105435047Y-82865724D01*
X105491082Y-82860996D01*
X180568144Y-82193362D01*
X180568144Y-75295714D01*
X212313100Y-75295714D01*
X212313100Y-75547485D01*
X212345958Y-75797064D01*
X212345963Y-75797090D01*
X212411115Y-76040239D01*
X212411118Y-76040249D01*
X212507461Y-76272840D01*
X212639458Y-76501466D01*
X212637186Y-76502777D01*
X212679261Y-76596106D01*
X212690675Y-76718692D01*
X212661668Y-76838343D01*
X212638488Y-76881174D01*
X212639458Y-76881734D01*
X212507461Y-77110359D01*
X212411118Y-77342950D01*
X212411115Y-77342960D01*
X212345963Y-77586109D01*
X212345958Y-77586135D01*
X212313100Y-77835714D01*
X212313100Y-78087485D01*
X212345958Y-78337064D01*
X212345963Y-78337090D01*
X212411115Y-78580239D01*
X212411118Y-78580249D01*
X212507461Y-78812840D01*
X212639458Y-79041466D01*
X212637186Y-79042777D01*
X212679261Y-79136106D01*
X212690675Y-79258692D01*
X212661668Y-79378343D01*
X212638488Y-79421174D01*
X212639458Y-79421734D01*
X212507461Y-79650359D01*
X212411118Y-79882950D01*
X212411115Y-79882960D01*
X212345963Y-80126109D01*
X212345958Y-80126135D01*
X212313100Y-80375714D01*
X212313100Y-80627485D01*
X212345958Y-80877064D01*
X212345963Y-80877090D01*
X212411115Y-81120239D01*
X212411118Y-81120249D01*
X212507461Y-81352840D01*
X212639458Y-81581466D01*
X212637186Y-81582777D01*
X212679261Y-81676106D01*
X212690675Y-81798692D01*
X212661668Y-81918343D01*
X212638488Y-81961174D01*
X212639458Y-81961734D01*
X212507461Y-82190359D01*
X212411118Y-82422950D01*
X212411115Y-82422960D01*
X212345963Y-82666109D01*
X212345958Y-82666135D01*
X212313100Y-82915714D01*
X212313100Y-83167485D01*
X212345958Y-83417064D01*
X212345963Y-83417090D01*
X212411115Y-83660239D01*
X212411118Y-83660249D01*
X212507461Y-83892840D01*
X212639458Y-84121466D01*
X212637186Y-84122777D01*
X212679261Y-84216106D01*
X212690675Y-84338692D01*
X212661668Y-84458343D01*
X212638488Y-84501174D01*
X212639458Y-84501734D01*
X212507461Y-84730359D01*
X212411118Y-84962950D01*
X212411115Y-84962960D01*
X212345963Y-85206109D01*
X212345958Y-85206135D01*
X212313100Y-85455714D01*
X212313100Y-85707485D01*
X212345958Y-85957064D01*
X212345963Y-85957090D01*
X212411115Y-86200239D01*
X212411118Y-86200249D01*
X212507461Y-86432840D01*
X212639458Y-86661466D01*
X212637186Y-86662777D01*
X212679261Y-86756106D01*
X212690675Y-86878692D01*
X212661668Y-86998343D01*
X212638488Y-87041174D01*
X212639458Y-87041734D01*
X212507461Y-87270359D01*
X212411118Y-87502950D01*
X212411115Y-87502960D01*
X212345963Y-87746109D01*
X212345958Y-87746135D01*
X212313100Y-87995714D01*
X212313100Y-88247485D01*
X212345958Y-88497064D01*
X212345963Y-88497090D01*
X212411115Y-88740239D01*
X212411118Y-88740249D01*
X212503177Y-88962499D01*
X212507461Y-88972840D01*
X212639458Y-89201466D01*
X212637186Y-89202777D01*
X212679261Y-89296106D01*
X212690675Y-89418692D01*
X212661668Y-89538343D01*
X212638488Y-89581174D01*
X212639458Y-89581734D01*
X212507461Y-89810359D01*
X212411118Y-90042950D01*
X212411115Y-90042960D01*
X212345963Y-90286109D01*
X212345958Y-90286135D01*
X212313100Y-90535714D01*
X212313100Y-90787485D01*
X212345958Y-91037064D01*
X212345963Y-91037090D01*
X212411115Y-91280239D01*
X212411118Y-91280249D01*
X212503177Y-91502499D01*
X212507461Y-91512840D01*
X212633335Y-91730861D01*
X212695834Y-91812312D01*
X212786593Y-91930591D01*
X212964609Y-92108607D01*
X212964617Y-92108613D01*
X212964618Y-92108614D01*
X213056528Y-92179139D01*
X213164338Y-92261864D01*
X213382362Y-92387740D01*
X213614951Y-92484082D01*
X213758173Y-92522458D01*
X213858109Y-92549236D01*
X213858112Y-92549236D01*
X213858125Y-92549240D01*
X213982924Y-92565670D01*
X214107714Y-92582099D01*
X214107723Y-92582100D01*
X214107724Y-92582100D01*
X214359477Y-92582100D01*
X214359485Y-92582099D01*
X214432369Y-92572503D01*
X214609075Y-92549240D01*
X214852249Y-92484082D01*
X215084838Y-92387740D01*
X215302862Y-92261864D01*
X215502591Y-92108607D01*
X215680607Y-91930591D01*
X215833864Y-91730862D01*
X215959740Y-91512838D01*
X216056082Y-91280249D01*
X216121240Y-91037075D01*
X216154100Y-90787476D01*
X216154100Y-90535724D01*
X216121240Y-90286125D01*
X216056082Y-90042951D01*
X215959740Y-89810362D01*
X215833864Y-89592338D01*
X215827742Y-89581734D01*
X215830020Y-89580418D01*
X215787959Y-89487174D01*
X215776518Y-89364590D01*
X215805499Y-89244933D01*
X215828717Y-89202029D01*
X215827742Y-89201466D01*
X215854187Y-89155659D01*
X215959740Y-88972838D01*
X216056082Y-88740249D01*
X216121240Y-88497075D01*
X216154100Y-88247476D01*
X216154100Y-87995724D01*
X216121240Y-87746125D01*
X216056082Y-87502951D01*
X215959740Y-87270362D01*
X215833864Y-87052338D01*
X215827742Y-87041734D01*
X215830020Y-87040418D01*
X215787959Y-86947174D01*
X215776518Y-86824590D01*
X215805499Y-86704933D01*
X215828717Y-86662029D01*
X215827742Y-86661466D01*
X215899649Y-86536919D01*
X215959740Y-86432838D01*
X216056082Y-86200249D01*
X216121240Y-85957075D01*
X216154100Y-85707476D01*
X216154100Y-85455724D01*
X216121240Y-85206125D01*
X216056082Y-84962951D01*
X215959740Y-84730362D01*
X215833864Y-84512338D01*
X215827742Y-84501734D01*
X215830020Y-84500418D01*
X215787959Y-84407174D01*
X215776518Y-84284590D01*
X215805499Y-84164933D01*
X215828717Y-84122029D01*
X215827742Y-84121466D01*
X215856441Y-84071757D01*
X215959740Y-83892838D01*
X216056082Y-83660249D01*
X216121240Y-83417075D01*
X216154100Y-83167476D01*
X216154100Y-82915724D01*
X216152689Y-82905009D01*
X216121241Y-82666135D01*
X216121240Y-82666125D01*
X216056082Y-82422951D01*
X215959740Y-82190362D01*
X215833864Y-81972338D01*
X215827742Y-81961734D01*
X215830020Y-81960418D01*
X215787959Y-81867174D01*
X215776518Y-81744590D01*
X215805499Y-81624933D01*
X215828717Y-81582029D01*
X215827742Y-81581466D01*
X215854187Y-81535659D01*
X215959740Y-81352838D01*
X216056082Y-81120249D01*
X216121240Y-80877075D01*
X216154100Y-80627476D01*
X216154100Y-80375724D01*
X216121240Y-80126125D01*
X216056082Y-79882951D01*
X215959740Y-79650362D01*
X215833864Y-79432338D01*
X215827742Y-79421734D01*
X215830020Y-79420418D01*
X215787959Y-79327174D01*
X215776518Y-79204590D01*
X215805499Y-79084933D01*
X215828717Y-79042029D01*
X215827742Y-79041466D01*
X215854187Y-78995659D01*
X215959740Y-78812838D01*
X216056082Y-78580249D01*
X216121240Y-78337075D01*
X216154100Y-78087476D01*
X216154100Y-77835724D01*
X216121240Y-77586125D01*
X216056082Y-77342951D01*
X215959740Y-77110362D01*
X215833864Y-76892338D01*
X215827742Y-76881734D01*
X215830020Y-76880418D01*
X215787959Y-76787174D01*
X215776518Y-76664590D01*
X215805499Y-76544933D01*
X215828717Y-76502029D01*
X215827742Y-76501466D01*
X215854187Y-76455659D01*
X215959740Y-76272838D01*
X216056082Y-76040249D01*
X216121240Y-75797075D01*
X216154100Y-75547476D01*
X216154100Y-75295724D01*
X216121240Y-75046125D01*
X216056082Y-74802951D01*
X215959740Y-74570362D01*
X215833864Y-74352338D01*
X215680607Y-74152609D01*
X215502591Y-73974593D01*
X215302862Y-73821336D01*
X215302863Y-73821336D01*
X215302861Y-73821335D01*
X215084840Y-73695461D01*
X214852249Y-73599118D01*
X214852239Y-73599115D01*
X214609090Y-73533963D01*
X214609076Y-73533960D01*
X214609075Y-73533960D01*
X214609073Y-73533959D01*
X214609064Y-73533958D01*
X214359485Y-73501100D01*
X214359476Y-73501100D01*
X214107724Y-73501100D01*
X214107714Y-73501100D01*
X213858135Y-73533958D01*
X213858109Y-73533963D01*
X213614960Y-73599115D01*
X213614950Y-73599118D01*
X213382359Y-73695461D01*
X213164338Y-73821335D01*
X212964618Y-73974585D01*
X212964608Y-73974594D01*
X212786594Y-74152608D01*
X212786585Y-74152618D01*
X212633335Y-74352338D01*
X212507461Y-74570359D01*
X212411118Y-74802950D01*
X212411115Y-74802960D01*
X212345963Y-75046109D01*
X212345958Y-75046135D01*
X212313100Y-75295714D01*
X180568144Y-75295714D01*
X180568144Y-70098600D01*
X193167126Y-70098600D01*
X193186299Y-70179905D01*
X193186300Y-70179910D01*
X193282070Y-70411121D01*
X193413683Y-70623965D01*
X193413684Y-70623966D01*
X193523064Y-70751253D01*
X194152960Y-71381147D01*
X194280223Y-71490508D01*
X194280233Y-71490515D01*
X194493075Y-71622127D01*
X194724282Y-71717896D01*
X194724293Y-71717899D01*
X194805598Y-71737073D01*
X196355600Y-71737073D01*
X196436905Y-71717900D01*
X196436910Y-71717899D01*
X196668121Y-71622129D01*
X196880965Y-71490516D01*
X196880966Y-71490515D01*
X197008253Y-71381135D01*
X197638147Y-70751239D01*
X197747508Y-70623976D01*
X197747515Y-70623966D01*
X197879127Y-70411124D01*
X197974896Y-70179917D01*
X197974899Y-70179906D01*
X197994073Y-70098601D01*
X197994072Y-70098600D01*
X196355600Y-70098600D01*
X196355600Y-71737073D01*
X194805598Y-71737073D01*
X194805600Y-71737072D01*
X194805600Y-70098600D01*
X193167126Y-70098600D01*
X180568144Y-70098600D01*
X180568144Y-69270096D01*
X195174200Y-69270096D01*
X195174200Y-69377104D01*
X195201895Y-69480465D01*
X195255399Y-69573136D01*
X195331064Y-69648801D01*
X195423735Y-69702305D01*
X195527096Y-69730000D01*
X195634104Y-69730000D01*
X195737465Y-69702305D01*
X195830136Y-69648801D01*
X195905801Y-69573136D01*
X195959305Y-69480465D01*
X195987000Y-69377104D01*
X195987000Y-69270096D01*
X195959305Y-69166735D01*
X195905801Y-69074064D01*
X195830136Y-68998399D01*
X195737465Y-68944895D01*
X195634104Y-68917200D01*
X195527096Y-68917200D01*
X195423735Y-68944895D01*
X195331064Y-68998399D01*
X195255399Y-69074064D01*
X195201895Y-69166735D01*
X195174200Y-69270096D01*
X180568144Y-69270096D01*
X180568144Y-68880085D01*
X206603700Y-68880085D01*
X206603700Y-69767122D01*
X206608311Y-69824650D01*
X206608311Y-69824652D01*
X206608312Y-69824655D01*
X206608313Y-69824659D01*
X206656946Y-69996142D01*
X206743813Y-70151785D01*
X206743816Y-70151788D01*
X206781225Y-70195719D01*
X206781232Y-70195726D01*
X206781238Y-70195733D01*
X207336743Y-70751239D01*
X207408464Y-70822960D01*
X207452411Y-70860383D01*
X207452412Y-70860384D01*
X207452414Y-70860385D01*
X207608060Y-70947254D01*
X207608059Y-70947254D01*
X207650377Y-70959255D01*
X207779544Y-70995887D01*
X207815509Y-70998770D01*
X207837085Y-71000500D01*
X207837088Y-71000500D01*
X208724122Y-71000500D01*
X208745695Y-70998770D01*
X208781655Y-70995888D01*
X208953140Y-70947255D01*
X209108786Y-70860386D01*
X209152733Y-70822962D01*
X209779958Y-70195738D01*
X209817385Y-70151786D01*
X209904254Y-69996140D01*
X209952887Y-69824656D01*
X209957499Y-69767122D01*
X209957500Y-69767114D01*
X209957500Y-68880077D01*
X209952888Y-68822549D01*
X209952888Y-68822545D01*
X209904255Y-68651060D01*
X209817386Y-68495414D01*
X209793430Y-68467282D01*
X209779974Y-68451480D01*
X209779967Y-68451473D01*
X209779962Y-68451467D01*
X209152738Y-67824242D01*
X209152737Y-67824241D01*
X209152735Y-67824239D01*
X209108788Y-67786816D01*
X208953139Y-67699945D01*
X208953140Y-67699945D01*
X208803921Y-67657627D01*
X208781656Y-67651313D01*
X208781653Y-67651312D01*
X208781650Y-67651312D01*
X208724115Y-67646700D01*
X208724112Y-67646700D01*
X207837081Y-67646700D01*
X207837077Y-67646700D01*
X207779549Y-67651311D01*
X207779545Y-67651311D01*
X207779545Y-67651312D01*
X207608060Y-67699945D01*
X207608059Y-67699945D01*
X207608057Y-67699946D01*
X207452414Y-67786813D01*
X207452411Y-67786816D01*
X207408480Y-67824225D01*
X207408473Y-67824232D01*
X206781239Y-68451464D01*
X206743816Y-68495411D01*
X206656945Y-68651059D01*
X206608314Y-68822540D01*
X206608312Y-68822549D01*
X206603700Y-68880085D01*
X180568144Y-68880085D01*
X180568144Y-68548598D01*
X193167126Y-68548598D01*
X193167128Y-68548600D01*
X194805600Y-68548600D01*
X196355600Y-68548600D01*
X197994074Y-68548600D01*
X197974900Y-68467294D01*
X197974899Y-68467289D01*
X197879129Y-68236078D01*
X197747516Y-68023234D01*
X197747515Y-68023233D01*
X197638135Y-67895946D01*
X197008239Y-67266052D01*
X196880976Y-67156691D01*
X196880966Y-67156684D01*
X196668126Y-67025073D01*
X196436912Y-66929301D01*
X196355600Y-66910125D01*
X196355600Y-68548600D01*
X194805600Y-68548600D01*
X194805600Y-66910125D01*
X194805599Y-66910124D01*
X194724293Y-66929299D01*
X194724281Y-66929303D01*
X194493081Y-67025068D01*
X194280234Y-67156683D01*
X194280233Y-67156684D01*
X194152946Y-67266064D01*
X193523052Y-67895960D01*
X193413691Y-68023223D01*
X193413684Y-68023233D01*
X193282072Y-68236075D01*
X193186303Y-68467282D01*
X193186300Y-68467293D01*
X193167126Y-68548598D01*
X180568144Y-68548598D01*
X180568144Y-66405562D01*
X180588408Y-66284124D01*
X180647005Y-66175846D01*
X180737585Y-66092462D01*
X180850332Y-66043006D01*
X180942144Y-66031562D01*
X216444142Y-66031562D01*
X216565580Y-66051826D01*
G37*
%TD.AperFunction*%
%TD*%
M02*
