%TF.GenerationSoftware,KiCad,Pcbnew,10.0.3*%
%TF.CreationDate,2026-08-17T09:12:18-03:00*%
%TF.ProjectId,Esquema,45737175-656d-4612-9e6b-696361645f70,rev?*%
%TF.SameCoordinates,Original*%
%TF.FileFunction,Legend,Bot*%
%TF.FilePolarity,Positive*%
%FSLAX46Y46*%
G04 Gerber Fmt 4.6, Leading zero omitted, Abs format (unit mm)*
G04 Created by KiCad (PCBNEW 10.0.3) date 2026-08-17 09:12:18*
%MOMM*%
%LPD*%
G01*
G04 APERTURE LIST*
%ADD10C,0.134112*%
%ADD11C,0.127000*%
G04 APERTURE END LIST*
D10*
X153237292Y-102619034D02*
X153384177Y-102545592D01*
X153384177Y-102545592D02*
X153604503Y-102545592D01*
X153604503Y-102545592D02*
X153824830Y-102619034D01*
X153824830Y-102619034D02*
X153971715Y-102765919D01*
X153971715Y-102765919D02*
X154045157Y-102912803D01*
X154045157Y-102912803D02*
X154118599Y-103206572D01*
X154118599Y-103206572D02*
X154118599Y-103426899D01*
X154118599Y-103426899D02*
X154045157Y-103720668D01*
X154045157Y-103720668D02*
X153971715Y-103867553D01*
X153971715Y-103867553D02*
X153824830Y-104014438D01*
X153824830Y-104014438D02*
X153604503Y-104087880D01*
X153604503Y-104087880D02*
X153457619Y-104087880D01*
X153457619Y-104087880D02*
X153237292Y-104014438D01*
X153237292Y-104014438D02*
X153163850Y-103940995D01*
X153163850Y-103940995D02*
X153163850Y-103426899D01*
X153163850Y-103426899D02*
X153457619Y-103426899D01*
X152502869Y-104087880D02*
X152502869Y-102545592D01*
X152502869Y-102545592D02*
X151915331Y-102545592D01*
X151915331Y-102545592D02*
X151768446Y-102619034D01*
X151768446Y-102619034D02*
X151695004Y-102692476D01*
X151695004Y-102692476D02*
X151621562Y-102839361D01*
X151621562Y-102839361D02*
X151621562Y-103059688D01*
X151621562Y-103059688D02*
X151695004Y-103206572D01*
X151695004Y-103206572D02*
X151768446Y-103280015D01*
X151768446Y-103280015D02*
X151915331Y-103353457D01*
X151915331Y-103353457D02*
X152502869Y-103353457D01*
X151034023Y-104014438D02*
X150813697Y-104087880D01*
X150813697Y-104087880D02*
X150446485Y-104087880D01*
X150446485Y-104087880D02*
X150299601Y-104014438D01*
X150299601Y-104014438D02*
X150226158Y-103940995D01*
X150226158Y-103940995D02*
X150152716Y-103794111D01*
X150152716Y-103794111D02*
X150152716Y-103647226D01*
X150152716Y-103647226D02*
X150226158Y-103500342D01*
X150226158Y-103500342D02*
X150299601Y-103426899D01*
X150299601Y-103426899D02*
X150446485Y-103353457D01*
X150446485Y-103353457D02*
X150740254Y-103280015D01*
X150740254Y-103280015D02*
X150887139Y-103206572D01*
X150887139Y-103206572D02*
X150960581Y-103133130D01*
X150960581Y-103133130D02*
X151034023Y-102986246D01*
X151034023Y-102986246D02*
X151034023Y-102839361D01*
X151034023Y-102839361D02*
X150960581Y-102692476D01*
X150960581Y-102692476D02*
X150887139Y-102619034D01*
X150887139Y-102619034D02*
X150740254Y-102545592D01*
X150740254Y-102545592D02*
X150373043Y-102545592D01*
X150373043Y-102545592D02*
X150152716Y-102619034D01*
X148316658Y-104087880D02*
X148316658Y-103059688D01*
X148316658Y-103206572D02*
X148243216Y-103133130D01*
X148243216Y-103133130D02*
X148096331Y-103059688D01*
X148096331Y-103059688D02*
X147876004Y-103059688D01*
X147876004Y-103059688D02*
X147729120Y-103133130D01*
X147729120Y-103133130D02*
X147655678Y-103280015D01*
X147655678Y-103280015D02*
X147655678Y-104087880D01*
X147655678Y-103280015D02*
X147582235Y-103133130D01*
X147582235Y-103133130D02*
X147435351Y-103059688D01*
X147435351Y-103059688D02*
X147215024Y-103059688D01*
X147215024Y-103059688D02*
X147068139Y-103133130D01*
X147068139Y-103133130D02*
X146994697Y-103280015D01*
X146994697Y-103280015D02*
X146994697Y-104087880D01*
X146039947Y-104087880D02*
X146186832Y-104014438D01*
X146186832Y-104014438D02*
X146260274Y-103940995D01*
X146260274Y-103940995D02*
X146333716Y-103794111D01*
X146333716Y-103794111D02*
X146333716Y-103353457D01*
X146333716Y-103353457D02*
X146260274Y-103206572D01*
X146260274Y-103206572D02*
X146186832Y-103133130D01*
X146186832Y-103133130D02*
X146039947Y-103059688D01*
X146039947Y-103059688D02*
X145819620Y-103059688D01*
X145819620Y-103059688D02*
X145672736Y-103133130D01*
X145672736Y-103133130D02*
X145599294Y-103206572D01*
X145599294Y-103206572D02*
X145525851Y-103353457D01*
X145525851Y-103353457D02*
X145525851Y-103794111D01*
X145525851Y-103794111D02*
X145599294Y-103940995D01*
X145599294Y-103940995D02*
X145672736Y-104014438D01*
X145672736Y-104014438D02*
X145819620Y-104087880D01*
X145819620Y-104087880D02*
X146039947Y-104087880D01*
X144203891Y-104087880D02*
X144203891Y-102545592D01*
X144203891Y-104014438D02*
X144350775Y-104087880D01*
X144350775Y-104087880D02*
X144644544Y-104087880D01*
X144644544Y-104087880D02*
X144791429Y-104014438D01*
X144791429Y-104014438D02*
X144864871Y-103940995D01*
X144864871Y-103940995D02*
X144938313Y-103794111D01*
X144938313Y-103794111D02*
X144938313Y-103353457D01*
X144938313Y-103353457D02*
X144864871Y-103206572D01*
X144864871Y-103206572D02*
X144791429Y-103133130D01*
X144791429Y-103133130D02*
X144644544Y-103059688D01*
X144644544Y-103059688D02*
X144350775Y-103059688D01*
X144350775Y-103059688D02*
X144203891Y-103133130D01*
X142808488Y-103059688D02*
X142808488Y-104087880D01*
X143469468Y-103059688D02*
X143469468Y-103867553D01*
X143469468Y-103867553D02*
X143396026Y-104014438D01*
X143396026Y-104014438D02*
X143249141Y-104087880D01*
X143249141Y-104087880D02*
X143028814Y-104087880D01*
X143028814Y-104087880D02*
X142881930Y-104014438D01*
X142881930Y-104014438D02*
X142808488Y-103940995D01*
X141853738Y-104087880D02*
X142000623Y-104014438D01*
X142000623Y-104014438D02*
X142074065Y-103867553D01*
X142074065Y-103867553D02*
X142074065Y-102545592D01*
X140678662Y-104014438D02*
X140825546Y-104087880D01*
X140825546Y-104087880D02*
X141119316Y-104087880D01*
X141119316Y-104087880D02*
X141266200Y-104014438D01*
X141266200Y-104014438D02*
X141339642Y-103867553D01*
X141339642Y-103867553D02*
X141339642Y-103280015D01*
X141339642Y-103280015D02*
X141266200Y-103133130D01*
X141266200Y-103133130D02*
X141119316Y-103059688D01*
X141119316Y-103059688D02*
X140825546Y-103059688D01*
X140825546Y-103059688D02*
X140678662Y-103133130D01*
X140678662Y-103133130D02*
X140605220Y-103280015D01*
X140605220Y-103280015D02*
X140605220Y-103426899D01*
X140605220Y-103426899D02*
X141339642Y-103573784D01*
%TO.C,U$1*%
D11*
X109604400Y-117095600D02*
X134750400Y-117095600D01*
X109604400Y-136018600D02*
X109604400Y-117095600D01*
X110112400Y-136018600D02*
X109604400Y-136018600D01*
X134242400Y-136018600D02*
X134750400Y-136018600D01*
X134750400Y-136018600D02*
X134750400Y-117095600D01*
%TO.C,U$3*%
X135850600Y-101033600D02*
X160850600Y-101033600D01*
X135850600Y-136033600D02*
X135850600Y-101033600D01*
X160850600Y-101033600D02*
X160850600Y-136033600D01*
X160850600Y-136033600D02*
X135850600Y-136033600D01*
%TD*%
M02*
