%TF.GenerationSoftware,KiCad,Pcbnew,10.0.3*%
%TF.CreationDate,2026-08-17T09:12:18-03:00*%
%TF.ProjectId,Esquema,45737175-656d-4612-9e6b-696361645f70,rev?*%
%TF.SameCoordinates,Original*%
%TF.FileFunction,Soldermask,Top*%
%TF.FilePolarity,Negative*%
%FSLAX46Y46*%
G04 Gerber Fmt 4.6, Leading zero omitted, Abs format (unit mm)*
G04 Created by KiCad (PCBNEW 10.0.3) date 2026-08-17 09:12:18*
%MOMM*%
%LPD*%
G01*
G04 APERTURE LIST*
G04 Aperture macros list*
%AMFreePoly0*
4,1,25,0.585770,1.352196,0.597893,1.341842,1.341842,0.597893,1.370349,0.541945,1.371600,0.526051,1.371600,-0.526051,1.352196,-0.585770,1.341842,-0.597893,0.597893,-1.341842,0.541945,-1.370349,0.526051,-1.371600,-0.526051,-1.371600,-0.585770,-1.352196,-0.597893,-1.341842,-1.341842,-0.597893,-1.370349,-0.541945,-1.371600,-0.526051,-1.371600,0.526051,-1.352196,0.585770,-1.341842,0.597893,
-0.597893,1.341842,-0.541945,1.370349,-0.526051,1.371600,0.526051,1.371600,0.585770,1.352196,0.585770,1.352196,$1*%
%AMFreePoly1*
4,1,25,0.438476,0.996596,0.450599,0.986242,0.986242,0.450599,1.014749,0.394651,1.016000,0.378757,1.016000,-0.378757,0.996596,-0.438476,0.986242,-0.450599,0.450599,-0.986242,0.394651,-1.014749,0.378757,-1.016000,-0.378757,-1.016000,-0.438476,-0.996596,-0.450599,-0.986242,-0.986242,-0.450599,-1.014749,-0.394651,-1.016000,-0.378757,-1.016000,0.378757,-0.996596,0.438476,-0.986242,0.450599,
-0.450599,0.986242,-0.394651,1.014749,-0.378757,1.016000,0.378757,1.016000,0.438476,0.996596,0.438476,0.996596,$1*%
G04 Aperture macros list end*
%ADD10C,2.519200*%
%ADD11C,3.000000*%
%ADD12FreePoly0,0.000000*%
%ADD13O,6.299200X3.251200*%
%ADD14C,2.119200*%
%ADD15FreePoly1,90.000000*%
%ADD16C,2.419200*%
%ADD17FreePoly1,0.000000*%
%ADD18C,3.302000*%
%ADD19O,4.267200X2.235200*%
%ADD20C,2.133600*%
%ADD21FreePoly1,180.000000*%
%ADD22O,2.235200X4.267200*%
G04 APERTURE END LIST*
D10*
%TO.C,U$2*%
X214233600Y-80501600D03*
X214233600Y-75421600D03*
X214233600Y-90661600D03*
X214233600Y-88121600D03*
X214233600Y-85581600D03*
X214233600Y-83041600D03*
X214233600Y-77961600D03*
%TD*%
D11*
%TO.C,UNK_HOLE_4*%
X145930600Y-67923600D03*
%TD*%
D12*
%TO.C,SP1*%
X170279400Y-135923600D03*
X176781800Y-135923600D03*
%TD*%
D10*
%TO.C,U$9*%
X126608900Y-111801100D03*
X113608900Y-111801100D03*
X129208900Y-111801100D03*
X116208900Y-111801100D03*
X118808900Y-111801100D03*
X111008900Y-111801100D03*
X124008900Y-111801100D03*
X121408900Y-111801100D03*
%TD*%
D13*
%TO.C,U$12*%
X84168600Y-137067600D03*
X84168600Y-128558600D03*
X84168600Y-120684600D03*
%TD*%
D14*
%TO.C,U$6*%
X208800600Y-137143600D03*
X206260600Y-137143600D03*
%TD*%
D11*
%TO.C,UNK_HOLE_3*%
X74500000Y-68000000D03*
%TD*%
D15*
%TO.C,LED1*%
X82130600Y-104193600D03*
X82130600Y-101653600D03*
%TD*%
D14*
%TO.C,U$5*%
X199400600Y-137103600D03*
X196860600Y-137103600D03*
%TD*%
D10*
%TO.C,U$1*%
X115827400Y-134113600D03*
X128527400Y-134113600D03*
X118367400Y-134113600D03*
X131067400Y-134113600D03*
X120907400Y-134113600D03*
X125987400Y-134113600D03*
X123447400Y-134113600D03*
X113287400Y-134113600D03*
%TD*%
D16*
%TO.C,U$8*%
X104378600Y-98756800D03*
X104378600Y-91136800D03*
X104378600Y-96216800D03*
X104378600Y-86056800D03*
X104378600Y-88596800D03*
X104378600Y-93676800D03*
%TD*%
D14*
%TO.C,U$4*%
X105940200Y-125041000D03*
X105940200Y-122501000D03*
%TD*%
%TO.C,U$7*%
X105940200Y-135293600D03*
X105940200Y-132753600D03*
%TD*%
D17*
%TO.C,R2*%
X195580600Y-69323600D03*
X208280600Y-69323600D03*
%TD*%
D11*
%TO.C,UNK_HOLE_0*%
X217930600Y-67923600D03*
%TD*%
D14*
%TO.C,U$10*%
X106000000Y-114770000D03*
X106000000Y-112230000D03*
%TD*%
D18*
%TO.C,IC1*%
X82324000Y-111500000D03*
D19*
X97310000Y-111500000D03*
X97310000Y-114040000D03*
X97310000Y-108960000D03*
%TD*%
D20*
%TO.C,U$11*%
X204210600Y-102793600D03*
X201670600Y-102793600D03*
X199130600Y-102793600D03*
X196590600Y-102793600D03*
X194050600Y-102793600D03*
X191510600Y-102793600D03*
X188970600Y-102793600D03*
X186430600Y-102793600D03*
X183890600Y-102793600D03*
X181350600Y-102793600D03*
X178810600Y-102793600D03*
X176270600Y-102793600D03*
X173730600Y-102793600D03*
X171190600Y-102793600D03*
X168650600Y-102793600D03*
X168650600Y-127563600D03*
X171190600Y-127563600D03*
X173730600Y-127563600D03*
X176270600Y-127563600D03*
X178810600Y-127563600D03*
X181350600Y-127563600D03*
X183890600Y-127563600D03*
X186430600Y-127563600D03*
X188970600Y-127563600D03*
X191510600Y-127563600D03*
X194050600Y-127563600D03*
X196590600Y-127563600D03*
X199130600Y-127563600D03*
X201670600Y-127563600D03*
X204210600Y-127563600D03*
%TD*%
D21*
%TO.C,R1*%
X100280600Y-103628200D03*
X87580600Y-103628200D03*
%TD*%
D11*
%TO.C,UNK_HOLE_2*%
X73500000Y-142500000D03*
%TD*%
%TO.C,UNK_HOLE_1*%
X217930600Y-141923600D03*
%TD*%
D18*
%TO.C,IC2*%
X97068800Y-122571400D03*
D22*
X97068800Y-137557400D03*
X94528800Y-137557400D03*
X99608800Y-137557400D03*
%TD*%
D10*
%TO.C,U$3*%
X152160600Y-134763600D03*
X147080600Y-134763600D03*
X149620600Y-134763600D03*
X144540600Y-134763600D03*
%TD*%
M02*
