M48
; DRILL file KiCad 10.0.3 date 2026-08-04T10:36:05
; FORMAT={-:-/ absolute / metric / decimal}
; #@! TF.CreationDate,2026-08-04T10:36:05-03:00
; #@! TF.GenerationSoftware,Kicad,Pcbnew,10.0.3
; #@! TF.FileFunction,MixedPlating,1,2
FMAT,2
METRIC
; #@! TA.AperFunction,Plated,PTH,ComponentDrill
T1C0.813
; #@! TA.AperFunction,Plated,PTH,ComponentDrill
T2C0.889
; #@! TA.AperFunction,Plated,PTH,ViaDrill
T3C1.000
; #@! TA.AperFunction,Plated,PTH,ComponentDrill
T4C1.016
; #@! TA.AperFunction,Plated,PTH,ComponentDrill
T5C1.118
; #@! TA.AperFunction,NonPlated,NPTH,ComponentDrill
T6C3.000
; #@! TA.AperFunction,NonPlated,NPTH,ComponentDrill
T7C3.302
%
G90
G05
T1
X121.206Y-84.709
X122.476Y-88.519
X122.476Y-91.059
X122.476Y-103.124
X122.476Y-107.569
X122.476Y-110.109
X130.096Y-88.519
X130.096Y-91.059
X130.096Y-107.569
X130.096Y-110.109
X131.366Y-84.709
X132.636Y-103.124
X135.811Y-84.709
X135.811Y-94.869
X136.319Y-103.378
X136.319Y-113.538
X146.86Y-120.904
X146.86Y-131.064
X152.448Y-121.031
X152.448Y-131.191
X155.242Y-121.031
X155.242Y-131.191
T2
X128.064Y-97.028
X128.064Y-115.951
X130.604Y-97.028
X130.604Y-115.951
T3
X121.206Y-118.999
X132.636Y-80.899
X133.906Y-118.999
X151.686Y-117.729
X159.306Y-117.729
X160.576Y-91.059
X166.926Y-81.383
X173.276Y-91.059
T4
X122.476Y-126.619
X125.016Y-126.619
X131.366Y-126.619
X133.906Y-126.619
X140.256Y-126.619
X142.796Y-126.619
X144.574Y-83.312
X144.574Y-88.392
X154.226Y-85.979
X156.766Y-85.979
X160.83Y-125.349
X162.989Y-85.979
X163.37Y-125.349
X165.529Y-85.979
X169.466Y-125.349
X172.006Y-85.979
X172.006Y-125.349
X174.546Y-85.979
T5
X145.336Y-113.919
X147.876Y-113.919
X150.416Y-113.919
X158.036Y-113.919
X160.576Y-113.919
X163.116Y-113.919
X170.736Y-113.919
X173.276Y-113.919
X175.816Y-113.919
T6
X116.126Y-129.921
X116.761Y-78.994
X116.761Y-90.424
X180.515Y-78.74
X180.515Y-90.17
X180.642Y-130.048
T7
X147.876Y-96.393
X160.576Y-96.393
X173.276Y-96.393
M30
