M48
; DRILL file KiCad 10.0.3 date 2026-08-17T09:12:58
; FORMAT={-:-/ absolute / metric / decimal}
; #@! TF.CreationDate,2026-08-17T09:12:58-03:00
; #@! TF.GenerationSoftware,Kicad,Pcbnew,10.0.3
; #@! TF.FileFunction,MixedPlating,1,2
FMAT,2
METRIC
; #@! TA.AperFunction,Plated,PTH,ComponentDrill
T1C0.813
; #@! TA.AperFunction,Plated,PTH,ComponentDrill
T2C0.900
; #@! TA.AperFunction,Plated,PTH,ViaDrill
T3C1.000
; #@! TA.AperFunction,Plated,PTH,ComponentDrill
T4C1.000
; #@! TA.AperFunction,Plated,PTH,ComponentDrill
T5C1.016
; #@! TA.AperFunction,Plated,PTH,ComponentDrill
T6C1.200
; #@! TA.AperFunction,Plated,PTH,ComponentDrill
T7C1.300
; #@! TA.AperFunction,Plated,PTH,ComponentDrill
T8C3.800
; #@! TA.AperFunction,NonPlated,NPTH,ComponentDrill
T9C3.000
; #@! TA.AperFunction,NonPlated,NPTH,ComponentDrill
T10C3.302
%
G90
G05
T1
X82.131Y-101.654
X82.131Y-104.194
X87.581Y-103.628
X100.281Y-103.628
X195.581Y-69.324
X208.281Y-69.324
T2
X105.94Y-122.501
X105.94Y-125.041
X105.94Y-132.754
X105.94Y-135.294
X106.0Y-112.23
X106.0Y-114.77
X196.861Y-137.104
X199.401Y-137.104
X206.261Y-137.144
X208.801Y-137.144
T3
X132.831Y-101.657
X132.854Y-91.381
X132.931Y-84.371
X160.931Y-130.924
X166.931Y-130.924
X178.931Y-96.124
X183.731Y-96.124
X186.531Y-130.647
X186.531Y-138.524
X188.721Y-92.399
X188.931Y-96.124
X193.931Y-96.124
X196.493Y-94.304
X204.031Y-99.624
X212.931Y-99.624
X218.931Y-99.624
T4
X168.651Y-102.794
X168.651Y-127.564
X171.191Y-102.794
X171.191Y-127.564
X173.731Y-102.794
X173.731Y-127.564
X176.271Y-102.794
X176.271Y-127.564
X178.811Y-102.794
X178.811Y-127.564
X181.351Y-102.794
X181.351Y-127.564
X183.891Y-102.794
X183.891Y-127.564
X186.431Y-102.794
X186.431Y-127.564
X188.971Y-102.794
X188.971Y-127.564
X191.511Y-102.794
X191.511Y-127.564
X194.051Y-102.794
X194.051Y-127.564
X196.591Y-102.794
X196.591Y-127.564
X199.131Y-102.794
X199.131Y-127.564
X201.671Y-102.794
X201.671Y-127.564
X204.211Y-102.794
X204.211Y-127.564
T5
X94.529Y-137.557
X97.069Y-137.557
X97.31Y-108.96
X97.31Y-111.5
X97.31Y-114.04
X99.609Y-137.557
X170.279Y-135.924
X176.782Y-135.924
T6
X104.379Y-86.057
X104.379Y-88.597
X104.379Y-91.137
X104.379Y-93.677
X104.379Y-96.217
X104.379Y-98.757
T7
X111.009Y-111.801
X113.287Y-134.114
X113.609Y-111.801
X115.827Y-134.114
X116.209Y-111.801
X118.367Y-134.114
X118.809Y-111.801
X120.907Y-134.114
X121.409Y-111.801
X123.447Y-134.114
X124.009Y-111.801
X125.987Y-134.114
X126.609Y-111.801
X128.527Y-134.114
X129.209Y-111.801
X131.067Y-134.114
X144.541Y-134.764
X147.081Y-134.764
X149.621Y-134.764
X152.161Y-134.764
X214.234Y-75.422
X214.234Y-77.962
X214.234Y-80.502
X214.234Y-83.042
X214.234Y-85.582
X214.234Y-88.122
X214.234Y-90.662
T8
X84.169Y-120.685
X84.169Y-128.559
X84.169Y-137.068
T9
X73.5Y-142.5
X74.5Y-68.0
X145.931Y-67.924
X217.931Y-67.924
X217.931Y-141.924
T10
X82.324Y-111.5
X97.069Y-122.571
M30
