%TF.GenerationSoftware,KiCad,Pcbnew,10.0.3*%
%TF.CreationDate,2026-08-04T10:35:35-03:00*%
%TF.ProjectId,Esquema,45737175-656d-4612-9e6b-696361645f70,rev?*%
%TF.SameCoordinates,Original*%
%TF.FileFunction,Legend,Top*%
%TF.FilePolarity,Positive*%
%FSLAX46Y46*%
G04 Gerber Fmt 4.6, Leading zero omitted, Abs format (unit mm)*
G04 Created by KiCad (PCBNEW 10.0.3) date 2026-08-04 10:35:35*
%MOMM*%
%LPD*%
G01*
G04 APERTURE LIST*
%ADD10C,0.114300*%
%ADD11C,0.048768*%
%ADD12C,0.160020*%
%ADD13C,0.118872*%
%ADD14C,0.152400*%
%ADD15C,0.000000*%
%ADD16C,0.127000*%
%ADD17C,0.050800*%
%ADD18C,0.203200*%
%ADD19C,0.254000*%
G04 APERTURE END LIST*
D10*
X123714254Y-83118540D02*
X123549154Y-82882683D01*
X123431225Y-83118540D02*
X123431225Y-82623240D01*
X123431225Y-82623240D02*
X123619911Y-82623240D01*
X123619911Y-82623240D02*
X123667082Y-82646826D01*
X123667082Y-82646826D02*
X123690668Y-82670412D01*
X123690668Y-82670412D02*
X123714254Y-82717583D01*
X123714254Y-82717583D02*
X123714254Y-82788340D01*
X123714254Y-82788340D02*
X123690668Y-82835512D01*
X123690668Y-82835512D02*
X123667082Y-82859097D01*
X123667082Y-82859097D02*
X123619911Y-82882683D01*
X123619911Y-82882683D02*
X123431225Y-82882683D01*
X124185968Y-83118540D02*
X123902939Y-83118540D01*
X124044454Y-83118540D02*
X124044454Y-82623240D01*
X124044454Y-82623240D02*
X123997282Y-82693997D01*
X123997282Y-82693997D02*
X123950111Y-82741169D01*
X123950111Y-82741169D02*
X123902939Y-82764755D01*
D11*
X143740246Y-130045102D02*
X143740246Y-129644508D01*
X143740246Y-129644508D02*
X143766953Y-129564389D01*
X143766953Y-129564389D02*
X143820365Y-129510977D01*
X143820365Y-129510977D02*
X143900484Y-129484270D01*
X143900484Y-129484270D02*
X143953897Y-129484270D01*
X143499889Y-129510977D02*
X143419771Y-129484270D01*
X143419771Y-129484270D02*
X143286239Y-129484270D01*
X143286239Y-129484270D02*
X143232827Y-129510977D01*
X143232827Y-129510977D02*
X143206120Y-129537683D01*
X143206120Y-129537683D02*
X143179414Y-129591095D01*
X143179414Y-129591095D02*
X143179414Y-129644508D01*
X143179414Y-129644508D02*
X143206120Y-129697921D01*
X143206120Y-129697921D02*
X143232827Y-129724627D01*
X143232827Y-129724627D02*
X143286239Y-129751333D01*
X143286239Y-129751333D02*
X143393064Y-129778039D01*
X143393064Y-129778039D02*
X143446477Y-129804746D01*
X143446477Y-129804746D02*
X143473183Y-129831452D01*
X143473183Y-129831452D02*
X143499889Y-129884865D01*
X143499889Y-129884865D02*
X143499889Y-129938277D01*
X143499889Y-129938277D02*
X143473183Y-129991690D01*
X143473183Y-129991690D02*
X143446477Y-130018396D01*
X143446477Y-130018396D02*
X143393064Y-130045102D01*
X143393064Y-130045102D02*
X143259533Y-130045102D01*
X143259533Y-130045102D02*
X143179414Y-130018396D01*
X143019176Y-130045102D02*
X142698701Y-130045102D01*
X142858938Y-129484270D02*
X142858938Y-130045102D01*
X142111161Y-129991690D02*
X142084455Y-130018396D01*
X142084455Y-130018396D02*
X142031043Y-130045102D01*
X142031043Y-130045102D02*
X141897511Y-130045102D01*
X141897511Y-130045102D02*
X141844099Y-130018396D01*
X141844099Y-130018396D02*
X141817392Y-129991690D01*
X141817392Y-129991690D02*
X141790686Y-129938277D01*
X141790686Y-129938277D02*
X141790686Y-129884865D01*
X141790686Y-129884865D02*
X141817392Y-129804746D01*
X141817392Y-129804746D02*
X142137868Y-129484270D01*
X142137868Y-129484270D02*
X141790686Y-129484270D01*
X141550329Y-129537683D02*
X141523623Y-129510977D01*
X141523623Y-129510977D02*
X141550329Y-129484270D01*
X141550329Y-129484270D02*
X141577035Y-129510977D01*
X141577035Y-129510977D02*
X141550329Y-129537683D01*
X141550329Y-129537683D02*
X141550329Y-129484270D01*
X141016203Y-130045102D02*
X141283266Y-130045102D01*
X141283266Y-130045102D02*
X141309972Y-129778039D01*
X141309972Y-129778039D02*
X141283266Y-129804746D01*
X141283266Y-129804746D02*
X141229854Y-129831452D01*
X141229854Y-129831452D02*
X141096322Y-129831452D01*
X141096322Y-129831452D02*
X141042910Y-129804746D01*
X141042910Y-129804746D02*
X141016203Y-129778039D01*
X141016203Y-129778039D02*
X140989497Y-129724627D01*
X140989497Y-129724627D02*
X140989497Y-129591095D01*
X140989497Y-129591095D02*
X141016203Y-129537683D01*
X141016203Y-129537683D02*
X141042910Y-129510977D01*
X141042910Y-129510977D02*
X141096322Y-129484270D01*
X141096322Y-129484270D02*
X141229854Y-129484270D01*
X141229854Y-129484270D02*
X141283266Y-129510977D01*
X141283266Y-129510977D02*
X141309972Y-129537683D01*
X140508784Y-129858158D02*
X140508784Y-129484270D01*
X140642315Y-130071809D02*
X140775846Y-129671214D01*
X140775846Y-129671214D02*
X140428665Y-129671214D01*
X140268427Y-130045102D02*
X139894539Y-129484270D01*
X139894539Y-130045102D02*
X140268427Y-129484270D01*
X139707594Y-129991690D02*
X139680888Y-130018396D01*
X139680888Y-130018396D02*
X139627476Y-130045102D01*
X139627476Y-130045102D02*
X139493944Y-130045102D01*
X139493944Y-130045102D02*
X139440532Y-130018396D01*
X139440532Y-130018396D02*
X139413825Y-129991690D01*
X139413825Y-129991690D02*
X139387119Y-129938277D01*
X139387119Y-129938277D02*
X139387119Y-129884865D01*
X139387119Y-129884865D02*
X139413825Y-129804746D01*
X139413825Y-129804746D02*
X139734301Y-129484270D01*
X139734301Y-129484270D02*
X139387119Y-129484270D01*
X139146762Y-129484270D02*
X139146762Y-130045102D01*
X139146762Y-130045102D02*
X138933112Y-130045102D01*
X138933112Y-130045102D02*
X138879699Y-130018396D01*
X138879699Y-130018396D02*
X138852993Y-129991690D01*
X138852993Y-129991690D02*
X138826287Y-129938277D01*
X138826287Y-129938277D02*
X138826287Y-129858158D01*
X138826287Y-129858158D02*
X138852993Y-129804746D01*
X138852993Y-129804746D02*
X138879699Y-129778039D01*
X138879699Y-129778039D02*
X138933112Y-129751333D01*
X138933112Y-129751333D02*
X139146762Y-129751333D01*
X125960246Y-130045102D02*
X125960246Y-129644508D01*
X125960246Y-129644508D02*
X125986953Y-129564389D01*
X125986953Y-129564389D02*
X126040365Y-129510977D01*
X126040365Y-129510977D02*
X126120484Y-129484270D01*
X126120484Y-129484270D02*
X126173897Y-129484270D01*
X125719889Y-129510977D02*
X125639771Y-129484270D01*
X125639771Y-129484270D02*
X125506239Y-129484270D01*
X125506239Y-129484270D02*
X125452827Y-129510977D01*
X125452827Y-129510977D02*
X125426120Y-129537683D01*
X125426120Y-129537683D02*
X125399414Y-129591095D01*
X125399414Y-129591095D02*
X125399414Y-129644508D01*
X125399414Y-129644508D02*
X125426120Y-129697921D01*
X125426120Y-129697921D02*
X125452827Y-129724627D01*
X125452827Y-129724627D02*
X125506239Y-129751333D01*
X125506239Y-129751333D02*
X125613064Y-129778039D01*
X125613064Y-129778039D02*
X125666477Y-129804746D01*
X125666477Y-129804746D02*
X125693183Y-129831452D01*
X125693183Y-129831452D02*
X125719889Y-129884865D01*
X125719889Y-129884865D02*
X125719889Y-129938277D01*
X125719889Y-129938277D02*
X125693183Y-129991690D01*
X125693183Y-129991690D02*
X125666477Y-130018396D01*
X125666477Y-130018396D02*
X125613064Y-130045102D01*
X125613064Y-130045102D02*
X125479533Y-130045102D01*
X125479533Y-130045102D02*
X125399414Y-130018396D01*
X125239176Y-130045102D02*
X124918701Y-130045102D01*
X125078938Y-129484270D02*
X125078938Y-130045102D01*
X124331161Y-129991690D02*
X124304455Y-130018396D01*
X124304455Y-130018396D02*
X124251043Y-130045102D01*
X124251043Y-130045102D02*
X124117511Y-130045102D01*
X124117511Y-130045102D02*
X124064099Y-130018396D01*
X124064099Y-130018396D02*
X124037392Y-129991690D01*
X124037392Y-129991690D02*
X124010686Y-129938277D01*
X124010686Y-129938277D02*
X124010686Y-129884865D01*
X124010686Y-129884865D02*
X124037392Y-129804746D01*
X124037392Y-129804746D02*
X124357868Y-129484270D01*
X124357868Y-129484270D02*
X124010686Y-129484270D01*
X123770329Y-129537683D02*
X123743623Y-129510977D01*
X123743623Y-129510977D02*
X123770329Y-129484270D01*
X123770329Y-129484270D02*
X123797035Y-129510977D01*
X123797035Y-129510977D02*
X123770329Y-129537683D01*
X123770329Y-129537683D02*
X123770329Y-129484270D01*
X123236203Y-130045102D02*
X123503266Y-130045102D01*
X123503266Y-130045102D02*
X123529972Y-129778039D01*
X123529972Y-129778039D02*
X123503266Y-129804746D01*
X123503266Y-129804746D02*
X123449854Y-129831452D01*
X123449854Y-129831452D02*
X123316322Y-129831452D01*
X123316322Y-129831452D02*
X123262910Y-129804746D01*
X123262910Y-129804746D02*
X123236203Y-129778039D01*
X123236203Y-129778039D02*
X123209497Y-129724627D01*
X123209497Y-129724627D02*
X123209497Y-129591095D01*
X123209497Y-129591095D02*
X123236203Y-129537683D01*
X123236203Y-129537683D02*
X123262910Y-129510977D01*
X123262910Y-129510977D02*
X123316322Y-129484270D01*
X123316322Y-129484270D02*
X123449854Y-129484270D01*
X123449854Y-129484270D02*
X123503266Y-129510977D01*
X123503266Y-129510977D02*
X123529972Y-129537683D01*
X122728784Y-129858158D02*
X122728784Y-129484270D01*
X122862315Y-130071809D02*
X122995846Y-129671214D01*
X122995846Y-129671214D02*
X122648665Y-129671214D01*
X122488427Y-130045102D02*
X122114539Y-129484270D01*
X122114539Y-130045102D02*
X122488427Y-129484270D01*
X121927594Y-129991690D02*
X121900888Y-130018396D01*
X121900888Y-130018396D02*
X121847476Y-130045102D01*
X121847476Y-130045102D02*
X121713944Y-130045102D01*
X121713944Y-130045102D02*
X121660532Y-130018396D01*
X121660532Y-130018396D02*
X121633825Y-129991690D01*
X121633825Y-129991690D02*
X121607119Y-129938277D01*
X121607119Y-129938277D02*
X121607119Y-129884865D01*
X121607119Y-129884865D02*
X121633825Y-129804746D01*
X121633825Y-129804746D02*
X121954301Y-129484270D01*
X121954301Y-129484270D02*
X121607119Y-129484270D01*
X121366762Y-129484270D02*
X121366762Y-130045102D01*
X121366762Y-130045102D02*
X121153112Y-130045102D01*
X121153112Y-130045102D02*
X121099699Y-130018396D01*
X121099699Y-130018396D02*
X121072993Y-129991690D01*
X121072993Y-129991690D02*
X121046287Y-129938277D01*
X121046287Y-129938277D02*
X121046287Y-129858158D01*
X121046287Y-129858158D02*
X121072993Y-129804746D01*
X121072993Y-129804746D02*
X121099699Y-129778039D01*
X121099699Y-129778039D02*
X121153112Y-129751333D01*
X121153112Y-129751333D02*
X121366762Y-129751333D01*
D10*
X137848041Y-87382353D02*
X137612184Y-87547453D01*
X137848041Y-87665382D02*
X137352741Y-87665382D01*
X137352741Y-87665382D02*
X137352741Y-87476696D01*
X137352741Y-87476696D02*
X137376327Y-87429525D01*
X137376327Y-87429525D02*
X137399913Y-87405939D01*
X137399913Y-87405939D02*
X137447084Y-87382353D01*
X137447084Y-87382353D02*
X137517841Y-87382353D01*
X137517841Y-87382353D02*
X137565013Y-87405939D01*
X137565013Y-87405939D02*
X137588598Y-87429525D01*
X137588598Y-87429525D02*
X137612184Y-87476696D01*
X137612184Y-87476696D02*
X137612184Y-87665382D01*
X137352741Y-86934225D02*
X137352741Y-87170082D01*
X137352741Y-87170082D02*
X137588598Y-87193668D01*
X137588598Y-87193668D02*
X137565013Y-87170082D01*
X137565013Y-87170082D02*
X137541427Y-87122911D01*
X137541427Y-87122911D02*
X137541427Y-87004982D01*
X137541427Y-87004982D02*
X137565013Y-86957811D01*
X137565013Y-86957811D02*
X137588598Y-86934225D01*
X137588598Y-86934225D02*
X137635770Y-86910639D01*
X137635770Y-86910639D02*
X137753698Y-86910639D01*
X137753698Y-86910639D02*
X137800870Y-86934225D01*
X137800870Y-86934225D02*
X137824456Y-86957811D01*
X137824456Y-86957811D02*
X137848041Y-87004982D01*
X137848041Y-87004982D02*
X137848041Y-87122911D01*
X137848041Y-87122911D02*
X137824456Y-87170082D01*
X137824456Y-87170082D02*
X137800870Y-87193668D01*
D12*
X158335262Y-102309862D02*
X158181169Y-102232815D01*
X158181169Y-102232815D02*
X158027076Y-102078722D01*
X158027076Y-102078722D02*
X157795936Y-101847582D01*
X157795936Y-101847582D02*
X157641842Y-101770535D01*
X157641842Y-101770535D02*
X157487749Y-101770535D01*
X157564796Y-102155768D02*
X157410702Y-102078722D01*
X157410702Y-102078722D02*
X157256609Y-101924628D01*
X157256609Y-101924628D02*
X157179562Y-101616442D01*
X157179562Y-101616442D02*
X157179562Y-101077115D01*
X157179562Y-101077115D02*
X157256609Y-100768928D01*
X157256609Y-100768928D02*
X157410702Y-100614835D01*
X157410702Y-100614835D02*
X157564796Y-100537788D01*
X157564796Y-100537788D02*
X157872982Y-100537788D01*
X157872982Y-100537788D02*
X158027076Y-100614835D01*
X158027076Y-100614835D02*
X158181169Y-100768928D01*
X158181169Y-100768928D02*
X158258216Y-101077115D01*
X158258216Y-101077115D02*
X158258216Y-101616442D01*
X158258216Y-101616442D02*
X158181169Y-101924628D01*
X158181169Y-101924628D02*
X158027076Y-102078722D01*
X158027076Y-102078722D02*
X157872982Y-102155768D01*
X157872982Y-102155768D02*
X157564796Y-102155768D01*
X159799149Y-102155768D02*
X158874589Y-102155768D01*
X159336869Y-102155768D02*
X159336869Y-100537788D01*
X159336869Y-100537788D02*
X159182776Y-100768928D01*
X159182776Y-100768928D02*
X159028683Y-100923022D01*
X159028683Y-100923022D02*
X158874589Y-101000068D01*
D13*
X156375348Y-99333170D02*
X156790457Y-99333170D01*
X156292326Y-99582235D02*
X156582902Y-98710507D01*
X156582902Y-98710507D02*
X156873478Y-99582235D01*
X157620673Y-99582235D02*
X157122543Y-99582235D01*
X157371608Y-99582235D02*
X157371608Y-98710507D01*
X157371608Y-98710507D02*
X157288586Y-98835040D01*
X157288586Y-98835040D02*
X157205565Y-98918062D01*
X157205565Y-98918062D02*
X157122543Y-98959573D01*
X157911249Y-98710507D02*
X158492401Y-98710507D01*
X158492401Y-98710507D02*
X158118803Y-99582235D01*
X158865999Y-99540725D02*
X158865999Y-99582235D01*
X158865999Y-99582235D02*
X158824488Y-99665257D01*
X158824488Y-99665257D02*
X158782977Y-99706768D01*
X159654705Y-98710507D02*
X159239597Y-98710507D01*
X159239597Y-98710507D02*
X159198086Y-99125616D01*
X159198086Y-99125616D02*
X159239597Y-99084105D01*
X159239597Y-99084105D02*
X159322619Y-99042594D01*
X159322619Y-99042594D02*
X159530173Y-99042594D01*
X159530173Y-99042594D02*
X159613195Y-99084105D01*
X159613195Y-99084105D02*
X159654705Y-99125616D01*
X159654705Y-99125616D02*
X159696216Y-99208638D01*
X159696216Y-99208638D02*
X159696216Y-99416192D01*
X159696216Y-99416192D02*
X159654705Y-99499214D01*
X159654705Y-99499214D02*
X159613195Y-99540725D01*
X159613195Y-99540725D02*
X159530173Y-99582235D01*
X159530173Y-99582235D02*
X159322619Y-99582235D01*
X159322619Y-99582235D02*
X159239597Y-99540725D01*
X159239597Y-99540725D02*
X159198086Y-99499214D01*
X160069814Y-99582235D02*
X160069814Y-99001083D01*
X160069814Y-99084105D02*
X160111325Y-99042594D01*
X160111325Y-99042594D02*
X160194346Y-99001083D01*
X160194346Y-99001083D02*
X160318879Y-99001083D01*
X160318879Y-99001083D02*
X160401901Y-99042594D01*
X160401901Y-99042594D02*
X160443412Y-99125616D01*
X160443412Y-99125616D02*
X160443412Y-99582235D01*
X160443412Y-99125616D02*
X160484922Y-99042594D01*
X160484922Y-99042594D02*
X160567944Y-99001083D01*
X160567944Y-99001083D02*
X160692477Y-99001083D01*
X160692477Y-99001083D02*
X160775498Y-99042594D01*
X160775498Y-99042594D02*
X160817009Y-99125616D01*
X160817009Y-99125616D02*
X160817009Y-99582235D01*
X161232118Y-99582235D02*
X161232118Y-99001083D01*
X161232118Y-99084105D02*
X161273629Y-99042594D01*
X161273629Y-99042594D02*
X161356650Y-99001083D01*
X161356650Y-99001083D02*
X161481183Y-99001083D01*
X161481183Y-99001083D02*
X161564205Y-99042594D01*
X161564205Y-99042594D02*
X161605716Y-99125616D01*
X161605716Y-99125616D02*
X161605716Y-99582235D01*
X161605716Y-99125616D02*
X161647226Y-99042594D01*
X161647226Y-99042594D02*
X161730248Y-99001083D01*
X161730248Y-99001083D02*
X161854781Y-99001083D01*
X161854781Y-99001083D02*
X161937802Y-99042594D01*
X161937802Y-99042594D02*
X161979313Y-99125616D01*
X161979313Y-99125616D02*
X161979313Y-99582235D01*
D12*
X145635262Y-102309862D02*
X145481169Y-102232815D01*
X145481169Y-102232815D02*
X145327076Y-102078722D01*
X145327076Y-102078722D02*
X145095936Y-101847582D01*
X145095936Y-101847582D02*
X144941842Y-101770535D01*
X144941842Y-101770535D02*
X144787749Y-101770535D01*
X144864796Y-102155768D02*
X144710702Y-102078722D01*
X144710702Y-102078722D02*
X144556609Y-101924628D01*
X144556609Y-101924628D02*
X144479562Y-101616442D01*
X144479562Y-101616442D02*
X144479562Y-101077115D01*
X144479562Y-101077115D02*
X144556609Y-100768928D01*
X144556609Y-100768928D02*
X144710702Y-100614835D01*
X144710702Y-100614835D02*
X144864796Y-100537788D01*
X144864796Y-100537788D02*
X145172982Y-100537788D01*
X145172982Y-100537788D02*
X145327076Y-100614835D01*
X145327076Y-100614835D02*
X145481169Y-100768928D01*
X145481169Y-100768928D02*
X145558216Y-101077115D01*
X145558216Y-101077115D02*
X145558216Y-101616442D01*
X145558216Y-101616442D02*
X145481169Y-101924628D01*
X145481169Y-101924628D02*
X145327076Y-102078722D01*
X145327076Y-102078722D02*
X145172982Y-102155768D01*
X145172982Y-102155768D02*
X144864796Y-102155768D01*
X146097543Y-100537788D02*
X147099149Y-100537788D01*
X147099149Y-100537788D02*
X146559823Y-101154162D01*
X146559823Y-101154162D02*
X146790963Y-101154162D01*
X146790963Y-101154162D02*
X146945056Y-101231208D01*
X146945056Y-101231208D02*
X147022103Y-101308255D01*
X147022103Y-101308255D02*
X147099149Y-101462348D01*
X147099149Y-101462348D02*
X147099149Y-101847582D01*
X147099149Y-101847582D02*
X147022103Y-102001675D01*
X147022103Y-102001675D02*
X146945056Y-102078722D01*
X146945056Y-102078722D02*
X146790963Y-102155768D01*
X146790963Y-102155768D02*
X146328683Y-102155768D01*
X146328683Y-102155768D02*
X146174589Y-102078722D01*
X146174589Y-102078722D02*
X146097543Y-102001675D01*
D13*
X143675348Y-99333170D02*
X144090457Y-99333170D01*
X143592326Y-99582235D02*
X143882902Y-98710507D01*
X143882902Y-98710507D02*
X144173478Y-99582235D01*
X144920673Y-99582235D02*
X144422543Y-99582235D01*
X144671608Y-99582235D02*
X144671608Y-98710507D01*
X144671608Y-98710507D02*
X144588586Y-98835040D01*
X144588586Y-98835040D02*
X144505565Y-98918062D01*
X144505565Y-98918062D02*
X144422543Y-98959573D01*
X145211249Y-98710507D02*
X145792401Y-98710507D01*
X145792401Y-98710507D02*
X145418803Y-99582235D01*
X146165999Y-99540725D02*
X146165999Y-99582235D01*
X146165999Y-99582235D02*
X146124488Y-99665257D01*
X146124488Y-99665257D02*
X146082977Y-99706768D01*
X146954705Y-98710507D02*
X146539597Y-98710507D01*
X146539597Y-98710507D02*
X146498086Y-99125616D01*
X146498086Y-99125616D02*
X146539597Y-99084105D01*
X146539597Y-99084105D02*
X146622619Y-99042594D01*
X146622619Y-99042594D02*
X146830173Y-99042594D01*
X146830173Y-99042594D02*
X146913195Y-99084105D01*
X146913195Y-99084105D02*
X146954705Y-99125616D01*
X146954705Y-99125616D02*
X146996216Y-99208638D01*
X146996216Y-99208638D02*
X146996216Y-99416192D01*
X146996216Y-99416192D02*
X146954705Y-99499214D01*
X146954705Y-99499214D02*
X146913195Y-99540725D01*
X146913195Y-99540725D02*
X146830173Y-99582235D01*
X146830173Y-99582235D02*
X146622619Y-99582235D01*
X146622619Y-99582235D02*
X146539597Y-99540725D01*
X146539597Y-99540725D02*
X146498086Y-99499214D01*
X147369814Y-99582235D02*
X147369814Y-99001083D01*
X147369814Y-99084105D02*
X147411325Y-99042594D01*
X147411325Y-99042594D02*
X147494346Y-99001083D01*
X147494346Y-99001083D02*
X147618879Y-99001083D01*
X147618879Y-99001083D02*
X147701901Y-99042594D01*
X147701901Y-99042594D02*
X147743412Y-99125616D01*
X147743412Y-99125616D02*
X147743412Y-99582235D01*
X147743412Y-99125616D02*
X147784922Y-99042594D01*
X147784922Y-99042594D02*
X147867944Y-99001083D01*
X147867944Y-99001083D02*
X147992477Y-99001083D01*
X147992477Y-99001083D02*
X148075498Y-99042594D01*
X148075498Y-99042594D02*
X148117009Y-99125616D01*
X148117009Y-99125616D02*
X148117009Y-99582235D01*
X148532118Y-99582235D02*
X148532118Y-99001083D01*
X148532118Y-99084105D02*
X148573629Y-99042594D01*
X148573629Y-99042594D02*
X148656650Y-99001083D01*
X148656650Y-99001083D02*
X148781183Y-99001083D01*
X148781183Y-99001083D02*
X148864205Y-99042594D01*
X148864205Y-99042594D02*
X148905716Y-99125616D01*
X148905716Y-99125616D02*
X148905716Y-99582235D01*
X148905716Y-99125616D02*
X148947226Y-99042594D01*
X148947226Y-99042594D02*
X149030248Y-99001083D01*
X149030248Y-99001083D02*
X149154781Y-99001083D01*
X149154781Y-99001083D02*
X149237802Y-99042594D01*
X149237802Y-99042594D02*
X149279313Y-99125616D01*
X149279313Y-99125616D02*
X149279313Y-99582235D01*
D11*
X159885953Y-121923097D02*
X159885953Y-122323691D01*
X159885953Y-122323691D02*
X159859246Y-122403810D01*
X159859246Y-122403810D02*
X159805834Y-122457223D01*
X159805834Y-122457223D02*
X159725715Y-122483929D01*
X159725715Y-122483929D02*
X159672302Y-122483929D01*
X160126310Y-122457223D02*
X160206429Y-122483929D01*
X160206429Y-122483929D02*
X160339960Y-122483929D01*
X160339960Y-122483929D02*
X160393373Y-122457223D01*
X160393373Y-122457223D02*
X160420079Y-122430516D01*
X160420079Y-122430516D02*
X160446785Y-122377104D01*
X160446785Y-122377104D02*
X160446785Y-122323691D01*
X160446785Y-122323691D02*
X160420079Y-122270279D01*
X160420079Y-122270279D02*
X160393373Y-122243572D01*
X160393373Y-122243572D02*
X160339960Y-122216866D01*
X160339960Y-122216866D02*
X160233135Y-122190160D01*
X160233135Y-122190160D02*
X160179722Y-122163453D01*
X160179722Y-122163453D02*
X160153016Y-122136747D01*
X160153016Y-122136747D02*
X160126310Y-122083335D01*
X160126310Y-122083335D02*
X160126310Y-122029922D01*
X160126310Y-122029922D02*
X160153016Y-121976509D01*
X160153016Y-121976509D02*
X160179722Y-121949803D01*
X160179722Y-121949803D02*
X160233135Y-121923097D01*
X160233135Y-121923097D02*
X160366666Y-121923097D01*
X160366666Y-121923097D02*
X160446785Y-121949803D01*
X160607023Y-121923097D02*
X160927499Y-121923097D01*
X160767261Y-122483929D02*
X160767261Y-121923097D01*
X161515038Y-121976509D02*
X161541744Y-121949803D01*
X161541744Y-121949803D02*
X161595157Y-121923097D01*
X161595157Y-121923097D02*
X161728688Y-121923097D01*
X161728688Y-121923097D02*
X161782101Y-121949803D01*
X161782101Y-121949803D02*
X161808807Y-121976509D01*
X161808807Y-121976509D02*
X161835513Y-122029922D01*
X161835513Y-122029922D02*
X161835513Y-122083335D01*
X161835513Y-122083335D02*
X161808807Y-122163453D01*
X161808807Y-122163453D02*
X161488331Y-122483929D01*
X161488331Y-122483929D02*
X161835513Y-122483929D01*
X162075870Y-122430516D02*
X162102576Y-122457223D01*
X162102576Y-122457223D02*
X162075870Y-122483929D01*
X162075870Y-122483929D02*
X162049164Y-122457223D01*
X162049164Y-122457223D02*
X162075870Y-122430516D01*
X162075870Y-122430516D02*
X162075870Y-122483929D01*
X162609996Y-121923097D02*
X162342933Y-121923097D01*
X162342933Y-121923097D02*
X162316227Y-122190160D01*
X162316227Y-122190160D02*
X162342933Y-122163453D01*
X162342933Y-122163453D02*
X162396346Y-122136747D01*
X162396346Y-122136747D02*
X162529877Y-122136747D01*
X162529877Y-122136747D02*
X162583290Y-122163453D01*
X162583290Y-122163453D02*
X162609996Y-122190160D01*
X162609996Y-122190160D02*
X162636702Y-122243572D01*
X162636702Y-122243572D02*
X162636702Y-122377104D01*
X162636702Y-122377104D02*
X162609996Y-122430516D01*
X162609996Y-122430516D02*
X162583290Y-122457223D01*
X162583290Y-122457223D02*
X162529877Y-122483929D01*
X162529877Y-122483929D02*
X162396346Y-122483929D01*
X162396346Y-122483929D02*
X162342933Y-122457223D01*
X162342933Y-122457223D02*
X162316227Y-122430516D01*
X163117416Y-122110041D02*
X163117416Y-122483929D01*
X162983884Y-121896391D02*
X162850353Y-122296985D01*
X162850353Y-122296985D02*
X163197534Y-122296985D01*
X163357772Y-121923097D02*
X163731660Y-122483929D01*
X163731660Y-121923097D02*
X163357772Y-122483929D01*
X163918605Y-121976509D02*
X163945311Y-121949803D01*
X163945311Y-121949803D02*
X163998724Y-121923097D01*
X163998724Y-121923097D02*
X164132255Y-121923097D01*
X164132255Y-121923097D02*
X164185668Y-121949803D01*
X164185668Y-121949803D02*
X164212374Y-121976509D01*
X164212374Y-121976509D02*
X164239080Y-122029922D01*
X164239080Y-122029922D02*
X164239080Y-122083335D01*
X164239080Y-122083335D02*
X164212374Y-122163453D01*
X164212374Y-122163453D02*
X163891898Y-122483929D01*
X163891898Y-122483929D02*
X164239080Y-122483929D01*
X164479437Y-122483929D02*
X164479437Y-121923097D01*
X164479437Y-121923097D02*
X164693087Y-121923097D01*
X164693087Y-121923097D02*
X164746500Y-121949803D01*
X164746500Y-121949803D02*
X164773206Y-121976509D01*
X164773206Y-121976509D02*
X164799912Y-122029922D01*
X164799912Y-122029922D02*
X164799912Y-122110041D01*
X164799912Y-122110041D02*
X164773206Y-122163453D01*
X164773206Y-122163453D02*
X164746500Y-122190160D01*
X164746500Y-122190160D02*
X164693087Y-122216866D01*
X164693087Y-122216866D02*
X164479437Y-122216866D01*
X171061953Y-82553097D02*
X171061953Y-82953691D01*
X171061953Y-82953691D02*
X171035246Y-83033810D01*
X171035246Y-83033810D02*
X170981834Y-83087223D01*
X170981834Y-83087223D02*
X170901715Y-83113929D01*
X170901715Y-83113929D02*
X170848302Y-83113929D01*
X171302310Y-83087223D02*
X171382429Y-83113929D01*
X171382429Y-83113929D02*
X171515960Y-83113929D01*
X171515960Y-83113929D02*
X171569373Y-83087223D01*
X171569373Y-83087223D02*
X171596079Y-83060516D01*
X171596079Y-83060516D02*
X171622785Y-83007104D01*
X171622785Y-83007104D02*
X171622785Y-82953691D01*
X171622785Y-82953691D02*
X171596079Y-82900279D01*
X171596079Y-82900279D02*
X171569373Y-82873572D01*
X171569373Y-82873572D02*
X171515960Y-82846866D01*
X171515960Y-82846866D02*
X171409135Y-82820160D01*
X171409135Y-82820160D02*
X171355722Y-82793453D01*
X171355722Y-82793453D02*
X171329016Y-82766747D01*
X171329016Y-82766747D02*
X171302310Y-82713335D01*
X171302310Y-82713335D02*
X171302310Y-82659922D01*
X171302310Y-82659922D02*
X171329016Y-82606509D01*
X171329016Y-82606509D02*
X171355722Y-82579803D01*
X171355722Y-82579803D02*
X171409135Y-82553097D01*
X171409135Y-82553097D02*
X171542666Y-82553097D01*
X171542666Y-82553097D02*
X171622785Y-82579803D01*
X171783023Y-82553097D02*
X172103499Y-82553097D01*
X171943261Y-83113929D02*
X171943261Y-82553097D01*
X172691038Y-82606509D02*
X172717744Y-82579803D01*
X172717744Y-82579803D02*
X172771157Y-82553097D01*
X172771157Y-82553097D02*
X172904688Y-82553097D01*
X172904688Y-82553097D02*
X172958101Y-82579803D01*
X172958101Y-82579803D02*
X172984807Y-82606509D01*
X172984807Y-82606509D02*
X173011513Y-82659922D01*
X173011513Y-82659922D02*
X173011513Y-82713335D01*
X173011513Y-82713335D02*
X172984807Y-82793453D01*
X172984807Y-82793453D02*
X172664331Y-83113929D01*
X172664331Y-83113929D02*
X173011513Y-83113929D01*
X173251870Y-83060516D02*
X173278576Y-83087223D01*
X173278576Y-83087223D02*
X173251870Y-83113929D01*
X173251870Y-83113929D02*
X173225164Y-83087223D01*
X173225164Y-83087223D02*
X173251870Y-83060516D01*
X173251870Y-83060516D02*
X173251870Y-83113929D01*
X173785996Y-82553097D02*
X173518933Y-82553097D01*
X173518933Y-82553097D02*
X173492227Y-82820160D01*
X173492227Y-82820160D02*
X173518933Y-82793453D01*
X173518933Y-82793453D02*
X173572346Y-82766747D01*
X173572346Y-82766747D02*
X173705877Y-82766747D01*
X173705877Y-82766747D02*
X173759290Y-82793453D01*
X173759290Y-82793453D02*
X173785996Y-82820160D01*
X173785996Y-82820160D02*
X173812702Y-82873572D01*
X173812702Y-82873572D02*
X173812702Y-83007104D01*
X173812702Y-83007104D02*
X173785996Y-83060516D01*
X173785996Y-83060516D02*
X173759290Y-83087223D01*
X173759290Y-83087223D02*
X173705877Y-83113929D01*
X173705877Y-83113929D02*
X173572346Y-83113929D01*
X173572346Y-83113929D02*
X173518933Y-83087223D01*
X173518933Y-83087223D02*
X173492227Y-83060516D01*
X174293416Y-82740041D02*
X174293416Y-83113929D01*
X174159884Y-82526391D02*
X174026353Y-82926985D01*
X174026353Y-82926985D02*
X174373534Y-82926985D01*
X174533772Y-82553097D02*
X174907660Y-83113929D01*
X174907660Y-82553097D02*
X174533772Y-83113929D01*
X175094605Y-82606509D02*
X175121311Y-82579803D01*
X175121311Y-82579803D02*
X175174724Y-82553097D01*
X175174724Y-82553097D02*
X175308255Y-82553097D01*
X175308255Y-82553097D02*
X175361668Y-82579803D01*
X175361668Y-82579803D02*
X175388374Y-82606509D01*
X175388374Y-82606509D02*
X175415080Y-82659922D01*
X175415080Y-82659922D02*
X175415080Y-82713335D01*
X175415080Y-82713335D02*
X175388374Y-82793453D01*
X175388374Y-82793453D02*
X175067898Y-83113929D01*
X175067898Y-83113929D02*
X175415080Y-83113929D01*
X175655437Y-83113929D02*
X175655437Y-82553097D01*
X175655437Y-82553097D02*
X175869087Y-82553097D01*
X175869087Y-82553097D02*
X175922500Y-82579803D01*
X175922500Y-82579803D02*
X175949206Y-82606509D01*
X175949206Y-82606509D02*
X175975912Y-82659922D01*
X175975912Y-82659922D02*
X175975912Y-82740041D01*
X175975912Y-82740041D02*
X175949206Y-82793453D01*
X175949206Y-82793453D02*
X175922500Y-82820160D01*
X175922500Y-82820160D02*
X175869087Y-82846866D01*
X175869087Y-82846866D02*
X175655437Y-82846866D01*
D10*
X139047889Y-106806097D02*
X138497556Y-107191330D01*
X139047889Y-107466497D02*
X137892189Y-107466497D01*
X137892189Y-107466497D02*
X137892189Y-107026230D01*
X137892189Y-107026230D02*
X137947222Y-106916164D01*
X137947222Y-106916164D02*
X138002256Y-106861130D01*
X138002256Y-106861130D02*
X138112322Y-106806097D01*
X138112322Y-106806097D02*
X138277422Y-106806097D01*
X138277422Y-106806097D02*
X138387489Y-106861130D01*
X138387489Y-106861130D02*
X138442522Y-106916164D01*
X138442522Y-106916164D02*
X138497556Y-107026230D01*
X138497556Y-107026230D02*
X138497556Y-107466497D01*
X137892189Y-106420864D02*
X137892189Y-105650397D01*
X137892189Y-105650397D02*
X139047889Y-106145697D01*
X124984254Y-101533540D02*
X124819154Y-101297683D01*
X124701225Y-101533540D02*
X124701225Y-101038240D01*
X124701225Y-101038240D02*
X124889911Y-101038240D01*
X124889911Y-101038240D02*
X124937082Y-101061826D01*
X124937082Y-101061826D02*
X124960668Y-101085412D01*
X124960668Y-101085412D02*
X124984254Y-101132583D01*
X124984254Y-101132583D02*
X124984254Y-101203340D01*
X124984254Y-101203340D02*
X124960668Y-101250512D01*
X124960668Y-101250512D02*
X124937082Y-101274097D01*
X124937082Y-101274097D02*
X124889911Y-101297683D01*
X124889911Y-101297683D02*
X124701225Y-101297683D01*
X125408797Y-101038240D02*
X125314454Y-101038240D01*
X125314454Y-101038240D02*
X125267282Y-101061826D01*
X125267282Y-101061826D02*
X125243697Y-101085412D01*
X125243697Y-101085412D02*
X125196525Y-101156169D01*
X125196525Y-101156169D02*
X125172939Y-101250512D01*
X125172939Y-101250512D02*
X125172939Y-101439197D01*
X125172939Y-101439197D02*
X125196525Y-101486369D01*
X125196525Y-101486369D02*
X125220111Y-101509955D01*
X125220111Y-101509955D02*
X125267282Y-101533540D01*
X125267282Y-101533540D02*
X125361625Y-101533540D01*
X125361625Y-101533540D02*
X125408797Y-101509955D01*
X125408797Y-101509955D02*
X125432382Y-101486369D01*
X125432382Y-101486369D02*
X125455968Y-101439197D01*
X125455968Y-101439197D02*
X125455968Y-101321269D01*
X125455968Y-101321269D02*
X125432382Y-101274097D01*
X125432382Y-101274097D02*
X125408797Y-101250512D01*
X125408797Y-101250512D02*
X125361625Y-101226926D01*
X125361625Y-101226926D02*
X125267282Y-101226926D01*
X125267282Y-101226926D02*
X125220111Y-101250512D01*
X125220111Y-101250512D02*
X125196525Y-101274097D01*
X125196525Y-101274097D02*
X125172939Y-101321269D01*
X123906568Y-105356240D02*
X124000911Y-105356240D01*
X124000911Y-105356240D02*
X124048082Y-105379826D01*
X124048082Y-105379826D02*
X124095254Y-105426997D01*
X124095254Y-105426997D02*
X124118839Y-105521340D01*
X124118839Y-105521340D02*
X124118839Y-105686440D01*
X124118839Y-105686440D02*
X124095254Y-105780783D01*
X124095254Y-105780783D02*
X124048082Y-105827955D01*
X124048082Y-105827955D02*
X124000911Y-105851540D01*
X124000911Y-105851540D02*
X123906568Y-105851540D01*
X123906568Y-105851540D02*
X123859397Y-105827955D01*
X123859397Y-105827955D02*
X123812225Y-105780783D01*
X123812225Y-105780783D02*
X123788639Y-105686440D01*
X123788639Y-105686440D02*
X123788639Y-105521340D01*
X123788639Y-105521340D02*
X123812225Y-105426997D01*
X123812225Y-105426997D02*
X123859397Y-105379826D01*
X123859397Y-105379826D02*
X123906568Y-105356240D01*
X124331111Y-105851540D02*
X124331111Y-105356240D01*
X124331111Y-105356240D02*
X124519797Y-105356240D01*
X124519797Y-105356240D02*
X124566968Y-105379826D01*
X124566968Y-105379826D02*
X124590554Y-105403412D01*
X124590554Y-105403412D02*
X124614140Y-105450583D01*
X124614140Y-105450583D02*
X124614140Y-105521340D01*
X124614140Y-105521340D02*
X124590554Y-105568512D01*
X124590554Y-105568512D02*
X124566968Y-105592097D01*
X124566968Y-105592097D02*
X124519797Y-105615683D01*
X124519797Y-105615683D02*
X124331111Y-105615683D01*
X124802825Y-105403412D02*
X124826411Y-105379826D01*
X124826411Y-105379826D02*
X124873583Y-105356240D01*
X124873583Y-105356240D02*
X124991511Y-105356240D01*
X124991511Y-105356240D02*
X125038683Y-105379826D01*
X125038683Y-105379826D02*
X125062268Y-105403412D01*
X125062268Y-105403412D02*
X125085854Y-105450583D01*
X125085854Y-105450583D02*
X125085854Y-105497755D01*
X125085854Y-105497755D02*
X125062268Y-105568512D01*
X125062268Y-105568512D02*
X124779240Y-105851540D01*
X124779240Y-105851540D02*
X125085854Y-105851540D01*
D11*
X166473246Y-89405102D02*
X166473246Y-89004508D01*
X166473246Y-89004508D02*
X166499953Y-88924389D01*
X166499953Y-88924389D02*
X166553365Y-88870977D01*
X166553365Y-88870977D02*
X166633484Y-88844270D01*
X166633484Y-88844270D02*
X166686897Y-88844270D01*
X166232889Y-88870977D02*
X166152771Y-88844270D01*
X166152771Y-88844270D02*
X166019239Y-88844270D01*
X166019239Y-88844270D02*
X165965827Y-88870977D01*
X165965827Y-88870977D02*
X165939120Y-88897683D01*
X165939120Y-88897683D02*
X165912414Y-88951095D01*
X165912414Y-88951095D02*
X165912414Y-89004508D01*
X165912414Y-89004508D02*
X165939120Y-89057921D01*
X165939120Y-89057921D02*
X165965827Y-89084627D01*
X165965827Y-89084627D02*
X166019239Y-89111333D01*
X166019239Y-89111333D02*
X166126064Y-89138039D01*
X166126064Y-89138039D02*
X166179477Y-89164746D01*
X166179477Y-89164746D02*
X166206183Y-89191452D01*
X166206183Y-89191452D02*
X166232889Y-89244865D01*
X166232889Y-89244865D02*
X166232889Y-89298277D01*
X166232889Y-89298277D02*
X166206183Y-89351690D01*
X166206183Y-89351690D02*
X166179477Y-89378396D01*
X166179477Y-89378396D02*
X166126064Y-89405102D01*
X166126064Y-89405102D02*
X165992533Y-89405102D01*
X165992533Y-89405102D02*
X165912414Y-89378396D01*
X165752176Y-89405102D02*
X165431701Y-89405102D01*
X165591938Y-88844270D02*
X165591938Y-89405102D01*
X164844161Y-89351690D02*
X164817455Y-89378396D01*
X164817455Y-89378396D02*
X164764043Y-89405102D01*
X164764043Y-89405102D02*
X164630511Y-89405102D01*
X164630511Y-89405102D02*
X164577099Y-89378396D01*
X164577099Y-89378396D02*
X164550392Y-89351690D01*
X164550392Y-89351690D02*
X164523686Y-89298277D01*
X164523686Y-89298277D02*
X164523686Y-89244865D01*
X164523686Y-89244865D02*
X164550392Y-89164746D01*
X164550392Y-89164746D02*
X164870868Y-88844270D01*
X164870868Y-88844270D02*
X164523686Y-88844270D01*
X164283329Y-88897683D02*
X164256623Y-88870977D01*
X164256623Y-88870977D02*
X164283329Y-88844270D01*
X164283329Y-88844270D02*
X164310035Y-88870977D01*
X164310035Y-88870977D02*
X164283329Y-88897683D01*
X164283329Y-88897683D02*
X164283329Y-88844270D01*
X163749203Y-89405102D02*
X164016266Y-89405102D01*
X164016266Y-89405102D02*
X164042972Y-89138039D01*
X164042972Y-89138039D02*
X164016266Y-89164746D01*
X164016266Y-89164746D02*
X163962854Y-89191452D01*
X163962854Y-89191452D02*
X163829322Y-89191452D01*
X163829322Y-89191452D02*
X163775910Y-89164746D01*
X163775910Y-89164746D02*
X163749203Y-89138039D01*
X163749203Y-89138039D02*
X163722497Y-89084627D01*
X163722497Y-89084627D02*
X163722497Y-88951095D01*
X163722497Y-88951095D02*
X163749203Y-88897683D01*
X163749203Y-88897683D02*
X163775910Y-88870977D01*
X163775910Y-88870977D02*
X163829322Y-88844270D01*
X163829322Y-88844270D02*
X163962854Y-88844270D01*
X163962854Y-88844270D02*
X164016266Y-88870977D01*
X164016266Y-88870977D02*
X164042972Y-88897683D01*
X163241784Y-89218158D02*
X163241784Y-88844270D01*
X163375315Y-89431809D02*
X163508846Y-89031214D01*
X163508846Y-89031214D02*
X163161665Y-89031214D01*
X163001427Y-89405102D02*
X162627539Y-88844270D01*
X162627539Y-89405102D02*
X163001427Y-88844270D01*
X162440594Y-89351690D02*
X162413888Y-89378396D01*
X162413888Y-89378396D02*
X162360476Y-89405102D01*
X162360476Y-89405102D02*
X162226944Y-89405102D01*
X162226944Y-89405102D02*
X162173532Y-89378396D01*
X162173532Y-89378396D02*
X162146825Y-89351690D01*
X162146825Y-89351690D02*
X162120119Y-89298277D01*
X162120119Y-89298277D02*
X162120119Y-89244865D01*
X162120119Y-89244865D02*
X162146825Y-89164746D01*
X162146825Y-89164746D02*
X162467301Y-88844270D01*
X162467301Y-88844270D02*
X162120119Y-88844270D01*
X161879762Y-88844270D02*
X161879762Y-89405102D01*
X161879762Y-89405102D02*
X161666112Y-89405102D01*
X161666112Y-89405102D02*
X161612699Y-89378396D01*
X161612699Y-89378396D02*
X161585993Y-89351690D01*
X161585993Y-89351690D02*
X161559287Y-89298277D01*
X161559287Y-89298277D02*
X161559287Y-89218158D01*
X161559287Y-89218158D02*
X161585993Y-89164746D01*
X161585993Y-89164746D02*
X161612699Y-89138039D01*
X161612699Y-89138039D02*
X161666112Y-89111333D01*
X161666112Y-89111333D02*
X161879762Y-89111333D01*
X168521953Y-121923097D02*
X168521953Y-122323691D01*
X168521953Y-122323691D02*
X168495246Y-122403810D01*
X168495246Y-122403810D02*
X168441834Y-122457223D01*
X168441834Y-122457223D02*
X168361715Y-122483929D01*
X168361715Y-122483929D02*
X168308302Y-122483929D01*
X168762310Y-122457223D02*
X168842429Y-122483929D01*
X168842429Y-122483929D02*
X168975960Y-122483929D01*
X168975960Y-122483929D02*
X169029373Y-122457223D01*
X169029373Y-122457223D02*
X169056079Y-122430516D01*
X169056079Y-122430516D02*
X169082785Y-122377104D01*
X169082785Y-122377104D02*
X169082785Y-122323691D01*
X169082785Y-122323691D02*
X169056079Y-122270279D01*
X169056079Y-122270279D02*
X169029373Y-122243572D01*
X169029373Y-122243572D02*
X168975960Y-122216866D01*
X168975960Y-122216866D02*
X168869135Y-122190160D01*
X168869135Y-122190160D02*
X168815722Y-122163453D01*
X168815722Y-122163453D02*
X168789016Y-122136747D01*
X168789016Y-122136747D02*
X168762310Y-122083335D01*
X168762310Y-122083335D02*
X168762310Y-122029922D01*
X168762310Y-122029922D02*
X168789016Y-121976509D01*
X168789016Y-121976509D02*
X168815722Y-121949803D01*
X168815722Y-121949803D02*
X168869135Y-121923097D01*
X168869135Y-121923097D02*
X169002666Y-121923097D01*
X169002666Y-121923097D02*
X169082785Y-121949803D01*
X169243023Y-121923097D02*
X169563499Y-121923097D01*
X169403261Y-122483929D02*
X169403261Y-121923097D01*
X170151038Y-121976509D02*
X170177744Y-121949803D01*
X170177744Y-121949803D02*
X170231157Y-121923097D01*
X170231157Y-121923097D02*
X170364688Y-121923097D01*
X170364688Y-121923097D02*
X170418101Y-121949803D01*
X170418101Y-121949803D02*
X170444807Y-121976509D01*
X170444807Y-121976509D02*
X170471513Y-122029922D01*
X170471513Y-122029922D02*
X170471513Y-122083335D01*
X170471513Y-122083335D02*
X170444807Y-122163453D01*
X170444807Y-122163453D02*
X170124331Y-122483929D01*
X170124331Y-122483929D02*
X170471513Y-122483929D01*
X170711870Y-122430516D02*
X170738576Y-122457223D01*
X170738576Y-122457223D02*
X170711870Y-122483929D01*
X170711870Y-122483929D02*
X170685164Y-122457223D01*
X170685164Y-122457223D02*
X170711870Y-122430516D01*
X170711870Y-122430516D02*
X170711870Y-122483929D01*
X171245996Y-121923097D02*
X170978933Y-121923097D01*
X170978933Y-121923097D02*
X170952227Y-122190160D01*
X170952227Y-122190160D02*
X170978933Y-122163453D01*
X170978933Y-122163453D02*
X171032346Y-122136747D01*
X171032346Y-122136747D02*
X171165877Y-122136747D01*
X171165877Y-122136747D02*
X171219290Y-122163453D01*
X171219290Y-122163453D02*
X171245996Y-122190160D01*
X171245996Y-122190160D02*
X171272702Y-122243572D01*
X171272702Y-122243572D02*
X171272702Y-122377104D01*
X171272702Y-122377104D02*
X171245996Y-122430516D01*
X171245996Y-122430516D02*
X171219290Y-122457223D01*
X171219290Y-122457223D02*
X171165877Y-122483929D01*
X171165877Y-122483929D02*
X171032346Y-122483929D01*
X171032346Y-122483929D02*
X170978933Y-122457223D01*
X170978933Y-122457223D02*
X170952227Y-122430516D01*
X171753416Y-122110041D02*
X171753416Y-122483929D01*
X171619884Y-121896391D02*
X171486353Y-122296985D01*
X171486353Y-122296985D02*
X171833534Y-122296985D01*
X171993772Y-121923097D02*
X172367660Y-122483929D01*
X172367660Y-121923097D02*
X171993772Y-122483929D01*
X172554605Y-121976509D02*
X172581311Y-121949803D01*
X172581311Y-121949803D02*
X172634724Y-121923097D01*
X172634724Y-121923097D02*
X172768255Y-121923097D01*
X172768255Y-121923097D02*
X172821668Y-121949803D01*
X172821668Y-121949803D02*
X172848374Y-121976509D01*
X172848374Y-121976509D02*
X172875080Y-122029922D01*
X172875080Y-122029922D02*
X172875080Y-122083335D01*
X172875080Y-122083335D02*
X172848374Y-122163453D01*
X172848374Y-122163453D02*
X172527898Y-122483929D01*
X172527898Y-122483929D02*
X172875080Y-122483929D01*
X173115437Y-122483929D02*
X173115437Y-121923097D01*
X173115437Y-121923097D02*
X173329087Y-121923097D01*
X173329087Y-121923097D02*
X173382500Y-121949803D01*
X173382500Y-121949803D02*
X173409206Y-121976509D01*
X173409206Y-121976509D02*
X173435912Y-122029922D01*
X173435912Y-122029922D02*
X173435912Y-122110041D01*
X173435912Y-122110041D02*
X173409206Y-122163453D01*
X173409206Y-122163453D02*
X173382500Y-122190160D01*
X173382500Y-122190160D02*
X173329087Y-122216866D01*
X173329087Y-122216866D02*
X173115437Y-122216866D01*
D10*
X123906568Y-86306240D02*
X124000911Y-86306240D01*
X124000911Y-86306240D02*
X124048082Y-86329826D01*
X124048082Y-86329826D02*
X124095254Y-86376997D01*
X124095254Y-86376997D02*
X124118839Y-86471340D01*
X124118839Y-86471340D02*
X124118839Y-86636440D01*
X124118839Y-86636440D02*
X124095254Y-86730783D01*
X124095254Y-86730783D02*
X124048082Y-86777955D01*
X124048082Y-86777955D02*
X124000911Y-86801540D01*
X124000911Y-86801540D02*
X123906568Y-86801540D01*
X123906568Y-86801540D02*
X123859397Y-86777955D01*
X123859397Y-86777955D02*
X123812225Y-86730783D01*
X123812225Y-86730783D02*
X123788639Y-86636440D01*
X123788639Y-86636440D02*
X123788639Y-86471340D01*
X123788639Y-86471340D02*
X123812225Y-86376997D01*
X123812225Y-86376997D02*
X123859397Y-86329826D01*
X123859397Y-86329826D02*
X123906568Y-86306240D01*
X124331111Y-86801540D02*
X124331111Y-86306240D01*
X124331111Y-86306240D02*
X124519797Y-86306240D01*
X124519797Y-86306240D02*
X124566968Y-86329826D01*
X124566968Y-86329826D02*
X124590554Y-86353412D01*
X124590554Y-86353412D02*
X124614140Y-86400583D01*
X124614140Y-86400583D02*
X124614140Y-86471340D01*
X124614140Y-86471340D02*
X124590554Y-86518512D01*
X124590554Y-86518512D02*
X124566968Y-86542097D01*
X124566968Y-86542097D02*
X124519797Y-86565683D01*
X124519797Y-86565683D02*
X124331111Y-86565683D01*
X125085854Y-86801540D02*
X124802825Y-86801540D01*
X124944340Y-86801540D02*
X124944340Y-86306240D01*
X124944340Y-86306240D02*
X124897168Y-86376997D01*
X124897168Y-86376997D02*
X124849997Y-86424169D01*
X124849997Y-86424169D02*
X124802825Y-86447755D01*
D11*
X130421953Y-123193097D02*
X130421953Y-123593691D01*
X130421953Y-123593691D02*
X130395246Y-123673810D01*
X130395246Y-123673810D02*
X130341834Y-123727223D01*
X130341834Y-123727223D02*
X130261715Y-123753929D01*
X130261715Y-123753929D02*
X130208302Y-123753929D01*
X130662310Y-123727223D02*
X130742429Y-123753929D01*
X130742429Y-123753929D02*
X130875960Y-123753929D01*
X130875960Y-123753929D02*
X130929373Y-123727223D01*
X130929373Y-123727223D02*
X130956079Y-123700516D01*
X130956079Y-123700516D02*
X130982785Y-123647104D01*
X130982785Y-123647104D02*
X130982785Y-123593691D01*
X130982785Y-123593691D02*
X130956079Y-123540279D01*
X130956079Y-123540279D02*
X130929373Y-123513572D01*
X130929373Y-123513572D02*
X130875960Y-123486866D01*
X130875960Y-123486866D02*
X130769135Y-123460160D01*
X130769135Y-123460160D02*
X130715722Y-123433453D01*
X130715722Y-123433453D02*
X130689016Y-123406747D01*
X130689016Y-123406747D02*
X130662310Y-123353335D01*
X130662310Y-123353335D02*
X130662310Y-123299922D01*
X130662310Y-123299922D02*
X130689016Y-123246509D01*
X130689016Y-123246509D02*
X130715722Y-123219803D01*
X130715722Y-123219803D02*
X130769135Y-123193097D01*
X130769135Y-123193097D02*
X130902666Y-123193097D01*
X130902666Y-123193097D02*
X130982785Y-123219803D01*
X131143023Y-123193097D02*
X131463499Y-123193097D01*
X131303261Y-123753929D02*
X131303261Y-123193097D01*
X132051038Y-123246509D02*
X132077744Y-123219803D01*
X132077744Y-123219803D02*
X132131157Y-123193097D01*
X132131157Y-123193097D02*
X132264688Y-123193097D01*
X132264688Y-123193097D02*
X132318101Y-123219803D01*
X132318101Y-123219803D02*
X132344807Y-123246509D01*
X132344807Y-123246509D02*
X132371513Y-123299922D01*
X132371513Y-123299922D02*
X132371513Y-123353335D01*
X132371513Y-123353335D02*
X132344807Y-123433453D01*
X132344807Y-123433453D02*
X132024331Y-123753929D01*
X132024331Y-123753929D02*
X132371513Y-123753929D01*
X132611870Y-123700516D02*
X132638576Y-123727223D01*
X132638576Y-123727223D02*
X132611870Y-123753929D01*
X132611870Y-123753929D02*
X132585164Y-123727223D01*
X132585164Y-123727223D02*
X132611870Y-123700516D01*
X132611870Y-123700516D02*
X132611870Y-123753929D01*
X133145996Y-123193097D02*
X132878933Y-123193097D01*
X132878933Y-123193097D02*
X132852227Y-123460160D01*
X132852227Y-123460160D02*
X132878933Y-123433453D01*
X132878933Y-123433453D02*
X132932346Y-123406747D01*
X132932346Y-123406747D02*
X133065877Y-123406747D01*
X133065877Y-123406747D02*
X133119290Y-123433453D01*
X133119290Y-123433453D02*
X133145996Y-123460160D01*
X133145996Y-123460160D02*
X133172702Y-123513572D01*
X133172702Y-123513572D02*
X133172702Y-123647104D01*
X133172702Y-123647104D02*
X133145996Y-123700516D01*
X133145996Y-123700516D02*
X133119290Y-123727223D01*
X133119290Y-123727223D02*
X133065877Y-123753929D01*
X133065877Y-123753929D02*
X132932346Y-123753929D01*
X132932346Y-123753929D02*
X132878933Y-123727223D01*
X132878933Y-123727223D02*
X132852227Y-123700516D01*
X133653416Y-123380041D02*
X133653416Y-123753929D01*
X133519884Y-123166391D02*
X133386353Y-123566985D01*
X133386353Y-123566985D02*
X133733534Y-123566985D01*
X133893772Y-123193097D02*
X134267660Y-123753929D01*
X134267660Y-123193097D02*
X133893772Y-123753929D01*
X134454605Y-123246509D02*
X134481311Y-123219803D01*
X134481311Y-123219803D02*
X134534724Y-123193097D01*
X134534724Y-123193097D02*
X134668255Y-123193097D01*
X134668255Y-123193097D02*
X134721668Y-123219803D01*
X134721668Y-123219803D02*
X134748374Y-123246509D01*
X134748374Y-123246509D02*
X134775080Y-123299922D01*
X134775080Y-123299922D02*
X134775080Y-123353335D01*
X134775080Y-123353335D02*
X134748374Y-123433453D01*
X134748374Y-123433453D02*
X134427898Y-123753929D01*
X134427898Y-123753929D02*
X134775080Y-123753929D01*
X135015437Y-123753929D02*
X135015437Y-123193097D01*
X135015437Y-123193097D02*
X135229087Y-123193097D01*
X135229087Y-123193097D02*
X135282500Y-123219803D01*
X135282500Y-123219803D02*
X135309206Y-123246509D01*
X135309206Y-123246509D02*
X135335912Y-123299922D01*
X135335912Y-123299922D02*
X135335912Y-123380041D01*
X135335912Y-123380041D02*
X135309206Y-123433453D01*
X135309206Y-123433453D02*
X135282500Y-123460160D01*
X135282500Y-123460160D02*
X135229087Y-123486866D01*
X135229087Y-123486866D02*
X135015437Y-123486866D01*
D10*
X153651540Y-128682945D02*
X153415683Y-128848045D01*
X153651540Y-128965974D02*
X153156240Y-128965974D01*
X153156240Y-128965974D02*
X153156240Y-128777288D01*
X153156240Y-128777288D02*
X153179826Y-128730117D01*
X153179826Y-128730117D02*
X153203412Y-128706531D01*
X153203412Y-128706531D02*
X153250583Y-128682945D01*
X153250583Y-128682945D02*
X153321340Y-128682945D01*
X153321340Y-128682945D02*
X153368512Y-128706531D01*
X153368512Y-128706531D02*
X153392097Y-128730117D01*
X153392097Y-128730117D02*
X153415683Y-128777288D01*
X153415683Y-128777288D02*
X153415683Y-128965974D01*
X153203412Y-128494260D02*
X153179826Y-128470674D01*
X153179826Y-128470674D02*
X153156240Y-128423503D01*
X153156240Y-128423503D02*
X153156240Y-128305574D01*
X153156240Y-128305574D02*
X153179826Y-128258403D01*
X153179826Y-128258403D02*
X153203412Y-128234817D01*
X153203412Y-128234817D02*
X153250583Y-128211231D01*
X153250583Y-128211231D02*
X153297755Y-128211231D01*
X153297755Y-128211231D02*
X153368512Y-128234817D01*
X153368512Y-128234817D02*
X153651540Y-128517845D01*
X153651540Y-128517845D02*
X153651540Y-128211231D01*
X122596846Y-116997441D02*
X122360989Y-116997441D01*
X122360989Y-116997441D02*
X122360989Y-116502141D01*
X122738360Y-116973856D02*
X122809118Y-116997441D01*
X122809118Y-116997441D02*
X122927046Y-116997441D01*
X122927046Y-116997441D02*
X122974218Y-116973856D01*
X122974218Y-116973856D02*
X122997803Y-116950270D01*
X122997803Y-116950270D02*
X123021389Y-116903098D01*
X123021389Y-116903098D02*
X123021389Y-116855927D01*
X123021389Y-116855927D02*
X122997803Y-116808756D01*
X122997803Y-116808756D02*
X122974218Y-116785170D01*
X122974218Y-116785170D02*
X122927046Y-116761584D01*
X122927046Y-116761584D02*
X122832703Y-116737998D01*
X122832703Y-116737998D02*
X122785532Y-116714413D01*
X122785532Y-116714413D02*
X122761946Y-116690827D01*
X122761946Y-116690827D02*
X122738360Y-116643656D01*
X122738360Y-116643656D02*
X122738360Y-116596484D01*
X122738360Y-116596484D02*
X122761946Y-116549313D01*
X122761946Y-116549313D02*
X122785532Y-116525727D01*
X122785532Y-116525727D02*
X122832703Y-116502141D01*
X122832703Y-116502141D02*
X122950632Y-116502141D01*
X122950632Y-116502141D02*
X123021389Y-116525727D01*
X123233660Y-116997441D02*
X123233660Y-116502141D01*
X123516689Y-116997441D02*
X123304417Y-116714413D01*
X123516689Y-116502141D02*
X123233660Y-116785170D01*
X123728960Y-116997441D02*
X123728960Y-116502141D01*
X124129917Y-116737998D02*
X124200674Y-116761584D01*
X124200674Y-116761584D02*
X124224260Y-116785170D01*
X124224260Y-116785170D02*
X124247846Y-116832341D01*
X124247846Y-116832341D02*
X124247846Y-116903098D01*
X124247846Y-116903098D02*
X124224260Y-116950270D01*
X124224260Y-116950270D02*
X124200674Y-116973856D01*
X124200674Y-116973856D02*
X124153503Y-116997441D01*
X124153503Y-116997441D02*
X123964817Y-116997441D01*
X123964817Y-116997441D02*
X123964817Y-116502141D01*
X123964817Y-116502141D02*
X124129917Y-116502141D01*
X124129917Y-116502141D02*
X124177089Y-116525727D01*
X124177089Y-116525727D02*
X124200674Y-116549313D01*
X124200674Y-116549313D02*
X124224260Y-116596484D01*
X124224260Y-116596484D02*
X124224260Y-116643656D01*
X124224260Y-116643656D02*
X124200674Y-116690827D01*
X124200674Y-116690827D02*
X124177089Y-116714413D01*
X124177089Y-116714413D02*
X124129917Y-116737998D01*
X124129917Y-116737998D02*
X123964817Y-116737998D01*
X124436531Y-116549313D02*
X124460117Y-116525727D01*
X124460117Y-116525727D02*
X124507289Y-116502141D01*
X124507289Y-116502141D02*
X124625217Y-116502141D01*
X124625217Y-116502141D02*
X124672389Y-116525727D01*
X124672389Y-116525727D02*
X124695974Y-116549313D01*
X124695974Y-116549313D02*
X124719560Y-116596484D01*
X124719560Y-116596484D02*
X124719560Y-116643656D01*
X124719560Y-116643656D02*
X124695974Y-116714413D01*
X124695974Y-116714413D02*
X124412946Y-116997441D01*
X124412946Y-116997441D02*
X124719560Y-116997441D01*
D11*
X153281953Y-82553097D02*
X153281953Y-82953691D01*
X153281953Y-82953691D02*
X153255246Y-83033810D01*
X153255246Y-83033810D02*
X153201834Y-83087223D01*
X153201834Y-83087223D02*
X153121715Y-83113929D01*
X153121715Y-83113929D02*
X153068302Y-83113929D01*
X153522310Y-83087223D02*
X153602429Y-83113929D01*
X153602429Y-83113929D02*
X153735960Y-83113929D01*
X153735960Y-83113929D02*
X153789373Y-83087223D01*
X153789373Y-83087223D02*
X153816079Y-83060516D01*
X153816079Y-83060516D02*
X153842785Y-83007104D01*
X153842785Y-83007104D02*
X153842785Y-82953691D01*
X153842785Y-82953691D02*
X153816079Y-82900279D01*
X153816079Y-82900279D02*
X153789373Y-82873572D01*
X153789373Y-82873572D02*
X153735960Y-82846866D01*
X153735960Y-82846866D02*
X153629135Y-82820160D01*
X153629135Y-82820160D02*
X153575722Y-82793453D01*
X153575722Y-82793453D02*
X153549016Y-82766747D01*
X153549016Y-82766747D02*
X153522310Y-82713335D01*
X153522310Y-82713335D02*
X153522310Y-82659922D01*
X153522310Y-82659922D02*
X153549016Y-82606509D01*
X153549016Y-82606509D02*
X153575722Y-82579803D01*
X153575722Y-82579803D02*
X153629135Y-82553097D01*
X153629135Y-82553097D02*
X153762666Y-82553097D01*
X153762666Y-82553097D02*
X153842785Y-82579803D01*
X154003023Y-82553097D02*
X154323499Y-82553097D01*
X154163261Y-83113929D02*
X154163261Y-82553097D01*
X154911038Y-82606509D02*
X154937744Y-82579803D01*
X154937744Y-82579803D02*
X154991157Y-82553097D01*
X154991157Y-82553097D02*
X155124688Y-82553097D01*
X155124688Y-82553097D02*
X155178101Y-82579803D01*
X155178101Y-82579803D02*
X155204807Y-82606509D01*
X155204807Y-82606509D02*
X155231513Y-82659922D01*
X155231513Y-82659922D02*
X155231513Y-82713335D01*
X155231513Y-82713335D02*
X155204807Y-82793453D01*
X155204807Y-82793453D02*
X154884331Y-83113929D01*
X154884331Y-83113929D02*
X155231513Y-83113929D01*
X155471870Y-83060516D02*
X155498576Y-83087223D01*
X155498576Y-83087223D02*
X155471870Y-83113929D01*
X155471870Y-83113929D02*
X155445164Y-83087223D01*
X155445164Y-83087223D02*
X155471870Y-83060516D01*
X155471870Y-83060516D02*
X155471870Y-83113929D01*
X156005996Y-82553097D02*
X155738933Y-82553097D01*
X155738933Y-82553097D02*
X155712227Y-82820160D01*
X155712227Y-82820160D02*
X155738933Y-82793453D01*
X155738933Y-82793453D02*
X155792346Y-82766747D01*
X155792346Y-82766747D02*
X155925877Y-82766747D01*
X155925877Y-82766747D02*
X155979290Y-82793453D01*
X155979290Y-82793453D02*
X156005996Y-82820160D01*
X156005996Y-82820160D02*
X156032702Y-82873572D01*
X156032702Y-82873572D02*
X156032702Y-83007104D01*
X156032702Y-83007104D02*
X156005996Y-83060516D01*
X156005996Y-83060516D02*
X155979290Y-83087223D01*
X155979290Y-83087223D02*
X155925877Y-83113929D01*
X155925877Y-83113929D02*
X155792346Y-83113929D01*
X155792346Y-83113929D02*
X155738933Y-83087223D01*
X155738933Y-83087223D02*
X155712227Y-83060516D01*
X156513416Y-82740041D02*
X156513416Y-83113929D01*
X156379884Y-82526391D02*
X156246353Y-82926985D01*
X156246353Y-82926985D02*
X156593534Y-82926985D01*
X156753772Y-82553097D02*
X157127660Y-83113929D01*
X157127660Y-82553097D02*
X156753772Y-83113929D01*
X157314605Y-82606509D02*
X157341311Y-82579803D01*
X157341311Y-82579803D02*
X157394724Y-82553097D01*
X157394724Y-82553097D02*
X157528255Y-82553097D01*
X157528255Y-82553097D02*
X157581668Y-82579803D01*
X157581668Y-82579803D02*
X157608374Y-82606509D01*
X157608374Y-82606509D02*
X157635080Y-82659922D01*
X157635080Y-82659922D02*
X157635080Y-82713335D01*
X157635080Y-82713335D02*
X157608374Y-82793453D01*
X157608374Y-82793453D02*
X157287898Y-83113929D01*
X157287898Y-83113929D02*
X157635080Y-83113929D01*
X157875437Y-83113929D02*
X157875437Y-82553097D01*
X157875437Y-82553097D02*
X158089087Y-82553097D01*
X158089087Y-82553097D02*
X158142500Y-82579803D01*
X158142500Y-82579803D02*
X158169206Y-82606509D01*
X158169206Y-82606509D02*
X158195912Y-82659922D01*
X158195912Y-82659922D02*
X158195912Y-82740041D01*
X158195912Y-82740041D02*
X158169206Y-82793453D01*
X158169206Y-82793453D02*
X158142500Y-82820160D01*
X158142500Y-82820160D02*
X158089087Y-82846866D01*
X158089087Y-82846866D02*
X157875437Y-82846866D01*
D10*
X128946846Y-99344441D02*
X128710989Y-99344441D01*
X128710989Y-99344441D02*
X128710989Y-98849141D01*
X129088360Y-99320856D02*
X129159118Y-99344441D01*
X129159118Y-99344441D02*
X129277046Y-99344441D01*
X129277046Y-99344441D02*
X129324218Y-99320856D01*
X129324218Y-99320856D02*
X129347803Y-99297270D01*
X129347803Y-99297270D02*
X129371389Y-99250098D01*
X129371389Y-99250098D02*
X129371389Y-99202927D01*
X129371389Y-99202927D02*
X129347803Y-99155756D01*
X129347803Y-99155756D02*
X129324218Y-99132170D01*
X129324218Y-99132170D02*
X129277046Y-99108584D01*
X129277046Y-99108584D02*
X129182703Y-99084998D01*
X129182703Y-99084998D02*
X129135532Y-99061413D01*
X129135532Y-99061413D02*
X129111946Y-99037827D01*
X129111946Y-99037827D02*
X129088360Y-98990656D01*
X129088360Y-98990656D02*
X129088360Y-98943484D01*
X129088360Y-98943484D02*
X129111946Y-98896313D01*
X129111946Y-98896313D02*
X129135532Y-98872727D01*
X129135532Y-98872727D02*
X129182703Y-98849141D01*
X129182703Y-98849141D02*
X129300632Y-98849141D01*
X129300632Y-98849141D02*
X129371389Y-98872727D01*
X129583660Y-99344441D02*
X129583660Y-98849141D01*
X129866689Y-99344441D02*
X129654417Y-99061413D01*
X129866689Y-98849141D02*
X129583660Y-99132170D01*
X130078960Y-99344441D02*
X130078960Y-98849141D01*
X130479917Y-99084998D02*
X130550674Y-99108584D01*
X130550674Y-99108584D02*
X130574260Y-99132170D01*
X130574260Y-99132170D02*
X130597846Y-99179341D01*
X130597846Y-99179341D02*
X130597846Y-99250098D01*
X130597846Y-99250098D02*
X130574260Y-99297270D01*
X130574260Y-99297270D02*
X130550674Y-99320856D01*
X130550674Y-99320856D02*
X130503503Y-99344441D01*
X130503503Y-99344441D02*
X130314817Y-99344441D01*
X130314817Y-99344441D02*
X130314817Y-98849141D01*
X130314817Y-98849141D02*
X130479917Y-98849141D01*
X130479917Y-98849141D02*
X130527089Y-98872727D01*
X130527089Y-98872727D02*
X130550674Y-98896313D01*
X130550674Y-98896313D02*
X130574260Y-98943484D01*
X130574260Y-98943484D02*
X130574260Y-98990656D01*
X130574260Y-98990656D02*
X130550674Y-99037827D01*
X130550674Y-99037827D02*
X130527089Y-99061413D01*
X130527089Y-99061413D02*
X130479917Y-99084998D01*
X130479917Y-99084998D02*
X130314817Y-99084998D01*
X131069560Y-99344441D02*
X130786531Y-99344441D01*
X130928046Y-99344441D02*
X130928046Y-98849141D01*
X130928046Y-98849141D02*
X130880874Y-98919898D01*
X130880874Y-98919898D02*
X130833703Y-98967070D01*
X130833703Y-98967070D02*
X130786531Y-98990656D01*
X145269540Y-128555945D02*
X145033683Y-128721045D01*
X145269540Y-128838974D02*
X144774240Y-128838974D01*
X144774240Y-128838974D02*
X144774240Y-128650288D01*
X144774240Y-128650288D02*
X144797826Y-128603117D01*
X144797826Y-128603117D02*
X144821412Y-128579531D01*
X144821412Y-128579531D02*
X144868583Y-128555945D01*
X144868583Y-128555945D02*
X144939340Y-128555945D01*
X144939340Y-128555945D02*
X144986512Y-128579531D01*
X144986512Y-128579531D02*
X145010097Y-128603117D01*
X145010097Y-128603117D02*
X145033683Y-128650288D01*
X145033683Y-128650288D02*
X145033683Y-128838974D01*
X144939340Y-128131403D02*
X145269540Y-128131403D01*
X144750655Y-128249331D02*
X145104440Y-128367260D01*
X145104440Y-128367260D02*
X145104440Y-128060645D01*
D12*
X171035262Y-102309862D02*
X170881169Y-102232815D01*
X170881169Y-102232815D02*
X170727076Y-102078722D01*
X170727076Y-102078722D02*
X170495936Y-101847582D01*
X170495936Y-101847582D02*
X170341842Y-101770535D01*
X170341842Y-101770535D02*
X170187749Y-101770535D01*
X170264796Y-102155768D02*
X170110702Y-102078722D01*
X170110702Y-102078722D02*
X169956609Y-101924628D01*
X169956609Y-101924628D02*
X169879562Y-101616442D01*
X169879562Y-101616442D02*
X169879562Y-101077115D01*
X169879562Y-101077115D02*
X169956609Y-100768928D01*
X169956609Y-100768928D02*
X170110702Y-100614835D01*
X170110702Y-100614835D02*
X170264796Y-100537788D01*
X170264796Y-100537788D02*
X170572982Y-100537788D01*
X170572982Y-100537788D02*
X170727076Y-100614835D01*
X170727076Y-100614835D02*
X170881169Y-100768928D01*
X170881169Y-100768928D02*
X170958216Y-101077115D01*
X170958216Y-101077115D02*
X170958216Y-101616442D01*
X170958216Y-101616442D02*
X170881169Y-101924628D01*
X170881169Y-101924628D02*
X170727076Y-102078722D01*
X170727076Y-102078722D02*
X170572982Y-102155768D01*
X170572982Y-102155768D02*
X170264796Y-102155768D01*
X171574589Y-100691882D02*
X171651636Y-100614835D01*
X171651636Y-100614835D02*
X171805729Y-100537788D01*
X171805729Y-100537788D02*
X172190963Y-100537788D01*
X172190963Y-100537788D02*
X172345056Y-100614835D01*
X172345056Y-100614835D02*
X172422103Y-100691882D01*
X172422103Y-100691882D02*
X172499149Y-100845975D01*
X172499149Y-100845975D02*
X172499149Y-101000068D01*
X172499149Y-101000068D02*
X172422103Y-101231208D01*
X172422103Y-101231208D02*
X171497543Y-102155768D01*
X171497543Y-102155768D02*
X172499149Y-102155768D01*
D13*
X169075348Y-99333170D02*
X169490457Y-99333170D01*
X168992326Y-99582235D02*
X169282902Y-98710507D01*
X169282902Y-98710507D02*
X169573478Y-99582235D01*
X170320673Y-99582235D02*
X169822543Y-99582235D01*
X170071608Y-99582235D02*
X170071608Y-98710507D01*
X170071608Y-98710507D02*
X169988586Y-98835040D01*
X169988586Y-98835040D02*
X169905565Y-98918062D01*
X169905565Y-98918062D02*
X169822543Y-98959573D01*
X170611249Y-98710507D02*
X171192401Y-98710507D01*
X171192401Y-98710507D02*
X170818803Y-99582235D01*
X171565999Y-99540725D02*
X171565999Y-99582235D01*
X171565999Y-99582235D02*
X171524488Y-99665257D01*
X171524488Y-99665257D02*
X171482977Y-99706768D01*
X172354705Y-98710507D02*
X171939597Y-98710507D01*
X171939597Y-98710507D02*
X171898086Y-99125616D01*
X171898086Y-99125616D02*
X171939597Y-99084105D01*
X171939597Y-99084105D02*
X172022619Y-99042594D01*
X172022619Y-99042594D02*
X172230173Y-99042594D01*
X172230173Y-99042594D02*
X172313195Y-99084105D01*
X172313195Y-99084105D02*
X172354705Y-99125616D01*
X172354705Y-99125616D02*
X172396216Y-99208638D01*
X172396216Y-99208638D02*
X172396216Y-99416192D01*
X172396216Y-99416192D02*
X172354705Y-99499214D01*
X172354705Y-99499214D02*
X172313195Y-99540725D01*
X172313195Y-99540725D02*
X172230173Y-99582235D01*
X172230173Y-99582235D02*
X172022619Y-99582235D01*
X172022619Y-99582235D02*
X171939597Y-99540725D01*
X171939597Y-99540725D02*
X171898086Y-99499214D01*
X172769814Y-99582235D02*
X172769814Y-99001083D01*
X172769814Y-99084105D02*
X172811325Y-99042594D01*
X172811325Y-99042594D02*
X172894346Y-99001083D01*
X172894346Y-99001083D02*
X173018879Y-99001083D01*
X173018879Y-99001083D02*
X173101901Y-99042594D01*
X173101901Y-99042594D02*
X173143412Y-99125616D01*
X173143412Y-99125616D02*
X173143412Y-99582235D01*
X173143412Y-99125616D02*
X173184922Y-99042594D01*
X173184922Y-99042594D02*
X173267944Y-99001083D01*
X173267944Y-99001083D02*
X173392477Y-99001083D01*
X173392477Y-99001083D02*
X173475498Y-99042594D01*
X173475498Y-99042594D02*
X173517009Y-99125616D01*
X173517009Y-99125616D02*
X173517009Y-99582235D01*
X173932118Y-99582235D02*
X173932118Y-99001083D01*
X173932118Y-99084105D02*
X173973629Y-99042594D01*
X173973629Y-99042594D02*
X174056650Y-99001083D01*
X174056650Y-99001083D02*
X174181183Y-99001083D01*
X174181183Y-99001083D02*
X174264205Y-99042594D01*
X174264205Y-99042594D02*
X174305716Y-99125616D01*
X174305716Y-99125616D02*
X174305716Y-99582235D01*
X174305716Y-99125616D02*
X174347226Y-99042594D01*
X174347226Y-99042594D02*
X174430248Y-99001083D01*
X174430248Y-99001083D02*
X174554781Y-99001083D01*
X174554781Y-99001083D02*
X174637802Y-99042594D01*
X174637802Y-99042594D02*
X174679313Y-99125616D01*
X174679313Y-99125616D02*
X174679313Y-99582235D01*
D10*
X154667540Y-123602945D02*
X154431683Y-123768045D01*
X154667540Y-123885974D02*
X154172240Y-123885974D01*
X154172240Y-123885974D02*
X154172240Y-123697288D01*
X154172240Y-123697288D02*
X154195826Y-123650117D01*
X154195826Y-123650117D02*
X154219412Y-123626531D01*
X154219412Y-123626531D02*
X154266583Y-123602945D01*
X154266583Y-123602945D02*
X154337340Y-123602945D01*
X154337340Y-123602945D02*
X154384512Y-123626531D01*
X154384512Y-123626531D02*
X154408097Y-123650117D01*
X154408097Y-123650117D02*
X154431683Y-123697288D01*
X154431683Y-123697288D02*
X154431683Y-123885974D01*
X154172240Y-123437845D02*
X154172240Y-123131231D01*
X154172240Y-123131231D02*
X154360926Y-123296331D01*
X154360926Y-123296331D02*
X154360926Y-123225574D01*
X154360926Y-123225574D02*
X154384512Y-123178403D01*
X154384512Y-123178403D02*
X154408097Y-123154817D01*
X154408097Y-123154817D02*
X154455269Y-123131231D01*
X154455269Y-123131231D02*
X154573197Y-123131231D01*
X154573197Y-123131231D02*
X154620369Y-123154817D01*
X154620369Y-123154817D02*
X154643955Y-123178403D01*
X154643955Y-123178403D02*
X154667540Y-123225574D01*
X154667540Y-123225574D02*
X154667540Y-123367088D01*
X154667540Y-123367088D02*
X154643955Y-123414260D01*
X154643955Y-123414260D02*
X154620369Y-123437845D01*
X138133955Y-88857560D02*
X138157540Y-88786803D01*
X138157540Y-88786803D02*
X138157540Y-88668874D01*
X138157540Y-88668874D02*
X138133955Y-88621703D01*
X138133955Y-88621703D02*
X138110369Y-88598117D01*
X138110369Y-88598117D02*
X138063197Y-88574531D01*
X138063197Y-88574531D02*
X138016026Y-88574531D01*
X138016026Y-88574531D02*
X137968855Y-88598117D01*
X137968855Y-88598117D02*
X137945269Y-88621703D01*
X137945269Y-88621703D02*
X137921683Y-88668874D01*
X137921683Y-88668874D02*
X137898097Y-88763217D01*
X137898097Y-88763217D02*
X137874512Y-88810388D01*
X137874512Y-88810388D02*
X137850926Y-88833974D01*
X137850926Y-88833974D02*
X137803755Y-88857560D01*
X137803755Y-88857560D02*
X137756583Y-88857560D01*
X137756583Y-88857560D02*
X137709412Y-88833974D01*
X137709412Y-88833974D02*
X137685826Y-88810388D01*
X137685826Y-88810388D02*
X137662240Y-88763217D01*
X137662240Y-88763217D02*
X137662240Y-88645288D01*
X137662240Y-88645288D02*
X137685826Y-88574531D01*
X138157540Y-88362260D02*
X137662240Y-88362260D01*
X137662240Y-88362260D02*
X137662240Y-88173574D01*
X137662240Y-88173574D02*
X137685826Y-88126403D01*
X137685826Y-88126403D02*
X137709412Y-88102817D01*
X137709412Y-88102817D02*
X137756583Y-88079231D01*
X137756583Y-88079231D02*
X137827340Y-88079231D01*
X137827340Y-88079231D02*
X137874512Y-88102817D01*
X137874512Y-88102817D02*
X137898097Y-88126403D01*
X137898097Y-88126403D02*
X137921683Y-88173574D01*
X137921683Y-88173574D02*
X137921683Y-88362260D01*
X137662240Y-87772617D02*
X137662240Y-87725446D01*
X137662240Y-87725446D02*
X137685826Y-87678274D01*
X137685826Y-87678274D02*
X137709412Y-87654689D01*
X137709412Y-87654689D02*
X137756583Y-87631103D01*
X137756583Y-87631103D02*
X137850926Y-87607517D01*
X137850926Y-87607517D02*
X137968855Y-87607517D01*
X137968855Y-87607517D02*
X138063197Y-87631103D01*
X138063197Y-87631103D02*
X138110369Y-87654689D01*
X138110369Y-87654689D02*
X138133955Y-87678274D01*
X138133955Y-87678274D02*
X138157540Y-87725446D01*
X138157540Y-87725446D02*
X138157540Y-87772617D01*
X138157540Y-87772617D02*
X138133955Y-87819789D01*
X138133955Y-87819789D02*
X138110369Y-87843374D01*
X138110369Y-87843374D02*
X138063197Y-87866960D01*
X138063197Y-87866960D02*
X137968855Y-87890546D01*
X137968855Y-87890546D02*
X137850926Y-87890546D01*
X137850926Y-87890546D02*
X137756583Y-87866960D01*
X137756583Y-87866960D02*
X137709412Y-87843374D01*
X137709412Y-87843374D02*
X137685826Y-87819789D01*
X137685826Y-87819789D02*
X137662240Y-87772617D01*
%TO.C,R1*%
D14*
X123111100Y-85598100D02*
X123111100Y-83820100D01*
X123365100Y-83566100D02*
X123746100Y-83566100D01*
X123365100Y-85852100D02*
X123746100Y-85852100D01*
X123873100Y-83693100D02*
X123746100Y-83566100D01*
X123873100Y-85725100D02*
X123746100Y-85852100D01*
X128699100Y-83693100D02*
X123873100Y-83693100D01*
X128699100Y-83693100D02*
X128826100Y-83566100D01*
X128699100Y-85725100D02*
X123873100Y-85725100D01*
X128699100Y-85725100D02*
X128826100Y-85852100D01*
X129207100Y-83566100D02*
X128826100Y-83566100D01*
X129207100Y-85852100D02*
X128826100Y-85852100D01*
X129461100Y-85598100D02*
X129461100Y-83820100D01*
X123111100Y-83820100D02*
G75*
G02*
X123365100Y-83566100I254000J0D01*
G01*
X123365100Y-85852100D02*
G75*
G02*
X123111100Y-85598100I0J254000D01*
G01*
X129207100Y-83566100D02*
G75*
G02*
X129461100Y-83820100I0J-254000D01*
G01*
X129461100Y-85598100D02*
G75*
G02*
X129207100Y-85852100I-254000J0D01*
G01*
D15*
G36*
X123111100Y-85013900D02*
G01*
X122247500Y-85013900D01*
X122247500Y-84404300D01*
X123111100Y-84404300D01*
X123111100Y-85013900D01*
G37*
G36*
X130324700Y-85013900D02*
G01*
X129461100Y-85013900D01*
X129461100Y-84404300D01*
X130324700Y-84404300D01*
X130324700Y-85013900D01*
G37*
%TO.C,UNK3.3-BUZ0*%
D16*
X137716100Y-124079100D02*
X137716100Y-129159100D01*
X137716100Y-129159100D02*
X145336100Y-129159100D01*
X139494100Y-124079100D02*
X137716100Y-124079100D01*
X139494100Y-124587100D02*
X139494100Y-124079100D01*
X141018100Y-124079100D02*
X139494100Y-124079100D01*
X141018100Y-124079100D02*
X141018100Y-124587100D01*
X141018100Y-124587100D02*
X139494100Y-124587100D01*
X142034100Y-124079100D02*
X141018100Y-124079100D01*
X142034100Y-124587100D02*
X142034100Y-124079100D01*
X143558100Y-124079100D02*
X142034100Y-124079100D01*
X143558100Y-124079100D02*
X143558100Y-124587100D01*
X143558100Y-124587100D02*
X142034100Y-124587100D01*
X145336100Y-124079100D02*
X143558100Y-124079100D01*
X145336100Y-129159100D02*
X145336100Y-124079100D01*
%TO.C,S1-S2*%
X119936100Y-124079100D02*
X119936100Y-129159100D01*
X119936100Y-129159100D02*
X127556100Y-129159100D01*
X121714100Y-124079100D02*
X119936100Y-124079100D01*
X121714100Y-124587100D02*
X121714100Y-124079100D01*
X123238100Y-124079100D02*
X121714100Y-124079100D01*
X123238100Y-124079100D02*
X123238100Y-124587100D01*
X123238100Y-124587100D02*
X121714100Y-124587100D01*
X124254100Y-124079100D02*
X123238100Y-124079100D01*
X124254100Y-124587100D02*
X124254100Y-124079100D01*
X125778100Y-124079100D02*
X124254100Y-124079100D01*
X125778100Y-124079100D02*
X125778100Y-124587100D01*
X125778100Y-124587100D02*
X124254100Y-124587100D01*
X127556100Y-124079100D02*
X125778100Y-124079100D01*
X127556100Y-129159100D02*
X127556100Y-124079100D01*
%TO.C,R5*%
D14*
X134668100Y-86868100D02*
X134668100Y-87249100D01*
X134668100Y-92710100D02*
X134668100Y-92329100D01*
X134795100Y-87376100D02*
X134668100Y-87249100D01*
X134795100Y-92202100D02*
X134668100Y-92329100D01*
X134795100Y-92202100D02*
X134795100Y-87376100D01*
X134922100Y-86614100D02*
X136700100Y-86614100D01*
X134922100Y-92964100D02*
X136700100Y-92964100D01*
X136827100Y-87376100D02*
X136954100Y-87249100D01*
X136827100Y-92202100D02*
X136827100Y-87376100D01*
X136827100Y-92202100D02*
X136954100Y-92329100D01*
X136954100Y-86868100D02*
X136954100Y-87249100D01*
X136954100Y-92710100D02*
X136954100Y-92329100D01*
X134668100Y-86868100D02*
G75*
G02*
X134922100Y-86614100I254000J0D01*
G01*
X134922100Y-92964100D02*
G75*
G02*
X134668100Y-92710100I0J254000D01*
G01*
X136700100Y-86614100D02*
G75*
G02*
X136954100Y-86868100I0J-254000D01*
G01*
X136954100Y-92710100D02*
G75*
G02*
X136700100Y-92964100I-254000J0D01*
G01*
D15*
G36*
X136115900Y-86614100D02*
G01*
X135506300Y-86614100D01*
X135506300Y-85750500D01*
X136115900Y-85750500D01*
X136115900Y-86614100D01*
G37*
G36*
X136115900Y-93827700D02*
G01*
X135506300Y-93827700D01*
X135506300Y-92964100D01*
X136115900Y-92964100D01*
X136115900Y-93827700D01*
G37*
%TO.C,Q1*%
D16*
X155369100Y-94869100D02*
X155369100Y-92964100D01*
X155369100Y-96393100D02*
X156258100Y-96393100D01*
X155369100Y-108839100D02*
X155369100Y-96393100D01*
X155369100Y-108839100D02*
X165783100Y-108839100D01*
D17*
X156004100Y-108204100D02*
X156004100Y-99949100D01*
X156004100Y-108204100D02*
X165148100Y-108204100D01*
D16*
X156258100Y-94869100D02*
X155369100Y-94869100D01*
X156258100Y-96393100D02*
X156258100Y-94869100D01*
X164894100Y-94869100D02*
X165783100Y-94869100D01*
X164894100Y-96393100D02*
X164894100Y-94869100D01*
D17*
X165148100Y-99949100D02*
X156004100Y-99949100D01*
X165148100Y-99949100D02*
X165148100Y-108204100D01*
D16*
X165783100Y-92964100D02*
X155369100Y-92964100D01*
X165783100Y-94869100D02*
X165783100Y-92964100D01*
X165783100Y-96393100D02*
X164894100Y-96393100D01*
X165783100Y-108839100D02*
X165783100Y-96393100D01*
X162379500Y-96393100D02*
G75*
G02*
X158772700Y-96393100I-1803400J0D01*
G01*
X158772700Y-96393100D02*
G75*
G02*
X162379500Y-96393100I1803400J0D01*
G01*
D15*
G36*
X158671100Y-111633100D02*
G01*
X157401100Y-111633100D01*
X157401100Y-108839100D01*
X158671100Y-108839100D01*
X158671100Y-111633100D01*
G37*
G36*
X158417100Y-112268100D02*
G01*
X157655100Y-112268100D01*
X157655100Y-111633100D01*
X158417100Y-111633100D01*
X158417100Y-112268100D01*
G37*
G36*
X161211100Y-111633100D02*
G01*
X159941100Y-111633100D01*
X159941100Y-108839100D01*
X161211100Y-108839100D01*
X161211100Y-111633100D01*
G37*
G36*
X160957100Y-112268100D02*
G01*
X160195100Y-112268100D01*
X160195100Y-111633100D01*
X160957100Y-111633100D01*
X160957100Y-112268100D01*
G37*
G36*
X163751100Y-111633100D02*
G01*
X162481100Y-111633100D01*
X162481100Y-108839100D01*
X163751100Y-108839100D01*
X163751100Y-111633100D01*
G37*
G36*
X163497100Y-112268100D02*
G01*
X162735100Y-112268100D01*
X162735100Y-111633100D01*
X163497100Y-111633100D01*
X163497100Y-112268100D01*
G37*
%TO.C,Q3*%
D16*
X142669100Y-94869100D02*
X142669100Y-92964100D01*
X142669100Y-96393100D02*
X143558100Y-96393100D01*
X142669100Y-108839100D02*
X142669100Y-96393100D01*
X142669100Y-108839100D02*
X153083100Y-108839100D01*
D17*
X143304100Y-108204100D02*
X143304100Y-99949100D01*
X143304100Y-108204100D02*
X152448100Y-108204100D01*
D16*
X143558100Y-94869100D02*
X142669100Y-94869100D01*
X143558100Y-96393100D02*
X143558100Y-94869100D01*
X152194100Y-94869100D02*
X153083100Y-94869100D01*
X152194100Y-96393100D02*
X152194100Y-94869100D01*
D17*
X152448100Y-99949100D02*
X143304100Y-99949100D01*
X152448100Y-99949100D02*
X152448100Y-108204100D01*
D16*
X153083100Y-92964100D02*
X142669100Y-92964100D01*
X153083100Y-94869100D02*
X153083100Y-92964100D01*
X153083100Y-96393100D02*
X152194100Y-96393100D01*
X153083100Y-108839100D02*
X153083100Y-96393100D01*
X149679500Y-96393100D02*
G75*
G02*
X146072700Y-96393100I-1803400J0D01*
G01*
X146072700Y-96393100D02*
G75*
G02*
X149679500Y-96393100I1803400J0D01*
G01*
D15*
G36*
X145971100Y-111633100D02*
G01*
X144701100Y-111633100D01*
X144701100Y-108839100D01*
X145971100Y-108839100D01*
X145971100Y-111633100D01*
G37*
G36*
X145717100Y-112268100D02*
G01*
X144955100Y-112268100D01*
X144955100Y-111633100D01*
X145717100Y-111633100D01*
X145717100Y-112268100D01*
G37*
G36*
X148511100Y-111633100D02*
G01*
X147241100Y-111633100D01*
X147241100Y-108839100D01*
X148511100Y-108839100D01*
X148511100Y-111633100D01*
G37*
G36*
X148257100Y-112268100D02*
G01*
X147495100Y-112268100D01*
X147495100Y-111633100D01*
X148257100Y-111633100D01*
X148257100Y-112268100D01*
G37*
G36*
X151051100Y-111633100D02*
G01*
X149781100Y-111633100D01*
X149781100Y-108839100D01*
X151051100Y-108839100D01*
X151051100Y-111633100D01*
G37*
G36*
X150797100Y-112268100D02*
G01*
X150035100Y-112268100D01*
X150035100Y-111633100D01*
X150797100Y-111633100D01*
X150797100Y-112268100D01*
G37*
%TO.C,SK1-SK2*%
D16*
X158290100Y-122809100D02*
X158290100Y-127889100D01*
X158290100Y-127889100D02*
X160068100Y-127889100D01*
X160068100Y-127381100D02*
X161592100Y-127381100D01*
X160068100Y-127889100D02*
X160068100Y-127381100D01*
X160068100Y-127889100D02*
X161592100Y-127889100D01*
X161592100Y-127381100D02*
X161592100Y-127889100D01*
X161592100Y-127889100D02*
X162608100Y-127889100D01*
X162608100Y-127381100D02*
X164132100Y-127381100D01*
X162608100Y-127889100D02*
X162608100Y-127381100D01*
X162608100Y-127889100D02*
X164132100Y-127889100D01*
X164132100Y-127381100D02*
X164132100Y-127889100D01*
X164132100Y-127889100D02*
X165910100Y-127889100D01*
X165910100Y-122809100D02*
X158290100Y-122809100D01*
X165910100Y-127889100D02*
X165910100Y-122809100D01*
%TO.C,SKIB1.0*%
X169466100Y-83439100D02*
X169466100Y-88519100D01*
X169466100Y-88519100D02*
X171244100Y-88519100D01*
X171244100Y-88011100D02*
X172768100Y-88011100D01*
X171244100Y-88519100D02*
X171244100Y-88011100D01*
X171244100Y-88519100D02*
X172768100Y-88519100D01*
X172768100Y-88011100D02*
X172768100Y-88519100D01*
X172768100Y-88519100D02*
X173784100Y-88519100D01*
X173784100Y-88011100D02*
X175308100Y-88011100D01*
X173784100Y-88519100D02*
X173784100Y-88011100D01*
X173784100Y-88519100D02*
X175308100Y-88519100D01*
X175308100Y-88011100D02*
X175308100Y-88519100D01*
X175308100Y-88519100D02*
X177086100Y-88519100D01*
X177086100Y-83439100D02*
X169466100Y-83439100D01*
X177086100Y-88519100D02*
X177086100Y-83439100D01*
%TO.C,R7*%
D14*
X135176100Y-105537100D02*
X135176100Y-105918100D01*
X135176100Y-111379100D02*
X135176100Y-110998100D01*
X135303100Y-106045100D02*
X135176100Y-105918100D01*
X135303100Y-110871100D02*
X135176100Y-110998100D01*
X135303100Y-110871100D02*
X135303100Y-106045100D01*
X135430100Y-105283100D02*
X137208100Y-105283100D01*
X135430100Y-111633100D02*
X137208100Y-111633100D01*
X137335100Y-106045100D02*
X137462100Y-105918100D01*
X137335100Y-110871100D02*
X137335100Y-106045100D01*
X137335100Y-110871100D02*
X137462100Y-110998100D01*
X137462100Y-105537100D02*
X137462100Y-105918100D01*
X137462100Y-111379100D02*
X137462100Y-110998100D01*
X135176100Y-105537100D02*
G75*
G02*
X135430100Y-105283100I254000J0D01*
G01*
X135430100Y-111633100D02*
G75*
G02*
X135176100Y-111379100I0J254000D01*
G01*
X137208100Y-105283100D02*
G75*
G02*
X137462100Y-105537100I0J-254000D01*
G01*
X137462100Y-111379100D02*
G75*
G02*
X137208100Y-111633100I-254000J0D01*
G01*
D15*
G36*
X136623900Y-105283100D02*
G01*
X136014300Y-105283100D01*
X136014300Y-104419500D01*
X136623900Y-104419500D01*
X136623900Y-105283100D01*
G37*
G36*
X136623900Y-112496700D02*
G01*
X136014300Y-112496700D01*
X136014300Y-111633100D01*
X136623900Y-111633100D01*
X136623900Y-112496700D01*
G37*
%TO.C,R6*%
D14*
X124381100Y-104013100D02*
X124381100Y-102235100D01*
X124635100Y-101981100D02*
X125016100Y-101981100D01*
X124635100Y-104267100D02*
X125016100Y-104267100D01*
X125143100Y-102108100D02*
X125016100Y-101981100D01*
X125143100Y-104140100D02*
X125016100Y-104267100D01*
X129969100Y-102108100D02*
X125143100Y-102108100D01*
X129969100Y-102108100D02*
X130096100Y-101981100D01*
X129969100Y-104140100D02*
X125143100Y-104140100D01*
X129969100Y-104140100D02*
X130096100Y-104267100D01*
X130477100Y-101981100D02*
X130096100Y-101981100D01*
X130477100Y-104267100D02*
X130096100Y-104267100D01*
X130731100Y-104013100D02*
X130731100Y-102235100D01*
X124381100Y-102235100D02*
G75*
G02*
X124635100Y-101981100I254000J0D01*
G01*
X124635100Y-104267100D02*
G75*
G02*
X124381100Y-104013100I0J254000D01*
G01*
X130477100Y-101981100D02*
G75*
G02*
X130731100Y-102235100I0J-254000D01*
G01*
X130731100Y-104013100D02*
G75*
G02*
X130477100Y-104267100I-254000J0D01*
G01*
D15*
G36*
X124381100Y-103428900D02*
G01*
X123517500Y-103428900D01*
X123517500Y-102819300D01*
X124381100Y-102819300D01*
X124381100Y-103428900D01*
G37*
G36*
X131594700Y-103428900D02*
G01*
X130731100Y-103428900D01*
X130731100Y-102819300D01*
X131594700Y-102819300D01*
X131594700Y-103428900D01*
G37*
%TO.C,OP2*%
D14*
X123365100Y-106299100D02*
X123365100Y-111379100D01*
X123365100Y-106299100D02*
X125270100Y-106299100D01*
X129207100Y-106299100D02*
X127302100Y-106299100D01*
X129207100Y-111379100D02*
X123365100Y-111379100D01*
X129207100Y-111379100D02*
X129207100Y-106299100D01*
X127302100Y-106299100D02*
G75*
G02*
X125270100Y-106299100I-1016000J0D01*
G01*
%TO.C,SKIB1.1*%
D16*
X160449100Y-83439100D02*
X160449100Y-88519100D01*
X160449100Y-88519100D02*
X168069100Y-88519100D01*
X162227100Y-83439100D02*
X160449100Y-83439100D01*
X162227100Y-83947100D02*
X162227100Y-83439100D01*
X163751100Y-83439100D02*
X162227100Y-83439100D01*
X163751100Y-83439100D02*
X163751100Y-83947100D01*
X163751100Y-83947100D02*
X162227100Y-83947100D01*
X164767100Y-83439100D02*
X163751100Y-83439100D01*
X164767100Y-83947100D02*
X164767100Y-83439100D01*
X166291100Y-83439100D02*
X164767100Y-83439100D01*
X166291100Y-83439100D02*
X166291100Y-83947100D01*
X166291100Y-83947100D02*
X164767100Y-83947100D01*
X168069100Y-83439100D02*
X166291100Y-83439100D01*
X168069100Y-88519100D02*
X168069100Y-83439100D01*
%TO.C,BATERIA0*%
X166926100Y-122809100D02*
X166926100Y-127889100D01*
X166926100Y-127889100D02*
X168704100Y-127889100D01*
X168704100Y-127381100D02*
X170228100Y-127381100D01*
X168704100Y-127889100D02*
X168704100Y-127381100D01*
X168704100Y-127889100D02*
X170228100Y-127889100D01*
X170228100Y-127381100D02*
X170228100Y-127889100D01*
X170228100Y-127889100D02*
X171244100Y-127889100D01*
X171244100Y-127381100D02*
X172768100Y-127381100D01*
X171244100Y-127889100D02*
X171244100Y-127381100D01*
X171244100Y-127889100D02*
X172768100Y-127889100D01*
X172768100Y-127381100D02*
X172768100Y-127889100D01*
X172768100Y-127889100D02*
X174546100Y-127889100D01*
X174546100Y-122809100D02*
X166926100Y-122809100D01*
X174546100Y-127889100D02*
X174546100Y-122809100D01*
%TO.C,OP1*%
D14*
X123365100Y-87249100D02*
X123365100Y-92329100D01*
X123365100Y-87249100D02*
X125270100Y-87249100D01*
X129207100Y-87249100D02*
X127302100Y-87249100D01*
X129207100Y-92329100D02*
X123365100Y-92329100D01*
X129207100Y-92329100D02*
X129207100Y-87249100D01*
X127302100Y-87249100D02*
G75*
G02*
X125270100Y-87249100I-1016000J0D01*
G01*
%TO.C,GND0*%
D16*
X128826100Y-124079100D02*
X128826100Y-129159100D01*
X128826100Y-129159100D02*
X130604100Y-129159100D01*
X130604100Y-128651100D02*
X132128100Y-128651100D01*
X130604100Y-129159100D02*
X130604100Y-128651100D01*
X130604100Y-129159100D02*
X132128100Y-129159100D01*
X132128100Y-128651100D02*
X132128100Y-129159100D01*
X132128100Y-129159100D02*
X133144100Y-129159100D01*
X133144100Y-128651100D02*
X134668100Y-128651100D01*
X133144100Y-129159100D02*
X133144100Y-128651100D01*
X133144100Y-129159100D02*
X134668100Y-129159100D01*
X134668100Y-128651100D02*
X134668100Y-129159100D01*
X134668100Y-129159100D02*
X136446100Y-129159100D01*
X136446100Y-124079100D02*
X128826100Y-124079100D01*
X136446100Y-129159100D02*
X136446100Y-124079100D01*
%TO.C,R2*%
D14*
X154099100Y-123190100D02*
X154099100Y-123571100D01*
X154099100Y-129032100D02*
X154099100Y-128651100D01*
X154226100Y-123698100D02*
X154099100Y-123571100D01*
X154226100Y-123698100D02*
X154226100Y-128524100D01*
X154226100Y-128524100D02*
X154099100Y-128651100D01*
X156131100Y-122936100D02*
X154353100Y-122936100D01*
X156131100Y-129286100D02*
X154353100Y-129286100D01*
X156258100Y-123698100D02*
X156258100Y-128524100D01*
X156258100Y-123698100D02*
X156385100Y-123571100D01*
X156258100Y-128524100D02*
X156385100Y-128651100D01*
X156385100Y-123190100D02*
X156385100Y-123571100D01*
X156385100Y-129032100D02*
X156385100Y-128651100D01*
X154099100Y-123190100D02*
G75*
G02*
X154353100Y-122936100I254000J0D01*
G01*
X154353100Y-129286100D02*
G75*
G02*
X154099100Y-129032100I0J254000D01*
G01*
X156131100Y-122936100D02*
G75*
G02*
X156385100Y-123190100I0J-254000D01*
G01*
X156385100Y-129032100D02*
G75*
G02*
X156131100Y-129286100I-254000J0D01*
G01*
D15*
G36*
X155546900Y-122936100D02*
G01*
X154937300Y-122936100D01*
X154937300Y-122072500D01*
X155546900Y-122072500D01*
X155546900Y-122936100D01*
G37*
G36*
X155546900Y-130149700D02*
G01*
X154937300Y-130149700D01*
X154937300Y-129286100D01*
X155546900Y-129286100D01*
X155546900Y-130149700D01*
G37*
%TO.C,LSKIB2*%
D18*
X126794100Y-114046100D02*
X126794100Y-117856100D01*
D19*
X126794100Y-114046100D02*
G75*
G02*
X126794100Y-117856100I2540000J-1905000D01*
G01*
D14*
X131874100Y-115951100D02*
G75*
G02*
X126794100Y-115951100I-2540000J0D01*
G01*
X126794100Y-115951100D02*
G75*
G02*
X131874100Y-115951100I2540000J0D01*
G01*
%TO.C,SKIB2*%
D16*
X151686100Y-83439100D02*
X151686100Y-88519100D01*
X151686100Y-88519100D02*
X153464100Y-88519100D01*
X153464100Y-88011100D02*
X154988100Y-88011100D01*
X153464100Y-88519100D02*
X153464100Y-88011100D01*
X153464100Y-88519100D02*
X154988100Y-88519100D01*
X154988100Y-88011100D02*
X154988100Y-88519100D01*
X154988100Y-88519100D02*
X156004100Y-88519100D01*
X156004100Y-88011100D02*
X157528100Y-88011100D01*
X156004100Y-88519100D02*
X156004100Y-88011100D01*
X156004100Y-88519100D02*
X157528100Y-88519100D01*
X157528100Y-88011100D02*
X157528100Y-88519100D01*
X157528100Y-88519100D02*
X159306100Y-88519100D01*
X159306100Y-83439100D02*
X151686100Y-83439100D01*
X159306100Y-88519100D02*
X159306100Y-83439100D01*
%TO.C,LSKIB1*%
D18*
X126794100Y-95123100D02*
X126794100Y-98933100D01*
D19*
X126794100Y-95123100D02*
G75*
G02*
X126794100Y-98933100I2540000J-1905000D01*
G01*
D14*
X131874100Y-97028100D02*
G75*
G02*
X126794100Y-97028100I-2540000J0D01*
G01*
X126794100Y-97028100D02*
G75*
G02*
X131874100Y-97028100I2540000J0D01*
G01*
%TO.C,R4*%
X145717100Y-123063100D02*
X145717100Y-123444100D01*
X145717100Y-128905100D02*
X145717100Y-128524100D01*
X145844100Y-123571100D02*
X145717100Y-123444100D01*
X145844100Y-123571100D02*
X145844100Y-128397100D01*
X145844100Y-128397100D02*
X145717100Y-128524100D01*
X147749100Y-122809100D02*
X145971100Y-122809100D01*
X147749100Y-129159100D02*
X145971100Y-129159100D01*
X147876100Y-123571100D02*
X147876100Y-128397100D01*
X147876100Y-123571100D02*
X148003100Y-123444100D01*
X147876100Y-128397100D02*
X148003100Y-128524100D01*
X148003100Y-123063100D02*
X148003100Y-123444100D01*
X148003100Y-128905100D02*
X148003100Y-128524100D01*
X145717100Y-123063100D02*
G75*
G02*
X145971100Y-122809100I254000J0D01*
G01*
X145971100Y-129159100D02*
G75*
G02*
X145717100Y-128905100I0J254000D01*
G01*
X147749100Y-122809100D02*
G75*
G02*
X148003100Y-123063100I0J-254000D01*
G01*
X148003100Y-128905100D02*
G75*
G02*
X147749100Y-129159100I-254000J0D01*
G01*
D15*
G36*
X147164900Y-122809100D02*
G01*
X146555300Y-122809100D01*
X146555300Y-121945500D01*
X147164900Y-121945500D01*
X147164900Y-122809100D01*
G37*
G36*
X147164900Y-130022700D02*
G01*
X146555300Y-130022700D01*
X146555300Y-129159100D01*
X147164900Y-129159100D01*
X147164900Y-130022700D01*
G37*
%TO.C,Q2*%
D16*
X168069100Y-94869100D02*
X168069100Y-92964100D01*
X168069100Y-96393100D02*
X168958100Y-96393100D01*
X168069100Y-108839100D02*
X168069100Y-96393100D01*
X168069100Y-108839100D02*
X178483100Y-108839100D01*
D17*
X168704100Y-108204100D02*
X168704100Y-99949100D01*
X168704100Y-108204100D02*
X177848100Y-108204100D01*
D16*
X168958100Y-94869100D02*
X168069100Y-94869100D01*
X168958100Y-96393100D02*
X168958100Y-94869100D01*
X177594100Y-94869100D02*
X178483100Y-94869100D01*
X177594100Y-96393100D02*
X177594100Y-94869100D01*
D17*
X177848100Y-99949100D02*
X168704100Y-99949100D01*
X177848100Y-99949100D02*
X177848100Y-108204100D01*
D16*
X178483100Y-92964100D02*
X168069100Y-92964100D01*
X178483100Y-94869100D02*
X178483100Y-92964100D01*
X178483100Y-96393100D02*
X177594100Y-96393100D01*
X178483100Y-108839100D02*
X178483100Y-96393100D01*
X175079500Y-96393100D02*
G75*
G02*
X171472700Y-96393100I-1803400J0D01*
G01*
X171472700Y-96393100D02*
G75*
G02*
X175079500Y-96393100I1803400J0D01*
G01*
D15*
G36*
X171371100Y-111633100D02*
G01*
X170101100Y-111633100D01*
X170101100Y-108839100D01*
X171371100Y-108839100D01*
X171371100Y-111633100D01*
G37*
G36*
X171117100Y-112268100D02*
G01*
X170355100Y-112268100D01*
X170355100Y-111633100D01*
X171117100Y-111633100D01*
X171117100Y-112268100D01*
G37*
G36*
X173911100Y-111633100D02*
G01*
X172641100Y-111633100D01*
X172641100Y-108839100D01*
X173911100Y-108839100D01*
X173911100Y-111633100D01*
G37*
G36*
X173657100Y-112268100D02*
G01*
X172895100Y-112268100D01*
X172895100Y-111633100D01*
X173657100Y-111633100D01*
X173657100Y-112268100D01*
G37*
G36*
X176451100Y-111633100D02*
G01*
X175181100Y-111633100D01*
X175181100Y-108839100D01*
X176451100Y-108839100D01*
X176451100Y-111633100D01*
G37*
G36*
X176197100Y-112268100D02*
G01*
X175435100Y-112268100D01*
X175435100Y-111633100D01*
X176197100Y-111633100D01*
X176197100Y-112268100D01*
G37*
%TO.C,R3*%
D14*
X151305100Y-123190100D02*
X151305100Y-123571100D01*
X151305100Y-129032100D02*
X151305100Y-128651100D01*
X151432100Y-123698100D02*
X151305100Y-123571100D01*
X151432100Y-123698100D02*
X151432100Y-128524100D01*
X151432100Y-128524100D02*
X151305100Y-128651100D01*
X153337100Y-122936100D02*
X151559100Y-122936100D01*
X153337100Y-129286100D02*
X151559100Y-129286100D01*
X153464100Y-123698100D02*
X153464100Y-128524100D01*
X153464100Y-123698100D02*
X153591100Y-123571100D01*
X153464100Y-128524100D02*
X153591100Y-128651100D01*
X153591100Y-123190100D02*
X153591100Y-123571100D01*
X153591100Y-129032100D02*
X153591100Y-128651100D01*
X151305100Y-123190100D02*
G75*
G02*
X151559100Y-122936100I254000J0D01*
G01*
X151559100Y-129286100D02*
G75*
G02*
X151305100Y-129032100I0J254000D01*
G01*
X153337100Y-122936100D02*
G75*
G02*
X153591100Y-123190100I0J-254000D01*
G01*
X153591100Y-129032100D02*
G75*
G02*
X153337100Y-129286100I-254000J0D01*
G01*
D15*
G36*
X152752900Y-122936100D02*
G01*
X152143300Y-122936100D01*
X152143300Y-122072500D01*
X152752900Y-122072500D01*
X152752900Y-122936100D01*
G37*
G36*
X152752900Y-130149700D02*
G01*
X152143300Y-130149700D01*
X152143300Y-129286100D01*
X152752900Y-129286100D01*
X152752900Y-130149700D01*
G37*
%TO.C,SP0*%
D14*
X150797100Y-85852100D02*
G75*
G02*
X138351100Y-85852100I-6223000J0D01*
G01*
X138351100Y-85852100D02*
G75*
G02*
X150797100Y-85852100I6223000J0D01*
G01*
X150289100Y-85852100D02*
G75*
G02*
X138859100Y-85852100I-5715000J0D01*
G01*
X138859100Y-85852100D02*
G75*
G02*
X150289100Y-85852100I5715000J0D01*
G01*
X145590100Y-85852100D02*
G75*
G02*
X143558100Y-85852100I-1016000J0D01*
G01*
X143558100Y-85852100D02*
G75*
G02*
X145590100Y-85852100I1016000J0D01*
G01*
%TD*%
M02*
