%TF.GenerationSoftware,KiCad,Pcbnew,10.0.3*%
%TF.CreationDate,2026-08-04T10:35:35-03:00*%
%TF.ProjectId,Esquema,45737175-656d-4612-9e6b-696361645f70,rev?*%
%TF.SameCoordinates,Original*%
%TF.FileFunction,Copper,L2,Bot*%
%TF.FilePolarity,Positive*%
%FSLAX46Y46*%
G04 Gerber Fmt 4.6, Leading zero omitted, Abs format (unit mm)*
G04 Created by KiCad (PCBNEW 10.0.3) date 2026-08-04 10:35:35*
%MOMM*%
%LPD*%
G01*
G04 APERTURE LIST*
%TA.AperFunction,ComponentPad*%
%ADD10O,3.860800X1.930400*%
%TD*%
%TA.AperFunction,ComponentPad*%
%ADD11O,1.270000X2.540000*%
%TD*%
%TA.AperFunction,ComponentPad*%
%ADD12O,1.930400X3.860800*%
%TD*%
%TA.AperFunction,ComponentPad*%
%ADD13O,2.235200X4.470400*%
%TD*%
%TA.AperFunction,ComponentPad*%
%ADD14O,2.794000X1.397000*%
%TD*%
%TA.AperFunction,ViaPad*%
%ADD15C,2.117600*%
%TD*%
%TA.AperFunction,Conductor*%
%ADD16C,1.700000*%
%TD*%
%TA.AperFunction,Conductor*%
%ADD17C,1.400000*%
%TD*%
G04 APERTURE END LIST*
D10*
%TO.P,R1,1*%
%TO.N,N$4*%
X121206100Y-84709100D03*
%TO.P,R1,2*%
%TO.N,SKIB1_CONECTOR*%
X131366100Y-84709100D03*
%TD*%
D11*
%TO.P,UNK3.3-BUZ0,1*%
%TO.N,BUZZER*%
X142796100Y-126619100D03*
%TO.P,UNK3.3-BUZ0,2*%
%TO.N,3.3V*%
X140256100Y-126619100D03*
%TD*%
%TO.P,S1-S2,1*%
%TO.N,SINAL_SKIB2*%
X125016100Y-126619100D03*
%TO.P,S1-S2,2*%
%TO.N,SINAL_SKIB1*%
X122476100Y-126619100D03*
%TD*%
D12*
%TO.P,R5,1*%
%TO.N,SKIB1_CONECTOR*%
X135811100Y-84709100D03*
%TO.P,R5,2*%
%TO.N,N$3*%
X135811100Y-94869100D03*
%TD*%
D13*
%TO.P,Q1,1*%
%TO.N,SKIB1*%
X158036100Y-113919100D03*
%TO.P,Q1,2*%
%TO.N,SKIB1_CONECTOR*%
X160576100Y-113919100D03*
%TO.P,Q1,3*%
%TO.N,GND*%
X163116100Y-113919100D03*
%TD*%
%TO.P,Q3,1*%
%TO.N,BUZZER*%
X145336100Y-113919100D03*
%TO.P,Q3,2*%
%TO.N,N$2*%
X147876100Y-113919100D03*
%TO.P,Q3,3*%
%TO.N,GND*%
X150416100Y-113919100D03*
%TD*%
D11*
%TO.P,SK1-SK2,1*%
%TO.N,SKIB2*%
X160830100Y-125349100D03*
%TO.P,SK1-SK2,2*%
%TO.N,SKIB1*%
X163370100Y-125349100D03*
%TD*%
%TO.P,SKIB1.0,1*%
%TO.N,SKIB1_CONECTOR*%
X172006100Y-85979100D03*
%TO.P,SKIB1.0,2*%
%TO.N,VCC*%
X174546100Y-85979100D03*
%TD*%
D12*
%TO.P,R7,1*%
%TO.N,SKIB2_CONECTOR*%
X136319100Y-103378100D03*
%TO.P,R7,2*%
%TO.N,N$1*%
X136319100Y-113538100D03*
%TD*%
D10*
%TO.P,R6,1*%
%TO.N,N$5*%
X122476100Y-103124100D03*
%TO.P,R6,2*%
%TO.N,SKIB2_CONECTOR*%
X132636100Y-103124100D03*
%TD*%
%TO.P,OP2,1*%
%TO.N,N$5*%
X121510900Y-107569100D03*
%TO.P,OP2,2*%
%TO.N,GND*%
X121510900Y-110109100D03*
%TO.P,OP2,3*%
%TO.N,SINAL_SKIB2*%
X131061300Y-110109100D03*
%TO.P,OP2,4*%
%TO.N,3.3V*%
X131061300Y-107569100D03*
%TD*%
D11*
%TO.P,SKIB1.1,1*%
%TO.N,SKIB1_CONECTOR*%
X165529100Y-85979100D03*
%TO.P,SKIB1.1,2*%
%TO.N,VCC*%
X162989100Y-85979100D03*
%TD*%
%TO.P,BATERIA0,1*%
%TO.N,GND*%
X169466100Y-125349100D03*
%TO.P,BATERIA0,2*%
%TO.N,VCC*%
X172006100Y-125349100D03*
%TD*%
D10*
%TO.P,OP1,1*%
%TO.N,N$4*%
X121510900Y-88519100D03*
%TO.P,OP1,2*%
%TO.N,GND*%
X121510900Y-91059100D03*
%TO.P,OP1,3*%
%TO.N,SINAL_SKIB1*%
X131061300Y-91059100D03*
%TO.P,OP1,4*%
%TO.N,3.3V*%
X131061300Y-88519100D03*
%TD*%
D11*
%TO.P,GND0,1*%
%TO.N,GND*%
X131366100Y-126619100D03*
%TO.P,GND0,2*%
X133906100Y-126619100D03*
%TD*%
D12*
%TO.P,R2,1*%
%TO.N,GND*%
X155242100Y-131191100D03*
%TO.P,R2,2*%
%TO.N,SKIB1*%
X155242100Y-121031100D03*
%TD*%
D11*
%TO.P,LSKIB2,A*%
%TO.N,N$1*%
X130604100Y-115951100D03*
%TO.P,LSKIB2,K*%
%TO.N,GND*%
X128064100Y-115951100D03*
%TD*%
%TO.P,SKIB2,1*%
%TO.N,SKIB2_CONECTOR*%
X154226100Y-85979100D03*
%TO.P,SKIB2,2*%
%TO.N,VCC*%
X156766100Y-85979100D03*
%TD*%
%TO.P,LSKIB1,A*%
%TO.N,N$3*%
X130604100Y-97028100D03*
%TO.P,LSKIB1,K*%
%TO.N,GND*%
X128064100Y-97028100D03*
%TD*%
D12*
%TO.P,R4,1*%
%TO.N,GND*%
X146860100Y-131064100D03*
%TO.P,R4,2*%
%TO.N,BUZZER*%
X146860100Y-120904100D03*
%TD*%
D13*
%TO.P,Q2,1*%
%TO.N,SKIB2*%
X170736100Y-113919100D03*
%TO.P,Q2,2*%
%TO.N,SKIB2_CONECTOR*%
X173276100Y-113919100D03*
%TO.P,Q2,3*%
%TO.N,GND*%
X175816100Y-113919100D03*
%TD*%
D12*
%TO.P,R3,1*%
%TO.N,GND*%
X152448100Y-131191100D03*
%TO.P,R3,2*%
%TO.N,SKIB2*%
X152448100Y-121031100D03*
%TD*%
D14*
%TO.P,SP0,+*%
%TO.N,VCC*%
X144574100Y-83312100D03*
%TO.P,SP0,-*%
%TO.N,N$2*%
X144574100Y-88392100D03*
%TD*%
D15*
%TO.N,SKIB1_CONECTOR*%
X132636100Y-80899100D03*
X166926100Y-81383100D03*
%TO.N,GND*%
X159306100Y-117729100D03*
X121206100Y-118999100D03*
X151686100Y-117729100D03*
X133906100Y-118999100D03*
%TO.N,SKIB2_CONECTOR*%
X173276100Y-91059100D03*
X160576100Y-91059100D03*
%TD*%
%TO.N,N$4*%
D16*
X122476100Y-88519100D02*
X121206100Y-87249100D01*
X121206100Y-84709100D02*
X121206100Y-87249100D01*
%TO.N,SKIB1_CONECTOR*%
X170736100Y-88519100D02*
X172006100Y-87249100D01*
X166926100Y-81383100D02*
X165656100Y-82653100D01*
X172006100Y-87249100D02*
X172006100Y-85979100D01*
X160576100Y-105701385D02*
X165656100Y-100621385D01*
X172006100Y-83312100D02*
X170077100Y-81383100D01*
X165656100Y-92329100D02*
X169466100Y-88519100D01*
X160576100Y-113919100D02*
X160576100Y-105701385D01*
X169466100Y-88519100D02*
X170736100Y-88519100D01*
X165656100Y-82653100D02*
X165529100Y-82780100D01*
X131366100Y-82169100D02*
X132636100Y-80899100D01*
X172006100Y-85979100D02*
X172006100Y-83312100D01*
X131366100Y-82169100D02*
X131366100Y-84709100D01*
X165529100Y-82780100D02*
X165529100Y-85979100D01*
X170077100Y-81383100D02*
X166926100Y-81383100D01*
X165656100Y-100621385D02*
X165656100Y-92329100D01*
X135811100Y-84709100D02*
X131366100Y-84709100D01*
%TO.N,BUZZER*%
X144510600Y-118554600D02*
X145336100Y-117729100D01*
X142796100Y-126619100D02*
X142796100Y-120269100D01*
X142796100Y-120269100D02*
X144510600Y-118554600D01*
X146860100Y-120904100D02*
X144510600Y-118554600D01*
X145336100Y-117729100D02*
X145336100Y-113919100D01*
%TO.N,3.3V*%
X134962543Y-100392700D02*
X138478100Y-96877144D01*
X134898143Y-107569100D02*
X130096100Y-107569100D01*
X130731100Y-100584100D02*
X130922500Y-100392700D01*
X138478100Y-96877144D02*
X138478100Y-90551100D01*
X140256100Y-126619100D02*
X140256100Y-112927057D01*
X138478100Y-90551100D02*
X136446100Y-88519100D01*
X128826100Y-106299100D02*
X128826100Y-102489100D01*
X131366100Y-100392700D02*
X134962543Y-100392700D01*
X136446100Y-88519100D02*
X130096100Y-88519100D01*
X128826100Y-102489100D02*
X130731100Y-100584100D01*
X131366100Y-100392700D02*
X130922500Y-100392700D01*
X130096100Y-107569100D02*
X128826100Y-106299100D01*
X140256100Y-112927057D02*
X134898143Y-107569100D01*
%TO.N,SINAL_SKIB2*%
X125016100Y-126619100D02*
X125016100Y-124587100D01*
X123746100Y-115189100D02*
X123746100Y-123317100D01*
X125016100Y-124587100D02*
X123746100Y-123317100D01*
X130096100Y-110109100D02*
X128826100Y-110109100D01*
X128826100Y-110109100D02*
X123746100Y-115189100D01*
%TO.N,SINAL_SKIB1*%
X128600037Y-91059100D02*
X130096100Y-91059100D01*
X128600037Y-91059100D02*
X118158100Y-101501038D01*
X118158100Y-101501038D02*
X118158100Y-121221600D01*
X118158100Y-121221600D02*
X122476100Y-126619100D01*
%TO.N,N$3*%
X132763100Y-94869100D02*
X135811100Y-94869100D01*
X130604100Y-97028100D02*
X132763100Y-94869100D01*
%TO.N,SKIB1*%
X161592100Y-121031100D02*
X155242100Y-121031100D01*
X155242100Y-116713100D02*
X155242100Y-121031100D01*
X163370100Y-125349100D02*
X163370100Y-122809100D01*
X163370100Y-122809100D02*
X161592100Y-121031100D01*
X158036100Y-113919100D02*
X155242100Y-116713100D01*
%TO.N,N$2*%
X147876100Y-105029100D02*
X153845100Y-99060100D01*
X153845100Y-99060100D02*
X153845100Y-94996100D01*
X146733100Y-91186100D02*
X144574100Y-89027100D01*
X144574100Y-89027100D02*
X144574100Y-88392100D01*
X153845100Y-94996100D02*
X150035100Y-91186100D01*
X150035100Y-91186100D02*
X146733100Y-91186100D01*
X147876100Y-113919100D02*
X147876100Y-105029100D01*
%TO.N,SKIB2*%
X152448100Y-121031100D02*
X152448100Y-123444100D01*
X166037100Y-121158100D02*
X170736100Y-116459100D01*
X160830100Y-125349100D02*
X160830100Y-127889100D01*
X166037100Y-128016100D02*
X166037100Y-121158100D01*
X154353100Y-125349100D02*
X160830100Y-125349100D01*
X164894100Y-129159100D02*
X166037100Y-128016100D01*
X160830100Y-127889100D02*
X162100100Y-129159100D01*
X152448100Y-123444100D02*
X154353100Y-125349100D01*
X162100100Y-129159100D02*
X164894100Y-129159100D01*
X170736100Y-113919100D02*
X170736100Y-116459100D01*
%TO.N,VCC*%
X177848100Y-125349100D02*
X179372100Y-123825100D01*
X156766100Y-85979100D02*
X156766100Y-80899100D01*
X174546100Y-85979100D02*
X174546100Y-81153100D01*
X150162100Y-78613100D02*
X145209100Y-83566100D01*
X165402100Y-78613100D02*
X159052100Y-78613100D01*
X145209100Y-83566100D02*
X144574100Y-83312100D01*
X162989100Y-81026100D02*
X165402100Y-78613100D01*
X162989100Y-85979100D02*
X162989100Y-81026100D01*
X172006100Y-125349100D02*
X177848100Y-125349100D01*
X159052100Y-78613100D02*
X150162100Y-78613100D01*
X172006100Y-78613100D02*
X165402100Y-78613100D01*
X156766100Y-80899100D02*
X159052100Y-78613100D01*
X177135100Y-79625300D02*
X176122900Y-78613100D01*
X172006100Y-78613100D02*
X174546100Y-81153100D01*
X177135100Y-79625300D02*
X177135100Y-92615044D01*
X179372100Y-94852044D02*
X179372100Y-123825100D01*
X177135100Y-92615044D02*
X179372100Y-94852044D01*
X176122900Y-78613100D02*
X172006100Y-78613100D01*
%TO.N,SKIB2_CONECTOR*%
X141018100Y-98552100D02*
X136446100Y-103124100D01*
X170736100Y-91059100D02*
X173276100Y-91059100D01*
X173276100Y-113919100D02*
X173276100Y-106299100D01*
X168196100Y-93599100D02*
X170736100Y-91059100D01*
X142137100Y-86003100D02*
X141018100Y-87122100D01*
X151686100Y-89305100D02*
X148384100Y-86003100D01*
X154226100Y-88948100D02*
X154583100Y-89305100D01*
X156337100Y-91059100D02*
X160576100Y-91059100D01*
X151686100Y-89305100D02*
X154583100Y-89305100D01*
D17*
X147012818Y-86003100D02*
X142137100Y-86003100D01*
D16*
X136319100Y-103378100D02*
X136065100Y-103124100D01*
X168196100Y-101219100D02*
X168196100Y-94413900D01*
X141018100Y-87122100D02*
X141018100Y-98552100D01*
X168196100Y-94413900D02*
X168196100Y-94344044D01*
X132636100Y-103124100D02*
X136446100Y-103124100D01*
X154226100Y-85979100D02*
X154226100Y-88948100D01*
X148384100Y-86003100D02*
X147012818Y-86003100D01*
X132636100Y-103124100D02*
X136065100Y-103124100D01*
X173276100Y-106299100D02*
X168196100Y-101219100D01*
X154583100Y-89305100D02*
X156337100Y-91059100D01*
X168196100Y-94344044D02*
X168196100Y-93599100D01*
%TO.N,N$1*%
X130604100Y-115951100D02*
X133017100Y-113538100D01*
X136319100Y-113538100D02*
X133017100Y-113538100D01*
%TO.N,N$5*%
X122476100Y-103124100D02*
X122476100Y-107569100D01*
%TD*%
%TA.AperFunction,Conductor*%
%TO.N,GND*%
G36*
X183097623Y-75814352D02*
G01*
X183215821Y-75874577D01*
X183309623Y-75968379D01*
X183369848Y-76086577D01*
X183390600Y-76217600D01*
X183390600Y-133789600D01*
X183369848Y-133920623D01*
X183309623Y-134038821D01*
X183215821Y-134132623D01*
X183097623Y-134192848D01*
X182966600Y-134213600D01*
X157923294Y-134213600D01*
X157792271Y-134192848D01*
X157674073Y-134132623D01*
X157580271Y-134038821D01*
X157520046Y-133920623D01*
X157499294Y-133789600D01*
X157520046Y-133658577D01*
X157564283Y-133564018D01*
X157622248Y-133471765D01*
X157622254Y-133471756D01*
X157754569Y-133196999D01*
X157754572Y-133196992D01*
X157855290Y-132909157D01*
X157855296Y-132909135D01*
X157923153Y-132611839D01*
X157923154Y-132611829D01*
X157957300Y-132308781D01*
X157957300Y-132066100D01*
X155666100Y-132066100D01*
X155535077Y-132045348D01*
X155416879Y-131985123D01*
X155323077Y-131891321D01*
X155262852Y-131773123D01*
X155242100Y-131642100D01*
X155242100Y-131597500D01*
X155295604Y-131597500D01*
X155398965Y-131569805D01*
X155491636Y-131516301D01*
X155567301Y-131440636D01*
X155620805Y-131347965D01*
X155648500Y-131244604D01*
X155648500Y-131137596D01*
X155620805Y-131034235D01*
X155567301Y-130941564D01*
X155491636Y-130865899D01*
X155398965Y-130812395D01*
X155295604Y-130784700D01*
X155242100Y-130784700D01*
X155242100Y-130740100D01*
X155262852Y-130609077D01*
X155323077Y-130490879D01*
X155416879Y-130397077D01*
X155535077Y-130336852D01*
X155666100Y-130316100D01*
X157957300Y-130316100D01*
X157957300Y-130073418D01*
X157923154Y-129770370D01*
X157923153Y-129770360D01*
X157855296Y-129473064D01*
X157855290Y-129473042D01*
X157754572Y-129185207D01*
X157754569Y-129185200D01*
X157622254Y-128910443D01*
X157622244Y-128910425D01*
X157460009Y-128652228D01*
X157269853Y-128413781D01*
X157054218Y-128198146D01*
X156815771Y-128007990D01*
X156557574Y-127845755D01*
X156557556Y-127845745D01*
X156395307Y-127767611D01*
X156286263Y-127692066D01*
X156205901Y-127586521D01*
X156162087Y-127461309D01*
X156159110Y-127328686D01*
X156197262Y-127201634D01*
X156272807Y-127092590D01*
X156378352Y-127012228D01*
X156503564Y-126968414D01*
X156579273Y-126961600D01*
X158793600Y-126961600D01*
X158924623Y-126982352D01*
X159042821Y-127042577D01*
X159136623Y-127136379D01*
X159196848Y-127254577D01*
X159217600Y-127385600D01*
X159217600Y-128016006D01*
X159257304Y-128266694D01*
X159324909Y-128474758D01*
X159335738Y-128508085D01*
X159450966Y-128734234D01*
X159600154Y-128939574D01*
X159600156Y-128939576D01*
X159600160Y-128939581D01*
X161049619Y-130389040D01*
X161049623Y-130389043D01*
X161049626Y-130389046D01*
X161254966Y-130538234D01*
X161481115Y-130653462D01*
X161722505Y-130731895D01*
X161973193Y-130771600D01*
X165021007Y-130771600D01*
X165271695Y-130731895D01*
X165513085Y-130653462D01*
X165739234Y-130538234D01*
X165944574Y-130389046D01*
X165944578Y-130389041D01*
X165944581Y-130389040D01*
X166400255Y-129933366D01*
X178891600Y-129933366D01*
X178891600Y-130162834D01*
X178921552Y-130390338D01*
X178980942Y-130611987D01*
X179064852Y-130814564D01*
X179068758Y-130823992D01*
X179183485Y-131022708D01*
X179323184Y-131204765D01*
X179485434Y-131367015D01*
X179485438Y-131367018D01*
X179485439Y-131367019D01*
X179501983Y-131379714D01*
X179667491Y-131506714D01*
X179849912Y-131612033D01*
X179866212Y-131621444D01*
X180078213Y-131709258D01*
X180299862Y-131768648D01*
X180527366Y-131798600D01*
X180527372Y-131798600D01*
X180756828Y-131798600D01*
X180756834Y-131798600D01*
X180984338Y-131768648D01*
X181205987Y-131709258D01*
X181417988Y-131621444D01*
X181517350Y-131564077D01*
X181616708Y-131506714D01*
X181616712Y-131506711D01*
X181798761Y-131367019D01*
X181961019Y-131204761D01*
X182100711Y-131022712D01*
X182100711Y-131022711D01*
X182100714Y-131022708D01*
X182174034Y-130895712D01*
X182215444Y-130823988D01*
X182303258Y-130611987D01*
X182362648Y-130390338D01*
X182392600Y-130162834D01*
X182392600Y-129933366D01*
X182362648Y-129705862D01*
X182303258Y-129484213D01*
X182215444Y-129272212D01*
X182165208Y-129185200D01*
X182100714Y-129073491D01*
X181975601Y-128910443D01*
X181961019Y-128891439D01*
X181961018Y-128891438D01*
X181961015Y-128891434D01*
X181798765Y-128729184D01*
X181616708Y-128589485D01*
X181417992Y-128474758D01*
X181417990Y-128474757D01*
X181417988Y-128474756D01*
X181205987Y-128386942D01*
X180984338Y-128327552D01*
X180756834Y-128297600D01*
X180527366Y-128297600D01*
X180299862Y-128327552D01*
X180189037Y-128357247D01*
X180078212Y-128386942D01*
X179866207Y-128474758D01*
X179667491Y-128589485D01*
X179485434Y-128729184D01*
X179323184Y-128891434D01*
X179183485Y-129073491D01*
X179068758Y-129272207D01*
X178980942Y-129484212D01*
X178962710Y-129552257D01*
X178921552Y-129705862D01*
X178891600Y-129933366D01*
X166400255Y-129933366D01*
X167267040Y-129066581D01*
X167267041Y-129066578D01*
X167267046Y-129066574D01*
X167416234Y-128861234D01*
X167531462Y-128635085D01*
X167609895Y-128393695D01*
X167618772Y-128337648D01*
X167659765Y-128211484D01*
X167737738Y-128104162D01*
X167845059Y-128026189D01*
X167971223Y-127985195D01*
X168103879Y-127985195D01*
X168230043Y-128026188D01*
X168263134Y-128044964D01*
X168310609Y-128074794D01*
X168551969Y-128191028D01*
X168804807Y-128279499D01*
X168804811Y-128279500D01*
X168831099Y-128285500D01*
X168831100Y-128285500D01*
X168831100Y-125282220D01*
X168958100Y-125282220D01*
X168958100Y-125415980D01*
X168992719Y-125545181D01*
X169059598Y-125661020D01*
X169154180Y-125755602D01*
X169270019Y-125822481D01*
X169399220Y-125857100D01*
X169532980Y-125857100D01*
X169662181Y-125822481D01*
X169778020Y-125755602D01*
X169872602Y-125661020D01*
X169939481Y-125545181D01*
X169974100Y-125415980D01*
X169974100Y-125282220D01*
X169939481Y-125153019D01*
X169872602Y-125037180D01*
X169778020Y-124942598D01*
X169662181Y-124875719D01*
X169532980Y-124841100D01*
X169399220Y-124841100D01*
X169270019Y-124875719D01*
X169154180Y-124942598D01*
X169059598Y-125037180D01*
X168992719Y-125153019D01*
X168958100Y-125282220D01*
X168831100Y-125282220D01*
X168831100Y-122412699D01*
X168804811Y-122418700D01*
X168804799Y-122418703D01*
X168551970Y-122507171D01*
X168310609Y-122623405D01*
X168299176Y-122630589D01*
X168251149Y-122651115D01*
X168204623Y-122674822D01*
X168190418Y-122677071D01*
X168177194Y-122682724D01*
X168125181Y-122687404D01*
X168073600Y-122695574D01*
X168059394Y-122693324D01*
X168045071Y-122694613D01*
X167994159Y-122682991D01*
X167942577Y-122674822D01*
X167929762Y-122668292D01*
X167915741Y-122665092D01*
X167870908Y-122638304D01*
X167824379Y-122614597D01*
X167814210Y-122604428D01*
X167801863Y-122597051D01*
X167767499Y-122557717D01*
X167730577Y-122520795D01*
X167724048Y-122507982D01*
X167714585Y-122497150D01*
X167694058Y-122449123D01*
X167670352Y-122402597D01*
X167668102Y-122388392D01*
X167662450Y-122375168D01*
X167649600Y-122271574D01*
X167649600Y-122001645D01*
X167670352Y-121870622D01*
X167730577Y-121752424D01*
X167773787Y-121701832D01*
X171966042Y-117509577D01*
X171966046Y-117509573D01*
X172115234Y-117304234D01*
X172230462Y-117078085D01*
X172230461Y-117078085D01*
X172238025Y-117063242D01*
X172240082Y-117064290D01*
X172297325Y-116970867D01*
X172398192Y-116884707D01*
X172520747Y-116833934D01*
X172652994Y-116823517D01*
X172664952Y-116824628D01*
X172697688Y-116828137D01*
X172908524Y-116884631D01*
X173152872Y-116916800D01*
X173399328Y-116916800D01*
X173455604Y-116909391D01*
X173505945Y-116914788D01*
X173521697Y-116919044D01*
X173538010Y-116919471D01*
X173585435Y-116936264D01*
X173634009Y-116949388D01*
X173647677Y-116958304D01*
X173663058Y-116963751D01*
X173711675Y-117000054D01*
X173745114Y-117021869D01*
X173751508Y-117029799D01*
X173760561Y-117036559D01*
X173902270Y-117178268D01*
X173902281Y-117178277D01*
X174154083Y-117379084D01*
X174154095Y-117379092D01*
X174426790Y-117550438D01*
X174426802Y-117550444D01*
X174716992Y-117690192D01*
X174941100Y-117768611D01*
X174941100Y-116014310D01*
X174961852Y-115883287D01*
X174973370Y-115852063D01*
X175060243Y-115642335D01*
X175124031Y-115404276D01*
X175156200Y-115159928D01*
X175156200Y-113845533D01*
X175257300Y-113845533D01*
X175257300Y-113992667D01*
X175295381Y-114134789D01*
X175368949Y-114262211D01*
X175472989Y-114366251D01*
X175600411Y-114439819D01*
X175742533Y-114477900D01*
X175889667Y-114477900D01*
X176031789Y-114439819D01*
X176159211Y-114366251D01*
X176263251Y-114262211D01*
X176336819Y-114134789D01*
X176374900Y-113992667D01*
X176374900Y-113845533D01*
X176336819Y-113703411D01*
X176263251Y-113575989D01*
X176159211Y-113471949D01*
X176031789Y-113398381D01*
X175889667Y-113360300D01*
X175742533Y-113360300D01*
X175600411Y-113398381D01*
X175472989Y-113471949D01*
X175368949Y-113575989D01*
X175295381Y-113703411D01*
X175257300Y-113845533D01*
X175156200Y-113845533D01*
X175156200Y-112678272D01*
X175124031Y-112433924D01*
X175060243Y-112195865D01*
X174973374Y-111986145D01*
X174942407Y-111857157D01*
X174941100Y-111823890D01*
X174941100Y-110006593D01*
X174910847Y-109948830D01*
X174888627Y-109818048D01*
X174888600Y-109813292D01*
X174888600Y-106172194D01*
X174873836Y-106078979D01*
X174873836Y-106078978D01*
X174858606Y-105982821D01*
X174848895Y-105921505D01*
X174770462Y-105680115D01*
X174655234Y-105453966D01*
X174506046Y-105248626D01*
X174506043Y-105248623D01*
X174506040Y-105248619D01*
X169932787Y-100675366D01*
X169913173Y-100648370D01*
X169889577Y-100624774D01*
X169874428Y-100595042D01*
X169854813Y-100568045D01*
X169844500Y-100536307D01*
X169829352Y-100506576D01*
X169824131Y-100473618D01*
X169813820Y-100441881D01*
X169808600Y-100375553D01*
X169808600Y-99856300D01*
X169829352Y-99725277D01*
X169889577Y-99607079D01*
X169983379Y-99513277D01*
X170101577Y-99453052D01*
X170232600Y-99432300D01*
X170363623Y-99453052D01*
X170481821Y-99513277D01*
X170517341Y-99542137D01*
X170617355Y-99632785D01*
X170617358Y-99632787D01*
X170947705Y-99877789D01*
X171300476Y-100089232D01*
X171431019Y-100150974D01*
X171672269Y-100265077D01*
X171672272Y-100265078D01*
X171672274Y-100265079D01*
X172059517Y-100403637D01*
X172059529Y-100403640D01*
X172059532Y-100403641D01*
X172329579Y-100471284D01*
X172458476Y-100503571D01*
X172865310Y-100563919D01*
X172865316Y-100563919D01*
X172865321Y-100563920D01*
X172865316Y-100563920D01*
X173276093Y-100584100D01*
X173276100Y-100584100D01*
X173276107Y-100584100D01*
X173686881Y-100563920D01*
X173686886Y-100563919D01*
X173686890Y-100563919D01*
X174093724Y-100503571D01*
X174492683Y-100403637D01*
X174879926Y-100265079D01*
X175251724Y-100089232D01*
X175604495Y-99877789D01*
X175934842Y-99632787D01*
X176239585Y-99356585D01*
X176515787Y-99051842D01*
X176760789Y-98721495D01*
X176971924Y-98369237D01*
X177057082Y-98267526D01*
X177169505Y-98197106D01*
X177298185Y-98164873D01*
X177430529Y-98173982D01*
X177553580Y-98223542D01*
X177655293Y-98308701D01*
X177725713Y-98421124D01*
X177757946Y-98549804D01*
X177759600Y-98587219D01*
X177759600Y-109879852D01*
X177738848Y-110010875D01*
X177678623Y-110129073D01*
X177584821Y-110222875D01*
X177466623Y-110283100D01*
X177335600Y-110303852D01*
X177204577Y-110283100D01*
X177151634Y-110261863D01*
X176915213Y-110148009D01*
X176915206Y-110148006D01*
X176691100Y-110069587D01*
X176691100Y-117768610D01*
X176915211Y-117690191D01*
X176915212Y-117690191D01*
X177151632Y-117576337D01*
X177278684Y-117538184D01*
X177411307Y-117541161D01*
X177536520Y-117584974D01*
X177642064Y-117665336D01*
X177717610Y-117774379D01*
X177755763Y-117901431D01*
X177759600Y-117958347D01*
X177759600Y-122981554D01*
X177754380Y-123014511D01*
X177754380Y-123047882D01*
X177744068Y-123079619D01*
X177738848Y-123112577D01*
X177723699Y-123142308D01*
X177713387Y-123174046D01*
X177693771Y-123201043D01*
X177678623Y-123230775D01*
X177635413Y-123281367D01*
X177304367Y-123612413D01*
X177197046Y-123690387D01*
X177070882Y-123731380D01*
X177004554Y-123736600D01*
X173176020Y-123736600D01*
X173044997Y-123715848D01*
X172926799Y-123655623D01*
X172916512Y-123648149D01*
X172916510Y-123648147D01*
X172738549Y-123518851D01*
X172542554Y-123418986D01*
X172444198Y-123387028D01*
X172333348Y-123351010D01*
X172116086Y-123316600D01*
X171896114Y-123316600D01*
X171896110Y-123316600D01*
X171701427Y-123347434D01*
X171568771Y-123347434D01*
X171442607Y-123306440D01*
X171335286Y-123228466D01*
X171303605Y-123193014D01*
X171247265Y-123122366D01*
X171247255Y-123122355D01*
X171057844Y-122932944D01*
X171057833Y-122932934D01*
X170848418Y-122765930D01*
X170848397Y-122765916D01*
X170621595Y-122623407D01*
X170380229Y-122507171D01*
X170127400Y-122418703D01*
X170127388Y-122418700D01*
X170101100Y-122412699D01*
X170101100Y-128285500D01*
X170127388Y-128279500D01*
X170127392Y-128279499D01*
X170380230Y-128191028D01*
X170621595Y-128074792D01*
X170848397Y-127932283D01*
X170848418Y-127932269D01*
X171057833Y-127765265D01*
X171057844Y-127765255D01*
X171247260Y-127575839D01*
X171303603Y-127505187D01*
X171401519Y-127415687D01*
X171522300Y-127360825D01*
X171654122Y-127345972D01*
X171701429Y-127350765D01*
X171896114Y-127381600D01*
X172116086Y-127381600D01*
X172333349Y-127347189D01*
X172542554Y-127279214D01*
X172738549Y-127179349D01*
X172916510Y-127050053D01*
X172916512Y-127050050D01*
X172926799Y-127042577D01*
X173044997Y-126982352D01*
X173176020Y-126961600D01*
X177975007Y-126961600D01*
X178225695Y-126921895D01*
X178467085Y-126843462D01*
X178693234Y-126728234D01*
X178898574Y-126579046D01*
X180602045Y-124875574D01*
X180612346Y-124861397D01*
X180751234Y-124670234D01*
X180866462Y-124444085D01*
X180944895Y-124202695D01*
X180984600Y-123952006D01*
X180984600Y-94725138D01*
X180944895Y-94474449D01*
X180866462Y-94233059D01*
X180751234Y-94006910D01*
X180602046Y-93801571D01*
X180602042Y-93801566D01*
X180422574Y-93622099D01*
X180422573Y-93622098D01*
X179188427Y-92387951D01*
X179110453Y-92280630D01*
X179069460Y-92154466D01*
X179069460Y-92021810D01*
X179110453Y-91895646D01*
X179188427Y-91788325D01*
X179295748Y-91710351D01*
X179421912Y-91669358D01*
X179554568Y-91669358D01*
X179680732Y-91710351D01*
X179700241Y-91720944D01*
X179739208Y-91743442D01*
X179739209Y-91743442D01*
X179739212Y-91743444D01*
X179951213Y-91831258D01*
X180172862Y-91890648D01*
X180400366Y-91920600D01*
X180400372Y-91920600D01*
X180629828Y-91920600D01*
X180629834Y-91920600D01*
X180857338Y-91890648D01*
X181078987Y-91831258D01*
X181290988Y-91743444D01*
X181419309Y-91669358D01*
X181489708Y-91628714D01*
X181577838Y-91561089D01*
X181671761Y-91489019D01*
X181834019Y-91326761D01*
X181973711Y-91144712D01*
X181973711Y-91144711D01*
X181973714Y-91144708D01*
X182054029Y-91005596D01*
X182088444Y-90945988D01*
X182176258Y-90733987D01*
X182235648Y-90512338D01*
X182265600Y-90284834D01*
X182265600Y-90055366D01*
X182235648Y-89827862D01*
X182176258Y-89606213D01*
X182088444Y-89394212D01*
X182058353Y-89342092D01*
X181973714Y-89195491D01*
X181834015Y-89013434D01*
X181671765Y-88851184D01*
X181489708Y-88711485D01*
X181290992Y-88596758D01*
X181290990Y-88596757D01*
X181290988Y-88596756D01*
X181078987Y-88508942D01*
X180857338Y-88449552D01*
X180629834Y-88419600D01*
X180400366Y-88419600D01*
X180172862Y-88449552D01*
X180092051Y-88471205D01*
X179951212Y-88508942D01*
X179739207Y-88596758D01*
X179540492Y-88711485D01*
X179429715Y-88796488D01*
X179313134Y-88859786D01*
X179182699Y-88883961D01*
X179051177Y-88866645D01*
X178931443Y-88809535D01*
X178835218Y-88718221D01*
X178771920Y-88601640D01*
X178747745Y-88471205D01*
X178747600Y-88460106D01*
X178747600Y-80450093D01*
X178768352Y-80319070D01*
X178828577Y-80200872D01*
X178922379Y-80107070D01*
X179040577Y-80046845D01*
X179171600Y-80026093D01*
X179302623Y-80046845D01*
X179420821Y-80107070D01*
X179429716Y-80113712D01*
X179540491Y-80198714D01*
X179681484Y-80280115D01*
X179739212Y-80313444D01*
X179951213Y-80401258D01*
X180172862Y-80460648D01*
X180400366Y-80490600D01*
X180400372Y-80490600D01*
X180629828Y-80490600D01*
X180629834Y-80490600D01*
X180857338Y-80460648D01*
X181078987Y-80401258D01*
X181290988Y-80313444D01*
X181407195Y-80246352D01*
X181489708Y-80198714D01*
X181552201Y-80150761D01*
X181671761Y-80059019D01*
X181834019Y-79896761D01*
X181973711Y-79714712D01*
X181973711Y-79714711D01*
X181973714Y-79714708D01*
X182064196Y-79557987D01*
X182088444Y-79515988D01*
X182176258Y-79303987D01*
X182235648Y-79082338D01*
X182265600Y-78854834D01*
X182265600Y-78625366D01*
X182235648Y-78397862D01*
X182176258Y-78176213D01*
X182088444Y-77964212D01*
X182079033Y-77947912D01*
X181973714Y-77765491D01*
X181834015Y-77583434D01*
X181671765Y-77421184D01*
X181489708Y-77281485D01*
X181290992Y-77166758D01*
X181290990Y-77166757D01*
X181290988Y-77166756D01*
X181078987Y-77078942D01*
X180857338Y-77019552D01*
X180629834Y-76989600D01*
X180400366Y-76989600D01*
X180172862Y-77019552D01*
X180095414Y-77040304D01*
X179951212Y-77078942D01*
X179739207Y-77166758D01*
X179540491Y-77281485D01*
X179358434Y-77421184D01*
X179196184Y-77583434D01*
X179056485Y-77765491D01*
X178941758Y-77964207D01*
X178853939Y-78176220D01*
X178849483Y-78189349D01*
X178846826Y-78188447D01*
X178802507Y-78287992D01*
X178713742Y-78386574D01*
X178598858Y-78452902D01*
X178469101Y-78480483D01*
X178337171Y-78466616D01*
X178215983Y-78412660D01*
X178147098Y-78356877D01*
X177173381Y-77383160D01*
X177173376Y-77383156D01*
X177173374Y-77383154D01*
X176968034Y-77233966D01*
X176741885Y-77118738D01*
X176741882Y-77118737D01*
X176741880Y-77118736D01*
X176500494Y-77040304D01*
X176249807Y-77000600D01*
X176249806Y-77000600D01*
X172133007Y-77000600D01*
X172133006Y-77000600D01*
X165529006Y-77000600D01*
X159179006Y-77000600D01*
X150289007Y-77000600D01*
X150035194Y-77000600D01*
X149784505Y-77040304D01*
X149543119Y-77118736D01*
X149543106Y-77118742D01*
X149316971Y-77233963D01*
X149316961Y-77233969D01*
X149111627Y-77383153D01*
X149111622Y-77383157D01*
X144920745Y-81574033D01*
X144813424Y-81652007D01*
X144698796Y-81691009D01*
X144646201Y-81700834D01*
X144554379Y-81694734D01*
X144301610Y-81717731D01*
X144055551Y-81779988D01*
X143926533Y-81835281D01*
X143880458Y-81843889D01*
X143860434Y-81844441D01*
X143841013Y-81849356D01*
X143802594Y-81851100D01*
X143760616Y-81851100D01*
X143533484Y-81887073D01*
X143533481Y-81887074D01*
X143314775Y-81958136D01*
X143314762Y-81958141D01*
X143109875Y-82062536D01*
X143109864Y-82062543D01*
X142923819Y-82197713D01*
X142761213Y-82360319D01*
X142626043Y-82546364D01*
X142626036Y-82546375D01*
X142521641Y-82751262D01*
X142521636Y-82751275D01*
X142450574Y-82969981D01*
X142450573Y-82969984D01*
X142414600Y-83197116D01*
X142414600Y-83427083D01*
X142450573Y-83654215D01*
X142450574Y-83654219D01*
X142509501Y-83835576D01*
X142530253Y-83966600D01*
X142509501Y-84097623D01*
X142449276Y-84215821D01*
X142355474Y-84309623D01*
X142237277Y-84369848D01*
X142106253Y-84390600D01*
X142010193Y-84390600D01*
X141759505Y-84430304D01*
X141518119Y-84508736D01*
X141518106Y-84508742D01*
X141291971Y-84623963D01*
X141291967Y-84623965D01*
X141086623Y-84773156D01*
X139788156Y-86071623D01*
X139638965Y-86276967D01*
X139638963Y-86276971D01*
X139523742Y-86503106D01*
X139523736Y-86503119D01*
X139445305Y-86744504D01*
X139445304Y-86744506D01*
X139428321Y-86851739D01*
X139408634Y-86976041D01*
X139407279Y-86984597D01*
X139405600Y-86995196D01*
X139405600Y-88174553D01*
X139384848Y-88305576D01*
X139324623Y-88423774D01*
X139230821Y-88517576D01*
X139112623Y-88577801D01*
X138981600Y-88598553D01*
X138850577Y-88577801D01*
X138732379Y-88517576D01*
X138681787Y-88474366D01*
X137496579Y-87289158D01*
X137496575Y-87289155D01*
X137496574Y-87289154D01*
X137366649Y-87194758D01*
X137272850Y-87100960D01*
X137212625Y-86982762D01*
X137191873Y-86851739D01*
X137212625Y-86720716D01*
X137248680Y-86639734D01*
X137250703Y-86636228D01*
X137250712Y-86636218D01*
X137363952Y-86440082D01*
X137450621Y-86230843D01*
X137509238Y-86012081D01*
X137538800Y-85787539D01*
X137538800Y-83630661D01*
X137509238Y-83406119D01*
X137450621Y-83187357D01*
X137450087Y-83186069D01*
X137404735Y-83076577D01*
X137363952Y-82978118D01*
X137250712Y-82781982D01*
X137214881Y-82735287D01*
X137112843Y-82602306D01*
X136952693Y-82442156D01*
X136773022Y-82304291D01*
X136773021Y-82304290D01*
X136773018Y-82304288D01*
X136576882Y-82191048D01*
X136367648Y-82104380D01*
X136282766Y-82081636D01*
X136148881Y-82045762D01*
X135924339Y-82016200D01*
X135697861Y-82016200D01*
X135473319Y-82045762D01*
X135410703Y-82062540D01*
X135254551Y-82104380D01*
X135045313Y-82191049D01*
X135045312Y-82191050D01*
X134837604Y-82310972D01*
X134713759Y-82358512D01*
X134581284Y-82365455D01*
X134453148Y-82331122D01*
X134341893Y-82258872D01*
X134258409Y-82155779D01*
X134210869Y-82031934D01*
X134203926Y-81899459D01*
X134238259Y-81771323D01*
X134258407Y-81731780D01*
X134273079Y-81706369D01*
X134364444Y-81485794D01*
X134426237Y-81255180D01*
X134457400Y-81018474D01*
X134457400Y-80779726D01*
X134426237Y-80543020D01*
X134364444Y-80312406D01*
X134273079Y-80091831D01*
X134235125Y-80026093D01*
X134153706Y-79885069D01*
X134153703Y-79885065D01*
X134008369Y-79695662D01*
X133839537Y-79526830D01*
X133650134Y-79381496D01*
X133650130Y-79381493D01*
X133443373Y-79262123D01*
X133443371Y-79262122D01*
X133443369Y-79262121D01*
X133222794Y-79170756D01*
X133060690Y-79127320D01*
X132992177Y-79108962D01*
X132848960Y-79090107D01*
X132755474Y-79077800D01*
X132516726Y-79077800D01*
X132482257Y-79082338D01*
X132280022Y-79108962D01*
X132117916Y-79152398D01*
X132049406Y-79170756D01*
X132049404Y-79170756D01*
X132049403Y-79170757D01*
X131828826Y-79262123D01*
X131622069Y-79381493D01*
X131622065Y-79381496D01*
X131432662Y-79526830D01*
X131263830Y-79695662D01*
X131118496Y-79885065D01*
X131118493Y-79885069D01*
X130999122Y-80091827D01*
X130915551Y-80293585D01*
X130846238Y-80406692D01*
X130823641Y-80431138D01*
X130136152Y-81118628D01*
X129986965Y-81323967D01*
X129986963Y-81323971D01*
X129871742Y-81550106D01*
X129871736Y-81550119D01*
X129793304Y-81791505D01*
X129754883Y-82034094D01*
X129754881Y-82034104D01*
X129753600Y-82042184D01*
X129753600Y-82843046D01*
X129732848Y-82974069D01*
X129672623Y-83092267D01*
X129578821Y-83186069D01*
X129541603Y-83210239D01*
X129438982Y-83269487D01*
X129438978Y-83269490D01*
X129259306Y-83407356D01*
X129099156Y-83567506D01*
X128961291Y-83747177D01*
X128848048Y-83943317D01*
X128761380Y-84152551D01*
X128760551Y-84155646D01*
X128702762Y-84371319D01*
X128673200Y-84595861D01*
X128673200Y-84822339D01*
X128702762Y-85046881D01*
X128728007Y-85141097D01*
X128761380Y-85265648D01*
X128848048Y-85474882D01*
X128961288Y-85671018D01*
X128961290Y-85671021D01*
X128961291Y-85671022D01*
X129099156Y-85850693D01*
X129259306Y-86010843D01*
X129438978Y-86148709D01*
X129438982Y-86148712D01*
X129473486Y-86168633D01*
X129576579Y-86252117D01*
X129648828Y-86363373D01*
X129683161Y-86491509D01*
X129676217Y-86623984D01*
X129628676Y-86747829D01*
X129545192Y-86850922D01*
X129433936Y-86923171D01*
X129423742Y-86927550D01*
X129330318Y-86966247D01*
X129134177Y-87079491D01*
X128954506Y-87217356D01*
X128794356Y-87377506D01*
X128656491Y-87557177D01*
X128543248Y-87753317D01*
X128456580Y-87962551D01*
X128421296Y-88094234D01*
X128397962Y-88181319D01*
X128368400Y-88405861D01*
X128368400Y-88632339D01*
X128394427Y-88830027D01*
X128397962Y-88856881D01*
X128434912Y-88994782D01*
X128448778Y-89126712D01*
X128421197Y-89256469D01*
X128354868Y-89371353D01*
X128256285Y-89460117D01*
X128156386Y-89507767D01*
X127981057Y-89564736D01*
X127981043Y-89564742D01*
X127754908Y-89679963D01*
X127754898Y-89679969D01*
X127549564Y-89829153D01*
X127549559Y-89829157D01*
X125566817Y-91811899D01*
X125459496Y-91889873D01*
X125333332Y-91930866D01*
X125265595Y-91930866D01*
X125265595Y-91934100D01*
X122385900Y-91934100D01*
X122385900Y-93774300D01*
X122580791Y-93774300D01*
X122711814Y-93795052D01*
X122830012Y-93855277D01*
X122923814Y-93949079D01*
X122984039Y-94067277D01*
X123004791Y-94198300D01*
X122984039Y-94329323D01*
X122923814Y-94447521D01*
X122880604Y-94498113D01*
X116928154Y-100450563D01*
X116928147Y-100450571D01*
X116852669Y-100554460D01*
X116852668Y-100554462D01*
X116843631Y-100566900D01*
X116778963Y-100655907D01*
X116778963Y-100655909D01*
X116663742Y-100882044D01*
X116663736Y-100882057D01*
X116585304Y-101123443D01*
X116545600Y-101374132D01*
X116545600Y-121132292D01*
X116541448Y-121169660D01*
X116545600Y-121259037D01*
X116545600Y-121348504D01*
X116547807Y-121362444D01*
X116551481Y-121385638D01*
X116553226Y-121423199D01*
X116571306Y-121510814D01*
X116572846Y-121520535D01*
X116572846Y-121520538D01*
X116585302Y-121599183D01*
X116585307Y-121599204D01*
X116589667Y-121612622D01*
X116596923Y-121634953D01*
X116604522Y-121671774D01*
X116636083Y-121755477D01*
X116639120Y-121764824D01*
X116639124Y-121764835D01*
X116663738Y-121840586D01*
X116670145Y-121853161D01*
X116680808Y-121874088D01*
X116694072Y-121909265D01*
X116738342Y-121987007D01*
X116742812Y-121995779D01*
X116742813Y-121995781D01*
X116745801Y-122001645D01*
X116778966Y-122066734D01*
X116778971Y-122066741D01*
X116778973Y-122066744D01*
X116787258Y-122078148D01*
X116812678Y-122117546D01*
X116819666Y-122129818D01*
X116819671Y-122129824D01*
X116875571Y-122199699D01*
X116928154Y-122272073D01*
X116954732Y-122298651D01*
X116969404Y-122316991D01*
X121026123Y-127387889D01*
X121091768Y-127503165D01*
X121108238Y-127565360D01*
X121109121Y-127565149D01*
X121113008Y-127581340D01*
X121113011Y-127581349D01*
X121180986Y-127790554D01*
X121280851Y-127986549D01*
X121410147Y-128164510D01*
X121410149Y-128164512D01*
X121410153Y-128164517D01*
X121565683Y-128320047D01*
X121565687Y-128320050D01*
X121565690Y-128320053D01*
X121743651Y-128449349D01*
X121939646Y-128549214D01*
X122148851Y-128617189D01*
X122366114Y-128651600D01*
X122586086Y-128651600D01*
X122803349Y-128617189D01*
X123012554Y-128549214D01*
X123208549Y-128449349D01*
X123386510Y-128320053D01*
X123386514Y-128320048D01*
X123386517Y-128320047D01*
X123446287Y-128260277D01*
X123553608Y-128182303D01*
X123679772Y-128141310D01*
X123812428Y-128141310D01*
X123938592Y-128182303D01*
X124045913Y-128260277D01*
X124105683Y-128320047D01*
X124105687Y-128320050D01*
X124105690Y-128320053D01*
X124283651Y-128449349D01*
X124479646Y-128549214D01*
X124688851Y-128617189D01*
X124906114Y-128651600D01*
X125126086Y-128651600D01*
X125343349Y-128617189D01*
X125552554Y-128549214D01*
X125748549Y-128449349D01*
X125926510Y-128320053D01*
X125926514Y-128320048D01*
X125926517Y-128320047D01*
X126082047Y-128164517D01*
X126082048Y-128164514D01*
X126082053Y-128164510D01*
X126211349Y-127986549D01*
X126311214Y-127790554D01*
X126379189Y-127581349D01*
X126388362Y-127523425D01*
X126411776Y-127436582D01*
X126419561Y-127416487D01*
X126434056Y-127388039D01*
X128981100Y-127388039D01*
X129011093Y-127654236D01*
X129070702Y-127915396D01*
X129159171Y-128168230D01*
X129275407Y-128409595D01*
X129417916Y-128636397D01*
X129417930Y-128636418D01*
X129584934Y-128845833D01*
X129584944Y-128845844D01*
X129774355Y-129035255D01*
X129774366Y-129035265D01*
X129983781Y-129202269D01*
X129983802Y-129202283D01*
X130210604Y-129344792D01*
X130451969Y-129461028D01*
X130704807Y-129549499D01*
X130704811Y-129549500D01*
X130731099Y-129555500D01*
X130731100Y-129555500D01*
X130731100Y-127254100D01*
X128981100Y-127254100D01*
X128981100Y-127388039D01*
X126434056Y-127388039D01*
X126510462Y-127238085D01*
X126588895Y-126996695D01*
X126628600Y-126746006D01*
X126628600Y-126552220D01*
X130858100Y-126552220D01*
X130858100Y-126685980D01*
X130892719Y-126815181D01*
X130959598Y-126931020D01*
X131054180Y-127025602D01*
X131170019Y-127092481D01*
X131299220Y-127127100D01*
X131432980Y-127127100D01*
X131562181Y-127092481D01*
X131678020Y-127025602D01*
X131772602Y-126931020D01*
X131839481Y-126815181D01*
X131874100Y-126685980D01*
X131874100Y-126552220D01*
X131839481Y-126423019D01*
X131772602Y-126307180D01*
X131678020Y-126212598D01*
X131562181Y-126145719D01*
X131432980Y-126111100D01*
X131299220Y-126111100D01*
X131170019Y-126145719D01*
X131054180Y-126212598D01*
X130959598Y-126307180D01*
X130892719Y-126423019D01*
X130858100Y-126552220D01*
X126628600Y-126552220D01*
X126628600Y-125850160D01*
X128981100Y-125850160D01*
X128981100Y-125984100D01*
X130731100Y-125984100D01*
X130731100Y-123682699D01*
X132001100Y-123682699D01*
X132001100Y-129555500D01*
X132027388Y-129549500D01*
X132027392Y-129549499D01*
X132280229Y-129461028D01*
X132452131Y-129378244D01*
X132579183Y-129340092D01*
X132711806Y-129343067D01*
X132820069Y-129378244D01*
X132991970Y-129461028D01*
X133244807Y-129549499D01*
X133244811Y-129549500D01*
X133271099Y-129555500D01*
X133271100Y-129555500D01*
X134541100Y-129555500D01*
X134567388Y-129549500D01*
X134567392Y-129549499D01*
X134820230Y-129461028D01*
X135061595Y-129344792D01*
X135288397Y-129202283D01*
X135288418Y-129202269D01*
X135497833Y-129035265D01*
X135497844Y-129035255D01*
X135687255Y-128845844D01*
X135687265Y-128845833D01*
X135854269Y-128636418D01*
X135854283Y-128636397D01*
X135996792Y-128409595D01*
X136113028Y-128168230D01*
X136201497Y-127915396D01*
X136261106Y-127654236D01*
X136291100Y-127388039D01*
X136291100Y-127254100D01*
X134541100Y-127254100D01*
X134541100Y-129555500D01*
X133271100Y-129555500D01*
X133271100Y-126552220D01*
X133398100Y-126552220D01*
X133398100Y-126685980D01*
X133432719Y-126815181D01*
X133499598Y-126931020D01*
X133594180Y-127025602D01*
X133710019Y-127092481D01*
X133839220Y-127127100D01*
X133972980Y-127127100D01*
X134102181Y-127092481D01*
X134218020Y-127025602D01*
X134312602Y-126931020D01*
X134379481Y-126815181D01*
X134414100Y-126685980D01*
X134414100Y-126552220D01*
X134379481Y-126423019D01*
X134312602Y-126307180D01*
X134218020Y-126212598D01*
X134102181Y-126145719D01*
X133972980Y-126111100D01*
X133839220Y-126111100D01*
X133710019Y-126145719D01*
X133594180Y-126212598D01*
X133499598Y-126307180D01*
X133432719Y-126423019D01*
X133398100Y-126552220D01*
X133271100Y-126552220D01*
X133271100Y-125984100D01*
X134541100Y-125984100D01*
X136291100Y-125984100D01*
X136291100Y-125850160D01*
X136261106Y-125583963D01*
X136201497Y-125322803D01*
X136113028Y-125069969D01*
X135996792Y-124828604D01*
X135854283Y-124601802D01*
X135854269Y-124601781D01*
X135687265Y-124392366D01*
X135687255Y-124392355D01*
X135497844Y-124202944D01*
X135497833Y-124202934D01*
X135288418Y-124035930D01*
X135288397Y-124035916D01*
X135061595Y-123893407D01*
X134820229Y-123777171D01*
X134567400Y-123688703D01*
X134567388Y-123688700D01*
X134541100Y-123682699D01*
X134541100Y-125984100D01*
X133271100Y-125984100D01*
X133271100Y-123682699D01*
X133244811Y-123688700D01*
X133244799Y-123688703D01*
X132991969Y-123777171D01*
X132820067Y-123859956D01*
X132693015Y-123898108D01*
X132560392Y-123895131D01*
X132452133Y-123859956D01*
X132280230Y-123777171D01*
X132027400Y-123688703D01*
X132027388Y-123688700D01*
X132001100Y-123682699D01*
X130731100Y-123682699D01*
X130704811Y-123688700D01*
X130704799Y-123688703D01*
X130451970Y-123777171D01*
X130210604Y-123893407D01*
X129983802Y-124035916D01*
X129983781Y-124035930D01*
X129774366Y-124202934D01*
X129774355Y-124202944D01*
X129584944Y-124392355D01*
X129584934Y-124392366D01*
X129417930Y-124601781D01*
X129417916Y-124601802D01*
X129275407Y-124828604D01*
X129159171Y-125069969D01*
X129070702Y-125322803D01*
X129011093Y-125583963D01*
X128981100Y-125850160D01*
X126628600Y-125850160D01*
X126628600Y-124460194D01*
X126603010Y-124298627D01*
X126601522Y-124289234D01*
X126588895Y-124209507D01*
X126588895Y-124209505D01*
X126510462Y-123968115D01*
X126395234Y-123741966D01*
X126246046Y-123536626D01*
X126246043Y-123536623D01*
X126246040Y-123536619D01*
X125482787Y-122773366D01*
X125404813Y-122666045D01*
X125363820Y-122539881D01*
X125358600Y-122473553D01*
X125358600Y-118230477D01*
X125379352Y-118099454D01*
X125439577Y-117981256D01*
X125533379Y-117887454D01*
X125651577Y-117827229D01*
X125782600Y-117806477D01*
X125913623Y-117827229D01*
X126031821Y-117887454D01*
X126114096Y-117966117D01*
X126282935Y-118177833D01*
X126282944Y-118177844D01*
X126472355Y-118367255D01*
X126472366Y-118367265D01*
X126681781Y-118534269D01*
X126681802Y-118534283D01*
X126908604Y-118676792D01*
X127149969Y-118793028D01*
X127402807Y-118881499D01*
X127402811Y-118881500D01*
X127429099Y-118887500D01*
X127429100Y-118887500D01*
X127429100Y-116375100D01*
X127449852Y-116244077D01*
X127510077Y-116125879D01*
X127603879Y-116032077D01*
X127623005Y-116022331D01*
X127649892Y-116122671D01*
X127708411Y-116224030D01*
X127791170Y-116306789D01*
X127892529Y-116365308D01*
X128005580Y-116395600D01*
X128122620Y-116395600D01*
X128235671Y-116365308D01*
X128337030Y-116306789D01*
X128419789Y-116224030D01*
X128478308Y-116122671D01*
X128505194Y-116022331D01*
X128524321Y-116032077D01*
X128618123Y-116125879D01*
X128678348Y-116244077D01*
X128699100Y-116375100D01*
X128699100Y-118887500D01*
X128725388Y-118881500D01*
X128725392Y-118881499D01*
X128978230Y-118793028D01*
X129219595Y-118676792D01*
X129446397Y-118534283D01*
X129446418Y-118534269D01*
X129655833Y-118367265D01*
X129655844Y-118367255D01*
X129845260Y-118177839D01*
X129901603Y-118107187D01*
X129999519Y-118017687D01*
X130120300Y-117962825D01*
X130252122Y-117947972D01*
X130299429Y-117952765D01*
X130383730Y-117966117D01*
X130494114Y-117983600D01*
X130714086Y-117983600D01*
X130931349Y-117949189D01*
X131140554Y-117881214D01*
X131336549Y-117781349D01*
X131514510Y-117652053D01*
X131514514Y-117652048D01*
X131514517Y-117652047D01*
X131670047Y-117496517D01*
X131670048Y-117496514D01*
X131670053Y-117496510D01*
X131799349Y-117318549D01*
X131899214Y-117122554D01*
X131957355Y-116943612D01*
X132017576Y-116825424D01*
X132060780Y-116774838D01*
X133560833Y-115274787D01*
X133587828Y-115255173D01*
X133611425Y-115231577D01*
X133641156Y-115216428D01*
X133668154Y-115196813D01*
X133699891Y-115186500D01*
X133729623Y-115171352D01*
X133762580Y-115166131D01*
X133794318Y-115155820D01*
X133860646Y-115150600D01*
X134453046Y-115150600D01*
X134584069Y-115171352D01*
X134702267Y-115231577D01*
X134796069Y-115325379D01*
X134820239Y-115362597D01*
X134879487Y-115465217D01*
X134879490Y-115465221D01*
X135017356Y-115644893D01*
X135177506Y-115805043D01*
X135310487Y-115907081D01*
X135357182Y-115942912D01*
X135553318Y-116056152D01*
X135667753Y-116103552D01*
X135762551Y-116142819D01*
X135762554Y-116142819D01*
X135762557Y-116142821D01*
X135981319Y-116201438D01*
X136205861Y-116231000D01*
X136205867Y-116231000D01*
X136432333Y-116231000D01*
X136432339Y-116231000D01*
X136656881Y-116201438D01*
X136875643Y-116142821D01*
X137084882Y-116056152D01*
X137281018Y-115942912D01*
X137460696Y-115805041D01*
X137620841Y-115644896D01*
X137758712Y-115465218D01*
X137852406Y-115302934D01*
X137935890Y-115199843D01*
X138047146Y-115127594D01*
X138175282Y-115093260D01*
X138307757Y-115100204D01*
X138431602Y-115147744D01*
X138534695Y-115231228D01*
X138606944Y-115342484D01*
X138641278Y-115470620D01*
X138643600Y-115514938D01*
X138643600Y-126746005D01*
X138683304Y-126996694D01*
X138761736Y-127238080D01*
X138761737Y-127238083D01*
X138761738Y-127238085D01*
X138842845Y-127397268D01*
X138883837Y-127523428D01*
X138893010Y-127581347D01*
X138917836Y-127657753D01*
X138960986Y-127790554D01*
X139060851Y-127986549D01*
X139190147Y-128164510D01*
X139190149Y-128164512D01*
X139190153Y-128164517D01*
X139345683Y-128320047D01*
X139345687Y-128320050D01*
X139345690Y-128320053D01*
X139523651Y-128449349D01*
X139719646Y-128549214D01*
X139928851Y-128617189D01*
X140146114Y-128651600D01*
X140366086Y-128651600D01*
X140583349Y-128617189D01*
X140792554Y-128549214D01*
X140988549Y-128449349D01*
X141166510Y-128320053D01*
X141166514Y-128320048D01*
X141166517Y-128320047D01*
X141226287Y-128260277D01*
X141333608Y-128182303D01*
X141459772Y-128141310D01*
X141592428Y-128141310D01*
X141718592Y-128182303D01*
X141825913Y-128260277D01*
X141885683Y-128320047D01*
X141885687Y-128320050D01*
X141885690Y-128320053D01*
X142063651Y-128449349D01*
X142259646Y-128549214D01*
X142468851Y-128617189D01*
X142686114Y-128651600D01*
X142906086Y-128651600D01*
X143123349Y-128617189D01*
X143332554Y-128549214D01*
X143528549Y-128449349D01*
X143706510Y-128320053D01*
X143706514Y-128320048D01*
X143706517Y-128320047D01*
X143862047Y-128164517D01*
X143862048Y-128164514D01*
X143862053Y-128164510D01*
X143991349Y-127986549D01*
X144091214Y-127790554D01*
X144159189Y-127581349D01*
X144168362Y-127523429D01*
X144209349Y-127397277D01*
X144290462Y-127238085D01*
X144368895Y-126996695D01*
X144408600Y-126746006D01*
X144408600Y-122597144D01*
X144429352Y-122466121D01*
X144489577Y-122347923D01*
X144583379Y-122254121D01*
X144701577Y-122193896D01*
X144832600Y-122173144D01*
X144963623Y-122193896D01*
X145081821Y-122254121D01*
X145175623Y-122347923D01*
X145224325Y-122434887D01*
X145240341Y-122473553D01*
X145307248Y-122635082D01*
X145420488Y-122831218D01*
X145420490Y-122831221D01*
X145420491Y-122831222D01*
X145558356Y-123010893D01*
X145718506Y-123171043D01*
X145793196Y-123228354D01*
X145898182Y-123308912D01*
X146094318Y-123422152D01*
X146150413Y-123445387D01*
X146303551Y-123508819D01*
X146303554Y-123508819D01*
X146303557Y-123508821D01*
X146522319Y-123567438D01*
X146746861Y-123597000D01*
X146746867Y-123597000D01*
X146973333Y-123597000D01*
X146973339Y-123597000D01*
X147197881Y-123567438D01*
X147416643Y-123508821D01*
X147625882Y-123422152D01*
X147822018Y-123308912D01*
X148001696Y-123171041D01*
X148161841Y-123010896D01*
X148299712Y-122831218D01*
X148412952Y-122635082D01*
X148499621Y-122425843D01*
X148558238Y-122207081D01*
X148587800Y-121982539D01*
X148587800Y-119825661D01*
X148558238Y-119601119D01*
X148499621Y-119382357D01*
X148412952Y-119173118D01*
X148299712Y-118976982D01*
X148253057Y-118916180D01*
X148161843Y-118797306D01*
X148001693Y-118637156D01*
X147822022Y-118499291D01*
X147822021Y-118499290D01*
X147822018Y-118499288D01*
X147625882Y-118386048D01*
X147416644Y-118299379D01*
X147262859Y-118258172D01*
X147252633Y-118253619D01*
X147241577Y-118251868D01*
X147192248Y-118226733D01*
X147141671Y-118204215D01*
X147133352Y-118196724D01*
X147123379Y-118191643D01*
X147084230Y-118152494D01*
X147043089Y-118115450D01*
X147037492Y-118105756D01*
X147029577Y-118097841D01*
X147004443Y-118048512D01*
X146976761Y-118000566D01*
X146974433Y-117989616D01*
X146969352Y-117979643D01*
X146960691Y-117924961D01*
X146949181Y-117870808D01*
X146948600Y-117848620D01*
X146948600Y-117287167D01*
X146969352Y-117156144D01*
X147029577Y-117037946D01*
X147123379Y-116944144D01*
X147241577Y-116883919D01*
X147372600Y-116863167D01*
X147482337Y-116877614D01*
X147508524Y-116884631D01*
X147752872Y-116916800D01*
X147752879Y-116916800D01*
X147999323Y-116916800D01*
X147999328Y-116916800D01*
X148005403Y-116916000D01*
X148009778Y-116916114D01*
X148013174Y-116915892D01*
X148013194Y-116916204D01*
X148138010Y-116919471D01*
X148263058Y-116963751D01*
X148360561Y-117036559D01*
X148502270Y-117178268D01*
X148502281Y-117178277D01*
X148754083Y-117379084D01*
X148754095Y-117379092D01*
X149026790Y-117550438D01*
X149026802Y-117550444D01*
X149316992Y-117690192D01*
X149541100Y-117768611D01*
X149541100Y-116014310D01*
X149561852Y-115883287D01*
X149573370Y-115852063D01*
X149660243Y-115642335D01*
X149724031Y-115404276D01*
X149756200Y-115159928D01*
X149756200Y-113845533D01*
X149857300Y-113845533D01*
X149857300Y-113992667D01*
X149895381Y-114134789D01*
X149968949Y-114262211D01*
X150072989Y-114366251D01*
X150200411Y-114439819D01*
X150342533Y-114477900D01*
X150489667Y-114477900D01*
X150631789Y-114439819D01*
X150759211Y-114366251D01*
X150863251Y-114262211D01*
X150936819Y-114134789D01*
X150974900Y-113992667D01*
X150974900Y-113845533D01*
X150936819Y-113703411D01*
X150863251Y-113575989D01*
X150759211Y-113471949D01*
X150631789Y-113398381D01*
X150489667Y-113360300D01*
X150342533Y-113360300D01*
X150200411Y-113398381D01*
X150072989Y-113471949D01*
X149968949Y-113575989D01*
X149895381Y-113703411D01*
X149857300Y-113845533D01*
X149756200Y-113845533D01*
X149756200Y-113044100D01*
X151291100Y-113044100D01*
X153283700Y-113044100D01*
X153283700Y-112640458D01*
X153247637Y-112320397D01*
X153175966Y-112006389D01*
X153069593Y-111702394D01*
X153069590Y-111702387D01*
X152929848Y-111412208D01*
X152929838Y-111412190D01*
X152758492Y-111139495D01*
X152758484Y-111139483D01*
X152557677Y-110887681D01*
X152557668Y-110887670D01*
X152329929Y-110659931D01*
X152329918Y-110659922D01*
X152078116Y-110459115D01*
X152078104Y-110459107D01*
X151805409Y-110287761D01*
X151805391Y-110287751D01*
X151515213Y-110148009D01*
X151515206Y-110148006D01*
X151291100Y-110069587D01*
X151291100Y-113044100D01*
X149756200Y-113044100D01*
X149756200Y-112678272D01*
X149724031Y-112433924D01*
X149660243Y-112195865D01*
X149573374Y-111986145D01*
X149542407Y-111857157D01*
X149541100Y-111823890D01*
X149541100Y-110006593D01*
X149510847Y-109948830D01*
X149510846Y-109948828D01*
X149510845Y-109948825D01*
X149499064Y-109879483D01*
X149488627Y-109818048D01*
X149488600Y-109813292D01*
X149488600Y-105872645D01*
X149509352Y-105741622D01*
X149569577Y-105623424D01*
X149612787Y-105572832D01*
X155075042Y-100110577D01*
X155075046Y-100110573D01*
X155224234Y-99905234D01*
X155339462Y-99679085D01*
X155417895Y-99437695D01*
X155457600Y-99187006D01*
X155457600Y-98933193D01*
X155457600Y-94869194D01*
X155417895Y-94618505D01*
X155339462Y-94377115D01*
X155224234Y-94150966D01*
X155075046Y-93945627D01*
X155075042Y-93945622D01*
X154895574Y-93766155D01*
X154895573Y-93766154D01*
X152770833Y-91641413D01*
X152751219Y-91614417D01*
X152727623Y-91590821D01*
X152712474Y-91561089D01*
X152692859Y-91534092D01*
X152682546Y-91502354D01*
X152667398Y-91472623D01*
X152662177Y-91439665D01*
X152651866Y-91407928D01*
X152651866Y-91374557D01*
X152646646Y-91341600D01*
X152651866Y-91308642D01*
X152651866Y-91275272D01*
X152662177Y-91243534D01*
X152667398Y-91210577D01*
X152682546Y-91180845D01*
X152692859Y-91149108D01*
X152712474Y-91122110D01*
X152727623Y-91092379D01*
X152751219Y-91068782D01*
X152770833Y-91041787D01*
X152797828Y-91022173D01*
X152821425Y-90998577D01*
X152851156Y-90983428D01*
X152878154Y-90963813D01*
X152909891Y-90953500D01*
X152939623Y-90938352D01*
X152972580Y-90933131D01*
X153004318Y-90922820D01*
X153070646Y-90917600D01*
X153739554Y-90917600D01*
X153870577Y-90938352D01*
X153988775Y-90998577D01*
X154039367Y-91041787D01*
X155286622Y-92289042D01*
X155286627Y-92289046D01*
X155491966Y-92438234D01*
X155718115Y-92553462D01*
X155959505Y-92631895D01*
X156210194Y-92671600D01*
X156464007Y-92671600D01*
X157349777Y-92671600D01*
X157480800Y-92692352D01*
X157598998Y-92752577D01*
X157692800Y-92846379D01*
X157753025Y-92964577D01*
X157773777Y-93095600D01*
X157753025Y-93226623D01*
X157692800Y-93344821D01*
X157634515Y-93409766D01*
X157612613Y-93429616D01*
X157336414Y-93734355D01*
X157091407Y-94064710D01*
X156879968Y-94417475D01*
X156704122Y-94789269D01*
X156565564Y-95176514D01*
X156565558Y-95176532D01*
X156465629Y-95575472D01*
X156465627Y-95575485D01*
X156405279Y-95982318D01*
X156385100Y-96393093D01*
X156385100Y-96393100D01*
X156405279Y-96803881D01*
X156465627Y-97210714D01*
X156465629Y-97210727D01*
X156565558Y-97609667D01*
X156565564Y-97609685D01*
X156704122Y-97996930D01*
X156879968Y-98368724D01*
X157078061Y-98699223D01*
X157091411Y-98721495D01*
X157134951Y-98780202D01*
X157336414Y-99051844D01*
X157612614Y-99356585D01*
X157917355Y-99632785D01*
X157917358Y-99632787D01*
X158247705Y-99877789D01*
X158600476Y-100089232D01*
X158731019Y-100150974D01*
X158972269Y-100265077D01*
X158972272Y-100265078D01*
X158972274Y-100265079D01*
X159359517Y-100403637D01*
X159359529Y-100403640D01*
X159359532Y-100403641D01*
X159629579Y-100471284D01*
X159758476Y-100503571D01*
X160165310Y-100563919D01*
X160165316Y-100563919D01*
X160165321Y-100563920D01*
X160165316Y-100563920D01*
X160576093Y-100584100D01*
X160576100Y-100584100D01*
X160576107Y-100584100D01*
X160986881Y-100563920D01*
X160986886Y-100563919D01*
X160986890Y-100563919D01*
X161393724Y-100503571D01*
X161792683Y-100403637D01*
X162179926Y-100265079D01*
X162551724Y-100089232D01*
X162904495Y-99877789D01*
X162989728Y-99814575D01*
X163107322Y-99753196D01*
X163238136Y-99731158D01*
X163369356Y-99750623D01*
X163488140Y-99809684D01*
X163582859Y-99902560D01*
X163644242Y-100020160D01*
X163666280Y-100150974D01*
X163646815Y-100282194D01*
X163587754Y-100400978D01*
X163542113Y-100454951D01*
X159346154Y-104650910D01*
X159346149Y-104650916D01*
X159221678Y-104822235D01*
X159221679Y-104822236D01*
X159196969Y-104856246D01*
X159196963Y-104856256D01*
X159081742Y-105082391D01*
X159081736Y-105082404D01*
X159003304Y-105323790D01*
X158963600Y-105574479D01*
X158963600Y-110551032D01*
X158942848Y-110682055D01*
X158882623Y-110800253D01*
X158788821Y-110894055D01*
X158670623Y-110954280D01*
X158539600Y-110975032D01*
X158429867Y-110960586D01*
X158403679Y-110953569D01*
X158298955Y-110939782D01*
X158159328Y-110921400D01*
X157912872Y-110921400D01*
X157808151Y-110935186D01*
X157668520Y-110953569D01*
X157430467Y-111017356D01*
X157202766Y-111111673D01*
X156989332Y-111234898D01*
X156989330Y-111234899D01*
X156793803Y-111384933D01*
X156619533Y-111559203D01*
X156469499Y-111754730D01*
X156469498Y-111754732D01*
X156346273Y-111968166D01*
X156251956Y-112195867D01*
X156188169Y-112433920D01*
X156172958Y-112549462D01*
X156157331Y-112668167D01*
X156156000Y-112678275D01*
X156156000Y-113343153D01*
X156135248Y-113474176D01*
X156075023Y-113592374D01*
X156031813Y-113642966D01*
X154012155Y-115662623D01*
X154011324Y-115663597D01*
X154010351Y-115664427D01*
X154000374Y-115674405D01*
X153999588Y-115673619D01*
X153910448Y-115749747D01*
X153787888Y-115800509D01*
X153655640Y-115810913D01*
X153526650Y-115779941D01*
X153413544Y-115710625D01*
X153327394Y-115609749D01*
X153276632Y-115487189D01*
X153266228Y-115354941D01*
X153267586Y-115340745D01*
X153283700Y-115197738D01*
X153283700Y-114794100D01*
X151291100Y-114794100D01*
X151291100Y-117768001D01*
X151683052Y-117609362D01*
X151805391Y-117550448D01*
X151805409Y-117550438D01*
X152078104Y-117379092D01*
X152078116Y-117379084D01*
X152329918Y-117178277D01*
X152329929Y-117178268D01*
X152557668Y-116950529D01*
X152557677Y-116950518D01*
X152758483Y-116698716D01*
X152846588Y-116558499D01*
X152933868Y-116458599D01*
X153047746Y-116390560D01*
X153177077Y-116361040D01*
X153309199Y-116372931D01*
X153431181Y-116425068D01*
X153531081Y-116512348D01*
X153599120Y-116626226D01*
X153628640Y-116755557D01*
X153629600Y-116784080D01*
X153629600Y-118050683D01*
X153608848Y-118181706D01*
X153548623Y-118299904D01*
X153454821Y-118393706D01*
X153336623Y-118453931D01*
X153205600Y-118474683D01*
X153074577Y-118453931D01*
X153043348Y-118442410D01*
X153004650Y-118426381D01*
X153004643Y-118426379D01*
X152785881Y-118367762D01*
X152561339Y-118338200D01*
X152334861Y-118338200D01*
X152147742Y-118362835D01*
X152110318Y-118367762D01*
X151989657Y-118400092D01*
X151989648Y-118400095D01*
X151891557Y-118426379D01*
X151682318Y-118513048D01*
X151616064Y-118551299D01*
X151616059Y-118551302D01*
X151486182Y-118626288D01*
X151486178Y-118626290D01*
X151306506Y-118764156D01*
X151146356Y-118924306D01*
X151008491Y-119103977D01*
X151008488Y-119103981D01*
X151008488Y-119103982D01*
X150989923Y-119136136D01*
X150895248Y-119300117D01*
X150808580Y-119509351D01*
X150801242Y-119536738D01*
X150749962Y-119728119D01*
X150720400Y-119952661D01*
X150720400Y-122109539D01*
X150749962Y-122334081D01*
X150774550Y-122425843D01*
X150808581Y-122552852D01*
X150813039Y-122565982D01*
X150809732Y-122567104D01*
X150834240Y-122668483D01*
X150835600Y-122702415D01*
X150835600Y-123571006D01*
X150875304Y-123821694D01*
X150953736Y-124063080D01*
X150953738Y-124063085D01*
X151068966Y-124289234D01*
X151218154Y-124494574D01*
X151218155Y-124494575D01*
X151218156Y-124494576D01*
X151218159Y-124494580D01*
X153302622Y-126579042D01*
X153302627Y-126579046D01*
X153507966Y-126728234D01*
X153734115Y-126843462D01*
X153926472Y-126905963D01*
X153975505Y-126921895D01*
X154042507Y-126932507D01*
X154047080Y-126933993D01*
X154051888Y-126934101D01*
X154110056Y-126954455D01*
X154168670Y-126973500D01*
X154172560Y-126976326D01*
X154177100Y-126977915D01*
X154226134Y-127015249D01*
X154275992Y-127051473D01*
X154278818Y-127055363D01*
X154282645Y-127058277D01*
X154317742Y-127108938D01*
X154353965Y-127158794D01*
X154355451Y-127163367D01*
X154358190Y-127167321D01*
X154375914Y-127226345D01*
X154394959Y-127284958D01*
X154394959Y-127289767D01*
X154396342Y-127294373D01*
X154394959Y-127355984D01*
X154394959Y-127417615D01*
X154393472Y-127422188D01*
X154393365Y-127426996D01*
X154373010Y-127485164D01*
X154353966Y-127543778D01*
X154351139Y-127547668D01*
X154349551Y-127552208D01*
X154312216Y-127601242D01*
X154275993Y-127651100D01*
X154272102Y-127653926D01*
X154269189Y-127657753D01*
X154218527Y-127692850D01*
X154168672Y-127729073D01*
X154160145Y-127733298D01*
X154029066Y-127796422D01*
X153902014Y-127834574D01*
X153769391Y-127831597D01*
X153661134Y-127796422D01*
X153488795Y-127713428D01*
X153488791Y-127713427D01*
X153323100Y-127655448D01*
X153323100Y-130767100D01*
X153302348Y-130898123D01*
X153242123Y-131016321D01*
X153148321Y-131110123D01*
X153030123Y-131170348D01*
X152899100Y-131191100D01*
X152854500Y-131191100D01*
X152854500Y-131137596D01*
X152826805Y-131034235D01*
X152773301Y-130941564D01*
X152697636Y-130865899D01*
X152604965Y-130812395D01*
X152501604Y-130784700D01*
X152394596Y-130784700D01*
X152291235Y-130812395D01*
X152198564Y-130865899D01*
X152122899Y-130941564D01*
X152069395Y-131034235D01*
X152041700Y-131137596D01*
X152041700Y-131244604D01*
X152069395Y-131347965D01*
X152122899Y-131440636D01*
X152198564Y-131516301D01*
X152291235Y-131569805D01*
X152394596Y-131597500D01*
X152448100Y-131597500D01*
X152448100Y-131642100D01*
X152427348Y-131773123D01*
X152367123Y-131891321D01*
X152273321Y-131985123D01*
X152155123Y-132045348D01*
X152024100Y-132066100D01*
X149605527Y-132066100D01*
X149474504Y-132045348D01*
X149356306Y-131985123D01*
X149305714Y-131941913D01*
X149302901Y-131939100D01*
X144144900Y-131939100D01*
X144144900Y-132181781D01*
X144179045Y-132484829D01*
X144179046Y-132484839D01*
X144246903Y-132782135D01*
X144246909Y-132782157D01*
X144347627Y-133069992D01*
X144347630Y-133069999D01*
X144479945Y-133344756D01*
X144479955Y-133344774D01*
X144617716Y-133564019D01*
X144669853Y-133686000D01*
X144681745Y-133818122D01*
X144652226Y-133947453D01*
X144584186Y-134061332D01*
X144484286Y-134148611D01*
X144362305Y-134200748D01*
X144258705Y-134213600D01*
X114035600Y-134213600D01*
X113904577Y-134192848D01*
X113786379Y-134132623D01*
X113692577Y-134038821D01*
X113632352Y-133920623D01*
X113611600Y-133789600D01*
X113611600Y-130520869D01*
X113632352Y-130389846D01*
X113692577Y-130271648D01*
X113786379Y-130177846D01*
X113904577Y-130117621D01*
X114035600Y-130096869D01*
X114166623Y-130117621D01*
X114284821Y-130177846D01*
X114378623Y-130271648D01*
X114438848Y-130389846D01*
X114445148Y-130411115D01*
X114464942Y-130484987D01*
X114536482Y-130657700D01*
X114552758Y-130696992D01*
X114667485Y-130895708D01*
X114807184Y-131077765D01*
X114969434Y-131240015D01*
X115151491Y-131379714D01*
X115333912Y-131485033D01*
X115350212Y-131494444D01*
X115562213Y-131582258D01*
X115783862Y-131641648D01*
X116011366Y-131671600D01*
X116011372Y-131671600D01*
X116240828Y-131671600D01*
X116240834Y-131671600D01*
X116468338Y-131641648D01*
X116689987Y-131582258D01*
X116901988Y-131494444D01*
X117001350Y-131437077D01*
X117100708Y-131379714D01*
X117117252Y-131367019D01*
X117282761Y-131240019D01*
X117445019Y-131077761D01*
X117496557Y-131010596D01*
X146453700Y-131010596D01*
X146453700Y-131117604D01*
X146481395Y-131220965D01*
X146534899Y-131313636D01*
X146610564Y-131389301D01*
X146703235Y-131442805D01*
X146806596Y-131470500D01*
X146913604Y-131470500D01*
X147016965Y-131442805D01*
X147109636Y-131389301D01*
X147185301Y-131313636D01*
X147238805Y-131220965D01*
X147266500Y-131117604D01*
X147266500Y-131010596D01*
X147238805Y-130907235D01*
X147185301Y-130814564D01*
X147109636Y-130738899D01*
X147016965Y-130685395D01*
X146913604Y-130657700D01*
X146806596Y-130657700D01*
X146703235Y-130685395D01*
X146610564Y-130738899D01*
X146534899Y-130814564D01*
X146481395Y-130907235D01*
X146453700Y-131010596D01*
X117496557Y-131010596D01*
X117584711Y-130895712D01*
X117584711Y-130895711D01*
X117584714Y-130895708D01*
X117674553Y-130740100D01*
X117699444Y-130696988D01*
X117787258Y-130484987D01*
X117846648Y-130263338D01*
X117876600Y-130035834D01*
X117876600Y-129946418D01*
X144144900Y-129946418D01*
X144144900Y-130189100D01*
X145985100Y-130189100D01*
X147735100Y-130189100D01*
X149702673Y-130189100D01*
X149833696Y-130209852D01*
X149951894Y-130270077D01*
X150002486Y-130313287D01*
X150005299Y-130316100D01*
X151573100Y-130316100D01*
X151573100Y-127655449D01*
X151573099Y-127655448D01*
X151407408Y-127713427D01*
X151407404Y-127713428D01*
X151132643Y-127845745D01*
X151132625Y-127845755D01*
X150874428Y-128007990D01*
X150635981Y-128198146D01*
X150420346Y-128413781D01*
X150230190Y-128652228D01*
X150067955Y-128910425D01*
X150067938Y-128910456D01*
X150066677Y-128913076D01*
X150065757Y-128914402D01*
X150062195Y-128920849D01*
X150061541Y-128920487D01*
X149991124Y-129022115D01*
X149885574Y-129102469D01*
X149760358Y-129146274D01*
X149627735Y-129149242D01*
X149500686Y-129111081D01*
X149391647Y-129035528D01*
X149311293Y-128929978D01*
X149302667Y-128913048D01*
X149240249Y-128783435D01*
X149240244Y-128783425D01*
X149078009Y-128525228D01*
X148887853Y-128286781D01*
X148672218Y-128071146D01*
X148433771Y-127880990D01*
X148175574Y-127718755D01*
X148175556Y-127718745D01*
X147900795Y-127586428D01*
X147900791Y-127586427D01*
X147735100Y-127528448D01*
X147735100Y-130189100D01*
X145985100Y-130189100D01*
X145985100Y-127528449D01*
X145985099Y-127528448D01*
X145819408Y-127586427D01*
X145819404Y-127586428D01*
X145544643Y-127718745D01*
X145544625Y-127718755D01*
X145286428Y-127880990D01*
X145047981Y-128071146D01*
X144832346Y-128286781D01*
X144832344Y-128286784D01*
X144691594Y-128463277D01*
X144604883Y-128584603D01*
X144479953Y-128783429D01*
X144479945Y-128783443D01*
X144347630Y-129058200D01*
X144347627Y-129058207D01*
X144246909Y-129346042D01*
X144246903Y-129346064D01*
X144179046Y-129643360D01*
X144179045Y-129643370D01*
X144144900Y-129946418D01*
X117876600Y-129946418D01*
X117876600Y-129806366D01*
X117846648Y-129578862D01*
X117787258Y-129357213D01*
X117699444Y-129145212D01*
X117679739Y-129111081D01*
X117584714Y-128946491D01*
X117459591Y-128783429D01*
X117445019Y-128764439D01*
X117445018Y-128764438D01*
X117445015Y-128764434D01*
X117282765Y-128602184D01*
X117100708Y-128462485D01*
X116901992Y-128347758D01*
X116901990Y-128347757D01*
X116901988Y-128347756D01*
X116689987Y-128259942D01*
X116468338Y-128200552D01*
X116240834Y-128170600D01*
X116011366Y-128170600D01*
X115783862Y-128200552D01*
X115743063Y-128211484D01*
X115562212Y-128259942D01*
X115350207Y-128347758D01*
X115151491Y-128462485D01*
X114969434Y-128602184D01*
X114807184Y-128764434D01*
X114667485Y-128946491D01*
X114552758Y-129145207D01*
X114464943Y-129357210D01*
X114445153Y-129431069D01*
X114391196Y-129552257D01*
X114302432Y-129650840D01*
X114187548Y-129717168D01*
X114057791Y-129744749D01*
X113925861Y-129730883D01*
X113804673Y-129676926D01*
X113706090Y-129588162D01*
X113639762Y-129473278D01*
X113612181Y-129343521D01*
X113611600Y-129321330D01*
X113611600Y-90309366D01*
X115010600Y-90309366D01*
X115010600Y-90538834D01*
X115040552Y-90766338D01*
X115099942Y-90987987D01*
X115178843Y-91178471D01*
X115187758Y-91199992D01*
X115302485Y-91398708D01*
X115442184Y-91580765D01*
X115604434Y-91743015D01*
X115786491Y-91882714D01*
X115947966Y-91975940D01*
X115985212Y-91997444D01*
X116197213Y-92085258D01*
X116418862Y-92144648D01*
X116646366Y-92174600D01*
X116646372Y-92174600D01*
X116875828Y-92174600D01*
X116875834Y-92174600D01*
X117103338Y-92144648D01*
X117324987Y-92085258D01*
X117470035Y-92025177D01*
X117539265Y-91996501D01*
X117668256Y-91965532D01*
X117800504Y-91975940D01*
X117923062Y-92026705D01*
X118023935Y-92112858D01*
X118083535Y-92204258D01*
X118165549Y-92374562D01*
X118165555Y-92374574D01*
X118327790Y-92632771D01*
X118517946Y-92871218D01*
X118733581Y-93086853D01*
X118972028Y-93277009D01*
X119230225Y-93439244D01*
X119230243Y-93439254D01*
X119505000Y-93571569D01*
X119505007Y-93571572D01*
X119792842Y-93672290D01*
X119792864Y-93672296D01*
X120090160Y-93740153D01*
X120090170Y-93740154D01*
X120393218Y-93774300D01*
X120635900Y-93774300D01*
X120635900Y-91483100D01*
X120656652Y-91352077D01*
X120716877Y-91233879D01*
X120810679Y-91140077D01*
X120928877Y-91079852D01*
X121059900Y-91059100D01*
X121510900Y-91059100D01*
X121510900Y-91005596D01*
X122069700Y-91005596D01*
X122069700Y-91112604D01*
X122097395Y-91215965D01*
X122150899Y-91308636D01*
X122226564Y-91384301D01*
X122319235Y-91437805D01*
X122422596Y-91465500D01*
X122529604Y-91465500D01*
X122632965Y-91437805D01*
X122725636Y-91384301D01*
X122801301Y-91308636D01*
X122854805Y-91215965D01*
X122882500Y-91112604D01*
X122882500Y-91005596D01*
X122854805Y-90902235D01*
X122801301Y-90809564D01*
X122725636Y-90733899D01*
X122632965Y-90680395D01*
X122529604Y-90652700D01*
X122422596Y-90652700D01*
X122319235Y-90680395D01*
X122226564Y-90733899D01*
X122150899Y-90809564D01*
X122097395Y-90902235D01*
X122069700Y-91005596D01*
X121510900Y-91005596D01*
X121510900Y-90670800D01*
X121531652Y-90539777D01*
X121591877Y-90421579D01*
X121685679Y-90327777D01*
X121803877Y-90267552D01*
X121934900Y-90246800D01*
X122589333Y-90246800D01*
X122589339Y-90246800D01*
X122813881Y-90217238D01*
X122883637Y-90198547D01*
X122993375Y-90184100D01*
X125046551Y-90184100D01*
X125046551Y-90184099D01*
X124988572Y-90018408D01*
X124988571Y-90018404D01*
X124856254Y-89743643D01*
X124856244Y-89743625D01*
X124694009Y-89485428D01*
X124503857Y-89246986D01*
X124315052Y-89058180D01*
X124237079Y-88950858D01*
X124196086Y-88824694D01*
X124194494Y-88703022D01*
X124203800Y-88632339D01*
X124203800Y-88405861D01*
X124174238Y-88181319D01*
X124115621Y-87962557D01*
X124109000Y-87946573D01*
X124056617Y-87820108D01*
X124028952Y-87753318D01*
X123915712Y-87557182D01*
X123777841Y-87377504D01*
X123617696Y-87217359D01*
X123617695Y-87217358D01*
X123617693Y-87217356D01*
X123438022Y-87079491D01*
X123438021Y-87079490D01*
X123438018Y-87079488D01*
X123241882Y-86966248D01*
X123241880Y-86966247D01*
X123241877Y-86966245D01*
X123229439Y-86960112D01*
X123229816Y-86959346D01*
X123224331Y-86957564D01*
X123183796Y-86928113D01*
X123141105Y-86901888D01*
X123117010Y-86879590D01*
X123050308Y-86812888D01*
X122972334Y-86705567D01*
X122931341Y-86579403D01*
X122931341Y-86446747D01*
X122972334Y-86320583D01*
X123050308Y-86213262D01*
X123122597Y-86157794D01*
X123121680Y-86156421D01*
X123133207Y-86148718D01*
X123133218Y-86148712D01*
X123312896Y-86010841D01*
X123473041Y-85850696D01*
X123610912Y-85671018D01*
X123724152Y-85474882D01*
X123810821Y-85265643D01*
X123869438Y-85046881D01*
X123899000Y-84822339D01*
X123899000Y-84595861D01*
X123869438Y-84371319D01*
X123810821Y-84152557D01*
X123809286Y-84148852D01*
X123754447Y-84016458D01*
X123724152Y-83943318D01*
X123610912Y-83747182D01*
X123549223Y-83666787D01*
X123473043Y-83567506D01*
X123312893Y-83407356D01*
X123133222Y-83269491D01*
X123133221Y-83269490D01*
X123133218Y-83269488D01*
X122937082Y-83156248D01*
X122859506Y-83124115D01*
X122727848Y-83069580D01*
X122642966Y-83046836D01*
X122509081Y-83010962D01*
X122284539Y-82981400D01*
X120127661Y-82981400D01*
X119903119Y-83010962D01*
X119836176Y-83028899D01*
X119684351Y-83069580D01*
X119475117Y-83156248D01*
X119278977Y-83269491D01*
X119099306Y-83407356D01*
X118939156Y-83567506D01*
X118801291Y-83747177D01*
X118688048Y-83943317D01*
X118601380Y-84152551D01*
X118600551Y-84155646D01*
X118542762Y-84371319D01*
X118513200Y-84595861D01*
X118513200Y-84822339D01*
X118542762Y-85046881D01*
X118568007Y-85141097D01*
X118601380Y-85265648D01*
X118688048Y-85474882D01*
X118801288Y-85671018D01*
X118801290Y-85671021D01*
X118801291Y-85671022D01*
X118939156Y-85850693D01*
X119099306Y-86010843D01*
X119178517Y-86071623D01*
X119278982Y-86148712D01*
X119381604Y-86207961D01*
X119398941Y-86222000D01*
X119418821Y-86232130D01*
X119450201Y-86263510D01*
X119484694Y-86291442D01*
X119496846Y-86310155D01*
X119512623Y-86325932D01*
X119532771Y-86365476D01*
X119556943Y-86402697D01*
X119562717Y-86424247D01*
X119572848Y-86444130D01*
X119579791Y-86487967D01*
X119591277Y-86530833D01*
X119593600Y-86575153D01*
X119593600Y-86862859D01*
X119572848Y-86993882D01*
X119512623Y-87112080D01*
X119427719Y-87199238D01*
X119404104Y-87217358D01*
X119243956Y-87377506D01*
X119106091Y-87557177D01*
X118992848Y-87753317D01*
X118906180Y-87962551D01*
X118870896Y-88094234D01*
X118847562Y-88181319D01*
X118818000Y-88405861D01*
X118818000Y-88405865D01*
X118818000Y-88632339D01*
X118827306Y-88703026D01*
X118825713Y-88763852D01*
X118825713Y-88824693D01*
X118823979Y-88830027D01*
X118823833Y-88835637D01*
X118803521Y-88892993D01*
X118784721Y-88950857D01*
X118781422Y-88955396D01*
X118779550Y-88960685D01*
X118706748Y-89058179D01*
X118588569Y-89176359D01*
X118481248Y-89254333D01*
X118355084Y-89295327D01*
X118222428Y-89295327D01*
X118096264Y-89254335D01*
X117988942Y-89176362D01*
X117988941Y-89176360D01*
X117917765Y-89105184D01*
X117735708Y-88965485D01*
X117536992Y-88850758D01*
X117536990Y-88850757D01*
X117536988Y-88850756D01*
X117324987Y-88762942D01*
X117103338Y-88703552D01*
X116875834Y-88673600D01*
X116646366Y-88673600D01*
X116418862Y-88703552D01*
X116308037Y-88733247D01*
X116197212Y-88762942D01*
X115985207Y-88850758D01*
X115786491Y-88965485D01*
X115604434Y-89105184D01*
X115442184Y-89267434D01*
X115302485Y-89449491D01*
X115187758Y-89648207D01*
X115099942Y-89860212D01*
X115073550Y-89958712D01*
X115040552Y-90081862D01*
X115010600Y-90309366D01*
X113611600Y-90309366D01*
X113611600Y-78879366D01*
X115010600Y-78879366D01*
X115010600Y-79108834D01*
X115040552Y-79336338D01*
X115052652Y-79381495D01*
X115099942Y-79557987D01*
X115187758Y-79769992D01*
X115302485Y-79968708D01*
X115442184Y-80150765D01*
X115604434Y-80313015D01*
X115786491Y-80452714D01*
X115968912Y-80558033D01*
X115985212Y-80567444D01*
X116197213Y-80655258D01*
X116418862Y-80714648D01*
X116646366Y-80744600D01*
X116646372Y-80744600D01*
X116875828Y-80744600D01*
X116875834Y-80744600D01*
X117103338Y-80714648D01*
X117324987Y-80655258D01*
X117536988Y-80567444D01*
X117636350Y-80510077D01*
X117735708Y-80452714D01*
X117795133Y-80407115D01*
X117917761Y-80313019D01*
X118080019Y-80150761D01*
X118219711Y-79968712D01*
X118219711Y-79968711D01*
X118219714Y-79968708D01*
X118277077Y-79869350D01*
X118334444Y-79769988D01*
X118422258Y-79557987D01*
X118481648Y-79336338D01*
X118511600Y-79108834D01*
X118511600Y-78879366D01*
X118481648Y-78651862D01*
X118422258Y-78430213D01*
X118334444Y-78218212D01*
X118310196Y-78176213D01*
X118219714Y-78019491D01*
X118080015Y-77837434D01*
X117917765Y-77675184D01*
X117735708Y-77535485D01*
X117536992Y-77420758D01*
X117536990Y-77420757D01*
X117536988Y-77420756D01*
X117324987Y-77332942D01*
X117103338Y-77273552D01*
X116875834Y-77243600D01*
X116646366Y-77243600D01*
X116418862Y-77273552D01*
X116308037Y-77303247D01*
X116197212Y-77332942D01*
X115985207Y-77420758D01*
X115786491Y-77535485D01*
X115604434Y-77675184D01*
X115442184Y-77837434D01*
X115302485Y-78019491D01*
X115187758Y-78218207D01*
X115099942Y-78430212D01*
X115090188Y-78466616D01*
X115040552Y-78651862D01*
X115010600Y-78879366D01*
X113611600Y-78879366D01*
X113611600Y-76217600D01*
X113632352Y-76086577D01*
X113692577Y-75968379D01*
X113786379Y-75874577D01*
X113904577Y-75814352D01*
X114035600Y-75793600D01*
X182966600Y-75793600D01*
X183097623Y-75814352D01*
G37*
%TD.AperFunction*%
%TA.AperFunction,Conductor*%
G36*
X127771123Y-96413852D02*
G01*
X127889321Y-96474077D01*
X127983123Y-96567879D01*
X127992868Y-96587005D01*
X127892529Y-96613892D01*
X127791170Y-96672411D01*
X127708411Y-96755170D01*
X127649892Y-96856529D01*
X127619600Y-96969580D01*
X127619600Y-97086620D01*
X127649892Y-97199671D01*
X127708411Y-97301030D01*
X127791170Y-97383789D01*
X127892529Y-97442308D01*
X128005580Y-97472600D01*
X128122620Y-97472600D01*
X128235671Y-97442308D01*
X128337030Y-97383789D01*
X128419789Y-97301030D01*
X128478308Y-97199671D01*
X128505194Y-97099331D01*
X128524321Y-97109077D01*
X128618123Y-97202879D01*
X128678348Y-97321077D01*
X128699100Y-97452100D01*
X128699100Y-100160053D01*
X128678348Y-100291076D01*
X128618123Y-100409274D01*
X128574913Y-100459866D01*
X127596157Y-101438621D01*
X127596153Y-101438627D01*
X127446965Y-101643967D01*
X127446963Y-101643971D01*
X127331742Y-101870106D01*
X127331736Y-101870119D01*
X127253304Y-102111507D01*
X127216140Y-102346160D01*
X127216138Y-102346173D01*
X127213600Y-102362194D01*
X127213600Y-106426006D01*
X127253304Y-106676694D01*
X127331736Y-106918080D01*
X127331738Y-106918085D01*
X127446966Y-107144234D01*
X127596154Y-107349574D01*
X128227842Y-107981262D01*
X128305814Y-108088581D01*
X128346807Y-108214744D01*
X128346807Y-108347401D01*
X128305814Y-108473565D01*
X128227841Y-108580886D01*
X128120520Y-108658859D01*
X127980971Y-108729962D01*
X127980967Y-108729965D01*
X127775623Y-108879156D01*
X127775618Y-108879160D01*
X125660643Y-110994135D01*
X125553322Y-111072109D01*
X125427158Y-111113102D01*
X125294502Y-111113102D01*
X125168338Y-111072109D01*
X125061017Y-110994135D01*
X125052543Y-110984100D01*
X122385900Y-110984100D01*
X122385900Y-112824300D01*
X122628579Y-112824300D01*
X122778991Y-112807352D01*
X122911514Y-112813303D01*
X123035712Y-112859915D01*
X123139427Y-112942624D01*
X123212508Y-113053335D01*
X123247800Y-113181211D01*
X123241849Y-113313734D01*
X123195237Y-113437932D01*
X123126280Y-113528499D01*
X122516157Y-114138622D01*
X122516154Y-114138625D01*
X122516154Y-114138626D01*
X122426365Y-114262211D01*
X122399208Y-114299589D01*
X122366965Y-114343967D01*
X122251741Y-114570107D01*
X122251736Y-114570119D01*
X122173304Y-114811505D01*
X122133600Y-115062194D01*
X122133600Y-122400984D01*
X122112848Y-122532007D01*
X122052623Y-122650205D01*
X121958821Y-122744007D01*
X121840623Y-122804232D01*
X121709600Y-122824984D01*
X121578577Y-122804232D01*
X121460379Y-122744007D01*
X121378512Y-122665855D01*
X119863512Y-120772105D01*
X119797867Y-120656829D01*
X119771057Y-120526910D01*
X119770600Y-120507234D01*
X119770600Y-113228604D01*
X119791352Y-113097581D01*
X119851577Y-112979383D01*
X119945379Y-112885581D01*
X120063577Y-112825356D01*
X120194600Y-112804604D01*
X120242073Y-112807270D01*
X120393218Y-112824300D01*
X120635900Y-112824300D01*
X120635900Y-110533100D01*
X120656652Y-110402077D01*
X120716877Y-110283879D01*
X120810679Y-110190077D01*
X120928877Y-110129852D01*
X121059900Y-110109100D01*
X121510900Y-110109100D01*
X121510900Y-110055596D01*
X122069700Y-110055596D01*
X122069700Y-110162604D01*
X122097395Y-110265965D01*
X122150899Y-110358636D01*
X122226564Y-110434301D01*
X122319235Y-110487805D01*
X122422596Y-110515500D01*
X122529604Y-110515500D01*
X122632965Y-110487805D01*
X122725636Y-110434301D01*
X122801301Y-110358636D01*
X122854805Y-110265965D01*
X122882500Y-110162604D01*
X122882500Y-110055596D01*
X122854805Y-109952235D01*
X122801301Y-109859564D01*
X122725636Y-109783899D01*
X122632965Y-109730395D01*
X122529604Y-109702700D01*
X122422596Y-109702700D01*
X122319235Y-109730395D01*
X122226564Y-109783899D01*
X122150899Y-109859564D01*
X122097395Y-109952235D01*
X122069700Y-110055596D01*
X121510900Y-110055596D01*
X121510900Y-109720800D01*
X121531652Y-109589777D01*
X121591877Y-109471579D01*
X121685679Y-109377777D01*
X121803877Y-109317552D01*
X121934900Y-109296800D01*
X122589333Y-109296800D01*
X122589339Y-109296800D01*
X122813881Y-109267238D01*
X122883637Y-109248547D01*
X122993375Y-109234100D01*
X125046551Y-109234100D01*
X125046551Y-109234099D01*
X124988572Y-109068408D01*
X124988571Y-109068404D01*
X124856254Y-108793643D01*
X124856244Y-108793625D01*
X124694009Y-108535428D01*
X124503857Y-108296986D01*
X124315052Y-108108180D01*
X124237079Y-108000858D01*
X124196086Y-107874694D01*
X124194494Y-107753022D01*
X124203799Y-107682344D01*
X124203800Y-107682339D01*
X124203800Y-107455861D01*
X124174238Y-107231319D01*
X124115621Y-107012557D01*
X124115617Y-107012548D01*
X124115616Y-107012543D01*
X124111159Y-106999411D01*
X124114317Y-106998338D01*
X124089827Y-106895214D01*
X124088600Y-106862983D01*
X124088600Y-104990153D01*
X124109352Y-104859130D01*
X124169577Y-104740932D01*
X124263379Y-104647130D01*
X124300586Y-104622966D01*
X124403218Y-104563712D01*
X124582896Y-104425841D01*
X124743041Y-104265696D01*
X124880912Y-104086018D01*
X124994152Y-103889882D01*
X125080821Y-103680643D01*
X125139438Y-103461881D01*
X125169000Y-103237339D01*
X125169000Y-103010861D01*
X125139438Y-102786319D01*
X125080821Y-102567557D01*
X124994152Y-102358318D01*
X124880912Y-102162182D01*
X124743041Y-101982504D01*
X124582896Y-101822359D01*
X124582893Y-101822356D01*
X124403222Y-101684491D01*
X124403221Y-101684490D01*
X124403218Y-101684488D01*
X124207082Y-101571248D01*
X123997848Y-101484580D01*
X123912966Y-101461836D01*
X123779081Y-101425962D01*
X123554539Y-101396400D01*
X121566783Y-101396400D01*
X121435760Y-101375648D01*
X121317562Y-101315423D01*
X121223760Y-101221621D01*
X121163535Y-101103423D01*
X121142783Y-100972400D01*
X121163535Y-100841377D01*
X121223760Y-100723179D01*
X121266970Y-100672587D01*
X123006364Y-98933193D01*
X124142517Y-97797039D01*
X125679100Y-97797039D01*
X125709093Y-98063236D01*
X125768702Y-98324396D01*
X125857171Y-98577230D01*
X125973407Y-98818595D01*
X126115916Y-99045397D01*
X126115930Y-99045418D01*
X126282934Y-99254833D01*
X126282944Y-99254844D01*
X126472355Y-99444255D01*
X126472366Y-99444265D01*
X126681781Y-99611269D01*
X126681802Y-99611283D01*
X126908604Y-99753792D01*
X127149969Y-99870028D01*
X127402807Y-99958499D01*
X127402811Y-99958500D01*
X127429099Y-99964500D01*
X127429100Y-99964500D01*
X127429100Y-97663100D01*
X125679100Y-97663100D01*
X125679100Y-97797039D01*
X124142517Y-97797039D01*
X125422270Y-96517285D01*
X125529590Y-96439313D01*
X125655754Y-96398320D01*
X125722082Y-96393100D01*
X127640100Y-96393100D01*
X127771123Y-96413852D01*
G37*
%TD.AperFunction*%
%TA.AperFunction,Conductor*%
G36*
X166662651Y-102109052D02*
G01*
X166696025Y-102109052D01*
X166727757Y-102119362D01*
X166760711Y-102124581D01*
X166790447Y-102139731D01*
X166822189Y-102150045D01*
X166849181Y-102169656D01*
X166878910Y-102184803D01*
X166902511Y-102208403D01*
X166929510Y-102228019D01*
X166954674Y-102257481D01*
X166955341Y-102256913D01*
X166966159Y-102269580D01*
X171539413Y-106842833D01*
X171617387Y-106950154D01*
X171658380Y-107076318D01*
X171663600Y-107142646D01*
X171663600Y-110551032D01*
X171642848Y-110682055D01*
X171582623Y-110800253D01*
X171488821Y-110894055D01*
X171370623Y-110954280D01*
X171239600Y-110975032D01*
X171129867Y-110960586D01*
X171103679Y-110953569D01*
X170998955Y-110939782D01*
X170859328Y-110921400D01*
X170612872Y-110921400D01*
X170508151Y-110935186D01*
X170368520Y-110953569D01*
X170130467Y-111017356D01*
X169902766Y-111111673D01*
X169689332Y-111234898D01*
X169689330Y-111234899D01*
X169493803Y-111384933D01*
X169319533Y-111559203D01*
X169169499Y-111754730D01*
X169169498Y-111754732D01*
X169046273Y-111968166D01*
X168951956Y-112195867D01*
X168888169Y-112433920D01*
X168872958Y-112549462D01*
X168856000Y-112678272D01*
X168856000Y-115159928D01*
X168874382Y-115299555D01*
X168888169Y-115404279D01*
X168955549Y-115655742D01*
X168952652Y-115656518D01*
X168970892Y-115762692D01*
X168951851Y-115893975D01*
X168893174Y-116012948D01*
X168846741Y-116068038D01*
X164807156Y-120107623D01*
X164657965Y-120312967D01*
X164657963Y-120312971D01*
X164542742Y-120539106D01*
X164542733Y-120539127D01*
X164471531Y-120758263D01*
X164411306Y-120876460D01*
X164317503Y-120970262D01*
X164199305Y-121030487D01*
X164068282Y-121051238D01*
X163937259Y-121030485D01*
X163819062Y-120970260D01*
X163768471Y-120927051D01*
X162642580Y-119801159D01*
X162642576Y-119801156D01*
X162642575Y-119801155D01*
X162642574Y-119801154D01*
X162437234Y-119651966D01*
X162211085Y-119536738D01*
X162211082Y-119536737D01*
X162211080Y-119536736D01*
X161969694Y-119458304D01*
X161719007Y-119418600D01*
X161719006Y-119418600D01*
X157278600Y-119418600D01*
X157147577Y-119397848D01*
X157029379Y-119337623D01*
X156935577Y-119243821D01*
X156875352Y-119125623D01*
X156854600Y-118994600D01*
X156854600Y-117556645D01*
X156859820Y-117523687D01*
X156859820Y-117490317D01*
X156870131Y-117458579D01*
X156875352Y-117425622D01*
X156890500Y-117395890D01*
X156900813Y-117364153D01*
X156920428Y-117337155D01*
X156935577Y-117307424D01*
X156978787Y-117256832D01*
X157244994Y-116990625D01*
X157352315Y-116912651D01*
X157478479Y-116871658D01*
X157611135Y-116871658D01*
X157654541Y-116880884D01*
X157668524Y-116884631D01*
X157912872Y-116916800D01*
X157912879Y-116916800D01*
X158159321Y-116916800D01*
X158159328Y-116916800D01*
X158403676Y-116884631D01*
X158641735Y-116820843D01*
X158869431Y-116726528D01*
X159082869Y-116603300D01*
X159082873Y-116603296D01*
X159094100Y-116596815D01*
X159217945Y-116549275D01*
X159350420Y-116542333D01*
X159478556Y-116576667D01*
X159518100Y-116596815D01*
X159529326Y-116603296D01*
X159529331Y-116603300D01*
X159742769Y-116726528D01*
X159970465Y-116820843D01*
X160180393Y-116877093D01*
X160194547Y-116880886D01*
X160208524Y-116884631D01*
X160452872Y-116916800D01*
X160452879Y-116916800D01*
X160699323Y-116916800D01*
X160699328Y-116916800D01*
X160705403Y-116916000D01*
X160709778Y-116916114D01*
X160713174Y-116915892D01*
X160713194Y-116916204D01*
X160838010Y-116919471D01*
X160963058Y-116963751D01*
X161060561Y-117036559D01*
X161202270Y-117178268D01*
X161202281Y-117178277D01*
X161454083Y-117379084D01*
X161454095Y-117379092D01*
X161726790Y-117550438D01*
X161726802Y-117550444D01*
X162016992Y-117690192D01*
X162241100Y-117768611D01*
X162241100Y-117768610D01*
X163991100Y-117768610D01*
X164215207Y-117690192D01*
X164505397Y-117550444D01*
X164505409Y-117550438D01*
X164778104Y-117379092D01*
X164778116Y-117379084D01*
X165029918Y-117178277D01*
X165029929Y-117178268D01*
X165257668Y-116950529D01*
X165257677Y-116950518D01*
X165458484Y-116698716D01*
X165458492Y-116698704D01*
X165629838Y-116426009D01*
X165629848Y-116425991D01*
X165769590Y-116135812D01*
X165769593Y-116135805D01*
X165875966Y-115831810D01*
X165947637Y-115517802D01*
X165983700Y-115197741D01*
X165983700Y-114794100D01*
X163991100Y-114794100D01*
X163991100Y-117768610D01*
X162241100Y-117768610D01*
X162241100Y-116014310D01*
X162261852Y-115883287D01*
X162273370Y-115852063D01*
X162360243Y-115642335D01*
X162424031Y-115404276D01*
X162456200Y-115159928D01*
X162456200Y-113845533D01*
X162557300Y-113845533D01*
X162557300Y-113992667D01*
X162595381Y-114134789D01*
X162668949Y-114262211D01*
X162772989Y-114366251D01*
X162900411Y-114439819D01*
X163042533Y-114477900D01*
X163189667Y-114477900D01*
X163331789Y-114439819D01*
X163459211Y-114366251D01*
X163563251Y-114262211D01*
X163636819Y-114134789D01*
X163674900Y-113992667D01*
X163674900Y-113845533D01*
X163636819Y-113703411D01*
X163563251Y-113575989D01*
X163459211Y-113471949D01*
X163331789Y-113398381D01*
X163189667Y-113360300D01*
X163042533Y-113360300D01*
X162900411Y-113398381D01*
X162772989Y-113471949D01*
X162668949Y-113575989D01*
X162595381Y-113703411D01*
X162557300Y-113845533D01*
X162456200Y-113845533D01*
X162456200Y-113044100D01*
X163991100Y-113044100D01*
X165983700Y-113044100D01*
X165983700Y-112640458D01*
X165947637Y-112320397D01*
X165875966Y-112006389D01*
X165769593Y-111702394D01*
X165769590Y-111702387D01*
X165629848Y-111412208D01*
X165629838Y-111412190D01*
X165458492Y-111139495D01*
X165458484Y-111139483D01*
X165257677Y-110887681D01*
X165257668Y-110887670D01*
X165029929Y-110659931D01*
X165029918Y-110659922D01*
X164778116Y-110459115D01*
X164778104Y-110459107D01*
X164505409Y-110287761D01*
X164505391Y-110287751D01*
X164215213Y-110148009D01*
X164215206Y-110148006D01*
X163991100Y-110069587D01*
X163991100Y-113044100D01*
X162456200Y-113044100D01*
X162456200Y-112678272D01*
X162424031Y-112433924D01*
X162360243Y-112195865D01*
X162273374Y-111986145D01*
X162242407Y-111857157D01*
X162241100Y-111823890D01*
X162241100Y-110006593D01*
X162210847Y-109948830D01*
X162188627Y-109818048D01*
X162188600Y-109813292D01*
X162188600Y-106544930D01*
X162209352Y-106413907D01*
X162269577Y-106295709D01*
X162312781Y-106245123D01*
X166329887Y-102228016D01*
X166356873Y-102208409D01*
X166380468Y-102184814D01*
X166410206Y-102169660D01*
X166437205Y-102150045D01*
X166468937Y-102139734D01*
X166498665Y-102124587D01*
X166531626Y-102119365D01*
X166563369Y-102109052D01*
X166596735Y-102109052D01*
X166629688Y-102103832D01*
X166662651Y-102109052D01*
G37*
%TD.AperFunction*%
%TD*%
M02*
