%TF.GenerationSoftware,KiCad,Pcbnew,10.0.3*%
%TF.CreationDate,2026-08-04T10:35:35-03:00*%
%TF.ProjectId,Esquema,45737175-656d-4612-9e6b-696361645f70,rev?*%
%TF.SameCoordinates,Original*%
%TF.FileFunction,Soldermask,Top*%
%TF.FilePolarity,Negative*%
%FSLAX46Y46*%
G04 Gerber Fmt 4.6, Leading zero omitted, Abs format (unit mm)*
G04 Created by KiCad (PCBNEW 10.0.3) date 2026-08-04 10:35:35*
%MOMM*%
%LPD*%
G01*
G04 APERTURE LIST*
%ADD10O,4.064000X2.133600*%
%ADD11O,1.473200X2.743200*%
%ADD12O,2.133600X4.064000*%
%ADD13C,3.302000*%
%ADD14O,2.438400X4.673600*%
%ADD15C,3.000000*%
%ADD16O,2.997200X1.600200*%
G04 APERTURE END LIST*
D10*
%TO.C,R1*%
X121206100Y-84709100D03*
X131366100Y-84709100D03*
%TD*%
D11*
%TO.C,UNK3.3-BUZ0*%
X142796100Y-126619100D03*
X140256100Y-126619100D03*
%TD*%
%TO.C,S1-S2*%
X125016100Y-126619100D03*
X122476100Y-126619100D03*
%TD*%
D12*
%TO.C,R5*%
X135811100Y-84709100D03*
X135811100Y-94869100D03*
%TD*%
D13*
%TO.C,Q1*%
X160576100Y-96393100D03*
D14*
X158036100Y-113919100D03*
X160576100Y-113919100D03*
X163116100Y-113919100D03*
%TD*%
D13*
%TO.C,Q3*%
X147876100Y-96393100D03*
D14*
X145336100Y-113919100D03*
X147876100Y-113919100D03*
X150416100Y-113919100D03*
%TD*%
D15*
%TO.C,UNK_HOLE_3*%
X180642100Y-130048100D03*
%TD*%
D11*
%TO.C,SK1-SK2*%
X160830100Y-125349100D03*
X163370100Y-125349100D03*
%TD*%
%TO.C,SKIB1.0*%
X172006100Y-85979100D03*
X174546100Y-85979100D03*
%TD*%
D12*
%TO.C,R7*%
X136319100Y-103378100D03*
X136319100Y-113538100D03*
%TD*%
D10*
%TO.C,R6*%
X122476100Y-103124100D03*
X132636100Y-103124100D03*
%TD*%
%TO.C,OP2*%
X121510900Y-107569100D03*
X121510900Y-110109100D03*
X131061300Y-110109100D03*
X131061300Y-107569100D03*
%TD*%
D15*
%TO.C,UNK_HOLE_1*%
X180515100Y-90170100D03*
%TD*%
D11*
%TO.C,SKIB1.1*%
X165529100Y-85979100D03*
X162989100Y-85979100D03*
%TD*%
%TO.C,BATERIA0*%
X169466100Y-125349100D03*
X172006100Y-125349100D03*
%TD*%
D10*
%TO.C,OP1*%
X121510900Y-88519100D03*
X121510900Y-91059100D03*
X131061300Y-91059100D03*
X131061300Y-88519100D03*
%TD*%
D15*
%TO.C,UNK_HOLE_4*%
X116761100Y-78994100D03*
%TD*%
%TO.C,UNK_HOLE_2*%
X116126100Y-129921100D03*
%TD*%
D11*
%TO.C,GND0*%
X131366100Y-126619100D03*
X133906100Y-126619100D03*
%TD*%
D15*
%TO.C,UNK_HOLE_0*%
X116761100Y-90424100D03*
%TD*%
D12*
%TO.C,R2*%
X155242100Y-131191100D03*
X155242100Y-121031100D03*
%TD*%
D15*
%TO.C,UNK_HOLE_5*%
X180515100Y-78740100D03*
%TD*%
D11*
%TO.C,LSKIB2*%
X130604100Y-115951100D03*
X128064100Y-115951100D03*
%TD*%
%TO.C,SKIB2*%
X154226100Y-85979100D03*
X156766100Y-85979100D03*
%TD*%
%TO.C,LSKIB1*%
X130604100Y-97028100D03*
X128064100Y-97028100D03*
%TD*%
D12*
%TO.C,R4*%
X146860100Y-131064100D03*
X146860100Y-120904100D03*
%TD*%
D13*
%TO.C,Q2*%
X173276100Y-96393100D03*
D14*
X170736100Y-113919100D03*
X173276100Y-113919100D03*
X175816100Y-113919100D03*
%TD*%
D12*
%TO.C,R3*%
X152448100Y-131191100D03*
X152448100Y-121031100D03*
%TD*%
D16*
%TO.C,SP0*%
X144574100Y-83312100D03*
X144574100Y-88392100D03*
%TD*%
M02*
